<svg preserveAspectRatio="xMinYMin meet" viewBox="0 0 160 144" fill="none" xmlns="http://www.w3.org/2000/svg">
<path d="M144.297 72.0819V72.0879C144.297 36.746 115.646 8.09576 80.3046 8.09576C44.9627 8.09576 16.3125 36.746 16.3125 72.0879C16.3125 81.1877 18.2533 90.1829 22.0053 98.4731H138.601H138.601C142.362 90.1835 144.304 81.1847 144.297 72.0818L144.297 72.0819Z" fill="#E8F4FA"/>
<path d="M22.0078 98.4786L22.0078 98.4786C36.583 130.675 74.4989 144.96 106.695 130.385C120.852 123.976 132.193 112.635 138.601 98.4788L22.0078 98.4786Z" fill="white"/>
<path d="M17.1123 98.4786H141.897" stroke="#191816" stroke-linecap="round" stroke-linejoin="round"/>
<path d="M9.91357 98.4786H13.9131" stroke="#191816" stroke-linecap="round" stroke-linejoin="round"/>
<path d="M145.097 98.4786H149.096" stroke="#191816" stroke-linecap="round" stroke-linejoin="round"/>
<path d="M36.3107 98.4786C35.4272 98.4786 34.7109 97.7624 34.7109 96.8788V93.6792C34.7109 92.7957 35.4272 92.0794 36.3107 92.0794H58.708C59.5915 92.0794 60.3078 92.7957 60.3078 93.6792V96.8788C60.3078 97.7624 59.5915 98.4786 58.708 98.4786H36.3107Z" fill="#9CEB60" stroke="#191816" stroke-linecap="round" stroke-linejoin="round"/>
<path d="M44.3091 92.0794H50.7083V98.4786H44.3091V92.0794Z" fill="#C8FFA1" stroke="#191816" stroke-linecap="round" stroke-linejoin="round"/>
<path d="M7.51387 98.4786C6.63033 98.4786 5.91406 97.7624 5.91406 96.8788V93.6792C5.91406 92.7957 6.63033 92.0794 7.51387 92.0794H29.9111C30.7946 92.0794 31.5109 92.7957 31.5109 93.6792V96.8788C31.5109 97.7624 30.7946 98.4786 29.9111 98.4786H7.51387Z" fill="#9CEB60" stroke="#191816" stroke-linecap="round" stroke-linejoin="round"/>
<path d="M15.5132 92.0794H21.9124V98.4786H15.5132V92.0794Z" fill="#C8FFA1" stroke="#191816" stroke-linecap="round" stroke-linejoin="round"/>
<path d="M39.51 92.0794C38.6264 92.0794 37.9102 91.3632 37.9102 90.4796V87.28C37.9102 86.3965 38.6264 85.6802 39.51 85.6802H61.9072C62.7907 85.6802 63.507 86.3965 63.507 87.28V90.4796C63.507 91.3632 62.7907 92.0794 61.9072 92.0794H39.51Z" fill="#9CEB60" stroke="#191816" stroke-linecap="round" stroke-linejoin="round"/>
<path d="M47.5088 85.6802H53.908V92.0794H47.5088V85.6802Z" fill="#C8FFA1" stroke="#191816" stroke-linecap="round" stroke-linejoin="round"/>
<path d="M10.7131 92.0794C9.82954 92.0794 9.11328 91.3632 9.11328 90.4796V87.28C9.11328 86.3965 9.82954 85.6802 10.7131 85.6802H33.1103C33.9939 85.6802 34.7101 86.3965 34.7101 87.28V90.4796C34.7101 91.3632 33.9939 92.0794 33.1103 92.0794H10.7131Z" fill="#9CEB60" stroke="#191816" stroke-linecap="round" stroke-linejoin="round"/>
<path d="M18.7124 85.6802H25.1116V92.0794H18.7124V85.6802Z" fill="#C8FFA1" stroke="#191816" stroke-linecap="round" stroke-linejoin="round"/>
<path d="M34.7106 85.6802C33.8271 85.6802 33.1108 84.9639 33.1108 84.0804V80.8807C33.1108 79.9972 33.8271 79.2809 34.7106 79.2809H57.1079C57.9914 79.2809 58.7077 79.9972 58.7077 80.8807V84.0804C58.7077 84.9639 57.9914 85.6802 57.1079 85.6802H34.7106Z" fill="#9CEB60" stroke="#191816" stroke-linecap="round" stroke-linejoin="round"/>
<path d="M42.709 79.2809H49.1082V85.6802H42.709V79.2809Z" fill="#C8FFA1" stroke="#191816" stroke-linecap="round" stroke-linejoin="round"/>
<path d="M39.51 79.281C38.6264 79.281 37.9102 78.5647 37.9102 77.6812V74.4816C37.9102 73.598 38.6264 72.8818 39.51 72.8818H61.9072C62.7907 72.8818 63.507 73.598 63.507 74.4816V77.6812C63.507 78.5647 62.7907 79.281 61.9072 79.281H39.51Z" fill="#9CEB60" stroke="#191816" stroke-linecap="round" stroke-linejoin="round"/>
<path d="M47.5088 72.8818H53.908V79.281H47.5088V72.8818Z" fill="#C8FFA1" stroke="#191816" stroke-linecap="round" stroke-linejoin="round"/>
<path d="M4.31416 85.6802C3.43062 85.6802 2.71436 84.9639 2.71436 84.0804V80.8807C2.71436 79.9972 3.43062 79.2809 4.31416 79.2809H26.7114C27.5949 79.2809 28.3112 79.9972 28.3112 80.8807V84.0804C28.3112 84.9639 27.5949 85.6802 26.7114 85.6802H4.31416Z" fill="#9CEB60" stroke="#191816" stroke-linecap="round" stroke-linejoin="round"/>
<path d="M12.313 79.2809H18.7122V85.6802H12.313V79.2809Z" fill="#C8FFA1" stroke="#191816" stroke-linecap="round" stroke-linejoin="round"/>
<path d="M9.11396 79.281C8.23042 79.281 7.51416 78.5647 7.51416 77.6812V74.4816C7.51416 73.598 8.23042 72.8818 9.11396 72.8818H31.5112C32.3947 72.8818 33.111 73.598 33.111 74.4816V77.6812C33.111 78.5647 32.3947 79.281 31.5112 79.281H9.11396Z" fill="#9CEB60" stroke="#191816" stroke-linecap="round" stroke-linejoin="round"/>
<path d="M17.1123 72.8818H23.5115V79.281H17.1123V72.8818Z" fill="#C8FFA1" stroke="#191816" stroke-linecap="round" stroke-linejoin="round"/>
<path d="M37.9099 72.8818C37.0263 72.8818 36.3101 72.1655 36.3101 71.282V68.0823C36.3101 67.1988 37.0263 66.4825 37.9099 66.4825H60.3071C61.1906 66.4825 61.9069 67.1988 61.9069 68.0823V71.282C61.9069 72.1655 61.1906 72.8818 60.3071 72.8818H37.9099Z" fill="#9CEB60" stroke="#191816" stroke-linecap="round" stroke-linejoin="round"/>
<path d="M45.9092 66.4825H52.3084V72.8818H45.9092V66.4825Z" fill="#C8FFA1" stroke="#191816" stroke-linecap="round" stroke-linejoin="round"/>
<path d="M7.51387 72.8818C6.63033 72.8818 5.91406 72.1655 5.91406 71.282V68.0823C5.91406 67.1988 6.63033 66.4825 7.51387 66.4825H29.9111C30.7946 66.4825 31.5109 67.1988 31.5109 68.0823V71.282C31.5109 72.1655 30.7946 72.8818 29.9111 72.8818H7.51387Z" fill="#9CEB60" stroke="#191816" stroke-linecap="round" stroke-linejoin="round"/>
<path d="M15.5132 66.4825H21.9124V72.8818H15.5132V66.4825Z" fill="#C8FFA1" stroke="#191816" stroke-linecap="round" stroke-linejoin="round"/>
<path d="M26.7111 66.4826C25.8276 66.4826 25.1113 65.7663 25.1113 64.8828V61.6832C25.1113 60.7996 25.8276 60.0834 26.7111 60.0834H49.1084C49.9919 60.0834 50.7082 60.7996 50.7082 61.6832V64.8828C50.7082 65.7663 49.9919 66.4826 49.1084 66.4826H26.7111Z" fill="#9CEB60" stroke="#191816" stroke-linecap="round" stroke-linejoin="round"/>
<path d="M34.7109 60.0834H41.1101V66.4826H34.7109V60.0834Z" fill="#C8FFA1" stroke="#191816" stroke-linecap="round" stroke-linejoin="round"/>
<path d="M122.699 86.4802C122.699 72.7852 111.597 61.6832 97.9024 61.6832C84.2074 61.6832 73.1055 72.7852 73.1055 86.4802V98.4787H122.699V86.4802Z" fill="#B89558"/>
<path d="M122.699 86.4802C122.699 72.7852 111.597 61.6832 97.9024 61.6832C84.2074 61.6832 73.1055 72.7852 73.1055 86.4802V98.4787H122.699V86.4802Z" stroke="#191816" stroke-linecap="round" stroke-linejoin="round"/>
<path d="M82.7046 84.0804V98.4786" stroke="#191816" stroke-linecap="round" stroke-linejoin="round"/>
<path d="M113.101 84.0804V98.4786" stroke="#191816" stroke-linecap="round" stroke-linejoin="round"/>
<path d="M92.3032 62.4831V62.4831C92.3032 65.5755 94.8101 68.0824 97.9025 68.0824C100.995 68.0824 103.502 65.5755 103.502 62.4831V56.8838H92.3032V62.4831Z" fill="#FFCEBF"/>
<path d="M92.3032 62.4671V62.4671C95.9568 63.5554 99.8483 63.5554 103.502 62.4671V56.8838H92.3032V62.4671Z" fill="#FFB59E"/>
<path d="M92.3032 62.4831V56.8838H103.502V62.4831C103.502 65.5755 100.995 68.0824 97.9025 68.0824C94.8101 68.0824 92.3032 65.5755 92.3032 62.4831Z" stroke="#191816" stroke-linecap="round" stroke-linejoin="round"/>
<path d="M97.9024 68.0824C97.9024 68.0824 92.3031 60.8832 89.9034 60.8832C87.5037 60.8832 85.7119 64.8827 85.7119 64.8827L91.3432 71.042V71.042C91.889 71.6404 92.7958 71.7366 93.455 71.266L97.9024 68.0824Z" fill="#B89558" stroke="#191816" stroke-linecap="round" stroke-linejoin="round"/>
<path d="M97.9023 68.0824C97.9023 68.0824 103.502 60.8832 105.901 60.8832C108.301 60.8832 110.093 64.8827 110.093 64.8827L104.462 71.042V71.042C103.916 71.6404 103.009 71.7366 102.35 71.266L97.9023 68.0824Z" fill="#B89558" stroke="#191816" stroke-linecap="round" stroke-linejoin="round"/>
<path d="M97.9023 68.0824V98.4787" stroke="#191816" stroke-linecap="round" stroke-linejoin="round"/>
<path d="M87.7757 63.8749H87.7757C78.8606 67.8634 73.1171 76.7135 73.1055 86.4801V98.4786H91.5032V72.0819L87.7757 63.8749Z" fill="#915E3A"/>
<path d="M90.5593 70.0021L87.7757 63.8749H87.7757C78.8606 67.8634 73.1171 76.7135 73.1055 86.4801V93.6792V93.6751C73.1055 82.8098 80.1833 73.2117 90.5633 70.0009L90.5593 70.0021Z" fill="#BF8256"/>
<path d="M87.7757 63.8749H87.7757C78.8606 67.8634 73.1171 76.7135 73.1055 86.4801V98.4786H91.5032V72.0819L87.7757 63.8749Z" stroke="#191816" stroke-linecap="round" stroke-linejoin="round"/>
<path d="M86.896 61.9391V61.9391C86.5937 61.2447 85.8458 60.8574 85.1042 61.0112V61.0112C82.2971 61.6405 80.3025 64.1336 80.3048 67.0105V67.0105C80.3003 67.7412 80.4249 68.4669 80.6728 69.1542L82.8485 75.1055V75.1055C83.1492 75.9363 84.0665 76.366 84.8973 76.0653C84.9914 76.0312 85.0821 75.9884 85.1682 75.9374L91.5674 72.1299L86.896 61.9391Z" fill="#915E3A" stroke="#191816" stroke-linecap="round" stroke-linejoin="round"/>
<path d="M108.062 63.8589L104.302 72.0819V98.4786H122.7V86.4801V86.4794C122.7 76.7146 116.969 67.8589 108.061 63.8587L108.062 63.8589Z" fill="#915E3A"/>
<path d="M108.061 63.8589L105.277 69.9862V69.9862C115.65 73.2119 122.712 82.8168 122.699 93.6792V86.4801V86.4794C122.699 76.7146 116.968 67.8589 108.06 63.8587L108.061 63.8589Z" fill="#BF8256"/>
<path d="M108.062 63.8589L104.302 72.0819V98.4786H122.7V86.4801V86.4794C122.7 76.7146 116.969 67.8589 108.061 63.8587L108.062 63.8589Z" stroke="#191816" stroke-linecap="round" stroke-linejoin="round"/>
<path d="M108.909 61.9391V61.9391C109.212 61.2447 109.959 60.8574 110.701 61.0112V61.0112C113.508 61.6405 115.503 64.1336 115.5 67.0105V67.0105C115.505 67.7412 115.38 68.4669 115.132 69.1542L112.957 75.1055V75.1055C112.656 75.9363 111.739 76.366 110.908 76.0653C110.814 76.0312 110.723 75.9884 110.637 75.9374L104.238 72.1299L108.909 61.9391Z" fill="#915E3A" stroke="#191816" stroke-linecap="round" stroke-linejoin="round"/>
<path d="M113.9 40.0859V36.0864C113.9 27.2509 106.738 20.0883 97.9022 20.0883C89.0668 20.0883 81.9042 27.2509 81.9042 36.0864V40.0859V40.0859C80.1371 40.0859 78.7046 41.5184 78.7046 43.2855C78.7046 45.0526 80.1371 46.4851 81.9042 46.4851H82.0962V46.4851C83.4608 55.2145 91.6437 61.1848 100.373 59.8202C107.244 58.746 112.634 53.356 113.708 46.4851H113.9V46.4851C115.667 46.4851 117.1 45.0526 117.1 43.2855C117.1 41.5184 115.667 40.0859 113.9 40.0859L113.9 40.0859Z" fill="#FFCEBF" stroke="#191816" stroke-linecap="round" stroke-linejoin="round"/>
<path d="M90.1174 45.471C90.8984 46.2519 90.8984 47.5181 90.1174 48.2991C89.3365 49.08 88.0703 49.08 87.2893 48.2991C86.5084 47.5181 86.5084 46.2519 87.2893 45.471C88.0703 44.69 89.3364 44.69 90.1174 45.471Z" fill="#FFB59E"/>
<path d="M108.515 45.471C109.296 46.2519 109.296 47.5181 108.515 48.2991C107.734 49.08 106.468 49.08 105.687 48.2991C104.906 47.5181 104.906 46.2519 105.687 45.471C106.468 44.69 107.734 44.69 108.515 45.471" fill="#FFB59E"/>
<path d="M97.9025 64.0829C101.902 64.0829 108.301 60.8833 108.301 56.1958C108.301 54.692 109.149 48.0848 97.9025 48.0848C86.6559 48.0848 87.5038 54.756 87.5038 56.1958C87.5038 60.8833 93.903 64.0829 97.9025 64.0829ZM100.35 56.8838L99.9183 55.5879V55.5879C99.7038 54.93 99.0905 54.4846 98.3985 54.4841H97.5026V54.4841C96.7813 54.4488 96.1258 54.9011 95.9028 55.5879L95.4708 56.8838C93.871 56.8838 91.4713 56.2438 91.4713 54.2601V54.2601C91.47 53.418 91.9479 52.6485 92.7032 52.2763L93.999 51.6364V51.6364C94.4448 51.408 94.938 51.2874 95.4388 51.2844H100.238V51.2844C100.739 51.2874 101.232 51.408 101.678 51.6364L102.974 52.2763V52.2763C103.767 52.6206 104.286 53.3959 104.302 54.2601C104.302 56.1638 102.126 56.8517 100.35 56.8837V56.8838Z" fill="#724F3D" stroke="#191816" stroke-linecap="round" stroke-linejoin="round"/>
<path d="M114.525 34.4866L112.701 17.5286V17.5286C112.618 16.7081 111.926 16.0847 111.101 16.0888H84.7043V16.0888C83.8797 16.0847 83.187 16.7081 83.1045 17.5286L81.2808 34.4866H114.525Z" fill="#656769"/>
<path d="M83.1045 22.3281V22.3281C83.187 21.5075 83.8797 20.8841 84.7043 20.8882H111.101V20.8882C111.926 20.8841 112.618 21.5075 112.701 22.3281L114.013 34.4866H114.525L112.701 17.5286V17.5286C112.618 16.7081 111.926 16.0847 111.101 16.0888H84.7043V16.0888C83.8797 16.0847 83.187 16.7081 83.1045 17.5286L81.2808 34.4866H81.7927L83.1045 22.3281Z" fill="#87898C"/>
<path d="M114.525 34.4866L112.701 17.5286V17.5286C112.618 16.7081 111.926 16.0847 111.101 16.0888H84.7043V16.0888C83.8797 16.0847 83.187 16.7081 83.1045 17.5286L81.2808 34.4866H114.525Z" stroke="#191816" stroke-linecap="round" stroke-linejoin="round"/>
<path d="M114.525 34.4866L113.837 28.0873H81.9687L81.2808 34.4866H114.525V34.4866Z" fill="#525252" stroke="#191816" stroke-linecap="round" stroke-linejoin="round"/>
<path d="M121.1 37.6861V37.6861C121.983 37.6861 122.699 36.9699 122.699 36.0863C122.699 35.2028 121.983 34.4865 121.1 34.4865H74.7053V34.4865C73.8217 34.4865 73.1055 35.2028 73.1055 36.0863C73.1055 36.9699 73.8217 37.6861 74.7053 37.6861H121.1Z" fill="#656769" stroke="#191816" stroke-linecap="round" stroke-linejoin="round"/>
<path d="M95.5024 40.8858V40.8858C95.5024 39.5605 96.5768 38.4861 97.9021 38.4861C99.2275 38.4861 100.302 39.5605 100.302 40.8858" stroke="#191816" stroke-linecap="round" stroke-linejoin="round"/>
<path d="M108.301 47.2849H106.701V47.2849C103.167 47.2849 100.302 44.4199 100.302 40.8857V39.2859V39.2859C100.302 38.4024 101.019 37.6861 101.902 37.6861H108.301V37.6861C110.952 37.6861 113.101 39.8349 113.101 42.4855V42.4855C113.101 45.1361 110.952 47.2849 108.301 47.2849C108.301 47.2849 108.301 47.2849 108.301 47.2849V47.2849Z" fill="#00B8F0"/>
<path d="M87.504 47.2849H89.1038V47.2849C92.638 47.2849 95.503 44.4199 95.503 40.8857V39.2859C95.503 38.4024 94.7868 37.6861 93.9032 37.6861H87.504V37.6861C84.8534 37.6861 82.7046 39.8349 82.7046 42.4855V42.4855C82.7046 45.1361 84.8534 47.2849 87.504 47.2849V47.2849Z" fill="#00B8F0"/>
<path d="M103.054 46.1331L110.781 38.406V38.406C110.038 37.9386 109.179 37.6892 108.301 37.6861H101.902V37.6861C101.019 37.6861 100.302 38.4024 100.302 39.2859V40.8857V40.8855C100.306 42.9795 101.333 44.9394 103.054 46.133L103.054 46.1331Z" fill="#4ACFFF"/>
<path d="M85.1044 46.581L93.9833 37.6861H87.5841V37.6861C84.9334 37.6985 82.7948 39.8573 82.8072 42.5079C82.815 44.1721 83.6843 45.7134 85.1044 46.581V46.581Z" fill="#4ACFFF"/>
<path d="M108.301 47.2849H106.701V47.2849C103.167 47.2849 100.302 44.4199 100.302 40.8857V39.2859V39.2859C100.302 38.4024 101.019 37.6861 101.902 37.6861H108.301V37.6861C110.952 37.6861 113.101 39.8349 113.101 42.4855V42.4855C113.101 45.1361 110.952 47.2849 108.301 47.2849C108.301 47.2849 108.301 47.2849 108.301 47.2849V47.2849Z" stroke="#191816" stroke-linecap="round" stroke-linejoin="round"/>
<path d="M87.504 47.2849H89.1038V47.2849C92.638 47.2849 95.503 44.4199 95.503 40.8857V39.2859C95.503 38.4024 94.7868 37.6861 93.9032 37.6861H87.504V37.6861C84.8534 37.6861 82.7046 39.8349 82.7046 42.4855V42.4855C82.7046 45.1361 84.8534 47.2849 87.504 47.2849V47.2849Z" stroke="#191816" stroke-linecap="round" stroke-linejoin="round"/>
<path d="M106.702 41.6856V41.6856C106.138 40.3603 104.607 39.7428 103.282 40.3064C102.661 40.5704 102.166 41.0648 101.902 41.6856" stroke="#191816" stroke-linecap="round" stroke-linejoin="round"/>
<path d="M93.9195 41.6856V41.6856C93.3559 40.3603 91.8246 39.7428 90.4993 40.3064C89.8785 40.5704 89.3841 41.0648 89.1201 41.6856" stroke="#191816" stroke-linecap="round" stroke-linejoin="round"/>
<path d="M57.6676 121.02V121.02C57.598 121.281 57.5604 121.55 57.5557 121.82V127.723V127.723C57.5557 128.607 58.2719 129.323 59.1555 129.323H75.2975V129.323C76.181 129.323 76.8973 128.607 76.8973 127.723V121.004L57.6676 121.02Z" fill="#9CEB60" stroke="#191816" stroke-linecap="round" stroke-linejoin="round"/>
<path d="M77.4733 113.517V113.517C77.544 112.636 76.8873 111.865 76.0066 111.794C75.9623 111.791 75.9179 111.789 75.8735 111.789H63.475V111.789C62.8853 111.791 62.3443 112.116 62.0672 112.637L57.9077 120.348V120.348C57.7937 120.573 57.7026 120.809 57.6357 121.052H76.8334V120.924L77.4733 113.517Z" fill="#9CEB60" stroke="#191816" stroke-linecap="round" stroke-linejoin="round"/>
<path d="M57.5557 123.979H66.1626" stroke="#191816" stroke-linecap="round" stroke-linejoin="round"/>
<path d="M70.3857 126.427H76.8969" stroke="#191816" stroke-linecap="round" stroke-linejoin="round"/>
<path d="M65.2828 116.396C64.7229 117.5 66.0667 118.396 68.2744 118.396C70.4822 118.396 72.2739 117.5 72.2739 116.396C72.2739 115.293 70.9301 114.397 69.2823 114.397V114.397C67.7011 114.364 66.205 115.112 65.2828 116.396V116.396Z" fill="#6DD627"/>
<path d="M49.2529 121.02H30.9191V121.02C30.6722 121.477 30.5404 121.988 30.5352 122.508V127.739V127.739C30.5352 128.623 31.2514 129.339 32.135 129.339H47.4611V129.339C48.1026 129.331 48.7268 129.13 49.2529 128.763V121.02Z" fill="#9CEB60" stroke="#191816" stroke-linecap="round" stroke-linejoin="round"/>
<path d="M40.7253 112.349L40.5493 112.477L36.1018 116.236L31.6704 120.044V120.044C31.3627 120.315 31.1078 120.64 30.9185 121.004H49.2522L55.6514 112.301V112.301C55.5156 112.139 55.3464 112.008 55.1555 111.917V111.917C54.9495 111.821 54.7266 111.767 54.4996 111.757H42.437V111.757C41.8213 111.785 41.2269 111.991 40.7253 112.349V112.349Z" fill="#9CEB60" stroke="#191816" stroke-linecap="round" stroke-linejoin="round"/>
<path d="M55.636 112.349L49.2368 121.052V128.779V128.779C49.616 128.53 49.9377 128.202 50.1807 127.819L55.796 118.668V118.668C55.9567 118.421 56.0402 118.131 56.036 117.836V113.357V113.357C56.0325 113.165 55.9946 112.975 55.924 112.797V112.797C55.8508 112.629 55.7538 112.473 55.636 112.333V112.349Z" fill="#9CEB60" stroke="#191816" stroke-linecap="round" stroke-linejoin="round"/>
<path d="M30.5352 123.995H38.8221" stroke="#191816" stroke-linecap="round" stroke-linejoin="round"/>
<path d="M49.2527 126.427H41.8296" stroke="#191816" stroke-linecap="round" stroke-linejoin="round"/>
<path d="M41.3979 116.396C40.342 117.452 41.2059 118.316 43.3177 118.316C45.4294 118.316 47.5891 117.452 48.1171 116.396C48.645 115.341 47.7971 114.477 46.1973 114.477V114.477C44.4257 114.552 42.7326 115.229 41.3979 116.396V116.396Z" fill="#6DD627"/>
<path d="M83.3442 121.004V127.723V127.723C83.3442 128.607 84.0605 129.323 84.944 129.323H101.102V129.323C101.986 129.323 102.702 128.607 102.702 127.723V121.82V121.82C102.697 121.55 102.66 121.281 102.59 121.02L83.3442 121.004Z" fill="#9CEB60" stroke="#191816" stroke-linecap="round" stroke-linejoin="round"/>
<path d="M83.3442 123.979H91.9512" stroke="#191816" stroke-linecap="round" stroke-linejoin="round"/>
<path d="M96.1909 126.427H102.686" stroke="#191816" stroke-linecap="round" stroke-linejoin="round"/>
<path d="M102.302 120.348L98.1744 112.669V112.669C97.8973 112.148 97.3563 111.823 96.7666 111.821H84.3681V111.821C83.4846 111.818 82.766 112.532 82.7632 113.416C82.763 113.46 82.7648 113.504 82.7683 113.549V114.189L83.2802 121.036H102.478V121.036C102.441 120.802 102.382 120.571 102.302 120.348V120.348Z" fill="#9CEB60" stroke="#191816" stroke-linecap="round" stroke-linejoin="round"/>
<path d="M94.9589 116.396C95.5188 117.5 94.175 118.396 91.9673 118.396C89.7596 118.396 87.9678 117.5 87.9678 116.396C87.9678 115.293 89.3116 114.397 90.9594 114.397V114.397C92.5406 114.364 94.0367 115.112 94.9589 116.396V116.396Z" fill="#6DD627"/>
<path d="M129.706 127.723V122.492V122.492C129.701 121.972 129.569 121.461 129.323 121.004H110.989V128.731V128.731C111.515 129.098 112.139 129.299 112.781 129.307H128.107V129.307C128.984 129.307 129.698 128.6 129.706 127.723V127.723Z" fill="#9CEB60" stroke="#191816" stroke-linecap="round" stroke-linejoin="round"/>
<path d="M110.989 123.979H119.692" stroke="#191816" stroke-linecap="round" stroke-linejoin="round"/>
<path d="M123.116 126.427H129.707" stroke="#191816" stroke-linecap="round" stroke-linejoin="round"/>
<path d="M110.989 121.02H129.322V121.02C129.133 120.656 128.878 120.331 128.571 120.06L119.692 112.541V112.541C119.116 112.049 118.385 111.777 117.628 111.773H105.789V111.773C105.333 111.782 104.902 111.986 104.605 112.333L110.989 121.02Z" fill="#9CEB60" stroke="#191816" stroke-linecap="round" stroke-linejoin="round"/>
<path d="M104.19 113.357V117.804V117.804C104.186 118.099 104.269 118.389 104.43 118.636L110.045 127.803V127.803C110.293 128.178 110.614 128.5 110.989 128.747V121.02L104.59 112.317V112.317C104.336 112.604 104.195 112.973 104.19 113.357V113.357Z" fill="#9CEB60" stroke="#191816" stroke-linecap="round" stroke-linejoin="round"/>
<path d="M118.844 116.396C119.9 117.452 119.036 118.316 116.924 118.316C114.813 118.316 112.653 117.452 112.125 116.396C111.597 115.341 112.445 114.477 114.045 114.477V114.477C115.816 114.552 117.509 115.229 118.844 116.396V116.396Z" fill="#6DD627"/>
<path d="M44.3091 114.093V119.42V119.42C44.3091 120.304 45.0253 121.02 45.9089 121.02H61.9069V121.02C62.7218 121.004 63.5 120.678 64.0826 120.108V112.701H44.645V112.701C44.438 113.137 44.3236 113.611 44.3091 114.093V114.093Z" fill="#9CEB60" stroke="#191816" stroke-linecap="round" stroke-linejoin="round"/>
<path d="M44.6455 112.701H64.0191L68.0506 104.142V104.142C67.7588 103.721 67.2829 103.465 66.7708 103.454H55.5722V103.454C54.7583 103.453 53.9745 103.762 53.3804 104.318L46.9812 110.237L45.3814 111.757V111.757C45.0811 112.025 44.8318 112.344 44.6455 112.701H44.6455Z" fill="#9CEB60" stroke="#191816" stroke-linecap="round" stroke-linejoin="round"/>
<path d="M68.3705 109.357V105.054V105.054C68.3546 104.725 68.2434 104.408 68.0505 104.142L64.019 112.701V120.108V120.108C64.3637 119.797 64.6367 119.415 64.8189 118.988L68.1465 110.509V110.509C68.2916 110.142 68.3675 109.752 68.3705 109.357V109.357Z" fill="#9CEB60" stroke="#191816" stroke-linecap="round" stroke-linejoin="round"/>
<path d="M44.3091 115.661H52.5641" stroke="#191816" stroke-linecap="round" stroke-linejoin="round"/>
<path d="M56.5962 118.124H64.0193" stroke="#191816" stroke-linecap="round" stroke-linejoin="round"/>
<path d="M54.5644 108.093C53.5085 109.149 54.3564 110.013 56.4841 110.013C58.6119 110.013 60.7556 109.149 61.2835 108.093C61.8115 107.038 60.9476 106.174 59.3638 106.174V106.174C57.5916 106.246 55.8977 106.924 54.5644 108.093V108.093Z" fill="#6DD627"/>
<path d="M115.868 114.093V114.093C115.868 113.611 115.758 113.135 115.548 112.701H96.1587V120.108V120.108C96.7453 120.682 97.5299 121.008 98.3504 121.02H114.348V121.02C115.232 121.02 115.948 120.304 115.948 119.42L115.868 114.093Z" fill="#9CEB60" stroke="#191816" stroke-linecap="round" stroke-linejoin="round"/>
<path d="M96.1587 115.677L104.83 115.661" stroke="#191816" stroke-linecap="round" stroke-linejoin="round"/>
<path d="M109.773 118.108H115.868" stroke="#191816" stroke-linecap="round" stroke-linejoin="round"/>
<path d="M96.1586 112.701H115.5V112.701C115.328 112.344 115.089 112.024 114.796 111.757L113.196 110.237L106.797 104.318V104.318C106.207 103.765 105.43 103.457 104.622 103.454H93.4229V103.454C92.9108 103.465 92.4349 103.721 92.1431 104.142L96.1586 112.701Z" fill="#9CEB60" stroke="#191816" stroke-linecap="round" stroke-linejoin="round"/>
<path d="M91.8232 105.054V109.357V109.357C91.8263 109.752 91.9022 110.142 92.0472 110.509L95.3748 118.988V118.988C95.555 119.412 95.822 119.794 96.1587 120.108V112.701L92.1432 104.142V104.142C91.9451 104.406 91.8333 104.724 91.8232 105.054V105.054Z" fill="#9CEB60" stroke="#191816" stroke-linecap="round" stroke-linejoin="round"/>
<path d="M105.63 108.093C106.686 109.149 105.822 110.013 103.71 110.013C101.598 110.013 99.4384 109.149 98.9105 108.093C98.3826 107.038 99.2464 106.174 100.83 106.174H100.83C102.602 106.249 104.295 106.926 105.63 108.093V108.093Z" fill="#6DD627"/>
<path d="M70.4816 112.685V112.685C70.4658 112.925 70.4658 113.165 70.4816 113.405V119.404V119.404C70.4817 120.288 71.1979 121.004 72.0815 121.004H88.1595V121.004C89.043 121.004 89.7593 120.288 89.7593 119.404V113.421V113.421C89.7752 113.176 89.7752 112.93 89.7593 112.685H70.4816Z" fill="#9CEB60" stroke="#191816" stroke-linecap="round" stroke-linejoin="round"/>
<path d="M70.4819 112.685H89.6796C89.6796 112.461 89.5836 112.221 89.5196 111.997L89.1676 110.749L87.2479 104.59V104.59C87.0366 103.89 86.3782 103.423 85.6481 103.454H74.4334V103.454C73.7033 103.423 73.0449 103.89 72.8336 104.59L71.3778 109.389L70.7059 112.013V112.013C70.6158 112.231 70.541 112.456 70.4819 112.685V112.685Z" fill="#9CEB60" stroke="#191816" stroke-linecap="round" stroke-linejoin="round"/>
<path d="M83.0883 108.077C83.6483 109.181 82.3044 110.077 80.0967 110.077C77.889 110.077 76.5451 109.149 77.1051 108.077V108.077C77.7053 106.946 78.8367 106.193 80.1127 106.078V106.078C81.38 106.195 82.5009 106.948 83.0883 108.077V108.077Z" fill="#6DD627"/>
<path d="M70.4341 115.677L78.897 115.661" stroke="#191816" stroke-linecap="round" stroke-linejoin="round"/>
<path d="M83.8408 118.108H89.7601" stroke="#191816" stroke-linecap="round" stroke-linejoin="round"/>
</svg>
