<svg preserveAspectRatio="xMinYMin meet" viewBox="0 0 160 144" fill="none" xmlns="http://www.w3.org/2000/svg">
<path d="M79.7998 136C115.146 136 143.8 107.346 143.8 72C143.8 36.6538 115.146 8 79.7998 8C44.4536 8 15.7998 36.6538 15.7998 72C15.7998 107.346 44.4536 136 79.7998 136Z" fill="#E8F4FA"/>
<path opacity="0.15" d="M80.6002 110.96C105.387 110.96 125.48 109.778 125.48 108.32C125.48 106.862 105.387 105.68 80.6002 105.68C55.8137 105.68 35.7202 106.862 35.7202 108.32C35.7202 109.778 55.8137 110.96 80.6002 110.96Z" fill="#191816"/>
<path d="M113.72 35.296H47.4801C45.3594 35.296 43.6401 37.0152 43.6401 39.136V93.76C43.6401 95.8808 45.3594 97.6 47.4801 97.6H113.72C115.841 97.6 117.56 95.8808 117.56 93.76V39.136C117.56 37.0152 115.841 35.296 113.72 35.296Z" fill="#F0F0F0" stroke="#191816" stroke-linejoin="round"/>
<path d="M47.4801 35.28H113.72C114.739 35.28 115.715 35.6845 116.435 36.4047C117.156 37.1248 117.56 38.1015 117.56 39.12V54.288H43.6401V39.12C43.6401 38.6157 43.7395 38.1164 43.9324 37.6505C44.1254 37.1846 44.4083 36.7613 44.7648 36.4047C45.1214 36.0481 45.5447 35.7652 46.0106 35.5723C46.4765 35.3793 46.9759 35.28 47.4801 35.28Z" fill="#FF6242"/>
<path d="M113.336 35.28H47.8641C46.7439 35.28 45.6695 35.725 44.8773 36.5172C44.0852 37.3093 43.6401 38.3837 43.6401 39.504V44.8C43.6444 43.6825 44.0913 42.6122 44.883 41.8235C45.6747 41.0348 46.7466 40.592 47.8641 40.592H113.336C114.454 40.592 115.526 41.0348 116.317 41.8235C117.109 42.6122 117.556 43.6825 117.56 44.8V39.52C117.562 38.9639 117.455 38.4129 117.243 37.8986C117.032 37.3843 116.721 36.9167 116.329 36.5228C115.936 36.1289 115.47 35.8163 114.956 35.603C114.443 35.3898 113.892 35.28 113.336 35.28Z" fill="#FF866E"/>
<path d="M117.56 66.976V93.376C117.56 94.4963 117.115 95.5706 116.323 96.3628C115.531 97.155 114.457 97.6 113.336 97.6H83.8003C83.8003 97.6 100.664 92.304 117.56 66.976Z" fill="#F7E5C6"/>
<path d="M83.8003 97.6H93.3043C99.4003 94.48 106.76 89.6 117.592 74.368V66.976C100.664 92.304 83.8003 97.6 83.8003 97.6Z" fill="#F0D5A8"/>
<path d="M117.56 66.976V93.376C117.56 94.4963 117.115 95.5706 116.323 96.3628C115.531 97.155 114.457 97.6 113.336 97.6H83.8003C83.8003 97.6 100.664 92.304 117.56 66.976Z" stroke="#191816" stroke-linejoin="round"/>
<path d="M47.4801 35.28H113.72C114.739 35.28 115.715 35.6845 116.435 36.4047C117.156 37.1248 117.56 38.1015 117.56 39.12V54.288H43.6401V39.12C43.6401 38.6157 43.7395 38.1164 43.9324 37.6505C44.1254 37.1846 44.4083 36.7613 44.7648 36.4047C45.1214 36.0481 45.5447 35.7652 46.0106 35.5723C46.4765 35.3793 46.9759 35.28 47.4801 35.28V35.28Z" stroke="#191816" stroke-linejoin="round"/>
<path d="M59.4801 41.6C58.2143 41.6 56.9769 41.2246 55.9244 40.5214C54.872 39.8182 54.0517 38.8186 53.5673 37.6492C53.0829 36.4797 52.9561 35.1929 53.2031 33.9514C53.45 32.7099 54.0595 31.5696 54.9546 30.6745C55.8497 29.7795 56.99 29.1699 58.2315 28.923C59.473 28.676 60.7598 28.8028 61.9293 29.2872C63.0987 29.7716 64.0982 30.5919 64.8015 31.6443C65.5047 32.6968 65.8801 33.9342 65.8801 35.2" stroke="#191816" stroke-linecap="round" stroke-linejoin="round"/>
<path d="M81.6563 41.6C80.3905 41.6 79.1532 41.2246 78.1007 40.5214C77.0482 39.8182 76.2279 38.8186 75.7435 37.6492C75.2591 36.4797 75.1324 35.1929 75.3793 33.9514C75.6263 32.7099 76.2358 31.5696 77.1309 30.6745C78.0259 29.7795 79.1663 29.1699 80.4078 28.923C81.6492 28.676 82.9361 28.8028 84.1055 29.2872C85.275 29.7716 86.2745 30.5919 86.9777 31.6443C87.681 32.6968 88.0563 33.9342 88.0563 35.2" stroke="#191816" stroke-linecap="round" stroke-linejoin="round"/>
<path d="M103.832 41.6C102.566 41.6 101.329 41.2246 100.276 40.5214C99.224 39.8182 98.4037 38.8186 97.9193 37.6492C97.4349 36.4797 97.3082 35.1929 97.5551 33.9514C97.8021 32.7099 98.4116 31.5696 99.3066 30.6745C100.202 29.7795 101.342 29.1699 102.584 28.923C103.825 28.676 105.112 28.8028 106.281 29.2872C107.451 29.7716 108.45 30.5919 109.154 31.6443C109.857 32.6968 110.232 33.9342 110.232 35.2" stroke="#191816" stroke-linecap="round" stroke-linejoin="round"/>
<path d="M43.6401 64.848H117.56" stroke="#191816" stroke-linecap="round" stroke-linejoin="round"/>
<path d="M43.6401 75.408H87.8161" stroke="#191816" stroke-linecap="round" stroke-linejoin="round"/>
<path d="M43.6401 85.984H87.8161" stroke="#191816" stroke-linecap="round" stroke-linejoin="round"/>
<path d="M58.4243 54.288V97.584" stroke="#191816" stroke-linecap="round" stroke-linejoin="round"/>
<path d="M73.2085 54.288V97.584" stroke="#191816" stroke-linecap="round" stroke-linejoin="round"/>
<path d="M87.9922 54.288V68.624" stroke="#191816" stroke-linecap="round" stroke-linejoin="round"/>
<path d="M102.776 54.288V70.56" stroke="#191816" stroke-linecap="round" stroke-linejoin="round"/>
<path d="M58.4241 64.864H43.6401V75.424H58.4241V64.864Z" fill="#00DBA8" stroke="#191816" stroke-linejoin="round"/>
<path d="M73.2083 85.984H58.4243V97.6H73.2083V85.984Z" fill="#FFE500" stroke="#191816" stroke-linejoin="round"/>
<path d="M87.9925 54.288H73.2085V64.848H87.9925V54.288Z" fill="#00DFEB" stroke="#191816" stroke-linejoin="round"/>
<path d="M117.56 66.976C100.664 92.304 83.8003 97.6 83.8003 97.6C86.2057 93.398 87.6881 88.7317 88.1489 83.912C88.6096 79.0922 88.038 74.2296 86.4723 69.648C86.4163 69.4987 86.4027 69.3368 86.433 69.1803C86.4633 69.0238 86.5363 68.8787 86.644 68.7611C86.7516 68.6435 86.8897 68.558 87.043 68.514C87.1962 68.4701 87.3587 68.4693 87.5123 68.512C92.3603 69.824 107.08 73.088 117.56 66.976Z" fill="white" stroke="#191816" stroke-linecap="round" stroke-linejoin="round"/>
<path d="M70.0405 47.952H91.1605" stroke="#191816" stroke-linecap="round" stroke-linejoin="round"/>
<path d="M102.776 47.952H111.224" stroke="#191816" stroke-linecap="round" stroke-linejoin="round"/>
<path d="M58.4241 47.952H49.9761" stroke="#191816" stroke-linecap="round" stroke-linejoin="round"/>
</svg>
