<svg width="160" height="144" viewBox="0 0 160 144" fill="none" xmlns="http://www.w3.org/2000/svg">
<path d="M80 136C115.346 136 144 107.346 144 72C144 36.6538 115.346 8 80 8C44.6538 8 16 36.6538 16 72C16 107.346 44.6538 136 80 136Z" fill="#E8F4FA"/>
<path d="M80.0002 79.1999C67.2002 79.1999 56.7202 76.4799 56.7202 73.1199V97.4559C56.7202 100.832 67.1682 103.552 80.0482 103.552C92.9282 103.552 103.376 100.832 103.376 97.4559V73.1199C103.376 76.4799 92.9282 79.1999 80.0002 79.1999Z" fill="#F0F0F0"/>
<path d="M69.904 90.4V102.976L72.944 103.296V87.296C72.5393 87.2959 72.1387 87.3766 71.7657 87.5333C71.3926 87.6901 71.0546 87.9198 70.7714 88.2089C70.4883 88.498 70.2657 88.8407 70.1168 89.2169C69.9678 89.5932 69.8955 89.9954 69.904 90.4Z" fill="#BDBEC0"/>
<path d="M90.1923 90.4V102.976L87.1523 103.296V87.296C87.557 87.2959 87.9576 87.3766 88.3307 87.5333C88.7037 87.6901 89.0417 87.9198 89.3249 88.2089C89.608 88.498 89.8306 88.8407 89.9796 89.2169C90.1285 89.5932 90.2009 89.9954 90.1923 90.4Z" fill="#BDBEC0"/>
<path d="M80.0002 79.1999C67.2002 79.1999 56.7202 76.4799 56.7202 73.1199V76.1599C56.7202 79.5199 67.1682 82.2559 80.0482 82.2559H82.0962C82.1293 83.0822 82.481 83.8637 83.0776 84.4364C83.6741 85.0091 84.4692 85.3286 85.2962 85.3279H89.1042C89.9529 85.3279 90.7668 84.9908 91.367 84.3907C91.9671 83.7906 92.3042 82.9766 92.3042 82.1279V81.3439C98.9922 80.2719 103.504 78.3519 103.504 76.1599V73.1199C103.376 76.4799 92.9282 79.1999 80.0002 79.1999Z" fill="#BDBEC0"/>
<path d="M48.608 89.3439C48.5995 87.3752 49.3173 85.4725 50.624 83.9999L56.72 77.1519V97.4559H51.648C51.2488 97.4559 50.8535 97.3773 50.4846 97.2245C50.1158 97.0718 49.7807 96.8478 49.4984 96.5655C49.2161 96.2833 48.9922 95.9481 48.8394 95.5793C48.6866 95.2105 48.608 94.8152 48.608 94.4159V89.3439Z" fill="#BDBEC0" stroke="#191816" stroke-linecap="round" stroke-linejoin="round"/>
<path d="M111.488 89.3439C111.496 87.3752 110.779 85.4725 109.472 83.9999L103.376 77.1519V97.4559H108.448C108.847 97.4559 109.243 97.3773 109.611 97.2245C109.98 97.0718 110.315 96.8478 110.598 96.5655C110.88 96.2833 111.104 95.9481 111.257 95.5793C111.409 95.2105 111.488 94.8152 111.488 94.4159V89.3439Z" fill="#BDBEC0" stroke="#191816" stroke-linecap="round" stroke-linejoin="round"/>
<path d="M80.0002 79.1999C67.2002 79.1999 56.7202 76.4799 56.7202 73.1199V97.4559C56.7202 100.832 67.1682 103.552 80.0482 103.552C92.9282 103.552 103.376 100.832 103.376 97.4559V73.1199C103.376 76.4799 92.9282 79.1999 80.0002 79.1999Z" stroke="#191816" stroke-miterlimit="10"/>
<path d="M79.9999 33.568C65.8079 33.568 56.6719 53.856 56.6719 59.936V67.04C56.6719 70.4 67.1199 73.12 79.9999 73.12C92.8799 73.12 103.328 70.4 103.328 67.04V60C103.376 53.856 94.2559 33.568 79.9999 33.568Z" fill="#F0F0F0"/>
<path d="M79.9999 33.568C65.8079 33.568 56.6719 53.856 56.6719 59.936V63.984C56.7199 57.904 65.8559 37.6 79.9999 37.6C94.1439 37.6 103.376 57.904 103.376 63.984V60C103.376 53.856 94.2559 33.568 79.9999 33.568Z" fill="white"/>
<path d="M79.9999 33.568C65.8079 33.568 56.6719 53.856 56.6719 59.936V67.04C56.6719 70.4 67.1199 73.12 79.9999 73.12C92.8799 73.12 103.328 70.4 103.328 67.04V60C103.376 53.856 94.2559 33.568 79.9999 33.568Z" stroke="#191816" stroke-linecap="round" stroke-linejoin="round"/>
<path d="M131.536 70.5599C134.47 70.5599 136.848 68.1817 136.848 65.2479C136.848 62.3142 134.47 59.9359 131.536 59.9359C128.602 59.9359 126.224 62.3142 126.224 65.2479C126.224 68.1817 128.602 70.5599 131.536 70.5599Z" fill="#FFE500" stroke="#191816" stroke-linecap="round" stroke-linejoin="round"/>
<path d="M44.3042 46.7519C47.2379 46.7519 49.6162 44.3737 49.6162 41.4399C49.6162 38.5062 47.2379 36.1279 44.3042 36.1279C41.3705 36.1279 38.9922 38.5062 38.9922 41.4399C38.9922 44.3737 41.3705 46.7519 44.3042 46.7519Z" fill="#FFE500" stroke="#191816" stroke-linecap="round" stroke-linejoin="round"/>
<path d="M106.672 29.984C109.606 29.984 111.984 27.6057 111.984 24.672C111.984 21.7382 109.606 19.36 106.672 19.36C103.739 19.36 101.36 21.7382 101.36 24.672C101.36 27.6057 103.739 29.984 106.672 29.984Z" fill="#FFE500" stroke="#191816" stroke-linecap="round" stroke-linejoin="round"/>
<path d="M78.272 131.424C81.2057 131.424 83.584 129.046 83.584 126.112C83.584 123.178 81.2057 120.8 78.272 120.8C75.3382 120.8 72.96 123.178 72.96 126.112C72.96 129.046 75.3382 131.424 78.272 131.424Z" fill="#FFE500" stroke="#191816" stroke-linecap="round" stroke-linejoin="round"/>
<path d="M28.0801 80.704C31.0138 80.704 33.3921 78.3257 33.3921 75.392C33.3921 72.4582 31.0138 70.08 28.0801 70.08C25.1463 70.08 22.7681 72.4582 22.7681 75.392C22.7681 78.3257 25.1463 80.704 28.0801 80.704Z" fill="#FFE500" stroke="#191816" stroke-linecap="round" stroke-linejoin="round"/>
<path d="M80.0481 54.864C81.1704 54.864 82.0801 53.2737 82.0801 51.312C82.0801 49.3502 81.1704 47.7599 80.0481 47.7599C78.9259 47.7599 78.0161 49.3502 78.0161 51.312C78.0161 53.2737 78.9259 54.864 80.0481 54.864Z" fill="#87898C"/>
<path d="M80.0481 54.864C81.1704 54.864 82.0801 53.2737 82.0801 51.312C82.0801 49.3502 81.1704 47.7599 80.0481 47.7599C78.9259 47.7599 78.0161 49.3502 78.0161 51.312C78.0161 53.2737 78.9259 54.864 80.0481 54.864Z" stroke="#191816" stroke-linecap="round" stroke-linejoin="round"/>
<path d="M70.9599 51.808C70.5599 53.728 69.3599 55.008 68.2559 54.864C67.1519 54.72 66.6559 52.896 66.9919 50.976C67.3279 49.056 68.5919 47.68 69.6959 47.904C70.7999 48.128 71.3599 49.888 70.9599 51.808Z" fill="#87898C"/>
<path d="M70.9599 51.808C70.5599 53.728 69.3599 55.008 68.2559 54.864C67.1519 54.72 66.6559 52.896 66.9919 50.976C67.3279 49.056 68.5919 47.68 69.6959 47.904C70.7999 48.128 71.3599 49.888 70.9599 51.808Z" stroke="#191816" stroke-linecap="round" stroke-linejoin="round"/>
<path d="M89.1359 51.808C89.5359 53.728 90.7359 55.008 91.8399 54.864C92.9439 54.72 93.4399 52.896 93.1039 50.976C92.7679 49.056 91.5039 47.68 90.3999 47.904C89.2959 48.128 88.7359 49.888 89.1359 51.808Z" fill="#87898C" stroke="#191816" stroke-linecap="round" stroke-linejoin="round"/>
<path d="M56.7202 67.0399C56.7202 70.3999 67.1682 73.1199 80.0482 73.1199C92.9282 73.1199 103.376 70.3999 103.376 67.0399V73.1199C103.376 76.4799 92.9282 79.1999 80.0482 79.1999C67.1682 79.1999 56.7202 76.4799 56.7202 73.1199V67.0399Z" fill="#656769"/>
<path d="M79.9999 73.1199C67.1199 73.1199 56.6719 70.3999 56.6719 67.0399V69.0559C56.6719 72.4159 67.1199 75.1519 79.9999 75.1519C92.8799 75.1519 103.328 72.4159 103.328 69.0559V67.0399C103.376 70.3999 92.9279 73.1199 79.9999 73.1199Z" fill="#87898C"/>
<path d="M56.7202 67.0399C56.7202 70.3999 67.1682 73.1199 80.0482 73.1199C92.9282 73.1199 103.376 70.3999 103.376 67.0399V73.1199C103.376 76.4799 92.9282 79.1999 80.0482 79.1999C67.1682 79.1999 56.7202 76.4799 56.7202 73.1199V67.0399Z" stroke="#191816" stroke-linecap="round" stroke-linejoin="round"/>
<path d="M90.1918 80.2239C90.1918 81.0302 89.8715 81.8034 89.3014 82.3735C88.7313 82.9437 87.9581 83.2639 87.1518 83.2639C86.3456 83.2639 85.5723 82.9437 85.0022 82.3735C84.4321 81.8034 84.1118 81.0302 84.1118 80.2239V71.0879C84.1118 70.2817 84.4321 69.5085 85.0022 68.9383C85.5723 68.3682 86.3456 68.0479 87.1518 68.0479C87.9581 68.0479 88.7313 68.3682 89.3014 68.9383C89.8715 69.5085 90.1918 70.2817 90.1918 71.0879V80.2239Z" fill="#F0F0F0" stroke="#191816" stroke-miterlimit="10"/>
<path d="M87.1518 88.3359V100.496C87.1518 102.38 86.4034 104.187 85.0711 105.519C83.7389 106.851 81.9319 107.6 80.0478 107.6C78.1637 107.6 76.3568 106.851 75.0246 105.519C73.6923 104.187 72.9438 102.38 72.9438 100.496V88.3359" fill="#F0F0F0"/>
<path d="M87.1518 88.3359V100.496C87.1518 102.38 86.4034 104.187 85.0711 105.519C83.7389 106.851 81.9319 107.6 80.0478 107.6C78.1637 107.6 76.3568 106.851 75.0246 105.519C73.6923 104.187 72.9438 102.38 72.9438 100.496V88.3359" stroke="#191816" stroke-linecap="round" stroke-linejoin="round"/>
<path d="M62.8002 71.1999C60.5922 58.9759 60.9602 58.0159 58.7522 58.0159C58.4877 58.0095 58.2245 58.0561 57.9782 58.153C57.7319 58.2498 57.5075 58.3949 57.3182 58.5798C57.1288 58.7647 56.9784 58.9855 56.8757 59.2294C56.773 59.4733 56.7201 59.7353 56.7202 59.9999V67.0399C56.7202 68.6079 59.0402 70.0479 62.8002 71.1999Z" fill="#87898C"/>
<path d="M58.7521 60.944C59.6201 60.9099 60.4716 61.188 61.1521 61.728C60.5121 58.32 60.1441 57.936 58.7521 57.936C58.4807 57.9292 58.2108 57.9782 57.959 58.0799C57.7073 58.1816 57.4792 58.334 57.2887 58.5274C57.0982 58.7209 56.9494 58.9514 56.8517 59.2047C56.7539 59.458 56.7091 59.7287 56.7201 60V63.024C56.7068 62.7514 56.7499 62.4789 56.8467 62.2238C56.9435 61.9686 57.0919 61.7361 57.2826 61.5409C57.4733 61.3457 57.7023 61.1919 57.9551 61.0892C58.208 60.9865 58.4793 60.937 58.7521 60.944Z" fill="#656769"/>
<path d="M62.8002 71.1999C60.5922 58.9759 60.9602 58.0159 58.7522 58.0159C58.4877 58.0095 58.2245 58.0561 57.9782 58.153C57.7319 58.2498 57.5075 58.3949 57.3182 58.5798C57.1288 58.7647 56.9784 58.9855 56.8757 59.2294C56.773 59.4733 56.7201 59.7353 56.7202 59.9999V67.0399C56.7202 68.6079 59.0402 70.0479 62.8002 71.1999Z" stroke="#191816" stroke-linecap="round" stroke-linejoin="round"/>
<path d="M97.2959 71.1999C99.5199 58.9759 99.1359 58.0159 101.344 58.0159C101.608 58.0095 101.872 58.0561 102.118 58.153C102.364 58.2498 102.589 58.3949 102.778 58.5798C102.967 58.7647 103.118 58.9855 103.22 59.2294C103.323 59.4733 103.376 59.7353 103.376 59.9999V67.0399C103.376 68.6079 101.072 70.0479 97.2959 71.1999Z" fill="#87898C"/>
<path d="M101.344 60.944C100.476 60.9099 99.6243 61.188 98.9438 61.728C99.5838 58.32 99.9518 57.936 101.344 57.936C101.615 57.9292 101.885 57.9782 102.137 58.0799C102.389 58.1816 102.617 58.334 102.807 58.5274C102.998 58.7209 103.147 58.9514 103.244 59.2047C103.342 59.458 103.387 59.7287 103.376 60V63.024C103.389 62.7514 103.346 62.4789 103.249 62.2238C103.152 61.9686 103.004 61.7361 102.813 61.5409C102.623 61.3457 102.394 61.1919 102.141 61.0892C101.888 60.9865 101.617 60.937 101.344 60.944Z" fill="#656769"/>
<path d="M97.2959 71.1999C99.5199 58.9759 99.1359 58.0159 101.344 58.0159C101.608 58.0095 101.872 58.0561 102.118 58.153C102.364 58.2498 102.589 58.3949 102.778 58.5798C102.967 58.7647 103.118 58.9855 103.22 59.2294C103.323 59.4733 103.376 59.7353 103.376 59.9999V67.0399C103.376 68.6079 101.072 70.0479 97.2959 71.1999Z" stroke="#191816" stroke-linecap="round" stroke-linejoin="round"/>
</svg>
