<svg width="160" height="144" viewBox="0 0 160 144" fill="none" xmlns="http://www.w3.org/2000/svg">
<path d="M144.565 73.0126V73.0146C144.583 37.6775 115.95 9.01728 80.6132 9.00001C45.2762 8.98275 16.6159 37.6151 16.5986 72.9522C16.5942 82.0757 18.541 91.0947 22.3083 99.404H138.871C142.632 91.1144 144.573 82.1154 144.565 73.0126L144.565 73.0126Z" fill="#E8F4FA"/>
<path d="M22.3091 99.4058H22.3091C36.8921 131.593 74.8071 145.865 106.995 131.282C121.135 124.875 132.464 113.546 138.871 99.4058H22.3091Z" fill="#BDBEC0"/>
<path d="M18.1982 99.4058H142.966" stroke="#191816" stroke-linecap="round" stroke-linejoin="round"/>
<path d="M11 99.4058H14.999" stroke="#191816" stroke-linecap="round" stroke-linejoin="round"/>
<path d="M146.165 99.4058H150.164" stroke="#191816" stroke-linecap="round" stroke-linejoin="round"/>
<path d="M102.976 116.201H114.429" stroke="#E0E0E0" stroke-linecap="round"/>
<path d="M96.3057 116.201H99.1689" stroke="#E0E0E0" stroke-linecap="round"/>
<path d="M91.5229 116.201H92.4827" stroke="#E0E0E0" stroke-linecap="round"/>
<path d="M55.2446 110.603H66.6817" stroke="#E0E0E0" stroke-linecap="round"/>
<path d="M48.5581 110.603H51.4214" stroke="#E0E0E0" stroke-linecap="round"/>
<path d="M43.7915 110.603H44.7513" stroke="#E0E0E0" stroke-linecap="round"/>
<path d="M73.1279 128.198H84.581" stroke="#E0E0E0" stroke-linecap="round"/>
<path d="M66.4575 128.198H69.3208" stroke="#E0E0E0" stroke-linecap="round"/>
<path d="M61.6909 128.198H62.6347" stroke="#E0E0E0" stroke-linecap="round"/>
<path d="M113.533 80.2108C109.812 80.2121 106.342 82.0884 104.304 85.2015C102.042 83.3904 98.7398 83.7559 96.9287 86.0178C96.1769 86.9568 95.7705 88.1255 95.7777 89.3284C95.7777 90.0162 96.1136 89.8083 94.818 89.8083C91.7425 89.813 89.065 91.9102 88.3237 94.8949C86.7241 92.9754 83.301 91.4078 83.301 82.0983H79.462C79.462 91.3439 75.9749 92.9434 74.4393 94.8949C73.703 91.9069 71.0224 89.8072 67.945 89.8083C66.6493 89.8083 66.9852 90.0162 66.9852 89.3284V89.3284C67.0025 86.4308 64.6676 84.0678 61.77 84.0505C60.5671 84.0433 59.3984 84.4497 58.4594 85.2015C55.1065 80.1214 48.2702 78.7213 43.1901 82.0742C38.11 85.4272 36.7099 92.2635 40.0629 97.3435C40.5627 98.1008 41.1541 98.7935 41.8237 99.4058H120.955C125.461 95.3 125.785 88.3192 121.679 83.8137C119.59 81.5218 116.634 80.2142 113.533 80.2108L113.533 80.2108Z" fill="#E8F4FA"/>
<path d="M49.23 85.0095C52.9519 85.0079 56.4231 86.8849 58.4596 90.0002C60.7215 88.1891 64.0234 88.5546 65.8344 90.8165C66.5862 91.7555 66.9926 92.9243 66.9854 94.1271C66.9854 94.815 66.6495 94.607 67.9451 94.607C70.905 94.6141 73.5079 96.5663 74.3435 99.4058H74.6954C76.5029 97.5982 81.3817 95.7267 81.3817 86.929C81.3817 95.7427 86.1804 97.5982 88.0679 99.4058H88.4198C89.2554 96.5663 91.8583 94.6141 94.8182 94.607C96.1138 94.607 95.7779 94.815 95.7779 94.1271V94.1271C95.7606 91.2295 98.0956 88.8665 100.993 88.8493C102.196 88.8421 103.365 89.2484 104.304 90.0002C107.628 84.9015 114.457 83.4632 119.555 86.7877C121.974 88.3647 123.677 90.8277 124.299 93.6473C124.479 92.8603 124.571 92.0554 124.57 91.2479V91.2486C124.567 85.153 119.624 80.2139 113.528 80.2168C109.81 80.2187 106.343 82.0921 104.304 85.2009C102.042 83.3896 98.7405 83.7548 96.9292 86.0165C96.177 86.9558 95.7705 88.1251 95.7779 89.3284C95.7779 90.0162 96.1138 89.8083 94.8182 89.8083C91.7427 89.813 89.0652 91.9102 88.3238 94.8949C86.7243 92.9754 83.3012 91.4079 83.3012 82.0983H79.4621C79.4621 91.3439 75.9751 92.9435 74.4395 94.8949C73.7032 91.9069 71.0225 89.8072 67.9451 89.8083C66.6495 89.8083 66.9854 90.0162 66.9854 89.3284V89.3284C67.0027 86.4308 64.6678 84.0678 61.7702 84.0505C60.5673 84.0433 59.3985 84.4497 58.4596 85.2015C55.1169 80.1041 48.2748 78.6817 43.1775 82.0244C40.0686 84.0632 38.1949 87.5301 38.1929 91.2479L38.1929 91.2502C38.1929 92.0577 38.2843 92.8626 38.4653 93.6495C39.5825 88.6009 44.0593 85.0077 49.23 85.0095L49.23 85.0095Z" fill="white"/>
<path d="M113.533 80.2108V80.2108C109.812 80.2121 106.342 82.0884 104.304 85.2015V85.2015C102.042 83.3904 98.7398 83.7559 96.9287 86.0178C96.1769 86.9568 95.7705 88.1256 95.7777 89.3284C95.7777 90.0162 96.1136 89.8083 94.818 89.8083V89.8083C91.7425 89.813 89.065 91.9102 88.3237 94.8949C86.7241 92.9754 83.301 91.4078 83.301 82.0983H79.462C79.462 91.3439 75.9749 92.9434 74.4393 94.8949V94.8949C73.703 91.9069 71.0224 89.8072 67.945 89.8083C66.6493 89.8083 66.9852 90.0162 66.9852 89.3284V89.3284C67.0025 86.4308 64.6676 84.0678 61.77 84.0505C60.5671 84.0433 59.3984 84.4497 58.4594 85.2015V85.2015C55.1065 80.1214 48.2702 78.7213 43.1901 82.0742C38.11 85.4272 36.7099 92.2635 40.0629 97.3435C40.5627 98.1008 41.1541 98.7935 41.8237 99.4058H120.955V99.4058C125.461 95.3 125.785 88.3192 121.679 83.8137C119.59 81.5218 116.634 80.2142 113.533 80.2108L113.533 80.2108Z" stroke="#191816" stroke-linecap="round" stroke-linejoin="round"/>
<path d="M89.0596 54.2975C91.8428 71.8929 97.3134 69.8295 97.6813 77.4755C97.6902 77.9171 97.3393 78.2823 96.8977 78.2911C96.8923 78.2912 96.8869 78.2913 96.8815 78.2913H89.0596V54.2975Z" fill="#FF6242" stroke="#191816" stroke-linecap="round" stroke-linejoin="round"/>
<path d="M73.704 54.2975C70.9847 71.9249 65.4501 69.8135 65.0822 77.4755C65.0734 77.9171 65.4242 78.2823 65.8658 78.2911C65.8712 78.2912 65.8766 78.2913 65.882 78.2913H73.704V54.2975Z" fill="#FF6242" stroke="#191816" stroke-linecap="round" stroke-linejoin="round"/>
<path d="M73.7036 74.4522H89.0596V78.2912H73.7036V74.4522Z" fill="#87898C" stroke="#191816" stroke-linecap="round" stroke-linejoin="round"/>
<path d="M75.623 78.2912H87.14V80.2107C87.14 82.331 85.4213 84.0497 83.301 84.0497H79.462C77.3418 84.0497 75.623 82.331 75.623 80.2107V78.2912Z" fill="#656769" stroke="#191816" stroke-linecap="round" stroke-linejoin="round"/>
<path d="M61.8828 93.6473V93.6473C62.9907 91.3025 65.3519 89.8073 67.9452 89.8083" stroke="#191816" stroke-linecap="round" stroke-linejoin="round"/>
<path d="M56.4282 89.3284V89.3284C56.4282 86.4131 58.7915 84.0497 61.7068 84.0497" stroke="#191816" stroke-linecap="round" stroke-linejoin="round"/>
<path d="M100.897 93.6473V93.6473C99.7803 91.3027 97.4152 89.8089 94.8184 89.8083" stroke="#191816" stroke-linecap="round" stroke-linejoin="round"/>
<path d="M106.335 89.3284V89.3284C106.335 86.4131 103.972 84.0497 101.057 84.0497" stroke="#191816" stroke-linecap="round" stroke-linejoin="round"/>
<path d="M96.7379 47.5792V47.579C96.751 39.0981 89.8865 32.2124 81.4056 32.1993C72.9247 32.1862 66.039 39.0507 66.0259 47.5316C66.0213 50.4996 66.877 53.4054 68.4894 55.8973C71.8949 61.4877 73.6988 67.9063 73.7039 74.4524H89.0599V74.4508C89.0553 67.9034 90.8603 61.4821 94.2753 55.8958C95.8927 53.4245 96.7489 50.5327 96.7379 47.5793L96.7379 47.5792Z" fill="#FFE500"/>
<path d="M81.3819 38.9415C88.541 38.9418 94.7479 43.8941 96.338 50.8744C96.5929 49.7942 96.727 48.689 96.7379 47.5792C96.7379 39.0983 89.8628 32.2232 81.3819 32.2232C72.901 32.2232 66.0259 39.0983 66.0259 47.5792V47.5792C66.0368 48.689 66.1709 49.7942 66.4258 50.8743V50.8743C68.0212 43.8974 74.2249 38.9477 81.3819 38.9415H81.3819Z" fill="#FFFACF"/>
<path d="M96.7379 47.5792V47.579C96.751 39.0981 89.8865 32.2124 81.4056 32.1993C72.9247 32.1862 66.039 39.0507 66.0259 47.5316C66.0213 50.4996 66.877 53.4054 68.4894 55.8973V55.8973C71.8949 61.4877 73.6988 67.9063 73.7039 74.4524H89.0599V74.4508C89.0553 67.9034 90.8603 61.4821 94.2753 55.8958V55.8958C95.8927 53.4245 96.7489 50.5327 96.7379 47.5793L96.7379 47.5792Z" stroke="#191816" stroke-linecap="round" stroke-linejoin="round"/>
<path d="M88.0997 44.7L84.2607 74.4523" stroke="#191816" stroke-linecap="round" stroke-linejoin="round"/>
<path d="M78.5026 74.4523L74.6636 44.7" stroke="#191816" stroke-linecap="round" stroke-linejoin="round"/>
<path d="M75.6553 52.346L77.9587 49.2748V49.2748C78.2373 48.9435 78.7317 48.9008 79.063 49.1795C79.0975 49.2084 79.1294 49.2403 79.1584 49.2748L80.7579 50.8744V50.8744C81.0744 51.1812 81.5772 51.1812 81.8937 50.8744L83.4932 49.2748V49.2748C83.7937 48.9391 84.3095 48.9106 84.6452 49.211C84.6676 49.2311 84.6889 49.2524 84.7089 49.2748L86.9963 52.346" stroke="#191816" stroke-linecap="round" stroke-linejoin="round"/>
</svg>
