<svg width="160" height="144" viewBox="0 0 160 144" fill="none" xmlns="http://www.w3.org/2000/svg">
<path d="M81 136C116.346 136 145 107.346 145 72C145 36.6538 116.346 8 81 8C45.6538 8 17 36.6538 17 72C17 107.346 45.6538 136 81 136Z" fill="#E8F4FA"/>
<path d="M62.3759 139.653L60.7759 139.317" stroke="#00AED9" stroke-linecap="round" stroke-linejoin="round"/>
<path d="M56.2639 137.957C23.8479 126.213 35.4639 81.4933 61.4159 91.6853C62.3917 92.0987 63.2541 92.7402 63.9307 93.556C64.6072 94.3717 65.0781 95.3379 65.3039 96.3733C65.532 97.3934 65.5327 98.4512 65.3059 99.4715C65.0792 100.492 64.6306 101.45 63.9919 102.277C62.6085 103.977 60.7021 105.171 58.5694 105.675C56.4367 106.178 54.1973 105.963 52.1999 105.061C35.1439 97.7653 47.3999 67.6373 68.1999 63.4613" stroke="#00AED9" stroke-linecap="round" stroke-linejoin="round" stroke-dasharray="1.97 2.96"/>
<path d="M70.6001 63.0133C71.1281 63.0133 71.6561 62.9173 72.2001 62.9013" stroke="#00AED9" stroke-linecap="round" stroke-linejoin="round"/>
<path d="M67.064 44.9973C66.8211 44.731 66.6649 44.397 66.6163 44.0397C66.5677 43.6825 66.629 43.3189 66.792 42.9973C66.9506 42.6768 67.2014 42.4111 67.5122 42.2344C67.823 42.0576 68.1795 41.9778 68.536 42.0053L127.736 46.7093C128.104 46.7424 128.453 46.8851 128.738 47.1191C129.023 47.3531 129.232 47.6674 129.336 48.0213C129.433 48.3796 129.418 48.7591 129.292 49.1084C129.166 49.4576 128.936 49.7596 128.632 49.9733L80.088 84.1653C79.7908 84.3675 79.4396 84.4757 79.08 84.4757C78.7205 84.4757 78.3693 84.3675 78.072 84.1653C77.7706 83.966 77.5352 83.6817 77.3956 83.3484C77.256 83.0151 77.2186 82.6479 77.288 82.2933L81.336 62.0533C81.3995 61.7716 81.3934 61.4786 81.3181 61.1998C81.2428 60.921 81.1007 60.6648 80.904 60.4533L67.064 44.9973Z" fill="white" stroke="#191816" stroke-linecap="round" stroke-linejoin="round"/>
<path d="M81.3359 62.0533L77.2879 82.3413C77.2185 82.6959 77.2559 83.0631 77.3955 83.3964C77.5351 83.7297 77.7705 84.014 78.0719 84.2133C78.3692 84.4155 78.7204 84.5237 79.0799 84.5237C79.4394 84.5237 79.7906 84.4155 80.0879 84.2133L128.616 49.9733C128.919 49.7596 129.15 49.4576 129.276 49.1084C129.402 48.7591 129.417 48.3796 129.32 48.0213L81.3199 61.1733C81.397 61.4609 81.4025 61.7631 81.3359 62.0533Z" fill="#DAEDF7" stroke="#191816" stroke-linecap="round" stroke-linejoin="round"/>
</svg>
