<svg width="160" height="144" viewBox="0 0 160 144" fill="none" xmlns="http://www.w3.org/2000/svg">
<path d="M144.408 72.2601V72.2661C144.408 37.0754 115.795 8.54782 80.4999 8.54782C45.2044 8.54782 16.5918 37.0754 16.5918 72.2661C16.5918 81.3269 18.53 90.2837 22.2772 98.5384H138.72C142.476 90.2842 144.415 81.324 144.408 72.2601Z" fill="#E8F4FA"/>
<path d="M22.2793 98.5438L22.2793 98.5438C36.8354 130.603 74.7015 144.826 106.856 130.313C120.994 123.932 132.32 112.64 138.72 98.544L22.2793 98.5438Z" fill="white"/>
<path d="M18.1899 98.5438H142.811" stroke="#191816" stroke-linecap="round" stroke-linejoin="round"/>
<path d="M11 98.5438H14.9943" stroke="#191816" stroke-linecap="round" stroke-linejoin="round"/>
<path d="M146.006 98.5438H150" stroke="#191816" stroke-linecap="round" stroke-linejoin="round"/>
<path d="M100.871 46.2472C100.871 43.4935 98.6318 41.2612 95.87 41.2612C93.1081 41.2612 90.8692 43.4935 90.8692 46.2472C90.8526 46.422 90.8526 46.598 90.8692 46.7728H90.3419C86.036 46.7367 82.516 50.1876 82.4798 54.4807C82.4435 58.7738 85.9048 62.2834 90.2106 62.3195C94.5165 62.3557 98.0365 58.9047 98.0728 54.6116C98.0832 53.3783 97.7991 52.1601 97.244 51.0579C99.4 50.4493 100.884 48.4812 100.871 46.2472Z" fill="white" stroke="#191816" stroke-linecap="round" stroke-linejoin="round"/>
<path d="M101.447 59.851C101.455 58.6017 100.447 57.5819 99.1938 57.5731C99.1885 57.5731 99.1831 57.5731 99.1778 57.5731H82.1783C80.9472 57.5812 79.9439 58.5603 79.9095 59.7873C79.4941 77.8673 74.1099 87.3135 74.1099 98.5439H107.342C107.294 87.3135 101.878 77.8673 101.447 59.851L101.447 59.851Z" fill="#C0DCEB"/>
<path d="M90.8689 63.0847C95.0226 63.1856 98.9863 64.8403 101.973 67.7202C101.701 65.283 101.526 62.6705 101.446 59.851C101.455 58.6017 100.446 57.5819 99.193 57.5731C99.1876 57.5731 99.1823 57.5731 99.177 57.5731H82.1774C80.9463 57.5812 79.9431 58.5603 79.9087 59.7873C79.8288 62.7661 79.6211 65.5219 79.3335 68.0706H79.3335C82.3869 64.9834 86.5216 63.1962 90.8689 63.0847L90.8689 63.0847Z" fill="#DAEDF7"/>
<path d="M104.977 34.6663V34.6663C104.977 36.2939 103.654 37.6133 102.021 37.6133C100.389 37.6133 99.0654 36.2939 99.0654 34.6663C99.0654 33.0387 100.389 31.7193 102.021 31.7193C102.026 31.7193 102.032 31.7193 102.037 31.7194C103.661 31.7193 104.977 33.0316 104.977 34.6503C104.977 34.6557 104.977 34.661 104.977 34.6663L104.977 34.6663Z" fill="white" stroke="#191816" stroke-linecap="round" stroke-linejoin="round"/>
<path d="M125.076 98.5438H111.399L114.052 29.8078V29.8078C114.095 28.5897 115.098 27.6247 116.32 27.6254H120.139C121.364 27.6244 122.372 28.5872 122.424 29.8078L125.076 98.5438Z" fill="#F0F0F0"/>
<path d="M112.39 72.6424L111.383 98.5439H125.076L124.069 72.6424H112.39Z" fill="#E0E0E0"/>
<path d="M125.076 98.5438H111.399L114.052 29.8078V29.8078C114.095 28.5897 115.098 27.6247 116.32 27.6254H120.139V27.6254C121.364 27.6244 122.372 28.5872 122.424 29.8078L125.076 98.5438Z" stroke="#191816" stroke-linecap="round" stroke-linejoin="round"/>
<path d="M101.447 59.851V59.851C101.455 58.6017 100.447 57.5819 99.1938 57.5731C99.1885 57.5731 99.1832 57.5731 99.1778 57.5731H82.1783V57.5731C80.9472 57.5812 79.9439 58.5603 79.9095 59.7873C79.4941 77.8673 74.1099 87.3135 74.1099 98.5439H107.342C107.294 87.3135 101.878 77.8673 101.447 59.851L101.447 59.851Z" stroke="#191816" stroke-linecap="round" stroke-linejoin="round"/>
<path d="M94.0649 72.6424H75.5156C77.6725 82.1046 79.9253 89.9419 79.9253 98.5439H96.3497V74.9044V74.9044C96.3497 73.6551 95.3339 72.6424 94.0809 72.6424C94.0756 72.6424 94.0702 72.6424 94.0649 72.6424H94.0649Z" fill="#FFE500"/>
<path d="M94.0649 72.6424H75.5156C75.8831 74.2354 76.2665 75.8283 76.634 77.4213H94.0649C95.3268 77.4213 96.3497 78.4412 96.3497 79.6992V74.9203C96.3585 73.6711 95.35 72.6512 94.097 72.6424C94.0863 72.6423 94.0756 72.6423 94.0649 72.6424H94.0649Z" fill="#FFF48C"/>
<path d="M96.3496 82.1842H127.585C128.467 82.1842 129.182 82.8974 129.182 83.7772V98.5439H96.3496V82.1842Z" fill="#FFE500"/>
<path d="M126.834 82.1842H96.3496V86.2462H126.834C128.089 86.2462 129.11 87.2564 129.118 88.5082V84.4621C129.118 83.2041 128.096 82.1842 126.834 82.1842Z" fill="#FFF48C"/>
<path d="M94.0649 72.6424H75.5156C77.6725 82.1046 79.9253 89.9419 79.9253 98.5439H96.3497V74.9044V74.9044C96.3497 73.6551 95.3339 72.6424 94.0809 72.6424C94.0756 72.6424 94.0702 72.6424 94.0649 72.6424H94.0649Z" stroke="#191816" stroke-linecap="round" stroke-linejoin="round"/>
<path d="M96.3496 82.1842H127.585V82.1842C128.467 82.1842 129.182 82.8974 129.182 83.7772V98.5439H96.3496V82.1842V82.1842Z" stroke="#191816" stroke-linecap="round" stroke-linejoin="round"/>
<path d="M122.551 33.0893L122.424 29.8078C122.372 28.5872 121.364 27.6243 120.139 27.6254H116.32C115.098 27.6247 114.095 28.5897 114.052 29.8078L113.924 33.0893L122.551 33.0893Z" fill="#FF6242" stroke="#191816" stroke-linecap="round" stroke-linejoin="round"/>
<path d="M113.397 46.725H123.079L122.855 41.2612H113.605L113.397 46.725Z" fill="#FF6242" stroke="#191816" stroke-linecap="round" stroke-linejoin="round"/>
<path d="M112.869 60.3607H123.59L123.382 54.9128H113.077L112.869 60.3607Z" fill="#FF6242" stroke="#191816" stroke-linecap="round" stroke-linejoin="round"/>
<path d="M85.6285 86.2781C84.7461 86.2781 84.0308 85.5649 84.0308 84.6851V81.0532C84.0308 80.1734 84.7461 79.4602 85.6285 79.4602H89.2712C90.1536 79.4602 90.8689 80.1734 90.8689 81.0532V84.6851C90.8689 85.5649 90.1536 86.2781 89.2712 86.2781H85.6285Z" fill="#00B8F0" stroke="#191816" stroke-linecap="round" stroke-linejoin="round"/>
<path d="M103.411 93.08C102.529 93.08 101.813 92.3668 101.813 91.4871V89.2251C101.813 88.3453 102.529 87.6321 103.411 87.6321H105.68C106.562 87.6321 107.278 88.3453 107.278 89.2251V91.4871C107.278 92.3668 106.562 93.08 105.68 93.08H103.411Z" fill="#00B8F0" stroke="#191816" stroke-linecap="round" stroke-linejoin="round"/>
<path d="M115.729 93.08C114.847 93.08 114.131 92.3668 114.131 91.4871V89.2251C114.131 88.3453 114.847 87.6321 115.729 87.6321H117.998C118.88 87.6321 119.595 88.3453 119.595 89.2251V91.4871C119.595 92.3668 118.88 93.08 117.998 93.08H115.729Z" fill="#00B8F0" stroke="#191816" stroke-linecap="round" stroke-linejoin="round"/>
<path d="M101.386 2.79628C103.788 5.19132 103.788 9.07444 101.386 11.4695C98.9837 13.8645 95.0891 13.8645 92.6869 11.4695C90.2847 9.07444 90.2847 5.19132 92.6869 2.79628C95.0891 0.40124 98.9837 0.40124 101.386 2.79628Z" fill="white"/>
<path d="M101.386 2.79628C103.788 5.19132 103.788 9.07444 101.386 11.4695C98.9837 13.8645 95.0891 13.8645 92.6869 11.4695C90.2847 9.07444 90.2847 5.19132 92.6869 2.79628C95.0891 0.40124 98.9837 0.40124 101.386 2.79628" stroke="#191816" stroke-linecap="round" stroke-linejoin="round"/>
<path d="M79.254 7.17191C75.0119 7.17366 71.3607 10.1606 70.5306 14.3083C69.8075 14.1057 69.0608 13.9986 68.3098 13.9898C63.3949 13.9898 59.4106 17.9622 59.4106 22.8625C59.4267 23.1613 59.4587 23.4591 59.5064 23.7546C58.7999 23.6235 58.084 23.549 57.3655 23.5316C50.1829 23.5228 44.3531 29.321 44.3442 36.4823C44.3354 43.6435 50.1509 49.456 57.3336 49.4648C64.5162 49.4736 70.346 43.6754 70.3548 36.5141C70.3548 36.5088 70.3548 36.5035 70.3548 36.4982C70.3358 34.8157 69.9829 33.1537 69.3163 31.6079C73.1178 31.1591 76.1991 28.3248 76.9533 24.5829C77.6816 24.7868 78.4337 24.8939 79.1901 24.9015C84.1006 24.694 87.9125 20.5568 87.7043 15.6609C87.5085 11.0559 83.8088 7.36719 79.1901 7.17194L79.254 7.17191Z" fill="white" stroke="#191816" stroke-linecap="round" stroke-linejoin="round"/>
<path d="M71.7444 43.5073C71.7269 42.2617 70.7091 41.2611 69.4597 41.2612H43.8965C42.647 41.2611 41.6292 42.2617 41.6117 43.5073C41.1804 69.2972 33.4155 82.6303 33.4155 98.5439H79.9246C79.9246 82.6303 72.1758 69.2972 71.7444 43.5073Z" fill="#DAEDF7"/>
<path d="M56.6781 52.1729C62.9743 52.3525 68.9123 55.1338 73.0705 59.851L73.0705 59.8509C72.2709 54.4377 71.828 48.9782 71.7444 43.5072C71.7269 42.2616 70.7091 41.261 69.4597 41.2611H43.8964C42.647 41.261 41.6292 42.2616 41.6117 43.5072V43.5072C41.5282 48.9781 41.0852 54.4377 40.2856 59.8509C44.4415 55.1306 50.3809 52.3486 56.6781 52.1729H56.6781Z" fill="white"/>
<path d="M71.7444 43.5073V43.5073C71.7269 42.2617 70.7091 41.2611 69.4597 41.2612H43.8965V41.2612C42.647 41.2611 41.6292 42.2617 41.6117 43.5073C41.1804 69.2972 33.4155 82.6303 33.4155 98.5439H79.9246C79.9246 82.6303 72.1758 69.2972 71.7444 43.5073V43.5073Z" stroke="#191816" stroke-linecap="round" stroke-linejoin="round"/>
</svg>
