<svg preserveAspectRatio="xMinYMin meet" viewBox="0 0 160 144" fill="none" xmlns="http://www.w3.org/2000/svg">
<path d="M144.602 71.995V72.001C144.602 36.6542 115.948 8 80.6011 8C45.2543 8 16.6001 36.6542 16.6001 72.001C16.6001 81.1021 18.5412 90.0985 22.2937 98.3899H138.89C142.664 90.1027 144.612 81.101 144.602 71.9949L144.602 71.995Z" fill="#E8F4FA"/>
<path d="M22.2964 98.3955H22.2964C36.8834 130.592 74.8089 144.867 107.005 130.28C121.15 123.872 132.482 112.54 138.89 98.3955H22.2964Z" fill="white"/>
<path d="M18.2002 98.3955H143.002" stroke="#4F4A45" stroke-linecap="round" stroke-linejoin="round"/>
<path d="M11 98.3955H15.0001" stroke="#4F4A45" stroke-linecap="round" stroke-linejoin="round"/>
<path d="M146.202 98.3955H150.202" stroke="#4F4A45" stroke-linecap="round" stroke-linejoin="round"/>
<path d="M29.6401 53.3707H106.249V95.4354C106.249 97.0878 104.91 98.4274 103.257 98.4274H32.6482C30.9957 98.4274 29.6561 97.0878 29.6561 95.4354V53.3707H29.6401Z" fill="white" stroke="#191816" stroke-linecap="round" stroke-linejoin="round"/>
<path d="M32.9842 42.5544H102.905C104.752 42.5544 106.249 44.0516 106.249 45.8984V53.3706H29.6401V45.8984C29.6401 44.0516 31.1373 42.5544 32.9842 42.5544Z" fill="#ADC4D9"/>
<path d="M102.457 42.5544H33.4163C31.3308 42.5541 29.64 44.2444 29.6396 46.3299C29.6396 46.3514 29.6398 46.3729 29.6402 46.3944V50.9065L29.6402 50.9065C29.649 48.8273 31.337 47.1465 33.4162 47.1465H102.457C104.534 47.1465 106.217 48.8299 106.217 50.9065V46.3944C106.262 44.3183 104.614 42.5994 102.538 42.5552C102.511 42.5547 102.484 42.5544 102.457 42.5544H102.457Z" fill="#C0DCEB"/>
<path d="M32.9842 42.5544H102.905V42.5544C104.752 42.5544 106.249 44.0516 106.249 45.8984V53.3706H29.6401V45.8984V45.8984C29.6401 44.0516 31.1373 42.5544 32.9842 42.5544V42.5544Z" stroke="#191816" stroke-linecap="round" stroke-linejoin="round"/>
<path d="M36.3267 46.6842C37.0328 47.3902 37.0328 48.535 36.3267 49.2411C35.6207 49.9472 34.4759 49.9472 33.7698 49.2411C33.0637 48.535 33.0637 47.3902 33.7698 46.6842C34.4759 45.9781 35.6207 45.9781 36.3267 46.6842Z" fill="#FF6242" stroke="#191816" stroke-linecap="round" stroke-linejoin="round"/>
<path d="M43.543 46.6842C44.2491 47.3902 44.2491 48.535 43.543 49.2411C42.837 49.9472 41.6922 49.9472 40.9861 49.2411C40.28 48.535 40.28 47.3902 40.9861 46.6842C41.6922 45.9781 42.837 45.9781 43.543 46.6842Z" fill="#FFE500" stroke="#191816" stroke-linecap="round" stroke-linejoin="round"/>
<path d="M50.7589 46.6842C51.4649 47.3902 51.4649 48.535 50.7589 49.2411C50.0528 49.9472 48.908 49.9472 48.2019 49.2411C47.4958 48.535 47.4958 47.3902 48.2019 46.6842C48.908 45.9781 50.0528 45.9781 50.7589 46.6842Z" fill="#6DD627" stroke="#191816" stroke-linecap="round" stroke-linejoin="round"/>
<path d="M131.018 109.244H121.162C120.173 109.281 119.34 108.51 119.303 107.521C119.29 107.17 119.38 106.824 119.562 106.524L123.338 100.236V94.8275H128.746V100.236L132.506 106.524C133.019 107.37 132.748 108.472 131.902 108.985C131.635 109.147 131.33 109.236 131.018 109.244Z" fill="#00B8F0" stroke="#191816" stroke-linecap="round" stroke-linejoin="round"/>
<path d="M119.61 106.524C119.096 107.37 119.366 108.472 120.213 108.985C120.512 109.167 120.859 109.257 121.21 109.244H131.066C132.055 109.281 132.887 108.51 132.924 107.521C132.938 107.17 132.848 106.824 132.666 106.524L131.066 103.836H121.21L119.61 106.524Z" fill="#FF87AF" stroke="#191816" stroke-linecap="round" stroke-linejoin="round"/>
<path d="M37.5605 91.2273C36.6768 91.2273 35.9604 90.5109 35.9604 89.6272V64.8909C35.9604 64.0072 36.6768 63.2908 37.5605 63.2908H39.7685C40.6522 63.2908 41.3685 64.0072 41.3685 64.8909V89.6272C41.3685 90.5109 40.6522 91.2273 39.7685 91.2273H37.5605Z" fill="#FFE500" stroke="#191816" stroke-linecap="round" stroke-linejoin="round"/>
<path d="M60.1848 77.707H64.0568C64.4987 77.707 64.8568 78.0651 64.8568 78.507V89.5952C64.8568 90.4788 64.1405 91.1952 63.2568 91.1952H60.9848C60.1011 91.1952 59.3848 90.4788 59.3848 89.5952V78.507C59.3848 78.0651 59.7429 77.707 60.1848 77.707Z" fill="#FFE500" stroke="#191816" stroke-linecap="round" stroke-linejoin="round"/>
<path d="M48.4724 71.4031H52.2804C52.7223 71.4031 53.0804 71.7613 53.0804 72.2031V89.5954C53.0804 90.4791 52.3641 91.1954 51.4804 91.1954H49.2724C48.3887 91.1954 47.6724 90.4791 47.6724 89.5954V72.2031C47.6724 71.7613 48.0305 71.4031 48.4724 71.4031Z" fill="#FFE500" stroke="#191816" stroke-linecap="round" stroke-linejoin="round"/>
<path d="M128.794 94.8275H123.386C122.415 94.7928 121.648 93.9909 121.658 93.0195C121.639 92.0418 122.408 91.2302 123.386 91.1954H128.794C129.783 91.1954 130.586 91.9977 130.586 92.9875V92.9875C130.612 93.9768 129.832 94.8003 128.842 94.8269C128.826 94.8273 128.81 94.8275 128.794 94.8275L128.794 94.8275Z" fill="#BDBEC0" stroke="#191816" stroke-linecap="round" stroke-linejoin="round"/>
<path d="M108.058 87.6113H123.786V87.6113C125.055 87.62 126.081 88.6465 126.09 89.9154V91.1954" stroke="#191816" stroke-linecap="round" stroke-linejoin="round"/>
<path d="M98.8412 72.2989C97.9576 72.2989 97.2412 71.5826 97.2412 70.6989V69.3869C97.2412 68.5032 97.9576 67.7869 98.8412 67.7869H101.945C102.829 67.7869 103.545 68.5032 103.545 69.3869V70.6989C103.545 71.5826 102.829 72.2989 101.945 72.2989H98.8412Z" fill="#BDBEC0" stroke="#191816" stroke-linecap="round" stroke-linejoin="round"/>
<path d="M80.6074 58.2924C82.3694 60.0545 82.3694 62.9114 80.6074 64.6735C78.8453 66.4355 75.9884 66.4355 74.2263 64.6735C72.4643 62.9114 72.4643 60.0545 74.2263 58.2924C75.9884 56.5304 78.8453 56.5304 80.6074 58.2924Z" fill="#00B8F0"/>
<path d="M80.6074 58.2924C82.3694 60.0545 82.3694 62.9114 80.6074 64.6735C78.8453 66.4355 75.9884 66.4355 74.2263 64.6735C72.4643 62.9114 72.4643 60.0545 74.2263 58.2924C75.9884 56.5304 78.8453 56.5304 80.6074 58.2924" stroke="#191816" stroke-linecap="round" stroke-linejoin="round"/>
<path d="M72.9051 61.4828C72.7568 63.9703 74.6531 66.1071 77.1406 66.2555C79.6281 66.4038 81.7649 64.5075 81.9133 62.02C81.9239 61.8411 81.9239 61.6617 81.9133 61.4828C81.9377 61.1846 81.9377 60.885 81.9133 60.5868H73.0011C72.9368 60.8811 72.9046 61.1815 72.9051 61.4828V61.4828Z" fill="#FFE500" stroke="#191816" stroke-linecap="round" stroke-linejoin="round"/>
<path d="M62.0889 77.7069V65.0827V65.0827C62.0974 63.1104 63.6848 61.5088 65.6569 61.4827H72.8571" stroke="#191816" stroke-linecap="round" stroke-linejoin="round"/>
<path d="M81.9131 61.4827H96.3133V61.4827C98.3016 61.4827 99.9134 63.0945 99.9134 65.0827V67.7868" stroke="#191816" stroke-linecap="round" stroke-linejoin="round"/>
<path d="M73.6088 91.2275C72.7252 91.2275 72.0088 90.5111 72.0088 89.6274V74.7952C72.0088 73.9116 72.7252 73.1952 73.6088 73.1952H98.3452C99.2289 73.1952 99.9452 73.9116 99.9452 74.7952V89.6274C99.9452 90.5111 99.2289 91.2275 98.3452 91.2275H73.6088Z" fill="#FF6242" stroke="#191816" stroke-linecap="round" stroke-linejoin="round"/>
<path d="M102.649 81.6911V72.299H98.1372V81.6911C94.0919 82.9371 91.8227 87.2264 93.0687 91.2717C94.3146 95.3169 98.604 97.5862 102.649 96.3402C106.694 95.0942 108.964 90.8048 107.718 86.7596C106.971 84.3355 105.073 82.4378 102.649 81.6911Z" fill="#00B8F0" stroke="#191816" stroke-linecap="round" stroke-linejoin="round"/>
<path d="M92.7295 88.9712C92.7295 93.204 96.1608 96.6353 100.394 96.6353C104.626 96.6353 108.058 93.204 108.058 88.9712V88.9712C108.055 88.2057 107.937 87.445 107.706 86.7151H93.0975H93.0975C92.8613 87.4442 92.7372 88.2049 92.7295 88.9712H92.7295Z" fill="#6DD627" stroke="#191816" stroke-linecap="round" stroke-linejoin="round"/>
<path d="M70.2008 61.4827H53.9765V61.4827C51.9883 61.4827 50.3765 63.0945 50.3765 65.0827V71.4828" stroke="#191816" stroke-linecap="round" stroke-linejoin="round"/>
<path d="M93.6411 61.4827H90.0251V61.4827C88.0493 61.5002 86.457 63.1069 86.457 65.0827V73.1948" stroke="#191816" stroke-linecap="round" stroke-linejoin="round"/>
<path d="M109.866 91.1954C108.867 91.1954 108.058 90.386 108.058 89.3874V87.6114V87.6113C108.058 86.6216 108.86 85.8193 109.85 85.8193C109.855 85.8193 109.86 85.8193 109.866 85.8193C110.855 85.8193 111.658 86.6217 111.658 87.6114V89.4194C111.64 90.3993 110.846 91.187 109.866 91.1954H109.866Z" fill="#BDBEC0" stroke="#191816" stroke-linecap="round" stroke-linejoin="round"/>
<path d="M112.858 99.0193C112.696 96.1607 110.329 93.9267 107.466 93.9312H93.3214C90.4614 93.9347 88.0985 96.1643 87.9293 99.0193L87.3213 109.243H91.8334L92.4574 101.739C92.6153 99.868 94.1794 98.429 96.0574 98.4273H104.746C106.62 98.4296 108.18 99.8705 108.33 101.739L108.954 109.243H113.466L112.858 99.0193Z" fill="#DAEDF7" stroke="#191816" stroke-linecap="round" stroke-linejoin="round"/>
<path d="M103.545 106.091C103.24 107.832 101.582 108.996 99.8411 108.691C98.5134 108.459 97.4738 107.419 97.2412 106.091C97.2412 103.451 98.6492 101.131 100.441 101.131C100.393 101.131 98.6492 106.091 103.545 106.091Z" fill="#FF8A14" stroke="#191816" stroke-linecap="round" stroke-linejoin="round"/>
<path d="M95.4331 109.244H105.353" stroke="#191816" stroke-linecap="round" stroke-linejoin="round"/>
<path opacity="0.15" d="M129.882 109.14C140.442 110.196 140.442 111.908 129.882 112.964C119.322 114.02 102.201 114.02 91.6411 112.964C81.0812 111.908 81.0812 110.196 91.6411 109.14C102.201 108.084 119.322 108.084 129.882 109.14Z" fill="#191816"/>
</svg>
