<svg preserveAspectRatio="xMinYMin meet" viewBox="0 0 160 144" fill="none" xmlns="http://www.w3.org/2000/svg">
<path d="M144 71.728C143.999 62.1775 141.861 52.7483 137.742 44.1317C133.623 35.5151 127.628 27.9296 120.196 21.9313C112.764 15.933 104.084 11.6741 94.7918 9.46679C85.4999 7.25946 75.8317 7.1597 66.4963 9.17482C57.1608 11.1899 48.3946 15.2688 40.8406 21.1125C33.2865 26.9561 27.136 34.4163 22.8401 42.946C18.5442 51.4758 16.2117 60.8589 16.0138 70.4073C15.8158 79.9558 17.7573 89.4275 21.696 98.128H138.304C142.066 89.8357 144.008 80.8338 144 71.728Z" fill="#E8F4FA"/>
<path d="M21.6963 98.128C26.771 109.338 34.9697 118.847 45.3104 125.517C55.651 132.187 67.6952 135.734 80.0003 135.734C92.3054 135.734 104.35 132.187 114.69 125.517C125.031 118.847 133.23 109.338 138.304 98.128H21.6963Z" fill="white"/>
<path d="M16.8003 98.128H141.6" stroke="#191816" stroke-linecap="round" stroke-linejoin="round"/>
<path d="M9.6001 98.128H13.6001" stroke="#191816" stroke-linecap="round" stroke-linejoin="round"/>
<path d="M144.8 98.128H148.8" stroke="#191816" stroke-linecap="round" stroke-linejoin="round"/>
<path d="M111.76 70.928C112.068 70.9274 112.369 70.838 112.627 70.6705C112.885 70.5031 113.09 70.2647 113.216 69.984C115.584 63.84 111.328 57.328 98.4001 57.328C85.4721 57.328 81.2161 63.84 83.5841 69.984C83.7103 70.2647 83.9148 70.5031 84.173 70.6705C84.4313 70.838 84.7323 70.9274 85.0401 70.928H111.76Z" fill="#FFE500" stroke="#191816" stroke-linecap="round" stroke-linejoin="round"/>
<path d="M123.2 86.128C123.2 79.5506 120.587 73.2427 115.936 68.5918C111.285 63.9409 104.977 61.328 98.4001 61.328C91.8227 61.328 85.5148 63.9409 80.8638 68.5918C76.2129 73.2427 73.6001 79.5506 73.6001 86.128V98.128H123.2V86.128Z" fill="#B89558" stroke="#191816" stroke-linecap="round" stroke-linejoin="round"/>
<path d="M92.7998 62.128C92.7998 63.6132 93.3898 65.0376 94.44 66.0878C95.4902 67.138 96.9146 67.728 98.3998 67.728C99.885 67.728 101.309 67.138 102.36 66.0878C103.41 65.0376 104 63.6132 104 62.128V56.528H92.7998V62.128Z" fill="#FFCEBF"/>
<path d="M92.7998 62.112C96.4538 63.2005 100.346 63.2005 104 62.112V56.528H92.7998V62.112Z" fill="#FFB59E"/>
<path d="M92.7998 62.128V56.528H104V62.128C104 63.6132 103.41 65.0376 102.36 66.0878C101.309 67.138 99.885 67.728 98.3998 67.728C96.9146 67.728 95.4902 67.138 94.44 66.0878C93.3898 65.0376 92.7998 63.6132 92.7998 62.128V62.128Z" stroke="#191816" stroke-linecap="round" stroke-linejoin="round"/>
<path d="M107.776 63.168L98.4001 72.528L89.0401 63.168C84.4778 65.0297 80.573 68.2075 77.8233 72.2965C75.0736 76.3855 73.6034 81.2005 73.6001 86.128V98.128H123.2V86.128C123.198 81.2023 121.73 76.3886 118.984 72.2998C116.237 68.2111 112.335 65.0322 107.776 63.168Z" fill="#FFE500"/>
<path d="M94.7041 68.8L89.0401 63.136C84.4715 64.998 80.5621 68.1803 77.8117 72.276C75.0613 76.3716 73.5949 81.1946 73.6001 86.128V93.328C73.5989 87.3903 75.7282 81.6491 79.6009 77.1481C83.4736 72.6471 88.8327 69.6849 94.7041 68.8Z" fill="#FFF48C"/>
<path d="M107.776 63.168L102.096 68.8C107.968 69.6849 113.327 72.6471 117.199 77.1481C121.072 81.6491 123.201 87.3902 123.2 93.328V86.128C123.198 81.2023 121.73 76.3886 118.984 72.2998C116.237 68.2111 112.335 65.0322 107.776 63.168Z" fill="#FFF48C"/>
<path d="M107.776 63.168L98.4001 72.528L89.0401 63.168C84.4778 65.0297 80.573 68.2075 77.8233 72.2965C75.0736 76.3855 73.6034 81.2005 73.6001 86.128V98.128H123.2V86.128C123.198 81.2023 121.73 76.3886 118.984 72.2998C116.237 68.2111 112.335 65.0322 107.776 63.168Z" stroke="#191816" stroke-linecap="round" stroke-linejoin="round"/>
<path d="M83.2002 83.728V98.128" stroke="#191816" stroke-linecap="round" stroke-linejoin="round"/>
<path d="M113.6 83.728V98.128" stroke="#191816" stroke-linecap="round" stroke-linejoin="round"/>
<path d="M110.496 60.448L98.3999 72.528L102.496 70.928L113.824 66.496C113.77 65.3003 113.442 64.1329 112.865 63.0842C112.288 62.0355 111.477 61.1336 110.496 60.448Z" fill="#FFE500" stroke="#191816" stroke-linecap="round" stroke-linejoin="round"/>
<path d="M98.4002 72.528L86.4002 60.464C85.4189 61.1471 84.6073 62.046 84.0276 63.0916C83.448 64.1373 83.1156 65.3019 83.0562 66.496L94.4002 70.928L98.4002 72.528Z" fill="#FFE500" stroke="#191816" stroke-linecap="round" stroke-linejoin="round"/>
<path d="M98.3999 72.528V97.984" stroke="#191816" stroke-linecap="round" stroke-linejoin="round"/>
<path d="M114.4 39.728V35.728C114.4 31.4845 112.714 27.4149 109.714 24.4143C106.713 21.4137 102.644 19.728 98.4002 19.728C94.1567 19.728 90.0871 21.4137 87.0865 24.4143C84.0859 27.4149 82.4002 31.4845 82.4002 35.728V39.728C81.5515 39.728 80.7376 40.0651 80.1375 40.6653C79.5373 41.2654 79.2002 42.0793 79.2002 42.928C79.2002 43.7767 79.5373 44.5906 80.1375 45.1907C80.7376 45.7909 81.5515 46.128 82.4002 46.128H82.5922C83.1815 49.8974 85.0982 53.3321 87.9968 55.8128C90.8954 58.2935 94.585 59.6567 98.4002 59.6567C102.215 59.6567 105.905 58.2935 108.804 55.8128C111.702 53.3321 113.619 49.8974 114.208 46.128H114.4C115.249 46.128 116.063 45.7909 116.663 45.1907C117.263 44.5906 117.6 43.7767 117.6 42.928C117.6 42.0793 117.263 41.2654 116.663 40.6653C116.063 40.0651 115.249 39.728 114.4 39.728Z" fill="#FFCEBF" stroke="#191816" stroke-linecap="round" stroke-linejoin="round"/>
<path d="M89.2002 48.528C90.3048 48.528 91.2002 47.6326 91.2002 46.528C91.2002 45.4234 90.3048 44.528 89.2002 44.528C88.0956 44.528 87.2002 45.4234 87.2002 46.528C87.2002 47.6326 88.0956 48.528 89.2002 48.528Z" fill="#FFB59E"/>
<path d="M107.6 48.528C108.705 48.528 109.6 47.6326 109.6 46.528C109.6 45.4234 108.705 44.528 107.6 44.528C106.496 44.528 105.6 45.4234 105.6 46.528C105.6 47.6326 106.496 48.528 107.6 48.528Z" fill="#FFB59E"/>
<path d="M98.3999 63.728C102.4 63.728 108.8 60.528 108.8 55.84C108.8 54.336 109.648 47.728 98.3999 47.728C87.1519 47.728 87.9999 54.4 87.9999 55.84C87.9999 60.528 94.3999 63.728 98.3999 63.728ZM100.8 56.528L100.368 55.232C100.263 54.9112 100.06 54.6317 99.787 54.4335C99.514 54.2352 99.1853 54.1283 98.8479 54.128H97.9519C97.601 54.1109 97.2542 54.2097 96.965 54.4092C96.6759 54.6087 96.4604 54.8979 96.3519 55.232L95.9199 56.528C94.3199 56.528 91.9199 55.888 91.9199 53.904C91.9193 53.4912 92.0344 53.0865 92.2521 52.7358C92.4699 52.3851 92.7816 52.1025 93.1519 51.92L94.4479 51.28C94.8937 51.0516 95.387 50.931 95.8879 50.928H100.688C101.189 50.931 101.682 51.0516 102.128 51.28L103.424 51.92C103.794 52.1025 104.106 52.3851 104.324 52.7358C104.541 53.0865 104.657 53.4912 104.656 53.904C104.848 55.808 102.624 56.496 100.8 56.528Z" fill="#724F3D" stroke="#191816" stroke-linecap="round" stroke-linejoin="round"/>
<path d="M84.256 35.536C83.9871 35.6799 83.6826 35.744 83.3785 35.7207C83.0744 35.6974 82.7833 35.5876 82.5395 35.4043C82.2957 35.221 82.1093 34.9719 82.0024 34.6862C81.8955 34.4006 81.8724 34.0903 81.936 33.792C82.7072 29.9942 84.7676 26.5798 87.7681 24.1274C90.7686 21.6749 94.5247 20.3351 98.4 20.3351C102.275 20.3351 106.031 21.6749 109.032 24.1274C112.032 26.5798 114.093 29.9942 114.864 33.792C114.928 34.0903 114.905 34.4006 114.798 34.6862C114.691 34.9719 114.504 35.221 114.261 35.4043C114.017 35.5876 113.726 35.6974 113.421 35.7207C113.117 35.744 112.813 35.6799 112.544 35.536C108.213 33.1004 103.365 31.7294 98.4 31.536C93.4349 31.7294 88.587 33.1004 84.256 35.536Z" fill="#656769"/>
<path d="M98.3999 20.336C94.8254 20.3437 91.3465 21.4913 88.469 23.612C85.5915 25.7327 83.4654 28.716 82.3999 32.128L84.7199 31.424C89.1849 30.1255 93.7872 29.3575 98.4319 29.136C103.077 29.3575 107.679 30.1255 112.144 31.424L114.464 32.128C113.395 28.7055 111.259 25.7148 108.369 23.5931C105.479 21.4714 101.985 20.3301 98.3999 20.336Z" fill="#525252"/>
<path d="M84.256 35.536C83.9871 35.6799 83.6826 35.744 83.3785 35.7207C83.0744 35.6974 82.7833 35.5876 82.5395 35.4043C82.2957 35.221 82.1093 34.9719 82.0024 34.6862C81.8955 34.4006 81.8724 34.0903 81.936 33.792C82.7072 29.9942 84.7676 26.5798 87.7681 24.1274C90.7686 21.6749 94.5247 20.3351 98.4 20.3351C102.275 20.3351 106.031 21.6749 109.032 24.1274C112.032 26.5798 114.093 29.9942 114.864 33.792C114.928 34.0903 114.905 34.4006 114.798 34.6862C114.691 34.9719 114.504 35.221 114.261 35.4043C114.017 35.5876 113.726 35.6974 113.421 35.7207C113.117 35.744 112.813 35.6799 112.544 35.536C108.213 33.1004 103.365 31.7294 98.4 31.536C93.4349 31.7294 88.587 33.1004 84.256 35.536V35.536Z" stroke="#191816" stroke-linecap="round" stroke-linejoin="round"/>
<path d="M112.8 27.2C112.801 26.2552 112.522 25.3313 112 24.544C110.4 22.24 106.576 17.984 98.4003 17.984C90.2243 17.984 86.4003 22.192 84.8003 24.496C84.2689 25.2969 83.9902 26.2389 84.0003 27.2V29.184C88.6861 27.8072 93.5211 27.0014 98.4003 26.784C103.279 27.0014 108.114 27.8072 112.8 29.184V27.2Z" fill="#ADC4D9"/>
<path d="M84.0483 28.8C85.6483 26.384 89.7763 21.888 98.4483 21.888C107.12 21.888 111.248 26.384 112.848 28.8V27.2C112.849 26.2552 112.57 25.3313 112.048 24.544C110.448 22.24 106.624 17.984 98.4483 17.984C90.2723 17.984 86.4003 22.192 84.8003 24.496C84.2689 25.2969 83.9902 26.2389 84.0003 27.2V28.976L84.0483 28.8Z" fill="#C0DCEB"/>
<path d="M112.8 27.2C112.801 26.2552 112.522 25.3313 112 24.544C110.4 22.24 106.576 17.984 98.4003 17.984C90.2243 17.984 86.4003 22.192 84.8003 24.496C84.2689 25.2969 83.9902 26.2389 84.0003 27.2V29.184C88.6861 27.8072 93.5211 27.0014 98.4003 26.784C103.279 27.0014 108.114 27.8072 112.8 29.184V27.2Z" stroke="#191816" stroke-linecap="round" stroke-linejoin="round"/>
<path d="M104.8 17.936H91.9999C91.5756 17.936 91.1686 17.7674 90.8685 17.4674C90.5685 17.1673 90.3999 16.7604 90.3999 16.336V15.808C90.3988 15.4811 90.498 15.1617 90.6839 14.8928C90.8698 14.6239 91.1337 14.4184 91.4399 14.304C95.9493 12.7472 100.85 12.7472 105.36 14.304C105.666 14.4184 105.93 14.6239 106.116 14.8928C106.302 15.1617 106.401 15.4811 106.4 15.808V16.336C106.4 16.7604 106.231 17.1673 105.931 17.4674C105.631 17.7674 105.224 17.936 104.8 17.936Z" fill="#ADC4D9"/>
<path d="M105.36 14.304C100.85 12.7472 95.9493 12.7472 91.4399 14.304C91.1337 14.4184 90.8698 14.6239 90.6839 14.8928C90.498 15.1617 90.3988 15.4811 90.3999 15.808V16.336C90.41 16.6657 90.5218 16.9843 90.7199 17.248C90.9027 17.0013 91.1527 16.8125 91.4399 16.704C95.9493 15.1472 100.85 15.1472 105.36 16.704C105.647 16.8125 105.897 17.0013 106.08 17.248C106.278 16.9843 106.39 16.6657 106.4 16.336V15.808C106.401 15.4811 106.302 15.1617 106.116 14.8928C105.93 14.6239 105.666 14.4184 105.36 14.304Z" fill="#C0DCEB"/>
<path d="M104.8 17.936H91.9999C91.5756 17.936 91.1686 17.7674 90.8685 17.4674C90.5685 17.1673 90.3999 16.7604 90.3999 16.336V15.808C90.3988 15.4811 90.498 15.1617 90.6839 14.8928C90.8698 14.6239 91.1337 14.4184 91.4399 14.304C95.9493 12.7472 100.85 12.7472 105.36 14.304C105.666 14.4184 105.93 14.6239 106.116 14.8928C106.302 15.1617 106.401 15.4811 106.4 15.808V16.336C106.4 16.7604 106.231 17.1673 105.931 17.4674C105.631 17.7674 105.224 17.936 104.8 17.936Z" stroke="#191816" stroke-linecap="round" stroke-linejoin="round"/>
<path d="M112 28.352L108 19.616C107.827 19.2297 107.814 18.7906 107.964 18.3948C108.114 17.9989 108.414 17.6786 108.8 17.504L110.256 16.832L115.568 28.48L114.112 29.136C113.728 29.3102 113.29 29.3255 112.894 29.1787C112.499 29.0319 112.177 28.7347 112 28.352Z" fill="#ADC4D9"/>
<path d="M109.984 23.808L112.88 22.4L110.4 16.832L108.944 17.504C108.558 17.6786 108.258 17.9989 108.108 18.3948C107.958 18.7906 107.971 19.2297 108.144 19.616L109.984 23.808Z" fill="#C0DCEB"/>
<path d="M112 28.352L108 19.616C107.827 19.2297 107.814 18.7906 107.964 18.3948C108.114 17.9989 108.414 17.6786 108.8 17.504L110.256 16.832L115.568 28.48L114.112 29.136C113.728 29.3102 113.29 29.3255 112.894 29.1787C112.499 29.0319 112.177 28.7347 112 28.352Z" stroke="#191816" stroke-linecap="round" stroke-linejoin="round"/>
<path d="M117.76 29.264C117.569 29.3527 117.362 29.4028 117.152 29.4114C116.941 29.42 116.731 29.387 116.533 29.3141C116.335 29.2413 116.154 29.1301 115.999 28.987C115.845 28.8438 115.72 28.6715 115.632 28.48L110.4 16.832C110.226 16.4477 110.211 16.0102 110.357 15.6146C110.504 15.2191 110.801 14.8975 111.184 14.72L111.472 14.576C111.733 14.4405 112.027 14.3796 112.32 14.4L113.92 14.64C114.18 14.6817 114.425 14.7868 114.634 14.9458C114.843 15.1049 115.01 15.3131 115.12 15.552L119.728 25.632C119.854 25.8836 119.912 26.164 119.895 26.4449C119.878 26.7258 119.787 26.9973 119.632 27.232L118.816 28.544C118.651 28.8095 118.412 29.0209 118.128 29.152L117.76 29.264Z" fill="#FF6242"/>
<path d="M117.216 20.384L115.04 15.584C114.93 15.3451 114.763 15.1369 114.554 14.9778C114.345 14.8188 114.1 14.7137 113.84 14.672L112.24 14.432C111.926 14.3761 111.603 14.4151 111.312 14.544L111.024 14.688C110.661 14.8935 110.393 15.2327 110.276 15.6332C110.16 16.0336 110.204 16.4638 110.4 16.832L112.88 22.4L117.216 20.384Z" fill="#FF866E"/>
<path d="M117.76 29.264C117.569 29.3527 117.362 29.4028 117.152 29.4114C116.941 29.42 116.731 29.387 116.533 29.3141C116.335 29.2413 116.154 29.1301 115.999 28.987C115.845 28.8438 115.72 28.6715 115.632 28.48L110.4 16.832C110.226 16.4477 110.211 16.0102 110.357 15.6146C110.504 15.2191 110.801 14.8975 111.184 14.72L111.472 14.576C111.733 14.4405 112.027 14.3796 112.32 14.4L113.92 14.64C114.18 14.6817 114.425 14.7868 114.634 14.9458C114.843 15.1049 115.01 15.3131 115.12 15.552L119.728 25.632C119.854 25.8836 119.912 26.164 119.895 26.4449C119.878 26.7258 119.787 26.9973 119.632 27.232L118.816 28.544C118.651 28.8095 118.412 29.0209 118.128 29.152L117.76 29.264Z" stroke="#191816" stroke-linecap="round" stroke-linejoin="round"/>
<path d="M84.8 28.352L88.8 19.616C88.9731 19.2297 88.9861 18.7906 88.8362 18.3948C88.6863 17.9989 88.3856 17.6786 88 17.504L86.544 16.832L81.168 28.48L82.624 29.136C82.8175 29.2324 83.0285 29.2885 83.2443 29.301C83.4601 29.3136 83.6762 29.2823 83.8795 29.209C84.0829 29.1358 84.2693 29.022 84.4275 28.8747C84.5857 28.7274 84.7124 28.5496 84.8 28.352Z" fill="#ADC4D9"/>
<path d="M86.8159 23.808L83.9199 22.4L86.4799 16.784L87.9359 17.456C88.3215 17.6306 88.6222 17.9509 88.7722 18.3468C88.9221 18.7426 88.9091 19.1817 88.7359 19.568L86.8159 23.808Z" fill="#C0DCEB"/>
<path d="M84.8 28.352L88.8 19.616C88.9731 19.2297 88.9861 18.7906 88.8362 18.3948C88.6863 17.9989 88.3856 17.6786 88 17.504L86.544 16.832L81.168 28.48L82.624 29.136C82.8175 29.2324 83.0285 29.2885 83.2443 29.301C83.4601 29.3136 83.6762 29.2823 83.8795 29.209C84.0829 29.1358 84.2693 29.022 84.4275 28.8747C84.5857 28.7274 84.7124 28.5496 84.8 28.352V28.352Z" stroke="#191816" stroke-linecap="round" stroke-linejoin="round"/>
<path d="M79.0401 29.264C79.2312 29.3528 79.438 29.4029 79.6485 29.4115C79.8591 29.4201 80.0693 29.387 80.267 29.3141C80.4647 29.2413 80.6461 29.1301 80.8007 28.987C80.9554 28.8438 81.0802 28.6715 81.1681 28.48L86.4801 16.832C86.6543 16.4477 86.6696 16.0102 86.5228 15.6146C86.376 15.2191 86.0788 14.8976 85.6961 14.72L85.4081 14.576C85.1235 14.4253 84.8001 14.364 84.4801 14.4L82.9601 14.64C82.7005 14.6818 82.4553 14.7868 82.246 14.9459C82.0367 15.1049 81.8698 15.3131 81.7601 15.552L77.1521 25.632C77.026 25.8836 76.9684 26.164 76.9853 26.4449C77.0021 26.7258 77.0928 26.9973 77.2481 27.232L78.0641 28.544C78.2291 28.8095 78.4683 29.0209 78.7521 29.152L79.0401 29.264Z" fill="#FF6242"/>
<path d="M79.584 20.384L81.76 15.584C81.8697 15.3451 82.0366 15.1369 82.2459 14.9778C82.4552 14.8188 82.7004 14.7137 82.96 14.672L84.48 14.4C84.7936 14.3441 85.1167 14.3831 85.408 14.512L85.696 14.656C86.0787 14.8335 86.3759 15.1551 86.5227 15.5506C86.6695 15.9462 86.6542 16.3837 86.48 16.768L83.92 22.4L79.584 20.384Z" fill="#FF866E"/>
<path d="M81.1681 28.48L86.4801 16.832C86.6543 16.4477 86.6696 16.0102 86.5228 15.6146C86.376 15.2191 86.0788 14.8976 85.6961 14.72L85.4081 14.576C85.1235 14.4253 84.8001 14.364 84.4801 14.4L82.9601 14.64C82.7005 14.6818 82.4553 14.7868 82.246 14.9459C82.0367 15.1049 81.8698 15.3131 81.7601 15.552L77.1521 25.632C77.026 25.8836 76.9684 26.164 76.9853 26.4449C77.0021 26.7258 77.0928 26.9973 77.2481 27.232L78.0641 28.544C78.2291 28.8095 78.4683 29.0209 78.7521 29.152L79.0401 29.28C79.2322 29.3682 79.4399 29.4175 79.6511 29.425C79.8624 29.4325 80.073 29.3981 80.2709 29.3237C80.4688 29.2493 80.6499 29.1364 80.8039 28.9916C80.9579 28.8468 81.0817 28.6729 81.1681 28.48Z" stroke="#191816" stroke-linecap="round" stroke-linejoin="round"/>
<path d="M96 40.528C96 39.8915 96.2529 39.2811 96.7029 38.831C97.153 38.3809 97.7635 38.128 98.4 38.128C99.0365 38.128 99.647 38.3809 100.097 38.831C100.547 39.2811 100.8 39.8915 100.8 40.528" stroke="#191816" stroke-linecap="round" stroke-linejoin="round"/>
<path d="M108.8 46.928H107.2C105.502 46.928 103.875 46.2537 102.674 45.0535C101.474 43.8533 100.8 42.2254 100.8 40.528V38.928C100.8 38.5037 100.968 38.0967 101.268 37.7966C101.568 37.4966 101.975 37.328 102.4 37.328H108.8C110.073 37.328 111.294 37.8337 112.194 38.7339C113.094 39.6341 113.6 40.855 113.6 42.128C113.6 43.401 113.094 44.6219 112.194 45.5221C111.294 46.4223 110.073 46.928 108.8 46.928Z" fill="#00B8F0"/>
<path d="M88.0002 46.928H89.6002C91.2976 46.928 92.9254 46.2537 94.1257 45.0535C95.3259 43.8533 96.0002 42.2254 96.0002 40.528V38.928C96.0002 38.5037 95.8316 38.0967 95.5316 37.7966C95.2315 37.4966 94.8245 37.328 94.4002 37.328H88.0002C86.7272 37.328 85.5063 37.8337 84.6061 38.7339C83.7059 39.6341 83.2002 40.855 83.2002 42.128C83.2002 43.401 83.7059 44.6219 84.6061 45.5221C85.5063 46.4223 86.7272 46.928 88.0002 46.928Z" fill="#00B8F0"/>
<path d="M111.296 38.032C110.544 37.5728 109.681 37.3292 108.8 37.328H102.4C101.975 37.328 101.569 37.4966 101.268 37.7966C100.968 38.0967 100.8 38.5037 100.8 38.928V40.528C100.798 41.5202 101.027 42.4993 101.468 43.3879C101.91 44.2764 102.552 45.0502 103.344 45.648L103.552 45.776L111.28 38.048L111.296 38.032Z" fill="#4ACFFF"/>
<path d="M88 37.328C86.9541 37.3294 85.9373 37.6724 85.1043 38.3048C84.2713 38.9372 83.6675 39.8243 83.385 40.8313C83.1025 41.8383 83.1566 42.91 83.5391 43.8834C83.9216 44.8569 84.6115 45.6787 85.504 46.224L94.4 37.328H88Z" fill="#4ACFFF"/>
<path d="M108.8 46.928H107.2C105.502 46.928 103.875 46.2537 102.674 45.0535C101.474 43.8533 100.8 42.2254 100.8 40.528V38.928C100.8 38.5037 100.968 38.0967 101.268 37.7966C101.568 37.4966 101.975 37.328 102.4 37.328H108.8C110.073 37.328 111.294 37.8337 112.194 38.7339C113.094 39.6341 113.6 40.855 113.6 42.128C113.6 43.401 113.094 44.6219 112.194 45.5221C111.294 46.4223 110.073 46.928 108.8 46.928Z" stroke="#191816" stroke-linecap="round" stroke-linejoin="round"/>
<path d="M88.0002 46.928H89.6002C91.2976 46.928 92.9254 46.2537 94.1257 45.0535C95.3259 43.8533 96.0002 42.2254 96.0002 40.528V38.928C96.0002 38.5037 95.8316 38.0967 95.5316 37.7966C95.2315 37.4966 94.8245 37.328 94.4002 37.328H88.0002C86.7272 37.328 85.5063 37.8337 84.6061 38.7339C83.7059 39.6341 83.2002 40.855 83.2002 42.128C83.2002 43.401 83.7059 44.6219 84.6061 45.5221C85.5063 46.4223 86.7272 46.928 88.0002 46.928Z" stroke="#191816" stroke-linecap="round" stroke-linejoin="round"/>
<path d="M107.2 41.328C107 40.8572 106.665 40.4556 106.239 40.1734C105.812 39.8911 105.312 39.7406 104.8 39.7406C104.288 39.7406 103.788 39.8911 103.361 40.1734C102.934 40.4556 102.6 40.8572 102.4 41.328" stroke="#191816" stroke-linecap="round" stroke-linejoin="round"/>
<path d="M94.4001 41.328C94.1999 40.8572 93.8656 40.4556 93.4388 40.1734C93.0121 39.8911 92.5117 39.7406 92.0001 39.7406C91.4885 39.7406 90.9881 39.8911 90.5614 40.1734C90.1346 40.4556 89.8003 40.8572 89.6001 41.328" stroke="#191816" stroke-linecap="round" stroke-linejoin="round"/>
<path d="M123.808 118.928L105.744 102.192C105.154 101.639 104.376 101.331 103.568 101.328H56.4319C55.6235 101.331 54.846 101.639 54.2559 102.192L36.1919 118.928H123.808Z" fill="#ADC4D9" stroke="#191816" stroke-linecap="round" stroke-linejoin="round"/>
<path d="M122.4 118.928L119.36 122.576C119.059 122.937 118.682 123.228 118.257 123.427C117.831 123.626 117.366 123.729 116.896 123.728H43.1041C42.634 123.729 42.1695 123.626 41.7436 123.427C41.3177 123.228 40.941 122.937 40.6401 122.576L37.6001 118.928H122.4Z" fill="#ADC4D9" stroke="#191816" stroke-linecap="round" stroke-linejoin="round"/>
<path d="M56.0002 109.328H52.8002C51.9165 109.328 51.2002 110.044 51.2002 110.928V114.128C51.2002 115.012 51.9165 115.728 52.8002 115.728H56.0002C56.8839 115.728 57.6002 115.012 57.6002 114.128V110.928C57.6002 110.044 56.8839 109.328 56.0002 109.328Z" fill="#4AEFF7" stroke="#191816" stroke-linecap="round" stroke-linejoin="round"/>
<path d="M87.1049 102.742L84.4809 104.566C83.7563 105.069 83.5773 106.065 84.0809 106.79L85.9049 109.414C86.4086 110.138 87.4043 110.317 88.1289 109.814L90.7529 107.99C91.4775 107.486 91.6566 106.49 91.1529 105.766L89.3289 103.142C88.8253 102.417 87.8295 102.238 87.1049 102.742Z" fill="#4AEFF7" stroke="#191816" stroke-linecap="round" stroke-linejoin="round"/>
<path d="M68.5201 107.643L66.6929 110.27C66.1883 110.996 66.3674 111.993 67.0928 112.497L69.7199 114.324C70.4453 114.829 71.4424 114.65 71.947 113.924L73.7742 111.297C74.2787 110.572 74.0997 109.575 73.3743 109.07L70.7472 107.243C70.0218 106.739 69.0247 106.918 68.5201 107.643Z" fill="#4AEFF7" stroke="#191816" stroke-linecap="round" stroke-linejoin="round"/>
<path d="M58.2144 105.003L55.9517 107.266C55.3268 107.89 55.3268 108.903 55.9517 109.528L58.2144 111.791C58.8393 112.416 59.8523 112.416 60.4772 111.791L62.7399 109.528C63.3647 108.903 63.3647 107.89 62.7399 107.266L60.4772 105.003C59.8523 104.378 58.8393 104.378 58.2144 105.003Z" fill="#4AEFF7" stroke="#191816" stroke-linecap="round" stroke-linejoin="round"/>
<path d="M63.0515 109.237L60.135 110.554C59.3296 110.918 58.9715 111.866 59.3352 112.671L60.652 115.587C61.0157 116.393 61.9633 116.751 62.7687 116.387L65.6852 115.07C66.4905 114.707 66.8486 113.759 66.485 112.954L65.1682 110.037C64.8045 109.232 63.8569 108.874 63.0515 109.237Z" fill="#4AEFF7" stroke="#191816" stroke-linecap="round" stroke-linejoin="round"/>
<path d="M106.64 109.328H103.44C102.556 109.328 101.84 110.044 101.84 110.928V114.128C101.84 115.012 102.556 115.728 103.44 115.728H106.64C107.524 115.728 108.24 115.012 108.24 114.128V110.928C108.24 110.044 107.524 109.328 106.64 109.328Z" fill="#4AEFF7" stroke="#191816" stroke-linecap="round" stroke-linejoin="round"/>
<path d="M98.9669 105.003L96.7041 107.266C96.0793 107.89 96.0793 108.903 96.7041 109.528L98.9669 111.791C99.5917 112.416 100.605 112.416 101.23 111.791L103.492 109.528C104.117 108.903 104.117 107.89 103.492 107.266L101.23 105.003C100.605 104.378 99.5917 104.378 98.9669 105.003Z" fill="#4AEFF7" stroke="#191816" stroke-linecap="round" stroke-linejoin="round"/>
<path d="M94.2555 110.052L92.9387 112.968C92.5751 113.773 92.9332 114.721 93.7385 115.085L96.655 116.402C97.4604 116.765 98.408 116.407 98.7717 115.602L100.089 112.685C100.452 111.88 100.094 110.932 99.2887 110.569L96.3722 109.252C95.5668 108.888 94.6192 109.246 94.2555 110.052Z" fill="#4AEFF7" stroke="#191816" stroke-linecap="round" stroke-linejoin="round"/>
<path d="M73.4621 101.235L70.5456 102.551C69.7403 102.915 69.3822 103.863 69.7458 104.668L71.0627 107.585C71.4263 108.39 72.374 108.748 73.1793 108.384L76.0958 107.067C76.9012 106.704 77.2593 105.756 76.8957 104.951L75.5788 102.034C75.2152 101.229 74.2675 100.871 73.4621 101.235Z" fill="#4AEFF7" stroke="#191816" stroke-linecap="round" stroke-linejoin="round"/>
<path d="M77.892 104.631L76.7609 107.624C76.4485 108.451 76.8654 109.374 77.692 109.686L80.6854 110.817C81.5121 111.13 82.4354 110.713 82.7477 109.886L83.8788 106.893C84.1912 106.066 83.7743 105.143 82.9477 104.831L79.9543 103.699C79.1277 103.387 78.2043 103.804 77.892 104.631Z" fill="#4AEFF7" stroke="#191816" stroke-linecap="round" stroke-linejoin="round"/>
<path d="M65.2213 103.083L62.3046 104.399C61.4991 104.763 61.1409 105.711 61.5044 106.516L62.8207 109.433C63.1842 110.238 64.1318 110.596 64.9372 110.233L67.8539 108.917C68.6594 108.553 69.0176 107.605 68.6541 106.8L67.3378 103.883C66.9743 103.078 66.0267 102.72 65.2213 103.083Z" fill="#4AEFF7" stroke="#191816" stroke-linecap="round" stroke-linejoin="round"/>
<path d="M75.8487 108.697L72.932 110.013C72.1266 110.377 71.7683 111.325 72.1318 112.13L73.4481 115.047C73.8116 115.852 74.7592 116.21 75.5647 115.847L78.4814 114.531C79.2868 114.167 79.6451 113.219 79.2816 112.414L77.9652 109.497C77.6017 108.692 76.6541 108.334 75.8487 108.697Z" fill="#4AEFF7" stroke="#191816" stroke-linecap="round" stroke-linejoin="round"/>
<path d="M82.3839 109.126L80.9636 111.994C80.5714 112.786 80.8953 113.746 81.6872 114.138L84.5547 115.558C85.3465 115.95 86.3064 115.626 86.6986 114.835L88.1189 111.967C88.5112 111.175 88.1872 110.215 87.3954 109.823L84.5278 108.403C83.736 108.011 82.7761 108.335 82.3839 109.126Z" fill="#4AEFF7" stroke="#191816" stroke-linecap="round" stroke-linejoin="round"/>
<path d="M89.8125 108.552L87.6029 110.866C86.9927 111.506 87.0162 112.518 87.6554 113.129L89.97 115.338C90.6092 115.948 91.622 115.925 92.2322 115.286L94.4418 112.971C95.0519 112.332 95.0284 111.319 94.3892 110.709L92.0746 108.499C91.4354 107.889 90.4226 107.913 89.8125 108.552Z" fill="#4AEFF7" stroke="#191816" stroke-linecap="round" stroke-linejoin="round"/>
<path d="M92.485 102.731L91.5376 105.788C91.276 106.632 91.7482 107.528 92.5922 107.79L95.6488 108.737C96.4929 108.999 97.3892 108.526 97.6508 107.682L98.5981 104.626C98.8597 103.782 98.3875 102.885 97.5435 102.624L94.4869 101.677C93.6429 101.415 92.7466 101.887 92.485 102.731Z" fill="#4AEFF7" stroke="#191816" stroke-linecap="round" stroke-linejoin="round"/>
<path d="M55.1999 65.04V48.528H47.1999V65.04C43.2113 66.0178 39.7189 68.4228 37.3828 71.8004C35.0467 75.178 34.0287 79.2943 34.5212 83.3714C35.0136 87.4485 36.9824 91.2041 40.0555 93.9284C43.1286 96.6526 47.0932 98.1569 51.1999 98.1569C55.3067 98.1569 59.2712 96.6526 62.3443 93.9284C65.4175 91.2041 67.3863 87.4485 67.8787 83.3714C68.3712 79.2943 67.3532 75.178 65.0171 71.8004C62.681 68.4228 59.1886 66.0178 55.1999 65.04Z" fill="#00B8F0"/>
<path d="M60.4157 67.312C58.8246 66.2531 57.0588 65.4839 55.1997 65.04V48.528H47.1997V65.04C44.5878 65.6762 42.1672 66.931 40.1418 68.6987C38.1165 70.4665 36.5459 72.6952 35.5624 75.1971C34.5789 77.699 34.2113 80.4007 34.4907 83.0744C34.7701 85.7481 35.6883 88.3155 37.1677 90.56L60.4157 67.312Z" fill="#4ACFFF"/>
<path d="M67.9999 81.328C67.9999 85.7836 66.2299 90.0568 63.0793 93.2074C59.9287 96.358 55.6555 98.128 51.1999 98.128C46.7443 98.128 42.4711 96.358 39.3205 93.2074C36.1699 90.0568 34.3999 85.7836 34.3999 81.328C34.3999 81.328 39.1999 84.528 43.1999 84.528C47.1999 84.528 51.9999 78.928 57.5999 78.928C61.1951 79.0011 64.7362 79.8183 67.9999 81.328Z" fill="#00DFEB"/>
<path d="M43.1999 84.528C39.1999 84.528 34.3999 81.328 34.3999 81.328C34.3945 84.6106 35.3574 87.8219 37.1679 90.56L43.1999 84.528Z" fill="#4AEFF7"/>
<path d="M45.6001 48.528H56.8001" stroke="#191816" stroke-linecap="round" stroke-linejoin="round"/>
<path d="M55.1999 65.04V48.528H47.1999V65.04C43.2113 66.0178 39.7189 68.4228 37.3828 71.8004C35.0467 75.178 34.0287 79.2943 34.5212 83.3714C35.0136 87.4485 36.9824 91.2041 40.0555 93.9284C43.1286 96.6526 47.0932 98.1569 51.1999 98.1569C55.3067 98.1569 59.2712 96.6526 62.3443 93.9284C65.4175 91.2041 67.3863 87.4485 67.8787 83.3714C68.3712 79.2943 67.3532 75.178 65.0171 71.8004C62.681 68.4228 59.1886 66.0178 55.1999 65.04V65.04Z" stroke="#191816" stroke-linecap="round" stroke-linejoin="round"/>
<path d="M58.7676 35.008C58.0552 34.6429 57.2439 34.5179 56.4546 34.6516C55.6653 34.7853 54.9404 35.1706 54.388 35.75C53.8356 36.3294 53.4853 37.0718 53.3894 37.8666C53.2934 38.6613 53.457 39.4658 53.8556 40.16C53.5772 40.2514 53.3196 40.3968 53.0973 40.5877C52.8751 40.7787 52.6927 41.0116 52.5604 41.2731C52.2934 41.8012 52.2471 42.4138 52.4316 42.976C52.6162 43.5383 53.0166 44.0042 53.5447 44.2712C53.8062 44.4035 54.0912 44.4829 54.3834 44.505C54.6756 44.5271 54.9692 44.4914 55.2476 44.4C55.743 44.2393 56.1656 43.9087 56.4408 43.4666C56.716 43.0246 56.8261 42.4994 56.7516 41.984C57.6136 42.0773 58.481 41.8659 59.2034 41.3865C59.9259 40.9071 60.4577 40.1899 60.7066 39.3594C60.9556 38.529 60.906 37.6375 60.5664 36.8398C60.2269 36.042 59.6188 35.3883 58.8476 34.992L58.7676 35.008Z" fill="#009FD9" stroke="#191816" stroke-linejoin="round"/>
<path d="M67.1998 32.528C68.5253 32.528 69.5998 31.4535 69.5998 30.128C69.5998 28.8025 68.5253 27.728 67.1998 27.728C65.8743 27.728 64.7998 28.8025 64.7998 30.128C64.7998 31.4535 65.8743 32.528 67.1998 32.528Z" fill="#009FD9" stroke="#191816" stroke-miterlimit="10"/>
<path d="M60.7999 25.328C62.1254 25.328 63.1999 24.2535 63.1999 22.928C63.1999 21.6025 62.1254 20.528 60.7999 20.528C59.4744 20.528 58.3999 21.6025 58.3999 22.928C58.3999 24.2535 59.4744 25.328 60.7999 25.328Z" fill="#009FD9" stroke="#191816" stroke-miterlimit="10"/>
<path d="M55.2 58.128H45.6C45.1757 58.128 44.7687 57.9594 44.4686 57.6594C44.1686 57.3593 44 56.9524 44 56.528C44 56.1037 44.1686 55.6967 44.4686 55.3966C44.7687 55.0966 45.1757 54.928 45.6 54.928H55.2C55.6243 54.928 56.0313 55.0966 56.3314 55.3966C56.6314 55.6967 56.8 56.1037 56.8 56.528C56.8 56.9524 56.6314 57.3593 56.3314 57.6594C56.0313 57.9594 55.6243 58.128 55.2 58.128Z" fill="#DAEDF7" stroke="#191816" stroke-linecap="round" stroke-linejoin="round"/>
<path d="M44 56.528H28" stroke="#191816" stroke-linecap="round" stroke-linejoin="round"/>
<path d="M24.7998 93.328H27.9998V46.928C27.9998 46.5037 27.8312 46.0967 27.5312 45.7966C27.2311 45.4966 26.8242 45.328 26.3998 45.328C25.9755 45.328 25.5685 45.4966 25.2684 45.7966C24.9684 46.0967 24.7998 46.5037 24.7998 46.928V93.328Z" fill="#DAEDF7" stroke="#191816" stroke-linecap="round" stroke-linejoin="round"/>
<path d="M21.6 93.328H31.2C31.6243 93.328 32.0313 93.4966 32.3314 93.7966C32.6314 94.0967 32.8 94.5037 32.8 94.928V98.128H20V94.928C20 94.5037 20.1686 94.0967 20.4686 93.7966C20.7687 93.4966 21.1757 93.328 21.6 93.328Z" fill="#DAEDF7" stroke="#191816" stroke-linecap="round" stroke-linejoin="round"/>
</svg>
