<svg width="16" height="16" viewBox="0 0 16 16" fill="none" xmlns="http://www.w3.org/2000/svg">
<path d="M9.15282 0.717961C9.04701 0.502535 8.88295 0.321076 8.67924 0.194172C8.47553 0.0672682 8.24032 0 8.00032 0C7.76031 0 7.52511 0.0672682 7.3214 0.194172C7.11769 0.321076 6.95362 0.502535 6.84782 0.717961L0.110818 14.441C0.0298038 14.6059 -0.00786419 14.7888 0.00136583 14.9723C0.0105958 15.1558 0.0664197 15.334 0.163573 15.49C0.260727 15.646 0.39601 15.7746 0.556664 15.8639C0.717318 15.9531 0.89805 15.9999 1.08182 16H14.9168C15.1006 15.9999 15.2813 15.9531 15.442 15.8639C15.6026 15.7746 15.7379 15.646 15.8351 15.49C15.9322 15.334 15.988 15.1558 15.9973 14.9723C16.0065 14.7888 15.9688 14.6059 15.8878 14.441L9.15282 0.717961Z" fill="#8793A0"/>
<path d="M8.00488 12.5729C7.95544 12.5729 7.9071 12.5876 7.86599 12.6151C7.82488 12.6425 7.79283 12.6816 7.77391 12.7273C7.75499 12.7729 7.75004 12.8232 7.75969 12.8717C7.76933 12.9202 7.79314 12.9648 7.82811 12.9997C7.86307 13.0347 7.90761 13.0585 7.95611 13.0681C8.00461 13.0778 8.05487 13.0728 8.10055 13.0539C8.14624 13.035 8.18528 13.0029 8.21275 12.9618C8.24022 12.9207 8.25488 12.8724 8.25488 12.8229C8.25488 12.7566 8.22854 12.693 8.18166 12.6462C8.13478 12.5993 8.07119 12.5729 8.00488 12.5729Z" fill="white"/>
<path fill-rule="evenodd" clip-rule="evenodd" d="M7.58821 12.1993C7.71154 12.1169 7.85655 12.0729 8.00488 12.0729C8.20379 12.0729 8.39456 12.152 8.53521 12.2926C8.67587 12.4333 8.75488 12.624 8.75488 12.8229C8.75488 12.9713 8.7109 13.1163 8.62849 13.2396C8.54607 13.363 8.42894 13.4591 8.2919 13.5158C8.15485 13.5726 8.00405 13.5875 7.85857 13.5585C7.71308 13.5296 7.57944 13.4582 7.47455 13.3533C7.36966 13.2484 7.29823 13.1147 7.26929 12.9693C7.24036 12.8238 7.25521 12.673 7.31197 12.5359C7.36874 12.3989 7.46487 12.2817 7.58821 12.1993ZM8.10055 13.0539C8.11561 13.0477 8.13009 13.0399 8.14378 13.0308C8.17121 13.0125 8.1946 12.989 8.21275 12.9618C8.22181 12.9483 8.22956 12.9338 8.23585 12.9186C8.24848 12.8881 8.25488 12.8556 8.25488 12.8229C8.25488 12.8066 8.25329 12.7903 8.25008 12.7742C8.24043 12.7257 8.21662 12.6811 8.18166 12.6462C8.1467 12.6112 8.10215 12.5874 8.05366 12.5777C8.03752 12.5745 8.02118 12.5729 8.00488 12.5729C7.97221 12.5729 7.93969 12.5793 7.90921 12.592C7.89401 12.5983 7.87954 12.606 7.86599 12.6151C7.83882 12.6332 7.81534 12.6566 7.79702 12.684C7.78787 12.6977 7.78015 12.7122 7.77391 12.7273C7.76141 12.7575 7.75488 12.7899 7.75488 12.8229C7.75488 12.8394 7.75651 12.8558 7.75969 12.8717C7.76933 12.9202 7.79314 12.9648 7.82811 12.9997C7.86307 13.0347 7.90761 13.0585 7.95611 13.0681C7.97206 13.0713 7.98839 13.0729 8.00488 13.0729C8.03787 13.0729 8.07037 13.0664 8.10055 13.0539Z" fill="white"/>
<path d="M8.00488 10.5729V5.57294" stroke="white" stroke-linecap="round"/>
</svg>
