<svg preserveAspectRatio="xMinYMin meet" viewBox="0 0 16 18" fill="none" xmlns="http://www.w3.org/2000/svg">
<path d="M4.5 12.4993L11.5 5.49933" stroke="#808C9D" stroke-linecap="round" stroke-linejoin="round"/>
<path d="M5.15675 9.01401C4.30862 8.96514 3.47993 9.28042 2.87875 9.88067L1.37875 11.3807C0.620874 12.1386 0.324888 13.2432 0.602291 14.2785C0.879695 15.3138 1.68834 16.1224 2.72362 16.3998C3.75891 16.6772 4.86354 16.3812 5.62142 15.6233L7.12142 14.1233C7.72167 13.5222 8.03695 12.6935 7.98809 11.8453" stroke="#808C9D" stroke-linecap="round" stroke-linejoin="round"/>
<path d="M10.8433 8.984C11.6914 9.03278 12.5201 8.71751 13.1213 8.11733L14.6213 6.61733C15.3792 5.85945 15.6752 4.75482 15.3978 3.71954C15.1204 2.68425 14.3117 1.87561 13.2765 1.5982C12.2412 1.3208 11.1365 1.61678 10.3787 2.37466L8.87866 3.87466C8.27985 4.47655 7.96585 5.30508 8.01533 6.15266" stroke="#808C9D" stroke-linecap="round" stroke-linejoin="round"/>
</svg>
