<svg width="16" height="16" viewBox="0 0 16 16" fill="none" xmlns="http://www.w3.org/2000/svg">
    <path class="svg-stroke" d="M11 4.50067C11 2.84382 9.65685 1.50067 8 1.50067C6.34315 1.50067 5 2.84382 5 4.50067M0.5 8.50067H7M9 8.50067H15.5M2 14.5007H14C14.8284 14.5007 15.5 13.8291 15.5 13.0007V6.00067C15.5 5.17224 14.8284 4.50067 14 4.50067H2C1.17157 4.50067 0.5 5.17224 0.5 6.00067V13.0007C0.5 13.8291 1.17157 14.5007 2 14.5007ZM8 10C7.44772 10 7 9.55228 7 9V8C7 7.44771 7.44772 7 8 7C8.55228 7 9 7.44771 9 8V9C9 9.55228 8.55228 10 8 10Z" stroke-linecap="round" stroke-linejoin="round"/>
</svg>
