<svg width="16" height="16" viewBox="0 0 16 16" fill="none" xmlns="http://www.w3.org/2000/svg">
    <path class="svg-stroke" d="M4.5 5.5V5C4.5 3.067 6.067 1.5 8 1.5C9.933 1.5 11.5 3.067 11.5 5V5.5M4.5 5.5H11.5M4.5 5.5V12C4.5 13.933 6.067 15.5 8 15.5C9.933 15.5 11.5 13.933 11.5 12V5.5M11.0626 3.306C12.2288 2.86425 13.0001 1.74709 12.9999 0.5M4.93733 3.306C3.7711 2.86425 2.99979 1.74709 3 0.5M11.5 8.5H15.5M11.5 8.5C11.5 10.7091 13.2909 12.5 15.5 12.5M11.5 8.5C11.5 6.29086 13.2909 4.5 15.5 4.5M4.5 8.5H0.5M4.5 8.5C4.5 10.7091 2.70914 12.5 0.5 12.5M4.5 8.5C4.5 6.29086 2.70914 4.5 0.5 4.5" stroke-linecap="round" stroke-linejoin="round"/>
</svg>
