<svg width="16" height="16" viewBox="0 0 16 16" fill="none" xmlns="http://www.w3.org/2000/svg">
<path class="svg-stroke" id="svg-stroke" d="M1.85526 14L14.3553 2M5.97587 12.7007C6.63108 12.9041 7.31381 13.0051 7.99987 13C10.7332 13.046 13.5052 11.1247 15.2159 9.242C15.5957 8.82026 15.5957 8.17973 15.2159 7.758C14.5961 7.07814 13.9096 6.46237 13.1665 5.92M9.60855 4.188C9.08252 4.05709 8.54192 3.99392 7.99988 4C5.31255 3.95533 2.53322 5.83466 0.785885 7.75666C0.406007 8.1784 0.406007 8.81893 0.785885 9.24066C1.31717 9.82226 1.89704 10.3575 2.51922 10.8407M5.49983 8.5C5.49965 7.8369 5.76299 7.20092 6.23186 6.73204C6.70074 6.26316 7.33673 5.99982 7.99983 6M10.4998 8.49932C10.5 9.16248 10.2367 9.79854 9.76783 10.2675C9.29897 10.7365 8.66298 11 7.99983 11" stroke-linecap="round" stroke-linejoin="round"/>
</svg>
