<svg width="16" height="16" viewBox="0 0 16 16" fill="none" xmlns="http://www.w3.org/2000/svg">
    <path class="svg-stroke" d="M0.5 12.5H15.5M0.5 9.5H15.5M0.5 6.5H15.5M0.5 3.5H15.5M5.5 15.5V3.5M10.5 15.5V3.5M1.5 15.5C1.23478 15.5 0.98043 15.3946 0.792893 15.2071C0.605357 15.0196 0.5 14.7652 0.5 14.5V1.5C0.5 1.23478 0.605357 0.98043 0.792893 0.792893C0.98043 0.605357 1.23478 0.5 1.5 0.5H14.5C14.7652 0.5 15.0196 0.605357 15.2071 0.792893C15.3946 0.98043 15.5 1.23478 15.5 1.5V14.5C15.5 14.7652 15.3946 15.0196 15.2071 15.2071C15.0196 15.3946 14.7652 15.5 14.5 15.5H1.5Z" stroke-linecap="round" stroke-linejoin="round"/>
</svg>
