<svg width="16" height="16" viewBox="0 0 16 16" fill="none" xmlns="http://www.w3.org/2000/svg">
    <path class="svg-stroke" d="M0.5 11.5007C0.501029 9.98958 1.26008 8.5798 2.52099 7.74706C3.78191 6.91431 5.3765 6.76969 6.76667 7.362M13 9.99867L10 12.9987M10 9.99867L13 12.9987M5 6.00067C6.51878 6.00067 7.75 4.76945 7.75 3.25067C7.75 1.73189 6.51878 0.500671 5 0.500671C3.48122 0.500671 2.25 1.73189 2.25 3.25067C2.25 4.76945 3.48122 6.00067 5 6.00067ZM11.5 15.4993C13.7091 15.4993 15.5 13.7085 15.5 11.4993C15.5 9.2902 13.7091 7.49934 11.5 7.49934C9.29086 7.49934 7.5 9.2902 7.5 11.4993C7.5 13.7085 9.29086 15.4993 11.5 15.4993Z"  stroke-linecap="round" stroke-linejoin="round"/>
</svg>
