<svg width="16" height="16" viewBox="0 0 16 16" fill="none" xmlns="http://www.w3.org/2000/svg">
    <path class="svg-fill" d="M13.0333 9.70667C13.013 9.87499 12.8695 10.0012 12.7 10H11.3333C11.1492 10 11 10.1492 11 10.3333V15.6667C11 15.8508 11.1492 16 11.3333 16H15.3333C15.7015 16 16 15.7015 16 15.3333V0.666667C16 0.298477 15.7015 0 15.3333 0H0.666667C0.298477 1.60941e-08 0 0.298477 0 0.666667V15.3333C-5.55952e-08 15.7015 0.298477 16 0.666667 16H8C8.1841 16 8.33334 15.8508 8.33334 15.6667V10.3333C8.33334 10.1492 8.1841 10 8 10H6.66667C6.48257 10 6.33334 9.85077 6.33334 9.66667V7.66667C6.33334 7.48258 6.48257 7.33334 6.66667 7.33334H8C8.1841 7.33334 8.33334 7.1841 8.33334 7V6.12667C8.33334 4.03167 10.0317 2.33333 12.1267 2.33333H13C13.1841 2.33333 13.3333 2.48257 13.3333 2.66667V4.66667C13.3333 4.85076 13.1841 5 13 5H12.1267C11.5044 5 11 5.50443 11 6.12667V7C11 7.1841 11.1492 7.33334 11.3333 7.33334H12.9533C13.1374 7.33201 13.2877 7.48016 13.2891 7.66425C13.2892 7.67843 13.2884 7.6926 13.2867 7.70667L13.0333 9.70667Z" />
</svg>
