<svg class="mb-icon-file-json" width="16" height="16" viewBox="0 0 16 16" fill="none" xmlns="http://www.w3.org/2000/svg">
    <path class="svg-fill" d="M1.5 16C1.10218 16 0.720636 15.8419 0.439331 15.5605C0.158026 15.2792 0 14.8978 0 14.5V1.5C0 1.10218 0.158026 0.720758 0.439331 0.439453C0.720636 0.158149 1.10218 0 1.5 0H11V3C11 3.53043 11.2107 4.03923 11.5858 4.41431C11.9609 4.78938 12.4696 5 13 5H16V14.5C16 14.8978 15.842 15.2792 15.5607 15.5605C15.2794 15.8419 14.8978 16 14.5 16H1.5ZM13 4C12.7348 4 12.4804 3.89457 12.2928 3.70703C12.1053 3.51949 12 3.26522 12 3V0L16 4H13Z"/>
    <path class="svg-stroke" d="M3.50195 7.5V11.5C3.50195 11.7652 3.3966 12.0196 3.20906 12.2071C3.02152 12.3946 2.76717 12.5 2.50195 12.5H1.50195M7.00195 7.5H6.00195C5.73674 7.5 5.48238 7.60536 5.29485 7.79289C5.10731 7.98043 5.00195 8.23478 5.00195 8.5C5.00195 10 7.00195 10 7.00195 11.5C7.00195 11.7652 6.8966 12.0196 6.70906 12.2071C6.52152 12.3946 6.26717 12.5 6.00195 12.5H5.00195M12.501 12.5V7.5L14.501 12.5V7.5M10.502 11.5C10.502 11.7652 10.3966 12.0196 10.2091 12.2071C10.0215 12.3946 9.76717 12.5 9.50195 12.5C9.23674 12.5 8.98238 12.3946 8.79485 12.2071C8.60731 12.0196 8.50195 11.7652 8.50195 11.5V8.5C8.50195 8.23478 8.60731 7.98043 8.79485 7.79289C8.98238 7.60536 9.23674 7.5 9.50195 7.5C9.76717 7.5 10.0215 7.60536 10.2091 7.79289C10.3966 7.98043 10.502 8.23478 10.502 8.5V11.5Z" stroke-linecap="round" stroke-linejoin="round"/>
</svg>
