<svg class="mb-icon-file-other" width="16" height="16" viewBox="0 0 16 16" fill="none" xmlns="http://www.w3.org/2000/svg">
    <path class="svg-fill" d="M1.5 16C1.10218 16 0.720636 15.8419 0.439331 15.5605C0.158026 15.2792 0 14.8978 0 14.5V1.5C0 1.10218 0.158026 0.720758 0.439331 0.439453C0.720636 0.158149 1.10218 0 1.5 0H11V3C11 3.53043 11.2107 4.03923 11.5858 4.41431C11.9609 4.78938 12.4696 5 13 5H16V14.5C16 14.8978 15.842 15.2792 15.5607 15.5605C15.2794 15.8419 14.8978 16 14.5 16H1.5ZM13 4C12.7348 4 12.4804 3.89457 12.2928 3.70703C12.1053 3.51949 12 3.26522 12 3V0L16 4H13Z"/>
    <path class="svg-stroke" d="M10.001 11.999V7.99902C10.001 7.20337 9.68491 6.44031 9.1223 5.8777C8.55969 5.31509 7.79663 4.99902 7.00098 4.99902C6.20533 4.99902 5.44227 5.31509 4.87966 5.8777C4.31705 6.44031 4.00098 7.20337 4.00098 7.99902V10.999C4.00098 11.5295 4.21169 12.0382 4.58676 12.4132C4.96184 12.7883 5.47054 12.999 6.00098 12.999C6.53141 12.999 7.04012 12.7883 7.41519 12.4132C7.79026 12.0382 8.00098 11.5295 8.00098 10.999V7.99902C8.00098 7.73381 7.89562 7.47945 7.70808 7.29192C7.52055 7.10438 7.26619 6.99902 7.00098 6.99902C6.73576 6.99902 6.48141 7.10438 6.29387 7.29192C6.10633 7.47945 6.00098 7.73381 6.00098 7.99902V10.999" stroke-linecap="round" stroke-linejoin="round"/>
</svg>
