<svg width="16" height="16" viewBox="0 0 16 16" fill="none" xmlns="http://www.w3.org/2000/svg">
    <path class="svg-stroke" id="svg-stroke" d="M5.75 10L11.75 4M0.75 15.5L2.47333 13.7767M10.75 15.5L9.02665 13.7767M5.75 12.5C7.13071 12.5 8.25 11.3807 8.25 10C8.25 8.61929 7.13071 7.5 5.75 7.5C4.36929 7.5 3.25 8.61929 3.25 10C3.25 11.3807 4.36929 12.5 5.75 12.5ZM5.75 15C8.51142 15 10.75 12.7614 10.75 10C10.75 7.23858 8.51142 5 5.75 5C2.98858 5 0.75 7.23858 0.75 10C0.75 12.7614 2.98858 15 5.75 15ZM13.1287 5.45C12.9062 5.67279 12.5918 5.77777 12.28 5.73333L10.3 5.45067L10.0174 3.47067C9.97276 3.15906 10.0775 2.84463 10.3 2.622L12.4214 0.5L13.0254 2.72467L15.25 3.32867L13.1287 5.45Z" stroke-linecap="round" stroke-linejoin="round"/>
</svg>
