<svg width="16" height="16" viewBox="0 0 16 16" fill="none" xmlns="http://www.w3.org/2000/svg">
    <path class="svg-stroke" id="svg-stroke" d="M2 3.5V14.6C1.99947 14.8386 2.09394 15.0677 2.26255 15.2365C2.43116 15.4054 2.66004 15.5002 2.89867 15.5H13.1013C13.34 15.5002 13.5688 15.4054 13.7375 15.2365C13.9061 15.0677 14.0005 14.8386 14 14.6V3.5M2 3.5H14M2 3.5L2 1.5C2 0.947715 2.44772 0.5 3 0.5H13C13.5523 0.5 14 0.947715 14 1.5L14 3.5M8 3.5V15.5M2 9.5H14M5 5.5V7.5M4 6.5H6M6 11.5L4 13.5M4 11.5L6 13.5M10 6.5H12M10 11.5H12M10 13.5H12" stroke-linecap="round" stroke-linejoin="round"/>
</svg>
