<svg width="16" height="16" viewBox="0 0 16 16" fill="none" xmlns="http://www.w3.org/2000/svg">
    <path class="svg-stroke" d="M11.5 5.81275C11.69 5.3362 12.0491 4.94643 12.5085 4.71803C12.9679 4.48962 13.4953 4.43861 13.99 4.57475C14.2302 4.6097 14.4604 4.6945 14.6659 4.82372C14.8713 4.95294 15.0475 5.12372 15.183 5.32507C15.3185 5.52642 15.4104 5.7539 15.4528 5.99289C15.4951 6.23188 15.487 6.47708 15.429 6.71275C15.2805 7.10842 15.0109 7.44711 14.6586 7.68054C14.3063 7.91397 13.8893 8.03023 13.467 8.01275C13.968 7.97794 14.4625 8.14204 14.8433 8.46946C15.224 8.79688 15.4604 9.26122 15.501 9.76175C15.4611 10.2628 15.2251 10.7277 14.8442 11.0556C14.4633 11.3835 13.9684 11.5478 13.467 11.5128C13.047 11.5303 12.632 11.4158 12.2805 11.1853C11.9289 10.9548 11.6584 10.6199 11.507 10.2278M2 4.51275V11.5128M8 4.51275V11.5128M3.5 4.51275H0.5M9.5 4.51275H6.5M8 8.01275H2.5M3.5 11.5128H0.5M9.5 11.5128H6.5" stroke-linecap="round" stroke-linejoin="round"/>
</svg>
