<svg width="16" height="16" viewBox="0 0 16 16" fill="none" xmlns="http://www.w3.org/2000/svg">
    <path class="svg-stroke" d="M5.50007 12.5H1.63141M13.5 5.5V3.5C13.5 2.94772 13.0523 2.5 12.5 2.5H5.5V1.5C5.5 0.947715 5.05228 0.5 4.5 0.5H1.5C0.947715 0.5 0.5 0.947715 0.5 1.5V11.3667C0.507778 11.9296 0.927539 12.4014 1.48569 12.4747C2.04384 12.548 2.57118 12.2005 2.724 11.6587L4.29133 6.22267C4.41494 5.79447 4.80699 5.49975 5.25267 5.5H14.5C14.8107 5.49989 15.1038 5.64419 15.2931 5.89049C15.4825 6.13679 15.5466 6.45712 15.4667 6.75733M11.5 12V10M11.5 13.5C11.6381 13.5 11.75 13.6119 11.75 13.75C11.75 13.8881 11.6381 14 11.5 14C11.3619 14 11.25 13.8881 11.25 13.75C11.25 13.6119 11.3619 13.5 11.5 13.5ZM15.3753 13.788C15.5588 14.1547 15.5393 14.5903 15.3238 14.9391C15.1082 15.2879 14.7273 15.5002 14.3173 15.5H8.68263C8.27258 15.5002 7.89173 15.2879 7.67617 14.9391C7.4606 14.5903 7.4411 14.1547 7.62463 13.788L10.442 8.15401C10.6422 7.75313 11.0518 7.49987 11.5 7.49987C11.9481 7.49987 12.3577 7.75313 12.558 8.15401L15.3753 13.788Z" stroke-linecap="round" stroke-linejoin="round"/>
    <path class="svg-fill" d="M11.9429 13.7325C11.9429 14.0086 11.719 14.2325 11.4429 14.2325C11.1667 14.2325 10.9429 14.0086 10.9429 13.7325C10.9429 13.4563 11.1667 13.2325 11.4429 13.2325C11.719 13.2325 11.9429 13.4563 11.9429 13.7325Z" />
</svg>
