<svg width="16" height="17" viewBox="0 0 16 17" fill="none" xmlns="http://www.w3.org/2000/svg">
    <path class="svg-stroke" d="M11.25 16.4987H2.298C1.99671 16.4998 1.75147 16.2566 1.75 15.9553V2.15133C1.75071 1.97752 1.82043 1.81112 1.94383 1.68872C2.06723 1.56632 2.23419 1.49795 2.408 1.49866H13.592C13.7658 1.49795 13.9328 1.56632 14.0562 1.68872C14.1796 1.81112 14.2493 1.97752 14.25 2.15133V4M11.25 16.4987L13.25 16.4987C13.802 16.4987 14.25 16.1967 14.25 15.8233V12.7827M11.25 16.4987V14.134M14.25 4L12.082 4.97533C11.6412 5.15759 11.3264 5.5552 11.25 6.02599V9.742M14.25 4V8.39066M14.25 12.7827L11.25 14.134M14.25 12.7827V8.39066M11.25 14.134V9.742M11.25 9.742L14.25 8.39066" stroke-linecap="round" stroke-linejoin="round"/>
</svg>
