<svg width="9" height="8" viewBox="0 0 9 8" fill="none" xmlns="http://www.w3.org/2000/svg">
<path class="svg-fill" d="M1.50488 7.5L1.15133 7.85355C1.34659 8.04882 1.66317 8.04882 1.85844 7.85355L1.50488 7.5ZM2.00488 0.5C2.00488 0.223858 1.78103 0 1.50488 0C1.22874 0 1.00488 0.223858 1.00488 0.5H2.00488ZM1.00488 6.5C1.00488 6.77614 1.22874 7 1.50488 7C1.78103 7 2.00488 6.77614 2.00488 6.5H1.00488ZM2.85844 6.85355C3.0537 6.65829 3.0537 6.34171 2.85844 6.14645C2.66317 5.95118 2.34659 5.95118 2.15133 6.14645L2.85844 6.85355ZM0.858436 6.14645C0.663174 5.95118 0.346592 5.95118 0.151329 6.14645C-0.0439327 6.34171 -0.0439327 6.65829 0.151329 6.85355L0.858436 6.14645ZM4.50488 0C4.22874 0 4.00488 0.223858 4.00488 0.5C4.00488 0.776142 4.22874 1 4.50488 1V0ZM7.50488 1C7.78103 1 8.00488 0.776142 8.00488 0.5C8.00488 0.223858 7.78103 0 7.50488 0V1ZM4.50488 2C4.22874 2 4.00488 2.22386 4.00488 2.5C4.00488 2.77614 4.22874 3 4.50488 3V2ZM6.50488 3C6.78103 3 7.00488 2.77614 7.00488 2.5C7.00488 2.22386 6.78103 2 6.50488 2V3ZM4.50488 4C4.22874 4 4.00488 4.22386 4.00488 4.5C4.00488 4.77614 4.22874 5 4.50488 5V4ZM5.50488 5C5.78103 5 6.00488 4.77614 6.00488 4.5C6.00488 4.22386 5.78103 4 5.50488 4V5ZM4.50488 6C4.22874 6 4.00488 6.22386 4.00488 6.5C4.00488 6.77614 4.22874 7 4.50488 7V6ZM4.55488 7C4.83103 7 5.05488 6.77614 5.05488 6.5C5.05488 6.22386 4.83103 6 4.55488 6V7ZM1.00488 0.5V6.5H2.00488V0.5H1.00488ZM2.15133 6.14645C2.14986 6.14791 2.1484 6.14937 2.14694 6.15084C2.14548 6.1523 2.14402 6.15376 2.14256 6.15521C2.14111 6.15667 2.13965 6.15813 2.1382 6.15958C2.13674 6.16103 2.13529 6.16248 2.13384 6.16393C2.13239 6.16538 2.13095 6.16683 2.1295 6.16828C2.12805 6.16972 2.12661 6.17117 2.12517 6.17261C2.12373 6.17405 2.12229 6.17549 2.12085 6.17693C2.11941 6.17837 2.11797 6.1798 2.11654 6.18124C2.1151 6.18267 2.11367 6.1841 2.11224 6.18554C2.11081 6.18697 2.10938 6.18839 2.10795 6.18982C2.10653 6.19125 2.1051 6.19267 2.10368 6.1941C2.10226 6.19552 2.10084 6.19694 2.09942 6.19836C2.098 6.19978 2.09658 6.2012 2.09516 6.20261C2.09375 6.20403 2.09233 6.20544 2.09092 6.20685C2.08951 6.20827 2.0881 6.20968 2.08669 6.21108C2.08528 6.21249 2.08388 6.2139 2.08247 6.2153C2.08107 6.21671 2.07967 6.21811 2.07827 6.21951C2.07687 6.22091 2.07547 6.22231 2.07407 6.22371C2.07267 6.2251 2.07128 6.2265 2.06989 6.22789C2.06849 6.22928 2.0671 6.23067 2.06571 6.23206C2.06432 6.23345 2.06294 6.23484 2.06155 6.23623C2.06016 6.23761 2.05878 6.239 2.0574 6.24038C2.05602 6.24176 2.05464 6.24314 2.05326 6.24452C2.05188 6.24589 2.05051 6.24727 2.04913 6.24865C2.04776 6.25002 2.04638 6.25139 2.04501 6.25276C2.04364 6.25413 2.04227 6.2555 2.04091 6.25687C2.03954 6.25824 2.03817 6.2596 2.03681 6.26096C2.03545 6.26233 2.03409 6.26369 2.03273 6.26505C2.03137 6.26641 2.03001 6.26777 2.02865 6.26912C2.0273 6.27048 2.02595 6.27183 2.02459 6.27318C2.02324 6.27454 2.02189 6.27589 2.02054 6.27723C2.01919 6.27858 2.01785 6.27993 2.0165 6.28127C2.01516 6.28262 2.01382 6.28396 2.01247 6.2853C2.01113 6.28664 2.00979 6.28798 2.00846 6.28932C2.00712 6.29066 2.00578 6.29199 2.00445 6.29333C2.00312 6.29466 2.00179 6.29599 2.00046 6.29732C1.99913 6.29865 1.9978 6.29998 1.99647 6.30131C1.99514 6.30263 1.99382 6.30396 1.9925 6.30528C1.99118 6.3066 1.98985 6.30792 1.98854 6.30924C1.98722 6.31056 1.9859 6.31188 1.98458 6.31319C1.98327 6.31451 1.98196 6.31582 1.98064 6.31713C1.97933 6.31844 1.97802 6.31975 1.97671 6.32106C1.97541 6.32237 1.9741 6.32368 1.9728 6.32498C1.97149 6.32628 1.97019 6.32759 1.96889 6.32889C1.96759 6.33019 1.96629 6.33149 1.96499 6.33278C1.9637 6.33408 1.9624 6.33538 1.96111 6.33667C1.95981 6.33796 1.95852 6.33925 1.95723 6.34054C1.95594 6.34183 1.95466 6.34312 1.95337 6.34441C1.95208 6.34569 1.9508 6.34698 1.94952 6.34826C1.94823 6.34954 1.94695 6.35082 1.94568 6.3521C1.9444 6.35338 1.94312 6.35466 1.94184 6.35593C1.94057 6.35721 1.9393 6.35848 1.93802 6.35975C1.93675 6.36102 1.93548 6.36229 1.93422 6.36356C1.93295 6.36483 1.93168 6.3661 1.93042 6.36736C1.92915 6.36862 1.92789 6.36989 1.92663 6.37115C1.92537 6.37241 1.92411 6.37367 1.92285 6.37492C1.9216 6.37618 1.92034 6.37744 1.91909 6.37869C1.91783 6.37994 1.91658 6.38119 1.91533 6.38244C1.91408 6.38369 1.91283 6.38494 1.91159 6.38619C1.91034 6.38743 1.9091 6.38868 1.90785 6.38992C1.90661 6.39116 1.90537 6.39241 1.90413 6.39364C1.90289 6.39488 1.90166 6.39612 1.90042 6.39736C1.89918 6.39859 1.89795 6.39983 1.89672 6.40106C1.89549 6.40229 1.89426 6.40352 1.89303 6.40475C1.8918 6.40598 1.89057 6.4072 1.88935 6.40843C1.88812 6.40965 1.8869 6.41087 1.88568 6.4121C1.88446 6.41332 1.88324 6.41454 1.88202 6.41575C1.8808 6.41697 1.87959 6.41819 1.87837 6.4194C1.87716 6.42062 1.87595 6.42183 1.87474 6.42304C1.87353 6.42425 1.87232 6.42546 1.87111 6.42666C1.8699 6.42787 1.8687 6.42908 1.8675 6.43028C1.86629 6.43148 1.86509 6.43269 1.86389 6.43389C1.86269 6.43508 1.86149 6.43628 1.8603 6.43748C1.8591 6.43868 1.85791 6.43987 1.85671 6.44106C1.85552 6.44226 1.85433 6.44345 1.85314 6.44464C1.85195 6.44583 1.85076 6.44701 1.84958 6.4482C1.84839 6.44938 1.84721 6.45057 1.84603 6.45175C1.84484 6.45293 1.84366 6.45411 1.84248 6.45529C1.84131 6.45647 1.84013 6.45765 1.83895 6.45882C1.83778 6.46 1.83661 6.46117 1.83543 6.46234C1.83426 6.46351 1.83309 6.46468 1.83192 6.46585C1.83076 6.46702 1.82959 6.46819 1.82843 6.46935C1.82726 6.47051 1.8261 6.47168 1.82494 6.47284C1.82378 6.474 1.82262 6.47516 1.82146 6.47632C1.8203 6.47747 1.81915 6.47863 1.81799 6.47978C1.81684 6.48094 1.81569 6.48209 1.81454 6.48324C1.81338 6.48439 1.81224 6.48554 1.81109 6.48669C1.80994 6.48783 1.8088 6.48898 1.80765 6.49012C1.80651 6.49127 1.80537 6.49241 1.80423 6.49355C1.80309 6.49469 1.80195 6.49583 1.80081 6.49696C1.79968 6.4981 1.79854 6.49924 1.79741 6.50037C1.79627 6.5015 1.79514 6.50263 1.79401 6.50376C1.79288 6.50489 1.79176 6.50602 1.79063 6.50715C1.7895 6.50827 1.78838 6.5094 1.78726 6.51052C1.78613 6.51164 1.78501 6.51276 1.78389 6.51388C1.78277 6.515 1.78166 6.51612 1.78054 6.51724C1.77943 6.51835 1.77831 6.51946 1.7772 6.52058C1.77609 6.52169 1.77498 6.5228 1.77387 6.52391C1.77276 6.52502 1.77165 6.52613 1.77055 6.52723C1.76944 6.52834 1.76834 6.52944 1.76723 6.53054C1.76613 6.53164 1.76503 6.53274 1.76393 6.53384C1.76283 6.53494 1.76174 6.53604 1.76064 6.53713C1.75955 6.53823 1.75845 6.53932 1.75736 6.54041C1.75627 6.54151 1.75518 6.5426 1.75409 6.54368C1.753 6.54477 1.75192 6.54586 1.75083 6.54694C1.74975 6.54803 1.74866 6.54911 1.74758 6.55019C1.7465 6.55127 1.74542 6.55235 1.74434 6.55343C1.74327 6.55451 1.74219 6.55559 1.74112 6.55666C1.74004 6.55773 1.73897 6.55881 1.7379 6.55988C1.73683 6.56095 1.73576 6.56202 1.73469 6.56309C1.73362 6.56416 1.73255 6.56522 1.73149 6.56629C1.73043 6.56735 1.72936 6.56841 1.7283 6.56947C1.72724 6.57053 1.72618 6.57159 1.72512 6.57265C1.72407 6.57371 1.72301 6.57476 1.72196 6.57582C1.7209 6.57687 1.71985 6.57793 1.7188 6.57898C1.71775 6.58003 1.7167 6.58108 1.71565 6.58212C1.7146 6.58317 1.71356 6.58422 1.71252 6.58526C1.71147 6.58631 1.71043 6.58735 1.70939 6.58839C1.70835 6.58943 1.70731 6.59047 1.70627 6.5915C1.70523 6.59254 1.7042 6.59358 1.70316 6.59461C1.70213 6.59565 1.7011 6.59668 1.70007 6.59771C1.69904 6.59874 1.69801 6.59977 1.69698 6.60079C1.69595 6.60182 1.69493 6.60285 1.6939 6.60387C1.69288 6.6049 1.69186 6.60592 1.69084 6.60694C1.68982 6.60796 1.6888 6.60898 1.68778 6.60999C1.68676 6.61101 1.68575 6.61203 1.68474 6.61304C1.68372 6.61405 1.68271 6.61507 1.6817 6.61608C1.68069 6.61709 1.67968 6.6181 1.67867 6.6191C1.67767 6.62011 1.67666 6.62112 1.67566 6.62212C1.67465 6.62312 1.67365 6.62413 1.67265 6.62513C1.67165 6.62613 1.67065 6.62712 1.66965 6.62812C1.66866 6.62912 1.66766 6.63011 1.66667 6.63111C1.66567 6.6321 1.66468 6.63309 1.66369 6.63408C1.6627 6.63507 1.66171 6.63606 1.66073 6.63705C1.65974 6.63804 1.65875 6.63902 1.65777 6.64001C1.65679 6.64099 1.6558 6.64197 1.65482 6.64295C1.65384 6.64393 1.65286 6.64491 1.65189 6.64589C1.65091 6.64687 1.64993 6.64784 1.64896 6.64882C1.64799 6.64979 1.64701 6.65076 1.64604 6.65173C1.64507 6.6527 1.6441 6.65367 1.64314 6.65464C1.64217 6.65561 1.6412 6.65657 1.64024 6.65754C1.63928 6.6585 1.63831 6.65946 1.63735 6.66042C1.63639 6.66138 1.63543 6.66234 1.63447 6.6633C1.63352 6.66426 1.63256 6.66521 1.63161 6.66617C1.63065 6.66712 1.6297 6.66808 1.62875 6.66903C1.6278 6.66998 1.62685 6.67093 1.6259 6.67187C1.62495 6.67282 1.62401 6.67377 1.62306 6.67471C1.62212 6.67566 1.62118 6.6766 1.62024 6.67754C1.6193 6.67848 1.61836 6.67942 1.61742 6.68036C1.61648 6.6813 1.61554 6.68223 1.61461 6.68317C1.61367 6.6841 1.61274 6.68503 1.61181 6.68597C1.61088 6.6869 1.60995 6.68783 1.60902 6.68875C1.60809 6.68968 1.60717 6.69061 1.60624 6.69153C1.60532 6.69246 1.60439 6.69338 1.60347 6.6943C1.60255 6.69522 1.60163 6.69614 1.60071 6.69706C1.59979 6.69798 1.59888 6.6989 1.59796 6.69981C1.59705 6.70073 1.59613 6.70164 1.59522 6.70255C1.59431 6.70347 1.5934 6.70438 1.59249 6.70528C1.59158 6.70619 1.59068 6.7071 1.58977 6.70801C1.58887 6.70891 1.58796 6.70981 1.58706 6.71072C1.58616 6.71162 1.58526 6.71252 1.58436 6.71342C1.58346 6.71432 1.58256 6.71521 1.58167 6.71611C1.58077 6.71701 1.57988 6.7179 1.57898 6.71879C1.57809 6.71969 1.5772 6.72058 1.57631 6.72147C1.57542 6.72235 1.57453 6.72324 1.57365 6.72413C1.57276 6.72502 1.57188 6.7259 1.57099 6.72678C1.57011 6.72767 1.56923 6.72855 1.56835 6.72943C1.56747 6.73031 1.56659 6.73118 1.56572 6.73206C1.56484 6.73294 1.56396 6.73381 1.56309 6.73469C1.56222 6.73556 1.56135 6.73643 1.56048 6.7373C1.5596 6.73817 1.55874 6.73904 1.55787 6.73991C1.557 6.74077 1.55614 6.74164 1.55527 6.7425C1.55441 6.74337 1.55355 6.74423 1.55269 6.74509C1.55183 6.74595 1.55097 6.74681 1.55011 6.74767C1.54925 6.74852 1.5484 6.74938 1.54754 6.75023C1.54669 6.75109 1.54583 6.75194 1.54498 6.75279C1.54413 6.75364 1.54328 6.75449 1.54243 6.75534C1.54159 6.75619 1.54074 6.75704 1.5399 6.75788C1.53905 6.75873 1.53821 6.75957 1.53737 6.76041C1.53652 6.76125 1.53568 6.76209 1.53485 6.76293C1.53401 6.76377 1.53317 6.76461 1.53233 6.76544C1.5315 6.76628 1.53066 6.76711 1.52983 6.76794C1.529 6.76878 1.52817 6.76961 1.52734 6.77044C1.52651 6.77126 1.52568 6.77209 1.52486 6.77292C1.52403 6.77374 1.52321 6.77457 1.52238 6.77539C1.52156 6.77621 1.52074 6.77704 1.51992 6.77786C1.5191 6.77868 1.51828 6.77949 1.51747 6.78031C1.51665 6.78113 1.51583 6.78194 1.51502 6.78276C1.51421 6.78357 1.5134 6.78438 1.51259 6.78519C1.51177 6.786 1.51097 6.78681 1.51016 6.78762C1.50935 6.78842 1.50855 6.78923 1.50774 6.79003C1.50694 6.79084 1.50613 6.79164 1.50533 6.79244C1.50453 6.79324 1.50373 6.79404 1.50293 6.79484C1.50214 6.79564 1.50134 6.79644 1.50055 6.79723C1.49975 6.79803 1.49896 6.79882 1.49817 6.79961C1.49737 6.8004 1.49658 6.80119 1.49579 6.80198C1.49501 6.80277 1.49422 6.80356 1.49343 6.80434C1.49265 6.80513 1.49186 6.80591 1.49108 6.8067C1.4903 6.80748 1.48952 6.80826 1.48874 6.80904C1.48796 6.80982 1.48718 6.8106 1.4864 6.81137C1.48563 6.81215 1.48485 6.81292 1.48408 6.8137C1.48331 6.81447 1.48253 6.81524 1.48176 6.81601C1.48099 6.81678 1.48022 6.81755 1.47946 6.81832C1.47869 6.81909 1.47792 6.81985 1.47716 6.82062C1.4764 6.82138 1.47563 6.82214 1.47487 6.8229C1.47411 6.82366 1.47335 6.82442 1.47259 6.82518C1.47184 6.82594 1.47108 6.8267 1.47032 6.82745C1.46957 6.82821 1.46882 6.82896 1.46806 6.82971C1.46731 6.83046 1.46656 6.83121 1.46581 6.83196C1.46506 6.83271 1.46432 6.83346 1.46357 6.83421C1.46282 6.83495 1.46208 6.8357 1.46134 6.83644C1.46059 6.83718 1.45985 6.83792 1.45911 6.83866C1.45837 6.8394 1.45763 6.84014 1.4569 6.84088C1.45616 6.84161 1.45543 6.84235 1.45469 6.84308C1.45396 6.84382 1.45323 6.84455 1.4525 6.84528C1.45176 6.84601 1.45104 6.84674 1.45031 6.84747C1.44958 6.8482 1.44885 6.84892 1.44813 6.84965C1.4474 6.85037 1.44668 6.8511 1.44596 6.85182C1.44524 6.85254 1.44452 6.85326 1.4438 6.85398C1.44308 6.8547 1.44236 6.85541 1.44165 6.85613C1.44093 6.85685 1.44022 6.85756 1.4395 6.85827C1.43879 6.85899 1.43808 6.8597 1.43737 6.86041C1.43666 6.86112 1.43595 6.86182 1.43524 6.86253C1.43454 6.86324 1.43383 6.86394 1.43313 6.86465C1.43242 6.86535 1.43172 6.86605 1.43102 6.86675C1.43032 6.86746 1.42962 6.86815 1.42892 6.86885C1.42823 6.86955 1.42753 6.87025 1.42683 6.87094C1.42614 6.87164 1.42545 6.87233 1.42475 6.87302C1.42406 6.87371 1.42337 6.8744 1.42268 6.87509C1.42199 6.87578 1.42131 6.87647 1.42062 6.87716C1.41993 6.87784 1.41925 6.87853 1.41857 6.87921C1.41788 6.87989 1.4172 6.88057 1.41652 6.88125C1.41584 6.88193 1.41516 6.88261 1.41449 6.88329C1.41381 6.88397 1.41313 6.88464 1.41246 6.88532C1.41179 6.88599 1.41111 6.88666 1.41044 6.88733C1.40977 6.88801 1.4091 6.88868 1.40843 6.88934C1.40776 6.89001 1.4071 6.89068 1.40643 6.89134C1.40577 6.89201 1.4051 6.89267 1.40444 6.89334C1.40378 6.894 1.40312 6.89466 1.40246 6.89532C1.4018 6.89598 1.40114 6.89664 1.40048 6.89729C1.39983 6.89795 1.39917 6.89861 1.39852 6.89926C1.39786 6.89991 1.39721 6.90056 1.39656 6.90122C1.39591 6.90187 1.39526 6.90252 1.39461 6.90316C1.39396 6.90381 1.39332 6.90446 1.39267 6.9051C1.39203 6.90575 1.39138 6.90639 1.39074 6.90703C1.3901 6.90768 1.38946 6.90832 1.38882 6.90896C1.38818 6.90959 1.38754 6.91023 1.38691 6.91087C1.38627 6.9115 1.38564 6.91214 1.385 6.91277C1.38437 6.91341 1.38374 6.91404 1.38311 6.91467C1.38248 6.9153 1.38185 6.91593 1.38122 6.91656C1.38059 6.91718 1.37997 6.91781 1.37934 6.91843C1.37872 6.91906 1.37809 6.91968 1.37747 6.9203C1.37685 6.92093 1.37623 6.92155 1.37561 6.92216C1.37499 6.92278 1.37437 6.9234 1.37376 6.92402C1.37314 6.92463 1.37253 6.92525 1.37191 6.92586C1.3713 6.92647 1.37069 6.92709 1.37008 6.9277C1.36947 6.92831 1.36886 6.92892 1.36825 6.92952C1.36765 6.93013 1.36704 6.93074 1.36643 6.93134C1.36583 6.93195 1.36523 6.93255 1.36462 6.93315C1.36402 6.93375 1.36342 6.93435 1.36282 6.93495C1.36222 6.93555 1.36163 6.93615 1.36103 6.93674C1.36044 6.93734 1.35984 6.93794 1.35925 6.93853C1.35865 6.93912 1.35806 6.93971 1.35747 6.9403C1.35688 6.94089 1.35629 6.94148 1.3557 6.94207C1.35512 6.94266 1.35453 6.94324 1.35395 6.94383C1.35336 6.94441 1.35278 6.945 1.3522 6.94558C1.35161 6.94616 1.35103 6.94674 1.35045 6.94732C1.34988 6.9479 1.3493 6.94848 1.34872 6.94905C1.34815 6.94963 1.34757 6.95021 1.347 6.95078C1.34642 6.95135 1.34585 6.95192 1.34528 6.9525C1.34471 6.95307 1.34414 6.95364 1.34357 6.9542C1.34301 6.95477 1.34244 6.95534 1.34187 6.9559C1.34131 6.95647 1.34074 6.95703 1.34018 6.95759C1.33962 6.95816 1.33906 6.95872 1.3385 6.95928C1.33794 6.95984 1.33738 6.96039 1.33683 6.96095C1.33627 6.96151 1.33571 6.96206 1.33516 6.96262C1.33461 6.96317 1.33405 6.96372 1.3335 6.96427C1.33295 6.96482 1.3324 6.96537 1.33185 6.96592C1.33131 6.96647 1.33076 6.96702 1.33021 6.96756C1.32967 6.96811 1.32912 6.96865 1.32858 6.9692C1.32804 6.96974 1.3275 6.97028 1.32696 6.97082C1.32642 6.97136 1.32588 6.9719 1.32534 6.97244C1.3248 6.97297 1.32427 6.97351 1.32373 6.97404C1.3232 6.97458 1.32267 6.97511 1.32213 6.97564C1.3216 6.97617 1.32107 6.9767 1.32054 6.97723C1.32001 6.97776 1.31949 6.97829 1.31896 6.97882C1.31843 6.97934 1.31791 6.97987 1.31739 6.98039C1.31686 6.98091 1.31634 6.98144 1.31582 6.98196C1.3153 6.98248 1.31478 6.983 1.31426 6.98351C1.31374 6.98403 1.31323 6.98455 1.31271 6.98506C1.3122 6.98558 1.31168 6.98609 1.31117 6.98661C1.31066 6.98712 1.31015 6.98763 1.30964 6.98814C1.30913 6.98865 1.30862 6.98916 1.30811 6.98967C1.3076 6.99017 1.3071 6.99068 1.30659 6.99118C1.30609 6.99169 1.30559 6.99219 1.30509 6.99269C1.30458 6.99319 1.30408 6.99369 1.30358 6.99419C1.30309 6.99469 1.30259 6.99519 1.30209 6.99568C1.3016 6.99618 1.3011 6.99668 1.30061 6.99717C1.30011 6.99766 1.29962 6.99815 1.29913 6.99864C1.29864 6.99914 1.29815 6.99963 1.29766 7.00011C1.29717 7.0006 1.29669 7.00109 1.2962 7.00157C1.29572 7.00206 1.29523 7.00254 1.29475 7.00303C1.29427 7.00351 1.29379 7.00399 1.29331 7.00447C1.29283 7.00495 1.29235 7.00543 1.29187 7.00591C1.29139 7.00638 1.29092 7.00686 1.29044 7.00733C1.28997 7.00781 1.28949 7.00828 1.28902 7.00875C1.28855 7.00923 1.28808 7.0097 1.28761 7.01017C1.28714 7.01063 1.28667 7.0111 1.28621 7.01157C1.28574 7.01204 1.28528 7.0125 1.28481 7.01296C1.28435 7.01343 1.28388 7.01389 1.28342 7.01435C1.28296 7.01481 1.2825 7.01527 1.28204 7.01573C1.28158 7.01619 1.28113 7.01665 1.28067 7.0171C1.28022 7.01756 1.27976 7.01802 1.27931 7.01847C1.27885 7.01892 1.2784 7.01937 1.27795 7.01982C1.2775 7.02028 1.27705 7.02072 1.2766 7.02117C1.27616 7.02162 1.27571 7.02207 1.27526 7.02251C1.27482 7.02296 1.27437 7.0234 1.27393 7.02384C1.27349 7.02429 1.27305 7.02473 1.27261 7.02517C1.27217 7.02561 1.27173 7.02605 1.27129 7.02649C1.27085 7.02692 1.27042 7.02736 1.26998 7.02779C1.26955 7.02823 1.26911 7.02866 1.26868 7.0291C1.26825 7.02953 1.26782 7.02996 1.26739 7.03039C1.26696 7.03082 1.26653 7.03125 1.2661 7.03167C1.26568 7.0321 1.26525 7.03253 1.26483 7.03295C1.2644 7.03337 1.26398 7.0338 1.26356 7.03422C1.26313 7.03464 1.26271 7.03506 1.2623 7.03548C1.26188 7.0359 1.26146 7.03632 1.26104 7.03673C1.26062 7.03715 1.26021 7.03757 1.2598 7.03798C1.25938 7.03839 1.25897 7.03881 1.25856 7.03922C1.25815 7.03963 1.25774 7.04004 1.25733 7.04045C1.25692 7.04086 1.25651 7.04127 1.2561 7.04167C1.2557 7.04208 1.25529 7.04248 1.25489 7.04289C1.25449 7.04329 1.25408 7.04369 1.25368 7.04409C1.25328 7.04449 1.25288 7.04489 1.25248 7.04529C1.25208 7.04569 1.25169 7.04609 1.25129 7.04648C1.2509 7.04688 1.2505 7.04728 1.25011 7.04767C1.24971 7.04806 1.24932 7.04845 1.24893 7.04885C1.24854 7.04924 1.24815 7.04963 1.24776 7.05001C1.24737 7.0504 1.24699 7.05079 1.2466 7.05117C1.24622 7.05156 1.24583 7.05194 1.24545 7.05233C1.24506 7.05271 1.24468 7.05309 1.2443 7.05347C1.24392 7.05385 1.24354 7.05423 1.24316 7.05461C1.24279 7.05499 1.24241 7.05537 1.24203 7.05574C1.24166 7.05612 1.24128 7.05649 1.24091 7.05687C1.24054 7.05724 1.24017 7.05761 1.2398 7.05798C1.23943 7.05835 1.23906 7.05872 1.23869 7.05909C1.23832 7.05946 1.23795 7.05982 1.23759 7.06019C1.23722 7.06055 1.23686 7.06092 1.2365 7.06128C1.23613 7.06164 1.23577 7.06201 1.23541 7.06237C1.23505 7.06273 1.23469 7.06309 1.23433 7.06344C1.23398 7.0638 1.23362 7.06416 1.23326 7.06451C1.23291 7.06487 1.23255 7.06522 1.2322 7.06558C1.23185 7.06593 1.2315 7.06628 1.23115 7.06663C1.2308 7.06698 1.23045 7.06733 1.2301 7.06768C1.22975 7.06803 1.2294 7.06837 1.22906 7.06872C1.22871 7.06906 1.22837 7.06941 1.22803 7.06975C1.22768 7.07009 1.22734 7.07043 1.227 7.07077C1.22666 7.07111 1.22632 7.07145 1.22598 7.07179C1.22565 7.07213 1.22531 7.07247 1.22497 7.0728C1.22464 7.07314 1.2243 7.07347 1.22397 7.0738C1.22364 7.07414 1.22331 7.07447 1.22298 7.0748C1.22265 7.07513 1.22232 7.07546 1.22199 7.07579C1.22166 7.07612 1.22133 7.07644 1.22101 7.07677C1.22068 7.07709 1.22036 7.07742 1.22004 7.07774C1.21971 7.07806 1.21939 7.07839 1.21907 7.07871C1.21875 7.07903 1.21843 7.07935 1.21811 7.07966C1.21779 7.07998 1.21748 7.0803 1.21716 7.08062C1.21685 7.08093 1.21653 7.08125 1.21622 7.08156C1.2159 7.08187 1.21559 7.08218 1.21528 7.08249C1.21497 7.08281 1.21466 7.08312 1.21435 7.08342C1.21404 7.08373 1.21374 7.08404 1.21343 7.08435C1.21312 7.08465 1.21282 7.08496 1.21252 7.08526C1.21221 7.08556 1.21191 7.08587 1.21161 7.08617C1.21131 7.08647 1.21101 7.08677 1.21071 7.08707C1.21041 7.08736 1.21011 7.08766 1.20982 7.08796C1.20952 7.08825 1.20923 7.08855 1.20893 7.08884C1.20864 7.08914 1.20835 7.08943 1.20805 7.08972C1.20776 7.09001 1.20747 7.0903 1.20718 7.09059C1.20689 7.09088 1.20661 7.09117 1.20632 7.09146C1.20603 7.09174 1.20575 7.09203 1.20546 7.09231C1.20518 7.0926 1.2049 7.09288 1.20461 7.09316C1.20433 7.09344 1.20405 7.09372 1.20377 7.094C1.20349 7.09428 1.20322 7.09456 1.20294 7.09484C1.20266 7.09511 1.20239 7.09539 1.20211 7.09567C1.20184 7.09594 1.20156 7.09621 1.20129 7.09649C1.20102 7.09676 1.20075 7.09703 1.20048 7.0973C1.20021 7.09757 1.19994 7.09784 1.19967 7.0981C1.1994 7.09837 1.19914 7.09864 1.19887 7.0989C1.19861 7.09917 1.19834 7.09943 1.19808 7.0997C1.19782 7.09996 1.19756 7.10022 1.1973 7.10048C1.19703 7.10074 1.19678 7.101 1.19652 7.10126C1.19626 7.10152 1.196 7.10177 1.19575 7.10203C1.19549 7.10228 1.19524 7.10254 1.19498 7.10279C1.19473 7.10305 1.19448 7.1033 1.19423 7.10355C1.19398 7.1038 1.19373 7.10405 1.19348 7.1043C1.19323 7.10455 1.19298 7.10479 1.19273 7.10504C1.19249 7.10529 1.19224 7.10553 1.192 7.10578C1.19176 7.10602 1.19151 7.10626 1.19127 7.10651C1.19103 7.10675 1.19079 7.10699 1.19055 7.10723C1.19031 7.10747 1.19007 7.1077 1.18983 7.10794C1.1896 7.10818 1.18936 7.10841 1.18913 7.10865C1.18889 7.10888 1.18866 7.10912 1.18843 7.10935C1.18819 7.10958 1.18796 7.10981 1.18773 7.11004C1.1875 7.11027 1.18727 7.1105 1.18705 7.11073C1.18682 7.11096 1.18659 7.11118 1.18637 7.11141C1.18614 7.11163 1.18592 7.11186 1.18569 7.11208C1.18547 7.1123 1.18525 7.11253 1.18503 7.11275C1.18481 7.11297 1.18459 7.11319 1.18437 7.11341C1.18415 7.11363 1.18393 7.11384 1.18372 7.11406C1.1835 7.11427 1.18329 7.11449 1.18307 7.1147C1.18286 7.11492 1.18265 7.11513 1.18243 7.11534C1.18222 7.11555 1.18201 7.11576 1.1818 7.11597C1.18159 7.11618 1.18138 7.11639 1.18118 7.1166C1.18097 7.11681 1.18076 7.11701 1.18056 7.11722C1.18036 7.11742 1.18015 7.11762 1.17995 7.11783C1.17975 7.11803 1.17954 7.11823 1.17934 7.11843C1.17914 7.11863 1.17895 7.11883 1.17875 7.11903C1.17855 7.11923 1.17835 7.11942 1.17816 7.11962C1.17796 7.11982 1.17777 7.12001 1.17757 7.1202C1.17738 7.1204 1.17719 7.12059 1.177 7.12078C1.1768 7.12097 1.17661 7.12116 1.17643 7.12135C1.17624 7.12154 1.17605 7.12173 1.17586 7.12191C1.17567 7.1221 1.17549 7.12229 1.1753 7.12247C1.17512 7.12266 1.17494 7.12284 1.17475 7.12302C1.17457 7.1232 1.17439 7.12338 1.17421 7.12357C1.17403 7.12374 1.17385 7.12392 1.17367 7.1241C1.1735 7.12428 1.17332 7.12446 1.17314 7.12463C1.17297 7.12481 1.17279 7.12498 1.17262 7.12516C1.17245 7.12533 1.17228 7.1255 1.1721 7.12567C1.17193 7.12584 1.17176 7.12601 1.17159 7.12618C1.17143 7.12635 1.17126 7.12652 1.17109 7.12669C1.17092 7.12685 1.17076 7.12702 1.17059 7.12718C1.17043 7.12735 1.17027 7.12751 1.1701 7.12767C1.16994 7.12783 1.16978 7.128 1.16962 7.12816C1.16946 7.12832 1.1693 7.12848 1.16914 7.12863C1.16898 7.12879 1.16883 7.12895 1.16867 7.1291C1.16852 7.12926 1.16836 7.12941 1.16821 7.12957C1.16805 7.12972 1.1679 7.12987 1.16775 7.13002C1.1676 7.13018 1.16745 7.13033 1.1673 7.13048C1.16715 7.13062 1.167 7.13077 1.16686 7.13092C1.16671 7.13107 1.16656 7.13121 1.16642 7.13136C1.16627 7.1315 1.16613 7.13165 1.16599 7.13179C1.16584 7.13193 1.1657 7.13207 1.16556 7.13221C1.16542 7.13235 1.16528 7.13249 1.16514 7.13263C1.16501 7.13277 1.16487 7.13291 1.16473 7.13304C1.1646 7.13318 1.16446 7.13331 1.16433 7.13345C1.16419 7.13358 1.16406 7.13372 1.16393 7.13385C1.1638 7.13398 1.16367 7.13411 1.16354 7.13424C1.16341 7.13437 1.16328 7.1345 1.16315 7.13463C1.16302 7.13475 1.1629 7.13488 1.16277 7.135C1.16265 7.13513 1.16252 7.13525 1.1624 7.13538C1.16227 7.1355 1.16215 7.13562 1.16203 7.13574C1.16191 7.13587 1.16179 7.13599 1.16167 7.13611C1.16155 7.13622 1.16143 7.13634 1.16132 7.13646C1.1612 7.13658 1.16108 7.13669 1.16097 7.13681C1.16086 7.13692 1.16074 7.13703 1.16063 7.13715C1.16052 7.13726 1.1604 7.13737 1.16029 7.13748C1.16018 7.13759 1.16007 7.1377 1.15997 7.13781C1.15986 7.13792 1.15975 7.13803 1.15964 7.13813C1.15954 7.13824 1.15943 7.13834 1.15933 7.13845C1.15922 7.13855 1.15912 7.13866 1.15902 7.13876C1.15892 7.13886 1.15881 7.13896 1.15871 7.13906C1.15861 7.13916 1.15852 7.13926 1.15842 7.13936C1.15832 7.13946 1.15822 7.13955 1.15813 7.13965C1.15803 7.13974 1.15794 7.13984 1.15784 7.13993C1.15775 7.14003 1.15766 7.14012 1.15756 7.14021C1.15747 7.1403 1.15738 7.14039 1.15729 7.14048C1.1572 7.14057 1.15711 7.14066 1.15703 7.14075C1.15694 7.14084 1.15685 7.14092 1.15677 7.14101C1.15668 7.14109 1.1566 7.14118 1.15651 7.14126C1.15643 7.14135 1.15635 7.14143 1.15627 7.14151C1.15619 7.14159 1.15611 7.14167 1.15603 7.14175C1.15595 7.14183 1.15587 7.14191 1.15579 7.14198C1.15571 7.14206 1.15564 7.14214 1.15556 7.14221C1.15549 7.14229 1.15541 7.14236 1.15534 7.14244C1.15527 7.14251 1.1552 7.14258 1.15512 7.14265C1.15505 7.14272 1.15498 7.14279 1.15491 7.14286C1.15484 7.14293 1.15478 7.143 1.15471 7.14307C1.15464 7.14313 1.15458 7.1432 1.15451 7.14326C1.15445 7.14333 1.15438 7.14339 1.15432 7.14346C1.15426 7.14352 1.1542 7.14358 1.15413 7.14364C1.15407 7.1437 1.15401 7.14376 1.15395 7.14382C1.1539 7.14388 1.15384 7.14394 1.15378 7.144C1.15372 7.14405 1.15367 7.14411 1.15361 7.14416C1.15356 7.14422 1.1535 7.14427 1.15345 7.14432C1.1534 7.14438 1.15335 7.14443 1.1533 7.14448C1.15325 7.14453 1.1532 7.14458 1.15315 7.14463C1.1531 7.14468 1.15305 7.14473 1.153 7.14477C1.15296 7.14482 1.15291 7.14487 1.15287 7.14491C1.15282 7.14496 1.15278 7.145 1.15273 7.14504C1.15269 7.14508 1.15265 7.14513 1.15261 7.14517C1.15257 7.14521 1.15253 7.14525 1.15249 7.14529C1.15245 7.14533 1.15241 7.14536 1.15238 7.1454C1.15234 7.14544 1.1523 7.14547 1.15227 7.14551C1.15223 7.14554 1.1522 7.14558 1.15217 7.14561C1.15213 7.14564 1.1521 7.14568 1.15207 7.14571C1.15204 7.14574 1.15201 7.14577 1.15198 7.1458C1.15195 7.14583 1.15192 7.14585 1.1519 7.14588C1.15187 7.14591 1.15184 7.14593 1.15182 7.14596C1.15179 7.14598 1.15177 7.14601 1.15174 7.14603C1.15172 7.14605 1.1517 7.14608 1.15168 7.1461C1.15166 7.14612 1.15164 7.14614 1.15162 7.14616C1.1516 7.14618 1.15158 7.1462 1.15156 7.14621C1.15155 7.14623 1.15153 7.14625 1.15151 7.14626C1.1515 7.14628 1.15148 7.14629 1.15147 7.14631C1.15146 7.14632 1.15144 7.14633 1.15143 7.14634C1.15142 7.14635 1.15141 7.14637 1.1514 7.14637C1.15139 7.14638 1.15138 7.14639 1.15138 7.1464C1.15137 7.14641 1.15136 7.14642 1.15136 7.14642C1.15135 7.14643 1.15134 7.14643 1.15134 7.14644C1.15134 7.14644 1.15133 7.14644 1.15133 7.14644C1.15133 7.14645 1.15133 7.14645 1.50488 7.5C1.85844 7.85355 1.85844 7.85355 1.85844 7.85355C1.85844 7.85355 1.85844 7.85355 1.85845 7.85354C1.85845 7.85354 1.85846 7.85353 1.85846 7.85353C1.85847 7.85352 1.85847 7.85352 1.85848 7.85351C1.85849 7.8535 1.8585 7.85349 1.85851 7.85348C1.85852 7.85347 1.85853 7.85346 1.85854 7.85345C1.85855 7.85344 1.85856 7.85343 1.85858 7.85341C1.85859 7.8534 1.8586 7.85338 1.85862 7.85337C1.85864 7.85335 1.85865 7.85334 1.85867 7.85332C1.85869 7.8533 1.8587 7.85328 1.85872 7.85327C1.85874 7.85325 1.85876 7.85323 1.85878 7.8532C1.85881 7.85318 1.85883 7.85316 1.85885 7.85314C1.85887 7.85312 1.8589 7.85309 1.85892 7.85307C1.85895 7.85304 1.85898 7.85301 1.859 7.85299C1.85903 7.85296 1.85906 7.85293 1.85909 7.8529C1.85912 7.85287 1.85915 7.85284 1.85918 7.85281C1.85921 7.85278 1.85924 7.85275 1.85927 7.85272C1.85931 7.85268 1.85934 7.85265 1.85937 7.85262C1.85941 7.85258 1.85944 7.85254 1.85948 7.85251C1.85952 7.85247 1.85956 7.85243 1.8596 7.85239C1.85963 7.85236 1.85967 7.85232 1.85972 7.85227C1.85976 7.85223 1.8598 7.85219 1.85984 7.85215C1.85988 7.85211 1.85993 7.85206 1.85997 7.85202C1.86002 7.85197 1.86006 7.85193 1.86011 7.85188C1.86016 7.85183 1.8602 7.85179 1.86025 7.85174C1.8603 7.85169 1.86035 7.85164 1.8604 7.85159C1.86045 7.85154 1.86051 7.85148 1.86056 7.85143C1.86061 7.85138 1.86067 7.85132 1.86072 7.85127C1.86077 7.85121 1.86083 7.85116 1.86089 7.8511C1.86094 7.85105 1.861 7.85099 1.86106 7.85093C1.86112 7.85087 1.86118 7.85081 1.86124 7.85075C1.8613 7.85069 1.86136 7.85063 1.86143 7.85056C1.86149 7.8505 1.86155 7.85044 1.86162 7.85037C1.86168 7.85031 1.86175 7.85024 1.86182 7.85017C1.86188 7.85011 1.86195 7.85004 1.86202 7.84997C1.86209 7.8499 1.86216 7.84983 1.86223 7.84976C1.8623 7.84969 1.86237 7.84962 1.86245 7.84954C1.86252 7.84947 1.86259 7.84939 1.86267 7.84932C1.86274 7.84924 1.86282 7.84917 1.8629 7.84909C1.86298 7.84901 1.86305 7.84894 1.86313 7.84886C1.86321 7.84878 1.86329 7.8487 1.86337 7.84862C1.86346 7.84853 1.86354 7.84845 1.86362 7.84837C1.8637 7.84829 1.86379 7.8482 1.86387 7.84812C1.86396 7.84803 1.86405 7.84794 1.86413 7.84786C1.86422 7.84777 1.86431 7.84768 1.8644 7.84759C1.86449 7.8475 1.86458 7.84741 1.86467 7.84732C1.86476 7.84723 1.86486 7.84713 1.86495 7.84704C1.86504 7.84695 1.86514 7.84685 1.86523 7.84676C1.86533 7.84666 1.86543 7.84656 1.86552 7.84647C1.86562 7.84637 1.86572 7.84627 1.86582 7.84617C1.86592 7.84607 1.86602 7.84597 1.86612 7.84586C1.86623 7.84576 1.86633 7.84566 1.86643 7.84556C1.86654 7.84545 1.86664 7.84535 1.86675 7.84524C1.86686 7.84513 1.86696 7.84503 1.86707 7.84492C1.86718 7.84481 1.86729 7.8447 1.8674 7.84459C1.86751 7.84448 1.86762 7.84437 1.86774 7.84425C1.86785 7.84414 1.86796 7.84403 1.86808 7.84391C1.86819 7.8438 1.86831 7.84368 1.86842 7.84357C1.86854 7.84345 1.86866 7.84333 1.86878 7.84321C1.8689 7.84309 1.86902 7.84297 1.86914 7.84285C1.86926 7.84273 1.86938 7.84261 1.8695 7.84248C1.86963 7.84236 1.86975 7.84224 1.86988 7.84211C1.87 7.84199 1.87013 7.84186 1.87026 7.84173C1.87038 7.8416 1.87051 7.84148 1.87064 7.84135C1.87077 7.84122 1.8709 7.84109 1.87104 7.84095C1.87117 7.84082 1.8713 7.84069 1.87143 7.84056C1.87157 7.84042 1.8717 7.84029 1.87184 7.84015C1.87198 7.84001 1.87211 7.83988 1.87225 7.83974C1.87239 7.8396 1.87253 7.83946 1.87267 7.83932C1.87281 7.83918 1.87295 7.83904 1.87309 7.8389C1.87324 7.83875 1.87338 7.83861 1.87353 7.83846C1.87367 7.83832 1.87382 7.83817 1.87396 7.83803C1.87411 7.83788 1.87426 7.83773 1.87441 7.83758C1.87456 7.83743 1.87471 7.83728 1.87486 7.83713C1.87501 7.83698 1.87516 7.83683 1.87532 7.83667C1.87547 7.83652 1.87562 7.83637 1.87578 7.83621C1.87593 7.83605 1.87609 7.8359 1.87625 7.83574C1.87641 7.83558 1.87657 7.83542 1.87673 7.83526C1.87689 7.8351 1.87705 7.83494 1.87721 7.83478C1.87737 7.83462 1.87754 7.83445 1.8777 7.83429C1.87786 7.83412 1.87803 7.83396 1.8782 7.83379C1.87836 7.83363 1.87853 7.83346 1.8787 7.83329C1.87887 7.83312 1.87904 7.83295 1.87921 7.83278C1.87938 7.83261 1.87955 7.83244 1.87973 7.83226C1.8799 7.83209 1.88008 7.83191 1.88025 7.83174C1.88043 7.83156 1.8806 7.83139 1.88078 7.83121C1.88096 7.83103 1.88114 7.83085 1.88132 7.83067C1.8815 7.83049 1.88168 7.83031 1.88186 7.83013C1.88204 7.82995 1.88223 7.82976 1.88241 7.82958C1.8826 7.82939 1.88278 7.82921 1.88297 7.82902C1.88316 7.82883 1.88334 7.82865 1.88353 7.82846C1.88372 7.82827 1.88391 7.82808 1.8841 7.82789C1.88429 7.8277 1.88449 7.8275 1.88468 7.82731C1.88487 7.82712 1.88507 7.82692 1.88526 7.82673C1.88546 7.82653 1.88566 7.82633 1.88585 7.82614C1.88605 7.82594 1.88625 7.82574 1.88645 7.82554C1.88665 7.82534 1.88685 7.82514 1.88706 7.82493C1.88726 7.82473 1.88746 7.82453 1.88767 7.82432C1.88787 7.82412 1.88808 7.82391 1.88828 7.82371C1.88849 7.8235 1.8887 7.82329 1.88891 7.82308C1.88912 7.82287 1.88933 7.82266 1.88954 7.82245C1.88975 7.82224 1.88997 7.82202 1.89018 7.82181C1.89039 7.8216 1.89061 7.82138 1.89082 7.82117C1.89104 7.82095 1.89126 7.82073 1.89148 7.82051C1.89169 7.82029 1.89191 7.82008 1.89214 7.81985C1.89236 7.81963 1.89258 7.81941 1.8928 7.81919C1.89302 7.81897 1.89325 7.81874 1.89347 7.81852C1.8937 7.81829 1.89393 7.81806 1.89415 7.81784C1.89438 7.81761 1.89461 7.81738 1.89484 7.81715C1.89507 7.81692 1.8953 7.81669 1.89553 7.81646C1.89577 7.81622 1.896 7.81599 1.89623 7.81576C1.89647 7.81552 1.8967 7.81528 1.89694 7.81505C1.89718 7.81481 1.89742 7.81457 1.89766 7.81433C1.8979 7.81409 1.89814 7.81385 1.89838 7.81361C1.89862 7.81337 1.89886 7.81313 1.89911 7.81288C1.89935 7.81264 1.8996 7.81239 1.89984 7.81215C1.90009 7.8119 1.90034 7.81165 1.90058 7.81141C1.90083 7.81116 1.90108 7.81091 1.90133 7.81066C1.90158 7.81041 1.90184 7.81015 1.90209 7.8099C1.90234 7.80965 1.9026 7.80939 1.90285 7.80914C1.90311 7.80888 1.90337 7.80862 1.90362 7.80837C1.90388 7.80811 1.90414 7.80785 1.9044 7.80759C1.90466 7.80733 1.90492 7.80707 1.90519 7.8068C1.90545 7.80654 1.90571 7.80628 1.90598 7.80601C1.90624 7.80575 1.90651 7.80548 1.90678 7.80521C1.90705 7.80494 1.90731 7.80468 1.90758 7.80441C1.90785 7.80414 1.90812 7.80386 1.9084 7.80359C1.90867 7.80332 1.90894 7.80305 1.90922 7.80277C1.90949 7.8025 1.90977 7.80222 1.91005 7.80194C1.91032 7.80167 1.9106 7.80139 1.91088 7.80111C1.91116 7.80083 1.91144 7.80055 1.91172 7.80027C1.912 7.79999 1.91229 7.7997 1.91257 7.79942C1.91285 7.79913 1.91314 7.79885 1.91343 7.79856C1.91371 7.79828 1.914 7.79799 1.91429 7.7977C1.91458 7.79741 1.91487 7.79712 1.91516 7.79683C1.91545 7.79654 1.91575 7.79624 1.91604 7.79595C1.91633 7.79566 1.91663 7.79536 1.91692 7.79507C1.91722 7.79477 1.91752 7.79447 1.91782 7.79417C1.91812 7.79387 1.91842 7.79357 1.91872 7.79327C1.91902 7.79297 1.91932 7.79267 1.91962 7.79237C1.91993 7.79206 1.92023 7.79176 1.92054 7.79145C1.92084 7.79115 1.92115 7.79084 1.92146 7.79053C1.92177 7.79022 1.92208 7.78991 1.92239 7.7896C1.9227 7.78929 1.92301 7.78898 1.92332 7.78867C1.92364 7.78835 1.92395 7.78804 1.92427 7.78772C1.92458 7.78741 1.9249 7.78709 1.92522 7.78677C1.92554 7.78645 1.92586 7.78613 1.92618 7.78581C1.9265 7.78549 1.92682 7.78517 1.92714 7.78485C1.92747 7.78452 1.92779 7.7842 1.92812 7.78387C1.92844 7.78355 1.92877 7.78322 1.9291 7.78289C1.92942 7.78257 1.92975 7.78224 1.93008 7.78191C1.93041 7.78158 1.93075 7.78124 1.93108 7.78091C1.93141 7.78058 1.93175 7.78024 1.93208 7.77991C1.93242 7.77957 1.93275 7.77924 1.93309 7.7789C1.93343 7.77856 1.93377 7.77822 1.93411 7.77788C1.93445 7.77754 1.93479 7.7772 1.93513 7.77686C1.93548 7.77651 1.93582 7.77617 1.93617 7.77582C1.93651 7.77548 1.93686 7.77513 1.93721 7.77478C1.93755 7.77444 1.9379 7.77409 1.93825 7.77374C1.9386 7.77339 1.93895 7.77303 1.93931 7.77268C1.93966 7.77233 1.94001 7.77198 1.94037 7.77162C1.94073 7.77126 1.94108 7.77091 1.94144 7.77055C1.9418 7.77019 1.94216 7.76983 1.94252 7.76947C1.94288 7.76911 1.94324 7.76875 1.9436 7.76839C1.94397 7.76802 1.94433 7.76766 1.94469 7.76729C1.94506 7.76693 1.94543 7.76656 1.94579 7.76619C1.94616 7.76583 1.94653 7.76546 1.9469 7.76509C1.94727 7.76472 1.94764 7.76434 1.94802 7.76397C1.94839 7.7636 1.94876 7.76322 1.94914 7.76285C1.94952 7.76247 1.94989 7.7621 1.95027 7.76172C1.95065 7.76134 1.95103 7.76096 1.95141 7.76058C1.95179 7.7602 1.95217 7.75982 1.95255 7.75943C1.95294 7.75905 1.95332 7.75867 1.95371 7.75828C1.95409 7.7579 1.95448 7.75751 1.95487 7.75712C1.95526 7.75673 1.95565 7.75634 1.95604 7.75595C1.95643 7.75556 1.95682 7.75517 1.95721 7.75478C1.95761 7.75438 1.958 7.75399 1.9584 7.75359C1.95879 7.7532 1.95919 7.7528 1.95959 7.7524C1.95999 7.752 1.96039 7.7516 1.96079 7.7512C1.96119 7.7508 1.96159 7.7504 1.962 7.74999C1.9624 7.74959 1.9628 7.74918 1.96321 7.74878C1.96362 7.74837 1.96403 7.74796 1.96443 7.74756C1.96484 7.74715 1.96525 7.74674 1.96566 7.74633C1.96608 7.74591 1.96649 7.7455 1.9669 7.74509C1.96732 7.74467 1.96773 7.74426 1.96815 7.74384C1.96856 7.74342 1.96898 7.74301 1.9694 7.74259C1.96982 7.74217 1.97024 7.74175 1.97066 7.74133C1.97109 7.7409 1.97151 7.74048 1.97193 7.74006C1.97236 7.73963 1.97278 7.73921 1.97321 7.73878C1.97364 7.73835 1.97407 7.73792 1.9745 7.73749C1.97492 7.73706 1.97536 7.73663 1.97579 7.7362C1.97622 7.73577 1.97665 7.73534 1.97709 7.7349C1.97752 7.73447 1.97796 7.73403 1.9784 7.73359C1.97883 7.73315 1.97927 7.73272 1.97971 7.73228C1.98015 7.73184 1.9806 7.73139 1.98104 7.73095C1.98148 7.73051 1.98192 7.73006 1.98237 7.72962C1.98282 7.72917 1.98326 7.72873 1.98371 7.72828C1.98416 7.72783 1.98461 7.72738 1.98506 7.72693C1.98551 7.72648 1.98596 7.72603 1.98641 7.72558C1.98687 7.72512 1.98732 7.72467 1.98778 7.72421C1.98823 7.72376 1.98869 7.7233 1.98915 7.72284C1.98961 7.72238 1.99007 7.72192 1.99053 7.72146C1.99099 7.721 1.99145 7.72054 1.99192 7.72007C1.99238 7.71961 1.99285 7.71914 1.99331 7.71868C1.99378 7.71821 1.99425 7.71774 1.99472 7.71727C1.99519 7.7168 1.99566 7.71633 1.99613 7.71586C1.9966 7.71539 1.99707 7.71491 1.99755 7.71444C1.99802 7.71397 1.9985 7.71349 1.99898 7.71301C1.99945 7.71253 1.99993 7.71206 2.00041 7.71158C2.00089 7.7111 2.00137 7.71062 2.00186 7.71013C2.00234 7.70965 2.00282 7.70917 2.00331 7.70868C2.00379 7.70819 2.00428 7.70771 2.00477 7.70722C2.00526 7.70673 2.00575 7.70624 2.00624 7.70575C2.00673 7.70526 2.00722 7.70477 2.00771 7.70428C2.00821 7.70378 2.0087 7.70329 2.0092 7.70279C2.00969 7.70229 2.01019 7.7018 2.01069 7.7013C2.01119 7.7008 2.01169 7.7003 2.01219 7.6998C2.01269 7.6993 2.0132 7.69879 2.0137 7.69829C2.01421 7.69778 2.01471 7.69728 2.01522 7.69677C2.01573 7.69626 2.01623 7.69576 2.01674 7.69525C2.01725 7.69474 2.01776 7.69423 2.01828 7.69371C2.01879 7.6932 2.0193 7.69269 2.01982 7.69217C2.02033 7.69166 2.02085 7.69114 2.02137 7.69062C2.02189 7.6901 2.02241 7.68958 2.02293 7.68906C2.02345 7.68854 2.02397 7.68802 2.02449 7.6875C2.02502 7.68697 2.02554 7.68645 2.02607 7.68592C2.02659 7.6854 2.02712 7.68487 2.02765 7.68434C2.02818 7.68381 2.02871 7.68328 2.02924 7.68275C2.02977 7.68222 2.03031 7.68168 2.03084 7.68115C2.03137 7.68062 2.03191 7.68008 2.03245 7.67954C2.03298 7.67901 2.03352 7.67847 2.03406 7.67793C2.0346 7.67739 2.03514 7.67685 2.03569 7.6763C2.03623 7.67576 2.03677 7.67522 2.03732 7.67467C2.03787 7.67412 2.03841 7.67358 2.03896 7.67303C2.03951 7.67248 2.04006 7.67193 2.04061 7.67138C2.04116 7.67083 2.04171 7.67028 2.04227 7.66972C2.04282 7.66917 2.04338 7.66861 2.04393 7.66806C2.04449 7.6675 2.04505 7.66694 2.04561 7.66638C2.04617 7.66582 2.04673 7.66526 2.04729 7.6647C2.04785 7.66414 2.04842 7.66357 2.04898 7.66301C2.04955 7.66244 2.05011 7.66188 2.05068 7.66131C2.05125 7.66074 2.05182 7.66017 2.05239 7.6596C2.05296 7.65903 2.05353 7.65846 2.0541 7.65789C2.05468 7.65731 2.05525 7.65674 2.05583 7.65616C2.0564 7.65558 2.05698 7.65501 2.05756 7.65443C2.05814 7.65385 2.05872 7.65327 2.0593 7.65269C2.05988 7.6521 2.06047 7.65152 2.06105 7.65094C2.06164 7.65035 2.06222 7.64977 2.06281 7.64918C2.0634 7.64859 2.06399 7.648 2.06458 7.64741C2.06517 7.64682 2.06576 7.64623 2.06635 7.64564C2.06695 7.64504 2.06754 7.64445 2.06814 7.64385C2.06873 7.64326 2.06933 7.64266 2.06993 7.64206C2.07053 7.64146 2.07113 7.64086 2.07173 7.64026C2.07233 7.63966 2.07294 7.63905 2.07354 7.63845C2.07415 7.63784 2.07475 7.63724 2.07536 7.63663C2.07597 7.63602 2.07658 7.63541 2.07719 7.6348C2.0778 7.63419 2.07841 7.63358 2.07902 7.63297C2.07963 7.63235 2.08025 7.63174 2.08087 7.63112C2.08148 7.63051 2.0821 7.62989 2.08272 7.62927C2.08334 7.62865 2.08396 7.62803 2.08458 7.62741C2.0852 7.62679 2.08582 7.62617 2.08645 7.62554C2.08707 7.62492 2.0877 7.62429 2.08833 7.62366C2.08896 7.62303 2.08958 7.62241 2.09021 7.62178C2.09084 7.62114 2.09148 7.62051 2.09211 7.61988C2.09274 7.61925 2.09338 7.61861 2.09401 7.61797C2.09465 7.61734 2.09529 7.6167 2.09593 7.61606C2.09657 7.61542 2.09721 7.61478 2.09785 7.61414C2.09849 7.6135 2.09914 7.61285 2.09978 7.61221C2.10043 7.61156 2.10107 7.61092 2.10172 7.61027C2.10237 7.60962 2.10302 7.60897 2.10367 7.60832C2.10432 7.60767 2.10497 7.60702 2.10562 7.60637C2.10628 7.60571 2.10693 7.60506 2.10759 7.6044C2.10825 7.60374 2.1089 7.60309 2.10956 7.60243C2.11022 7.60177 2.11088 7.60111 2.11155 7.60044C2.11221 7.59978 2.11287 7.59912 2.11354 7.59845C2.1142 7.59779 2.11487 7.59712 2.11554 7.59645C2.11621 7.59578 2.11688 7.59511 2.11755 7.59444C2.11822 7.59377 2.11889 7.5931 2.11957 7.59242C2.12024 7.59175 2.12092 7.59107 2.12159 7.5904C2.12227 7.58972 2.12295 7.58904 2.12363 7.58836C2.12431 7.58768 2.12499 7.587 2.12567 7.58632C2.12636 7.58563 2.12704 7.58495 2.12773 7.58426C2.12841 7.58358 2.1291 7.58289 2.12979 7.5822C2.13048 7.58151 2.13117 7.58082 2.13186 7.58013C2.13255 7.57944 2.13325 7.57874 2.13394 7.57805C2.13464 7.57735 2.13533 7.57666 2.13603 7.57596C2.13673 7.57526 2.13743 7.57456 2.13813 7.57386C2.13883 7.57316 2.13953 7.57246 2.14024 7.57175C2.14094 7.57105 2.14164 7.57034 2.14235 7.56964C2.14306 7.56893 2.14377 7.56822 2.14448 7.56751C2.14519 7.5668 2.1459 7.56609 2.14661 7.56538C2.14732 7.56467 2.14804 7.56395 2.14875 7.56324C2.14947 7.56252 2.15019 7.5618 2.1509 7.56108C2.15162 7.56037 2.15234 7.55965 2.15307 7.55892C2.15379 7.5582 2.15451 7.55748 2.15524 7.55675C2.15596 7.55603 2.15669 7.5553 2.15741 7.55458C2.15814 7.55385 2.15887 7.55312 2.1596 7.55239C2.16033 7.55166 2.16106 7.55092 2.1618 7.55019C2.16253 7.54946 2.16327 7.54872 2.164 7.54799C2.16474 7.54725 2.16548 7.54651 2.16622 7.54577C2.16696 7.54503 2.1677 7.54429 2.16844 7.54355C2.16919 7.5428 2.16993 7.54206 2.17068 7.54131C2.17142 7.54057 2.17217 7.53982 2.17292 7.53907C2.17367 7.53832 2.17442 7.53757 2.17517 7.53682C2.17592 7.53607 2.17668 7.53531 2.17743 7.53456C2.17819 7.5338 2.17894 7.53305 2.1797 7.53229C2.18046 7.53153 2.18122 7.53077 2.18198 7.53001C2.18274 7.52925 2.1835 7.52849 2.18427 7.52772C2.18503 7.52696 2.1858 7.52619 2.18656 7.52543C2.18733 7.52466 2.1881 7.52389 2.18887 7.52312C2.18964 7.52235 2.19041 7.52158 2.19119 7.5208C2.19196 7.52003 2.19273 7.51926 2.19351 7.51848C2.19429 7.5177 2.19507 7.51692 2.19584 7.51615C2.19662 7.51537 2.1974 7.51458 2.19819 7.5138C2.19897 7.51302 2.19975 7.51224 2.20054 7.51145C2.20133 7.51066 2.20211 7.50988 2.2029 7.50909C2.20369 7.5083 2.20448 7.50751 2.20527 7.50672C2.20606 7.50593 2.20686 7.50513 2.20765 7.50434C2.20845 7.50354 2.20924 7.50275 2.21004 7.50195C2.21084 7.50115 2.21164 7.50035 2.21244 7.49955C2.21324 7.49875 2.21404 7.49795 2.21485 7.49714C2.21565 7.49634 2.21646 7.49553 2.21727 7.49472C2.21807 7.49392 2.21888 7.49311 2.21969 7.4923C2.2205 7.49149 2.22131 7.49068 2.22213 7.48986C2.22294 7.48905 2.22376 7.48823 2.22457 7.48742C2.22539 7.4866 2.22621 7.48578 2.22703 7.48496C2.22785 7.48414 2.22867 7.48332 2.22949 7.4825C2.23031 7.48168 2.23114 7.48085 2.23196 7.48002C2.23279 7.4792 2.23362 7.47837 2.23445 7.47754C2.23528 7.47671 2.23611 7.47588 2.23694 7.47505C2.23777 7.47422 2.23861 7.47338 2.23944 7.47255C2.24028 7.47171 2.24111 7.47088 2.24195 7.47004C2.24279 7.4692 2.24363 7.46836 2.24447 7.46752C2.24531 7.46668 2.24616 7.46583 2.247 7.46499C2.24785 7.46414 2.24869 7.4633 2.24954 7.46245C2.25039 7.4616 2.25124 7.46075 2.25209 7.4599C2.25294 7.45905 2.25379 7.4582 2.25465 7.45734C2.2555 7.45649 2.25636 7.45563 2.25722 7.45477C2.25807 7.45392 2.25893 7.45306 2.25979 7.4522C2.26065 7.45134 2.26152 7.45047 2.26238 7.44961C2.26324 7.44875 2.26411 7.44788 2.26498 7.44701C2.26584 7.44615 2.26671 7.44528 2.26758 7.44441C2.26845 7.44354 2.26932 7.44267 2.2702 7.44179C2.27107 7.44092 2.27195 7.44004 2.27282 7.43917C2.2737 7.43829 2.27458 7.43741 2.27546 7.43653C2.27634 7.43565 2.27722 7.43477 2.2781 7.43389C2.27898 7.43301 2.27987 7.43212 2.28075 7.43124C2.28164 7.43035 2.28253 7.42946 2.28342 7.42857C2.28431 7.42768 2.2852 7.42679 2.28609 7.4259C2.28698 7.42501 2.28788 7.42411 2.28877 7.42322C2.28967 7.42232 2.29057 7.42142 2.29146 7.42053C2.29236 7.41963 2.29326 7.41873 2.29417 7.41782C2.29507 7.41692 2.29597 7.41602 2.29688 7.41511C2.29778 7.41421 2.29869 7.4133 2.2996 7.41239C2.30051 7.41148 2.30142 7.41057 2.30233 7.40966C2.30324 7.40875 2.30415 7.40784 2.30507 7.40692C2.30598 7.406 2.3069 7.40509 2.30782 7.40417C2.30874 7.40325 2.30966 7.40233 2.31058 7.40141C2.3115 7.40049 2.31242 7.39957 2.31335 7.39864C2.31427 7.39772 2.3152 7.39679 2.31613 7.39586C2.31706 7.39493 2.31799 7.394 2.31892 7.39307C2.31985 7.39214 2.32078 7.39121 2.32172 7.39027C2.32265 7.38934 2.32359 7.3884 2.32452 7.38747C2.32546 7.38653 2.3264 7.38559 2.32734 7.38465C2.32828 7.38371 2.32923 7.38276 2.33017 7.38182C2.33112 7.38087 2.33206 7.37993 2.33301 7.37898C2.33396 7.37803 2.33491 7.37708 2.33586 7.37613C2.33681 7.37518 2.33776 7.37423 2.33871 7.37328C2.33967 7.37232 2.34062 7.37137 2.34158 7.37041C2.34254 7.36945 2.3435 7.36849 2.34446 7.36753C2.34542 7.36657 2.34638 7.36561 2.34735 7.36464C2.34831 7.36368 2.34928 7.36271 2.35024 7.36175C2.35121 7.36078 2.35218 7.35981 2.35315 7.35884C2.35412 7.35787 2.35509 7.3569 2.35607 7.35592C2.35704 7.35495 2.35802 7.35397 2.35899 7.353C2.35997 7.35202 2.36095 7.35104 2.36193 7.35006C2.36291 7.34908 2.36389 7.3481 2.36488 7.34711C2.36586 7.34613 2.36685 7.34514 2.36783 7.34416C2.36882 7.34317 2.36981 7.34218 2.3708 7.34119C2.37179 7.3402 2.37278 7.33921 2.37378 7.33821C2.37477 7.33722 2.37576 7.33623 2.37676 7.33523C2.37776 7.33423 2.37876 7.33323 2.37976 7.33223C2.38076 7.33123 2.38176 7.33023 2.38276 7.32923C2.38377 7.32822 2.38477 7.32722 2.38578 7.32621C2.38679 7.3252 2.3878 7.32419 2.38881 7.32318C2.38982 7.32217 2.39083 7.32116 2.39184 7.32015C2.39286 7.31913 2.39387 7.31812 2.39489 7.3171C2.39591 7.31608 2.39692 7.31506 2.39795 7.31404C2.39897 7.31302 2.39999 7.312 2.40101 7.31098C2.40204 7.30995 2.40306 7.30893 2.40409 7.3079C2.40512 7.30687 2.40614 7.30585 2.40717 7.30481C2.40821 7.30378 2.40924 7.30275 2.41027 7.30172C2.41131 7.30068 2.41234 7.29965 2.41338 7.29861C2.41442 7.29757 2.41545 7.29654 2.41649 7.29549C2.41754 7.29445 2.41858 7.29341 2.41962 7.29237C2.42067 7.29132 2.42171 7.29028 2.42276 7.28923C2.42381 7.28818 2.42486 7.28713 2.42591 7.28608C2.42696 7.28503 2.42801 7.28398 2.42906 7.28293C2.43012 7.28187 2.43117 7.28082 2.43223 7.27976C2.43329 7.2787 2.43435 7.27764 2.43541 7.27658C2.43647 7.27552 2.43753 7.27446 2.4386 7.27339C2.43966 7.27233 2.44073 7.27126 2.4418 7.27019C2.44286 7.26913 2.44393 7.26806 2.445 7.26699C2.44607 7.26591 2.44715 7.26484 2.44822 7.26377C2.4493 7.26269 2.45037 7.26162 2.45145 7.26054C2.45253 7.25946 2.45361 7.25838 2.45469 7.2573C2.45577 7.25622 2.45685 7.25513 2.45794 7.25405C2.45902 7.25296 2.46011 7.25188 2.4612 7.25079C2.46229 7.2497 2.46338 7.24861 2.46447 7.24752C2.46556 7.24643 2.46665 7.24534 2.46775 7.24424C2.46884 7.24314 2.46994 7.24205 2.47104 7.24095C2.47214 7.23985 2.47324 7.23875 2.47434 7.23765C2.47544 7.23655 2.47655 7.23544 2.47765 7.23434C2.47876 7.23323 2.47986 7.23212 2.48097 7.23102C2.48208 7.22991 2.48319 7.2288 2.48431 7.22768C2.48542 7.22657 2.48653 7.22546 2.48765 7.22434C2.48876 7.22323 2.48988 7.22211 2.491 7.22099C2.49212 7.21987 2.49324 7.21875 2.49436 7.21763C2.49549 7.2165 2.49661 7.21538 2.49774 7.21425C2.49886 7.21313 2.49999 7.212 2.50112 7.21087C2.50225 7.20974 2.50338 7.20861 2.50451 7.20748C2.50565 7.20634 2.50678 7.20521 2.50792 7.20407C2.50906 7.20293 2.51019 7.2018 2.51133 7.20066C2.51247 7.19952 2.51362 7.19837 2.51476 7.19723C2.5159 7.19609 2.51705 7.19494 2.5182 7.19379C2.51934 7.19265 2.52049 7.1915 2.52164 7.19035C2.52279 7.1892 2.52394 7.18804 2.5251 7.18689C2.52625 7.18574 2.52741 7.18458 2.52857 7.18342C2.52972 7.18227 2.53088 7.18111 2.53204 7.17995C2.53321 7.17878 2.53437 7.17762 2.53553 7.17646C2.5367 7.17529 2.53786 7.17413 2.53903 7.17296C2.5402 7.17179 2.54137 7.17062 2.54254 7.16945C2.54371 7.16828 2.54489 7.1671 2.54606 7.16593C2.54724 7.16475 2.54841 7.16358 2.54959 7.1624C2.55077 7.16122 2.55195 7.16004 2.55313 7.15886C2.55432 7.15767 2.5555 7.15649 2.55668 7.1553C2.55787 7.15412 2.55906 7.15293 2.56025 7.15174C2.56144 7.15055 2.56263 7.14936 2.56382 7.14817C2.56501 7.14698 2.56621 7.14578 2.5674 7.14459C2.5686 7.14339 2.5698 7.14219 2.571 7.14099C2.5722 7.13979 2.5734 7.13859 2.5746 7.13739C2.57581 7.13618 2.57701 7.13498 2.57822 7.13377C2.57943 7.13256 2.58063 7.13136 2.58184 7.13015C2.58305 7.12893 2.58427 7.12772 2.58548 7.12651C2.5867 7.12529 2.58791 7.12408 2.58913 7.12286C2.59035 7.12164 2.59157 7.12042 2.59279 7.1192C2.59401 7.11798 2.59523 7.11676 2.59646 7.11553C2.59768 7.11431 2.59891 7.11308 2.60014 7.11185C2.60136 7.11063 2.60259 7.1094 2.60383 7.10816C2.60506 7.10693 2.60629 7.1057 2.60753 7.10446C2.60876 7.10323 2.61 7.10199 2.61124 7.10075C2.61248 7.09951 2.61372 7.09827 2.61496 7.09703C2.6162 7.09579 2.61745 7.09454 2.61869 7.09329C2.61994 7.09205 2.62119 7.0908 2.62244 7.08955C2.62369 7.0883 2.62494 7.08705 2.62619 7.0858C2.62745 7.08454 2.6287 7.08329 2.62996 7.08203C2.63122 7.08077 2.63248 7.07951 2.63374 7.07825C2.635 7.07699 2.63626 7.07573 2.63752 7.07447C2.63879 7.0732 2.64005 7.07194 2.64132 7.07067C2.64259 7.0694 2.64386 7.06813 2.64513 7.06686C2.6464 7.06559 2.64768 7.06431 2.64895 7.06304C2.65023 7.06176 2.6515 7.06049 2.65278 7.05921C2.65406 7.05793 2.65534 7.05665 2.65662 7.05537C2.65791 7.05408 2.65919 7.0528 2.66048 7.05151C2.66176 7.05023 2.66305 7.04894 2.66434 7.04765C2.66563 7.04636 2.66692 7.04507 2.66821 7.04378C2.66951 7.04248 2.6708 7.04119 2.6721 7.03989C2.6734 7.03859 2.6747 7.03729 2.676 7.03599C2.6773 7.03469 2.6786 7.03339 2.6799 7.03209C2.68121 7.03078 2.68251 7.02948 2.68382 7.02817C2.68513 7.02686 2.68644 7.02555 2.68775 7.02424C2.68906 7.02293 2.69038 7.02161 2.69169 7.0203C2.69301 7.01898 2.69432 7.01767 2.69564 7.01635C2.69696 7.01503 2.69828 7.01371 2.6996 7.01239C2.70093 7.01106 2.70225 7.00974 2.70358 7.00841C2.7049 7.00709 2.70623 7.00576 2.70756 7.00443C2.70889 7.0031 2.71022 7.00177 2.71156 7.00043C2.71289 6.9991 2.71423 6.99776 2.71556 6.99643C2.7169 6.99509 2.71824 6.99375 2.71958 6.99241C2.72092 6.99107 2.72226 6.98972 2.72361 6.98838C2.72495 6.98704 2.7263 6.98569 2.72765 6.98434C2.729 6.98299 2.73035 6.98164 2.7317 6.98029C2.73305 6.97894 2.73441 6.97758 2.73576 6.97623C2.73712 6.97487 2.73848 6.97351 2.73983 6.97216C2.74119 6.9708 2.74256 6.96943 2.74392 6.96807C2.74528 6.96671 2.74665 6.96534 2.74801 6.96398C2.74938 6.96261 2.75075 6.96124 2.75212 6.95987C2.75349 6.9585 2.75486 6.95713 2.75624 6.95575C2.75761 6.95438 2.75899 6.953 2.76037 6.95162C2.76174 6.95025 2.76312 6.94887 2.76451 6.94748C2.76589 6.9461 2.76727 6.94472 2.76866 6.94333C2.77004 6.94195 2.77143 6.94056 2.77282 6.93917C2.77421 6.93778 2.7756 6.93639 2.77699 6.935C2.77839 6.9336 2.77978 6.93221 2.78118 6.93081C2.78257 6.92942 2.78397 6.92802 2.78537 6.92662C2.78677 6.92522 2.78818 6.92381 2.78958 6.92241C2.79099 6.921 2.79239 6.9196 2.7938 6.91819C2.79521 6.91678 2.79662 6.91537 2.79803 6.91396C2.79944 6.91255 2.80085 6.91113 2.80227 6.90972C2.80369 6.9083 2.8051 6.90689 2.80652 6.90547C2.80794 6.90405 2.80936 6.90263 2.81079 6.9012C2.81221 6.89978 2.81363 6.89836 2.81506 6.89693C2.81649 6.8955 2.81792 6.89407 2.81935 6.89264C2.82078 6.89121 2.82221 6.88978 2.82365 6.88834C2.82508 6.88691 2.82652 6.88547 2.82795 6.88404C2.82939 6.8826 2.83083 6.88116 2.83227 6.87971C2.83372 6.87827 2.83516 6.87683 2.83661 6.87538C2.83805 6.87394 2.8395 6.87249 2.84095 6.87104C2.8424 6.86959 2.84385 6.86814 2.8453 6.86669C2.84676 6.86523 2.84821 6.86378 2.84967 6.86232C2.85113 6.86086 2.85259 6.8594 2.85405 6.85794C2.85551 6.85648 2.85697 6.85502 2.85844 6.85355L2.15133 6.14645ZM1.50488 7.5C1.85844 7.14645 1.85844 7.14645 1.85843 7.14644C1.85843 7.14644 1.85843 7.14644 1.85842 7.14644C1.85842 7.14643 1.85842 7.14643 1.85841 7.14642C1.8584 7.14642 1.8584 7.14641 1.85839 7.1464C1.85838 7.14639 1.85837 7.14638 1.85836 7.14637C1.85835 7.14637 1.85834 7.14635 1.85833 7.14634C1.85832 7.14633 1.85831 7.14632 1.8583 7.14631C1.85828 7.14629 1.85827 7.14628 1.85825 7.14626C1.85824 7.14625 1.85822 7.14623 1.8582 7.14621C1.85819 7.1462 1.85817 7.14618 1.85815 7.14616C1.85813 7.14614 1.85811 7.14612 1.85809 7.1461C1.85807 7.14608 1.85804 7.14605 1.85802 7.14603C1.858 7.14601 1.85797 7.14598 1.85795 7.14596C1.85792 7.14593 1.8579 7.14591 1.85787 7.14588C1.85784 7.14585 1.85782 7.14583 1.85779 7.1458C1.85776 7.14577 1.85773 7.14574 1.8577 7.14571C1.85767 7.14568 1.85763 7.14564 1.8576 7.14561C1.85757 7.14558 1.85753 7.14554 1.8575 7.14551C1.85746 7.14547 1.85743 7.14544 1.85739 7.1454C1.85735 7.14536 1.85732 7.14533 1.85728 7.14529C1.85724 7.14525 1.8572 7.14521 1.85716 7.14517C1.85712 7.14513 1.85707 7.14508 1.85703 7.14504C1.85699 7.145 1.85694 7.14496 1.8569 7.14491C1.85686 7.14487 1.85681 7.14482 1.85676 7.14477C1.85672 7.14473 1.85667 7.14468 1.85662 7.14463C1.85657 7.14458 1.85652 7.14453 1.85647 7.14448C1.85642 7.14443 1.85637 7.14438 1.85631 7.14432C1.85626 7.14427 1.85621 7.14422 1.85615 7.14416C1.8561 7.14411 1.85604 7.14405 1.85598 7.144C1.85593 7.14394 1.85587 7.14388 1.85581 7.14382C1.85575 7.14376 1.85569 7.1437 1.85563 7.14364C1.85557 7.14358 1.85551 7.14352 1.85545 7.14346C1.85538 7.14339 1.85532 7.14333 1.85525 7.14326C1.85519 7.1432 1.85512 7.14313 1.85506 7.14307C1.85499 7.143 1.85492 7.14293 1.85485 7.14286C1.85478 7.14279 1.85471 7.14272 1.85464 7.14265C1.85457 7.14258 1.8545 7.14251 1.85443 7.14244C1.85435 7.14236 1.85428 7.14229 1.8542 7.14221C1.85413 7.14214 1.85405 7.14206 1.85397 7.14198C1.8539 7.14191 1.85382 7.14183 1.85374 7.14175C1.85366 7.14167 1.85358 7.14159 1.8535 7.14151C1.85342 7.14143 1.85333 7.14135 1.85325 7.14126C1.85317 7.14118 1.85308 7.14109 1.853 7.14101C1.85291 7.14092 1.85283 7.14084 1.85274 7.14075C1.85265 7.14066 1.85256 7.14057 1.85247 7.14048C1.85238 7.14039 1.85229 7.1403 1.8522 7.14021C1.85211 7.14012 1.85202 7.14003 1.85192 7.13993C1.85183 7.13984 1.85173 7.13974 1.85164 7.13965C1.85154 7.13955 1.85145 7.13946 1.85135 7.13936C1.85125 7.13926 1.85115 7.13916 1.85105 7.13906C1.85095 7.13896 1.85085 7.13886 1.85075 7.13876C1.85065 7.13866 1.85054 7.13855 1.85044 7.13845C1.85033 7.13834 1.85023 7.13824 1.85012 7.13813C1.85002 7.13803 1.84991 7.13792 1.8498 7.13781C1.84969 7.1377 1.84958 7.13759 1.84947 7.13748C1.84936 7.13737 1.84925 7.13726 1.84914 7.13715C1.84902 7.13703 1.84891 7.13692 1.8488 7.13681C1.84868 7.13669 1.84857 7.13658 1.84845 7.13646C1.84833 7.13634 1.84821 7.13622 1.84809 7.13611C1.84798 7.13599 1.84786 7.13587 1.84773 7.13574C1.84761 7.13562 1.84749 7.1355 1.84737 7.13538C1.84724 7.13525 1.84712 7.13513 1.84699 7.135C1.84687 7.13488 1.84674 7.13475 1.84662 7.13463C1.84649 7.1345 1.84636 7.13437 1.84623 7.13424C1.8461 7.13411 1.84597 7.13398 1.84584 7.13385C1.84571 7.13372 1.84557 7.13358 1.84544 7.13345C1.8453 7.13331 1.84517 7.13318 1.84503 7.13304C1.8449 7.13291 1.84476 7.13277 1.84462 7.13263C1.84448 7.13249 1.84434 7.13235 1.8442 7.13221C1.84406 7.13207 1.84392 7.13193 1.84378 7.13179C1.84364 7.13165 1.84349 7.1315 1.84335 7.13136C1.8432 7.13121 1.84306 7.13107 1.84291 7.13092C1.84276 7.13077 1.84261 7.13062 1.84247 7.13048C1.84232 7.13033 1.84217 7.13018 1.84201 7.13002C1.84186 7.12987 1.84171 7.12972 1.84156 7.12957C1.8414 7.12941 1.84125 7.12926 1.84109 7.1291C1.84094 7.12895 1.84078 7.12879 1.84062 7.12863C1.84046 7.12848 1.84031 7.12832 1.84015 7.12816C1.83999 7.128 1.83982 7.12783 1.83966 7.12767C1.8395 7.12751 1.83934 7.12735 1.83917 7.12718C1.83901 7.12702 1.83884 7.12685 1.83868 7.12669C1.83851 7.12652 1.83834 7.12635 1.83817 7.12618C1.838 7.12601 1.83783 7.12584 1.83766 7.12567C1.83749 7.1255 1.83732 7.12533 1.83714 7.12516C1.83697 7.12498 1.8368 7.12481 1.83662 7.12463C1.83645 7.12446 1.83627 7.12428 1.83609 7.1241C1.83591 7.12392 1.83573 7.12374 1.83555 7.12357C1.83537 7.12338 1.83519 7.1232 1.83501 7.12302C1.83483 7.12284 1.83465 7.12266 1.83446 7.12247C1.83428 7.12229 1.83409 7.1221 1.8339 7.12191C1.83372 7.12173 1.83353 7.12154 1.83334 7.12135C1.83315 7.12116 1.83296 7.12097 1.83277 7.12078C1.83258 7.12059 1.83239 7.1204 1.83219 7.1202C1.832 7.12001 1.8318 7.11982 1.83161 7.11962C1.83141 7.11942 1.83122 7.11923 1.83102 7.11903C1.83082 7.11883 1.83062 7.11863 1.83042 7.11843C1.83022 7.11823 1.83002 7.11803 1.82982 7.11783C1.82961 7.11762 1.82941 7.11742 1.82921 7.11722C1.829 7.11701 1.8288 7.11681 1.82859 7.1166C1.82838 7.11639 1.82817 7.11618 1.82796 7.11597C1.82775 7.11576 1.82754 7.11555 1.82733 7.11534C1.82712 7.11513 1.82691 7.11492 1.82669 7.1147C1.82648 7.11449 1.82626 7.11427 1.82605 7.11406C1.82583 7.11384 1.82561 7.11363 1.8254 7.11341C1.82518 7.11319 1.82496 7.11297 1.82474 7.11275C1.82452 7.11253 1.82429 7.1123 1.82407 7.11208C1.82385 7.11186 1.82362 7.11163 1.8234 7.11141C1.82317 7.11118 1.82295 7.11096 1.82272 7.11073C1.82249 7.1105 1.82226 7.11027 1.82203 7.11004C1.8218 7.10981 1.82157 7.10958 1.82134 7.10935C1.82111 7.10912 1.82087 7.10888 1.82064 7.10865C1.8204 7.10841 1.82017 7.10818 1.81993 7.10794C1.81969 7.1077 1.81946 7.10747 1.81922 7.10723C1.81898 7.10699 1.81874 7.10675 1.81849 7.10651C1.81825 7.10626 1.81801 7.10602 1.81777 7.10578C1.81752 7.10553 1.81728 7.10529 1.81703 7.10504C1.81678 7.10479 1.81654 7.10455 1.81629 7.1043C1.81604 7.10405 1.81579 7.1038 1.81554 7.10355C1.81529 7.1033 1.81504 7.10305 1.81478 7.10279C1.81453 7.10254 1.81427 7.10228 1.81402 7.10203C1.81376 7.10177 1.81351 7.10152 1.81325 7.10126C1.81299 7.101 1.81273 7.10074 1.81247 7.10048C1.81221 7.10022 1.81195 7.09996 1.81169 7.0997C1.81142 7.09943 1.81116 7.09917 1.81089 7.0989C1.81063 7.09864 1.81036 7.09837 1.81009 7.0981C1.80983 7.09784 1.80956 7.09757 1.80929 7.0973C1.80902 7.09703 1.80875 7.09676 1.80848 7.09649C1.8082 7.09621 1.80793 7.09594 1.80765 7.09567C1.80738 7.09539 1.8071 7.09511 1.80683 7.09484C1.80655 7.09456 1.80627 7.09428 1.80599 7.094C1.80571 7.09372 1.80543 7.09344 1.80515 7.09316C1.80487 7.09288 1.80459 7.0926 1.8043 7.09231C1.80402 7.09203 1.80373 7.09174 1.80345 7.09146C1.80316 7.09117 1.80287 7.09088 1.80258 7.09059C1.80229 7.0903 1.802 7.09001 1.80171 7.08972C1.80142 7.08943 1.80113 7.08914 1.80083 7.08884C1.80054 7.08855 1.80024 7.08825 1.79995 7.08796C1.79965 7.08766 1.79935 7.08736 1.79906 7.08707C1.79876 7.08677 1.79846 7.08647 1.79816 7.08617C1.79785 7.08587 1.79755 7.08556 1.79725 7.08526C1.79695 7.08496 1.79664 7.08465 1.79633 7.08435C1.79603 7.08404 1.79572 7.08373 1.79541 7.08342C1.7951 7.08312 1.7948 7.08281 1.79448 7.08249C1.79417 7.08218 1.79386 7.08187 1.79355 7.08156C1.79323 7.08125 1.79292 7.08093 1.7926 7.08062C1.79229 7.0803 1.79197 7.07998 1.79165 7.07966C1.79134 7.07935 1.79102 7.07903 1.7907 7.07871C1.79037 7.07839 1.79005 7.07806 1.78973 7.07774C1.78941 7.07742 1.78908 7.07709 1.78876 7.07677C1.78843 7.07644 1.7881 7.07612 1.78778 7.07579C1.78745 7.07546 1.78712 7.07513 1.78679 7.0748C1.78646 7.07447 1.78613 7.07414 1.78579 7.0738C1.78546 7.07347 1.78513 7.07314 1.78479 7.0728C1.78446 7.07247 1.78412 7.07213 1.78378 7.07179C1.78344 7.07145 1.7831 7.07111 1.78276 7.07077C1.78242 7.07043 1.78208 7.07009 1.78174 7.06975C1.7814 7.06941 1.78105 7.06906 1.78071 7.06872C1.78036 7.06837 1.78001 7.06803 1.77967 7.06768C1.77932 7.06733 1.77897 7.06698 1.77862 7.06663C1.77827 7.06628 1.77792 7.06593 1.77756 7.06558C1.77721 7.06522 1.77686 7.06487 1.7765 7.06451C1.77615 7.06416 1.77579 7.0638 1.77543 7.06344C1.77507 7.06309 1.77472 7.06273 1.77436 7.06237C1.77399 7.06201 1.77363 7.06164 1.77327 7.06128C1.77291 7.06092 1.77254 7.06055 1.77218 7.06019C1.77181 7.05982 1.77145 7.05946 1.77108 7.05909C1.77071 7.05872 1.77034 7.05835 1.76997 7.05798C1.7696 7.05761 1.76923 7.05724 1.76885 7.05687C1.76848 7.05649 1.76811 7.05612 1.76773 7.05574C1.76736 7.05537 1.76698 7.05499 1.7666 7.05461C1.76622 7.05423 1.76584 7.05385 1.76546 7.05347C1.76508 7.05309 1.7647 7.05271 1.76432 7.05233C1.76393 7.05194 1.76355 7.05156 1.76316 7.05117C1.76278 7.05079 1.76239 7.0504 1.762 7.05001C1.76162 7.04963 1.76123 7.04924 1.76083 7.04885C1.76044 7.04845 1.76005 7.04806 1.75966 7.04767C1.75927 7.04728 1.75887 7.04688 1.75847 7.04648C1.75808 7.04609 1.75768 7.04569 1.75728 7.04529C1.75688 7.04489 1.75648 7.04449 1.75608 7.04409C1.75568 7.04369 1.75528 7.04329 1.75488 7.04289C1.75447 7.04248 1.75407 7.04208 1.75366 7.04167C1.75326 7.04127 1.75285 7.04086 1.75244 7.04045C1.75203 7.04004 1.75162 7.03963 1.75121 7.03922C1.7508 7.03881 1.75038 7.03839 1.74997 7.03798C1.74956 7.03757 1.74914 7.03715 1.74872 7.03673C1.74831 7.03632 1.74789 7.0359 1.74747 7.03548C1.74705 7.03506 1.74663 7.03464 1.74621 7.03422C1.74579 7.0338 1.74536 7.03337 1.74494 7.03295C1.74452 7.03253 1.74409 7.0321 1.74366 7.03167C1.74324 7.03125 1.74281 7.03082 1.74238 7.03039C1.74195 7.02996 1.74152 7.02953 1.74108 7.0291C1.74065 7.02866 1.74022 7.02823 1.73978 7.02779C1.73935 7.02736 1.73891 7.02692 1.73848 7.02649C1.73804 7.02605 1.7376 7.02561 1.73716 7.02517C1.73672 7.02473 1.73628 7.02429 1.73583 7.02384C1.73539 7.0234 1.73495 7.02296 1.7345 7.02251C1.73406 7.02207 1.73361 7.02162 1.73316 7.02117C1.73271 7.02072 1.73226 7.02028 1.73181 7.01982C1.73136 7.01937 1.73091 7.01892 1.73046 7.01847C1.73 7.01802 1.72955 7.01756 1.72909 7.0171C1.72864 7.01665 1.72818 7.01619 1.72772 7.01573C1.72726 7.01527 1.7268 7.01481 1.72634 7.01435C1.72588 7.01389 1.72542 7.01343 1.72495 7.01296C1.72449 7.0125 1.72403 7.01204 1.72356 7.01157C1.72309 7.0111 1.72262 7.01063 1.72215 7.01017C1.72169 7.0097 1.72121 7.00923 1.72074 7.00875C1.72027 7.00828 1.7198 7.00781 1.71932 7.00733C1.71885 7.00686 1.71837 7.00638 1.7179 7.00591C1.71742 7.00543 1.71694 7.00495 1.71646 7.00447C1.71598 7.00399 1.7155 7.00351 1.71502 7.00303C1.71453 7.00254 1.71405 7.00206 1.71356 7.00157C1.71308 7.00109 1.71259 7.0006 1.7121 7.00011C1.71161 6.99963 1.71113 6.99914 1.71063 6.99864C1.71014 6.99815 1.70965 6.99766 1.70916 6.99717C1.70866 6.99668 1.70817 6.99618 1.70767 6.99568C1.70718 6.99519 1.70668 6.99469 1.70618 6.99419C1.70568 6.99369 1.70518 6.99319 1.70468 6.99269C1.70418 6.99219 1.70368 6.99169 1.70317 6.99118C1.70267 6.99068 1.70216 6.99017 1.70165 6.98967C1.70115 6.98916 1.70064 6.98865 1.70013 6.98814C1.69962 6.98763 1.69911 6.98712 1.6986 6.98661C1.69808 6.98609 1.69757 6.98558 1.69705 6.98506C1.69654 6.98455 1.69602 6.98403 1.6955 6.98351C1.69499 6.983 1.69447 6.98248 1.69395 6.98196C1.69343 6.98144 1.6929 6.98091 1.69238 6.98039C1.69186 6.97987 1.69133 6.97934 1.69081 6.97882C1.69028 6.97829 1.68975 6.97776 1.68922 6.97723C1.68869 6.9767 1.68816 6.97617 1.68763 6.97564C1.6871 6.97511 1.68657 6.97458 1.68603 6.97404C1.6855 6.97351 1.68496 6.97297 1.68443 6.97244C1.68389 6.9719 1.68335 6.97136 1.68281 6.97082C1.68227 6.97028 1.68173 6.96974 1.68119 6.9692C1.68064 6.96865 1.6801 6.96811 1.67955 6.96756C1.67901 6.96702 1.67846 6.96647 1.67791 6.96592C1.67736 6.96537 1.67681 6.96482 1.67626 6.96427C1.67571 6.96372 1.67516 6.96317 1.67461 6.96262C1.67405 6.96206 1.6735 6.96151 1.67294 6.96095C1.67238 6.96039 1.67183 6.95984 1.67127 6.95928C1.67071 6.95872 1.67015 6.95816 1.66958 6.95759C1.66902 6.95703 1.66846 6.95647 1.66789 6.9559C1.66733 6.95534 1.66676 6.95477 1.66619 6.9542C1.66562 6.95364 1.66506 6.95307 1.66448 6.9525C1.66391 6.95192 1.66334 6.95135 1.66277 6.95078C1.6622 6.95021 1.66162 6.94963 1.66104 6.94905C1.66047 6.94848 1.65989 6.9479 1.65931 6.94732C1.65873 6.94674 1.65815 6.94616 1.65757 6.94558C1.65699 6.945 1.6564 6.94441 1.65582 6.94383C1.65523 6.94324 1.65465 6.94266 1.65406 6.94207C1.65347 6.94148 1.65288 6.94089 1.65229 6.9403C1.6517 6.93971 1.65111 6.93912 1.65052 6.93853C1.64993 6.93794 1.64933 6.93734 1.64873 6.93674C1.64814 6.93615 1.64754 6.93555 1.64694 6.93495C1.64634 6.93435 1.64574 6.93375 1.64514 6.93315C1.64454 6.93255 1.64394 6.93195 1.64333 6.93134C1.64273 6.93074 1.64212 6.93013 1.64151 6.92952C1.64091 6.92892 1.6403 6.92831 1.63969 6.9277C1.63908 6.92709 1.63846 6.92647 1.63785 6.92586C1.63724 6.92525 1.63662 6.92463 1.63601 6.92402C1.63539 6.9234 1.63477 6.92278 1.63415 6.92216C1.63354 6.92155 1.63292 6.92093 1.63229 6.9203C1.63167 6.91968 1.63105 6.91906 1.63042 6.91843C1.6298 6.91781 1.62917 6.91718 1.62854 6.91656C1.62792 6.91593 1.62729 6.9153 1.62666 6.91467C1.62603 6.91404 1.6254 6.91341 1.62476 6.91277C1.62413 6.91214 1.62349 6.9115 1.62286 6.91087C1.62222 6.91023 1.62158 6.90959 1.62094 6.90896C1.62031 6.90832 1.61966 6.90768 1.61902 6.90703C1.61838 6.90639 1.61774 6.90575 1.61709 6.9051C1.61645 6.90446 1.6158 6.90381 1.61515 6.90316C1.61451 6.90252 1.61386 6.90187 1.61321 6.90122C1.61255 6.90056 1.6119 6.89991 1.61125 6.89926C1.61059 6.89861 1.60994 6.89795 1.60928 6.89729C1.60863 6.89664 1.60797 6.89598 1.60731 6.89532C1.60665 6.89466 1.60599 6.894 1.60533 6.89334C1.60466 6.89267 1.604 6.89201 1.60333 6.89134C1.60267 6.89068 1.602 6.89001 1.60133 6.88934C1.60067 6.88868 1.6 6.88801 1.59932 6.88733C1.59865 6.88666 1.59798 6.88599 1.59731 6.88532C1.59663 6.88464 1.59596 6.88397 1.59528 6.88329C1.5946 6.88261 1.59392 6.88193 1.59324 6.88125C1.59256 6.88057 1.59188 6.87989 1.5912 6.87921C1.59052 6.87853 1.58983 6.87784 1.58914 6.87716C1.58846 6.87647 1.58777 6.87578 1.58708 6.87509C1.58639 6.8744 1.5857 6.87371 1.58501 6.87302C1.58432 6.87233 1.58363 6.87164 1.58293 6.87094C1.58224 6.87025 1.58154 6.86955 1.58084 6.86885C1.58014 6.86815 1.57944 6.86746 1.57874 6.86675C1.57804 6.86605 1.57734 6.86535 1.57664 6.86465C1.57593 6.86394 1.57523 6.86324 1.57452 6.86253C1.57381 6.86182 1.57311 6.86112 1.5724 6.86041C1.57169 6.8597 1.57098 6.85899 1.57026 6.85827C1.56955 6.85756 1.56884 6.85685 1.56812 6.85613C1.5674 6.85541 1.56669 6.8547 1.56597 6.85398C1.56525 6.85326 1.56453 6.85254 1.56381 6.85182C1.56309 6.8511 1.56236 6.85037 1.56164 6.84965C1.56091 6.84892 1.56019 6.8482 1.55946 6.84747C1.55873 6.84674 1.558 6.84601 1.55727 6.84528C1.55654 6.84455 1.55581 6.84382 1.55507 6.84308C1.55434 6.84235 1.5536 6.84161 1.55287 6.84088C1.55213 6.84014 1.55139 6.8394 1.55065 6.83866C1.54991 6.83792 1.54917 6.83718 1.54843 6.83644C1.54769 6.8357 1.54694 6.83495 1.5462 6.83421C1.54545 6.83346 1.5447 6.83271 1.54395 6.83196C1.5432 6.83121 1.54245 6.83046 1.5417 6.82971C1.54095 6.82896 1.5402 6.82821 1.53944 6.82745C1.53869 6.8267 1.53793 6.82594 1.53717 6.82518C1.53641 6.82442 1.53565 6.82366 1.53489 6.8229C1.53413 6.82214 1.53337 6.82138 1.53261 6.82062C1.53184 6.81985 1.53108 6.81909 1.53031 6.81832C1.52954 6.81755 1.52877 6.81678 1.528 6.81601C1.52723 6.81524 1.52646 6.81447 1.52569 6.8137C1.52491 6.81292 1.52414 6.81215 1.52336 6.81137C1.52259 6.8106 1.52181 6.80982 1.52103 6.80904C1.52025 6.80826 1.51947 6.80748 1.51868 6.8067C1.5179 6.80591 1.51712 6.80513 1.51633 6.80434C1.51555 6.80356 1.51476 6.80277 1.51397 6.80198C1.51318 6.80119 1.51239 6.8004 1.5116 6.79961C1.51081 6.79882 1.51002 6.79803 1.50922 6.79723C1.50843 6.79644 1.50763 6.79564 1.50683 6.79484C1.50603 6.79404 1.50523 6.79324 1.50443 6.79244C1.50363 6.79164 1.50283 6.79084 1.50202 6.79003C1.50122 6.78923 1.50041 6.78842 1.49961 6.78762C1.4988 6.78681 1.49799 6.786 1.49718 6.78519C1.49637 6.78438 1.49556 6.78357 1.49474 6.78276C1.49393 6.78194 1.49312 6.78113 1.4923 6.78031C1.49148 6.77949 1.49066 6.77868 1.48984 6.77786C1.48903 6.77704 1.4882 6.77621 1.48738 6.77539C1.48656 6.77457 1.48573 6.77374 1.48491 6.77292C1.48408 6.77209 1.48325 6.77126 1.48243 6.77044C1.4816 6.76961 1.48077 6.76878 1.47993 6.76794C1.4791 6.76711 1.47827 6.76628 1.47743 6.76544C1.4766 6.76461 1.47576 6.76377 1.47492 6.76293C1.47408 6.76209 1.47324 6.76125 1.4724 6.76041C1.47156 6.75957 1.47072 6.75873 1.46987 6.75788C1.46903 6.75704 1.46818 6.75619 1.46733 6.75534C1.46648 6.75449 1.46563 6.75364 1.46478 6.75279C1.46393 6.75194 1.46308 6.75109 1.46222 6.75023C1.46137 6.74938 1.46051 6.74852 1.45966 6.74767C1.4588 6.74681 1.45794 6.74595 1.45708 6.74509C1.45622 6.74423 1.45536 6.74337 1.45449 6.7425C1.45363 6.74164 1.45276 6.74077 1.4519 6.73991C1.45103 6.73904 1.45016 6.73817 1.44929 6.7373C1.44842 6.73643 1.44755 6.73556 1.44668 6.73469C1.4458 6.73381 1.44493 6.73294 1.44405 6.73206C1.44317 6.73118 1.4423 6.73031 1.44142 6.72943C1.44054 6.72855 1.43965 6.72767 1.43877 6.72678C1.43789 6.7259 1.437 6.72502 1.43612 6.72413C1.43523 6.72324 1.43434 6.72235 1.43346 6.72147C1.43257 6.72058 1.43167 6.71969 1.43078 6.71879C1.42989 6.7179 1.429 6.71701 1.4281 6.71611C1.4272 6.71521 1.42631 6.71432 1.42541 6.71342C1.42451 6.71252 1.42361 6.71162 1.42271 6.71072C1.4218 6.70981 1.4209 6.70891 1.41999 6.70801C1.41909 6.7071 1.41818 6.70619 1.41727 6.70528C1.41637 6.70438 1.41545 6.70347 1.41454 6.70255C1.41363 6.70164 1.41272 6.70073 1.4118 6.69981C1.41089 6.6989 1.40997 6.69798 1.40905 6.69706C1.40813 6.69614 1.40721 6.69522 1.40629 6.6943C1.40537 6.69338 1.40445 6.69246 1.40352 6.69153C1.4026 6.69061 1.40167 6.68968 1.40074 6.68875C1.39982 6.68783 1.39889 6.6869 1.39796 6.68597C1.39702 6.68503 1.39609 6.6841 1.39516 6.68317C1.39422 6.68223 1.39329 6.6813 1.39235 6.68036C1.39141 6.67942 1.39047 6.67848 1.38953 6.67754C1.38859 6.6766 1.38765 6.67566 1.3867 6.67471C1.38576 6.67377 1.38481 6.67282 1.38386 6.67187C1.38292 6.67093 1.38197 6.66998 1.38102 6.66903C1.38006 6.66808 1.37911 6.66712 1.37816 6.66617C1.3772 6.66521 1.37625 6.66426 1.37529 6.6633C1.37433 6.66234 1.37337 6.66138 1.37241 6.66042C1.37145 6.65946 1.37049 6.6585 1.36953 6.65754C1.36856 6.65657 1.3676 6.65561 1.36663 6.65464C1.36566 6.65367 1.36469 6.6527 1.36372 6.65173C1.36275 6.65076 1.36178 6.64979 1.36081 6.64882C1.35983 6.64784 1.35886 6.64687 1.35788 6.64589C1.3569 6.64491 1.35592 6.64393 1.35494 6.64295C1.35396 6.64197 1.35298 6.64099 1.352 6.64001C1.35101 6.63902 1.35003 6.63804 1.34904 6.63705C1.34805 6.63606 1.34706 6.63507 1.34607 6.63408C1.34508 6.63309 1.34409 6.6321 1.3431 6.63111C1.3421 6.63011 1.34111 6.62912 1.34011 6.62812C1.33911 6.62712 1.33812 6.62613 1.33711 6.62513C1.33611 6.62413 1.33511 6.62312 1.33411 6.62212C1.3331 6.62112 1.3321 6.62011 1.33109 6.6191C1.33009 6.6181 1.32908 6.61709 1.32807 6.61608C1.32706 6.61507 1.32604 6.61405 1.32503 6.61304C1.32402 6.61203 1.323 6.61101 1.32198 6.60999C1.32097 6.60898 1.31995 6.60796 1.31893 6.60694C1.31791 6.60592 1.31688 6.6049 1.31586 6.60387C1.31484 6.60285 1.31381 6.60182 1.31278 6.60079C1.31176 6.59977 1.31073 6.59874 1.3097 6.59771C1.30867 6.59668 1.30764 6.59565 1.3066 6.59461C1.30557 6.59358 1.30453 6.59254 1.30349 6.5915C1.30246 6.59047 1.30142 6.58943 1.30038 6.58839C1.29934 6.58735 1.29829 6.58631 1.29725 6.58526C1.29621 6.58422 1.29516 6.58317 1.29411 6.58212C1.29307 6.58108 1.29202 6.58003 1.29097 6.57898C1.28992 6.57793 1.28886 6.57687 1.28781 6.57582C1.28675 6.57476 1.2857 6.57371 1.28464 6.57265C1.28358 6.57159 1.28252 6.57053 1.28146 6.56947C1.2804 6.56841 1.27934 6.56735 1.27828 6.56629C1.27721 6.56522 1.27614 6.56416 1.27508 6.56309C1.27401 6.56202 1.27294 6.56095 1.27187 6.55988C1.2708 6.55881 1.26972 6.55773 1.26865 6.55666C1.26758 6.55559 1.2665 6.55451 1.26542 6.55343C1.26434 6.55235 1.26326 6.55127 1.26218 6.55019C1.2611 6.54911 1.26002 6.54803 1.25893 6.54694C1.25785 6.54586 1.25676 6.54477 1.25567 6.54368C1.25458 6.5426 1.25349 6.54151 1.2524 6.54041C1.25131 6.53932 1.25022 6.53823 1.24912 6.53713C1.24803 6.53604 1.24693 6.53494 1.24583 6.53384C1.24473 6.53274 1.24363 6.53164 1.24253 6.53054C1.24143 6.52944 1.24033 6.52834 1.23922 6.52723C1.23811 6.52613 1.23701 6.52502 1.2359 6.52391C1.23479 6.5228 1.23368 6.52169 1.23257 6.52058C1.23145 6.51946 1.23034 6.51835 1.22922 6.51724C1.22811 6.51612 1.22699 6.515 1.22587 6.51388C1.22475 6.51276 1.22363 6.51164 1.22251 6.51052C1.22139 6.5094 1.22026 6.50827 1.21914 6.50715C1.21801 6.50602 1.21688 6.50489 1.21575 6.50376C1.21462 6.50263 1.21349 6.5015 1.21236 6.50037C1.21122 6.49924 1.21009 6.4981 1.20895 6.49696C1.20782 6.49583 1.20668 6.49469 1.20554 6.49355C1.2044 6.49241 1.20326 6.49127 1.20211 6.49012C1.20097 6.48898 1.19982 6.48783 1.19868 6.48669C1.19753 6.48554 1.19638 6.48439 1.19523 6.48324C1.19408 6.48209 1.19293 6.48094 1.19177 6.47978C1.19062 6.47863 1.18946 6.47747 1.18831 6.47632C1.18715 6.47516 1.18599 6.474 1.18483 6.47284C1.18367 6.47168 1.1825 6.47051 1.18134 6.46935C1.18018 6.46819 1.17901 6.46702 1.17784 6.46585C1.17667 6.46468 1.1755 6.46351 1.17433 6.46234C1.17316 6.46117 1.17199 6.46 1.17081 6.45882C1.16964 6.45765 1.16846 6.45647 1.16728 6.45529C1.1661 6.45411 1.16492 6.45293 1.16374 6.45175C1.16256 6.45057 1.16137 6.44938 1.16019 6.4482C1.159 6.44701 1.15781 6.44583 1.15663 6.44464C1.15544 6.44345 1.15425 6.44226 1.15305 6.44106C1.15186 6.43987 1.15067 6.43868 1.14947 6.43748C1.14827 6.43628 1.14707 6.43508 1.14587 6.43389C1.14467 6.43269 1.14347 6.43148 1.14227 6.43028C1.14107 6.42908 1.13986 6.42787 1.13865 6.42666C1.13745 6.42546 1.13624 6.42425 1.13503 6.42304C1.13382 6.42183 1.13261 6.42062 1.13139 6.4194C1.13018 6.41819 1.12896 6.41697 1.12774 6.41575C1.12653 6.41454 1.12531 6.41332 1.12409 6.4121C1.12286 6.41087 1.12164 6.40965 1.12042 6.40843C1.11919 6.4072 1.11797 6.40598 1.11674 6.40475C1.11551 6.40352 1.11428 6.40229 1.11305 6.40106C1.11181 6.39983 1.11058 6.39859 1.10935 6.39736C1.10811 6.39612 1.10687 6.39488 1.10563 6.39364C1.10439 6.39241 1.10315 6.39116 1.10191 6.38992C1.10067 6.38868 1.09942 6.38743 1.09818 6.38619C1.09693 6.38494 1.09568 6.38369 1.09443 6.38244C1.09318 6.38119 1.09193 6.37994 1.09068 6.37869C1.08943 6.37744 1.08817 6.37618 1.08691 6.37492C1.08566 6.37367 1.0844 6.37241 1.08314 6.37115C1.08188 6.36989 1.08061 6.36862 1.07935 6.36736C1.07808 6.3661 1.07682 6.36483 1.07555 6.36356C1.07428 6.36229 1.07301 6.36102 1.07174 6.35975C1.07047 6.35848 1.0692 6.35721 1.06792 6.35593C1.06665 6.35466 1.06537 6.35338 1.06409 6.3521C1.06281 6.35082 1.06153 6.34954 1.06025 6.34826C1.05897 6.34698 1.05768 6.34569 1.0564 6.34441C1.05511 6.34312 1.05382 6.34183 1.05253 6.34054C1.05124 6.33925 1.04995 6.33796 1.04866 6.33667C1.04736 6.33538 1.04607 6.33408 1.04477 6.33278C1.04348 6.33149 1.04218 6.33019 1.04088 6.32889C1.03958 6.32759 1.03827 6.32628 1.03697 6.32498C1.03566 6.32368 1.03436 6.32237 1.03305 6.32106C1.03174 6.31975 1.03043 6.31844 1.02912 6.31713C1.02781 6.31582 1.0265 6.31451 1.02518 6.31319C1.02387 6.31188 1.02255 6.31056 1.02123 6.30924C1.01991 6.30792 1.01859 6.3066 1.01727 6.30528C1.01595 6.30396 1.01462 6.30263 1.01329 6.30131C1.01197 6.29998 1.01064 6.29865 1.00931 6.29732C1.00798 6.29599 1.00665 6.29466 1.00532 6.29333C1.00398 6.29199 1.00265 6.29066 1.00131 6.28932C0.999971 6.28798 0.998632 6.28664 0.997291 6.2853C0.99595 6.28396 0.994608 6.28262 0.993263 6.28127C0.991918 6.27993 0.990572 6.27858 0.989223 6.27723C0.987875 6.27589 0.986525 6.27454 0.985173 6.27318C0.98382 6.27183 0.982467 6.27048 0.981111 6.26912C0.979755 6.26777 0.978397 6.26641 0.977038 6.26505C0.975678 6.26369 0.974317 6.26233 0.972954 6.26096C0.971591 6.2596 0.970226 6.25824 0.968859 6.25687C0.967492 6.2555 0.966123 6.25413 0.964752 6.25276C0.963382 6.25139 0.962009 6.25002 0.960635 6.24865C0.95926 6.24727 0.957884 6.24589 0.956506 6.24452C0.955128 6.24314 0.953748 6.24176 0.952366 6.24038C0.950984 6.239 0.949601 6.23761 0.948215 6.23623C0.94683 6.23484 0.945442 6.23345 0.944053 6.23206C0.942664 6.23067 0.941272 6.22928 0.939879 6.22789C0.938486 6.2265 0.937091 6.2251 0.935695 6.22371C0.934298 6.22231 0.932899 6.22091 0.931499 6.21951C0.930098 6.21811 0.928696 6.21671 0.927291 6.2153C0.925887 6.2139 0.924481 6.21249 0.923073 6.21108C0.921665 6.20968 0.920255 6.20827 0.918843 6.20685C0.917431 6.20544 0.916018 6.20403 0.914602 6.20261C0.913187 6.2012 0.911769 6.19978 0.91035 6.19836C0.90893 6.19694 0.907509 6.19552 0.906086 6.1941C0.904663 6.19267 0.903238 6.19125 0.901811 6.18982C0.900384 6.18839 0.898956 6.18697 0.897525 6.18554C0.896094 6.1841 0.894662 6.18267 0.893227 6.18124C0.891793 6.1798 0.890356 6.17837 0.888918 6.17693C0.88748 6.17549 0.88604 6.17405 0.884598 6.17261C0.883156 6.17117 0.881712 6.16972 0.880266 6.16828C0.87882 6.16683 0.877373 6.16538 0.875923 6.16393C0.874473 6.16248 0.873022 6.16103 0.871568 6.15958C0.870115 6.15813 0.86866 6.15667 0.867202 6.15521C0.865745 6.15376 0.864286 6.1523 0.862825 6.15084C0.861364 6.14937 0.859901 6.14791 0.858436 6.14645L0.151329 6.85355C0.152794 6.85502 0.154257 6.85648 0.155718 6.85794C0.157179 6.8594 0.158638 6.86086 0.160096 6.86232C0.161553 6.86378 0.163008 6.86523 0.164462 6.86669C0.165915 6.86814 0.167367 6.86959 0.168816 6.87104C0.170266 6.87249 0.171713 6.87394 0.173159 6.87538C0.174605 6.87683 0.176049 6.87827 0.177491 6.87971C0.178933 6.88116 0.180373 6.8826 0.181811 6.88404C0.18325 6.88547 0.184686 6.88691 0.18612 6.88834C0.187555 6.88978 0.188987 6.89121 0.190418 6.89264C0.191849 6.89407 0.193278 6.8955 0.194704 6.89693C0.196131 6.89836 0.197556 6.89978 0.198979 6.9012C0.200402 6.90263 0.201824 6.90405 0.203243 6.90547C0.204662 6.90689 0.20608 6.9083 0.207495 6.90972C0.208911 6.91113 0.210325 6.91255 0.211736 6.91396C0.213148 6.91537 0.214558 6.91678 0.215966 6.91819C0.217374 6.9196 0.21878 6.921 0.220185 6.92241C0.221589 6.92381 0.222991 6.92522 0.224392 6.92662C0.225792 6.92802 0.227191 6.92942 0.228588 6.93081C0.229985 6.93221 0.23138 6.9336 0.232773 6.935C0.234166 6.93639 0.235557 6.93778 0.236946 6.93917C0.238335 6.94056 0.239723 6.94195 0.241108 6.94333C0.242494 6.94472 0.243878 6.9461 0.245259 6.94748C0.246641 6.94887 0.248021 6.95025 0.249399 6.95162C0.250777 6.953 0.252154 6.95438 0.253528 6.95575C0.254902 6.95713 0.256275 6.9585 0.257646 6.95987C0.259016 6.96124 0.260385 6.96261 0.261752 6.96398C0.263119 6.96534 0.264484 6.96671 0.265847 6.96807C0.26721 6.96943 0.268572 6.9708 0.269931 6.97216C0.271291 6.97351 0.272648 6.97487 0.274004 6.97623C0.27536 6.97758 0.276714 6.97894 0.278066 6.98029C0.279418 6.98164 0.280768 6.98299 0.282116 6.98434C0.283465 6.98569 0.284811 6.98704 0.286156 6.98838C0.287501 6.98972 0.288844 6.99107 0.290185 6.99241C0.291526 6.99375 0.292865 6.99509 0.294202 6.99643C0.295539 6.99776 0.296875 6.9991 0.298208 7.00043C0.299542 7.00177 0.300874 7.0031 0.302204 7.00443C0.303534 7.00576 0.304862 7.00709 0.306188 7.00841C0.307514 7.00974 0.308839 7.01106 0.310161 7.01239C0.311484 7.01371 0.312804 7.01503 0.314123 7.01635C0.315442 7.01767 0.316759 7.01898 0.318075 7.0203C0.31939 7.02161 0.320703 7.02293 0.322015 7.02424C0.323326 7.02555 0.324636 7.02686 0.325944 7.02817C0.327252 7.02948 0.328558 7.03078 0.329862 7.03209C0.331167 7.03339 0.332469 7.03469 0.33377 7.03599C0.33507 7.03729 0.336369 7.03859 0.337666 7.03989C0.338963 7.04119 0.340258 7.04248 0.341551 7.04378C0.342845 7.04507 0.344136 7.04636 0.345426 7.04765C0.346715 7.04894 0.348003 7.05023 0.349289 7.05151C0.350575 7.0528 0.35186 7.05408 0.353142 7.05537C0.354424 7.05665 0.355705 7.05793 0.356984 7.05921C0.358262 7.06049 0.359539 7.06176 0.360815 7.06304C0.36209 7.06431 0.363363 7.06559 0.364635 7.06686C0.365906 7.06813 0.367176 7.0694 0.368444 7.07067C0.369712 7.07194 0.370978 7.0732 0.372242 7.07447C0.373506 7.07573 0.374769 7.07699 0.376029 7.07825C0.37729 7.07951 0.378549 7.08077 0.379806 7.08203C0.381063 7.08329 0.382318 7.08454 0.383572 7.0858C0.384825 7.08705 0.386077 7.0883 0.387327 7.08955C0.388577 7.0908 0.389825 7.09205 0.391071 7.09329C0.392317 7.09454 0.393562 7.09579 0.394804 7.09703C0.396047 7.09827 0.397288 7.09951 0.398527 7.10075C0.399766 7.10199 0.401003 7.10323 0.402239 7.10446C0.403474 7.1057 0.404708 7.10693 0.40594 7.10816C0.407172 7.1094 0.408402 7.11063 0.40963 7.11185C0.410859 7.11308 0.412085 7.11431 0.41331 7.11553C0.414535 7.11676 0.415758 7.11798 0.416979 7.1192C0.4182 7.12042 0.419419 7.12164 0.420637 7.12286C0.421855 7.12408 0.42307 7.12529 0.424284 7.12651C0.425499 7.12772 0.426711 7.12893 0.427921 7.13015C0.429132 7.13136 0.430341 7.13256 0.431547 7.13377C0.432754 7.13498 0.43396 7.13618 0.435163 7.13739C0.436366 7.13859 0.437568 7.13979 0.438768 7.14099C0.439968 7.14219 0.441166 7.14339 0.442362 7.14459C0.443558 7.14578 0.444753 7.14698 0.445946 7.14817C0.447138 7.14936 0.448329 7.15055 0.449519 7.15174C0.450708 7.15293 0.451895 7.15412 0.453081 7.1553C0.454267 7.15649 0.455451 7.15767 0.456633 7.15886C0.457815 7.16004 0.458995 7.16122 0.460174 7.1624C0.461352 7.16358 0.462529 7.16475 0.463704 7.16593C0.46488 7.1671 0.466053 7.16828 0.467225 7.16945C0.468396 7.17062 0.469566 7.17179 0.470734 7.17296C0.471902 7.17413 0.473068 7.17529 0.474233 7.17646C0.475398 7.17762 0.47656 7.17878 0.477721 7.17995C0.478882 7.18111 0.480042 7.18227 0.481199 7.18342C0.482357 7.18458 0.483513 7.18574 0.484667 7.18689C0.485821 7.18804 0.486973 7.1892 0.488124 7.19035C0.489274 7.1915 0.490423 7.19265 0.49157 7.19379C0.492717 7.19494 0.493862 7.19609 0.495006 7.19723C0.49615 7.19837 0.497291 7.19952 0.498431 7.20066C0.499572 7.2018 0.50071 7.20293 0.501847 7.20407C0.502983 7.20521 0.504118 7.20634 0.505251 7.20748C0.506384 7.20861 0.507516 7.20974 0.508645 7.21087C0.509775 7.212 0.510903 7.21313 0.512029 7.21425C0.513155 7.21538 0.51428 7.2165 0.515402 7.21763C0.516525 7.21875 0.517646 7.21987 0.518765 7.22099C0.519885 7.22211 0.521002 7.22323 0.522118 7.22434C0.523234 7.22546 0.524348 7.22657 0.52546 7.22768C0.526573 7.2288 0.527683 7.22991 0.528792 7.23102C0.529901 7.23212 0.531008 7.23323 0.532114 7.23434C0.533219 7.23544 0.534323 7.23655 0.535425 7.23765C0.536527 7.23875 0.537627 7.23985 0.538726 7.24095C0.539824 7.24205 0.540921 7.24314 0.542016 7.24424C0.543111 7.24534 0.544205 7.24643 0.545296 7.24752C0.546388 7.24861 0.547478 7.2497 0.548566 7.25079C0.549655 7.25188 0.550741 7.25296 0.551826 7.25405C0.552911 7.25513 0.553994 7.25622 0.555075 7.2573C0.556157 7.25838 0.557236 7.25946 0.558314 7.26054C0.559392 7.26162 0.560469 7.26269 0.561543 7.26377C0.562618 7.26484 0.563691 7.26591 0.564762 7.26699C0.565833 7.26806 0.566903 7.26913 0.56797 7.27019C0.569038 7.27126 0.570104 7.27233 0.571168 7.27339C0.572233 7.27446 0.573295 7.27552 0.574356 7.27658C0.575417 7.27764 0.576477 7.2787 0.577534 7.27976C0.578592 7.28082 0.579648 7.28187 0.580702 7.28293C0.581756 7.28398 0.582809 7.28503 0.583859 7.28608C0.58491 7.28713 0.585959 7.28818 0.587007 7.28923C0.588054 7.29028 0.5891 7.29132 0.590144 7.29237C0.591188 7.29341 0.59223 7.29445 0.593271 7.29549C0.594311 7.29654 0.59535 7.29757 0.596388 7.29861C0.597425 7.29965 0.59846 7.30068 0.599494 7.30172C0.600528 7.30275 0.60156 7.30378 0.602591 7.30481C0.603622 7.30585 0.60465 7.30687 0.605678 7.3079C0.606705 7.30893 0.60773 7.30995 0.608754 7.31098C0.609778 7.312 0.6108 7.31302 0.61182 7.31404C0.612841 7.31506 0.61386 7.31608 0.614877 7.3171C0.615894 7.31812 0.616909 7.31913 0.617923 7.32015C0.618937 7.32116 0.619949 7.32217 0.620959 7.32318C0.62197 7.32419 0.622979 7.3252 0.623986 7.32621C0.624993 7.32722 0.625998 7.32822 0.627002 7.32923C0.628006 7.33023 0.629008 7.33123 0.630008 7.33223C0.631009 7.33323 0.632007 7.33423 0.633004 7.33523C0.634001 7.33623 0.634997 7.33722 0.635991 7.33821C0.636984 7.33921 0.637976 7.3402 0.638967 7.34119C0.639957 7.34218 0.640946 7.34317 0.641933 7.34416C0.64292 7.34514 0.643906 7.34613 0.64489 7.34711C0.645873 7.3481 0.646856 7.34908 0.647836 7.35006C0.648817 7.35104 0.649795 7.35202 0.650773 7.353C0.65175 7.35397 0.652725 7.35495 0.653699 7.35592C0.654673 7.3569 0.655645 7.35787 0.656616 7.35884C0.657587 7.35981 0.658556 7.36078 0.659523 7.36175C0.66049 7.36271 0.661456 7.36368 0.66242 7.36464C0.663384 7.36561 0.664346 7.36657 0.665307 7.36753C0.666268 7.36849 0.667227 7.36945 0.668184 7.37041C0.669141 7.37137 0.670097 7.37232 0.671051 7.37328C0.672006 7.37423 0.672958 7.37518 0.673909 7.37613C0.67486 7.37708 0.675809 7.37803 0.676757 7.37898C0.677704 7.37993 0.67865 7.38087 0.679595 7.38182C0.680539 7.38276 0.681482 7.38371 0.682423 7.38465C0.683364 7.38559 0.684303 7.38653 0.685241 7.38747C0.686179 7.3884 0.687115 7.38934 0.68805 7.39027C0.688984 7.39121 0.689917 7.39214 0.690848 7.39307C0.69178 7.394 0.692709 7.39493 0.693637 7.39586C0.694565 7.39679 0.695492 7.39772 0.696417 7.39864C0.697341 7.39957 0.698265 7.40049 0.699186 7.40141C0.700108 7.40233 0.701028 7.40325 0.701946 7.40417C0.702864 7.40509 0.703781 7.406 0.704696 7.40692C0.705611 7.40784 0.706525 7.40875 0.707436 7.40966C0.708348 7.41057 0.709258 7.41148 0.710167 7.41239C0.711076 7.4133 0.711983 7.41421 0.712888 7.41511C0.713793 7.41602 0.714697 7.41692 0.715599 7.41782C0.716502 7.41873 0.717402 7.41963 0.718301 7.42053C0.7192 7.42142 0.720097 7.42232 0.720993 7.42322C0.721889 7.42411 0.722783 7.42501 0.723676 7.4259C0.724568 7.42679 0.725459 7.42768 0.726348 7.42857C0.727238 7.42946 0.728125 7.43035 0.729012 7.43124C0.729898 7.43212 0.730782 7.43301 0.731665 7.43389C0.732548 7.43477 0.733429 7.43565 0.734309 7.43653C0.735189 7.43741 0.736067 7.43829 0.736944 7.43917C0.73782 7.44004 0.738695 7.44092 0.739568 7.44179C0.740442 7.44267 0.741314 7.44354 0.742184 7.44441C0.743054 7.44528 0.743923 7.44615 0.74479 7.44701C0.745657 7.44788 0.746522 7.44875 0.747386 7.44961C0.74825 7.45047 0.749112 7.45134 0.749972 7.4522C0.750833 7.45306 0.751692 7.45392 0.75255 7.45477C0.753407 7.45563 0.754263 7.45649 0.755117 7.45734C0.755972 7.4582 0.756824 7.45905 0.757676 7.4599C0.758527 7.46075 0.759376 7.4616 0.760224 7.46245C0.761072 7.4633 0.761919 7.46414 0.762764 7.46499C0.763608 7.46583 0.764452 7.46668 0.765293 7.46752C0.766135 7.46836 0.766975 7.4692 0.767814 7.47004C0.768652 7.47088 0.769489 7.47171 0.770325 7.47255C0.77116 7.47338 0.771994 7.47422 0.772826 7.47505C0.773658 7.47588 0.774489 7.47671 0.775318 7.47754C0.776147 7.47837 0.776975 7.4792 0.777801 7.48002C0.778627 7.48085 0.779451 7.48168 0.780274 7.4825C0.781097 7.48332 0.781918 7.48414 0.782738 7.48496C0.783558 7.48578 0.784376 7.4866 0.785193 7.48742C0.786009 7.48823 0.786824 7.48905 0.787638 7.48986C0.788451 7.49068 0.789263 7.49149 0.790074 7.4923C0.790884 7.49311 0.791693 7.49392 0.7925 7.49472C0.793308 7.49553 0.794113 7.49634 0.794918 7.49714C0.795722 7.49795 0.796524 7.49875 0.797326 7.49955C0.798127 7.50035 0.798926 7.50115 0.799724 7.50195C0.800522 7.50275 0.801319 7.50354 0.802113 7.50434C0.802908 7.50513 0.803702 7.50593 0.804493 7.50672C0.805285 7.50751 0.806076 7.5083 0.806864 7.50909C0.807653 7.50988 0.80844 7.51066 0.809226 7.51145C0.810011 7.51224 0.810796 7.51302 0.811578 7.5138C0.812361 7.51458 0.813142 7.51537 0.813921 7.51615C0.814701 7.51692 0.815479 7.5177 0.816255 7.51848C0.817031 7.51926 0.817806 7.52003 0.81858 7.5208C0.819353 7.52158 0.820125 7.52235 0.820895 7.52312C0.821665 7.52389 0.822434 7.52466 0.823201 7.52543C0.823969 7.52619 0.824734 7.52696 0.825498 7.52772C0.826263 7.52849 0.827025 7.52925 0.827786 7.53001C0.828547 7.53077 0.829307 7.53153 0.830065 7.53229C0.830823 7.53305 0.83158 7.5338 0.832335 7.53456C0.83309 7.53531 0.833843 7.53607 0.834595 7.53682C0.835347 7.53757 0.836098 7.53832 0.836846 7.53907C0.837595 7.53982 0.838343 7.54057 0.839089 7.54131C0.839835 7.54206 0.840579 7.5428 0.841322 7.54355C0.842065 7.54429 0.842806 7.54503 0.843546 7.54577C0.844286 7.54651 0.845024 7.54725 0.845761 7.54799C0.846498 7.54872 0.847233 7.54946 0.847967 7.55019C0.848701 7.55092 0.849433 7.55166 0.850164 7.55239C0.850895 7.55312 0.851624 7.55385 0.852352 7.55458C0.853079 7.5553 0.853806 7.55603 0.85453 7.55675C0.855255 7.55748 0.855978 7.5582 0.8567 7.55892C0.857422 7.55965 0.858142 7.56037 0.858861 7.56108C0.85958 7.5618 0.860297 7.56252 0.861013 7.56324C0.861728 7.56395 0.862443 7.56467 0.863156 7.56538C0.863868 7.56609 0.86458 7.5668 0.865289 7.56751C0.865999 7.56822 0.866707 7.56893 0.867414 7.56964C0.868121 7.57034 0.868826 7.57105 0.86953 7.57175C0.870234 7.57246 0.870936 7.57316 0.871637 7.57386C0.872338 7.57456 0.873037 7.57526 0.873735 7.57596C0.874433 7.57666 0.875129 7.57735 0.875824 7.57805C0.876519 7.57874 0.877213 7.57944 0.877904 7.58013C0.878596 7.58082 0.879287 7.58151 0.879976 7.5822C0.880665 7.58289 0.881352 7.58358 0.882038 7.58426C0.882724 7.58495 0.883409 7.58563 0.884092 7.58632C0.884775 7.587 0.885456 7.58768 0.886136 7.58836C0.886817 7.58904 0.887495 7.58972 0.888172 7.5904C0.888849 7.59107 0.889525 7.59175 0.890199 7.59242C0.890873 7.5931 0.891546 7.59377 0.892217 7.59444C0.892889 7.59511 0.893559 7.59578 0.894227 7.59645C0.894895 7.59712 0.895562 7.59779 0.896227 7.59845C0.896893 7.59912 0.897557 7.59978 0.898219 7.60044C0.898882 7.60111 0.899543 7.60177 0.900202 7.60243C0.900862 7.60309 0.90152 7.60374 0.902176 7.6044C0.902833 7.60506 0.903488 7.60571 0.904142 7.60637C0.904795 7.60702 0.905448 7.60767 0.906098 7.60832C0.906749 7.60897 0.907398 7.60962 0.908046 7.61027C0.908694 7.61092 0.909341 7.61156 0.909986 7.61221C0.910631 7.61285 0.911274 7.6135 0.911916 7.61414C0.912558 7.61478 0.913199 7.61542 0.913838 7.61606C0.914477 7.6167 0.915115 7.61734 0.915751 7.61797C0.916387 7.61861 0.917022 7.61925 0.917655 7.61988C0.918289 7.62051 0.918921 7.62114 0.919551 7.62178C0.920182 7.62241 0.920811 7.62303 0.921438 7.62366C0.922066 7.62429 0.922692 7.62492 0.923317 7.62554C0.923941 7.62617 0.924565 7.62679 0.925186 7.62741C0.925808 7.62803 0.926429 7.62865 0.927048 7.62927C0.927667 7.62989 0.928284 7.63051 0.9289 7.63112C0.929516 7.63174 0.930131 7.63235 0.930744 7.63297C0.931357 7.63358 0.931969 7.63419 0.932579 7.6348C0.93319 7.63541 0.933799 7.63602 0.934406 7.63663C0.935014 7.63724 0.93562 7.63784 0.936224 7.63845C0.936829 7.63905 0.937432 7.63966 0.938034 7.64026C0.938636 7.64086 0.939236 7.64146 0.939835 7.64206C0.940434 7.64266 0.941032 7.64326 0.941628 7.64385C0.942224 7.64445 0.942818 7.64504 0.943412 7.64564C0.944005 7.64623 0.944597 7.64682 0.945187 7.64741C0.945778 7.648 0.946367 7.64859 0.946954 7.64918C0.947542 7.64977 0.948128 7.65035 0.948713 7.65094C0.949297 7.65152 0.949881 7.6521 0.950463 7.65269C0.951045 7.65327 0.951625 7.65385 0.952204 7.65443C0.952783 7.65501 0.953361 7.65558 0.953937 7.65616C0.954514 7.65674 0.955088 7.65731 0.955662 7.65789C0.956235 7.65846 0.956807 7.65903 0.957378 7.6596C0.957949 7.66017 0.958518 7.66074 0.959086 7.66131C0.959654 7.66188 0.96022 7.66244 0.960785 7.66301C0.96135 7.66357 0.961914 7.66414 0.962476 7.6647C0.963039 7.66526 0.963599 7.66582 0.964159 7.66638C0.964718 7.66694 0.965276 7.6675 0.965833 7.66806C0.96639 7.66861 0.966945 7.66917 0.967499 7.66972C0.968053 7.67028 0.968605 7.67083 0.969156 7.67138C0.969707 7.67193 0.970257 7.67248 0.970805 7.67303C0.971354 7.67358 0.971901 7.67412 0.972446 7.67467C0.972992 7.67522 0.973536 7.67576 0.974079 7.6763C0.974621 7.67685 0.975163 7.67739 0.975703 7.67793C0.976243 7.67847 0.976781 7.67901 0.977318 7.67954C0.977856 7.68008 0.978392 7.68062 0.978926 7.68115C0.979461 7.68168 0.979994 7.68222 0.980525 7.68275C0.981057 7.68328 0.981587 7.68381 0.982116 7.68434C0.982645 7.68487 0.983173 7.6854 0.983699 7.68592C0.984225 7.68645 0.98475 7.68697 0.985273 7.6875C0.985797 7.68802 0.986319 7.68854 0.98684 7.68906C0.98736 7.68958 0.98788 7.6901 0.988398 7.69062C0.988916 7.69114 0.989432 7.69166 0.989947 7.69217C0.990463 7.69269 0.990977 7.6932 0.991489 7.69371C0.992002 7.69423 0.992513 7.69474 0.993022 7.69525C0.993532 7.69576 0.994041 7.69626 0.994548 7.69677C0.995055 7.69728 0.99556 7.69778 0.996065 7.69829C0.996569 7.69879 0.997072 7.6993 0.997574 7.6998C0.998075 7.7003 0.998575 7.7008 0.999074 7.7013C0.999573 7.7018 1.00007 7.70229 1.00057 7.70279C1.00106 7.70329 1.00156 7.70378 1.00205 7.70428C1.00254 7.70477 1.00304 7.70526 1.00353 7.70575C1.00402 7.70624 1.00451 7.70673 1.005 7.70722C1.00548 7.70771 1.00597 7.70819 1.00646 7.70868C1.00694 7.70917 1.00743 7.70965 1.00791 7.71013C1.00839 7.71062 1.00887 7.7111 1.00935 7.71158C1.00983 7.71206 1.01031 7.71253 1.01079 7.71301C1.01127 7.71349 1.01174 7.71397 1.01222 7.71444C1.01269 7.71491 1.01316 7.71539 1.01364 7.71586C1.01411 7.71633 1.01458 7.7168 1.01505 7.71727C1.01552 7.71774 1.01599 7.71821 1.01645 7.71868C1.01692 7.71914 1.01738 7.71961 1.01785 7.72007C1.01831 7.72054 1.01877 7.721 1.01924 7.72146C1.0197 7.72192 1.02016 7.72238 1.02062 7.72284C1.02107 7.7233 1.02153 7.72376 1.02199 7.72421C1.02244 7.72467 1.0229 7.72512 1.02335 7.72558C1.0238 7.72603 1.02426 7.72648 1.02471 7.72693C1.02516 7.72738 1.02561 7.72783 1.02606 7.72828C1.0265 7.72873 1.02695 7.72917 1.0274 7.72962C1.02784 7.73006 1.02828 7.73051 1.02873 7.73095C1.02917 7.73139 1.02961 7.73184 1.03005 7.73228C1.03049 7.73272 1.03093 7.73315 1.03137 7.73359C1.03181 7.73403 1.03224 7.73447 1.03268 7.7349C1.03311 7.73534 1.03355 7.73577 1.03398 7.7362C1.03441 7.73663 1.03484 7.73706 1.03527 7.73749C1.0357 7.73792 1.03613 7.73835 1.03656 7.73878C1.03698 7.73921 1.03741 7.73963 1.03783 7.74006C1.03826 7.74048 1.03868 7.7409 1.0391 7.74133C1.03952 7.74175 1.03994 7.74217 1.04036 7.74259C1.04078 7.74301 1.0412 7.74342 1.04162 7.74384C1.04203 7.74426 1.04245 7.74467 1.04286 7.74509C1.04328 7.7455 1.04369 7.74591 1.0441 7.74633C1.04451 7.74674 1.04492 7.74715 1.04533 7.74756C1.04574 7.74796 1.04615 7.74837 1.04655 7.74878C1.04696 7.74918 1.04737 7.74959 1.04777 7.74999C1.04817 7.7504 1.04858 7.7508 1.04898 7.7512C1.04938 7.7516 1.04978 7.752 1.05018 7.7524C1.05057 7.7528 1.05097 7.7532 1.05137 7.75359C1.05176 7.75399 1.05216 7.75438 1.05255 7.75478C1.05295 7.75517 1.05334 7.75556 1.05373 7.75595C1.05412 7.75634 1.05451 7.75673 1.0549 7.75712C1.05528 7.75751 1.05567 7.7579 1.05606 7.75828C1.05644 7.75867 1.05683 7.75905 1.05721 7.75943C1.05759 7.75982 1.05798 7.7602 1.05836 7.76058C1.05874 7.76096 1.05912 7.76134 1.05949 7.76172C1.05987 7.7621 1.06025 7.76247 1.06063 7.76285C1.061 7.76322 1.06137 7.7636 1.06175 7.76397C1.06212 7.76434 1.06249 7.76472 1.06286 7.76509C1.06323 7.76546 1.0636 7.76583 1.06397 7.76619C1.06434 7.76656 1.06471 7.76693 1.06507 7.76729C1.06544 7.76766 1.0658 7.76802 1.06616 7.76839C1.06653 7.76875 1.06689 7.76911 1.06725 7.76947C1.06761 7.76983 1.06797 7.77019 1.06833 7.77055C1.06868 7.77091 1.06904 7.77126 1.0694 7.77162C1.06975 7.77198 1.0701 7.77233 1.07046 7.77268C1.07081 7.77303 1.07116 7.77339 1.07151 7.77374C1.07186 7.77409 1.07221 7.77444 1.07256 7.77478C1.07291 7.77513 1.07325 7.77548 1.0736 7.77582C1.07395 7.77617 1.07429 7.77651 1.07463 7.77686C1.07498 7.7772 1.07532 7.77754 1.07566 7.77788C1.076 7.77822 1.07634 7.77856 1.07667 7.7789C1.07701 7.77924 1.07735 7.77957 1.07768 7.77991C1.07802 7.78024 1.07835 7.78058 1.07869 7.78091C1.07902 7.78124 1.07935 7.78158 1.07968 7.78191C1.08001 7.78224 1.08034 7.78257 1.08067 7.78289C1.081 7.78322 1.08132 7.78355 1.08165 7.78387C1.08198 7.7842 1.0823 7.78452 1.08262 7.78485C1.08295 7.78517 1.08327 7.78549 1.08359 7.78581C1.08391 7.78613 1.08423 7.78645 1.08455 7.78677C1.08487 7.78709 1.08518 7.78741 1.0855 7.78772C1.08581 7.78804 1.08613 7.78835 1.08644 7.78867C1.08675 7.78898 1.08707 7.78929 1.08738 7.7896C1.08769 7.78991 1.088 7.79022 1.08831 7.79053C1.08861 7.79084 1.08892 7.79115 1.08923 7.79145C1.08953 7.79176 1.08984 7.79206 1.09014 7.79237C1.09045 7.79267 1.09075 7.79297 1.09105 7.79327C1.09135 7.79357 1.09165 7.79387 1.09195 7.79417C1.09225 7.79447 1.09255 7.79477 1.09284 7.79507C1.09314 7.79536 1.09343 7.79566 1.09373 7.79595C1.09402 7.79624 1.09431 7.79654 1.0946 7.79683C1.0949 7.79712 1.09519 7.79741 1.09548 7.7977C1.09576 7.79799 1.09605 7.79828 1.09634 7.79856C1.09663 7.79885 1.09691 7.79913 1.09719 7.79942C1.09748 7.7997 1.09776 7.79999 1.09804 7.80027C1.09833 7.80055 1.09861 7.80083 1.09889 7.80111C1.09917 7.80139 1.09944 7.80167 1.09972 7.80194C1.1 7.80222 1.10027 7.8025 1.10055 7.80277C1.10082 7.80305 1.1011 7.80332 1.10137 7.80359C1.10164 7.80386 1.10191 7.80414 1.10218 7.80441C1.10245 7.80468 1.10272 7.80494 1.10299 7.80521C1.10326 7.80548 1.10352 7.80575 1.10379 7.80601C1.10405 7.80628 1.10432 7.80654 1.10458 7.8068C1.10484 7.80707 1.1051 7.80733 1.10536 7.80759C1.10562 7.80785 1.10588 7.80811 1.10614 7.80837C1.1064 7.80862 1.10666 7.80888 1.10691 7.80914C1.10717 7.80939 1.10742 7.80965 1.10768 7.8099C1.10793 7.81015 1.10818 7.81041 1.10843 7.81066C1.10868 7.81091 1.10893 7.81116 1.10918 7.81141C1.10943 7.81165 1.10968 7.8119 1.10992 7.81215C1.11017 7.81239 1.11042 7.81264 1.11066 7.81288C1.1109 7.81313 1.11115 7.81337 1.11139 7.81361C1.11163 7.81385 1.11187 7.81409 1.11211 7.81433C1.11235 7.81457 1.11259 7.81481 1.11282 7.81505C1.11306 7.81528 1.1133 7.81552 1.11353 7.81576C1.11377 7.81599 1.114 7.81622 1.11423 7.81646C1.11446 7.81669 1.1147 7.81692 1.11493 7.81715C1.11516 7.81738 1.11538 7.81761 1.11561 7.81784C1.11584 7.81806 1.11607 7.81829 1.11629 7.81852C1.11652 7.81874 1.11674 7.81897 1.11696 7.81919C1.11719 7.81941 1.11741 7.81963 1.11763 7.81985C1.11785 7.82008 1.11807 7.82029 1.11829 7.82051C1.11851 7.82073 1.11873 7.82095 1.11894 7.82117C1.11916 7.82138 1.11937 7.8216 1.11959 7.82181C1.1198 7.82202 1.12001 7.82224 1.12023 7.82245C1.12044 7.82266 1.12065 7.82287 1.12086 7.82308C1.12107 7.82329 1.12127 7.8235 1.12148 7.82371C1.12169 7.82391 1.12189 7.82412 1.1221 7.82432C1.1223 7.82453 1.12251 7.82473 1.12271 7.82493C1.12291 7.82514 1.12311 7.82534 1.12331 7.82554C1.12351 7.82574 1.12371 7.82594 1.12391 7.82614C1.12411 7.82633 1.12431 7.82653 1.1245 7.82673C1.1247 7.82692 1.12489 7.82712 1.12509 7.82731C1.12528 7.8275 1.12547 7.8277 1.12566 7.82789C1.12585 7.82808 1.12604 7.82827 1.12623 7.82846C1.12642 7.82865 1.12661 7.82883 1.1268 7.82902C1.12698 7.82921 1.12717 7.82939 1.12735 7.82958C1.12754 7.82976 1.12772 7.82995 1.1279 7.83013C1.12809 7.83031 1.12827 7.83049 1.12845 7.83067C1.12863 7.83085 1.12881 7.83103 1.12898 7.83121C1.12916 7.83139 1.12934 7.83156 1.12951 7.83174C1.12969 7.83191 1.12986 7.83209 1.13004 7.83226C1.13021 7.83244 1.13038 7.83261 1.13055 7.83278C1.13073 7.83295 1.1309 7.83312 1.13106 7.83329C1.13123 7.83346 1.1314 7.83363 1.13157 7.83379C1.13174 7.83396 1.1319 7.83412 1.13207 7.83429C1.13223 7.83445 1.13239 7.83462 1.13256 7.83478C1.13272 7.83494 1.13288 7.8351 1.13304 7.83526C1.1332 7.83542 1.13336 7.83558 1.13352 7.83574C1.13367 7.8359 1.13383 7.83605 1.13399 7.83621C1.13414 7.83637 1.1343 7.83652 1.13445 7.83667C1.1346 7.83683 1.13476 7.83698 1.13491 7.83713C1.13506 7.83728 1.13521 7.83743 1.13536 7.83758C1.13551 7.83773 1.13566 7.83788 1.1358 7.83803C1.13595 7.83817 1.1361 7.83832 1.13624 7.83846C1.13639 7.83861 1.13653 7.83875 1.13667 7.8389C1.13681 7.83904 1.13696 7.83918 1.1371 7.83932C1.13724 7.83946 1.13738 7.8396 1.13751 7.83974C1.13765 7.83988 1.13779 7.84001 1.13793 7.84015C1.13806 7.84029 1.1382 7.84042 1.13833 7.84056C1.13847 7.84069 1.1386 7.84082 1.13873 7.84095C1.13886 7.84109 1.13899 7.84122 1.13912 7.84135C1.13925 7.84148 1.13938 7.8416 1.13951 7.84173C1.13964 7.84186 1.13976 7.84199 1.13989 7.84211C1.14001 7.84224 1.14014 7.84236 1.14026 7.84248C1.14038 7.84261 1.14051 7.84273 1.14063 7.84285C1.14075 7.84297 1.14087 7.84309 1.14099 7.84321C1.14111 7.84333 1.14122 7.84345 1.14134 7.84357C1.14146 7.84368 1.14157 7.8438 1.14169 7.84391C1.1418 7.84403 1.14192 7.84414 1.14203 7.84425C1.14214 7.84437 1.14225 7.84448 1.14236 7.84459C1.14248 7.8447 1.14258 7.84481 1.14269 7.84492C1.1428 7.84503 1.14291 7.84513 1.14302 7.84524C1.14312 7.84535 1.14323 7.84545 1.14333 7.84556C1.14344 7.84566 1.14354 7.84576 1.14364 7.84586C1.14374 7.84597 1.14384 7.84607 1.14394 7.84617C1.14404 7.84627 1.14414 7.84637 1.14424 7.84647C1.14434 7.84656 1.14444 7.84666 1.14453 7.84676C1.14463 7.84685 1.14472 7.84695 1.14482 7.84704C1.14491 7.84713 1.145 7.84723 1.14509 7.84732C1.14519 7.84741 1.14528 7.8475 1.14537 7.84759C1.14546 7.84768 1.14554 7.84777 1.14563 7.84786C1.14572 7.84794 1.14581 7.84803 1.14589 7.84812C1.14598 7.8482 1.14606 7.84829 1.14614 7.84837C1.14623 7.84845 1.14631 7.84853 1.14639 7.84862C1.14647 7.8487 1.14655 7.84878 1.14663 7.84886C1.14671 7.84894 1.14679 7.84901 1.14687 7.84909C1.14694 7.84917 1.14702 7.84924 1.1471 7.84932C1.14717 7.84939 1.14725 7.84947 1.14732 7.84954C1.14739 7.84962 1.14746 7.84969 1.14753 7.84976C1.14761 7.84983 1.14768 7.8499 1.14774 7.84997C1.14781 7.85004 1.14788 7.85011 1.14795 7.85017C1.14802 7.85024 1.14808 7.85031 1.14815 7.85037C1.14821 7.85044 1.14828 7.8505 1.14834 7.85056C1.1484 7.85063 1.14846 7.85069 1.14852 7.85075C1.14859 7.85081 1.14865 7.85087 1.1487 7.85093C1.14876 7.85099 1.14882 7.85105 1.14888 7.8511C1.14893 7.85116 1.14899 7.85121 1.14905 7.85127C1.1491 7.85132 1.14915 7.85138 1.14921 7.85143C1.14926 7.85148 1.14931 7.85154 1.14936 7.85159C1.14941 7.85164 1.14946 7.85169 1.14951 7.85174C1.14956 7.85179 1.14961 7.85183 1.14966 7.85188C1.1497 7.85193 1.14975 7.85197 1.14979 7.85202C1.14984 7.85206 1.14988 7.85211 1.14992 7.85215C1.14997 7.85219 1.15001 7.85223 1.15005 7.85227C1.15009 7.85232 1.15013 7.85236 1.15017 7.85239C1.15021 7.85243 1.15025 7.85247 1.15028 7.85251C1.15032 7.85254 1.15036 7.85258 1.15039 7.85262C1.15043 7.85265 1.15046 7.85268 1.15049 7.85272C1.15053 7.85275 1.15056 7.85278 1.15059 7.85281C1.15062 7.85284 1.15065 7.85287 1.15068 7.8529C1.15071 7.85293 1.15074 7.85296 1.15076 7.85299C1.15079 7.85301 1.15082 7.85304 1.15084 7.85307C1.15087 7.85309 1.15089 7.85312 1.15091 7.85314C1.15094 7.85316 1.15096 7.85318 1.15098 7.8532C1.151 7.85323 1.15102 7.85325 1.15104 7.85327C1.15106 7.85328 1.15108 7.8533 1.1511 7.85332C1.15111 7.85334 1.15113 7.85335 1.15115 7.85337C1.15116 7.85338 1.15118 7.8534 1.15119 7.85341C1.1512 7.85343 1.15121 7.85344 1.15123 7.85345C1.15124 7.85346 1.15125 7.85347 1.15126 7.85348C1.15127 7.85349 1.15128 7.8535 1.15128 7.85351C1.15129 7.85352 1.1513 7.85352 1.1513 7.85353C1.15131 7.85353 1.15131 7.85354 1.15132 7.85354C1.15132 7.85355 1.15132 7.85355 1.15133 7.85355C1.15133 7.85355 1.15133 7.85355 1.50488 7.5ZM4.50488 1H7.50488V0H4.50488V1ZM4.50488 3H6.50488V2H4.50488V3ZM4.50488 5H5.50488V4H4.50488V5ZM4.50488 7H4.55488V6H4.50488V7Z"/>
</svg>
