<svg width="12" height="16" viewBox="0 0 12 16" fill="none" xmlns="http://www.w3.org/2000/svg">
    <path class="svg-stroke"  fill-rule="evenodd" clip-rule="evenodd" d="M6 8C7.38071 8 8.5 6.88071 8.5 5.5C8.5 4.11929 7.38071 3 6 3C4.61929 3 3.5 4.11929 3.5 5.5C3.5 6.88071 4.61929 8 6 8Z" stroke-linecap="round" stroke-linejoin="round"/>
    <path class="svg-stroke"  fill-rule="evenodd" clip-rule="evenodd" d="M6 0.5C8.76142 0.5 11 2.73858 11 5.5C11 7.77133 7.61733 13.4667 6.41667 15.2767C6.32403 15.4163 6.16759 15.5003 6 15.5003C5.83241 15.5003 5.67597 15.4163 5.58333 15.2767C4.38267 13.4667 1 7.77133 1 5.5C1 2.73858 3.23858 0.5 6 0.5Z"  stroke-linecap="round" stroke-linejoin="round"/>
</svg>
