<svg width="9" height="8" viewBox="0 0 9 8" fill="none" xmlns="http://www.w3.org/2000/svg">
    <path class="svg-fill" d="M4.0014 7.99948L0.592402 3.93548C0.288503 3.57079 0.0921697 3.12867 0.0254058 2.65868C-0.0413581 2.18868 0.0240854 1.70938 0.214402 1.27448C0.307453 1.01554 0.455409 0.779785 0.648123 0.583389C0.840837 0.386994 1.07375 0.234603 1.33089 0.136669C1.58802 0.0387352 1.8633 -0.00242455 2.13783 0.0160122C2.41237 0.0344489 2.67967 0.112047 2.9214 0.243483C3.11887 0.357348 3.29597 0.503351 3.4454 0.675482L4.0024 1.31148L4.5594 0.675482C4.73236 0.464334 4.95004 0.294216 5.19673 0.177404C5.44342 0.0605925 5.71296 0 5.9859 0C6.25885 0 6.52839 0.0605925 6.77508 0.177404C7.02176 0.294216 7.23944 0.464334 7.4124 0.675482C7.56837 0.854958 7.69585 1.05732 7.7904 1.27548C7.98072 1.71038 8.04616 2.18968 7.9794 2.65968C7.91263 3.12967 7.7163 3.57179 7.4124 3.93648L4.0014 7.99948Z"/>
</svg>
