<svg width="16" height="16" viewBox="0 0 16 16" fill="none" xmlns="http://www.w3.org/2000/svg">
    <path class="svg-stroke"  d="M12.5502 8.24935L13.3842 9.75068H15.0382C15.2886 9.74685 15.4946 9.94667 15.4985 10.197C15.5004 10.3204 15.4519 10.4392 15.3642 10.526L13.8456 12.1834L14.6869 14.1167C14.7841 14.3506 14.6733 14.619 14.4393 14.7162C14.3076 14.771 14.1578 14.7613 14.0342 14.69L12.0002 13.5454L9.96691 14.6894C9.74774 14.8164 9.4671 14.7417 9.34008 14.5225C9.26827 14.3986 9.25846 14.2482 9.31357 14.116L10.1269 12.2494M3.45024 8.24935L2.61624 9.75068H0.962237C0.711897 9.74685 0.505844 9.94667 0.502006 10.197C0.500115 10.3204 0.548587 10.4392 0.636237 10.526L2.1549 12.1834L1.31357 14.1167C1.21638 14.3506 1.32722 14.619 1.56115 14.7162C1.69291 14.771 1.84263 14.7613 1.96624 14.69L4.00024 13.5454L6.03357 14.6894C6.25274 14.8164 6.53338 14.7417 6.6604 14.5225C6.73221 14.3986 6.74202 14.2482 6.68691 14.116L5.87357 12.2494M8.24557 1.42735L9.57157 4.07868L12.1229 4.33401C12.3006 4.35219 12.4298 4.51094 12.4116 4.68858C12.4041 4.76244 12.3713 4.83145 12.3189 4.88401L10.2176 6.98535L10.9962 9.84068C11.0432 10.0126 10.9418 10.19 10.7699 10.2369C10.6931 10.2579 10.6114 10.2497 10.5402 10.214L7.95691 8.92268L5.37357 10.214C5.21408 10.2935 5.02035 10.2287 4.94085 10.0692C4.90555 9.99836 4.8975 9.91704 4.91824 9.84068L5.69691 6.98535L3.59557 4.88401C3.46912 4.75792 3.46884 4.5532 3.59493 4.42675C3.64771 4.37382 3.7172 4.34082 3.79157 4.33335L6.34224 4.07801L7.66691 1.42735C7.74579 1.26755 7.93927 1.20196 8.09907 1.28084C8.16268 1.31224 8.21417 1.36373 8.24557 1.42735Z" stroke-linecap="round" stroke-linejoin="round"/>
</svg>
