<svg width="16" height="16" viewBox="0 0 16 16" fill="none" xmlns="http://www.w3.org/2000/svg">
    <path class="svg-stroke" id="svg-stroke" fill-rule="evenodd" clip-rule="evenodd" d="M7.03067 1.62533C7.27807 1.89997 7.63036 2.05676 8 2.05676C8.36964 2.05676 8.72193 1.89997 8.96933 1.62533L9.6 0.933335C9.97037 0.52343 10.5586 0.390907 11.069 0.602388C11.5793 0.813869 11.9014 1.3236 11.8733 1.87533L11.826 2.80867C11.8075 3.17685 11.9455 3.53569 12.206 3.79656C12.4665 4.05742 12.8251 4.19598 13.1933 4.178L14.1267 4.13067C14.678 4.10349 15.1869 4.4259 15.3979 4.93605C15.6088 5.44619 15.4762 6.03386 15.0667 6.404L14.372 7.03067C14.0977 7.27841 13.9412 7.63073 13.9412 8.00033C13.9412 8.36994 14.0977 8.72226 14.372 8.97L15.0667 9.59667C15.4766 9.96704 15.6091 10.5553 15.3976 11.0656C15.1861 11.576 14.6764 11.8981 14.1247 11.87L13.1913 11.8227C12.8223 11.8037 12.4625 11.942 12.2013 12.2033C11.94 12.4645 11.8017 12.8243 11.8207 13.1933L11.868 14.1267C11.8924 14.6755 11.5708 15.1809 11.0633 15.3913C10.5558 15.6016 9.97096 15.4719 9.6 15.0667L8.97267 14.3727C8.72504 14.0984 8.37283 13.9419 8.00333 13.9419C7.63383 13.9419 7.28162 14.0984 7.034 14.3727L6.404 15.0667C6.0336 15.4738 5.4477 15.605 4.93903 15.3947C4.43036 15.1845 4.10813 14.6778 4.13333 14.128L4.18133 13.1947C4.20032 12.8257 4.06201 12.4659 3.80073 12.2046C3.53945 11.9433 3.17968 11.805 2.81067 11.824L1.87733 11.8713C1.32582 11.9001 0.815873 11.5787 0.603922 11.0687C0.39197 10.5588 0.523885 9.9706 0.933333 9.6L1.62733 8.97333C1.90161 8.72559 2.05814 8.37327 2.05814 8.00367C2.05814 7.63406 1.90161 7.28175 1.62733 7.034L0.933333 6.404C0.525259 6.03383 0.393539 5.44731 0.604148 4.9382C0.814758 4.42909 1.32234 4.10703 1.87267 4.13333L2.806 4.18067C3.17573 4.20011 3.53632 4.06162 3.79799 3.7997C4.05966 3.53777 4.1978 3.17705 4.178 2.80733L4.13333 1.87334C4.10753 1.32325 4.42954 0.816081 4.93836 0.605444C5.44717 0.394806 6.03344 0.525966 6.404 0.933335L7.03067 1.62533Z" stroke-linecap="round" stroke-linejoin="round"/>
    <path class="svg-stroke" id="svg-stroke" fill-rule="evenodd" clip-rule="evenodd" d="M8 11.0007C9.65685 11.0007 11 9.65753 11 8.00067C11 6.34382 9.65685 5.00067 8 5.00067C6.34315 5.00067 5 6.34382 5 8.00067C5 9.65753 6.34315 11.0007 8 11.0007Z" stroke-linecap="round" stroke-linejoin="round"/>
</svg>
