<svg width="16" height="16" viewBox="0 0 16 16" fill="none" xmlns="http://www.w3.org/2000/svg">
<path class="svg-stroke" fill-rule="evenodd" clip-rule="evenodd" d="M0.707031 1.70667V5.878C0.706968 6.40829 0.91751 6.9169 1.29236 7.292L8.9997 15C9.3902 15.3904 10.0232 15.3904 10.4137 15L14.9997 10.4133C15.3901 10.0228 15.3901 9.38983 14.9997 8.99933L7.29237 1.292C6.91727 0.917144 6.40866 0.706602 5.87836 0.706665H1.70703C1.15475 0.706665 0.707031 1.15438 0.707031 1.70667Z" stroke-linecap="round" stroke-linejoin="round"/>
<path class="svg-stroke" fill-rule="evenodd" clip-rule="evenodd" d="M4.20703 5.20667C4.75932 5.20667 5.20703 4.75895 5.20703 4.20667C5.20703 3.65438 4.75932 3.20667 4.20703 3.20667C3.65475 3.20667 3.20703 3.65438 3.20703 4.20667C3.20703 4.75895 3.65475 5.20667 4.20703 5.20667Z" stroke-linecap="round" stroke-linejoin="round"/>
</svg>
