<svg width="16" height="16" viewBox="0 0 16 16" fill="none" xmlns="http://www.w3.org/2000/svg">
    <path class="svg-stroke" id="svg-stroke" d="M8 14V2M8 14C8 14.8284 7.32843 15.5 6.5 15.5H3.5C2.67157 15.5 2 14.8284 2 14V2C2 1.17157 2.67157 0.5 3.5 0.5H6.5C7.32843 0.5 8 1.17157 8 2M8 14C8 14.8284 8.67157 15.5 9.5 15.5H12.5C13.3284 15.5 14 14.8284 14 14V2C14 1.17157 13.3284 0.5 12.5 0.5H9.5C8.67157 0.5 8 1.17157 8 2M11 13.5C11.5523 13.5 12 13.0523 12 12.5C12 11.9477 11.5523 11.5 11 11.5C10.4477 11.5 10 11.9477 10 12.5C10 13.0523 10.4477 13.5 11 13.5ZM5 13.5C5.55228 13.5 6 13.0523 6 12.5C6 11.9477 5.55228 11.5 5 11.5C4.44772 11.5 4 11.9477 4 12.5C4 13.0523 4.44772 13.5 5 13.5ZM4.5 9.5H5.5C5.77614 9.5 6 9.27614 6 9V3.5C6 3.22386 5.77614 3 5.5 3H4.5C4.22386 3 4 3.22386 4 3.5V9C4 9.27614 4.22386 9.5 4.5 9.5ZM10.5 9.5H11.5C11.7761 9.5 12 9.27614 12 9V3.5C12 3.22386 11.7761 3 11.5 3H10.5C10.2239 3 10 3.22386 10 3.5V9C10 9.27614 10.2239 9.5 10.5 9.5Z" stroke-linecap="round" stroke-linejoin="round"/>
</svg>
