<svg width="16" height="16" viewBox="0 0 16 16" fill="none" xmlns="http://www.w3.org/2000/svg">
    <path class="svg-stroke" d="M11.5 9.5V13.5M9.5 11.5H13.5M0.5 11.5C0.501029 9.98891 1.26008 8.57913 2.52099 7.74639C3.78191 6.91364 5.3765 6.76902 6.76667 7.36133M11.5 15.5C13.7091 15.5 15.5 13.7091 15.5 11.5C15.5 9.29086 13.7091 7.5 11.5 7.5C9.29086 7.5 7.5 9.29086 7.5 11.5C7.5 13.7091 9.29086 15.5 11.5 15.5ZM5 6C6.51878 6 7.75 4.76878 7.75 3.25C7.75 1.73122 6.51878 0.5 5 0.5C3.48122 0.5 2.25 1.73122 2.25 3.25C2.25 4.76878 3.48122 6 5 6Z" stroke-linecap="round" stroke-linejoin="round"/>
</svg>
