<svg width="16" height="16" viewBox="0 0 16 16" fill="none" xmlns="http://www.w3.org/2000/svg">
    <path class="svg-stroke" d="M5.5 0.5V4.5C5.5 5.05228 5.94772 5.5 6.5 5.5H11.5C12.0523 5.5 12.5 5.05228 12.5 4.5V0.5M10.5 2.5V3.5M5.5 10.5H8.5M5.5 12.5H10.5M14.5 15.5H1.5C0.947715 15.5 0.5 15.0523 0.5 14.5V4.82867C0.500113 4.29828 0.710901 3.78965 1.086 3.41467L3.414 1.086C3.78915 0.710738 4.29805 0.499936 4.82867 0.5H14.5C15.0523 0.5 15.5 0.947715 15.5 1.5V14.5C15.5 15.0523 15.0523 15.5 14.5 15.5ZM11.5 8.5H4.5C3.94772 8.5 3.5 8.94772 3.5 9.5V15.5H12.5V9.5C12.5 8.94772 12.0523 8.5 11.5 8.5Z" stroke-linecap="round" stroke-linejoin="round"/>
</svg>
