<svg  viewBox="0 0 16 16" fill="none" xmlns="http://www.w3.org/2000/svg">
<path fill-rule="evenodd" clip-rule="evenodd" d="M13.0621 -0.000115952C13.8427 -0.0054016 14.5931 0.301529 15.1462 0.852382L15.1476 0.853832C15.6985 1.40696 16.0054 2.1573 16.0001 2.93791C15.9948 3.71752 15.6786 4.46272 15.1216 5.00815L5.4569 14.6729C5.39355 14.7362 5.31434 14.7814 5.22756 14.8037L0.624231 15.9843C0.453054 16.0282 0.271416 15.9785 0.146458 15.8535C0.0214995 15.7286 -0.0282164 15.547 0.0156872 15.3758L1.19635 10.7724C1.21861 10.6857 1.26378 10.6065 1.32712 10.5431L10.9919 0.878365C11.5373 0.321415 12.2825 0.00516284 13.0621 -0.000115952ZM14.4398 1.56024C14.0758 1.19813 13.5823 0.996385 13.0689 0.999861C12.5551 1.00334 12.064 1.21202 11.7049 1.57946L11.7009 1.58357L2.131 11.1534L1.19425 14.8058L4.84656 13.869L14.4205 4.29505C14.788 3.93595 14.9967 3.44491 15.0001 2.93114C15.0036 2.41773 14.8019 1.92421 14.4398 1.56024Z"/>
<path fill-rule="evenodd" clip-rule="evenodd" d="M10.7171 1.15311C10.9124 0.95785 11.229 0.95785 11.4242 1.15311L14.8469 4.57578C15.0422 4.77104 15.0422 5.08762 14.8469 5.28289C14.6517 5.47815 14.3351 5.47815 14.1398 5.28289L10.7171 1.86022C10.5219 1.66496 10.5219 1.34837 10.7171 1.15311Z"/>
<path fill-rule="evenodd" clip-rule="evenodd" d="M9.32105 2.54911C9.51632 2.35385 9.8329 2.35385 10.0282 2.54911L13.4508 5.97178C13.6461 6.16704 13.6461 6.48363 13.4508 6.67889C13.2556 6.87415 12.939 6.87415 12.7437 6.67889L9.32105 3.25622C9.12579 3.06096 9.12579 2.74438 9.32105 2.54911Z"/>
<path fill-rule="evenodd" clip-rule="evenodd" d="M1.32712 10.5431C1.5222 10.3477 1.83844 10.3477 2.03389 10.5428L5.45989 13.9621C5.65534 14.1572 5.65565 14.4737 5.46058 14.6692C5.2655 14.8647 4.94892 14.865 4.75347 14.6699L1.32747 11.2506C1.13202 11.0555 1.13205 10.7386 1.32712 10.5431Z" />
</svg>
