<svg width="16" height="16" viewBox="0 0 16 16" fill="none" xmlns="http://www.w3.org/2000/svg">
    <path  class="svg-stroke" id="svg-stroke" d="M5.19112 6.62334L4.83779 6.27C4.27182 6.54009 3.63604 6.62812 3.01798 6.52198C2.39991 6.41584 1.82993 6.12074 1.38649 5.6773C0.943054 5.23386 0.647956 4.66389 0.541814 4.04582C0.435671 3.42775 0.523702 2.79198 0.793791 2.226L1.74379 3.17534C1.93333 3.36488 2.19041 3.47136 2.45846 3.47136C2.72651 3.47136 2.98358 3.36488 3.17312 3.17534C3.36267 2.9858 3.46915 2.72872 3.46915 2.46067C3.46915 2.19262 3.36267 1.93554 3.17312 1.746L2.22379 0.796004C2.78972 0.526375 3.42528 0.438706 4.04307 0.545053C4.66086 0.651401 5.23052 0.946541 5.67372 1.38988C6.11691 1.83322 6.41186 2.40298 6.51801 3.02081C6.62415 3.63863 6.53627 4.27417 6.26646 4.84L6.56779 5.142M10.7391 9.312L11.1591 9.73134C11.7251 9.46125 12.3609 9.37322 12.9789 9.47936C13.597 9.5855 14.167 9.8806 14.6104 10.324C15.0539 10.7675 15.349 11.3375 15.4551 11.9555C15.5612 12.5736 15.4732 13.2094 15.2031 13.7753L14.2531 12.826C14.0636 12.6365 13.8065 12.53 13.5385 12.53C13.2704 12.53 13.0133 12.6365 12.8238 12.826C12.6343 13.0155 12.5278 13.2726 12.5278 13.5407C12.5278 13.8087 12.6343 14.0658 12.8238 14.2553L13.7731 15.2053C13.2072 15.4754 12.5714 15.5635 11.9533 15.4573C11.3352 15.3512 10.7653 15.0561 10.3218 14.6126C9.87839 14.1692 9.58329 13.5992 9.47715 12.9812C9.371 12.3631 9.45904 11.7273 9.72913 11.1613L9.30979 10.7413M6.26646 11.1613L11.1591 6.26667C11.7251 6.53676 12.3609 6.62479 12.9789 6.51865C13.597 6.41251 14.167 6.11741 14.6104 5.67397C15.0539 5.23053 15.349 4.66055 15.4551 4.04249C15.5612 3.42442 15.4732 2.78864 15.2031 2.22267L14.2531 3.17534C14.1593 3.26919 14.0479 3.34364 13.9252 3.39443C13.8026 3.44522 13.6712 3.47136 13.5385 3.47136C13.2704 3.47136 13.0133 3.36488 12.8238 3.17534C12.6342 2.9858 12.5278 2.72872 12.5278 2.46067C12.5278 2.19262 12.6342 1.93555 12.8238 1.746L13.7731 0.796004C13.2072 0.525915 12.5714 0.437884 11.9533 0.544026C11.3352 0.650169 10.7653 0.945267 10.3218 1.3887C9.87839 1.83214 9.58329 2.40212 9.47715 3.02019C9.371 3.63826 9.45903 4.27403 9.72912 4.84L4.83779 9.73334C4.27182 9.46325 3.63604 9.37522 3.01798 9.48136C2.39991 9.5875 1.82993 9.8826 1.38649 10.326C0.943054 10.7695 0.647956 11.3395 0.541814 11.9575C0.435671 12.5756 0.523702 13.2114 0.793791 13.7773L1.74379 12.828C1.93533 12.6498 2.18851 12.5528 2.45008 12.5574C2.71166 12.5621 2.96125 12.6679 3.14637 12.8528C3.33149 13.0377 3.43772 13.2871 3.4427 13.5487C3.44769 13.8102 3.35106 14.0635 3.17312 14.2553L2.22379 15.2053C2.78972 15.475 3.42528 15.5626 4.04307 15.4563C4.66086 15.3499 5.23052 15.0548 5.67372 14.6115C6.11691 14.1681 6.41186 13.5984 6.51801 12.9805C6.62415 12.3627 6.53627 11.7272 6.26646 11.1613Z"  stroke-linecap="round" stroke-linejoin="round"/>
</svg>
