<svg width="16" height="16" viewBox="0 0 16 16" fill="none" xmlns="http://www.w3.org/2000/svg">
    <path class="svg-stroke" id="svg-stroke" d="M9.5 6H12.5M9.5 8H13.5M5.5 7.5C6.4665 7.5 7.25 6.7165 7.25 5.75C7.25 4.7835 6.4665 4 5.5 4C4.5335 4 3.75 4.7835 3.75 5.75C3.75 6.7165 4.5335 7.5 5.5 7.5ZM2.5 11C2.5 9.34315 3.84315 8 5.5 8C7.15685 8 8.5 9.34315 8.5 11H2.5ZM14.5 2H1.5C0.947715 2 0.5 2.44772 0.5 3V13C0.5 13.5523 0.947715 14 1.5 14H3.5C3.5 13.4477 3.94772 13 4.5 13C5.05228 13 5.5 13.4477 5.5 14H10.5C10.5 13.4477 10.9477 13 11.5 13C12.0523 13 12.5 13.4477 12.5 14H14.5C15.0523 14 15.5 13.5523 15.5 13V3C15.5 2.44772 15.0523 2 14.5 2Z" stroke-linecap="round" stroke-linejoin="round"/>
</svg>
