<svg width="16" height="16" viewBox="0 0 16 16" fill="none" xmlns="http://www.w3.org/2000/svg">
    <path class="svg-stroke" d="M7.75 4.5C7.61193 4.5 7.5 4.61193 7.5 4.75C7.5 4.88807 7.61193 5 7.75 5C7.88807 5 8 4.88807 8 4.75C8 4.61193 7.88807 4.5 7.75 4.5V4.5" stroke-linecap="round" stroke-linejoin="round"/>
    <path class="svg-stroke" d="M9.5 11H9C8.44772 11 8 10.5523 8 10V7.5C8 7.22386 7.77614 7 7.5 7H7M8 15.5C12.1421 15.5 15.5 12.1421 15.5 8C15.5 3.85786 12.1421 0.5 8 0.5C3.85786 0.5 0.5 3.85786 0.5 8C0.5 12.1421 3.85786 15.5 8 15.5Z"  stroke-linecap="round" stroke-linejoin="round"/>
</svg>
