<svg width="16" height="16" viewBox="0 0 16 16" fill="none" xmlns="http://www.w3.org/2000/svg">
    <path class="svg-stroke" id="svg-stroke" d="M0.672063 9.06468L4.50006 10.5M4.50006 10.5L8.32806 9.06468M4.50006 10.5L4.5 15.5M15.3001 2.56668L9.50006 4.50002M9.50006 4.50002L3.70007 2.56668M9.50006 4.50002L9.5 7.00001M3.5 5.50001V3.16668C3.50004 2.73619 3.77557 2.35404 4.184 2.21801L9.184 0.551342C9.38907 0.482683 9.61093 0.482683 9.816 0.551342L14.816 2.21801C15.2244 2.35404 15.5 2.73619 15.5 3.16668V8.83334C15.5 9.26383 15.2244 9.64598 14.816 9.78201L10.5 11.2207M1.14867 8.68868C0.75833 8.83515 0.499827 9.20843 0.5 9.62534V13.3753C0.501213 13.791 0.75947 14.1626 1.14867 14.3087L4.14867 15.4333C4.37518 15.5183 4.62482 15.5183 4.85133 15.4333L7.85133 14.3087C8.24053 14.1626 8.49879 13.791 8.5 13.3753V9.62534C8.50017 9.20843 8.24167 8.83515 7.85133 8.68868L4.85133 7.56401C4.62482 7.47901 4.37518 7.47901 4.14867 7.56401L1.14867 8.68868Z" stroke-linecap="round" stroke-linejoin="round"/>
</svg>
