<svg width="16" height="16" viewBox="0 0 16 16" fill="none" xmlns="http://www.w3.org/2000/svg">
    <path class="svg-stroke" fill-rule="evenodd" clip-rule="evenodd" d="M14.5 12.5H7.5L3.5 15.5V12.5H1.5C0.947715 12.5 0.5 12.0523 0.5 11.5V1.5C0.5 0.947715 0.947715 0.5 1.5 0.5H14.5C15.0523 0.5 15.5 0.947715 15.5 1.5V11.5C15.5 12.0523 15.0523 12.5 14.5 12.5Z" stroke-linecap="round" stroke-linejoin="round"/>
    <path class="svg-stroke" fill-rule="evenodd" clip-rule="evenodd" d="M5 6.25C4.86193 6.25 4.75 6.36193 4.75 6.5C4.75 6.63807 4.86193 6.75 5 6.75C5.13807 6.75 5.25 6.63807 5.25 6.5C5.25 6.36193 5.13807 6.25 5 6.25Z" stroke-linecap="round" stroke-linejoin="round"/>
    <path class="svg-stroke" fill-rule="evenodd" clip-rule="evenodd" d="M8 6.25C7.86193 6.25 7.75 6.36193 7.75 6.5C7.75 6.63807 7.86193 6.75 8 6.75C8.13807 6.75 8.25 6.63807 8.25 6.5C8.25 6.36193 8.13807 6.25 8 6.25Z" stroke-linecap="round" stroke-linejoin="round"/>
    <path class="svg-stroke" fill-rule="evenodd" clip-rule="evenodd" d="M11 6.25C10.8619 6.25 10.75 6.36193 10.75 6.5C10.75 6.63807 10.8619 6.75 11 6.75C11.1381 6.75 11.25 6.63807 11.25 6.5C11.25 6.36193 11.1381 6.25 11 6.25Z" stroke-linecap="round" stroke-linejoin="round"/>
    <path class="svg-fill" d="M11.5003 6.5C11.5003 6.77614 11.2764 7 11.0003 7C10.7241 7 10.5003 6.77614 10.5003 6.5C10.5003 6.22386 10.7241 6 11.0003 6C11.2764 6 11.5003 6.22386 11.5003 6.5Z"/>
    <path class="svg-fill" d="M8.5002 6.5C8.5002 6.77614 8.27634 7 8.0002 7C7.72406 7 7.5002 6.77614 7.5002 6.5C7.5002 6.22386 7.72406 6 8.0002 6C8.27634 6 8.5002 6.22386 8.5002 6.5Z"/>
    <path class="svg-fill" d="M5.5 6.5C5.5 6.77614 5.27614 7 5 7C4.72386 7 4.5 6.77614 4.5 6.5C4.5 6.22386 4.72386 6 5 6C5.27614 6 5.5 6.22386 5.5 6.5Z"/>
</svg>
