<svg width="16" height="16" viewBox="0 0 16 16" fill="none" xmlns="http://www.w3.org/2000/svg">
    <path class="svg-stroke" id="svg-stroke" d="M0.5 0.5V15.5H15.5M10.6247 5.71868L13.62 1.97467M6.41397 4.906L9.08597 6.09333M0.5 7.50001L4.64267 5.01468M10.374 11.014L13.534 9.25867M5.5 11.5H8.5M5.5 11.5C5.5 12.0523 5.05228 12.5 4.5 12.5C3.94772 12.5 3.5 12.0523 3.5 11.5C3.5 10.9477 3.94772 10.5 4.5 10.5C5.05228 10.5 5.5 10.9477 5.5 11.5ZM8.5 11.5C8.5 10.9477 8.94772 10.5 9.5 10.5C10.0523 10.5 10.5 10.9477 10.5 11.5C10.5 12.0523 10.0523 12.5 9.5 12.5C8.94772 12.5 8.5 12.0523 8.5 11.5ZM0.5 13.5L3.60533 11.9473M5.5 5.5C6.05228 5.5 6.5 5.05228 6.5 4.5C6.5 3.94772 6.05228 3.5 5.5 3.5C4.94772 3.5 4.5 3.94772 4.5 4.5C4.5 5.05228 4.94772 5.5 5.5 5.5ZM10 7.5C10.5523 7.5 11 7.05228 11 6.5C11 5.94772 10.5523 5.5 10 5.5C9.44772 5.5 9 5.94772 9 6.5C9 7.05228 9.44772 7.5 10 7.5ZM14.5 2.5C15.0523 2.5 15.5 2.05228 15.5 1.5C15.5 0.947715 15.0523 0.5 14.5 0.5C13.9477 0.5 13.5 0.947715 13.5 1.5C13.5 2.05228 13.9477 2.5 14.5 2.5ZM14.5 10C15.0523 10 15.5 9.55228 15.5 9C15.5 8.44772 15.0523 8 14.5 8C13.9477 8 13.5 8.44772 13.5 9C13.5 9.55228 13.9477 10 14.5 10Z" stroke-linecap="round" stroke-linejoin="round"/>
</svg>
