<svg class="mb-icon-file-zip" width="16" height="16" viewBox="0 0 16 16" fill="none" xmlns="http://www.w3.org/2000/svg">
    <path class="svg-fill" d="M1.5 16C1.10218 16 0.720636 15.8419 0.439331 15.5605C0.158026 15.2792 0 14.8978 0 14.5V1.5C0 1.10218 0.158026 0.720758 0.439331 0.439453C0.720636 0.158149 1.10218 0 1.5 0H11V3C11 3.53043 11.2107 4.03923 11.5858 4.41431C11.9609 4.78938 12.4696 5 13 5H16V14.5C16 14.8978 15.842 15.2792 15.5607 15.5605C15.2794 15.8419 14.8978 16 14.5 16H1.5ZM13 4C12.7348 4 12.4804 3.89457 12.2928 3.70703C12.1053 3.51949 12 3.26522 12 3V0L16 4H13Z" fill="#8793A0"/>
    <path class="svg-stroke" d="M3.50293 7.50098H4.76193C4.84391 7.50051 4.92475 7.5202 4.99733 7.55833C5.06991 7.59645 5.132 7.65184 5.17813 7.71961C5.22427 7.78738 5.25303 7.86545 5.26189 7.94695C5.27075 8.02846 5.25943 8.11089 5.22893 8.18698L3.77493 11.814C3.74441 11.8897 3.73288 11.9717 3.74133 12.0528C3.74979 12.134 3.77799 12.2118 3.82345 12.2796C3.86892 12.3474 3.93028 12.403 4.00218 12.4415C4.07408 12.4801 4.15433 12.5005 4.23593 12.501H5.50293M7.50293 12.501V7.50098M9.50293 12.501V7.50098H10.0029C10.4008 7.50098 10.7823 7.65901 11.0636 7.94032C11.3449 8.22162 11.5029 8.60315 11.5029 9.00098C11.5029 9.3988 11.3449 9.78033 11.0636 10.0616C10.7823 10.3429 10.4008 10.501 10.0029 10.501H9.50293" stroke="white" stroke-linecap="round" stroke-linejoin="round"/>
</svg>
