<svg width="16" height="16" viewBox="0 0 16 16" fill="none" xmlns="http://www.w3.org/2000/svg">
    <path class="svg-fill" fill-rule="evenodd" clip-rule="evenodd" d="M3 5C2.72386 5 2.5 5.22386 2.5 5.5V14.5C2.5 14.7761 2.72386 15 3 15H10C10.2761 15 10.5 14.7761 10.5 14.5V7.41411C10.4999 7.28168 10.4474 7.15458 10.3538 7.06089L8.43923 5.14633C8.34552 5.05269 8.21848 5.00006 8.086 5H3ZM1.5 5.5C1.5 4.67157 2.17157 4 3 4H8.086C8.48355 4.00008 8.86491 4.15798 9.14611 4.439L11.0609 6.35378C11.3419 6.63498 11.4999 7.01635 11.5 7.41389V14.5C11.5 15.3284 10.8284 16 10 16H3C2.17157 16 1.5 15.3284 1.5 14.5V5.5Z" />
    <path class="svg-fill" fill-rule="evenodd" clip-rule="evenodd" d="M6 1C5.72386 1 5.5 1.22386 5.5 1.5V4.5C5.5 4.77614 5.27614 5 5 5C4.72386 5 4.5 4.77614 4.5 4.5V1.5C4.5 0.671573 5.17157 0 6 0H11.086C11.4835 8.49068e-05 11.8649 0.157982 12.1461 0.439L14.0609 2.35378C14.3419 2.63498 14.4999 3.01635 14.5 3.41389V10.5C14.5 11.3284 13.8284 12 13 12H11C10.7239 12 10.5 11.7761 10.5 11.5C10.5 11.2239 10.7239 11 11 11H13C13.2761 11 13.5 10.7761 13.5 10.5V3.41411C13.4999 3.28168 13.4474 3.15458 13.3538 3.06089L11.4392 1.14633C11.3455 1.05269 11.2185 1.00006 11.086 1H6Z" />
</svg>
