<svg width="16" height="16" viewBox="0 0 16 16" fill="none" xmlns="http://www.w3.org/2000/svg">
    <path class="svg-stroke" d="M13.5 6.5V4.5C13.5 3.94772 13.0523 3.5 12.5 3.5H5.5V2.5C5.5 1.94772 5.05228 1.5 4.5 1.5H1.5C0.947715 1.5 0.5 1.94772 0.5 2.5V13.3667C0.507778 13.9296 0.927539 14.4014 1.48569 14.4747C2.04384 14.548 2.57118 14.2005 2.724 13.6587L4.29133 7.22067C4.41567 6.79326 4.80754 6.49949 5.25267 6.5H14.5C14.8107 6.49989 15.1038 6.64419 15.2931 6.89049C15.4825 7.13679 15.5466 7.45712 15.4667 7.75733L14 13.7573C13.8833 14.1954 13.4866 14.5002 13.0333 14.5H1.63133" stroke-linecap="round" stroke-linejoin="round"/>
</svg>
