<svg width="16" height="16" viewBox="0 0 16 16" fill="none" xmlns="http://www.w3.org/2000/svg">
    <path class="svg-stroke" id="svg-stroke" d="M7.98933 7H9.35733C9.71212 6.99963 9.99963 6.71212 10 6.35733V3.14267C9.99963 2.78788 9.71212 2.50037 9.35733 2.5H6.14267C5.78788 2.50037 5.50037 2.78788 5.5 3.14267V4.51067M2.5 12.5H8.5M9.63073 9.49667L11.5087 11.062M12 3H13.5M12 5H13.5M1.5 15.5H14.5C15.0523 15.5 15.5 15.0523 15.5 14.5V1.5C15.5 0.947715 15.0523 0.5 14.5 0.5H1.5C0.947715 0.5 0.5 0.947715 0.5 1.5V14.5C0.5 15.0523 0.947715 15.5 1.5 15.5ZM5.2553 9.98933C6.77113 9.98933 7.99996 8.7605 7.99996 7.24467C7.99996 5.72883 6.77113 4.5 5.2553 4.5C3.73946 4.5 2.51063 5.72883 2.51063 7.24467C2.51063 8.7605 3.73946 9.98933 5.2553 9.98933ZM12.5 13.5C11.9477 13.5 11.5 13.0523 11.5 12.5V11.5C11.5 10.9477 11.9477 10.5 12.5 10.5C13.0523 10.5 13.5 10.9477 13.5 11.5V12.5C13.5 13.0523 13.0523 13.5 12.5 13.5Z" stroke-linecap="round" stroke-linejoin="round"/>
</svg>
