<svg width="16" height="16" viewBox="0 0 16 16" fill="none" xmlns="http://www.w3.org/2000/svg">
    <path class="svg-stroke" id="svg-stroke" d="M0.5 15.5V2.5L3.5 0.5V15.5M0.5 9.5H3.5M0.5 6.5H4.5M0.5 12.5H6.02M8.5 14.5V5.254C8.50055 4.11964 8.8868 3.01919 9.59533 2.13333L10.5 1L11.4047 2.13333C12.1132 3.01919 12.4995 4.11964 12.5 5.254V14.5M8.5 14.5H12.5M8.5 14.5L6.22333 15.138C6.06834 15.2154 5.88434 15.207 5.73701 15.1159C5.58968 15.0248 5.50001 14.8639 5.5 14.6907V14.472C5.50018 12.957 6.35625 11.5721 7.71133 10.8947L8.5 10.5V14.5ZM12.5 14.5L14.7767 15.138C14.9317 15.2154 15.1157 15.207 15.263 15.1159C15.4103 15.0248 15.5 14.8639 15.5 14.6907V14.472C15.4998 12.957 14.6438 11.5721 13.2887 10.8947L12.5 10.5V14.5Z"  stroke-linecap="round" stroke-linejoin="round"/>
</svg>
