<svg class="mb-icon-alert-warning-fill" width="16" height="16" viewBox="0 0 16 16" fill="none" xmlns="http://www.w3.org/2000/svg">
<path class="svg-fill" d="M9.15282 0.717961C9.04701 0.502535 8.88295 0.321076 8.67924 0.194172C8.47553 0.0672682 8.24032 0 8.00032 0C7.76031 0 7.52511 0.0672682 7.3214 0.194172C7.11769 0.321076 6.95362 0.502535 6.84782 0.717961L0.110818 14.441C0.0298038 14.6059 -0.00786419 14.7888 0.00136583 14.9723C0.0105958 15.1558 0.0664197 15.334 0.163573 15.49C0.260727 15.646 0.39601 15.7746 0.556664 15.8639C0.717318 15.9531 0.89805 15.9999 1.08182 16H14.9168C15.1006 15.9999 15.2813 15.9531 15.442 15.8639C15.6026 15.7746 15.7379 15.646 15.8351 15.49C15.9322 15.334 15.988 15.1558 15.9973 14.9723C16.0065 14.7888 15.9688 14.6059 15.8878 14.441L9.15282 0.717961Z"/>
<path class="svg-stroke" d="M8 12.8429C7.96704 12.8429 7.93481 12.8527 7.9074 12.871C7.88 12.8893 7.85863 12.9154 7.84602 12.9458C7.83341 12.9763 7.8301 13.0098 7.83654 13.0421C7.84297 13.0745 7.85884 13.1042 7.88215 13.1275C7.90546 13.1508 7.93515 13.1666 7.96748 13.1731C7.99981 13.1795 8.03333 13.1762 8.06378 13.1636C8.09423 13.151 8.12026 13.1296 8.13858 13.1022C8.15689 13.0748 8.16667 13.0426 8.16667 13.0096C8.16667 12.9654 8.14911 12.923 8.11785 12.8918C8.0866 12.8605 8.0442 12.8429 8 12.8429Z"/>
<path class="svg-stroke" fill-rule="evenodd" clip-rule="evenodd" d="M7.72221 12.5939C7.80444 12.5389 7.90111 12.5096 8 12.5096C8.13261 12.5096 8.25978 12.5623 8.35355 12.6561C8.44732 12.7498 8.5 12.877 8.5 13.0096C8.5 13.1085 8.47068 13.2052 8.41573 13.2874C8.36079 13.3696 8.2827 13.4337 8.19134 13.4716C8.09998 13.5094 7.99945 13.5193 7.90245 13.5C7.80546 13.4807 7.71637 13.4331 7.64645 13.3632C7.57652 13.2932 7.5289 13.2041 7.50961 13.1072C7.49031 13.0102 7.50022 12.9096 7.53806 12.8183C7.5759 12.7269 7.63999 12.6488 7.72221 12.5939ZM8.06378 13.1636C8.07382 13.1594 8.08347 13.1543 8.0926 13.1482C8.11088 13.136 8.12648 13.1203 8.13858 13.1022C8.14461 13.0932 8.14978 13.0835 8.15398 13.0734C8.1624 13.0531 8.16667 13.0314 8.16667 13.0096C8.16667 12.9987 8.1656 12.9879 8.16346 12.9771C8.15703 12.9448 8.14116 12.9151 8.11785 12.8918C8.09454 12.8685 8.06484 12.8526 8.03251 12.8461C8.02176 12.844 8.01086 12.8429 8 12.8429C7.97822 12.8429 7.95654 12.8472 7.93622 12.8556C7.92608 12.8598 7.91644 12.865 7.9074 12.871C7.88929 12.8831 7.87364 12.8987 7.86142 12.917C7.85533 12.9261 7.85018 12.9358 7.84602 12.9458C7.83768 12.966 7.83333 12.9876 7.83333 13.0096C7.83333 13.0206 7.83442 13.0315 7.83654 13.0421C7.84297 13.0745 7.85884 13.1042 7.88215 13.1275C7.90546 13.1508 7.93515 13.1666 7.96748 13.1731C7.97812 13.1752 7.989 13.1763 8 13.1763C8.02199 13.1763 8.04366 13.1719 8.06378 13.1636Z"/>
<path class="svg-stroke" d="M8.00488 10.5729V5.57294"  stroke-linecap="round"/>
</svg>
