<svg id="mb-icon-image"  width="16" height="16" viewBox="0 0 16 16" fill="none" xmlns="http://www.w3.org/2000/svg">
<g id="format-image">
    <path class="svg-stroke" id="svg-stroke" d="M3.5 11.5L5.808 8.42267C5.9819 8.19065 6.24794 8.04553 6.53717 8.02493C6.82639 8.00434 7.11031 8.11029 7.31533 8.31533L8 9L10.2 6.06667C10.3889 5.81486 10.6852 5.66667 11 5.66667C11.3148 5.66667 11.6111 5.81486 11.8 6.06667L13.58 8.44M0.5 11.5H15.5M2 15.5H14C14.8284 15.5 15.5 14.8284 15.5 14V2C15.5 1.17157 14.8284 0.5 14 0.5H2C1.17157 0.5 0.5 1.17157 0.5 2V14C0.5 14.8284 1.17157 15.5 2 15.5ZM4.25 5.5C4.94036 5.5 5.5 4.94036 5.5 4.25C5.5 3.55964 4.94036 3 4.25 3C3.55964 3 3 3.55964 3 4.25C3 4.94036 3.55964 5.5 4.25 5.5Z" stroke-linecap="round" stroke-linejoin="round"/>
</g>
</svg>
