<svg class="mb-icon-file-ppt" width="16" height="16" viewBox="0 0 16 16" fill="none" xmlns="http://www.w3.org/2000/svg">
    <path class="svg-fill" d="M1.5 16C1.10218 16 0.720636 15.8419 0.439331 15.5605C0.158026 15.2792 0 14.8978 0 14.5V1.5C0 1.10218 0.158026 0.720758 0.439331 0.439453C0.720636 0.158149 1.10218 0 1.5 0H11V3C11 3.53043 11.2107 4.03923 11.5858 4.41431C11.9609 4.78938 12.4696 5 13 5H16V14.5C16 14.8978 15.842 15.2792 15.5607 15.5605C15.2794 15.8419 14.8978 16 14.5 16H1.5ZM13 4C12.7348 4 12.4804 3.89457 12.2928 3.70703C12.1053 3.51949 12 3.26522 12 3V0L16 4H13Z"/>
    <path class="svg-stroke" d="M2.50098 12.5V7.5M6.50098 12.5V7.5M2.50781 7.5H3.00781C3.40564 7.5 3.78717 7.65804 4.06847 7.93934C4.34978 8.22064 4.50781 8.60218 4.50781 9C4.50781 9.39782 4.34978 9.77936 4.06847 10.0607C3.78717 10.342 3.40564 10.5 3.00781 10.5H2.50781M6.50781 7.5H7.00781C7.40564 7.5 7.78717 7.65804 8.06847 7.93934C8.34978 8.22064 8.50781 8.60218 8.50781 9C8.50781 9.39782 8.34978 9.77936 8.06847 10.0607C7.78717 10.342 7.40564 10.5 7.00781 10.5H6.50781M10.5039 12.5V7.5M9.50391 7.5H11.5039" stroke-linecap="round" stroke-linejoin="round"/>
</svg>
