<svg width="16" height="16" viewBox="0 0 16 16" fill="none" xmlns="http://www.w3.org/2000/svg">
    <path class="svg-stroke" d="M7.50007 12.5H1.63141M13.5 5.5V3.5C13.5 2.94772 13.0523 2.5 12.5 2.5H5.5V1.5C5.5 0.947715 5.05228 0.5 4.5 0.5H1.5C0.947715 0.5 0.5 0.947715 0.5 1.5V11.3667C0.507778 11.9296 0.927539 12.4014 1.48569 12.4747C2.04384 12.548 2.57118 12.2005 2.724 11.6587L4.29133 6.22267C4.41494 5.79447 4.80699 5.49975 5.25267 5.5H14.5M14.5 10.5H10.5M14.5 10.5C15.0523 10.5 15.5 10.9477 15.5 11.5V14.5C15.5 15.0523 15.0523 15.5 14.5 15.5H10.5C9.94772 15.5 9.5 15.0523 9.5 14.5V11.5C9.5 10.9477 9.94772 10.5 10.5 10.5M14.5 10.5V9.5C14.5 8.39543 13.6046 7.5 12.5 7.5C11.3954 7.5 10.5 8.39543 10.5 9.5V10.5M12.5 12.7693C12.6381 12.7693 12.75 12.8813 12.75 13.0193C12.75 13.1574 12.6381 13.2693 12.5 13.2693C12.3619 13.2693 12.25 13.1574 12.25 13.0193C12.25 12.8813 12.3619 12.7693 12.5 12.7693ZM13 13C13 13.2761 12.7761 13.5 12.5 13.5C12.2239 13.5 12 13.2761 12 13C12 12.7239 12.2239 12.5 12.5 12.5C12.7761 12.5 13 12.7239 13 13Z" stroke-linecap="round" stroke-linejoin="round"/>
</svg>
