<svg width="16" height="16" viewBox="0 0 16 16" fill="none" xmlns="http://www.w3.org/2000/svg">
    <path class="svg-stroke" d="M5.5 11.5H1.5C0.947716 11.5 0.5 11.0523 0.5 10.5V2.5C0.5 1.94772 0.947716 1.5 1.5 1.5H10.5C11.0523 1.5 11.5 1.94772 11.5 2.5V5.5M0.5 4.5H11.5M3.5 2.5V0.5M8.5 2.5V0.5M13.268 11.5H11.5V9.73267M15.5 11.5C15.5 13.7091 13.7091 15.5 11.5 15.5C9.29087 15.5 7.5 13.7091 7.5 11.5C7.5 9.29087 9.29087 7.5 11.5 7.5C13.7091 7.5 15.5 9.29087 15.5 11.5Z" stroke-linecap="round" stroke-linejoin="round"/>
</svg>  
