<svg width="17" height="16" viewBox="0 0 17 16" fill="none" xmlns="http://www.w3.org/2000/svg">
    <path class="svg-stroke" id="svg-stroke" d="M6.5 6.5C6.5 5.39543 7.39543 4.5 8.5 4.5C9.60457 4.5 10.5 5.39543 10.5 6.5C10.5 7.60457 9.60457 8.5 8.5 8.5M8.5 0.499997C5.95955 0.496334 3.61712 1.87129 2.38186 4.0912C1.14661 6.31112 1.21302 9.02646 2.55533 11.1833L0.5 15.5L4.816 13.444C7.34008 15.014 10.5804 14.8186 12.8976 12.9568C15.2148 11.0949 16.1034 7.97268 15.1139 5.16973C14.1243 2.36677 11.4725 0.494425 8.5 0.499997ZM8.5 10C8.36193 10 8.25 10.1119 8.25 10.25C8.25 10.3881 8.36193 10.5 8.5 10.5C8.63807 10.5 8.75 10.3881 8.75 10.25C8.75 10.1119 8.63807 10 8.5 10Z" stroke-linecap="round" stroke-linejoin="round"/>
</svg>
