<svg width="16" height="17" viewBox="0 0 16 17" fill="none" xmlns="http://www.w3.org/2000/svg">
    <path class="svg-stroke" d="M2.83333 16.486L8.5 7.48599C8.65912 7.27886 8.90547 7.15745 9.16667 7.15745C9.42786 7.15745 9.67422 7.27886 9.83333 7.48599L15.5 16.486H2.83333ZM2.83333 16.486L0.5 16.486L3 11.986L4.45 13.9193M5.80735 11.7627L7.36535 13.09C7.62999 13.314 8.02214 13.2978 8.26735 13.0527L8.69535 12.6247C8.95569 12.3644 9.37769 12.3644 9.63802 12.6247L10.066 13.0527C10.3112 13.2978 10.7034 13.314 10.968 13.09L12.5367 11.7793M9 7.17799V1.48599H11.5V2.48599H14.5L13.5 3.98599L14.5 5.48599H11.5V4.98599H9" stroke-linecap="round" stroke-linejoin="round"/>
</svg>
