<svg width="17" height="16" viewBox="0 0 17 16" fill="none" xmlns="http://www.w3.org/2000/svg">
<path class="svg-stroke" fill-rule="evenodd" clip-rule="evenodd" d="M8.5 0.499982C5.95955 0.496319 3.61712 1.87127 2.38186 4.09119C1.14661 6.31111 1.21302 9.02644 2.55533 11.1833L0.5 15.5L4.816 13.444C7.34008 15.0139 10.5804 14.8186 12.8976 12.9567C15.2148 11.0949 16.1034 7.97267 15.1139 5.16971C14.1243 2.36676 11.4725 0.494409 8.5 0.499982Z" stroke-linecap="round" stroke-linejoin="round"/>
<path class="svg-stroke" fill-rule="evenodd" clip-rule="evenodd" d="M5.5 7.24999C5.36193 7.24999 5.25 7.36192 5.25 7.49999C5.25 7.63806 5.36193 7.74999 5.5 7.74999C5.63807 7.74999 5.75 7.63806 5.75 7.49999C5.75 7.36192 5.63807 7.24999 5.5 7.24999Z" stroke-linecap="round" stroke-linejoin="round"/>
<path class="svg-stroke" fill-rule="evenodd" clip-rule="evenodd" d="M8.5 7.24999C8.36193 7.24999 8.25 7.36192 8.25 7.49999C8.25 7.63806 8.36193 7.74999 8.5 7.74999C8.63807 7.74999 8.75 7.63806 8.75 7.49999C8.75 7.36192 8.63807 7.24999 8.5 7.24999Z"  stroke-linecap="round" stroke-linejoin="round"/>
<path class="svg-stroke" fill-rule="evenodd" clip-rule="evenodd" d="M11.5 7.24999C11.3619 7.24999 11.25 7.36192 11.25 7.49999C11.25 7.63806 11.3619 7.74999 11.5 7.74999C11.6381 7.74999 11.75 7.63806 11.75 7.49999C11.75 7.36192 11.6381 7.24999 11.5 7.24999Z" stroke="#8793A0" stroke-linecap="round" stroke-linejoin="round"/>
<circle class="svg-fill" cx="11.5" cy="7.5" r="0.5"/>
<circle class="svg-fill" cx="8.5" cy="7.5" r="0.5"/>
<circle class="svg-fill" cx="5.5" cy="7.5" r="0.5"/>
</svg>
