<svg width="16" height="16" viewBox="0 0 16 16" fill="none" xmlns="http://www.w3.org/2000/svg">
    <path class="svg-stroke" id="svg-stroke" d="M8 14.3333V12M8 14.3333C8.552 14.3333 9 14.6313 9 15M8 14.3333C7.448 14.3333 7 14.6313 7 15M1 12H15M10 6H12M10 8H12M1.75 3H14.25C14.6642 3 15 2.66421 15 2.25V1.75C15 1.33579 14.6642 1 14.25 1H1.75C1.33579 1 1 1.33579 1 1.75V2.25C1 2.66421 1.33579 3 1.75 3ZM2 3H14V12H2V3ZM6 9C7.10457 9 8 8.10457 8 7C8 5.89543 7.10457 5 6 5C4.89543 5 4 5.89543 4 7C4 8.10457 4.89543 9 6 9Z" stroke-linecap="round" stroke-linejoin="round"/>
</svg>
