<svg width="16" height="16" viewBox="0 0 16 16" fill="none" xmlns="http://www.w3.org/2000/svg">
    <path class="svg-fill" d="M7.99976 14.9C8.3524 14.9002 8.70454 14.8735 9.0531 14.82C9.12378 14.8086 9.19624 14.8203 9.25977 14.8533C11.2816 15.9211 13.7862 15.1477 14.854 13.1259C15.1728 12.5223 15.3374 11.8493 15.3331 11.1667C15.3343 10.4681 15.16 9.78039 14.8264 9.16663C14.7911 9.10387 14.7771 9.03137 14.7864 8.95997C15.3167 5.18999 12.6903 1.70396 8.92037 1.1737C8.61534 1.13079 8.30778 1.10839 7.99976 1.10662C7.65603 1.10768 7.31285 1.13442 6.9731 1.18662C6.90242 1.19799 6.82995 1.1863 6.76643 1.15329C4.73049 0.0886399 2.21697 0.876027 1.15232 2.91197C0.513569 4.13346 0.521349 5.59202 1.17309 6.80662C1.20611 6.87015 1.2178 6.94261 1.20643 7.01329C0.654125 10.7764 3.25698 14.2747 7.02007 14.827C7.34448 14.8746 7.67188 14.899 7.99976 14.9ZM8.06643 3.33332C10.1731 3.45999 11.3998 4.38666 11.5264 5.25999C11.5952 5.74483 11.2578 6.1936 10.773 6.26234C10.7024 6.27235 10.6308 6.2738 10.5598 6.26666C9.60643 6.26666 9.50643 4.99332 7.8931 4.99332C7.1531 4.99332 6.55976 5.29999 6.55976 5.97333C6.55976 7.37333 11.8198 6.55999 11.8198 9.64666C11.8198 11.4267 10.3998 12.5933 8.28643 12.5933C6.42643 12.5933 4.5531 11.7467 4.56643 10.2867C4.55178 9.86925 4.85322 9.50753 5.26643 9.44666C6.35976 9.44666 6.3531 11.08 8.09976 11.08C9.32643 11.08 9.73977 10.4133 9.73977 9.93999C9.73977 8.25333 4.4531 9.27333 4.4531 6.11332C4.4531 4.39999 5.85976 3.21332 8.06643 3.33332Z"/>
</svg>
