<svg width="16" height="16" viewBox="0 0 16 16" fill="none" xmlns="http://www.w3.org/2000/svg">
    <path class="svg-stroke" id="svg-stroke" d="M1 4.5H15M8 10.5H13M8 12.5H13M2.5 14.5H13.5C14.3284 14.5 15 13.8284 15 13V3C15 2.17157 14.3284 1.5 13.5 1.5H2.5C1.67157 1.5 1 2.17157 1 3V13C1 13.8284 1.67157 14.5 2.5 14.5ZM3.75 8.5H12.25C12.6642 8.5 13 8.16421 13 7.75V7.25C13 6.83579 12.6642 6.5 12.25 6.5H3.75C3.33579 6.5 3 6.83579 3 7.25V7.75C3 8.16421 3.33579 8.5 3.75 8.5ZM3.75 12.5H5.25C5.66421 12.5 6 12.1642 6 11.75V11.25C6 10.8358 5.66421 10.5 5.25 10.5H3.75C3.33579 10.5 3 10.8358 3 11.25V11.75C3 12.1642 3.33579 12.5 3.75 12.5Z" stroke-linecap="round" stroke-linejoin="round"/>
</svg>
