<svg class="mb-icon-file-csv" width="16" height="16" viewBox="0 0 16 16" fill="none" xmlns="http://www.w3.org/2000/svg">
    <path class="svg-fill" d="M1.5 16C1.10218 16 0.720636 15.8419 0.439331 15.5605C0.158026 15.2792 0 14.8978 0 14.5V1.5C0 1.10218 0.158026 0.720758 0.439331 0.439453C0.720636 0.158149 1.10218 0 1.5 0H11V3C11 3.53043 11.2107 4.03923 11.5858 4.41431C11.9609 4.78938 12.4696 5 13 5H16V14.5C16 14.8978 15.842 15.2792 15.5607 15.5605C15.2794 15.8419 14.8978 16 14.5 16H1.5ZM13 4C12.7348 4 12.4804 3.89457 12.2928 3.70703C12.1053 3.51949 12 3.26522 12 3V0L16 4H13Z"/>
    <path class="svg-stroke" d="M4.5 7.5C3.96957 7.5 3.46086 7.71071 3.08579 8.08579C2.71071 8.46086 2.5 8.96957 2.5 9.5V10.5C2.5 11.0304 2.71071 11.5391 3.08579 11.9142C3.46086 12.2893 3.96957 12.5 4.5 12.5M8.5 7.5H7.5C7.23478 7.5 6.98043 7.60536 6.79289 7.79289C6.60536 7.98043 6.5 8.23478 6.5 8.5C6.5 10 8.5 10 8.5 11.5C8.5 11.7652 8.39464 12.0196 8.20711 12.2071C8.01957 12.3946 7.76522 12.5 7.5 12.5H6.5M10.5 7.5V9.2C10.5007 10.3745 10.8486 11.5226 11.5 12.5C12.1514 11.5226 12.4993 10.3745 12.5 9.2V7.5" stroke-linecap="round" stroke-linejoin="round"/>
</svg>
