<svg width="16" height="16" viewBox="0 0 16 16" fill="none" xmlns="http://www.w3.org/2000/svg">
    <path class="svg-fill" fill-rule="evenodd" clip-rule="evenodd" d="M12.5 9.16533C14.1569 9.16533 15.5 7.82218 15.5 6.16533C15.5 4.50847 14.1569 3.16533 12.5 3.16533C10.8431 3.16533 9.5 4.50847 9.5 6.16533C9.5 7.82218 10.8431 9.16533 12.5 9.16533Z" fill="#8793A0"/>
    <path class="svg-fill" fill-rule="evenodd" clip-rule="evenodd" d="M9 6.16533C9 4.23233 10.567 2.66533 12.5 2.66533C14.433 2.66533 16 4.23233 16 6.16533C16 8.09833 14.433 9.66533 12.5 9.66533C10.567 9.66533 9 8.09833 9 6.16533ZM12.5 3.66533C11.1193 3.66533 10 4.78462 10 6.16533C10 7.54604 11.1193 8.66533 12.5 8.66533C13.8807 8.66533 15 7.54604 15 6.16533C15 4.78462 13.8807 3.66533 12.5 3.66533Z" />
    <path class="svg-fill" fill-rule="evenodd" clip-rule="evenodd" d="M15.5 5.66533C15.7761 5.66533 16 5.88919 16 6.16533C16 10.3075 12.6421 13.6653 8.5 13.6653C8.22386 13.6653 8 13.4415 8 13.1653C8 12.8892 8.22386 12.6653 8.5 12.6653C12.0899 12.6653 15 9.75518 15 6.16533C15 5.88919 15.2239 5.66533 15.5 5.66533Z"/>
    <path class="svg-fill" fill-rule="evenodd" clip-rule="evenodd" d="M4.5 9.16533C6.15685 9.16533 7.5 7.82218 7.5 6.16533C7.5 4.50847 6.15685 3.16533 4.5 3.16533C2.84315 3.16533 1.5 4.50847 1.5 6.16533C1.5 7.82218 2.84315 9.16533 4.5 9.16533Z" fill="#8793A0"/>
    <path class="svg-fill" fill-rule="evenodd" clip-rule="evenodd" d="M1 6.16533C1 4.23233 2.567 2.66533 4.5 2.66533C6.433 2.66533 8 4.23233 8 6.16533C8 8.09833 6.433 9.66533 4.5 9.66533C2.567 9.66533 1 8.09833 1 6.16533ZM4.5 3.66533C3.11929 3.66533 2 4.78462 2 6.16533C2 7.54604 3.11929 8.66533 4.5 8.66533C5.88071 8.66533 7 7.54604 7 6.16533C7 4.78462 5.88071 3.66533 4.5 3.66533Z"/>
    <path class="svg-fill" fill-rule="evenodd" clip-rule="evenodd" d="M7.5 5.66533C7.77614 5.66533 8 5.88919 8 6.16533C8 10.3075 4.64214 13.6653 0.5 13.6653C0.223858 13.6653 0 13.4415 0 13.1653C0 12.8892 0.223858 12.6653 0.5 12.6653C4.08985 12.6653 7 9.75518 7 6.16533C7 5.88919 7.22386 5.66533 7.5 5.66533Z"/>
</svg>
