<svg width="16" height="17" viewBox="0 0 16 17" fill="none" xmlns="http://www.w3.org/2000/svg">
    <path class="svg-stroke" d="M5.5 2.49866H15.5M5.5 8.49866H15.5M5.5 14.4987H15.5M2 4C2.82843 4 3.5 3.32843 3.5 2.5C3.5 1.67157 2.82843 1 2 1C1.17157 1 0.5 1.67157 0.5 2.5C0.5 3.32843 1.17157 4 2 4ZM2 10C2.82843 10 3.5 9.32843 3.5 8.5C3.5 7.67157 2.82843 7 2 7C1.17157 7 0.5 7.67157 0.5 8.5C0.5 9.32843 1.17157 10 2 10ZM2 16C2.82843 16 3.5 15.3284 3.5 14.5C3.5 13.6716 2.82843 13 2 13C1.17157 13 0.5 13.6716 0.5 14.5C0.5 15.3284 1.17157 16 2 16Z" stroke-linecap="round" stroke-linejoin="round"/>
</svg>
