<svg width="16" height="16" viewBox="0 0 16 16" fill="none" xmlns="http://www.w3.org/2000/svg">
    <path class="svg-stroke" fill-rule="evenodd" clip-rule="evenodd" d="M7.99989 3.50065C5.31255 3.45532 2.53322 5.33332 0.785885 7.25665C0.406007 7.67839 0.406007 8.31892 0.785885 8.74065C2.49522 10.6233 5.26655 12.5447 7.99989 12.4987C10.7332 12.5447 13.5052 10.6233 15.2159 8.74065C15.5958 8.31892 15.5958 7.67839 15.2159 7.25665C13.4666 5.33332 10.6872 3.45532 7.99989 3.50065Z"  stroke-linecap="round" stroke-linejoin="round"/>
    <path class="svg-stroke" fill-rule="evenodd" clip-rule="evenodd" d="M10.4998 7.99999C10.4995 9.38061 9.38001 10.4996 7.99938 10.4993C6.61876 10.4991 5.4997 9.37972 5.49983 7.9991C5.49995 6.61847 6.6192 5.49932 7.99983 5.49932C8.66304 5.49914 9.29913 5.76257 9.76803 6.23159C10.2369 6.70062 10.5002 7.33677 10.4998 7.99999Z" stroke-linecap="round" stroke-linejoin="round"/>
</svg>
