<svg class="mb-icon-file-google-doc" width="16" height="16" viewBox="0 0 16 16" fill="none" xmlns="http://www.w3.org/2000/svg">
    <path class="svg-fill" d="M1.5 16C1.10218 16 0.720636 15.8419 0.439331 15.5605C0.158026 15.2792 0 14.8978 0 14.5V1.5C0 1.10218 0.158026 0.720758 0.439331 0.439453C0.720636 0.158149 1.10218 0 1.5 0H11V3C11 3.53043 11.2107 4.03923 11.5858 4.41431C11.9609 4.78938 12.4696 5 13 5H16V14.5C16 14.8978 15.842 15.2792 15.5607 15.5605C15.2794 15.8419 14.8978 16 14.5 16H1.5ZM13 4C12.7348 4 12.4804 3.89457 12.2928 3.70703C12.1053 3.51949 12 3.26522 12 3V0L16 4H13Z"/>
    <path class="svg-stroke" d="M14.5 7.5C13.9696 7.5 13.4609 7.71071 13.0858 8.08579C12.7107 8.46086 12.5 8.96957 12.5 9.5V10.5C12.5 11.0304 12.7107 11.5391 13.0858 11.9142C13.4609 12.2893 13.9696 12.5 14.5 12.5M3.5 7.5C2.96957 7.5 2.46086 7.71071 2.08579 8.08579C1.71071 8.46086 1.5 8.96957 1.5 9.5V10.5C1.5 11.0304 1.71071 11.5391 2.08579 11.9142C2.46086 12.2893 2.96957 12.5 3.5 12.5V10M11 11.5C11 11.7652 10.8946 12.0196 10.7071 12.2071C10.5196 12.3946 10.2652 12.5 10 12.5C9.73478 12.5 9.48043 12.3946 9.29289 12.2071C9.10536 12.0196 9 11.7652 9 11.5V8.5C9 8.23478 9.10536 7.98043 9.29289 7.79289C9.48043 7.60536 9.73478 7.5 10 7.5C10.2652 7.5 10.5196 7.60536 10.7071 7.79289C10.8946 7.98043 11 8.23478 11 8.5V11.5ZM5.5 12.504C6.03043 12.504 6.53914 12.2933 6.91421 11.9182C7.28929 11.5432 7.5 11.0345 7.5 10.504V9.50403C7.5 8.9736 7.28929 8.46489 6.91421 8.08982C6.53914 7.71474 6.03043 7.50403 5.5 7.50403V12.504Z" stroke-linecap="round" stroke-linejoin="round"/>
</svg>
