<svg class="mb-icon-file-pdf" width="16" height="16" viewBox="0 0 16 16" fill="none" xmlns="http://www.w3.org/2000/svg">
    <path class="svg-fill" d="M1.5 16C1.10218 16 0.720636 15.8419 0.439331 15.5605C0.158026 15.2792 0 14.8978 0 14.5V1.5C0 1.10218 0.158026 0.720758 0.439331 0.439453C0.720636 0.158149 1.10218 0 1.5 0H11V3C11 3.53043 11.2107 4.03923 11.5858 4.41431C11.9609 4.78938 12.4696 5 13 5H16V14.5C16 14.8978 15.842 15.2792 15.5607 15.5605C15.2794 15.8419 14.8978 16 14.5 16H1.5ZM13 4C12.7348 4 12.4804 3.89457 12.2928 3.70703C12.1053 3.51949 12 3.26522 12 3V0L16 4H13Z"/>
    <path class="svg-stroke" d="M2.5 12.5V7.5H3C3.39782 7.5 3.77936 7.65804 4.06066 7.93934C4.34196 8.22064 4.5 8.60218 4.5 9C4.5 9.39782 4.34196 9.77936 4.06066 10.0607C3.77936 10.342 3.39782 10.5 3 10.5H2.5M10.5 12.5V8.5C10.5 8.23478 10.6054 7.98043 10.7929 7.79289C10.9804 7.60536 11.2348 7.5 11.5 7.5H12.5M10.5 10.5H12M6.5 12.5C7.03043 12.5 7.53914 12.2893 7.91421 11.9142C8.28929 11.5391 8.5 11.0304 8.5 10.5V9.5C8.5 8.96957 8.28929 8.46086 7.91421 8.08579C7.53914 7.71071 7.03043 7.5 6.5 7.5V12.5Z" stroke-linecap="round" stroke-linejoin="round"/>
</svg>
