<svg width="16" height="17" viewBox="0 0 16 17" fill="none" xmlns="http://www.w3.org/2000/svg">
    <path class="svg-stroke" id="svg-stroke" d="M6 10.1947V10.0047C6 8.9001 6.89543 8.00467 8 8.00467C9.10457 8.00467 10 8.9001 10 10.0047V10.1947M9.50135 3.50467L8.00135 8.00467M11.7513 5.00467C11.6501 5.00413 11.5585 5.06469 11.5194 5.15807C11.4803 5.25144 11.5014 5.35919 11.5727 5.43097C11.6441 5.50274 11.7518 5.52438 11.8454 5.48576C11.9389 5.44715 12 5.3559 12 5.25467C12 5.1166 11.8881 5.00467 11.75 5.00467M14.2874 12.0947C10.559 9.30798 5.4411 9.30798 1.71272 12.0947M4.25135 5.00467C4.11328 5.00467 4.00135 5.1166 4.00135 5.25467C4.00135 5.39274 4.11328 5.50467 4.25135 5.50467C4.38942 5.50467 4.50135 5.39274 4.50135 5.25467C4.50135 5.1166 4.38942 5.00467 4.25135 5.00467ZM12.7513 7.50467C12.6133 7.50467 12.5013 7.6166 12.5013 7.75467C12.5013 7.89274 12.6133 8.00467 12.7513 8.00467C12.8894 8.00467 13.0013 7.89274 13.0013 7.75467C13.0013 7.6166 12.8894 7.50467 12.7513 7.50467ZM6.25135 3.00467C6.11328 3.00467 6.00135 3.1166 6.00135 3.25467C6.00135 3.39274 6.11328 3.50467 6.25135 3.50467C6.38942 3.50467 6.50135 3.39274 6.50135 3.25467C6.50135 3.1166 6.38942 3.00467 6.25135 3.00467ZM8 15.5047C12.1421 15.5047 15.5 12.1468 15.5 8.00467C15.5 3.86253 12.1421 0.504669 8 0.504669C3.85786 0.504669 0.5 3.86253 0.5 8.00467C0.5 12.1468 3.85786 15.5047 8 15.5047ZM3.25135 7.50467C3.11328 7.50467 3.00135 7.6166 3.00135 7.75467C3.00135 7.89274 3.11328 8.00467 3.25135 8.00467C3.38942 8.00467 3.50135 7.89274 3.50135 7.75467C3.50135 7.6166 3.38942 7.50467 3.25135 7.50467Z" stroke-linecap="round" stroke-linejoin="round"/>
</svg>
