<svg width="16" height="17" viewBox="0 0 16 17" fill="none" xmlns="http://www.w3.org/2000/svg">
    <path class="svg-stroke" id="svg-stroke" d="M0.5 15.88H15.5M15.5 4.36001V1.48001M15.5 1.48001H12.5M15.5 1.48001L12.1333 4.71201C11.7433 5.08658 11.1704 5.22523 10.642 5.07297L6.836 4.09633C6.31856 3.96375 5.76673 4.10594 5.388 4.46945L1.5 8.20193M4 12.04H2C1.72386 12.04 1.5 12.2549 1.5 12.52V15.88H4.5V12.52C4.5 12.2549 4.27614 12.04 4 12.04ZM9 7.24001H7C6.72386 7.24001 6.5 7.45491 6.5 7.72001V15.88H9.5V7.72001C9.5 7.45491 9.27614 7.24001 9 7.24001ZM14 9.16H12C11.7239 9.16 11.5 9.37491 11.5 9.64V15.88H14.5V9.64C14.5 9.37491 14.2761 9.16 14 9.16Z" stroke-linecap="round" stroke-linejoin="round"/>
</svg>
