<svg class="mb-icon-alert-help-fill" width="16" height="16" viewBox="0 0 16 16" fill="none" xmlns="http://www.w3.org/2000/svg">
    <path class="svg-fill" d="M13.657 2.34329C14.7758 3.46213 15.5377 4.88759 15.8463 6.43943C16.155 7.99127 15.9965 9.59978 15.391 11.0616C14.7855 12.5233 13.7601 13.7728 12.4445 14.6518C11.1289 15.5308 9.58224 16 8 16C6.41777 16 4.87107 15.5308 3.55548 14.6518C2.2399 13.7728 1.21452 12.5233 0.609007 11.0616C0.00349361 9.59978 -0.154957 7.99127 0.153691 6.43943C0.46234 4.88759 1.22422 3.46213 2.343 2.34329C3.08588 1.60038 3.96781 1.01107 4.93844 0.609003C5.90907 0.20694 6.94939 0 8 0C9.05061 0 10.0909 0.20694 11.0616 0.609003C12.0322 1.01107 12.9141 1.60038 13.657 2.34329Z" />
    <path class="svg-stroke" d="M6 6.00029C6.00009 5.63367 6.10096 5.27412 6.29158 4.96094C6.4822 4.64776 6.75524 4.39301 7.08085 4.22451C7.40647 4.05602 7.77214 3.98028 8.13789 4.00555C8.50365 4.03083 8.85542 4.15616 9.15476 4.36784C9.4541 4.57953 9.6895 4.86942 9.83523 5.20584C9.98095 5.54227 10.0314 5.91227 9.98105 6.27543C9.93071 6.63858 9.78151 6.98091 9.54977 7.265C9.31802 7.5491 9.01264 7.76402 8.667 7.88629V7.88629C8.47194 7.95518 8.30304 8.08287 8.18358 8.25176C8.06413 8.42065 7.99998 8.62243 8 8.82929V9.50029"  stroke-linecap="round" stroke-linejoin="round"/>
    <path class="svg-stroke" d="M8 11.5003C7.95055 11.5003 7.90222 11.515 7.86111 11.5424C7.82 11.5699 7.78795 11.609 7.76903 11.6546C7.75011 11.7003 7.74516 11.7506 7.7548 11.7991C7.76445 11.8476 7.78826 11.8921 7.82322 11.9271C7.85819 11.962 7.90273 11.9859 7.95123 11.9955C7.99972 12.0051 8.04999 12.0002 8.09567 11.9813C8.14135 11.9624 8.1804 11.9303 8.20787 11.8892C8.23534 11.8481 8.25 11.7998 8.25 11.7503C8.25 11.684 8.22366 11.6204 8.17678 11.5735C8.12989 11.5266 8.0663 11.5003 8 11.5003Z"  stroke-linecap="round" stroke-linejoin="round"/>
</svg>
