<svg width="16" height="16" viewBox="0 0 16 16" fill="none" xmlns="http://www.w3.org/2000/svg">
    <path class="svg-stroke" d="M1 12.5C1 13.0523 1.44772 13.5 2 13.5H3M5.5 4.5H8M1 4.5H3M1 3V5.5M1 8V10M8 13.5H5.5M14.5 1.5H11.5L10.6467 0.646667C10.553 0.55281 10.4259 0.500043 10.2933 0.5H8.5C8.22386 0.5 8 0.723858 8 1V6C8 6.27614 8.22386 6.5 8.5 6.5H14.5C14.7761 6.5 15 6.27614 15 6V2C15 1.72386 14.7761 1.5 14.5 1.5ZM14.5 10.5H11.5L10.6467 9.64667C10.553 9.55281 10.4259 9.50004 10.2933 9.5H8.5C8.22386 9.5 8 9.72386 8 10V15C8 15.2761 8.22386 15.5 8.5 15.5H14.5C14.7761 15.5 15 15.2761 15 15V11C15 10.7239 14.7761 10.5 14.5 10.5Z" stroke-linecap="round" stroke-linejoin="round"/>
</svg>
