<svg width="16" height="16" viewBox="0 0 16 16" fill="none" xmlns="http://www.w3.org/2000/svg">
    <path class="svg-stroke" d="M10.8163 15.5C10.3983 14.3025 9.26868 13.5004 8.00034 13.5004C6.732 13.5004 5.60238 14.3025 5.18434 15.5M2.5003 8.5V11C2.5003 11.8284 3.17187 12.5 4.0003 12.5H4.5003M13.5003 8.5V11C13.5003 11.8284 12.8287 12.5 12.0003 12.5H11.5003M8.0003 13C8.9668 13 9.7503 12.2165 9.7503 11.25C9.7503 10.2835 8.9668 9.5 8.0003 9.5C7.0338 9.5 6.2503 10.2835 6.2503 11.25C6.2503 12.2165 7.0338 13 8.0003 13ZM3.31626 4C4.28276 4 5.06626 3.2165 5.06626 2.25C5.06626 1.2835 4.28276 0.5 3.31626 0.5C2.34976 0.5 1.56626 1.2835 1.56626 2.25C1.56626 3.2165 2.34976 4 3.31626 4ZM6.13364 6.49999C5.71589 5.30203 4.58602 4.49945 3.31731 4.49945C2.0486 4.49945 0.918734 5.30203 0.500977 6.49999H6.13364ZM12.6843 4C13.6508 4 14.4343 3.2165 14.4343 2.25C14.4343 1.2835 13.6508 0.5 12.6843 0.5C11.7178 0.5 10.9343 1.2835 10.9343 2.25C10.9343 3.2165 11.7178 4 12.6843 4ZM15.5004 6.49999C15.0826 5.30203 13.9528 4.49945 12.684 4.49945C11.4153 4.49945 10.2855 5.30203 9.86771 6.49999H15.5004Z" stroke-linecap="round" stroke-linejoin="round"/>
</svg>
