<svg class="mb-icon-alert-more-fill" width="16" height="16" viewBox="0 0 16 16" fill="none" xmlns="http://www.w3.org/2000/svg">
    <path class="svg-fill" fill-rule="evenodd" clip-rule="evenodd" d="M13.657 2.34329C14.7758 3.46213 15.5377 4.88759 15.8463 6.43943C16.155 7.99127 15.9965 9.59978 15.391 11.0616C14.7855 12.5233 13.7601 13.7728 12.4445 14.6518C11.1289 15.5308 9.58224 16 8 16C6.41777 16 4.87107 15.5308 3.55548 14.6518C2.2399 13.7728 1.21452 12.5233 0.609007 11.0616C0.00349361 9.59978 -0.154957 7.99127 0.153691 6.43943C0.46234 4.88759 1.22422 3.46213 2.343 2.34329C3.08588 1.60038 3.96781 1.01107 4.93844 0.609003C5.90907 0.20694 6.94939 0 8 0C9.05061 0 10.0909 0.20694 11.0616 0.609003C12.0322 1.01107 12.9141 1.60038 13.657 2.34329Z"/>
    <path class="svg-stroke" d="M8 8.5003L7.9995 8.50031C7.93403 8.50037 7.86894 8.48748 7.808 8.46229C7.74696 8.43707 7.69186 8.40029 7.64561 8.35409C7.59937 8.3079 7.56244 8.25267 7.53715 8.19166C7.5129 8.13316 7.5 8.06843 7.5 8.00031C7.5 7.86776 7.55265 7.74064 7.64646 7.64683C7.7403 7.55299 7.8675 7.50031 8 7.50031C8.13254 7.50031 8.25978 7.55301 8.3536 7.64683C8.44735 7.74058 8.5 7.86768 8.5 8.00031C8.5 8.13293 8.44735 8.26003 8.3536 8.35378C8.25978 8.4476 8.13254 8.50031 8 8.5003ZM11.5 8.00031C11.5 7.86776 11.5527 7.74064 11.6465 7.64683C11.7403 7.55299 11.8675 7.50031 12 7.50031C12.1325 7.50031 12.2598 7.55301 12.3536 7.64683C12.4474 7.74058 12.5 7.86768 12.5 8.00031C12.5 8.13293 12.4474 8.26003 12.3536 8.35378C12.2598 8.4476 12.1325 8.50031 12 8.50031C11.8675 8.50031 11.7403 8.44763 11.6465 8.35378C11.5527 8.25997 11.5 8.13285 11.5 8.00031ZM3.5 8.00031C3.5 7.86776 3.55265 7.74064 3.64646 7.64683C3.7403 7.55299 3.8675 7.50031 4 7.50031C4.13254 7.50031 4.25978 7.55301 4.3536 7.64683C4.44735 7.74058 4.5 7.86768 4.5 8.00031C4.5 8.13293 4.44735 8.26003 4.3536 8.35378C4.25978 8.4476 4.13254 8.50031 4 8.50031C3.8675 8.50031 3.7403 8.44763 3.64646 8.35378C3.55265 8.25997 3.5 8.13285 3.5 8.00031Z"/>
</svg>
