<svg width="16" height="16" viewBox="0 0 16 16" fill="none" xmlns="http://www.w3.org/2000/svg">
<path class="svg-fill" d="M4 6.99341C3.80222 6.99341 3.60888 7.05206 3.44443 7.16194C3.27998 7.27182 3.15181 7.428 3.07612 7.61072C3.00043 7.79345 2.98063 7.99452 3.01922 8.1885C3.0578 8.38248 3.15304 8.56066 3.29289 8.70051C3.43275 8.84037 3.61093 8.93561 3.80491 8.97419C3.99889 9.01278 4.19996 8.99298 4.38268 8.91729C4.56541 8.8416 4.72159 8.71343 4.83147 8.54898C4.94135 8.38453 5 8.19119 5 7.99341C5 7.72819 4.89464 7.47384 4.70711 7.2863C4.51957 7.09877 4.26522 6.99341 4 6.99341Z"/>
<path class="svg-fill" d="M12 6.99341C11.8022 6.99341 11.6089 7.05206 11.4444 7.16194C11.28 7.27182 11.1518 7.428 11.0761 7.61072C11.0004 7.79345 10.9806 7.99452 11.0192 8.1885C11.0578 8.38248 11.153 8.56066 11.2929 8.70051C11.4327 8.84037 11.6109 8.93561 11.8049 8.97419C11.9989 9.01278 12.2 8.99298 12.3827 8.91729C12.5654 8.8416 12.7216 8.71343 12.8315 8.54898C12.9414 8.38453 13 8.19119 13 7.99341C13 7.72819 12.8946 7.47384 12.7071 7.2863C12.5196 7.09877 12.2652 6.99341 12 6.99341Z"/>
<path class="svg-fill" d="M8 6.99341C7.80222 6.99341 7.60888 7.05206 7.44443 7.16194C7.27998 7.27182 7.15181 7.428 7.07612 7.61072C7.00043 7.79345 6.98063 7.99452 7.01922 8.1885C7.0578 8.38248 7.15304 8.56066 7.29289 8.70051C7.43275 8.84037 7.61093 8.93561 7.80491 8.97419C7.99889 9.01278 8.19996 8.99298 8.38268 8.91729C8.56541 8.8416 8.72159 8.71343 8.83147 8.54898C8.94135 8.38453 9 8.19119 9 7.99341C9 7.72819 8.89464 7.47384 8.70711 7.2863C8.51957 7.09877 8.26522 6.99341 8 6.99341Z"/>
<path class="svg-stroke" d="M13.3 2.6934C14.3498 3.74192 15.0651 5.07828 15.3552 6.53339C15.6454 7.9885 15.4974 9.49698 14.93 10.868C14.3626 12.239 13.4013 13.4109 12.1678 14.2354C10.9342 15.0599 9.48376 15.5 8 15.5C6.51625 15.5 5.06583 15.0599 3.83226 14.2354C2.59869 13.4109 1.6374 12.239 1.07001 10.868C0.502631 9.49698 0.354652 7.9885 0.644797 6.53339C0.934943 5.07828 1.65018 3.74192 2.7 2.6934C4.10626 1.2889 6.0125 0.5 8 0.5C9.98751 0.5 11.8938 1.2889 13.3 2.6934" stroke-linecap="round" stroke-linejoin="round"/>
</svg>
