<svg width="16" height="16" viewBox="0 0 16 16" fill="none" xmlns="http://www.w3.org/2000/svg">
    <path class="svg-stroke" d="M11.5001 8C11.5001 9.933 9.93309 11.5 8.0001 11.5C6.0671 11.5 4.5001 9.933 4.5001 8C4.5001 6.067 6.0671 4.5 8.0001 4.5C9.93309 4.5 11.5001 6.067 11.5001 8ZM11.5001 8L11.5001 9.49999C11.5001 10.6046 12.3955 11.5 13.5001 11.5C14.6046 11.5 15.5001 10.6046 15.5001 9.49999V7.99999C15.4999 4.52203 13.1085 1.50056 9.72356 0.701569C6.33862 -0.0974275 2.84851 1.53574 1.29312 4.64652C-0.262268 7.7573 0.525264 11.5293 3.19542 13.7578C5.86558 15.9864 9.7176 16.0866 12.5001 14" stroke-linecap="round" stroke-linejoin="round"/>
</svg>
