<svg width="16" height="16" viewBox="0 0 16 16" fill="none" xmlns="http://www.w3.org/2000/svg">
    <path class="svg-stroke" d="M4.4839 0.5H11.4839M3.53384 8.5H12.4338M9.4839 11.5H11.4839M10.4839 10.5V12.5M10.4839 2.5H8.4839M10.4839 4.5H8.4839M10.4839 5.5V0.5H5.4839V5.5L0.992565 12.41C0.593128 13.0245 0.561798 13.8083 0.910911 14.4527C1.26002 15.0971 1.93365 15.4989 2.66656 15.5H13.2986C14.032 15.4999 14.7065 15.0985 15.0562 14.4538C15.406 13.8092 15.3749 13.0249 14.9752 12.41L10.4839 5.5ZM4.4839 12.75C4.62171 12.7504 4.73324 12.8622 4.73324 13C4.73324 13.1381 4.62197 13.25 4.4839 13.25C4.34583 13.25 4.2339 13.1381 4.2339 13C4.2339 12.8619 4.34583 12.75 4.4839 12.75ZM6.4839 10.75C6.62198 10.75 6.7339 10.8619 6.7339 11C6.7339 11.1381 6.62198 11.25 6.4839 11.25C6.34583 11.25 6.2339 11.1381 6.2339 11C6.2339 10.8619 6.34583 10.75 6.4839 10.75Z" stroke-linecap="round" stroke-linejoin="round"/>
    <path class="svg-fill" d="M5 13C5 13.2762 4.77614 13.5 4.5 13.5C4.22386 13.5 4 13.2762 4 13C4 12.7239 4.22386 12.5 4.5 12.5C4.77614 12.5 5 12.7239 5 13Z"/>
    <path class="svg-fill" d="M7 11C7 11.2761 6.77614 11.5 6.5 11.5C6.22386 11.5 6 11.2761 6 11C6 10.7239 6.22386 10.5 6.5 10.5C6.77614 10.5 7 10.7239 7 11Z"/>
</svg>
