<svg width="16" height="16" viewBox="0 0 16 16" fill="none" xmlns="http://www.w3.org/2000/svg">
    <path class="svg-stroke" d="M10.3688 6.99999C8.83633 5.60805 6.4972 5.60805 4.96476 6.99999M9.91681 2.824C9.51048 2.94109 9.08967 3.00034 8.66681 3C7.53843 3.00168 6.45094 2.57768 5.62148 1.81267M15.5002 15.5C14.7389 14.5248 13.5707 13.9547 12.3335 13.9547C11.0963 13.9547 9.92816 14.5248 9.16685 15.5M14.5835 10.824C13.0733 11.2589 11.4457 10.8756 10.2881 9.81267M6.83284 15.5C6.07154 14.5248 4.90336 13.9547 3.66618 13.9547C2.429 13.9547 1.26082 14.5248 0.499512 15.5M5.91681 10.824C4.40663 11.2589 2.77899 10.8756 1.62148 9.81267M7.66685 5C8.90949 5 9.91685 3.99264 9.91685 2.75C9.91685 1.50736 8.90949 0.5 7.66685 0.5C6.42421 0.5 5.41685 1.50736 5.41685 2.75C5.41685 3.99264 6.42421 5 7.66685 5ZM12.3335 13C13.5762 13 14.5835 11.9926 14.5835 10.75C14.5835 9.50736 13.5762 8.5 12.3335 8.5C11.0909 8.5 10.0835 9.50736 10.0835 10.75C10.0835 11.9926 11.0909 13 12.3335 13ZM3.66685 13C4.90949 13 5.91685 11.9926 5.91685 10.75C5.91685 9.50736 4.90949 8.5 3.66685 8.5C2.42421 8.5 1.41685 9.50736 1.41685 10.75C1.41685 11.9926 2.42421 13 3.66685 13Z" stroke-linecap="round" stroke-linejoin="round"/>
</svg>
