<svg width="16" height="17" viewBox="0 0 16 17" fill="none" xmlns="http://www.w3.org/2000/svg">
    <path class="svg-stroke" d="M6.5 13.5073H4.5C3.94772 13.5073 3.5 13.0596 3.5 12.5073V3.50732C3.5 2.95504 3.94772 2.50732 4.5 2.50732H11.5C12.0523 2.50732 12.5 2.95504 12.5 3.50732V4.50732M3.5 11.5073H1.5C0.947715 11.5073 0.5 11.0596 0.5 10.5073V1.50732C0.5 0.955039 0.947715 0.507324 1.5 0.507324H8.5C9.05228 0.507324 9.5 0.955039 9.5 1.50732V2.50732M11.5 7.50732H13.5M8.5 7.00732L9 7.50732L10 6.50732M11.5 10.5073H13.5M8.5 10.0073L9 10.5073L10 9.50732M11.5 13.5073H13.5M8.5 13.0073L9 13.5073L10 12.5073M7.5 15.5073H14.5C15.0523 15.5073 15.5 15.0596 15.5 14.5073V5.50732C15.5 4.95504 15.0523 4.50732 14.5 4.50732H7.5C6.94772 4.50732 6.5 4.95504 6.5 5.50732V14.5073C6.5 15.0596 6.94772 15.5073 7.5 15.5073Z" stroke-linecap="round" stroke-linejoin="round"/>
</svg>
