<svg width="16" height="16" viewBox="0 0 16 16" fill="none" xmlns="http://www.w3.org/2000/svg">
    <path class="svg-stroke" d="M10 11.5V13C10 13.5523 9.55228 14 9 14H7C6.44772 14 6 13.5523 6 13V11.5M8 0.5V1.5M1 7.5H2M2.5 2.5L3.23333 3.20467M15 7.5H14M13.5 2.5L12.7667 3.20467M8 14V15.5M8 9V11.5M8 9L6.5 7.5M8 9L9.5 7.5M5.94332 11.5H10.0566C11.5726 10.7475 12.5226 9.19228 12.5 7.5C12.4562 5.03307 10.4669 3.04377 7.99998 3C5.53204 3.04381 3.54233 5.0347 3.49998 7.50267C3.47839 9.19399 4.42824 10.748 5.94332 11.5Z"  stroke-linecap="round" stroke-linejoin="round"/>
</svg>
