<svg width="16" height="16" viewBox="0 0 16 16" fill="none" xmlns="http://www.w3.org/2000/svg">
    <path class="svg-stroke" d="M5.50007 12.5H1.63141M13.5 5.5V3.5C13.5 2.94772 13.0523 2.5 12.5 2.5H5.5V1.5C5.5 0.947715 5.05228 0.5 4.5 0.5H1.5C0.947715 0.5 0.5 0.947715 0.5 1.5V11.3667C0.507778 11.9296 0.927539 12.4014 1.48569 12.4747C2.04384 12.548 2.57118 12.2005 2.724 11.6587L4.29133 6.22267C4.41494 5.79447 4.80699 5.49975 5.25267 5.5H14.5M10 12.5H7.5V15M15.1114 12.9887C14.567 14.5797 13.0216 15.6066 11.3439 15.4921C9.66617 15.3776 8.27463 14.1503 7.95141 12.5M13 10.5H15.5V8M7.88866 10.0113C8.4331 8.42028 9.97848 7.39343 11.6562 7.50793C13.3339 7.62243 14.7254 8.84973 15.0487 10.5" stroke-linecap="round" stroke-linejoin="round"/>
</svg>
