<svg class="mb-icon-file-xls" width="16" height="16" viewBox="0 0 16 16" fill="none" xmlns="http://www.w3.org/2000/svg">
    <path class="svg-fill" d="M1.5 16C1.10218 16 0.720636 15.8419 0.439331 15.5605C0.158026 15.2792 0 14.8978 0 14.5V1.5C0 1.10218 0.158026 0.720758 0.439331 0.439453C0.720636 0.158149 1.10218 0 1.5 0H11V3C11 3.53043 11.2107 4.03923 11.5858 4.41431C11.9609 4.78938 12.4696 5 13 5H16V14.5C16 14.8978 15.842 15.2792 15.5607 15.5605C15.2794 15.8419 14.8978 16 14.5 16H1.5ZM13 4C12.7348 4 12.4804 3.89457 12.2928 3.70703C12.1053 3.51949 12 3.26522 12 3V0L16 4H13Z" />
    <path class="svg-stroke" d="M12.502 7.5H11.502C11.2367 7.5 10.9824 7.60536 10.7948 7.79289C10.6073 7.98043 10.502 8.23478 10.502 8.5C10.502 10 12.502 10 12.502 11.5C12.502 11.7652 12.3966 12.0196 12.2091 12.2071C12.0215 12.3946 11.7672 12.5 11.502 12.5H10.502M2.50098 7.5L4.50098 12.5M4.50098 7.5L2.50098 12.5M6.50098 7.5V11.5C6.50098 11.7652 6.60633 12.0196 6.79387 12.2071C6.98141 12.3946 7.23576 12.5 7.50098 12.5H8.50098" stroke-linecap="round" stroke-linejoin="round"/>
</svg>
