<svg width="16" height="16" viewBox="0 0 16 16" fill="none" xmlns="http://www.w3.org/2000/svg">
    <path class="svg-stroke" id="svg-stroke" d="M4.03997 9.17666L10.578 2.63866C11.3808 1.83581 12.4329 1.33008 13.5613 1.20466L15 1.04466L14.84 2.48333C14.7149 3.61183 14.2091 4.66406 13.406 5.46666L6.86663 12.0047M4.03997 9.17666L6.86663 12.0047M4.03997 9.17666L1.6254 8.37132C1.46099 8.31672 1.33662 8.18079 1.29681 8.01218C1.257 7.84356 1.30744 7.66637 1.43007 7.54399L1.58474 7.38932C2.65599 6.31787 4.24067 5.94364 5.67807 6.42266L6.51474 6.70132L4.03997 9.17666ZM6.86663 12.0047L7.67205 14.4193C7.72666 14.5838 7.86259 14.7081 8.0312 14.7479C8.19981 14.7877 8.37701 14.7373 8.49939 14.6147L8.65472 14.46C9.72594 13.3886 10.0999 11.804 9.62072 10.3667L9.34339 9.53334L6.86663 12.0047ZM5.18605 12.3587C5.18656 12.7566 5.02845 13.1383 4.74671 13.4193C4.16138 14.0047 1.21338 14.8333 1.21338 14.8333C1.21338 14.8333 2.04205 11.8833 2.62738 11.3C2.88451 11.0422 3.22674 10.887 3.59005 10.8633"  stroke-linecap="round" stroke-linejoin="round"/>
</svg>
