<svg width="16" height="16" viewBox="0 0 16 16" fill="none" xmlns="http://www.w3.org/2000/svg">
    <path class="svg-stroke" d="M0.5 13.5C0.5 11.0147 2.51472 9 5 9C7.48528 9 9.5 11.0147 9.5 13.5M10.542 10.0453C11.6719 9.62889 12.9341 9.79099 13.9221 10.4794C14.9102 11.1679 15.4993 12.2958 15.5 13.5M5 8C6.51878 8 7.75 6.76878 7.75 5.25C7.75 3.73122 6.51878 2.5 5 2.5C3.48122 2.5 2.25 3.73122 2.25 5.25C2.25 6.76878 3.48122 8 5 8ZM11.818 9C13.0606 9 14.068 7.99264 14.068 6.75C14.068 5.50736 13.0606 4.5 11.818 4.5C10.5753 4.5 9.56798 5.50736 9.56798 6.75C9.56798 7.99264 10.5753 9 11.818 9Z" stroke-linecap="round" stroke-linejoin="round"/>
</svg>
