<svg width="16" height="16" viewBox="0 0 16 16" fill="none" xmlns="http://www.w3.org/2000/svg">
    <path class="svg-stroke" id="svg-stroke" d="M0.5 0.5V15.5H15.5M9 4.5H0.5V2.5H9C9.13567 2.49982 9.26583 2.55364 9.36176 2.64957C9.4577 2.7455 9.51151 2.87566 9.51133 3.01133V3.98867C9.51133 4.12428 9.45746 4.25434 9.36157 4.35023C9.26567 4.44613 9.13561 4.5 9 4.5ZM9 8.5H0.5V6.5H9C9.13567 6.49982 9.26583 6.55364 9.36176 6.64957C9.4577 6.7455 9.51151 6.87566 9.51133 7.01133V7.98867C9.51133 8.12428 9.45746 8.25434 9.36157 8.35023C9.26567 8.44613 9.13561 8.5 9 8.5ZM12.9887 12.5H0.5V10.5H12.9887C13.1243 10.4998 13.2545 10.5536 13.3504 10.6496C13.4464 10.7455 13.5002 10.8757 13.5 11.0113V11.9887C13.5 12.2711 13.2711 12.5 12.9887 12.5Z" stroke-linecap="round" stroke-linejoin="round"/>
</svg>
