<svg width="16" height="16" viewBox="0 0 16 16" fill="none" xmlns="http://www.w3.org/2000/svg">
    <path class="svg-stroke" d="M11.5 15.5H2.5C1.94772 15.5 1.5 15.0523 1.5 14.5V3.5M13.5 13.5H4.5C3.94772 13.5 3.5 13.0523 3.5 12.5V1.5M14.5 10.5C14.5 11.0523 14.0523 11.5 13.5 11.5H6.5C5.94772 11.5 5.5 11.0523 5.5 10.5V1.5C5.5 0.947715 5.94772 0.5 6.5 0.5H11.586C11.851 0.500057 12.1052 0.605321 12.2927 0.792667L14.2073 2.70733C14.3947 2.8948 14.4999 3.14897 14.5 3.414V10.5Z" stroke-linecap="round" stroke-linejoin="round"/>
</svg>
