<svg width="16" height="16" viewBox="0 0 16 16" fill="none" xmlns="http://www.w3.org/2000/svg">
<path class="svg-fill"  d="M11.348 6.98899C12.436 7.66399 13 8.66999 13 10.005C13 13.653 11.131 16 7.714 16C4.164 16 2 14.327 2 11.5C2 10.605 2.362 9.88199 2.936 9.44799C2.43 8.10499 2.631 7.08599 3.627 6.56599C4.142 6.29699 4.727 6.40599 5.405 6.87499C5.25 6.44499 4.979 5.70199 4.882 5.42199C4.719 4.95199 4.583 4.52599 4.47 4.11999C3.847 1.87299 3.956 0.393991 5.364 0.039991C6.653 -0.283009 7.383 0.985991 8.003 3.39299C8.097 3.75999 8.185 4.13899 8.285 4.59799L8.39 5.09099C8.646 4.46499 8.943 3.73999 9.106 3.37499C9.743 1.95099 10.323 0.973991 10.927 0.479991C11.296 0.177991 11.692 0.045991 12.098 0.149991C13.338 0.465991 13.226 1.85399 12.406 4.21299C12.307 4.49699 12.198 4.79299 12.073 5.11999C12.059 5.15699 11.545 6.45999 11.348 6.98999V6.98899ZM10.446 6.54799C10.674 5.94199 11.135 4.77299 11.139 4.76199C11.261 4.44399 11.366 4.15699 11.461 3.88399C12.052 2.18399 12.131 1.18899 11.851 1.11699C11.797 1.10399 11.706 1.13399 11.561 1.25299C11.118 1.61499 10.593 2.49999 10.019 3.78299C9.839 4.18799 9.349 5.39999 9.026 6.16299C9.549 6.25799 10.023 6.38699 10.446 6.54799ZM7.566 6.00799C7.55169 5.94673 7.53769 5.88539 7.524 5.82399L7.307 4.80999C7.22362 4.41925 7.1326 4.03017 7.034 3.64299C6.567 1.82899 6.034 0.902991 5.607 1.00999C5.027 1.15599 4.956 2.12799 5.434 3.85199C5.541 4.23599 5.67 4.64299 5.827 5.09499C5.935 5.40899 6.288 6.37199 6.418 6.73899C6.618 6.31299 7.01 6.05399 7.566 6.00899V6.00799ZM7.814 9.42599L7.948 9.61699L8.092 9.81299C8.2333 9.69637 8.38378 9.59136 8.542 9.49899C8.29768 9.49566 8.05411 9.47124 7.814 9.42599ZM7.401 10.567C7.31617 10.4525 7.2325 10.3372 7.15 10.221C5.586 8.11699 4.496 7.24099 4.09 7.45199C3.632 7.69199 3.526 8.16899 3.851 9.04299C4 9.01499 4.153 8.99999 4.311 8.99999C5.182 8.99999 6.411 10.087 7.037 11.213C7.13428 10.985 7.25634 10.7683 7.401 10.567ZM5.372 13.46C4.746 13.146 4.143 12.55 3.859 11.951C3.80224 11.8311 3.79543 11.6936 3.84007 11.5687C3.8847 11.4438 3.97712 11.3417 4.097 11.285C4.21688 11.2282 4.35439 11.2214 4.47929 11.2661C4.60419 11.3107 4.70624 11.4031 4.763 11.523C4.949 11.914 5.389 12.35 5.821 12.567C6.186 12.75 6.357 12.73 6.431 12.576C6.697 12.01 5.013 9.99999 4.31 9.99999C3.556 9.99999 3 10.562 3 11.5C3 13.71 4.668 15 7.714 15C10.522 15 12 13.144 12 10.005C12 8.22499 10.636 7.22699 7.714 6.99999C7.364 6.99999 7.266 7.10399 7.266 7.49999C7.266 8.25299 7.559 8.49999 8.662 8.49999C9.738 8.49999 10.487 8.69999 10.91 9.16299C10.9754 9.23464 11.0185 9.32377 11.0341 9.4195C11.0497 9.51523 11.0372 9.61343 10.9979 9.70215C10.9587 9.79086 10.8946 9.86625 10.8132 9.91914C10.7319 9.97202 10.637 10.0001 10.54 9.99999C9.457 9.99999 8.676 10.415 8.137 11.267C7.642 12.05 7.75 12.653 8.503 13.264C8.55402 13.3054 8.59639 13.3564 8.62769 13.4141C8.659 13.4719 8.67862 13.5352 8.68545 13.6005C8.69227 13.6658 8.68617 13.7319 8.66747 13.7948C8.64878 13.8578 8.61787 13.9165 8.5765 13.9675C8.53513 14.0185 8.48412 14.0609 8.42638 14.0922C8.36864 14.1235 8.3053 14.1431 8.23997 14.1499C8.17465 14.1568 8.10862 14.1507 8.04565 14.132C7.98269 14.1133 7.92402 14.0824 7.873 14.041C7.5979 13.8244 7.36039 13.5639 7.17 13.27C6.762 13.786 6.071 13.81 5.372 13.46Z"/>
</svg>
