<svg width="9" height="8" viewBox="0 0 9 8" fill="none" xmlns="http://www.w3.org/2000/svg">
    <path class="svg-fill" fill-rule="evenodd" clip-rule="evenodd" d="M7.13126 0H0.878515C0.101751 0 -0.287257 0.897614 0.261999 1.42259L3.00489 4.0442V7.73639C3.00489 7.95322 3.24009 8.077 3.40488 7.9469L4.60489 6.99962C4.85669 6.80084 5.00489 6.48889 5.00489 6.15759V4.0442L7.74778 1.42259C8.29703 0.897614 7.90803 0 7.13126 0ZM1.67761 0.819275C1.57782 0.723877 1.41956 0.727448 1.32416 0.827263C1.22876 0.927078 1.23233 1.08533 1.33215 1.18073L2.83215 2.61441C2.93195 2.70981 3.09021 2.70624 3.18561 2.60642C3.28101 2.50661 3.27743 2.34836 3.17761 2.25296L1.67761 0.819275Z"/>
</svg>
