<svg width="16" height="16" viewBox="0 0 16 16" fill="none" xmlns="http://www.w3.org/2000/svg">
    <path class="svg-stroke" id="svg-stroke" d="M13.9975 9.98867V5.96734M13.9975 9.98867C14.6879 9.98867 15.2475 10.5483 15.2475 11.2387C15.2475 11.929 14.6879 12.4887 13.9975 12.4887C13.3072 12.4887 12.7475 11.929 12.7475 11.2387C12.7475 10.5483 13.3072 9.98867 13.9975 9.98867ZM13.9975 5.96734C14.6879 5.96734 15.2475 5.40769 15.2475 4.71734C15.2475 4.02698 14.6879 3.46734 13.9975 3.46734C13.3072 3.46734 12.7475 4.02698 12.7475 4.71734C12.7475 5.40769 13.3072 5.96734 13.9975 5.96734ZM1.99752 5.96734V9.98934M6.79899 2.10733L3.07899 4.12933M12.8989 4.12L9.19556 2.10733M6.81099 13.8553L3.07899 11.8267M12.8989 11.836L9.18358 13.8553M6.75821 9.45734C7.05199 9.84309 7.51575 10.0609 8.00021 10.0407C8.75888 10.0407 9.37488 9.57934 9.37488 9.00934C9.37488 8.43934 8.75621 7.97867 8.00021 7.97867C7.24421 7.97867 6.62488 7.51667 6.62488 6.94667C6.62488 6.37667 7.23821 5.91534 8.00021 5.91534C8.48354 5.89609 8.94586 6.11382 9.23888 6.49867M7.99752 10.0407V10.728M7.99752 5.22801V5.91534M7.99752 3C8.68787 3 9.24752 2.44036 9.24752 1.75C9.24752 1.05964 8.68787 0.5 7.99752 0.5C7.30716 0.5 6.74752 1.05964 6.74752 1.75C6.74752 2.44036 7.30716 3 7.99752 3ZM7.99752 15.5C8.68787 15.5 9.24752 14.9404 9.24752 14.25C9.24752 13.5596 8.68787 13 7.99752 13C7.30716 13 6.74752 13.5596 6.74752 14.25C6.74752 14.9404 7.30716 15.5 7.99752 15.5ZM1.97559 5.96734C2.66594 5.96734 3.22559 5.40769 3.22559 4.71734C3.22559 4.02698 2.66594 3.46734 1.97559 3.46734C1.28523 3.46734 0.725586 4.02698 0.725586 4.71734C0.725586 5.40769 1.28523 5.96734 1.97559 5.96734ZM1.97559 12.4887C2.66594 12.4887 3.22559 11.929 3.22559 11.2387C3.22559 10.5483 2.66594 9.98868 1.97559 9.98868C1.28523 9.98868 0.725586 10.5483 0.725586 11.2387C0.725586 11.929 1.28523 12.4887 1.97559 12.4887Z" stroke-linecap="round" stroke-linejoin="round"/>
</svg>
