<svg width="17" height="16" viewBox="0 0 17 16" fill="none" xmlns="http://www.w3.org/2000/svg">
    <path class="svg-fill" id="svg-fill" d="M12.5 0.5C12.5 0.223858 12.2761 0 12 0C11.7239 0 11.5 0.223858 11.5 0.5H12.5ZM11.5 4C11.5 4.27614 11.7239 4.5 12 4.5C12.2761 4.5 12.5 4.27614 12.5 4H11.5ZM5.5 0.5C5.5 0.223858 5.27614 1.88107e-08 5 0C4.72386 -1.88107e-08 4.5 0.223858 4.5 0.5L5.5 0.5ZM4.5 4C4.5 4.27614 4.72386 4.5 5 4.5C5.27614 4.5 5.5 4.27614 5.5 4L4.5 4ZM3 3H14V2H3V3ZM15.5 4.5V13.5H16.5V4.5H15.5ZM14 15H3V16H14V15ZM1.5 13.5V4.5H0.5V13.5H1.5ZM3 15C2.17157 15 1.5 14.3284 1.5 13.5H0.5C0.5 14.8807 1.61929 16 3 16V15ZM15.5 13.5C15.5 14.3284 14.8284 15 14 15V16C15.3807 16 16.5 14.8807 16.5 13.5H15.5ZM14 3C14.8284 3 15.5 3.67157 15.5 4.5H16.5C16.5 3.11929 15.3807 2 14 2V3ZM3 2C1.61929 2 0.5 3.11929 0.5 4.5H1.5C1.5 3.67157 2.17157 3 3 3V2ZM11.5 0.5V4H12.5V0.5H11.5ZM4.5 0.5L4.5 4L5.5 4L5.5 0.5L4.5 0.5ZM16 6H1V7H16V6ZM4.5 15.5V6H3.5V15.5H4.5ZM7.5 15.5V6.5H6.5V15.5H7.5ZM10.5 15.5V6H9.5V15.5H10.5ZM13.5 15.5V6.5H12.5V15.5H13.5ZM16 9H1V10H16V9ZM16 12H1V13H16V12Z"/>
</svg>
