<svg width="16" height="16" viewBox="0 0 16 16" fill="none" xmlns="http://www.w3.org/2000/svg">
<path d="M10.0143 10.4874C10.3425 10.8156 10.7877 11 11.2518 11C11.7159 11 12.161 10.8156 12.4893 10.4874C12.8174 10.1592 13.0018 9.71411 13.0018 9.25C13.0018 8.78589 12.8174 8.34076 12.4893 8.01257C12.161 7.68439 11.7159 7.5 11.2518 7.5C10.7877 7.5 10.3425 7.68439 10.0143 8.01257C9.68616 8.34076 9.50177 8.78589 9.50177 9.25C9.50177 9.71411 9.68616 10.1592 10.0143 10.4874Z" fill="#8793A0"/>
<path fill-rule="evenodd" clip-rule="evenodd" d="M0.666687 0H15.3333C15.7015 0 16 0.298462 16 0.666687V15.3333C16 15.7015 15.7015 16 15.3333 16H0.666687C0.298462 16 0 15.7015 0 15.3333V0.666687C0 0.298462 0.298462 0 0.666687 0ZM6.2547 6.94635C6.81073 7.30933 7.21674 7.86115 7.39777 8.5H6.3338C6.16351 8.14099 5.8761 7.85065 5.51892 7.6767C5.16168 7.50269 4.75592 7.45544 4.36829 7.54272C3.98065 7.63 3.63422 7.84662 3.38605 8.15686C3.13788 8.46716 3.00262 8.85266 3.00262 9.25C3.00262 9.64734 3.13788 10.0328 3.38605 10.3431C3.63422 10.6534 3.98065 10.87 4.36829 10.9573C4.75592 11.0446 5.16168 10.9973 5.51892 10.8233C5.8761 10.6494 6.16351 10.359 6.3338 10H7.39777C7.21674 10.6389 6.81073 11.1907 6.2547 11.5536C5.69867 11.9166 5.03009 12.0662 4.37238 11.9749C3.71472 11.8834 3.11224 11.5573 2.67621 11.0565C2.24017 10.5557 2 9.914 2 9.25C2 8.586 2.24017 7.94434 2.67621 7.44354C3.11224 6.94275 3.71472 6.61658 4.37238 6.52515C5.03009 6.43378 5.69867 6.58337 6.2547 6.94635ZM9.50177 4V7.12903C9.90411 6.79718 10.3925 6.58557 10.9099 6.52081C11.4274 6.45599 11.9526 6.53967 12.4243 6.76208C12.896 6.9845 13.2947 7.33643 13.574 7.77686C13.8533 8.21722 14.0016 8.72803 14.0016 9.24951C14.0016 9.771 13.8533 10.2817 13.574 10.7222C13.2947 11.1626 12.896 11.5145 12.4243 11.7369C11.9526 11.9593 11.4274 12.043 10.9099 11.9782C10.3925 11.9134 9.90411 11.7028 9.50177 11.371V12H8.50177V4H9.50177Z" fill="#8793A0"/>
</svg>
