<svg width="16" height="16" viewBox="0 0 16 16" fill="none" xmlns="http://www.w3.org/2000/svg">
    <path class="svg-stroke" id="svg-stroke" d="M0.500488 5.5H15.4992M0.500488 10.5H15.4992M9.99981 12.5C9.99981 12.7761 9.77596 13 9.49981 13H6.49981C6.22367 13 5.99981 12.7761 5.99981 12.5M9.99981 7.5C9.99981 7.77614 9.77596 8 9.49981 8H6.49981C6.22367 8 5.99981 7.77614 5.99981 7.5M9.99981 2.5C9.99981 2.77614 9.77596 3 9.49981 3H6.49981C6.22367 3 5.99981 2.77614 5.99981 2.5M2.00049 15.5H13.9998C14.8282 15.5 15.4998 14.8284 15.4998 14V2C15.4998 1.17157 14.8282 0.5 13.9998 0.5H2.00049C1.17206 0.5 0.500488 1.17157 0.500488 2V14C0.500488 14.8284 1.17206 15.5 2.00049 15.5Z" stroke-linecap="round" stroke-linejoin="round"/>
</svg>
