<svg width="16" height="16" viewBox="0 0 16 16" fill="none" xmlns="http://www.w3.org/2000/svg">
    <path class="svg-stroke" id="svg-stroke" d="M8 14.1667V12.1667M8 14.1667C8.552 14.1667 9 14.4653 9 14.8333M8 14.1667C7.448 14.1667 7 14.4653 7 14.8333M1 12.1667H15M4.46271 9.01133C4.68468 9.35366 5.06887 9.55573 5.47671 9.54467C6.04514 9.59026 6.5451 9.1716 6.60005 8.604C6.54341 8.03774 6.04396 7.62099 5.47671 7.66667C4.90849 7.71348 4.40767 7.29603 4.35138 6.72867C4.40801 6.16148 4.9086 5.74422 5.47671 5.79067M5.47671 5.79067C5.88429 5.77997 6.26811 5.98198 6.49005 6.324M5.47671 5.79067L5.47672 5.166M5.47672 9.54133V10.166M9 10.1667V8.16667M11 10.1667V6.16667M1.75 3.16667H14.25C14.6642 3.16667 15 2.83089 15 2.41667V1.91667C15 1.50246 14.6642 1.16667 14.25 1.16667H1.75C1.33579 1.16667 1 1.50246 1 1.91667V2.41667C1 2.83089 1.33579 3.16667 1.75 3.16667ZM2 3.16667H14V12.1667H2V3.16667Z" stroke-linecap="round" stroke-linejoin="round"/>
</svg>
