<svg width="16" height="16" viewBox="0 0 16 16" fill="none" xmlns="http://www.w3.org/2000/svg">
    <path class="svg-stroke" d="M8 12.5C7.86193 12.5 7.75 12.6119 7.75 12.75C7.75 12.8881 7.86193 13 8 13C8.13807 13 8.25 12.8881 8.25 12.75C8.25 12.6119 8.13807 12.5 8 12.5V12.5"  stroke-linecap="round" stroke-linejoin="round"/>
    <path class="svg-fill" d="M7.50001 10.5C7.50001 10.7761 7.72387 11 8.00001 11C8.27615 11 8.50001 10.7761 8.50001 10.5H7.50001ZM8.50001 5.5C8.50001 5.22385 8.27615 5 8.00001 5C7.72387 5 7.50001 5.22385 7.50001 5.5H8.50001ZM9.08068 1.17333L9.52951 0.953001L9.52946 0.952885L9.08068 1.17333ZM8.00001 0.500153V0.000152588V0.500153ZM6.91934 1.17333L6.47056 0.952885L6.4705 0.953001L6.91934 1.17333ZM0.604008 14.0387L1.05272 14.2592L1.05285 14.259L0.604008 14.0387ZM1.51467 15.5L1.51467 15L1.51434 15L1.51467 15.5ZM14.4853 15.5L14.4857 15H14.4853V15.5ZM15.396 14.0387L14.9472 14.259L14.9473 14.2592L15.396 14.0387ZM8.50001 10.5V5.5H7.50001V10.5H8.50001ZM9.52946 0.952885C9.24298 0.369679 8.64977 0.000152588 8.00001 0.000152588V1.00015C8.26846 1.00015 8.51354 1.15282 8.63189 1.39377L9.52946 0.952885ZM8.00001 0.000152588C7.35024 0.000152588 6.75703 0.369679 6.47056 0.952885L7.36812 1.39377C7.48648 1.15282 7.73156 1.00015 8.00001 1.00015V0.000152588ZM6.4705 0.953001L0.155169 13.8183L1.05285 14.259L7.36818 1.39365L6.4705 0.953001ZM0.155293 13.8181C-0.0754665 14.2875 -0.0475681 14.8428 0.229079 15.2867L1.07777 14.7578C0.983852 14.6071 0.97438 14.4186 1.05272 14.2592L0.155293 13.8181ZM0.229079 15.2867C0.505726 15.7307 0.991929 16.0003 1.51501 16L1.51434 15C1.33676 15.0001 1.17169 14.9086 1.07777 14.7578L0.229079 15.2867ZM1.51467 16H14.4853V15H1.51467V16ZM14.485 16C15.0081 16.0003 15.4943 15.7307 15.7709 15.2867L14.9222 14.7578C14.8283 14.9086 14.6633 15.0001 14.4857 15L14.485 16ZM15.7709 15.2867C16.0476 14.8428 16.0755 14.2875 15.8447 13.8181L14.9473 14.2592C15.0256 14.4186 15.0162 14.6071 14.9222 14.7578L15.7709 15.2867ZM15.8448 13.8183L9.52951 0.953001L8.63184 1.39365L14.9472 14.259L15.8448 13.8183Z" />
</svg>
