<svg class="mb-icon-file-google-sheet" width="16" height="16" viewBox="0 0 16 16" fill="none" xmlns="http://www.w3.org/2000/svg">
    <path class="svg-fill" d="M0.439331 15.5605C0.720636 15.8419 1.10218 16 1.5 16H14.5C14.8978 16 15.2794 15.8419 15.5607 15.5605C15.842 15.2792 16 14.8978 16 14.5V5H13C12.4696 5 11.9609 4.78938 11.5858 4.41431C11.2107 4.03923 11 3.53043 11 3V0H1.5C1.10218 0 0.720636 0.158149 0.439331 0.439453C0.158026 0.720758 0 1.10218 0 1.5V14.5C0 14.8978 0.158026 15.2792 0.439331 15.5605Z"/>
    <path class="svg-fill" d="M12.2928 3.70703C12.4804 3.89457 12.7348 4 13 4H16L12 0V3C12 3.26522 12.1053 3.51949 12.2928 3.70703Z"/>
    <path class="svg-stroke" d="M3.5 7.5C2.96957 7.5 2.46086 7.71071 2.08579 8.08579C1.71071 8.46086 1.5 8.96957 1.5 9.5V10.5C1.5 11.0304 1.71071 11.5391 2.08579 11.9142C2.46086 12.2893 2.96957 12.5 3.5 12.5V10" stroke-linecap="round" stroke-linejoin="round"/>
    <path class="svg-stroke" d="M13.5 12.5V10V7.5M12.5 7.5H14.5" stroke-linecap="round" stroke-linejoin="round"/>
    <path class="svg-stroke" d="M7.5 7.5H6.5C6.23478 7.5 5.98043 7.60536 5.79289 7.79289C5.60536 7.98043 5.5 8.23478 5.5 8.5C5.5 10 7.5 10 7.5 11.5C7.5 11.7652 7.39464 12.0196 7.20711 12.2071C7.01957 12.3946 6.76522 12.5 6.5 12.5H5.5" stroke-linecap="round" stroke-linejoin="round"/>
    <path class="svg-stroke" d="M11 7.5V12.5" sstroke-linecap="round" stroke-linejoin="round"/>
    <path class="svg-stroke" d="M9 7.5V12.5"  stroke-linecap="round" stroke-linejoin="round"/>
    <path class="svg-stroke" d="M11 10H9"/>
</svg>
