<svg width="16" height="17" viewBox="0 0 16 17" fill="none" xmlns="http://www.w3.org/2000/svg">
    <path class="svg-stroke" fill-rule="evenodd" clip-rule="evenodd" d="M9 10.4987C10.3807 10.4987 11.5 9.37937 11.5 7.99866C11.5 6.61795 10.3807 5.49866 9 5.49866C7.61929 5.49866 6.5 6.61795 6.5 7.99866C6.5 9.37937 7.61929 10.4987 9 10.4987Z" stroke-linecap="round" stroke-linejoin="round"/>
    <path class="svg-stroke" fill-rule="evenodd" clip-rule="evenodd" d="M14 4.49866C14.8284 4.49866 15.5 3.82708 15.5 2.99866C15.5 2.17023 14.8284 1.49866 14 1.49866C13.1716 1.49866 12.5 2.17023 12.5 2.99866C12.5 3.82708 13.1716 4.49866 14 4.49866Z"  stroke-linecap="round" stroke-linejoin="round"/>
    <path class="svg-stroke" fill-rule="evenodd" clip-rule="evenodd" d="M14 12.9987C14.8284 12.9987 15.5 12.3271 15.5 11.4987C15.5 10.6702 14.8284 9.99866 14 9.99866C13.1716 9.99866 12.5 10.6702 12.5 11.4987C12.5 12.3271 13.1716 12.9987 14 12.9987Z"  stroke-linecap="round" stroke-linejoin="round"/>
    <path class="svg-stroke" fill-rule="evenodd" clip-rule="evenodd" d="M9 16.4987C9.82843 16.4987 10.5 15.8271 10.5 14.9987C10.5 14.1702 9.82843 13.4987 9 13.4987C8.17157 13.4987 7.5 14.1702 7.5 14.9987C7.5 15.8271 8.17157 16.4987 9 16.4987Z"  stroke-linecap="round" stroke-linejoin="round"/>
    <path class="svg-stroke" fill-rule="evenodd" clip-rule="evenodd" d="M2 16.4987C2.82843 16.4987 3.5 15.8271 3.5 14.9987C3.5 14.1702 2.82843 13.4987 2 13.4987C1.17157 13.4987 0.5 14.1702 0.5 14.9987C0.5 15.8271 1.17157 16.4987 2 16.4987Z"  stroke-linecap="round" stroke-linejoin="round"/>
    <path class="svg-stroke" fill-rule="evenodd" clip-rule="evenodd" d="M2.5 5.99866C3.32843 5.99866 4 5.32708 4 4.49866C4 3.67023 3.32843 2.99866 2.5 2.99866C1.67157 2.99866 1 3.67023 1 4.49866C1 5.32708 1.67157 5.99866 2.5 5.99866Z" stroke-linecap="round" stroke-linejoin="round"/>
    <path class="svg-stroke" d="M10.7676 6.23199L12.9409 4.05865"  stroke-linecap="round" stroke-linejoin="round"/>
    <path class="svg-stroke" d="M11.1958 9.19464L12.7191 10.718"  stroke-linecap="round" stroke-linejoin="round"/>
    <path class="svg-stroke" d="M9 10.4987V13.4987"  stroke-linecap="round" stroke-linejoin="round"/>
    <path class="svg-stroke" d="M7.23406 9.76465L3.06006 13.9386"  stroke-linecap="round" stroke-linejoin="round"/>
    <path class="svg-stroke" d="M6.66757 7.09932L3.74023 5.34265" stroke-linecap="round" stroke-linejoin="round"/>
</svg>
