<svg width="16" height="16" viewBox="0 0 16 16" fill="none" xmlns="http://www.w3.org/2000/svg">
    <path class="svg-fill" d="M15.3333 0H0.666667C0.298477 1.60941e-08 0 0.298477 0 0.666667V15.3333C-5.55952e-08 15.7015 0.298477 16 0.666667 16H15.3333C15.7015 16 16 15.7015 16 15.3333V0.666667C16 0.298477 15.7015 0 15.3333 0ZM13.5733 3.9L12.6667 4.72C12.5942 4.77705 12.5584 4.86898 12.5733 4.96V11.28C12.5584 11.371 12.5942 11.463 12.6667 11.52L13.5667 12.4067V12.5867H9.33334V12.4067L10.1067 11.5C10.1933 11.4133 10.1933 11.3867 10.1933 11.26V6.66667L8.32667 11.9333L8.12667 12.6H7.6C5.83334 8.74 5.27334 7.38667 4.73334 6.46V11.1267L5.82667 12.46V12.64H2.66667V12.46L3.73334 11.1267V5.12667L2.90667 4.1V3.74667H6.08667L8.23334 8.88667L10 4.04C10.0554 3.79837 10.2795 3.63384 10.5267 3.65334H13.58L13.5733 3.9Z"/>
</svg>
