<svg width="16" height="17" viewBox="0 0 16 17" fill="none" xmlns="http://www.w3.org/2000/svg">
    <path class="svg-stroke" fill-rule="evenodd" clip-rule="evenodd" d="M8.5451 9.678L10.2418 7.98134L11.4098 8.29467C11.7711 8.39104 12.1564 8.28755 12.4209 8.02311C12.6853 7.75867 12.7888 7.37335 12.6924 7.012L12.3791 5.844L12.9018 5.32134L14.0698 5.63467C14.4312 5.73148 14.8168 5.62815 15.0814 5.36358C15.3459 5.09902 15.4493 4.71341 15.3524 4.352L15.0398 3.184C15.6532 2.57041 15.653 1.57574 15.0394 0.962336C14.4258 0.348932 13.4312 0.349081 12.8178 0.962669L6.32377 7.45667C4.47797 6.67408 2.33644 7.30916 1.21569 8.97149C0.0949324 10.6338 0.309256 12.8572 1.7269 14.2749C3.14454 15.6925 5.36795 15.9068 7.03028 14.7861C8.69262 13.6653 9.32769 11.5238 8.5451 9.678Z" stroke-linecap="round" stroke-linejoin="round"/>
    <path class="svg-stroke" fill-rule="evenodd" clip-rule="evenodd" d="M3.94779 13.1013C4.52622 13.1013 4.99513 12.6324 4.99513 12.054C4.99513 11.4756 4.52622 11.0067 3.94779 11.0067C3.36937 11.0067 2.90046 11.4756 2.90046 12.054C2.90046 12.6324 3.36937 13.1013 3.94779 13.1013Z" stroke-linecap="round" stroke-linejoin="round"/>
</svg>
