<svg width="16" height="16" viewBox="0 0 16 16" fill="none" xmlns="http://www.w3.org/2000/svg">
    <path class="svg-fill" d="M7.99996 0.186646C3.58168 0.185333 -0.00110772 3.76599 -0.00244105 8.18425C-0.00347053 11.6488 2.22572 14.7203 5.51994 15.7933H5.71327C6.08076 15.8161 6.39714 15.5367 6.41994 15.1692C6.42165 15.1417 6.42165 15.1141 6.41994 15.0867V14.9467C6.41994 14.8333 6.41994 14.68 6.41994 14.22C6.40673 14.1318 6.3587 14.0525 6.28661 14C6.20817 13.9365 6.10522 13.912 6.00661 13.9333C4.21994 14.32 3.83994 13.2 3.81327 13.1267C3.58955 12.5341 3.18929 12.0244 2.66661 11.6667C2.63529 11.6396 2.60185 11.615 2.56661 11.5933C2.64408 11.5516 2.73269 11.5353 2.81994 11.5466C3.16077 11.594 3.45177 11.8167 3.58661 12.1333C4.12262 13.0666 5.3011 13.4084 6.25327 12.9067C6.35305 12.863 6.42523 12.7734 6.44661 12.6667C6.47213 12.3583 6.60412 12.0684 6.81994 11.8467C6.95759 11.7244 6.97008 11.5137 6.84784 11.3761C6.79412 11.3156 6.72022 11.2767 6.63994 11.2667C5.05994 11.0867 3.44661 10.5333 3.44661 7.80665C3.43329 7.1219 3.68393 6.45829 4.14661 5.95332C4.23361 5.85723 4.25701 5.71941 4.20661 5.59998C4.02133 5.08234 4.02369 4.51606 4.21327 3.99998C4.82916 4.10916 5.40723 4.37296 5.89328 4.76665C5.97462 4.82406 6.07771 4.84125 6.17328 4.81332C6.7688 4.65177 7.3829 4.56885 7.99994 4.56665C8.61929 4.56717 9.23582 4.65012 9.83328 4.81332C9.9268 4.83912 10.0269 4.82202 10.1066 4.76665C10.5934 4.3742 11.1712 4.11055 11.7866 3.99998C11.9681 4.5133 11.9681 5.07333 11.7866 5.58665C11.7362 5.70608 11.7596 5.84389 11.8466 5.93998C12.3045 6.4399 12.5548 7.09545 12.5466 7.77332C12.5466 10.5 10.9266 11.0467 9.33994 11.2267C9.15684 11.2457 9.02386 11.4096 9.04293 11.5927C9.05188 11.6786 9.09383 11.7577 9.15994 11.8133C9.45881 12.1218 9.60744 12.5458 9.56661 12.9733V15.0933C9.55993 15.3044 9.64796 15.5073 9.80661 15.6467C10.0089 15.7981 10.2709 15.8451 10.5133 15.7733C14.7033 14.3716 16.9636 9.83855 15.5619 5.64852C14.4733 2.39465 11.4311 0.197266 7.99996 0.186646Z"/>
</svg>
