<svg width="16" height="16" viewBox="0 0 16 16" fill="none" xmlns="http://www.w3.org/2000/svg">
    <path class="svg-stroke" d="M3.5662 1.86134L8.02487 14.25L12.4829 1.86134M0.798828 5.75H15.2475M5.02487 5.75L8.02487 1.75L11.0249 5.75M12.8256 2.15C12.6367 1.89819 12.3403 1.75 12.0256 1.75H4.02558C3.71083 1.75 3.41444 1.89819 3.22558 2.15L1.00092 5.11733C0.722975 5.48815 0.736219 6.00135 1.03292 6.35733L7.25825 13.8907C7.44825 14.1175 7.72899 14.2486 8.02492 14.2486C8.32085 14.2486 8.60158 14.1175 8.79158 13.8907L15.0169 6.35733C15.3136 6.00135 15.3269 5.48815 15.0489 5.11733L12.8256 2.15Z" stroke-linecap="round" stroke-linejoin="round"/>
</svg>
