<svg width="17" height="16" viewBox="0 0 17 16" fill="none" xmlns="http://www.w3.org/2000/svg">
    <path class="svg-stroke" id="svg-stroke" d="M6.49707 13L9.14374 10.3533C9.23751 10.2595 9.36474 10.2068 9.4974 10.2068C9.63007 10.2068 9.75729 10.2595 9.85107 10.3533L11.1437 11.646C11.2375 11.7398 11.3647 11.7926 11.4974 11.7926C11.6301 11.7926 11.7573 11.7398 11.8511 11.646L14.4971 9M6.49707 2.5C8.15392 2.5 9.49707 3.84315 9.49707 5.5C9.49707 7.15685 8.15392 8.5 6.49707 8.5C4.84022 8.5 3.49707 7.15685 3.49707 5.5C3.49707 3.84315 4.84022 2.5 6.49707 2.5ZM6.49707 2.5L6.49707 5.5L8.6184 7.62133M11.9971 3.5H13.9971M11.9971 5.5H13.9971M2.99707 15.5H14.9971C15.8255 15.5 16.4971 14.8284 16.4971 14V2C16.4971 1.17157 15.8255 0.5 14.9971 0.5H2.99707C2.16864 0.5 1.49707 1.17157 1.49707 2V14C1.49707 14.8284 2.16864 15.5 2.99707 15.5Z" stroke-linecap="round" stroke-linejoin="round"/>
</svg>
