<svg class="mb-icon-file-google-slides" width="16" height="16" viewBox="0 0 16 16" fill="none" xmlns="http://www.w3.org/2000/svg">
    <path class="svg-fill" d="M1.5 16C1.10218 16 0.720636 15.8419 0.439331 15.5605C0.158026 15.2792 0 14.8978 0 14.5V1.5C0 1.10218 0.158026 0.720758 0.439331 0.439453C0.720636 0.158149 1.10218 0 1.5 0H11V3C11 3.53043 11.2107 4.03923 11.5858 4.41431C11.9609 4.78938 12.4696 5 13 5H16V14.5C16 14.8978 15.842 15.2792 15.5607 15.5605C15.2794 15.8419 14.8978 16 14.5 16H1.5ZM13 4C12.7348 4 12.4804 3.89457 12.2928 3.70703C12.1053 3.51949 12 3.26522 12 3V0L16 4H13Z"/>
    <path class="svg-stroke" d="M3.5 7.5C2.96957 7.5 2.46086 7.71071 2.08579 8.08579C1.71071 8.46086 1.5 8.96957 1.5 9.5V10.5C1.5 11.0304 1.71071 11.5391 2.08579 11.9142C2.46086 12.2893 2.96957 12.5 3.5 12.5V10M7.50195 7.5H6.50195C6.23674 7.5 5.98238 7.60536 5.79485 7.79289C5.60731 7.98043 5.50195 8.23478 5.50195 8.5C5.50195 10 7.50195 10 7.50195 11.5C7.50195 11.7652 7.3966 12.0196 7.20906 12.2071C7.02152 12.3946 6.76717 12.5 6.50195 12.5H5.50195M9 7.5V11.5C9 11.7652 9.10536 12.0196 9.29289 12.2071C9.48043 12.3946 9.73478 12.5 10 12.5H11M12.501 12.504C13.0314 12.504 13.5401 12.2933 13.9152 11.9182C14.2903 11.5432 14.501 11.0345 14.501 10.504V9.50403C14.501 8.9736 14.2903 8.46489 13.9152 8.08982C13.5401 7.71474 13.0314 7.50403 12.501 7.50403V12.504Z" stroke-linecap="round" stroke-linejoin="round"/>
</svg>
