<svg width="16" height="16" viewBox="0 0 16 16" fill="none" xmlns="http://www.w3.org/2000/svg">
    <path class="svg-stroke" id="svg-stroke" d="M3.99981 9.9L5.01048 8.1L7.10181 9.62133L8.80914 7.01466L10.3985 8.5L11.9998 6M7.03043 1.62467C7.27784 1.8993 7.63013 2.0561 7.99977 2.0561C8.3694 2.0561 8.72169 1.8993 8.9691 1.62467L9.59577 0.93067C9.96604 0.520215 10.5546 0.387331 11.0653 0.598888C11.576 0.810446 11.8982 1.32062 11.8698 1.87267L11.8218 2.806C11.803 3.17514 11.9414 3.53495 12.2028 3.79631C12.4641 4.05766 12.824 4.19611 13.1931 4.17734L14.1264 4.13C14.6778 4.10282 15.1867 4.42524 15.3976 4.93538C15.6086 5.44552 15.476 6.03319 15.0664 6.40334L14.3718 7.03067C14.0975 7.27829 13.941 7.6305 13.941 8C13.941 8.3695 14.0975 8.72171 14.3718 8.96934L15.0664 9.596C15.4769 9.96627 15.6098 10.5549 15.3982 11.0656C15.1867 11.5763 14.6765 11.8985 14.1244 11.87L13.1911 11.822C12.8221 11.8032 12.4624 11.9416 12.2011 12.2028C11.9397 12.464 11.8012 12.8236 11.8198 13.1927L11.8678 14.126C11.8946 14.6769 11.5725 15.1852 11.0629 15.3961C10.5533 15.6071 9.9662 15.4752 9.59577 15.0667L8.9691 14.3727C8.72147 14.0984 8.36927 13.9419 7.99977 13.9419C7.63027 13.9419 7.27806 14.0984 7.03043 14.3727L6.40377 15.0667C6.03329 15.4739 5.4472 15.6051 4.93846 15.3947C4.42972 15.1842 4.10759 14.6773 4.1331 14.1273L4.1811 13.194C4.20057 12.824 4.06191 12.4632 3.79968 12.2015C3.53746 11.9398 3.17637 11.8018 2.80643 11.822L1.8731 11.87C1.32142 11.8975 0.812075 11.575 0.601062 11.0645C0.390048 10.5541 0.523 9.96604 0.933099 9.596L1.62777 8.96934C1.90201 8.72171 2.05853 8.3695 2.05853 8C2.05853 7.6305 1.90201 7.27829 1.62777 7.03067L0.933099 6.40334C0.526387 6.03276 0.395559 5.44702 0.605941 4.93861C0.816324 4.4302 1.32279 4.10817 1.87243 4.13334L2.80577 4.18067C3.17562 4.20013 3.53632 4.06155 3.79802 3.79948C4.05971 3.5374 4.19776 3.17649 4.17777 2.80667L4.1331 1.87267C4.10759 1.32271 4.42972 0.815813 4.93846 0.605356C5.4472 0.394899 6.03329 0.526083 6.40377 0.933336L7.03043 1.62467Z" stroke-linecap="round" stroke-linejoin="round"/>
</svg>
