<svg width="16" height="16" viewBox="0 0 16 16" fill="none" xmlns="http://www.w3.org/2000/svg">
    <path class="svg-stroke" d="M10.0266 14.9267L10.0346 14.9314C11.4932 15.86 13.4012 15.6508 14.6239 14.428L15.1399 13.912C15.6198 13.4315 15.6198 12.6532 15.1399 12.1727L12.9659 10C12.4854 9.52015 11.707 9.52015 11.2266 10C10.747 10.4801 9.96907 10.4806 9.48895 10.0011L9.48788 10L6.00921 6.52069C5.52933 6.04021 5.52933 5.26184 6.00921 4.78135C6.48933 4.30183 6.48981 3.52387 6.01028 3.04375L6.00921 3.04268L3.83588 0.866683C3.3554 0.386805 2.57702 0.386806 2.09654 0.866683L1.58054 1.38268C0.358063 2.60544 0.148569 4.51309 1.07654 5.97202L1.08188 5.98002C3.46415 9.50657 6.50053 12.5436 10.0266 14.9267Z" stroke-linecap="round" stroke-linejoin="round"/>
</svg>
