<svg width="16" height="16" viewBox="0 0 16 16" fill="none" xmlns="http://www.w3.org/2000/svg">
    <path class="svg-fill" d="M15.5464 4.29333C15.688 4.17566 15.7074 3.96549 15.5897 3.82392C15.5442 3.76913 15.4823 3.73037 15.4131 3.71333L14.8864 3.58C14.7079 3.53529 14.5993 3.35428 14.644 3.17569C14.6494 3.15421 14.6569 3.13332 14.6664 3.11333L14.9598 2.52C15.0397 2.35416 14.9701 2.15493 14.8042 2.075C14.7323 2.04032 14.6503 2.03263 14.5731 2.05333L13.2398 2.42667C13.1391 2.45604 13.0304 2.43628 12.9464 2.37333C12.3695 1.94059 11.6677 1.70667 10.9464 1.70667C9.10549 1.70667 7.6131 3.19905 7.6131 5.04V5.28C7.61371 5.36477 7.5506 5.4365 7.46644 5.44667C5.5931 5.66667 3.79977 4.71333 1.86643 2.48667C1.78081 2.39223 1.64955 2.35363 1.52643 2.38667C1.41562 2.4376 1.34147 2.54499 1.3331 2.66667C1.06607 3.76356 1.17403 4.91828 1.63977 5.94667C1.68127 6.02883 1.64832 6.12908 1.56616 6.17058C1.53538 6.18613 1.50054 6.19175 1.46643 6.18667L0.719766 6.04C0.538006 6.01078 0.36697 6.13443 0.337747 6.3162C0.331499 6.35505 0.332183 6.39471 0.339766 6.43333C0.456359 7.46971 1.03769 8.3969 1.91977 8.95333C2.00261 8.99346 2.03724 9.09314 1.99712 9.17598C1.98077 9.20973 1.95352 9.23699 1.91977 9.25333L1.56643 9.39333C1.39556 9.46184 1.31257 9.65589 1.38108 9.82677C1.38469 9.83579 1.38871 9.84466 1.3931 9.85333C1.78972 10.7212 2.58705 11.3391 3.52643 11.5067C3.61296 11.5381 3.65764 11.6337 3.62624 11.7202C3.60939 11.7666 3.57284 11.8032 3.52643 11.82C2.62001 12.1949 1.64728 12.3831 0.666433 12.3733C0.482338 12.3365 0.303251 12.4559 0.266432 12.64C0.229613 12.8241 0.349005 13.0032 0.533099 13.04C2.23146 13.8455 4.08055 14.2839 5.95977 14.3267C7.61274 14.3519 9.23629 13.888 10.6264 12.9933C12.949 11.443 14.3406 8.83242 14.3331 6.04V5.46C14.3339 5.36202 14.3778 5.26937 14.4531 5.20667L15.5464 4.29333Z"/>
</svg>
