<svg width="16" height="16" viewBox="0 0 16 16" fill="none" xmlns="http://www.w3.org/2000/svg">
    <path class="svg-stroke" d="M2 4.50118V11.5012M8 4.50118V11.5012M3.5 4.50118H0.5M9.5 4.50118H6.5M8 8.00118H2.5M3.5 11.5012H0.5M9.5 11.5012H6.5M11.5 6.50218C11.4873 6.23617 11.5303 5.97043 11.6263 5.72203C11.7224 5.47363 11.8692 5.24803 12.0575 5.05972C12.2459 4.87141 12.4714 4.72453 12.7199 4.62852C12.9683 4.5325 13.234 4.48947 13.5 4.50218C13.7648 4.49414 14.0285 4.54038 14.2748 4.63805C14.5211 4.73571 14.7448 4.88274 14.9321 5.07008C15.1194 5.25742 15.2665 5.48112 15.3641 5.72741C15.4618 5.97369 15.508 6.23736 15.5 6.50218C15.5 8.46818 11.5 11.5022 11.5 11.5022H15.5" stroke-linecap="round" stroke-linejoin="round"/>
</svg>
