<svg width="16" height="16" viewBox="0 0 16 16" fill="none" xmlns="http://www.w3.org/2000/svg">
<path class="svg-stroke" id="svg-stroke"  d="M0.500321 1.5C0.500321 0.947715 0.948036 0.5 1.50032 0.5H5.50032C6.05261 0.5 6.50032 0.947715 6.50032 1.5V5.5C6.50032 6.05228 6.05261 6.5 5.50032 6.5H1.50032C0.948036 6.5 0.500321 6.05228 0.500321 5.5V1.5Z"  stroke-linecap="round" stroke-linejoin="round"/>
<path class="svg-stroke" id="svg-stroke"  d="M12.5002 6.5C14.157 6.5 15.5002 5.15685 15.5002 3.5C15.5002 1.84315 14.157 0.5 12.5002 0.5C10.8433 0.5 9.50016 1.84315 9.50016 3.5C9.50016 5.15685 10.8433 6.5 12.5002 6.5Z" stroke-linecap="round" stroke-linejoin="round"/>
<path class="svg-stroke" id="svg-stroke"  d="M12.5242 9.31801C12.4225 9.12256 12.2205 8.99994 12.0002 8.99994C11.7799 8.99994 11.5779 9.12256 11.4762 9.31801L8.58487 14.5227C8.47376 14.7249 8.47201 14.9695 8.5802 15.1733C8.68248 15.3716 8.8858 15.4972 9.10887 15.5H14.8915C15.1146 15.4972 15.3179 15.3716 15.4202 15.1733C15.5284 14.9695 15.5266 14.7249 15.4155 14.5227L12.5242 9.31801Z"  stroke-linecap="round" stroke-linejoin="round"/>
<path class="svg-stroke" id="svg-stroke"  d="M3.90088 8.68933C3.80235 8.56996 3.65566 8.50083 3.50088 8.50083C3.3461 8.50083 3.19941 8.56996 3.10088 8.68933L0.627547 11.6473C0.457484 11.8517 0.457484 12.1483 0.627547 12.3527L3.09955 15.3107C3.19808 15.43 3.34477 15.4992 3.49955 15.4992C3.65433 15.4992 3.80102 15.43 3.89955 15.3107L6.37155 12.3527C6.54161 12.1483 6.54161 11.8517 6.37155 11.6473L3.90088 8.68933Z"  stroke-linecap="round" stroke-linejoin="round"/>
</svg>
