<svg width="16" height="16" viewBox="0 0 16 16" fill="none" xmlns="http://www.w3.org/2000/svg">
    <path class="svg-fill" d="M4.48274 5.66667H1.51759C1.41592 5.66667 1.3335 5.74909 1.3335 5.85076V14.8159C1.3335 14.9176 1.41592 15 1.51759 15H4.48274C4.58441 15 4.66683 14.9176 4.66683 14.8159V5.85076C4.66683 5.74909 4.58441 5.66667 4.48274 5.66667Z"/>
    <path class="svg-fill" d="M2.98683 4.33333C3.89994 4.33333 4.64016 3.58714 4.64016 2.66667C4.64016 1.74619 3.89994 1 2.98683 1C2.07372 1 1.3335 1.74619 1.3335 2.66667C1.3335 3.58714 2.07372 4.33333 2.98683 4.33333Z"/>
    <path class="svg-fill" d="M12.3335 15H14.3335C14.5176 15 14.6668 14.8508 14.6668 14.6667V9.06667C14.6668 6.55334 13.2468 5.33334 11.2602 5.33334C10.4677 5.30435 9.70005 5.61192 9.14683 6.18C9.04804 6.29414 8.87542 6.30658 8.76128 6.20779C8.701 6.15561 8.66651 6.07972 8.66683 6C8.66683 5.81591 8.51759 5.66667 8.3335 5.66667H6.3335C6.1494 5.66667 6.00016 5.81591 6.00016 6V14.6667C6.00016 14.8508 6.1494 15 6.3335 15H8.3335C8.51759 15 8.66683 14.8508 8.66683 14.6667V9.66667C8.66683 8.7462 9.41303 8 10.3335 8C11.254 8 12.0002 8.7462 12.0002 9.66667V14.6667C12.0002 14.8508 12.1494 15 12.3335 15Z" />
</svg>
