<svg class="mb-icon-mini-error" width="9" height="8" viewBox="0 0 9 8" fill="none" xmlns="http://www.w3.org/2000/svg">
    <path class="svg-fill" d="M6.83338 1.17165C7.39277 1.73106 7.77372 2.4438 7.92804 3.21971C8.08236 3.99563 8.00314 4.79989 7.70038 5.53078C7.39763 6.26167 6.88494 6.88638 6.22714 7.32589C5.56935 7.76541 4.796 8 4.00488 8C3.21377 8 2.44042 7.76541 1.78263 7.32589C1.12483 6.88638 0.612143 6.26167 0.309386 5.53078C0.00662962 4.79989 -0.0725958 3.99563 0.0817284 3.21971C0.236053 2.4438 0.616995 1.73106 1.17638 1.17165C1.54782 0.800189 1.98879 0.505533 2.4741 0.304502C2.95942 0.10347 3.47958 0 4.00488 0C4.53019 0 5.05035 0.10347 5.53567 0.304502C6.02098 0.505533 6.46195 0.800189 6.83338 1.17165Z" fill="#8793A0"/>
    <path class="svg-stroke" d="M4.00537 4.49963V1.99963" stroke="white" stroke-linecap="round"/>
    <path class="svg-stroke" d="M4.26172 6.10712C4.26172 6.24519 4.14979 6.35712 4.01172 6.35712C3.87365 6.35712 3.76172 6.24519 3.76172 6.10712C3.76172 5.96905 3.87365 5.85712 4.01172 5.85712C4.14979 5.85712 4.26172 5.96905 4.26172 6.10712Z" stroke="white" stroke-width="0.5" stroke-linecap="round"/>
</svg>
