<svg class="mb-icon-file-sql" width="16" height="16" viewBox="0 0 16 16" fill="none" xmlns="http://www.w3.org/2000/svg">
    <path class="svg-fill" d="M1.5 16C1.10218 16 0.720636 15.8419 0.439331 15.5605C0.158026 15.2792 0 14.8978 0 14.5V1.5C0 1.10218 0.158026 0.720758 0.439331 0.439453C0.720636 0.158149 1.10218 0 1.5 0H11V3C11 3.53043 11.2107 4.03923 11.5858 4.41431C11.9609 4.78938 12.4696 5 13 5H16V14.5C16 14.8978 15.842 15.2792 15.5607 15.5605C15.2794 15.8419 14.8978 16 14.5 16H1.5ZM13 4C12.7348 4 12.4804 3.89457 12.2928 3.70703C12.1053 3.51949 12 3.26522 12 3V0L16 4H13Z"/>
    <path class="svg-stroke" d="M10.502 7.5V11.5C10.502 11.7652 10.6073 12.0196 10.7948 12.2071C10.9824 12.3946 11.2367 12.5 11.502 12.5H12.502M4.50195 7.5H3.50195C3.23674 7.5 2.98238 7.60536 2.79485 7.79289C2.60731 7.98043 2.50195 8.23478 2.50195 8.5C2.50195 10 4.50195 10 4.50195 11.5C4.50195 11.7652 4.3966 12.0196 4.20906 12.2071C4.02152 12.3946 3.76717 12.5 3.50195 12.5H2.50195M7.50195 12.5C7.76717 12.5 8.02152 12.3946 8.20906 12.2071C8.3966 12.0196 8.50195 11.7652 8.50195 11.5V8.5C8.50195 8.23478 8.3966 7.98043 8.20906 7.79289C8.02152 7.60536 7.76717 7.5 7.50195 7.5C7.23674 7.5 6.98238 7.60536 6.79485 7.79289C6.60731 7.98043 6.50195 8.23478 6.50195 8.5V11.5C6.50195 11.7652 6.60731 12.0196 6.79485 12.2071C6.98238 12.3946 7.23674 12.5 7.50195 12.5ZM7.50195 12.5L8.50195 13.5" stroke-linecap="round" stroke-linejoin="round"/>
</svg>
