<svg width="8" height="9" viewBox="0 0 8 9" fill="none" xmlns="http://www.w3.org/2000/svg">
    <path class="svg-fill" d="M4.47309 0.283693L5.50122 2.99669H7.49252C7.59317 2.99322 7.69245 3.02084 7.77688 3.07579C7.8613 3.13074 7.92679 3.21037 7.96443 3.30386C8.00208 3.39735 8.01007 3.50016 7.98731 3.59835C7.96455 3.69654 7.91215 3.78534 7.83723 3.85269L6.10071 5.06669L7.05989 7.27769C7.10241 7.37878 7.1121 7.49069 7.08759 7.59759C7.06308 7.70449 7.00561 7.80097 6.92331 7.87339C6.84101 7.94581 6.73804 7.9905 6.62897 8.00115C6.5199 8.01179 6.41025 7.98784 6.31552 7.93269L4.00249 6.62469L1.68447 7.93269C1.58969 7.98716 1.48025 8.01057 1.37151 7.99965C1.26277 7.98873 1.16016 7.94402 1.07809 7.8718C0.996007 7.79957 0.938569 7.70345 0.913824 7.59691C0.889079 7.49037 0.898267 7.37875 0.9401 7.27769L1.90428 5.06669L0.167757 3.85569C0.0916245 3.78923 0.0379002 3.70082 0.013953 3.60258C-0.00999424 3.50435 -0.00299189 3.40111 0.0339998 3.30702C0.0709914 3.21293 0.136161 3.13259 0.22057 3.07703C0.30498 3.02148 0.404496 2.99341 0.50547 2.99669H2.50377L3.5299 0.280693C3.57545 0.195851 3.64313 0.124948 3.72572 0.0755239C3.80832 0.0260994 3.90276 0 3.999 0C4.09523 0 4.18967 0.0260994 4.27227 0.0755239C4.35487 0.124948 4.42254 0.195851 4.4681 0.280693L4.47309 0.283693Z"/>
</svg>
