<svg width="16" height="16" viewBox="0 0 16 16" fill="none" xmlns="http://www.w3.org/2000/svg">
    <path class="svg-stroke" id="svg-stroke" d="M0.5 0.5V15.5H15.5M10.374 9.014L13.534 7.25867M5.5 9.5H8.5M5.5 9.5C5.5 10.0523 5.05228 10.5 4.5 10.5C3.94772 10.5 3.5 10.0523 3.5 9.5C3.5 8.94772 3.94772 8.5 4.5 8.5C5.05228 8.5 5.5 8.94772 5.5 9.5ZM8.5 9.5C8.5 8.94772 8.94772 8.5 9.5 8.5C10.0523 8.5 10.5 8.94772 10.5 9.5C10.5 10.0523 10.0523 10.5 9.5 10.5C8.94772 10.5 8.5 10.0523 8.5 9.5ZM0.5 11.5L3.60533 9.94733M14.5 8C15.0523 8 15.5 7.55228 15.5 7C15.5 6.44772 15.0523 6 14.5 6C13.9477 6 13.5 6.44772 13.5 7C13.5 7.55228 13.9477 8 14.5 8Z" stroke-linecap="round" stroke-linejoin="round"/>
</svg>
