<?xml version="1.0" encoding="utf-8"?>
<!-- Generator: Adobe Illustrator 23.0.3, SVG Export Plug-In . SVG Version: 6.00 Build 0)  -->
<svg version="1.1" id="Layer_1" xmlns="http://www.w3.org/2000/svg" xmlns:xlink="http://www.w3.org/1999/xlink" x="0px" y="0px"
	 viewBox="0 0 16 16" style="enable-background:new 0 0 16 16;" xml:space="preserve">
<style type="text/css">
	.st0{fill:none;stroke:#808C9D;stroke-linecap:round;stroke-linejoin:round;}
</style>
<path class="st0" d="M2.8,15.5l5.7-9c0.2-0.2,0.4-0.3,0.7-0.3c0.3,0,0.5,0.1,0.7,0.3l5.7,9H2.8z"/>
<path class="st0" d="M2.8,15.5H0.5L3,11l1.4,1.9"/>
<path class="st0" d="M5.8,10.8l1.6,1.3c0.3,0.2,0.7,0.2,0.9,0l0.4-0.4c0.3-0.3,0.7-0.3,0.9,0l0.4,0.4c0.2,0.2,0.6,0.3,0.9,0l1.6-1.3
	"/>
<path class="st0" d="M9,6.2V0.5"/>
<path class="st0" d="M9,0.5h2.5v1h3l-1,1.5l1,1.5h-3V4H9"/>
</svg>
