<svg width="16" height="16" viewBox="0 0 16 16" fill="none" xmlns="http://www.w3.org/2000/svg">
    <path class="svg-stroke" fill-rule="evenodd" clip-rule="evenodd" d="M12.4999 1.49867C12.1485 1.49399 11.7992 1.44265 11.4613 1.346L9.0386 0.654C8.68152 0.551944 8.31197 0.500113 7.9406 0.5H4.68393C2.62967 0.499974 0.909356 2.05604 0.70393 4.1L0.50393 7.5C0.430986 8.93124 1.38051 10.2142 2.7706 10.5627L3.7406 10.7747C4.18645 10.8852 4.49965 11.2853 4.49993 11.7447V14C4.49993 14.8284 5.1715 15.5 5.99993 15.5C6.82836 15.5 7.49993 14.8284 7.49993 14V12.964C7.49993 10.2026 9.73851 7.964 12.4999 7.964V1.49867Z" stroke-linecap="round" stroke-linejoin="round"/>
    <path class="svg-stroke" fill-rule="evenodd" clip-rule="evenodd" d="M12.4999 0.5H15.4999V9.5H12.4999V0.5Z" stroke-linecap="round" stroke-linejoin="round"/>
</svg>
