<svg class="mb-icon-alert-danger-fill" width="16" height="16" viewBox="0 0 16 16" fill="none" xmlns="http://www.w3.org/2000/svg">
<path class="svg-fill" d="M0.37658 8.90932C0.135432 8.66767 0 8.34021 0 7.99882C0 7.65743 0.135432 7.32998 0.37658 7.08832L7.08958 0.376321C7.33072 0.135357 7.65768 0 7.99858 0C8.33948 0 8.66644 0.135357 8.90758 0.376321L15.6226 7.08832C15.8637 7.32998 15.9992 7.65743 15.9992 7.99882C15.9992 8.34021 15.8637 8.66767 15.6226 8.90932L8.90958 15.6213C8.66809 15.8624 8.34081 15.9978 7.99958 15.9978C7.65835 15.9978 7.33107 15.8624 7.08958 15.6213L0.37658 8.90932Z"/>
<path d="M8.10254 11.1023C8.05309 11.1023 8.00476 11.117 7.96365 11.1444C7.92253 11.1719 7.89049 11.2109 7.87157 11.2566C7.85265 11.3023 7.8477 11.3526 7.85734 11.4011C7.86699 11.4496 7.8908 11.4941 7.92576 11.5291C7.96073 11.564 8.00527 11.5878 8.05377 11.5975C8.10226 11.6071 8.15253 11.6022 8.19821 11.5833C8.24389 11.5643 8.28294 11.5323 8.31041 11.4912C8.33788 11.4501 8.35254 11.4017 8.35254 11.3523C8.35254 11.286 8.3262 11.2224 8.27932 11.1755C8.23243 11.1286 8.16884 11.1023 8.10254 11.1023Z" class="svg-stroke" stroke-linecap="round" stroke-linejoin="round"/>
<path class="svg-stroke" d="M8.10254 9.10229V4.10229"  stroke-linecap="round"/>
</svg>
