<svg width="16" height="17" viewBox="0 0 16 17" fill="none" xmlns="http://www.w3.org/2000/svg">
    <path class="svg-stroke" id="svg-stroke" d="M0.499512 15.88H14.9995M4.58878 4.27745L1.91078 6.84577M9.54078 5.04802L6.42478 4.24802M13.5948 2.84896L11.2075 4.64096M1.83284 13H3.66684C3.85094 13 4.00018 13.1433 4.00018 13.32V15.88H1.49951V13.32C1.49951 13.1433 1.64875 13 1.83284 13ZM6.83285 7.24001H8.66685C8.85094 7.24001 9.00018 7.38327 9.00018 7.56001V15.88H6.49951V7.56001C6.49951 7.38327 6.64875 7.24001 6.83285 7.24001ZM11.8329 10.12H13.6669C13.8509 10.12 14.0002 10.2633 14.0002 10.44V15.88H11.5002V10.44C11.5002 10.2635 11.649 10.1204 11.8329 10.12ZM5.49951 4.84065C6.0518 4.84065 6.49951 4.41085 6.49951 3.88065C6.49951 3.35046 6.0518 2.92065 5.49951 2.92065C4.94723 2.92065 4.49951 3.35046 4.49951 3.88065C4.49951 4.41085 4.94723 4.84065 5.49951 4.84065ZM14.5002 3.40001C15.0525 3.40001 15.5002 2.9702 15.5002 2.44001C15.5002 1.90982 15.0525 1.48001 14.5002 1.48001C13.9479 1.48001 13.5002 1.90982 13.5002 2.44001C13.5002 2.9702 13.9479 3.40001 14.5002 3.40001ZM10.5002 6.28001C11.0525 6.28001 11.5002 5.8502 11.5002 5.32001C11.5002 4.78981 11.0525 4.36001 10.5002 4.36001C9.9479 4.36001 9.50019 4.78981 9.50019 5.32001C9.50019 5.8502 9.9479 6.28001 10.5002 6.28001ZM1.49951 8.68065C2.0518 8.68065 2.49951 8.25084 2.49951 7.72065C2.49951 7.19046 2.0518 6.76065 1.49951 6.76065C0.947227 6.76065 0.499512 7.19046 0.499512 7.72065C0.499512 8.25084 0.947227 8.68065 1.49951 8.68065Z" stroke-linecap="round" stroke-linejoin="round"/>
</svg>
