<svg width="16" height="16" viewBox="0 0 16 16" fill="none" xmlns="http://www.w3.org/2000/svg">
    <path class="svg-stroke"  d="M11.9 12.5H14.5C15.0523 12.5 15.5 12.0523 15.5 11.5V7.5M15.5 7.5H0.5M15.5 7.5L13.7767 4.05267C13.6072 3.71385 13.2608 3.49989 12.882 3.5H11.5M0.5 7.5V11.5C0.5 12.0523 0.947715 12.5 1.5 12.5H4.1M0.5 7.5L2.22333 4.05267C2.3928 3.71385 2.73917 3.49989 3.118 3.5H4.5M6.5 13.5H9.5M11.5 10.5H4.5L3.5 15.5H12.5L11.5 10.5ZM4.5 0.5H11.5V5.5H4.5V0.5ZM13.75 9.5C13.6119 9.5 13.5 9.61193 13.5 9.75C13.5 9.88807 13.6119 10 13.75 10C13.8881 10 14 9.88807 14 9.75C14 9.61193 13.8881 9.5 13.75 9.5Z" stroke-linecap="round" stroke-linejoin="round"/>
</svg>
