<svg width="16" height="16" viewBox="0 0 16 16" fill="none" xmlns="http://www.w3.org/2000/svg">
    <path class="svg-fill" id="svg-fill" fill-rule="evenodd" clip-rule="evenodd" d="M10.3846 1.12182C10.3064 1.04374 10.2004 0.99992 10.0899 1L1.42284 1C1.19309 1 1.00684 1.18625 1.00684 1.416V13.5833C1.00684 13.8133 1.1932 13.9998 1.4232 14H9.00684C9.28298 14 9.50684 14.2239 9.50684 14.5C9.50684 14.7761 9.28298 15 9.00684 15H1.42284C0.640836 14.9994 0.00683576 14.3653 0.00683594 13.5833V1.416C0.00683594 0.633965 0.640801 1.57686e-07 1.42284 1.57686e-07H10.0894C10.0893 1.57686e-07 10.0894 1.57686e-07 10.0894 1.57686e-07C10.465 -0.000176928 10.8254 0.148806 11.0912 0.414204C11.357 0.679688 11.5066 1.03991 11.5068 1.41564V5.24751C11.6448 5.34632 11.8042 5.45596 11.9812 5.57776C12.0656 5.63587 12.1541 5.69674 12.2462 5.76052C12.6218 6.02066 13.0425 6.31924 13.4356 6.64022C13.8263 6.95923 14.2073 7.31444 14.4942 7.6924C14.7769 8.06488 15.0068 8.51018 15.0068 9V12.3486L15.9162 13.7126C16.0694 13.9424 16.0073 14.2528 15.7775 14.406C15.5478 14.5592 15.2373 14.4971 15.0841 14.2673L14.0908 12.7773C14.0361 12.6952 14.0068 12.5987 14.0068 12.5V9C14.0068 8.82316 13.9201 8.59012 13.6976 8.29698C13.4793 8.00931 13.1666 7.7116 12.8031 7.41478C12.442 7.11993 12.0481 6.83976 11.6768 6.5826C11.6199 6.54319 11.5631 6.50404 11.5068 6.46528V8.59093L12.6062 9.47181C12.8217 9.64448 12.8564 9.95916 12.6838 10.1747C12.5111 10.3902 12.1964 10.4249 11.9809 10.2522L10.7075 9.2319C10.6987 9.22526 10.69 9.21835 10.6816 9.21115L9.54891 8.30353C9.53462 8.29208 9.52096 8.27985 9.50801 8.26689C9.36398 8.12287 9.13047 8.12287 8.98645 8.26689C8.84242 8.41092 8.84242 8.64443 8.98645 8.78845C8.99355 8.79556 9.00044 8.80288 9.00711 8.8104L11.3624 11.4684C11.4435 11.5599 11.4882 11.6778 11.4882 11.8V13.4667C11.4882 13.5569 11.5242 13.7044 11.6176 13.9055C11.7071 14.0983 11.8312 14.3022 11.9629 14.4936C12.0935 14.6835 12.2251 14.852 12.3245 14.9734C12.374 15.0338 12.415 15.0819 12.4431 15.1143C12.4507 15.1231 12.4573 15.1307 12.4629 15.1371C12.4677 15.1425 12.4718 15.1471 12.475 15.1508L12.4826 15.1593L12.4842 15.161C12.6694 15.3657 12.6538 15.682 12.4492 15.8673C12.2445 16.0527 11.9283 16.037 11.7429 15.8323L12.1136 15.4967C11.7429 15.8323 11.743 15.8324 11.7429 15.8323L11.7413 15.8305L11.738 15.8268L11.7268 15.8143C11.7174 15.8036 11.704 15.7884 11.6873 15.7691C11.6539 15.7306 11.6069 15.6754 11.5509 15.607C11.4393 15.4708 11.2896 15.2794 11.1389 15.0602C10.9892 14.8426 10.832 14.5882 10.7106 14.3266C10.5929 14.0732 10.4882 13.7701 10.4882 13.4667V11.9897L8.26757 9.48365C7.74482 8.94822 7.74874 8.09038 8.27934 7.55979C8.80668 7.03245 9.65723 7.02533 10.1933 7.53844L10.5068 7.78967V5.50471C10.5068 5.50133 10.5068 5.49794 10.5068 5.49456V1.41636C10.5068 1.30586 10.4628 1.19991 10.3846 1.12182ZM6.00684 2.5C6.00684 2.22386 6.23069 2 6.50684 2H8.50684C8.78298 2 9.00684 2.22386 9.00684 2.5V4.5C9.00684 4.77614 8.78298 5 8.50684 5C8.23069 5 8.00684 4.77614 8.00684 4.5V3.63662L2.8447 8.36858C2.64114 8.55517 2.32486 8.54142 2.13826 8.33786C1.95166 8.1343 1.96541 7.81802 2.16897 7.63142L7.22143 3H6.50684C6.23069 3 6.00684 2.77614 6.00684 2.5ZM5.50009 8.5C5.77623 8.5 6.00009 8.72386 6.00009 9V12.5C6.00009 12.7761 5.77623 13 5.50009 13C5.22395 13 5.00009 12.7761 5.00009 12.5V9C5.00009 8.72386 5.22395 8.5 5.50009 8.5ZM3.50009 10C3.77623 10 4.00009 10.2239 4.00009 10.5V12.5C4.00009 12.7761 3.77623 13 3.50009 13C3.22395 13 3.00009 12.7761 3.00009 12.5V10.5C3.00009 10.2239 3.22395 10 3.50009 10Z"/>
</svg>
