<svg width="16" height="16" viewBox="0 0 16 16" fill="none" xmlns="http://www.w3.org/2000/svg">
    <path class="svg-stroke" d="M6.5 2.49866H15.5M6.5 8.49866H15.5M6.5 14.4987H15.5M4 13L2.42576 15.3205C2.35493 15.4246 2.24675 15.4897 2.12919 15.4989C2.01163 15.5081 1.89624 15.4605 1.81286 15.3684L1 14.4699M4 7L2.42576 9.3205C2.35493 9.42462 2.24675 9.48969 2.12919 9.49888C2.01163 9.50807 1.89624 9.46048 1.81286 9.36842L1 8.46993M4 1L2.42576 3.3205C2.35493 3.42462 2.24675 3.48969 2.12919 3.49888C2.01163 3.50807 1.89624 3.46048 1.81286 3.36842L1 2.46993" stroke-linecap="round" stroke-linejoin="round"/>
</svg>
