<svg width="16" height="16" viewBox="0 0 16 16" fill="none" xmlns="http://www.w3.org/2000/svg">
    <path class="svg-stroke" id="svg-stroke" d="M8.99994 7.5H7.64461C7.2162 7.5003 6.84812 7.80426 6.76682 8.22489C6.68553 8.64552 6.91383 9.06475 7.31128 9.22467L8.68728 9.77533C9.08473 9.93525 9.31303 10.3545 9.23173 10.7751C9.15043 11.1957 8.78236 11.4997 8.35394 11.5H6.99994M8 7.5V6.5M8 12.5V11.5M4.5 14.5V4.5M4.5 14.5H11.5M4.5 14.5H0.5V4.5M4.5 4.5L6 1.5M4.5 4.5H0.5M4.5 4.5H11.5M6 1.5H10M6 1.5H2.5L0.5 4.5M10 1.5L11.5 4.5M10 1.5H13.5L15.5 4.5M11.5 4.5V14.5M11.5 4.5H15.5M11.5 14.5H15.5V4.5M0.5 7H4.5M11.5 7H15.5M0.5 9.5H4.5M11.5 9.5H15.5M0.5 12H4.5M11.5 12H15.5" sstroke-linecap="round" stroke-linejoin="round"/>
</svg>
