<svg width="16" height="16" viewBox="0 0 16 16" fill="none" xmlns="http://www.w3.org/2000/svg">
    <path class="svg-stroke" d="M11.596 11.596L15.5 15.5M10 10.3293C9.2334 9.48095 8.14343 8.99682 7 8.99682C5.85657 8.99682 4.7666 9.48095 4 10.3293M7 13.5C10.5899 13.5 13.5 10.5899 13.5 7C13.5 3.41015 10.5899 0.5 7 0.5C3.41015 0.5 0.5 3.41015 0.5 7C0.5 10.5899 3.41015 13.5 7 13.5ZM7 7.99667C8.24264 7.99667 9.25 6.98931 9.25 5.74667C9.25 4.50403 8.24264 3.49667 7 3.49667C5.75736 3.49667 4.75 4.50403 4.75 5.74667C4.75 6.98931 5.75736 7.99667 7 7.99667Z"  stroke-linecap="round" stroke-linejoin="round"/>
</svg>
