<svg width="16" height="16" viewBox="0 0 16 16" fill="none" xmlns="http://www.w3.org/2000/svg">
    <path class="svg-stroke" d="M13.5267 9.55999L10.0867 10.2173M9.61074 5.652L7.29874 6.416C6.92838 6.53792 6.52546 6.3627 6.36208 6.00867C6.18525 5.6292 6.34129 5.17787 6.71474 4.98867L8.95408 3.86267C9.33987 3.6681 9.78903 3.64204 10.1947 3.79067L13.5101 5.00333M2.45665 9.56534H4.08665L6.42798 12.1893C6.67216 12.4723 7.06652 12.5737 7.41688 12.4435C7.76724 12.3133 7.99977 11.9791 7.99998 11.6053V11.1953M7.99998 11.1953L8.11665 11.242C8.45672 11.378 8.84211 11.3365 9.14543 11.1312C9.44876 10.926 9.63052 10.5836 9.63065 10.2173M7.99998 11.1953L7.34801 10.5433M9.63065 10.2173H9.95665C10.3271 10.2171 10.6657 10.0077 10.8313 9.67635C10.997 9.345 10.9614 8.94852 10.7393 8.65201L8.64665 5.97067M9.63065 10.2173L8.65199 9.23866M7.05533 4.81667L6.81667 4.62C6.57617 4.44291 6.28534 4.34737 5.98667 4.34734C5.8087 4.34727 5.63239 4.38145 5.46733 4.448L2.5 5.63467M0.5 4.50001H1.83333C2.18578 4.48532 2.48379 4.7583 2.5 5.11067V9.38867C2.48379 9.74115 2.18589 10.0143 1.83333 10H0.5M15.5 10H14.1667C13.8141 10.0143 13.5162 9.74115 13.5 9.38867V5.11067C13.5162 4.7583 13.8142 4.48532 14.1667 4.50001H15.5" stroke-linecap="round" stroke-linejoin="round"/>
</svg>
