<svg width="16" height="16" viewBox="0 0 16 16" fill="none" xmlns="http://www.w3.org/2000/svg">
    <path class="svg-fill" d="M9.5 8.5C9.5 8.20333 9.41203 7.91332 9.2472 7.66665C9.08238 7.41997 8.84811 7.22771 8.57402 7.11418C8.29994 7.00065 7.99834 6.97094 7.70736 7.02882C7.41639 7.0867 7.14912 7.22956 6.93934 7.43934C6.72956 7.64912 6.5867 7.91639 6.52882 8.20736C6.47094 8.49834 6.50065 8.79994 6.61418 9.07403C6.72771 9.34811 6.91997 9.58238 7.16664 9.74721C7.41332 9.91203 7.70333 10 8 10C8.39782 10 8.77936 9.84197 9.06066 9.56066C9.34196 9.27936 9.5 8.89783 9.5 8.5Z" fill="#8793A0"/>
    <path class="svg-fill" d="M9.5 14C9.5 13.7033 9.41203 13.4133 9.2472 13.1666C9.08238 12.92 8.84811 12.7277 8.57402 12.6142C8.29994 12.5007 7.99834 12.4709 7.70736 12.5288C7.41639 12.5867 7.14912 12.7296 6.93934 12.9393C6.72956 13.1491 6.5867 13.4164 6.52882 13.7074C6.47094 13.9983 6.50065 14.2999 6.61418 14.574C6.72771 14.8481 6.91997 15.0824 7.16664 15.2472C7.41332 15.412 7.70333 15.5 8 15.5C8.39782 15.5 8.77936 15.342 9.06066 15.0607C9.34196 14.7794 9.5 14.3978 9.5 14Z" fill="#8793A0"/>
    <path class="svg-fill" d="M9.5 3C9.5 2.70333 9.41203 2.41332 9.2472 2.16665C9.08238 1.91997 8.84811 1.72771 8.57403 1.61418C8.29994 1.50065 7.99834 1.47094 7.70736 1.52882C7.41639 1.5867 7.14912 1.72956 6.93934 1.93934C6.72956 2.14912 6.5867 2.41639 6.52882 2.70736C6.47094 2.99834 6.50065 3.29994 6.61418 3.57403C6.72771 3.84811 6.91997 4.08238 7.16664 4.24721C7.41332 4.41203 7.70333 4.5 8 4.5C8.39782 4.5 8.77936 4.34197 9.06066 4.06066C9.34196 3.77936 9.5 3.39783 9.5 3Z" fill="#8793A0"/>
</svg>
