<svg width="16" height="16" viewBox="0 0 16 16" fill="none" xmlns="http://www.w3.org/2000/svg">
<path class="svg-stroke"  d="M2 3.5C4.48651 0.186293 9.18854 -0.484288 12.5022 2.00222C13.0698 2.42812 13.5741 2.93241 14 3.5M5.2 3.5C5.83867 1.67867 6.85467 0.5 8 0.5C9.14534 0.5 10.162 1.67867 10.8 3.5M15.5 12.5H0.5M0.5 3.5H15.5M14 12.5C11.5135 15.8137 6.81147 16.4843 3.4978 13.9978C2.93021 13.5719 2.42593 13.0676 2.00002 12.5M10.8 12.5C10.162 14.322 9.14534 15.5 8 15.5C6.85467 15.5 5.83867 14.322 5.2 12.5M1.5 5.5V7.406L1.5 7.40429C1.5 7.7994 1.53897 8.19354 1.61633 8.581L2 10.5L3 7.50001L4 10.5L4.38334 8.58267C4.46114 8.19529 4.50022 7.80113 4.5 7.40601V5.50001M6.5 5.5V7.406V7.40429C6.5 7.7994 6.53897 8.19354 6.61633 8.581L7 10.5L8 7.50001L9 10.5L9.38334 8.58267C9.46114 8.19529 9.50022 7.80113 9.5 7.40601V5.50001M11.5 5.5V7.406V7.40429C11.5 7.7994 11.539 8.19354 11.6163 8.581L12 10.5L13 7.50001L14 10.5L14.3833 8.58267C14.4611 8.19529 14.5002 7.80113 14.5 7.40601V5.50001" stroke-linecap="round" stroke-linejoin="round"/>
</svg>
