<svg width="16" height="16" viewBox="0 0 16 16" fill="none" xmlns="http://www.w3.org/2000/svg">
    <path class="svg-stroke" d="M1.5 7.5C0.947715 7.5 0.5 7.94772 0.5 8.5V11.5C0.5 12.0523 0.947715 12.5 1.5 12.5H9.5L12.5 15.5V12.5H14.5C15.0523 12.5 15.5 12.0523 15.5 11.5V8.5C15.5 7.94772 15.0523 7.5 14.5 7.5H7.5M14.5 5.5H6.5L3.5 8.5V5.5H1.5C0.947715 5.5 0.5 5.05228 0.5 4.5V1.5C0.5 0.947715 0.947715 0.5 1.5 0.5H14.5C15.0523 0.5 15.5 0.947715 15.5 1.5V4.5C15.5 5.05228 15.0523 5.5 14.5 5.5Z" stroke-linecap="round" stroke-linejoin="round"/>
</svg>
