<svg width="16" height="17" viewBox="0 0 16 17" fill="none" xmlns="http://www.w3.org/2000/svg">
    <path class="svg-stroke" fill-rule="evenodd" clip-rule="evenodd" d="M10.0265 14.9267L10.0345 14.9313C11.4932 15.86 13.4012 15.6508 14.6239 14.428L15.1399 13.912C15.6198 13.4315 15.6198 12.6532 15.1399 12.1727L12.9659 10C12.4854 9.52014 11.707 9.52014 11.2265 10C10.9961 10.2308 10.6833 10.3604 10.3572 10.3604C10.0311 10.3604 9.71834 10.2308 9.48787 10L6.00921 6.52068C5.52933 6.0402 5.52933 5.26183 6.00921 4.78135C6.23996 4.55089 6.36961 4.23814 6.36961 3.91202C6.36961 3.58589 6.23996 3.27315 6.00921 3.04268L3.83588 0.866683C3.3554 0.386806 2.57702 0.386806 2.09654 0.866683L1.58054 1.38268C0.358065 2.60545 0.148568 4.51309 1.07654 5.97202L1.08188 5.98002C3.46415 9.50657 6.50052 12.5436 10.0265 14.9267Z" stroke-linecap="round" stroke-linejoin="round"/>
</svg>
