<svg width="17" height="16" viewBox="0 0 17 16" fill="none" xmlns="http://www.w3.org/2000/svg">
    <path class="svg-stroke" d="M8.5 7.49999V4.49999M8.5 0.499982C5.95955 0.496319 3.61712 1.87127 2.38186 4.09119C1.14661 6.31111 1.21302 9.02644 2.55533 11.1833L0.5 15.5L4.816 13.444C7.34008 15.0139 10.5804 14.8186 12.8976 12.9567C15.2148 11.0949 16.1034 7.97267 15.1139 5.16971C14.1243 2.36676 11.4725 0.494409 8.5 0.499982ZM8.5 9.49999C8.36193 9.49999 8.25 9.61192 8.25 9.74999C8.25 9.88806 8.36193 9.99999 8.5 9.99999C8.63807 9.99999 8.75 9.88806 8.75 9.74999C8.75 9.61192 8.63807 9.49999 8.5 9.49999Z" stroke-linecap="round" stroke-linejoin="round"/>
    <path class="svg-fill" d="M9.05127 9.72107C9.05127 9.99721 8.82741 10.2211 8.55127 10.2211C8.27513 10.2211 8.05127 9.99721 8.05127 9.72107C8.05127 9.44493 8.27513 9.22107 8.55127 9.22107C8.82741 9.22107 9.05127 9.44493 9.05127 9.72107Z" />
</svg>
