<svg width="17" height="16" viewBox="0 0 17 16" fill="none" xmlns="http://www.w3.org/2000/svg">
    <path class="svg-stroke" id="svg-stroke" d="M6.27992 11.5C6.27992 9.84315 7.56934 8.5 9.15992 8.5C10.7505 8.5 12.0399 9.84315 12.0399 11.5M4.36004 0.5V15.5M15.8799 2V4M15.8799 6V8M15.8799 10V12M9.15998 8C10.0878 8 10.84 7.2165 10.84 6.25C10.84 5.2835 10.0878 4.5 9.15998 4.5C8.23214 4.5 7.47998 5.2835 7.47998 6.25C7.47998 7.2165 8.23214 8 9.15998 8ZM2.97998 15.5H12.46C13.2884 15.5 13.96 14.8284 13.96 14V2C13.96 1.17157 13.2884 0.5 12.46 0.5H2.97998C2.15155 0.5 1.47998 1.17157 1.47998 2V14C1.47998 14.8284 2.15155 15.5 2.97998 15.5Z" stroke-linecap="round" stroke-linejoin="round"/>
</svg>
