<svg class="mb-icon-alert-success-fill" width="16" height="16" viewBox="0 0 16 16" fill="none" xmlns="http://www.w3.org/2000/svg">
<path class="svg-fill" d="M13.657 2.34329C14.7758 3.46213 15.5377 4.88759 15.8463 6.43943C16.155 7.99127 15.9965 9.59978 15.391 11.0616C14.7855 12.5233 13.7601 13.7728 12.4445 14.6518C11.1289 15.5308 9.58224 16 8 16C6.41777 16 4.87107 15.5308 3.55548 14.6518C2.2399 13.7728 1.21452 12.5233 0.609007 11.0616C0.00349361 9.59978 -0.154957 7.99127 0.153691 6.43943C0.46234 4.88759 1.22422 3.46213 2.343 2.34329C3.08588 1.60038 3.96781 1.01107 4.93844 0.609003C5.90907 0.20694 6.94939 0 8 0C9.05061 0 10.0909 0.20694 11.0616 0.609003C12.0322 1.01107 12.9141 1.60038 13.657 2.34329Z" />
<path class="svg-stroke" d="M4 8.81531L5.633 11.1333C5.69505 11.2257 5.77825 11.302 5.87568 11.3558C5.97312 11.4097 6.08199 11.4395 6.19326 11.4428C6.30453 11.4461 6.41499 11.4229 6.51546 11.375C6.61594 11.327 6.70354 11.2559 6.771 11.1673L12 4.55231" stroke-linecap="round" stroke-linejoin="round"/>
</svg>
