<svg width="16" height="16" viewBox="0 0 16 16" fill="none" xmlns="http://www.w3.org/2000/svg">
    <path class="svg-stroke" id="svg-stroke" d="M0.5 1.47801L1.5 2.73934V5.71734C1.47333 6.84267 2.778 7.85067 3.99933 8.88534M3.4873 4.90533L4.66663 6.11333C4.86908 6.32114 5.16702 6.40516 5.44821 6.33374C5.7294 6.26232 5.95113 6.0463 6.02988 5.76707C6.10862 5.48784 6.03241 5.18781 5.82996 4.98L3.99596 3.10867V2.13333C3.8966 1.5489 3.67438 0.992199 3.34396 0.5M4 5.42533V13.5C4 14.0523 4.44772 14.5 5 14.5H9.5M15.5 14.5213L14.5 13.26V10.2827C14.5233 9.30999 13.5527 8.42533 12.5 7.53599M6.5 2.5H11.5C12.0523 2.5 12.5 2.94772 12.5 3.5V11.08L11.3333 9.88667C11.0204 9.56542 10.5062 9.55871 10.185 9.87167C9.86375 10.1846 9.85704 10.6988 10.17 11.02L12.0067 12.892V13.8667C12.1065 14.4501 12.3287 15.0059 12.6587 15.493" stroke="#8793A0" stroke-linecap="round" stroke-linejoin="round"/>
</svg>
