<svg width="18" height="16" viewBox="0 0 18 16" fill="none" xmlns="http://www.w3.org/2000/svg">
    <path class="svg-stroke" id="svg-stroke" d="M1.50516 8.50001L8.52316 11.8853C8.81925 12.0382 9.17107 12.0382 9.46716 11.8853L16.5052 8.50001M1.50516 11.5L8.52316 14.8853C8.81925 15.0382 9.17107 15.0382 9.46716 14.8853L16.5052 11.5M16.2732 4.63533L9.46656 1.11467C9.17047 0.961758 8.81865 0.961758 8.52256 1.11467L1.71723 4.63533C1.58056 4.70557 1.49463 4.84633 1.49463 5C1.49463 5.15366 1.58056 5.29443 1.71723 5.36466L8.52323 8.88533C8.81932 9.03824 9.17114 9.03824 9.46723 8.88533L16.2732 5.36466C16.4095 5.2941 16.495 5.15345 16.495 5C16.495 4.84655 16.4095 4.7059 16.2732 4.63533Z" stroke-linecap="round" stroke-linejoin="round"/>
</svg>
