<svg xmlns="http://www.w3.org/2000/svg" xmlns:xlink="http://www.w3.org/1999/xlink" width="16.005" height="16" viewBox="0 0 16.005 16"><defs><style>.a,.c{fill:none;}.b{clip-path:url(#a);}.c{stroke:#99a3b1;stroke-linecap:round;stroke-linejoin:round;}</style><clipPath id="a"><rect class="a" width="16.005" height="16"/></clipPath></defs><g class="b"><path class="c" d="M.533,12.8h0a2.085,2.085,0,0,1,2.49-1.238A1.74,1.74,0,0,1,4.462,13.7,2.007,2.007,0,0,1,2.5,15h0a1.908,1.908,0,0,1,2.034,1.749A1.907,1.907,0,0,1,2.5,18.5,2.011,2.011,0,0,1,.54,17.215" transform="translate(10.967 -7)"/><path class="c" d="M4.5.5v7" transform="translate(-2.5 4)"/><path class="c" d="M4.5.5v7" transform="translate(3.5 4)"/><path class="c" d="M7.5,6.5h-3" transform="translate(-4 -2)"/><path class="c" d="M7.5,6.5h-3" transform="translate(2 -2)"/><path class="c" d="M10,6.5H4.5" transform="translate(-2 1.5)"/><path class="c" d="M7.5,6.5h-3" transform="translate(-4 5)"/><path class="c" d="M7.5,6.5h-3" transform="translate(2 5)"/></g></svg>