<svg width="16" height="16" viewBox="0 0 16 16" fill="none" xmlns="http://www.w3.org/2000/svg">
    <path class="svg-stroke" id="svg-stroke" d="M4.14284 6.22933C4.43563 6.61446 4.89811 6.83226 5.3815 6.81267M5.3815 6.81267C6.14084 6.81267 6.75684 6.35067 6.75684 5.78133C6.75684 5.212 6.14084 4.75067 5.3815 4.75067C4.62217 4.75067 4.00684 4.28867 4.00684 3.71867C4.00684 3.14867 4.62284 2.68733 5.3815 2.68733M5.3815 6.81267L5.3815 7.5M5.3815 2.68733C5.8649 2.66774 6.32737 2.88554 6.62017 3.27067M5.3815 2.68733L5.3815 2M15.5002 13.9907L14.5068 12.5V9C14.5068 7.66667 11.9735 6.24067 11.0068 5.5M12.2936 9.86267L9.86156 7.91334C9.52227 7.57405 8.97218 7.57405 8.63289 7.91334C8.29361 8.25263 8.29361 8.80272 8.63289 9.14201L10.9882 11.8V13.4667C10.9882 14.254 12.1136 15.4967 12.1136 15.4967M9.00684 15.5H1.42284C0.916835 15.4996 0.506836 15.0893 0.506836 14.5833V1.41667C0.506836 0.910666 0.916835 0.500368 1.42284 0.5H10.0895C10.5959 0.5 11.0065 0.910298 11.0068 1.41667V8.83133M7.00684 9.5H3.00684C2.73069 9.5 2.50684 9.72386 2.50684 10V13C2.50684 13.2761 2.73069 13.5 3.00684 13.5H9.00684M2.50684 11.5H8.00684M5.50684 9.5V13.5" stroke-linecap="round" stroke-linejoin="round"/>
</svg>
