<svg width="16" height="16" viewBox="0 0 16 16" fill="none" xmlns="http://www.w3.org/2000/svg">
    <path class="svg-stroke" id="svg-stroke" d="M0.5 9.5H15.5M0.5 12.5H15.5M0.5 8.5L4.5 5.29999C5.10915 4.81252 5.94617 4.72377 6.644 5.07266L9.35467 6.428C10.0524 6.77707 10.8894 6.68858 11.4987 6.20133L15.4987 3.00133M5.5 4.87667V15.5M10.5 6.62266V15.5M2 15.5H14C14.8284 15.5 15.5 14.8284 15.5 14V2C15.5 1.17157 14.8284 0.5 14 0.5H2C1.17157 0.5 0.5 1.17157 0.5 2V14C0.5 14.8284 1.17157 15.5 2 15.5Z" stroke-linecap="round" stroke-linejoin="round"/>
</svg>
