<svg width="16" height="16" viewBox="0 0 16 16" fill="none" xmlns="http://www.w3.org/2000/svg">
    <path class="svg-stroke" id="svg-stroke" d="M0.5 15.5V5.5M0.5 5.5H6.5M0.5 5.5L3.5 2M6.5 5.5V15.5M6.5 5.5L3.5 2M2.5 15.5V7.5M4.5 15.5V7.5M3.5 2V0.5M14.5 15.5V7.361C14.5001 7.25593 14.4672 7.15349 14.4058 7.06823C14.3444 6.98296 14.2577 6.9192 14.158 6.886L9.158 5.219C9.08279 5.19395 9.00271 5.18714 8.92435 5.19913C8.846 5.21113 8.77162 5.24158 8.70734 5.28797C8.64307 5.33437 8.59075 5.39538 8.5547 5.46598C8.51865 5.53658 8.4999 5.61473 8.5 5.694V15.5M12.5 14V14.5M12.5 11.5V12M12.5 9V9.5M10.5 14V14.5M10.5 11.5V12M10.5 9V9.5" stroke-linecap="round" stroke-linejoin="round"/>
</svg>
