<svg width="16" height="16" viewBox="0 0 16 16" fill="none" xmlns="http://www.w3.org/2000/svg">
    <path class="svg-stroke" d="M7.99985 6.23532L0.735851 3.38732M7.99985 6.23532L15.2639 3.38732M7.99985 6.23532L7.99985 15.5M1.21118 3.01598L7.27785 0.637317C7.7408 0.453984 8.25623 0.453984 8.71918 0.637317L14.7858 3.01598C15.228 3.20455 15.5108 3.64339 15.4998 4.12398V11.876C15.5113 12.3559 15.2297 12.7946 14.7885 12.984L8.72185 15.3633C8.25864 15.5453 7.74372 15.5453 7.28051 15.3633L1.21385 12.984C0.771652 12.7954 0.488861 12.3566 0.499847 11.876V4.12398C0.488414 3.64403 0.770032 3.20538 1.21118 3.01598Z" stroke-linecap="round" stroke-linejoin="round"/>
</svg>
