<svg width="16" height="16" viewBox="0 0 16 16" fill="none" xmlns="http://www.w3.org/2000/svg">
    <path class="svg-stroke" d="M5.50007 12.5H1.63141M13.5 5.5V3.5C13.5 2.94772 13.0523 2.5 12.5 2.5H5.5V1.5C5.5 0.947715 5.05228 0.5 4.5 0.5H1.5C0.947715 0.5 0.5 0.947715 0.5 1.5V11.3667C0.507778 11.9296 0.927539 12.4014 1.48569 12.4747C2.04384 12.548 2.57118 12.2005 2.724 11.6587L4.29133 6.22267C4.41494 5.79447 4.80699 5.49975 5.25267 5.5H14.5C14.8107 5.49989 15.1038 5.64419 15.2931 5.89049C15.4825 6.13679 15.5466 6.45712 15.4667 6.75733M8.67206 14.3273L14.3281 8.672M11.5 15.5C13.7091 15.5 15.5 13.7091 15.5 11.5C15.5 9.29086 13.7091 7.5 11.5 7.5C9.29086 7.5 7.5 9.29086 7.5 11.5C7.5 13.7091 9.29086 15.5 11.5 15.5Z" stroke-linecap="round" stroke-linejoin="round"/>
</svg>
