<svg width="16" height="16" viewBox="0 0 16 16" fill="none" xmlns="http://www.w3.org/2000/svg">
    <path class="svg-fill" id="svg-fill" d="M8 11.5V12H8.20711L8.35355 11.8536L8 11.5ZM6.70018 1.95509L6.27193 2.21317L6.38786 2.40555L6.60868 2.44665L6.70018 1.95509ZM5.18026 0.510095L5.05476 0.994091L5.05476 0.994091L5.18026 0.510095ZM0.747192 5.23919L0.387258 4.89213L0.387258 4.89213L0.747192 5.23919ZM1.63378 7.07828L1.79716 6.60572L1.79716 6.60572L1.63378 7.07828ZM4.42029 6.55283L4.33512 7.04552L4.33512 7.04552L4.42029 6.55283ZM5.94022 5.89601L6.32313 6.21753L6.32313 6.21753L5.94022 5.89601ZM2.77371 9.57419L2.60184 9.10466C2.4623 9.15573 2.35272 9.26622 2.30278 9.40617C2.25285 9.54611 2.26775 9.70101 2.34343 9.82888L2.77371 9.57419ZM3.91365 11.5L3.48338 11.7547L3.62859 12H3.91365V11.5ZM13.2675 3.73223L13.621 3.37868L13.621 3.37868L13.2675 3.73223ZM10.2416 7.055C10.0272 6.88099 9.71232 6.91374 9.53831 7.12816C9.36429 7.34257 9.39705 7.65746 9.61146 7.83147L10.2416 7.055ZM13.0001 8C13.0001 7.72386 12.7762 7.5 12.5001 7.5C12.2239 7.5 12.0001 7.72386 12.0001 8H13.0001ZM8.35355 11.8536C8.91766 11.2894 9.42738 10.4334 9.80109 9.47597C10.1768 8.51324 10.4297 7.41082 10.4524 6.33289C10.475 5.25758 10.2687 4.17174 9.68733 3.28009C9.09666 2.37414 8.14913 1.71623 6.79169 1.46354L6.60868 2.44665C7.72112 2.65373 8.42101 3.16882 8.84965 3.82625C9.28761 4.49797 9.47251 5.36589 9.45261 6.31186C9.43277 7.25521 9.20939 8.24161 8.86953 9.11237C8.52762 9.98838 8.08234 10.7106 7.64645 11.1464L8.35355 11.8536ZM7.12843 1.69702C6.80229 1.15582 6.51883 0.778242 6.22697 0.515905C5.9194 0.239446 5.62172 0.108026 5.30575 0.0260992L5.05476 0.994091C5.24543 1.04353 5.39107 1.10915 5.55848 1.25963C5.74159 1.42422 5.96477 1.70346 6.27193 2.21317L7.12843 1.69702ZM5.30575 0.0260992C5.20053 -0.00118157 4.95499 -0.0452368 4.73779 0.127396C4.53257 0.290502 4.51329 0.524598 4.50891 0.600266C4.50332 0.69695 4.51362 0.801008 4.52003 0.867506C4.52778 0.947888 4.535 1.01627 4.53824 1.09028C4.54462 1.23583 4.53222 1.3566 4.48822 1.46061C4.44853 1.55442 4.3681 1.67084 4.17067 1.78459L4.66991 2.65105C5.04246 2.4364 5.27868 2.15872 5.40919 1.85024C5.53539 1.55194 5.54674 1.2622 5.53728 1.0465C5.53261 0.93989 5.52201 0.839959 5.51542 0.771531C5.51187 0.73478 5.50952 0.708004 5.50822 0.686138C5.50689 0.663651 5.50734 0.656247 5.50724 0.658021C5.50715 0.659573 5.5067 0.666529 5.50484 0.67745C5.50299 0.688251 5.49921 0.706187 5.49131 0.728636C5.47516 0.774509 5.4383 0.848012 5.36 0.910242C5.27985 0.973947 5.19545 0.994758 5.13775 0.999039C5.11059 1.00105 5.08957 0.999509 5.07681 0.997968C5.06395 0.996416 5.05624 0.994473 5.05476 0.994091L5.30575 0.0260992ZM4.17067 1.78459C2.97471 2.47368 1.54459 3.69186 0.387258 4.89213L1.10713 5.58624C2.22974 4.42197 3.58598 3.2756 4.66991 2.65105L4.17067 1.78459ZM0.387258 4.89213C0.145258 5.14311 0.0138922 5.4405 0.00103813 5.75694C-0.0114216 6.06366 0.0888878 6.34429 0.230169 6.57587C0.50635 7.02857 0.992428 7.38559 1.47041 7.55084L1.79716 6.60572C1.51044 6.5066 1.22427 6.28524 1.08384 6.05507C1.01682 5.94521 0.997746 5.85828 1.00021 5.79752C1.00229 5.74647 1.02017 5.67643 1.10713 5.58624L0.387258 4.89213ZM1.47041 7.55084C1.79228 7.66211 2.07625 7.62535 2.32269 7.53619C2.52744 7.46212 2.7593 7.32583 2.90791 7.24953C3.23261 7.08282 3.62817 6.9233 4.33512 7.04552L4.50547 6.06013C3.52579 5.89077 2.90807 6.12534 2.45116 6.35993C2.20896 6.48429 2.10793 6.55046 1.9825 6.59584C1.89876 6.62613 1.85525 6.62581 1.79716 6.60572L1.47041 7.55084ZM4.33512 7.04552C5.21882 7.19829 5.93707 6.6773 6.32313 6.21753L5.55731 5.57448C5.28154 5.9029 4.88837 6.12633 4.50547 6.06013L4.33512 7.04552ZM6.32313 6.21753C6.32162 6.21934 6.31692 6.22485 6.30925 6.23257C6.30222 6.23964 6.2877 6.25365 6.26629 6.2697C6.24748 6.28381 6.20563 6.31303 6.14409 6.33503C6.08261 6.357 5.96412 6.38443 5.82498 6.33813C5.51816 6.23604 5.49361 5.93957 5.49238 5.92745C5.48628 5.86721 5.49454 5.82487 5.49482 5.82321C5.49642 5.814 5.48415 5.86591 5.42806 5.99718C5.32706 6.23359 5.1366 6.60666 4.86889 7.01988C4.32077 7.8659 3.52116 8.76814 2.60184 9.10466L2.94558 10.0437C4.17948 9.59206 5.12859 8.45816 5.70814 7.56361C6.00427 7.10655 6.2224 6.68322 6.34765 6.39007C6.40469 6.25657 6.45996 6.1104 6.48014 5.99394C6.48507 5.96548 6.49492 5.902 6.48729 5.82667C6.48453 5.79947 6.45535 5.49398 6.14072 5.38929C5.99767 5.34169 5.87448 5.36943 5.80751 5.39337C5.74048 5.41733 5.69234 5.45017 5.66644 5.46959C5.6144 5.50861 5.57708 5.55094 5.55731 5.57448L6.32313 6.21753ZM2.34343 9.82888L3.48338 11.7547L4.34392 11.2453L3.20398 9.3195L2.34343 9.82888ZM3.91365 12H6.5V11H3.91365V12ZM6.5 12C6.50079 12 6.50158 12 6.50236 12C6.50314 12 6.50392 12 6.50468 12C6.50545 12 6.50621 12 6.50696 12C6.50771 12 6.50846 12 6.5092 12C6.50994 12 6.51067 12 6.5114 12C6.51212 12 6.51284 12 6.51356 12C6.51427 12 6.51497 12 6.51567 12C6.51637 12 6.51706 12 6.51775 12C6.51844 12 6.51912 12 6.51979 12C6.52046 12 6.52113 12 6.52179 12C6.52245 12 6.5231 12 6.52375 12C6.5244 12 6.52504 12 6.52567 12C6.52631 12 6.52693 12 6.52755 12C6.52818 12 6.52879 12 6.5294 12C6.53001 12 6.53061 12 6.53121 12C6.5318 12 6.53239 12 6.53298 12C6.53356 12 6.53414 12 6.53471 12C6.53528 12 6.53585 12 6.5364 12C6.53696 12 6.53752 12 6.53806 12C6.53861 12 6.53915 12 6.53968 12C6.54022 12 6.54075 12 6.54127 12C6.54179 12 6.54231 12 6.54282 12C6.54333 12 6.54383 12 6.54433 12C6.54483 12 6.54532 12 6.54581 12C6.5463 12 6.54678 12 6.54725 12C6.54773 12 6.54819 12 6.54866 12C6.54912 12 6.54958 12 6.55003 12C6.55048 12 6.55093 12 6.55137 12C6.55181 12 6.55224 12 6.55267 12C6.5531 12 6.55352 12 6.55394 12C6.55436 12 6.55477 12 6.55518 12C6.55558 12 6.55598 12 6.55638 12C6.55677 12 6.55716 12 6.55755 12C6.55793 12 6.55831 12 6.55868 12C6.55905 12 6.55942 12 6.55978 12C6.56015 12 6.5605 12 6.56085 12C6.56121 12 6.56155 12 6.56189 12C6.56223 12 6.56257 12 6.5629 12C6.56323 12 6.56355 12 6.56387 12C6.56419 12 6.5645 12 6.56481 12C6.56512 12 6.56543 12 6.56572 12C6.56602 12 6.56632 12 6.56661 12C6.56689 12 6.56718 12 6.56745 12C6.56773 12 6.56801 12 6.56827 12C6.56854 12 6.5688 12 6.56906 12C6.56932 12 6.56957 12 6.56982 12C6.57007 12 6.57031 12 6.57055 12C6.57079 12 6.57102 12 6.57125 12C6.57148 12 6.5717 12 6.57192 12C6.57214 12 6.57235 12 6.57256 12C6.57277 12 6.57297 12 6.57317 12C6.57337 12 6.57357 12 6.57376 12C6.57395 12 6.57413 12 6.57431 12C6.57449 12 6.57467 12 6.57484 12C6.57501 12 6.57518 12 6.57534 12C6.5755 12 6.57566 12 6.57581 12C6.57597 12 6.57611 12 6.57626 12C6.5764 12 6.57654 12 6.57668 12C6.57681 12 6.57694 12 6.57707 12C6.5772 12 6.57732 12 6.57744 12C6.57755 12 6.57767 12 6.57777 12C6.57788 12 6.57799 12 6.57809 12C6.57819 12 6.57828 12 6.57838 12C6.57847 12 6.57856 12 6.57864 12C6.57872 12 6.5788 12 6.57888 12C6.57895 12 6.57902 12 6.57909 12C6.57916 12 6.57922 12 6.57928 12C6.57933 12 6.57939 12 6.57944 12C6.57949 12 6.57954 12 6.57958 12C6.57962 12 6.57966 12 6.57969 12C6.57973 12 6.57976 12 6.57979 12C6.57981 12 6.57984 12 6.57985 12C6.57987 12 6.57989 12 6.5799 12C6.57991 12 6.57992 12 6.57992 12C6.57993 12 6.57993 11.5 6.57992 11C6.57992 11 6.57991 11 6.5799 11C6.57989 11 6.57988 11 6.57986 11C6.57984 11 6.57982 11 6.57979 11C6.57976 11 6.57974 11 6.5797 11C6.57967 11 6.57963 11 6.57959 11C6.57955 11 6.57951 11 6.57946 11C6.57942 11 6.57937 11 6.57931 11C6.57926 11 6.5792 11 6.57914 11C6.57908 11 6.57902 11 6.57895 11C6.57888 11 6.57881 11 6.57874 11C6.57866 11 6.57859 11 6.57851 11C6.57843 11 6.57834 11 6.57826 11C6.57817 11 6.57808 11 6.57799 11C6.57789 11 6.5778 11 6.5777 11C6.5776 11 6.57749 11 6.57739 11C6.57728 11 6.57717 11 6.57706 11C6.57695 11 6.57684 11 6.57672 11C6.5766 11 6.57648 11 6.57636 11C6.57623 11 6.5761 11 6.57597 11C6.57585 11 6.57571 11 6.57558 11C6.57544 11 6.5753 11 6.57516 11C6.57502 11 6.57488 11 6.57473 11C6.57458 11 6.57443 11 6.57428 11C6.57413 11 6.57397 11 6.57382 11C6.57366 11 6.5735 11 6.57333 11C6.57317 11 6.57301 11 6.57284 11C6.57267 11 6.5725 11 6.57232 11C6.57215 11 6.57198 11 6.5718 11C6.57162 11 6.57144 11 6.57125 11C6.57107 11 6.57088 11 6.57069 11C6.57051 11 6.57032 11 6.57012 11C6.56993 11 6.56973 11 6.56953 11C6.56934 11 6.56914 11 6.56893 11C6.56873 11 6.56852 11 6.56832 11C6.56811 11 6.5679 11 6.56769 11C6.56748 11 6.56726 11 6.56705 11C6.56683 11 6.56661 11 6.56639 11C6.56617 11 6.56595 11 6.56572 11C6.5655 11 6.56527 11 6.56504 11C6.56481 11 6.56458 11 6.56435 11C6.56411 11 6.56388 11 6.56364 11C6.5634 11 6.56317 11 6.56292 11C6.56268 11 6.56244 11 6.5622 11C6.56195 11 6.5617 11 6.56146 11C6.56121 11 6.56096 11 6.5607 11C6.56045 11 6.5602 11 6.55994 11C6.55969 11 6.55943 11 6.55917 11C6.55891 11 6.55865 11 6.55839 11C6.55812 11 6.55786 11 6.55759 11C6.55733 11 6.55706 11 6.55679 11C6.55652 11 6.55625 11 6.55598 11C6.55571 11 6.55543 11 6.55516 11C6.55488 11 6.5546 11 6.55433 11C6.55405 11 6.55377 11 6.55349 11C6.55321 11 6.55292 11 6.55264 11C6.55235 11 6.55207 11 6.55178 11C6.5515 11 6.55121 11 6.55092 11C6.55063 11 6.55034 11 6.55005 11C6.54975 11 6.54946 11 6.54917 11C6.54887 11 6.54858 11 6.54828 11C6.54798 11 6.54769 11 6.54739 11C6.54709 11 6.54679 11 6.54649 11C6.54618 11 6.54588 11 6.54558 11C6.54528 11 6.54497 11 6.54467 11C6.54436 11 6.54405 11 6.54375 11C6.54344 11 6.54313 11 6.54282 11C6.54251 11 6.5422 11 6.54189 11C6.54158 11 6.54127 11 6.54096 11C6.54064 11 6.54033 11 6.54002 11C6.5397 11 6.53939 11 6.53907 11C6.53876 11 6.53844 11 6.53812 11C6.5378 11 6.53749 11 6.53717 11C6.53685 11 6.53653 11 6.53621 11C6.53589 11 6.53557 11 6.53525 11C6.53493 11 6.53461 11 6.53429 11C6.53396 11 6.53364 11 6.53332 11C6.53299 11 6.53267 11 6.53235 11C6.53202 11 6.5317 11 6.53137 11C6.53105 11 6.53072 11 6.5304 11C6.53007 11 6.52975 11 6.52942 11C6.52909 11 6.52877 11 6.52844 11C6.52811 11 6.52779 11 6.52746 11C6.52713 11 6.5268 11 6.52648 11C6.52615 11 6.52582 11 6.52549 11C6.52517 11 6.52484 11 6.52451 11C6.52418 11 6.52385 11 6.52352 11C6.5232 11 6.52287 11 6.52254 11C6.52221 11 6.52188 11 6.52155 11C6.52122 11 6.5209 11 6.52057 11C6.52024 11 6.51991 11 6.51958 11C6.51925 11 6.51893 11 6.5186 11C6.51827 11 6.51794 11 6.51762 11C6.51729 11 6.51696 11 6.51663 11C6.51631 11 6.51598 11 6.51565 11C6.51533 11 6.515 11 6.51467 11C6.51435 11 6.51402 11 6.5137 11C6.51337 11 6.51305 11 6.51272 11C6.5124 11 6.51207 11 6.51175 11C6.51143 11 6.5111 11 6.51078 11C6.51046 11 6.51014 11 6.50981 11C6.50949 11 6.50917 11 6.50885 11C6.50853 11 6.50821 11 6.50789 11C6.50757 11 6.50725 11 6.50694 11C6.50662 11 6.5063 11 6.50598 11C6.50567 11 6.50535 11 6.50504 11C6.50472 11 6.50441 11 6.50409 11C6.50378 11 6.50347 11 6.50315 11C6.50284 11 6.50253 11 6.50222 11C6.50191 11 6.5016 11 6.50129 11C6.50098 11 6.50068 11 6.50037 11C6.50006 11 6.49976 11 6.49945 11C6.49915 11 6.49885 11 6.49854 11C6.49824 11 6.49794 11 6.49764 11C6.49734 11 6.49704 11 6.49674 11C6.49644 11 6.49615 11 6.49585 11C6.49555 11 6.49526 11 6.49497 11C6.49467 11 6.49438 11 6.49409 11C6.4938 11 6.49351 11 6.49322 11C6.49293 11 6.49265 11 6.49236 11C6.49207 11 6.49179 11 6.49151 11C6.49122 11 6.49094 11 6.49066 11C6.49038 11 6.4901 11 6.48983 11C6.48955 11 6.48927 11 6.489 11C6.48872 11 6.48845 11 6.48818 11C6.48791 11 6.48764 11 6.48737 11C6.4871 11 6.48684 11 6.48657 11C6.48631 11 6.48605 11 6.48578 11C6.48552 11 6.48526 11 6.48501 11C6.48475 11 6.48449 11 6.48424 11C6.48398 11 6.48373 11 6.48348 11C6.48323 11 6.48298 11 6.48273 11C6.48249 11 6.48224 11 6.482 11C6.48175 11 6.48151 11 6.48127 11C6.48103 11 6.4808 11 6.48056 11C6.48032 11 6.48009 11 6.47986 11C6.47963 11 6.4794 11 6.47917 11C6.47894 11 6.47872 11 6.47849 11C6.47827 11 6.47805 11 6.47783 11C6.47761 11 6.4774 11 6.47718 11C6.47697 11 6.47675 11 6.47654 11C6.47633 11 6.47613 11 6.47592 11C6.47571 11 6.47551 11 6.47531 11C6.47511 11 6.47491 11 6.47471 11C6.47452 11 6.47432 11 6.47413 11C6.47394 11 6.47375 11 6.47356 11C6.47338 11 6.47319 11 6.47301 11C6.47283 11 6.47265 11 6.47247 11C6.4723 11 6.47212 11 6.47195 11C6.47178 11 6.47161 11 6.47145 11C6.47128 11 6.47112 11 6.47095 11C6.47079 11 6.47064 11 6.47048 11C6.47032 11 6.47017 11 6.47002 11C6.46987 11 6.46972 11 6.46958 11C6.46943 11 6.46929 11 6.46915 11C6.46902 11 6.46888 11 6.46875 11C6.46861 11 6.46848 11 6.46836 11C6.46823 11 6.4681 11 6.46798 11C6.46786 11 6.46774 11 6.46763 11C6.46751 11 6.4674 11 6.46729 11C6.46718 11 6.46707 11 6.46697 11C6.46687 11 6.46677 11 6.46667 11C6.46657 11 6.46648 11 6.46639 11C6.4663 11 6.46621 11 6.46613 11C6.46604 11 6.46596 11 6.46588 11C6.4658 11 6.46573 11 6.46566 11C6.46559 11 6.46552 11 6.46545 11C6.46539 11 6.46533 11 6.46527 11C6.46521 11 6.46516 11 6.46511 11C6.46506 11 6.46501 11 6.46497 11C6.46492 11 6.46488 11 6.46484 11C6.46481 11 6.46477 11 6.46474 11C6.46471 11 6.46469 11 6.46466 11C6.46464 11 6.46462 11 6.46461 11C6.46459 11 6.46458 11 6.46457 11C6.46456 11 6.46456 11 6.46456 11C6.46456 11.5 6.46456 12 6.46457 12C6.46457 12 6.46458 12 6.4646 12C6.46461 12 6.46463 12 6.46465 12C6.46467 12 6.4647 12 6.46473 12C6.46476 12 6.46479 12 6.46483 12C6.46487 12 6.46491 12 6.46496 12C6.465 12 6.46505 12 6.46511 12C6.46516 12 6.46522 12 6.46528 12C6.46534 12 6.46541 12 6.46548 12C6.46555 12 6.46562 12 6.4657 12C6.46578 12 6.46586 12 6.46595 12C6.46603 12 6.46612 12 6.46622 12C6.46631 12 6.46641 12 6.46652 12C6.46662 12 6.46673 12 6.46684 12C6.46695 12 6.46707 12 6.46719 12C6.46731 12 6.46744 12 6.46757 12C6.4677 12 6.46783 12 6.46797 12C6.46811 12 6.46825 12 6.4684 12C6.46855 12 6.4687 12 6.46885 12C6.46901 12 6.46917 12 6.46934 12C6.4695 12 6.46967 12 6.46985 12C6.47002 12 6.4702 12 6.47039 12C6.47057 12 6.47076 12 6.47095 12C6.47115 12 6.47135 12 6.47155 12C6.47175 12 6.47196 12 6.47217 12C6.47239 12 6.4726 12 6.47283 12C6.47305 12 6.47328 12 6.47351 12C6.47374 12 6.47398 12 6.47422 12C6.47446 12 6.47471 12 6.47496 12C6.47521 12 6.47547 12 6.47573 12C6.47599 12 6.47626 12 6.47653 12C6.4768 12 6.47708 12 6.47736 12C6.47764 12 6.47793 12 6.47822 12C6.47852 12 6.47881 12 6.47912 12C6.47942 12 6.47973 12 6.48004 12C6.48035 12 6.48067 12 6.48099 12C6.48132 12 6.48165 12 6.48198 12C6.48232 12 6.48265 12 6.483 12C6.48334 12 6.48369 12 6.48405 12C6.48441 12 6.48477 12 6.48513 12C6.4855 12 6.48587 12 6.48625 12C6.48663 12 6.48701 12 6.4874 12C6.48779 12 6.48818 12 6.48858 12C6.48898 12 6.48938 12 6.48979 12C6.4902 12 6.49062 12 6.49104 12C6.49146 12 6.49189 12 6.49233 12C6.49276 12 6.4932 12 6.49364 12C6.49409 12 6.49454 12 6.49499 12C6.49545 12 6.49591 12 6.49638 12C6.49685 12 6.49732 12 6.4978 12C6.49828 12 6.49877 12 6.49926 12C6.49975 12 6.50025 12 6.50075 12C6.50125 12 6.50176 12 6.50228 12C6.50279 12 6.50331 12 6.50384 12C6.50437 12 6.5049 12 6.50544 12C6.50598 12 6.50652 12 6.50707 12C6.50763 12 6.50818 12 6.50875 12C6.50931 12 6.50988 12 6.51046 12C6.51103 12 6.51162 12 6.5122 12C6.51279 12 6.51339 12 6.51399 12C6.51459 12 6.5152 12 6.51581 12C6.51643 12 6.51705 12 6.51767 12C6.5183 12 6.51893 12 6.51957 12C6.52021 12 6.52086 12 6.52151 12C6.52216 12 6.52282 12 6.52348 12C6.52415 12 6.52482 12 6.5255 12C6.52618 12 6.52686 12 6.52755 12C6.52824 12 6.52894 12 6.52965 12C6.53035 12 6.53106 12 6.53178 12C6.5325 12 6.53322 12 6.53395 12C6.53468 12 6.53542 12 6.53617 12C6.53691 12 6.53766 12 6.53842 12C6.53918 12 6.53995 12 6.54072 12C6.54149 12 6.54227 12 6.54305 12C6.54384 12 6.54463 12 6.54543 12C6.54623 12 6.54704 12 6.54785 12C6.54867 12 6.54949 12 6.55031 12C6.55114 12 6.55197 12 6.55282 12C6.55366 12 6.55451 12 6.55536 12C6.55622 12 6.55708 12 6.55795 12C6.55882 12 6.5597 12 6.56058 12C6.56147 12 6.56236 12 6.56326 12C6.56416 12 6.56506 12 6.56597 12C6.56689 12 6.56781 12 6.56874 12C6.56966 12 6.5706 12 6.57154 12C6.57248 12 6.57343 12 6.57439 12C6.57535 12 6.57631 12 6.57728 12C6.57826 12 6.57924 12 6.58022 12C6.58121 12 6.5822 12 6.58321 12C6.58421 12 6.58522 12 6.58624 12C6.58725 12 6.58828 12 6.58931 12C6.59034 12 6.59138 12 6.59243 12C6.59348 12 6.59453 12 6.5956 12C6.59666 12 6.59773 12 6.59881 12C6.59989 12 6.60097 12 6.60207 12C6.60316 12 6.60426 12 6.60537 12C6.60648 12 6.6076 12 6.60872 12C6.60985 12 6.61098 12 6.61212 12C6.61326 12 6.61441 12 6.61557 12C6.61673 12 6.61789 12 6.61906 12C6.62024 12 6.62142 12 6.62261 12C6.6238 12 6.62499 12 6.6262 12C6.6274 12 6.62862 12 6.62984 12C6.63106 12 6.63229 12 6.63352 12C6.63476 12 6.63601 12 6.63726 12C6.63852 12 6.63978 12 6.64105 12C6.64232 12 6.6436 12 6.64488 12C6.64617 12 6.64747 12 6.64877 12C6.65007 12 6.65139 12 6.65271 12C6.65403 12 6.65535 12 6.65669 12C6.65803 12 6.65937 12 6.66073 12C6.66208 12 6.66344 12 6.66482 12C6.66619 12 6.66757 12 6.66895 12C6.67034 12 6.67174 12 6.67314 12C6.67455 12 6.67596 12 6.67738 12C6.67881 12 6.68024 12 6.68168 12C6.68312 12 6.68457 12 6.68602 12C6.68748 12 6.68895 12 6.69042 12C6.6919 12 6.69338 12 6.69487 12C6.69636 12 6.69786 12 6.69937 12C6.70088 12 6.7024 12 6.70393 12C6.70546 12 6.70699 12 6.70854 12C6.71009 12 6.71164 12 6.7132 12C6.71477 12 6.71634 12 6.71792 12C6.7195 12 6.72109 12 6.72269 12C6.72429 12 6.7259 12 6.72752 12C6.72913 12 6.73076 12 6.7324 12C6.73403 12 6.73568 12 6.73733 12C6.73899 12 6.74065 12 6.74232 12C6.74399 12 6.74568 12 6.74737 12C6.74906 12 6.75076 12 6.75247 12C6.75418 12 6.7559 12 6.75763 12C6.75935 12 6.76109 12 6.76284 12C6.76459 12 6.76634 12 6.76811 12C6.76987 12 6.77165 12 6.77344 12C6.77522 12 6.77701 12 6.77882 12C6.78062 12 6.78244 12 6.78426 12C6.78608 12 6.78791 12 6.78976 12C6.7916 12 6.79345 12 6.79531 12C6.79717 12 6.79905 12 6.80093 12C6.80281 12 6.8047 12 6.8066 12C6.8085 12 6.81041 12 6.81233 12C6.81425 12 6.81618 12 6.81812 12C6.82006 12 6.82201 12 6.82397 12C6.82593 12 6.82789 12 6.82987 12C6.83185 12 6.83384 12 6.83584 12C6.83784 12 6.83985 12 6.84187 12C6.84389 12 6.84591 12 6.84795 12C6.84999 12 6.85204 12 6.8541 12C6.85616 12 6.85823 12 6.86031 12C6.86239 12 6.86448 12 6.86658 12C6.86868 12 6.87079 12 6.87291 12C6.87503 12 6.87716 12 6.8793 12C6.88144 12 6.88359 12 6.88575 12C6.88791 12 6.89008 12 6.89226 12C6.89444 12 6.89664 12 6.89884 12C6.90104 12 6.90325 12 6.90548 12C6.9077 12 6.90993 12 6.91218 12C6.91442 12 6.91668 12 6.91894 12C6.92121 12 6.92348 12 6.92577 12C6.92805 12 6.93035 12 6.93266 12C6.93496 12 6.93728 12 6.93961 12C6.94194 12 6.94428 12 6.94663 12C6.94898 12 6.95134 12 6.95371 12C6.95608 12 6.95846 12 6.96086 12C6.96325 12 6.96565 12 6.96807 12C6.97048 12 6.97291 12 6.97534 12C6.97778 12 6.98022 12 6.98268 12C6.98514 12 6.98761 12 6.99009 12C6.99257 12 6.99506 12 6.99756 12C7.00006 12 7.00257 12 7.0051 12C7.00762 12 7.01015 12 7.0127 12C7.01525 12 7.0178 12 7.02037 12C7.02294 12 7.02552 12 7.02811 12C7.0307 12 7.0333 12 7.03591 12C7.03852 12 7.04115 12 7.04378 12C7.04642 12 7.04906 12 7.05172 12C7.05438 12 7.05705 12 7.05973 12C7.06241 12 7.0651 12 7.0678 12C7.0705 12 7.07322 12 7.07594 12C7.07867 12 7.0814 12 7.08415 12C7.0869 12 7.08966 12 7.09243 12C7.0952 12 7.09798 12 7.10078 12C7.10357 12 7.10638 12 7.1092 12C7.11201 12 7.11484 12 7.11768 12C7.12052 12 7.12338 12 7.12624 12C7.1291 12 7.13198 12 7.13487 12C7.13775 12 7.14065 12 7.14356 12C7.14647 12 7.1494 12 7.15233 12C7.15526 12 7.15821 12 7.16117 12C7.16413 12 7.16709 12 7.17008 12C7.17306 12 7.17605 12 7.17906 12C7.18206 12 7.18508 12 7.18811 12C7.19114 12 7.19418 12 7.19723 12C7.20028 12 7.20335 12 7.20643 12C7.2095 12 7.21259 12 7.21569 12C7.2188 12 7.22191 12 7.22504 12C7.22816 12 7.2313 12 7.23445 12C7.2376 12 7.24076 12 7.24393 12C7.24711 12 7.2503 12 7.25349 12C7.25669 12 7.2599 12 7.26313 12C7.26635 12 7.26959 12 7.27283 12C7.27608 12 7.27934 12 7.28261 12C7.28589 12 7.28917 12 7.29247 12C7.29577 12 7.29908 12 7.3024 12C7.30572 12 7.30906 12 7.3124 12C7.31575 12 7.31911 12 7.32248 12C7.32586 12 7.32924 12 7.33264 12C7.33604 12 7.33945 12 7.34287 12C7.34629 12 7.34973 12 7.35318 12C7.35662 12 7.36009 12 7.36356 12C7.36703 12 7.37052 12 7.37402 12C7.37752 12 7.38103 12 7.38455 12C7.38808 12 7.39162 12 7.39517 12C7.39872 12 7.40228 12 7.40586 12C7.40943 12 7.41302 12 7.41662 12C7.42023 12 7.42384 12 7.42747 12C7.4311 12 7.43474 12 7.43839 12C7.44205 12 7.44571 12 7.44939 12C7.45307 12 7.45677 12 7.46047 12C7.46418 12 7.4679 12 7.47163 12C7.47536 12 7.47911 12 7.48287 12C7.48663 12 7.4904 12 7.49418 12C7.49797 12 7.50177 12 7.50558 12C7.50939 12 7.51321 12 7.51705 12C7.52089 12 7.52474 12 7.52861 12C7.53247 12 7.53635 12 7.54024 12C7.54414 12 7.54804 12 7.55196 12C7.55588 12 7.55981 12 7.56376 12C7.5677 12 7.57166 12 7.57563 12C7.57961 12 7.58359 12 7.58759 12C7.59159 12 7.59561 12 7.59963 12C7.60366 12 7.6077 12 7.61175 12C7.61581 12 7.61988 12 7.62396 12C7.62804 12 7.63214 12 7.63624 12C7.64035 12 7.64448 12 7.64861 12C7.65275 12 7.6569 12 7.66107 12C7.66523 12 7.66941 12 7.6736 12C7.67779 12 7.682 12 7.68622 12C7.69044 12 7.69467 12 7.69892 12C7.70317 12 7.70743 12 7.7117 12C7.71598 12 7.72027 12 7.72457 12C7.72888 12 7.73319 12 7.73753 12C7.74186 12 7.7462 12 7.75056 12C7.75492 12 7.7593 12 7.76369 12C7.76808 12 7.77248 12 7.7769 12C7.78131 12 7.78574 12 7.79019 12C7.79463 12 7.79909 12 7.80357 12C7.80804 12 7.81253 12 7.81703 12C7.82153 12 7.82605 12 7.83058 12C7.83511 12 7.83966 12 7.84422 12C7.84878 12 7.85335 12 7.85794 12C7.86253 12 7.86714 12 7.87175 12C7.87637 12 7.881 12 7.88565 12C7.8903 12 7.89496 12 7.89964 12C7.90431 12 7.909 12 7.91371 12C7.91842 12 7.92314 12 7.92787 12C7.93261 12 7.93735 12 7.94212 12C7.94688 12 7.95166 12 7.95646 12C7.96125 12 7.96606 12 7.97088 12C7.9757 12 7.98054 12 7.9854 12C7.99025 12 7.99512 12 8 12V11C7.99512 11 7.99025 11 7.9854 11C7.98054 11 7.9757 11 7.97088 11C7.96606 11 7.96125 11 7.95646 11C7.95166 11 7.94688 11 7.94212 11C7.93735 11 7.93261 11 7.92787 11C7.92314 11 7.91842 11 7.91371 11C7.909 11 7.90431 11 7.89964 11C7.89496 11 7.8903 11 7.88565 11C7.881 11 7.87637 11 7.87175 11C7.86714 11 7.86253 11 7.85794 11C7.85335 11 7.84878 11 7.84422 11C7.83966 11 7.83511 11 7.83058 11C7.82605 11 7.82153 11 7.81703 11C7.81253 11 7.80804 11 7.80357 11C7.79909 11 7.79463 11 7.79019 11C7.78574 11 7.78131 11 7.7769 11C7.77248 11 7.76808 11 7.76369 11C7.7593 11 7.75492 11 7.75056 11C7.7462 11 7.74186 11 7.73753 11C7.73319 11 7.72888 11 7.72457 11C7.72027 11 7.71598 11 7.7117 11C7.70743 11 7.70317 11 7.69892 11C7.69467 11 7.69044 11 7.68622 11C7.682 11 7.67779 11 7.6736 11C7.66941 11 7.66523 11 7.66107 11C7.6569 11 7.65275 11 7.64861 11C7.64448 11 7.64035 11 7.63624 11C7.63214 11 7.62804 11 7.62396 11C7.61988 11 7.61581 11 7.61175 11C7.6077 11 7.60366 11 7.59963 11C7.59561 11 7.59159 11 7.58759 11C7.58359 11 7.57961 11 7.57563 11C7.57166 11 7.5677 11 7.56376 11C7.55981 11 7.55588 11 7.55196 11C7.54804 11 7.54414 11 7.54024 11C7.53635 11 7.53247 11 7.52861 11C7.52474 11 7.52089 11 7.51705 11C7.51321 11 7.50939 11 7.50558 11C7.50177 11 7.49797 11 7.49418 11C7.4904 11 7.48663 11 7.48287 11C7.47911 11 7.47536 11 7.47163 11C7.4679 11 7.46418 11 7.46047 11C7.45677 11 7.45307 11 7.44939 11C7.44571 11 7.44205 11 7.43839 11C7.43474 11 7.4311 11 7.42747 11C7.42384 11 7.42023 11 7.41662 11C7.41302 11 7.40943 11 7.40586 11C7.40228 11 7.39872 11 7.39517 11C7.39162 11 7.38808 11 7.38455 11C7.38103 11 7.37752 11 7.37402 11C7.37052 11 7.36703 11 7.36356 11C7.36009 11 7.35662 11 7.35318 11C7.34973 11 7.34629 11 7.34287 11C7.33945 11 7.33604 11 7.33264 11C7.32924 11 7.32586 11 7.32248 11C7.31911 11 7.31575 11 7.3124 11C7.30906 11 7.30572 11 7.3024 11C7.29908 11 7.29577 11 7.29247 11C7.28917 11 7.28589 11 7.28261 11C7.27934 11 7.27608 11 7.27283 11C7.26959 11 7.26635 11 7.26313 11C7.2599 11 7.25669 11 7.25349 11C7.2503 11 7.24711 11 7.24393 11C7.24076 11 7.2376 11 7.23445 11C7.2313 11 7.22816 11 7.22504 11C7.22191 11 7.2188 11 7.21569 11C7.21259 11 7.2095 11 7.20643 11C7.20335 11 7.20028 11 7.19723 11C7.19418 11 7.19114 11 7.18811 11C7.18508 11 7.18206 11 7.17906 11C7.17605 11 7.17306 11 7.17008 11C7.16709 11 7.16413 11 7.16117 11C7.15821 11 7.15526 11 7.15233 11C7.1494 11 7.14647 11 7.14356 11C7.14065 11 7.13775 11 7.13487 11C7.13198 11 7.1291 11 7.12624 11C7.12338 11 7.12052 11 7.11768 11C7.11484 11 7.11201 11 7.1092 11C7.10638 11 7.10357 11 7.10078 11C7.09798 11 7.0952 11 7.09243 11C7.08966 11 7.0869 11 7.08415 11C7.0814 11 7.07867 11 7.07594 11C7.07322 11 7.0705 11 7.0678 11C7.0651 11 7.06241 11 7.05973 11C7.05705 11 7.05438 11 7.05172 11C7.04906 11 7.04642 11 7.04378 11C7.04115 11 7.03852 11 7.03591 11C7.0333 11 7.0307 11 7.02811 11C7.02552 11 7.02294 11 7.02037 11C7.0178 11 7.01525 11 7.0127 11C7.01015 11 7.00762 11 7.0051 11C7.00257 11 7.00006 11 6.99756 11C6.99506 11 6.99257 11 6.99009 11C6.98761 11 6.98514 11 6.98268 11C6.98022 11 6.97778 11 6.97534 11C6.97291 11 6.97048 11 6.96807 11C6.96565 11 6.96325 11 6.96086 11C6.95846 11 6.95608 11 6.95371 11C6.95134 11 6.94898 11 6.94663 11C6.94428 11 6.94194 11 6.93961 11C6.93728 11 6.93496 11 6.93266 11C6.93035 11 6.92805 11 6.92577 11C6.92348 11 6.92121 11 6.91894 11C6.91668 11 6.91442 11 6.91218 11C6.90993 11 6.9077 11 6.90548 11C6.90325 11 6.90104 11 6.89884 11C6.89664 11 6.89444 11 6.89226 11C6.89008 11 6.88791 11 6.88575 11C6.88359 11 6.88144 11 6.8793 11C6.87716 11 6.87503 11 6.87291 11C6.87079 11 6.86868 11 6.86658 11C6.86448 11 6.86239 11 6.86031 11C6.85823 11 6.85616 11 6.8541 11C6.85204 11 6.84999 11 6.84795 11C6.84591 11 6.84389 11 6.84187 11C6.83985 11 6.83784 11 6.83584 11C6.83384 11 6.83185 11 6.82987 11C6.82789 11 6.82593 11 6.82397 11C6.82201 11 6.82006 11 6.81812 11C6.81618 11 6.81425 11 6.81233 11C6.81041 11 6.8085 11 6.8066 11C6.8047 11 6.80281 11 6.80093 11C6.79905 11 6.79717 11 6.79531 11C6.79345 11 6.7916 11 6.78976 11C6.78791 11 6.78608 11 6.78426 11C6.78244 11 6.78062 11 6.77882 11C6.77701 11 6.77522 11 6.77344 11C6.77165 11 6.76987 11 6.76811 11C6.76634 11 6.76459 11 6.76284 11C6.76109 11 6.75935 11 6.75763 11C6.7559 11 6.75418 11 6.75247 11C6.75076 11 6.74906 11 6.74737 11C6.74568 11 6.74399 11 6.74232 11C6.74065 11 6.73899 11 6.73733 11C6.73568 11 6.73403 11 6.7324 11C6.73076 11 6.72913 11 6.72752 11C6.7259 11 6.72429 11 6.72269 11C6.72109 11 6.7195 11 6.71792 11C6.71634 11 6.71477 11 6.7132 11C6.71164 11 6.71009 11 6.70854 11C6.70699 11 6.70546 11 6.70393 11C6.7024 11 6.70088 11 6.69937 11C6.69786 11 6.69636 11 6.69487 11C6.69338 11 6.6919 11 6.69042 11C6.68895 11 6.68748 11 6.68602 11C6.68457 11 6.68312 11 6.68168 11C6.68024 11 6.67881 11 6.67738 11C6.67596 11 6.67455 11 6.67314 11C6.67174 11 6.67034 11 6.66895 11C6.66757 11 6.66619 11 6.66482 11C6.66344 11 6.66208 11 6.66073 11C6.65937 11 6.65803 11 6.65669 11C6.65535 11 6.65403 11 6.65271 11C6.65139 11 6.65007 11 6.64877 11C6.64747 11 6.64617 11 6.64488 11C6.6436 11 6.64232 11 6.64105 11C6.63978 11 6.63852 11 6.63726 11C6.63601 11 6.63476 11 6.63352 11C6.63229 11 6.63106 11 6.62984 11C6.62862 11 6.6274 11 6.6262 11C6.62499 11 6.6238 11 6.62261 11C6.62142 11 6.62024 11 6.61906 11C6.61789 11 6.61673 11 6.61557 11C6.61441 11 6.61326 11 6.61212 11C6.61098 11 6.60985 11 6.60872 11C6.6076 11 6.60648 11 6.60537 11C6.60426 11 6.60316 11 6.60207 11C6.60097 11 6.59989 11 6.59881 11C6.59773 11 6.59666 11 6.5956 11C6.59453 11 6.59348 11 6.59243 11C6.59138 11 6.59034 11 6.58931 11C6.58828 11 6.58725 11 6.58624 11C6.58522 11 6.58421 11 6.58321 11C6.5822 11 6.58121 11 6.58022 11C6.57924 11 6.57826 11 6.57728 11C6.57631 11 6.57535 11 6.57439 11C6.57343 11 6.57248 11 6.57154 11C6.5706 11 6.56966 11 6.56874 11C6.56781 11 6.56689 11 6.56597 11C6.56506 11 6.56416 11 6.56326 11C6.56236 11 6.56147 11 6.56058 11C6.5597 11 6.55882 11 6.55795 11C6.55708 11 6.55622 11 6.55536 11C6.55451 11 6.55366 11 6.55282 11C6.55197 11 6.55114 11 6.55031 11C6.54949 11 6.54867 11 6.54785 11C6.54704 11 6.54623 11 6.54543 11C6.54463 11 6.54384 11 6.54305 11C6.54227 11 6.54149 11 6.54072 11C6.53995 11 6.53918 11 6.53842 11C6.53766 11 6.53691 11 6.53617 11C6.53542 11 6.53468 11 6.53395 11C6.53322 11 6.5325 11 6.53178 11C6.53106 11 6.53035 11 6.52965 11C6.52894 11 6.52824 11 6.52755 11C6.52686 11 6.52618 11 6.5255 11C6.52482 11 6.52415 11 6.52348 11C6.52282 11 6.52216 11 6.52151 11C6.52086 11 6.52021 11 6.51957 11C6.51893 11 6.5183 11 6.51767 11C6.51705 11 6.51643 11 6.51581 11C6.5152 11 6.51459 11 6.51399 11C6.51339 11 6.51279 11 6.5122 11C6.51162 11 6.51103 11 6.51046 11C6.50988 11 6.50931 11 6.50875 11C6.50818 11 6.50763 11 6.50707 11C6.50652 11 6.50598 11 6.50544 11C6.5049 11 6.50437 11 6.50384 11C6.50331 11 6.50279 11 6.50228 11C6.50176 11 6.50125 11 6.50075 11C6.50025 11 6.49975 11 6.49926 11C6.49877 11 6.49828 11 6.4978 11C6.49732 11 6.49685 11 6.49638 11C6.49591 11 6.49545 11 6.49499 11C6.49454 11 6.49409 11 6.49364 11C6.4932 11 6.49276 11 6.49233 11C6.49189 11 6.49146 11 6.49104 11C6.49062 11 6.4902 11 6.48979 11C6.48938 11 6.48898 11 6.48858 11C6.48818 11 6.48779 11 6.4874 11C6.48701 11 6.48663 11 6.48625 11C6.48587 11 6.4855 11 6.48513 11C6.48477 11 6.48441 11 6.48405 11C6.48369 11 6.48334 11 6.483 11C6.48265 11 6.48232 11 6.48198 11C6.48165 11 6.48132 11 6.48099 11C6.48067 11 6.48035 11 6.48004 11C6.47973 11 6.47942 11 6.47912 11C6.47881 11 6.47852 11 6.47822 11C6.47793 11 6.47764 11 6.47736 11C6.47708 11 6.4768 11 6.47653 11C6.47626 11 6.47599 11 6.47573 11C6.47547 11 6.47521 11 6.47496 11C6.47471 11 6.47446 11 6.47422 11C6.47398 11 6.47374 11 6.47351 11C6.47328 11 6.47305 11 6.47283 11C6.4726 11 6.47239 11 6.47217 11C6.47196 11 6.47175 11 6.47155 11C6.47135 11 6.47115 11 6.47095 11C6.47076 11 6.47057 11 6.47039 11C6.4702 11 6.47002 11 6.46985 11C6.46967 11 6.4695 11 6.46934 11C6.46917 11 6.46901 11 6.46885 11C6.4687 11 6.46855 11 6.4684 11C6.46825 11 6.46811 11 6.46797 11C6.46783 11 6.4677 11 6.46757 11C6.46744 11 6.46731 11 6.46719 11C6.46707 11 6.46695 11 6.46684 11C6.46673 11 6.46662 11 6.46652 11C6.46641 11 6.46631 11 6.46622 11C6.46612 11 6.46603 11 6.46595 11C6.46586 11 6.46578 11 6.4657 11C6.46562 11 6.46555 11 6.46548 11C6.46541 11 6.46534 11 6.46528 11C6.46522 11 6.46516 11 6.46511 11C6.46505 11 6.465 11 6.46496 11C6.46491 11 6.46487 11 6.46483 11C6.46479 11 6.46476 11 6.46473 11C6.4647 11 6.46467 11 6.46465 11C6.46463 11 6.46461 11 6.4646 11C6.46458 11 6.46457 11 6.46457 11C6.46456 11 6.46456 11.5 6.46456 12C6.46456 12 6.46456 12 6.46457 12C6.46458 12 6.46459 12 6.46461 12C6.46462 12 6.46464 12 6.46466 12C6.46469 12 6.46471 12 6.46474 12C6.46477 12 6.46481 12 6.46484 12C6.46488 12 6.46492 12 6.46497 12C6.46501 12 6.46506 12 6.46511 12C6.46516 12 6.46521 12 6.46527 12C6.46533 12 6.46539 12 6.46545 12C6.46552 12 6.46559 12 6.46566 12C6.46573 12 6.4658 12 6.46588 12C6.46596 12 6.46604 12 6.46613 12C6.46621 12 6.4663 12 6.46639 12C6.46648 12 6.46657 12 6.46667 12C6.46677 12 6.46687 12 6.46697 12C6.46707 12 6.46718 12 6.46729 12C6.4674 12 6.46751 12 6.46763 12C6.46774 12 6.46786 12 6.46798 12C6.4681 12 6.46823 12 6.46836 12C6.46848 12 6.46861 12 6.46875 12C6.46888 12 6.46902 12 6.46915 12C6.46929 12 6.46943 12 6.46958 12C6.46972 12 6.46987 12 6.47002 12C6.47017 12 6.47032 12 6.47048 12C6.47064 12 6.47079 12 6.47095 12C6.47112 12 6.47128 12 6.47145 12C6.47161 12 6.47178 12 6.47195 12C6.47212 12 6.4723 12 6.47247 12C6.47265 12 6.47283 12 6.47301 12C6.47319 12 6.47338 12 6.47356 12C6.47375 12 6.47394 12 6.47413 12C6.47432 12 6.47452 12 6.47471 12C6.47491 12 6.47511 12 6.47531 12C6.47551 12 6.47571 12 6.47592 12C6.47613 12 6.47633 12 6.47654 12C6.47675 12 6.47697 12 6.47718 12C6.4774 12 6.47761 12 6.47783 12C6.47805 12 6.47827 12 6.47849 12C6.47872 12 6.47894 12 6.47917 12C6.4794 12 6.47963 12 6.47986 12C6.48009 12 6.48032 12 6.48056 12C6.4808 12 6.48103 12 6.48127 12C6.48151 12 6.48175 12 6.482 12C6.48224 12 6.48249 12 6.48273 12C6.48298 12 6.48323 12 6.48348 12C6.48373 12 6.48398 12 6.48424 12C6.48449 12 6.48475 12 6.48501 12C6.48526 12 6.48552 12 6.48578 12C6.48605 12 6.48631 12 6.48657 12C6.48684 12 6.4871 12 6.48737 12C6.48764 12 6.48791 12 6.48818 12C6.48845 12 6.48872 12 6.489 12C6.48927 12 6.48955 12 6.48983 12C6.4901 12 6.49038 12 6.49066 12C6.49094 12 6.49122 12 6.49151 12C6.49179 12 6.49207 12 6.49236 12C6.49265 12 6.49293 12 6.49322 12C6.49351 12 6.4938 12 6.49409 12C6.49438 12 6.49467 12 6.49497 12C6.49526 12 6.49555 12 6.49585 12C6.49615 12 6.49644 12 6.49674 12C6.49704 12 6.49734 12 6.49764 12C6.49794 12 6.49824 12 6.49854 12C6.49885 12 6.49915 12 6.49945 12C6.49976 12 6.50006 12 6.50037 12C6.50068 12 6.50098 12 6.50129 12C6.5016 12 6.50191 12 6.50222 12C6.50253 12 6.50284 12 6.50315 12C6.50347 12 6.50378 12 6.50409 12C6.50441 12 6.50472 12 6.50504 12C6.50535 12 6.50567 12 6.50598 12C6.5063 12 6.50662 12 6.50694 12C6.50725 12 6.50757 12 6.50789 12C6.50821 12 6.50853 12 6.50885 12C6.50917 12 6.50949 12 6.50981 12C6.51014 12 6.51046 12 6.51078 12C6.5111 12 6.51143 12 6.51175 12C6.51207 12 6.5124 12 6.51272 12C6.51305 12 6.51337 12 6.5137 12C6.51402 12 6.51435 12 6.51467 12C6.515 12 6.51533 12 6.51565 12C6.51598 12 6.51631 12 6.51663 12C6.51696 12 6.51729 12 6.51762 12C6.51794 12 6.51827 12 6.5186 12C6.51893 12 6.51925 12 6.51958 12C6.51991 12 6.52024 12 6.52057 12C6.5209 12 6.52122 12 6.52155 12C6.52188 12 6.52221 12 6.52254 12C6.52287 12 6.5232 12 6.52352 12C6.52385 12 6.52418 12 6.52451 12C6.52484 12 6.52517 12 6.52549 12C6.52582 12 6.52615 12 6.52648 12C6.5268 12 6.52713 12 6.52746 12C6.52779 12 6.52811 12 6.52844 12C6.52877 12 6.52909 12 6.52942 12C6.52975 12 6.53007 12 6.5304 12C6.53072 12 6.53105 12 6.53137 12C6.5317 12 6.53202 12 6.53235 12C6.53267 12 6.53299 12 6.53332 12C6.53364 12 6.53396 12 6.53429 12C6.53461 12 6.53493 12 6.53525 12C6.53557 12 6.53589 12 6.53621 12C6.53653 12 6.53685 12 6.53717 12C6.53749 12 6.5378 12 6.53812 12C6.53844 12 6.53876 12 6.53907 12C6.53939 12 6.5397 12 6.54002 12C6.54033 12 6.54064 12 6.54096 12C6.54127 12 6.54158 12 6.54189 12C6.5422 12 6.54251 12 6.54282 12C6.54313 12 6.54344 12 6.54375 12C6.54405 12 6.54436 12 6.54467 12C6.54497 12 6.54528 12 6.54558 12C6.54588 12 6.54618 12 6.54649 12C6.54679 12 6.54709 12 6.54739 12C6.54769 12 6.54798 12 6.54828 12C6.54858 12 6.54887 12 6.54917 12C6.54946 12 6.54975 12 6.55005 12C6.55034 12 6.55063 12 6.55092 12C6.55121 12 6.5515 12 6.55178 12C6.55207 12 6.55235 12 6.55264 12C6.55292 12 6.55321 12 6.55349 12C6.55377 12 6.55405 12 6.55433 12C6.5546 12 6.55488 12 6.55516 12C6.55543 12 6.55571 12 6.55598 12C6.55625 12 6.55652 12 6.55679 12C6.55706 12 6.55733 12 6.55759 12C6.55786 12 6.55812 12 6.55839 12C6.55865 12 6.55891 12 6.55917 12C6.55943 12 6.55969 12 6.55994 12C6.5602 12 6.56045 12 6.5607 12C6.56096 12 6.56121 12 6.56146 12C6.5617 12 6.56195 12 6.5622 12C6.56244 12 6.56268 12 6.56292 12C6.56317 12 6.5634 12 6.56364 12C6.56388 12 6.56411 12 6.56435 12C6.56458 12 6.56481 12 6.56504 12C6.56527 12 6.5655 12 6.56572 12C6.56595 12 6.56617 12 6.56639 12C6.56661 12 6.56683 12 6.56705 12C6.56726 12 6.56748 12 6.56769 12C6.5679 12 6.56811 12 6.56832 12C6.56852 12 6.56873 12 6.56893 12C6.56914 12 6.56934 12 6.56953 12C6.56973 12 6.56993 12 6.57012 12C6.57032 12 6.57051 12 6.57069 12C6.57088 12 6.57107 12 6.57125 12C6.57144 12 6.57162 12 6.5718 12C6.57198 12 6.57215 12 6.57232 12C6.5725 12 6.57267 12 6.57284 12C6.57301 12 6.57317 12 6.57333 12C6.5735 12 6.57366 12 6.57382 12C6.57397 12 6.57413 12 6.57428 12C6.57443 12 6.57458 12 6.57473 12C6.57488 12 6.57502 12 6.57516 12C6.5753 12 6.57544 12 6.57558 12C6.57571 12 6.57585 12 6.57597 12C6.5761 12 6.57623 12 6.57636 12C6.57648 12 6.5766 12 6.57672 12C6.57684 12 6.57695 12 6.57706 12C6.57717 12 6.57728 12 6.57739 12C6.57749 12 6.5776 12 6.5777 12C6.5778 12 6.57789 12 6.57799 12C6.57808 12 6.57817 12 6.57826 12C6.57834 12 6.57843 12 6.57851 12C6.57859 12 6.57866 12 6.57874 12C6.57881 12 6.57888 12 6.57895 12C6.57902 12 6.57908 12 6.57914 12C6.5792 12 6.57926 12 6.57931 12C6.57937 12 6.57942 12 6.57946 12C6.57951 12 6.57955 12 6.57959 12C6.57963 12 6.57967 12 6.5797 12C6.57974 12 6.57976 12 6.57979 12C6.57982 12 6.57984 12 6.57986 12C6.57988 12 6.57989 12 6.5799 12C6.57991 12 6.57992 12 6.57992 12C6.57993 11.5 6.57993 11 6.57992 11C6.57992 11 6.57991 11 6.5799 11C6.57989 11 6.57987 11 6.57985 11C6.57984 11 6.57981 11 6.57979 11C6.57976 11 6.57973 11 6.57969 11C6.57966 11 6.57962 11 6.57958 11C6.57954 11 6.57949 11 6.57944 11C6.57939 11 6.57933 11 6.57928 11C6.57922 11 6.57916 11 6.57909 11C6.57902 11 6.57895 11 6.57888 11C6.5788 11 6.57872 11 6.57864 11C6.57856 11 6.57847 11 6.57838 11C6.57828 11 6.57819 11 6.57809 11C6.57799 11 6.57788 11 6.57777 11C6.57767 11 6.57755 11 6.57744 11C6.57732 11 6.5772 11 6.57707 11C6.57694 11 6.57681 11 6.57668 11C6.57654 11 6.5764 11 6.57626 11C6.57611 11 6.57597 11 6.57581 11C6.57566 11 6.5755 11 6.57534 11C6.57518 11 6.57501 11 6.57484 11C6.57467 11 6.57449 11 6.57431 11C6.57413 11 6.57395 11 6.57376 11C6.57357 11 6.57337 11 6.57317 11C6.57297 11 6.57277 11 6.57256 11C6.57235 11 6.57214 11 6.57192 11C6.5717 11 6.57148 11 6.57125 11C6.57102 11 6.57079 11 6.57055 11C6.57031 11 6.57007 11 6.56982 11C6.56957 11 6.56932 11 6.56906 11C6.5688 11 6.56854 11 6.56827 11C6.56801 11 6.56773 11 6.56745 11C6.56718 11 6.56689 11 6.56661 11C6.56632 11 6.56602 11 6.56572 11C6.56543 11 6.56512 11 6.56481 11C6.5645 11 6.56419 11 6.56387 11C6.56355 11 6.56323 11 6.5629 11C6.56257 11 6.56223 11 6.56189 11C6.56155 11 6.56121 11 6.56085 11C6.5605 11 6.56015 11 6.55978 11C6.55942 11 6.55905 11 6.55868 11C6.55831 11 6.55793 11 6.55755 11C6.55716 11 6.55677 11 6.55638 11C6.55598 11 6.55558 11 6.55518 11C6.55477 11 6.55436 11 6.55394 11C6.55352 11 6.5531 11 6.55267 11C6.55224 11 6.55181 11 6.55137 11C6.55093 11 6.55048 11 6.55003 11C6.54958 11 6.54912 11 6.54866 11C6.54819 11 6.54773 11 6.54725 11C6.54678 11 6.5463 11 6.54581 11C6.54532 11 6.54483 11 6.54433 11C6.54383 11 6.54333 11 6.54282 11C6.54231 11 6.54179 11 6.54127 11C6.54075 11 6.54022 11 6.53968 11C6.53915 11 6.53861 11 6.53806 11C6.53752 11 6.53696 11 6.5364 11C6.53585 11 6.53528 11 6.53471 11C6.53414 11 6.53356 11 6.53298 11C6.53239 11 6.5318 11 6.53121 11C6.53061 11 6.53001 11 6.5294 11C6.52879 11 6.52818 11 6.52755 11C6.52693 11 6.52631 11 6.52567 11C6.52504 11 6.5244 11 6.52375 11C6.5231 11 6.52245 11 6.52179 11C6.52113 11 6.52046 11 6.51979 11C6.51912 11 6.51844 11 6.51775 11C6.51706 11 6.51637 11 6.51567 11C6.51497 11 6.51427 11 6.51356 11C6.51284 11 6.51212 11 6.5114 11C6.51067 11 6.50994 11 6.5092 11C6.50846 11 6.50771 11 6.50696 11C6.50621 11 6.50545 11 6.50468 11C6.50392 11 6.50314 11 6.50236 11C6.50158 11 6.50079 11 6.5 11V12ZM2 14H10V13H2V14ZM10 15H2V16H10V15ZM2 15C1.72386 15 1.5 14.7761 1.5 14.5H0.5C0.5 15.3284 1.17157 16 2 16V15ZM10.5 14.5C10.5 14.7761 10.2761 15 10 15V16C10.8284 16 11.5 15.3284 11.5 14.5H10.5ZM10 14C10.2761 14 10.5 14.2239 10.5 14.5H11.5C11.5 13.6716 10.8284 13 10 13V14ZM2 13C1.17157 13 0.5 13.6716 0.5 14.5H1.5C1.5 14.2239 1.72386 14 2 14V13ZM10 14H14.5294V13H10V14ZM14.5294 15H10V16H14.5294V15ZM15 14.5C15 14.7903 14.7753 15 14.5294 15V16C15.3556 16 16 15.3143 16 14.5H15ZM14.5294 14C14.7753 14 15 14.2097 15 14.5H16C16 13.6857 15.3556 13 14.5294 13V14ZM3 12H9V11H3V12ZM9 13H3V14H9V13ZM3 13C2.72386 13 2.5 12.7761 2.5 12.5H1.5C1.5 13.3284 2.17157 14 3 14V13ZM9.5 12.5C9.5 12.7761 9.27614 13 9 13V14C9.82843 14 10.5 13.3284 10.5 12.5H9.5ZM9 12C9.27614 12 9.5 12.2239 9.5 12.5H10.5C10.5 11.6716 9.82843 11 9 11V12ZM3 11C2.17157 11 1.5 11.6716 1.5 12.5H2.5C2.5 12.2239 2.72386 12 3 12V11ZM12.9139 4.08579C13.695 4.86684 13.695 6.13316 12.9139 6.91421L13.621 7.62132C14.7926 6.44975 14.7926 4.55025 13.621 3.37868L12.9139 4.08579ZM10.0855 4.08579C10.8665 3.30474 12.1329 3.30474 12.9139 4.08579L13.621 3.37868C12.4494 2.20711 10.55 2.20711 9.37838 3.37868L10.0855 4.08579ZM12.9139 6.91421C12.1831 7.64505 11.0267 7.69214 10.2416 7.055L9.61146 7.83147C10.7901 8.78802 12.5242 8.71813 13.621 7.62132L12.9139 6.91421ZM12.0001 8C12.0001 10.6271 13.0506 12.7192 13.5526 13.7232L14.447 13.276C13.949 12.2798 13.0001 10.3723 13.0001 8H12.0001Z" />
</svg>
