<svg width="16" height="17" viewBox="0 0 16 17" fill="none" xmlns="http://www.w3.org/2000/svg">
    <path class="svg-stroke" d="M5.5 3.49867H15.5M5.5 9.49867H15.5M5.5 15.4987H15.5M0.533398 13.24C0.667501 12.7392 1.16209 12.424 1.67268 12.5138C2.18327 12.6037 2.54052 13.0688 2.4956 13.5853C2.45069 14.1018 2.0185 14.4983 1.50007 14.4987C2.01759 14.4984 2.44979 14.8931 2.49645 15.4085C2.54311 15.9239 2.18881 16.3898 1.67966 16.4825C1.1705 16.5752 0.674738 16.2641 0.536732 15.7653M0.5 8.49867C0.5 7.94639 0.947715 7.49867 1.5 7.49867C2.05228 7.49867 2.5 7.94639 2.5 8.49867C2.5001 8.82237 2.39007 9.13647 2.188 9.38934L0.5 10.4987H2.5M0.5 1.49867H1C1.27614 1.49867 1.5 1.72253 1.5 1.99867V5.49867M0.5 5.49867H2.5" stroke-linecap="round" stroke-linejoin="round"/>
</svg>
