<svg width="16" height="16" viewBox="0 0 16 16" fill="none" xmlns="http://www.w3.org/2000/svg">
    <path class="svg-stroke" d="M4.42667 1.40667C8.3277 4.36383 10.6176 8.97814 10.6133 13.8733C10.6133 14.2733 10.5978 14.6667 10.5667 15.0533M13.6 3.01333C10.6866 5.79662 6.8092 7.34469 2.78 7.33334C2.0305 7.33282 1.28197 7.27935 0.54 7.17334M2.16667 12.7133C5.07937 9.9066 8.9684 8.34096 13.0133 8.34667C13.8387 8.35108 14.6628 8.41122 15.48 8.52667M15.5 8C15.5 12.1421 12.1421 15.5 8 15.5C3.85787 15.5 0.5 12.1421 0.5 8C0.5 3.85787 3.85787 0.5 8 0.5C12.1421 0.5 15.5 3.85787 15.5 8Z" stroke-linecap="round" stroke-linejoin="round"/>
</svg>
