<svg class="mb-icon-file-doc" width="16" height="16" viewBox="0 0 16 16" fill="none" xmlns="http://www.w3.org/2000/svg">
    <path class="svg-fill" d="M1.5 16C1.10218 16 0.720636 15.8419 0.439331 15.5605C0.158026 15.2792 0 14.8978 0 14.5V1.5C0 1.10218 0.158026 0.720758 0.439331 0.439453C0.720636 0.158149 1.10218 0 1.5 0H11V3C11 3.53043 11.2107 4.03923 11.5858 4.41431C11.9609 4.78938 12.4696 5 13 5H16V14.5C16 14.8978 15.842 15.2792 15.5607 15.5605C15.2794 15.8419 14.8978 16 14.5 16H1.5ZM13 4C12.7348 4 12.4804 3.89457 12.2928 3.70703C12.1053 3.51949 12 3.26522 12 3V0L16 4H13Z"/>
    <path class="svg-stroke" d="M12.5 7.5C11.9696 7.5 11.4609 7.71071 11.0858 8.08579C10.7107 8.46086 10.5 8.96957 10.5 9.5V10.5C10.5 11.0304 10.7107 11.5391 11.0858 11.9142C11.4609 12.2893 11.9696 12.5 12.5 12.5M8.50195 11.5C8.50195 11.7652 8.3966 12.0196 8.20906 12.2071C8.02152 12.3946 7.76717 12.5 7.50195 12.5C7.23674 12.5 6.98238 12.3946 6.79485 12.2071C6.60731 12.0196 6.50195 11.7652 6.50195 11.5V8.5C6.50195 8.23478 6.60731 7.98043 6.79485 7.79289C6.98238 7.60536 7.23674 7.5 7.50195 7.5C7.76717 7.5 8.02152 7.60536 8.20906 7.79289C8.3966 7.98043 8.50195 8.23478 8.50195 8.5V11.5ZM2.50098 12.504C3.03141 12.504 3.54012 12.2933 3.91519 11.9182C4.29026 11.5432 4.50098 11.0345 4.50098 10.504V9.50403C4.50098 8.9736 4.29026 8.46489 3.91519 8.08982C3.54012 7.71474 3.03141 7.50403 2.50098 7.50403V12.504Z" stroke-linecap="round" stroke-linejoin="round"/>
</svg>
