<svg width="16" height="17" viewBox="0 0 16 17" fill="none" xmlns="http://www.w3.org/2000/svg">
    <path class="svg-stroke" d="M7.40005 11.4193L10.8734 16.056C11.1373 16.4076 11.5841 16.5702 12.0123 16.4704C12.4405 16.3706 12.7693 16.0274 12.8507 15.5953L15.2507 2.81333C15.3329 2.38042 15.151 1.93991 14.7872 1.69123C14.4234 1.44255 13.9469 1.4329 13.5734 1.66666L1.25139 9.36933C0.831764 9.63164 0.636631 10.1402 0.773071 10.6159C0.909511 11.0915 1.34452 11.4193 1.83939 11.4193H7.40005ZM7.40005 11.4193L5.73346 11.4193V14.8667C5.73344 15.2777 5.96076 15.6549 6.32413 15.8469C6.68749 16.039 7.12726 16.0142 7.4668 15.7827L9.58546 14.3387L7.40005 11.4193ZM7.40005 11.4193L14.7861 1.69266" stroke-linecap="round" stroke-linejoin="round"/>
</svg>
