<svg width="32" height="32" viewBox="0 0 32 32" fill="none" xmlns="http://www.w3.org/2000/svg">
<path d="M6.1002 21.75C5.8502 21.75 5.6002 21.65 5.4002 21.45L0.500195 16.55C0.300195 16.35 0.200195 16.1 0.200195 15.8C0.200195 15.5 0.300195 15.25 0.500195 15.1L5.4002 10.55C5.8002 10.15 6.4502 10.2 6.8002 10.6C7.2002 11 7.1502 11.65 6.7502 12L2.6002 15.85L6.8002 20.05C7.2002 20.45 7.2002 21.05 6.8002 21.45C6.6002 21.65 6.3502 21.75 6.1002 21.75Z" fill="#41A500"/>
<path d="M25.9002 21.75C25.6502 21.75 25.4002 21.65 25.2002 21.45C24.8002 21.05 24.8002 20.45 25.2002 20.05L29.4002 15.85L25.2002 12C24.8002 11.6 24.7502 11 25.1502 10.6C25.5502 10.2 26.1502 10.15 26.5502 10.55L31.4502 15.1C31.6502 15.3 31.7502 15.55 31.7502 15.8C31.7502 16.05 31.6502 16.35 31.4502 16.55L26.5502 21.45C26.4002 21.65 26.1502 21.75 25.9002 21.75Z" fill="#41A500"/>
<path d="M30.8002 16.8H1.2002C0.650195 16.8 0.200195 16.35 0.200195 15.8C0.200195 15.25 0.650195 14.8 1.2002 14.8H30.8002C31.3502 14.8 31.8002 15.25 31.8002 15.8C31.8002 16.35 31.3502 16.8 30.8002 16.8Z" fill="#41A500"/>
</svg>
