<?xml version="1.0" encoding="UTF-8"?>
<svg preserveAspectRatio="xMinYMin meet" viewBox="0 0 16 16" version="1.1" xmlns="http://www.w3.org/2000/svg" xmlns:xlink="http://www.w3.org/1999/xlink">
    <title>icon-mentoring</title>
    <g id="icon-mentoring" stroke="none" stroke-width="1" fill="none" fill-rule="evenodd" stroke-linecap="round" stroke-linejoin="round">
        <path d="M5.91421199,8.08578801 C6.69526267,8.8668387 6.69526267,10.1331613 5.91421199,10.914212 C5.1331613,11.6952627 3.8668387,11.6952627 3.08578801,10.914212 C2.30473733,10.1331613 2.30473733,8.8668387 3.08578801,8.08578801 C3.8668387,7.30473733 5.1331613,7.30473733 5.91421199,8.08578801" id="path" stroke="#000000"></path>
        <path d="M12.914212,8.08578801 C13.6952627,8.8668387 13.6952627,10.1331613 12.914212,10.914212 C12.1331613,11.6952627 10.8668387,11.6952627 10.085788,10.914212 C9.30473733,10.1331613 9.30473733,8.8668387 10.085788,8.08578801 C10.8668387,7.30473733 12.1331613,7.30473733 12.914212,8.08578801" id="path" stroke="#000000"></path>
        <path d="M7.5,5.5 L7.5,0.5" id="path" stroke="#000000" transform="translate(7.500000, 3.500000) rotate(90.000000) translate(-7.500000, -3.500000) "></path>
        <path d="M8,15.5 C8,13.5670034 6.43299662,12 4.5,12 C2.56700338,12 1,13.5670034 1,15.5" id="path" stroke="#000000"></path>
        <path d="M15,15.5 C15,13.5670034 13.4329966,12 11.5,12 C9.56700338,12 8,13.5670034 8,15.5" id="path" stroke="#000000"></path>
        <polyline id="path" stroke="#000000" points="9 1.5 11 3.5 9 5.5"></polyline>
    </g>
</svg>