<svg preserveAspectRatio="xMinYMin meet" viewBox="0 0 16 16" fill="none" xmlns="http://www.w3.org/2000/svg">
<path fill-rule="evenodd" clip-rule="evenodd" d="M15 1.04466L13.5614 1.20466C12.433 1.33008 11.3808 1.83581 10.578 2.63866L4.04004 9.17666L6.86671 12.0047L13.406 5.46666C14.2092 4.66406 14.7149 3.61183 14.84 2.48333L15 1.04466Z" stroke="#808C9D" stroke-linecap="round" stroke-linejoin="round"/>
<path fill-rule="evenodd" clip-rule="evenodd" d="M4.03983 9.17666L1.62517 8.37133C1.46075 8.31672 1.33638 8.1808 1.29657 8.01218C1.25676 7.84357 1.3072 7.66637 1.42983 7.54399L1.5845 7.38933C2.65575 6.31787 4.24043 5.94364 5.67783 6.42266L6.5145 6.70133L4.03983 9.17666Z" stroke="#808C9D" stroke-linecap="round" stroke-linejoin="round"/>
<path fill-rule="evenodd" clip-rule="evenodd" d="M4.03983 9.17666L1.62517 8.37133C1.46075 8.31672 1.33638 8.1808 1.29657 8.01218C1.25676 7.84357 1.3072 7.66637 1.42983 7.54399L1.5845 7.38933C2.65575 6.31787 4.24043 5.94364 5.67783 6.42266L6.5145 6.70133L4.03983 9.17666Z" stroke="#808C9D" stroke-linecap="round" stroke-linejoin="round"/>
<path fill-rule="evenodd" clip-rule="evenodd" d="M6.8667 12.0047L7.67203 14.4193C7.72664 14.5838 7.86257 14.7081 8.03118 14.7479C8.19979 14.7877 8.37699 14.7373 8.49937 14.6147L8.6547 14.46C9.72592 13.3886 10.0999 11.804 9.6207 10.3667L9.34337 9.53334L6.8667 12.0047Z" stroke="#808C9D" stroke-linecap="round" stroke-linejoin="round"/>
<path fill-rule="evenodd" clip-rule="evenodd" d="M6.8667 12.0047L7.67203 14.4193C7.72664 14.5838 7.86257 14.7081 8.03118 14.7479C8.19979 14.7877 8.37699 14.7373 8.49937 14.6147L8.6547 14.46C9.72592 13.3886 10.0999 11.804 9.6207 10.3667L9.34337 9.53334L6.8667 12.0047Z" stroke="#808C9D" stroke-linecap="round" stroke-linejoin="round"/>
<path d="M5.18605 12.3586C5.18656 12.7566 5.02845 13.1383 4.74671 13.4193C4.16138 14.0046 1.21338 14.8333 1.21338 14.8333C1.21338 14.8333 2.04205 11.8833 2.62738 11.3C2.88451 11.0422 3.22674 10.887 3.59005 10.8633" stroke="#808C9D" stroke-linecap="round" stroke-linejoin="round"/>
</svg>
