<svg width="16" height="16" viewBox="0 0 16 16" fill="none" xmlns="http://www.w3.org/2000/svg">
<path d="M0.5 13H2.5M11.5 8H15.5M11.5 8C11.5 7.70333 11.412 7.41332 11.2472 7.16665C11.0824 6.91997 10.8481 6.72771 10.574 6.61418C10.2999 6.50065 9.99834 6.47095 9.70737 6.52882C9.41639 6.5867 9.14912 6.72956 8.93934 6.93934C8.72956 7.14912 8.5867 7.41639 8.52882 7.70737C8.47095 7.99834 8.50065 8.29994 8.61418 8.57403C8.72771 8.84811 8.91997 9.08238 9.16665 9.2472C9.41332 9.41203 9.70333 9.5 10 9.5C10.3978 9.5 10.7794 9.34197 11.0607 9.06066C11.342 8.77936 11.5 8.39782 11.5 8ZM5.5 13H15.5M5.5 13C5.5 12.7033 5.41203 12.4133 5.24721 12.1666C5.08238 11.92 4.84812 11.7277 4.57403 11.6142C4.29994 11.5007 3.99834 11.4709 3.70737 11.5288C3.41639 11.5867 3.14912 11.7296 2.93934 11.9393C2.72956 12.1491 2.5867 12.4164 2.52882 12.7074C2.47094 12.9983 2.50065 13.2999 2.61418 13.574C2.72771 13.8481 2.91997 14.0824 3.16665 14.2472C3.41332 14.412 3.70333 14.5 4 14.5C4.39783 14.5 4.77936 14.342 5.06066 14.0607C5.34197 13.7794 5.5 13.3978 5.5 13ZM0.5 8H8.5M0.5 3H5.5M8.5 3H15.5M8.5 3C8.5 2.70333 8.41203 2.41332 8.24721 2.16665C8.08238 1.91997 7.84812 1.72771 7.57403 1.61418C7.29994 1.50065 6.99834 1.47094 6.70737 1.52882C6.41639 1.5867 6.14912 1.72956 5.93934 1.93934C5.72956 2.14912 5.5867 2.41639 5.52882 2.70737C5.47095 2.99834 5.50065 3.29994 5.61418 3.57403C5.72771 3.84812 5.91997 4.08238 6.16665 4.24721C6.41332 4.41203 6.70333 4.5 7 4.5C7.39783 4.5 7.77936 4.34197 8.06066 4.06066C8.34197 3.77936 8.5 3.39782 8.5 3Z" stroke="#808C9D" stroke-linecap="round" stroke-linejoin="round"/>
</svg>
