<svg xmlns="http://www.w3.org/2000/svg" preserveAspectRatio="xMinYMin meet" viewBox="0 0 16 16">
    <path fill="#99A3B1" fill-rule="evenodd" d="M7.993 15.527c.385 0 .77-.03 1.15-.087a.364.364 0 0 1 .226.036 4.52 4.52 0 0 0 6.63-4.025 4.557 4.557 0 0 0-.552-2.184.364.364 0 0 1-.044-.226A7.526 7.526 0 0 0 7.993.467c-.375.001-.75.03-1.12.087a.364.364 0 0 1-.226-.036A4.542 4.542 0 0 0 .54 6.69c.036.07.049.149.036.226a7.519 7.519 0 0 0 7.417 8.61zm.073-12.629c2.3.139 3.64 1.15 3.778 2.104A.968.968 0 0 1 10.788 6.1c-1.04 0-1.15-1.39-2.911-1.39-.808 0-1.456.334-1.456 1.07 0 1.528 5.743.64 5.743 4.01 0 1.944-1.55 3.217-3.858 3.217-2.03 0-4.076-.924-4.061-2.518a.895.895 0 0 1 .764-.917c1.194 0 1.186 1.783 3.093 1.783 1.34 0 1.791-.728 1.791-1.245 0-1.841-5.772-.727-5.772-4.178 0-1.87 1.536-3.166 3.945-3.035z"/>
</svg>
