<svg preserveAspectRatio="xMinYMin meet" viewBox="0 0 16 16" fill="none" xmlns="http://www.w3.org/2000/svg">
<path fill-rule="evenodd" clip-rule="evenodd" d="M8 13C8.9665 13 9.75 12.2165 9.75 11.25C9.75 10.2835 8.9665 9.5 8 9.5C7.0335 9.5 6.25 10.2835 6.25 11.25C6.25 12.2165 7.0335 13 8 13Z" stroke="#808C9D" stroke-linecap="round" stroke-linejoin="round"/>
<path d="M10.8161 15.5C10.398 14.3025 9.26842 13.5004 8.00008 13.5004C6.73174 13.5004 5.60212 14.3025 5.18408 15.5" stroke="#808C9D" stroke-linecap="round" stroke-linejoin="round"/>
<path fill-rule="evenodd" clip-rule="evenodd" d="M3.31592 4C4.28242 4 5.06592 3.2165 5.06592 2.25C5.06592 1.2835 4.28242 0.5 3.31592 0.5C2.34942 0.5 1.56592 1.2835 1.56592 2.25C1.56592 3.2165 2.34942 4 3.31592 4Z" stroke="#808C9D" stroke-linecap="round" stroke-linejoin="round"/>
<path fill-rule="evenodd" clip-rule="evenodd" d="M6.13315 6.49999C5.7154 5.30203 4.58553 4.49945 3.31682 4.49945C2.04811 4.49945 0.918246 5.30203 0.500488 6.49999H6.13315Z" stroke="#808C9D" stroke-linecap="round" stroke-linejoin="round"/>
<path fill-rule="evenodd" clip-rule="evenodd" d="M12.6841 4C13.6506 4 14.4341 3.2165 14.4341 2.25C14.4341 1.2835 13.6506 0.5 12.6841 0.5C11.7176 0.5 10.9341 1.2835 10.9341 2.25C10.9341 3.2165 11.7176 4 12.6841 4Z" stroke="#808C9D" stroke-linecap="round" stroke-linejoin="round"/>
<path fill-rule="evenodd" clip-rule="evenodd" d="M15.4999 6.49999C15.0821 5.30203 13.9522 4.49945 12.6835 4.49945C11.4148 4.49945 10.2849 5.30203 9.86719 6.49999H15.4999Z" stroke="#808C9D" stroke-linecap="round" stroke-linejoin="round"/>
<path d="M2.5 8.5V11C2.5 11.8284 3.17157 12.5 4 12.5H4.5" stroke="#808C9D" stroke-linecap="round" stroke-linejoin="round"/>
<path d="M13.5 8.5V11C13.5 11.8284 12.8284 12.5 12 12.5H11.5" stroke="#808C9D" stroke-linecap="round" stroke-linejoin="round"/>
</svg>
