<?xml version="1.0" encoding="UTF-8"?>
<svg preserveAspectRatio="xMinYMin meet" viewBox="0 0 16 16" version="1.1" xmlns="http://www.w3.org/2000/svg" xmlns:xlink="http://www.w3.org/1999/xlink">
    <title>icon-accelerator</title>
    <g id="icon-accelerator" stroke="none" stroke-width="1" fill="none" fill-rule="evenodd" stroke-linecap="round" stroke-linejoin="round">
        <path d="M5.91421629,5.58578946 C6.69526335,6.36683652 6.69526335,7.63317048 5.91421629,8.41421754 C5.13316923,9.1952646 3.86683527,9.1952646 3.08578821,8.41421754 C2.30474115,7.63317048 2.30474115,6.36683652 3.08578821,5.58578946 C3.86683527,4.8047424 5.13316923,4.8047424 5.91421629,5.58578946" id="path" stroke="#000000"></path>
        <path d="M3.333335,12.5000063 L5.6666695,12.5000063 L5.66666949,12.5000063 C5.85076424,12.5000062 6.00000299,12.649245 6.00000299,12.8333398 L6.00000299,15.5000078 L3.00000149,15.5000078 L3.00000149,12.8333398 L3.00000149,12.8333397 C3.00000151,12.649245 3.14924023,12.5000062 3.33333499,12.5000062 L3.333335,12.5000063 Z" id="path" stroke="#000000"></path>
        <path d="M8.50000425,4.50000225 L13.2200066,4.50000225" id="path" stroke="#000000"></path>
        <path d="M15.0000075,11.5000058 L12.000006,11.5000058 L12.000006,3.1293349 L13.1573399,0.707333687 L13.1573399,0.707333702 C13.2562753,0.518084274 13.4898961,0.444870237 13.6791455,0.54380562 C13.7490609,0.580355905 13.8061236,0.637418333 13.8426736,0.707333702 L15.0000075,3.12933491 L15.0000075,11.5000058 Z" id="path" stroke="#000000"></path>
        <path d="M13.5000068,11.5000058 L13.5000068,15.5000078" id="path" stroke="#000000"></path>
        <path d="M12.1820061,11.5000057 L11.7820059,12.2706728 L11.782006,12.2706726 C11.5975512,12.6250128 11.5010585,13.018533 11.5006725,13.4180065 L11.5006725,14.6786738 L11.5006725,14.6786735 C11.5065229,14.8626756 11.6604286,15.0070957 11.8444307,15.0012457 C11.8927406,14.9997096 11.9401387,14.9876857 11.9833387,14.9660076 L13.5006728,14.2326739 L15.0180069,14.9660076 L15.0180069,14.9660076 C15.1825477,15.048575 15.3828678,14.9821229 15.4654358,14.8175822 C15.487114,14.7743818 15.499138,14.7269841 15.500674,14.6786741 L15.500674,13.4180068 L15.500674,13.4179795 C15.5002839,13.0185046 15.4037866,12.6249858 15.2193279,12.2706456 L14.8193277,11.4999785" id="path" stroke="#000000"></path>
        <path d="M1.16666725,2.50000125 L7.83333725,2.50000125 L7.83333722,2.50000125 C8.2015274,2.50000123 8.50000422,2.79847807 8.50000422,3.16666825 L8.50000422,15.5000078 L0.500000221,15.5000078 L0.500000221,3.16666825 L0.500000221,3.16666835 C0.500000165,2.79847817 0.798477037,2.50000135 1.16666722,2.50000135 L1.16666725,2.50000125 Z" id="path" stroke="#000000"></path>
        <path d="M8.50000425,8.50000425 L10.000005,8.50000425" id="path" stroke="#000000"></path>
        <path d="M8.50000425,12.5000062 L9.50000475,12.5000062" id="path" stroke="#000000"></path>
        <path d="M2.50000125,9.0000045 L3.08666821,8.41333754" id="path" stroke="#000000"></path>
        <path d="M5.91333629,5.58666946 L6.50000325,5.0000025" id="path" stroke="#000000"></path>
    </g>
</svg>