<svg preserveAspectRatio="xMinYMin meet" viewBox="0 0 16 16" fill="none" xmlns="http://www.w3.org/2000/svg">
<path d="M9.15282 0.717961C9.04701 0.502535 8.88295 0.321076 8.67924 0.194172C8.47553 0.0672682 8.24032 0 8.00032 0C7.76031 0 7.52511 0.0672682 7.3214 0.194172C7.11769 0.321076 6.95362 0.502535 6.84782 0.717961L0.110818 14.441C0.0298038 14.6059 -0.00786419 14.7888 0.00136583 14.9723C0.0105958 15.1558 0.0664197 15.334 0.163573 15.49C0.260727 15.646 0.39601 15.7746 0.556664 15.8639C0.717318 15.9531 0.89805 15.9999 1.08182 16H14.9168C15.1006 15.9999 15.2813 15.9531 15.442 15.8639C15.6026 15.7746 15.7379 15.646 15.8351 15.49C15.9322 15.334 15.988 15.1558 15.9973 14.9723C16.0065 14.7888 15.9688 14.6059 15.8878 14.441L9.15282 0.717961Z" fill="#808C9D"/>
<path d="M8.00488 12.5729C7.95544 12.5729 7.9071 12.5876 7.86599 12.6151C7.82488 12.6425 7.79283 12.6816 7.77391 12.7273C7.75499 12.7729 7.75004 12.8232 7.75969 12.8717C7.76933 12.9202 7.79314 12.9648 7.82811 12.9997C7.86307 13.0347 7.90761 13.0585 7.95611 13.0681C8.00461 13.0778 8.05487 13.0728 8.10055 13.0539C8.14624 13.035 8.18528 13.0029 8.21275 12.9618C8.24022 12.9207 8.25488 12.8724 8.25488 12.8229C8.25488 12.7566 8.22854 12.693 8.18166 12.6462C8.13478 12.5993 8.07119 12.5729 8.00488 12.5729Z" fill="white" stroke="white" stroke-linecap="round" stroke-linejoin="round"/>
<path d="M8.00488 10.5729V5.57294" stroke="white" stroke-linecap="round"/>
</svg>
