<svg width="16" height="16" viewBox="0 0 16 16" fill="none" xmlns="http://www.w3.org/2000/svg">
<path d="M13.657 2.34329C14.7758 3.46213 15.5377 4.88759 15.8463 6.43943C16.155 7.99127 15.9965 9.59978 15.391 11.0616C14.7855 12.5233 13.7601 13.7728 12.4445 14.6518C11.1289 15.5308 9.58224 16 8 16C6.41777 16 4.87107 15.5308 3.55548 14.6518C2.2399 13.7728 1.21452 12.5233 0.609007 11.0616C0.00349361 9.59978 -0.154957 7.99127 0.153691 6.43943C0.46234 4.88759 1.22422 3.46213 2.343 2.34329C3.08588 1.60038 3.96781 1.01107 4.93844 0.609003C5.90907 0.20694 6.94939 0 8 0C9.05061 0 10.0909 0.20694 11.0616 0.609003C12.0322 1.01107 12.9141 1.60038 13.657 2.34329Z" fill="#808C9D"/>
<path d="M9.5 11.0003H9C8.73478 11.0003 8.48043 10.8949 8.29289 10.7074C8.10536 10.5199 8 10.2655 8 10.0003V7.50031C8 7.3677 7.94732 7.24052 7.85355 7.14675C7.75979 7.05298 7.63261 7.00031 7.5 7.00031H7" stroke="white" stroke-linecap="round" stroke-linejoin="round"/>
<path d="M7.75 4.50031C7.70055 4.50031 7.65222 4.51497 7.61111 4.54244C7.57 4.56991 7.53795 4.60895 7.51903 4.65463C7.50011 4.70032 7.49516 4.75058 7.5048 4.79908C7.51445 4.84757 7.53826 4.89212 7.57322 4.92708C7.60819 4.96205 7.65273 4.98586 7.70123 4.9955C7.74972 5.00515 7.79999 5.0002 7.84567 4.98128C7.89135 4.96235 7.9304 4.93031 7.95787 4.8892C7.98534 4.84809 8 4.79975 8 4.75031C8 4.684 7.97366 4.62041 7.92678 4.57353C7.87989 4.52664 7.8163 4.50031 7.75 4.50031Z" fill="white" stroke="white" stroke-linecap="round" stroke-linejoin="round"/>
</svg>
