<?xml version="1.0" encoding="UTF-8"?>
<svg preserveAspectRatio="xMinYMin meet" viewBox="0 0 16 16" version="1.1" xmlns="http://www.w3.org/2000/svg" xmlns:xlink="http://www.w3.org/1999/xlink">
    <title>icon-applications</title>
    <g id="icon-applications" stroke="none" stroke-width="1" fill="none" fill-rule="evenodd" stroke-linecap="round" stroke-linejoin="round">
        <path d="M15.2780076,4.1333354 L8.47200424,0.614666974 L8.47200426,0.614666987 C8.17591345,0.461759577 7.82409527,0.461759577 7.52800379,0.614666921 L0.722000385,4.13333535 L0.72200034,4.13333537 C0.52060024,4.23763609 0.441885534,4.48545488 0.546186252,4.68685498 C0.585215605,4.76221902 0.646636303,4.82363972 0.72200034,4.86266907 L7.52800374,8.3833375 L7.52800375,8.3833375 C7.82409456,8.53624491 8.17591274,8.53624491 8.47200422,8.38333753 L15.2780076,4.86666911 L15.2780076,4.8666691 C15.4794077,4.76236838 15.5581224,4.51454959 15.4538217,4.31314949 C15.4147924,4.23778545 15.3533717,4.17636476 15.2780076,4.1373354 L15.2780076,4.1333354 Z" id="path" stroke="#000000"></path>
        <path d="M3.4000017,6.25000313 L0.722000361,7.63533715 L0.722000316,7.63533717 C0.520600215,7.73963789 0.441885509,7.98745668 0.546186228,8.18885678 C0.585215581,8.26422082 0.646636278,8.32564152 0.722000316,8.36467087 L7.52800372,11.8853393 L7.52800372,11.8853393 C7.82409454,12.0382467 8.17591271,12.0382467 8.4720042,11.8853393 L15.2780076,8.36467091 L15.2780076,8.3646709 C15.4794077,8.26037018 15.5581224,8.01255139 15.4538217,7.81115129 C15.4147923,7.73578726 15.3533716,7.67436656 15.2780076,7.63533721 L12.6000063,6.25000318" id="path" stroke="#000000"></path>
        <path d="M3.4000017,9.75000488 L0.722000361,11.1333389 L0.722000316,11.1333389 C0.520600215,11.2376396 0.441885509,11.4854584 0.546186228,11.6868585 C0.585215581,11.7622226 0.646636278,11.8236433 0.722000316,11.8626726 L7.52800372,15.383341 L7.52800372,15.3833411 C7.82409454,15.5362485 8.17591271,15.5362485 8.4720042,15.3833411 L15.2780076,11.8666727 L15.2780076,11.8666727 C15.4794077,11.7623719 15.5581224,11.5145531 15.4538217,11.313153 C15.4147923,11.237789 15.3533716,11.1763683 15.2780076,11.137339 L12.6000063,9.75000493" id="path" stroke="#000000"></path>
    </g>
</svg>