<?xml version="1.0" encoding="utf-8"?>
<svg version="1.1" xmlns:xlink="http://www.w3.org/1999/xlink" width="16px" height="16px" xmlns="http://www.w3.org/2000/svg">
  <g transform="matrix(1 0 0 1 -688 -292 )">
    <path d="M 16 11.5  C 16 14  14 16  11.5 16  C 9 16  7 14  7 11.5  C 7 9  9 7  11.5 7  C 14 7  16 9  16 11.5  Z M 15 11.5  C 15 9.6  13.4 8  11.5 8  C 9.6 8  8 9.6  8 11.5  C 8 13.4  9.6 15  11.5 15  C 13.4 15  15 13.4  15 11.5  Z M 13.8 11.5  C 13.8 11.8  13.5 12  13.3 12  L 11.5 12  C 11.2 12  11 11.8  11 11.5  L 11 9.7  C 11 9.4  11.2 9.2  11.5 9.2  C 11.8 9.2  12 9.5  12 9.7  L 12 11  L 13.3 11  C 13.6 11  13.8 11.2  13.8 11.5  Z M 6 11.5  C 6 11.8  5.8 12  5.5 12  L 1.5 12  C 0.7 12  0 11.3  0 10.5  L 0 2.5  C 0 1.7  0.7 1  1.5 1  L 3 1  L 3 0.5  C 3 0.2  3.2 0  3.5 0  C 3.8 0  4 0.2  4 0.5  L 4 1  L 8 1  L 8 0.5  C 8 0.2  8.2 0  8.5 0  C 8.8 0  9 0.2  9 0.5  L 9 1  L 10.5 1  C 11.3 1  12 1.7  12 2.5  L 12 5.5  C 12 5.8  11.8 6  11.5 6  C 11.2 6  11 5.8  11 5.5  L 11 5  L 1 5  L 1 10.5  C 1 10.8  1.2 11  1.5 11  L 5.5 11  C 5.8 11  6 11.2  6 11.5  Z M 1 2.5  L 1 4  L 11 4  L 11 2.5  C 11 2.2  10.8 2  10.5 2  L 9 2  L 9 2.5  C 9 2.8  8.8 3  8.5 3  C 8.2 3  8 2.8  8 2.5  L 8 2  L 4 2  L 4 2.5  C 4 2.8  3.8 3  3.5 3  C 3.2 3  3 2.8  3 2.5  L 3 2  L 1.5 2  C 1.2 2  1 2.2  1 2.5  Z " fill-rule="nonzero" fill="#127eff" stroke="none" transform="matrix(1 0 0 1 688 292 )" />
  </g>
</svg>