<svg preserveAspectRatio="xMinYMin meet" viewBox="0 0 16 16" fill="none" xmlns="http://www.w3.org/2000/svg">
<path fill-rule="evenodd" clip-rule="evenodd" d="M7.99951 8C8.82794 8 9.49951 7.32843 9.49951 6.5C9.49951 5.67157 8.82794 5 7.99951 5C7.17108 5 6.49951 5.67157 6.49951 6.5C6.49951 7.32843 7.17108 8 7.99951 8Z" stroke="#808C9D" stroke-linecap="round" stroke-linejoin="round"/>
<path d="M10.4995 10.5C10.1945 9.35751 9.18109 8.54677 7.99951 8.5C6.81794 8.54677 5.80451 9.35751 5.49951 10.5" stroke="#808C9D" stroke-linecap="round" stroke-linejoin="round"/>
<path fill-rule="evenodd" clip-rule="evenodd" d="M7.99951 3C8.68987 3 9.24951 2.44036 9.24951 1.75C9.24951 1.05964 8.68987 0.5 7.99951 0.5C7.30916 0.5 6.74951 1.05964 6.74951 1.75C6.74951 2.44036 7.30916 3 7.99951 3Z" stroke="#808C9D" stroke-linecap="round" stroke-linejoin="round"/>
<path fill-rule="evenodd" clip-rule="evenodd" d="M14.2495 9.25C14.9399 9.25 15.4995 8.69036 15.4995 8C15.4995 7.30964 14.9399 6.75 14.2495 6.75C13.5592 6.75 12.9995 7.30964 12.9995 8C12.9995 8.69036 13.5592 9.25 14.2495 9.25Z" stroke="#808C9D" stroke-linecap="round" stroke-linejoin="round"/>
<path fill-rule="evenodd" clip-rule="evenodd" d="M7.99951 15.5C8.68987 15.5 9.24951 14.9404 9.24951 14.25C9.24951 13.5596 8.68987 13 7.99951 13C7.30916 13 6.74951 13.5596 6.74951 14.25C6.74951 14.9404 7.30916 15.5 7.99951 15.5Z" stroke="#808C9D" stroke-linecap="round" stroke-linejoin="round"/>
<path fill-rule="evenodd" clip-rule="evenodd" d="M1.74951 9.25C2.43987 9.25 2.99951 8.69036 2.99951 8C2.99951 7.30964 2.43987 6.75 1.74951 6.75C1.05916 6.75 0.499512 7.30964 0.499512 8C0.499512 8.69036 1.05916 9.25 1.74951 9.25Z" stroke="#808C9D" stroke-linecap="round" stroke-linejoin="round"/>
<path d="M11 2.8C11.9132 3.32817 12.6718 4.08677 13.2 5" stroke="#808C9D" stroke-linecap="round" stroke-linejoin="round"/>
<path d="M13.2 11C12.6718 11.9132 11.9132 12.6718 11 13.2" stroke="#808C9D" stroke-linecap="round" stroke-linejoin="round"/>
<path d="M5.00029 13.2C4.08706 12.6718 3.32846 11.9132 2.80029 11" stroke="#808C9D" stroke-linecap="round" stroke-linejoin="round"/>
<path d="M2.80029 5C3.32846 4.08677 4.08706 3.32817 5.00029 2.8" stroke="#808C9D" stroke-linecap="round" stroke-linejoin="round"/>
</svg>
