<svg preserveAspectRatio="xMinYMin meet" viewBox="0 0 16 16" fill="none" xmlns="http://www.w3.org/2000/svg">
<path fill-rule="evenodd" clip-rule="evenodd" d="M11.5 8C11.5 9.933 9.933 11.5 8 11.5C6.067 11.5 4.5 9.933 4.5 8C4.5 6.067 6.067 4.5 8 4.5C9.933 4.5 11.5 6.067 11.5 8Z" stroke="#808C9D" stroke-linecap="round" stroke-linejoin="round"/>
<path d="M11.4999 7.99998V9.49998C11.4999 10.6045 12.3954 11.5 13.4999 11.5C14.6045 11.5 15.4999 10.6045 15.4999 9.49998V7.99998C15.4998 4.52202 13.1084 1.50055 9.72344 0.701553C6.3385 -0.0974428 2.84839 1.53572 1.293 4.64651C-0.26239 7.75729 0.525141 11.5293 3.1953 13.7578C5.86546 15.9864 9.71748 16.0866 12.4999 14" stroke="#808C9D" stroke-linecap="round" stroke-linejoin="round"/>
</svg>
