<svg xmlns="http://www.w3.org/2000/svg" preserveAspectRatio="xMinYMin meet"  viewBox="0 0 16 16">
    <g fill="none" fill-rule="evenodd" stroke="#99A3B1" stroke-linecap="round" stroke-linejoin="round">
        <path d="M1.853 13.5l12.5-12M5.976 12.2A6.657 6.657 0 0 0 8 12.5c2.733.046 5.505-1.875 7.216-3.758.38-.422.38-1.062 0-1.484a13.712 13.712 0 0 0-2.05-1.838M9.609 3.688A6.366 6.366 0 0 0 8 3.5C5.313 3.455 2.533 5.335.786 7.257a1.109 1.109 0 0 0 0 1.484 13.867 13.867 0 0 0 1.733 1.6M5.5 8A2.5 2.5 0 0 1 8 5.5M10.5 8A2.5 2.5 0 0 1 8 10.5"/>
    </g>
</svg>
