<?xml version="1.0" encoding="UTF-8"?>
<svg preserveAspectRatio="xMinYMin meet" viewBox="0 0 16 16" version="1.1" xmlns="http://www.w3.org/2000/svg" xmlns:xlink="http://www.w3.org/1999/xlink">
    <title>Metabeta Dashboard Icon</title>
    <g id="icon-dashboard" stroke="none" stroke-width="1" fill="none" fill-rule="evenodd">
        <g id="icon-dashboard-path" fill="#D9DEE2" fill-rule="nonzero">
            <path d="M1,1 L1,8 L6,8 L6,1 L1,1 Z M0.5,0 L6.5,0 C6.77614237,0 7,0.223857625 7,0.5 L7,8.5 C7,8.77614237 6.77614237,9 6.5,9 L0.5,9 C0.223857625,9 0,8.77614237 0,8.5 L0,0.5 C0,0.223857625 0.223857625,0 0.5,0 Z M1,12 L1,15 L6,15 L6,12 L1,12 Z M0.5,11 L6.5,11 C6.77614237,11 7,11.2238576 7,11.5 L7,15.5 C7,15.7761424 6.77614237,16 6.5,16 L0.5,16 C0.223857625,16 0,15.7761424 0,15.5 L0,11.5 C0,11.2238576 0.223857625,11 0.5,11 Z M10,1 L10,5 L15,5 L15,1 L10,1 Z M9.5,0 L15.5,0 C15.7761424,0 16,0.223857625 16,0.5 L16,5.5 C16,5.77614237 15.7761424,6 15.5,6 L9.5,6 C9.22385763,6 9,5.77614237 9,5.5 L9,0.5 C9,0.223857625 9.22385763,0 9.5,0 Z M10,9 L10,15 L15,15 L15,9 L10,9 Z M9.5,8 L15.5,8 C15.7761424,8 16,8.22385763 16,8.5 L16,15.5 C16,15.7761424 15.7761424,16 15.5,16 L9.5,16 C9.22385763,16 9,15.7761424 9,15.5 L9,8.5 C9,8.22385763 9.22385763,8 9.5,8 Z" id="icon-dashboard-shape"></path>
        </g>
    </g>
</svg>