<?xml version="1.0" encoding="UTF-8"?>
<svg preserveAspectRatio="xMinYMin meet" viewBox="0 0 16 16" version="1.1" xmlns="http://www.w3.org/2000/svg" xmlns:xlink="http://www.w3.org/1999/xlink">
    <title>Metabeta Applications Icon</title>
    <g id="icon-applications" stroke="none" stroke-width="1" fill="none" fill-rule="evenodd">
        <g id="icon-applications-path" transform="translate(0.000000, 1.000000)" fill="#D9DEE2" fill-rule="nonzero">
            <path d="M8,1.08309519 L1.47182532,5 L8,8.91690481 L14.5281747,5 L8,1.08309519 Z M8.25724788,0.0712535371 L15.7572479,4.57125354 C16.0809174,4.76545523 16.0809174,5.23454477 15.7572479,5.42874646 L8.25724788,9.92874646 C8.09890668,10.0237512 7.90109332,10.0237512 7.74275212,9.92874646 L0.242752122,5.42874646 C-0.0809173741,5.23454477 -0.0809173741,4.76545523 0.242752122,4.57125354 L7.74275212,0.0712535371 C7.90109332,-0.023751179 8.09890668,-0.023751179 8.25724788,0.0712535371 Z M14.5281747,9 L13.7427521,8.52874646 C13.505962,8.38667238 13.4291795,8.07954226 13.5712535,7.84275212 C13.7133276,7.60596199 14.0204577,7.52917946 14.2572479,7.67125354 L15.7572479,8.57125354 C16.0809174,8.76545523 16.0809174,9.23454477 15.7572479,9.42874646 L8.25724788,13.9287465 C8.09890668,14.0237512 7.90109332,14.0237512 7.74275212,13.9287465 L0.242752122,9.42874646 C-0.0809173741,9.23454477 -0.0809173741,8.76545523 0.242752122,8.57125354 L1.74275212,7.67125354 C1.97954226,7.52917946 2.28667238,7.60596199 2.42874646,7.84275212 C2.57082054,8.07954226 2.49403801,8.38667238 2.25724788,8.52874646 L1.47182532,9 L8,12.9169048 L14.5281747,9 Z" id="icon-applications-shape"></path>
        </g>
    </g>
</svg>