<svg xmlns="http://www.w3.org/2000/svg" xmlns:xlink="http://www.w3.org/1999/xlink" width="16" height="16.004" viewBox="0 0 16 16.004"><defs><style>.a,.c{fill:none;}.b{clip-path:url(#a);}.c{stroke:#99a3b1;stroke-linecap:round;stroke-linejoin:round;}</style><clipPath id="a"><rect class="a" width="16" height="16.004"/></clipPath></defs><g class="b"><path class="c" d="M5.5,2.5h10" transform="translate(0 0.005)"/><path class="c" d="M5.5,8.5h10" transform="translate(0 -0.496)"/><path class="c" d="M5.5,14.5h10" transform="translate(0 -0.995)"/><path class="c" d="M6.5,6.413,5.053,8.222h0a.532.532,0,0,1-.713.1.5.5,0,0,1-.054-.044L3.5,7.537" transform="translate(-3 0.591)"/><path class="c" d="M6.5,6.413,5.053,8.222h0a.532.532,0,0,1-.713.1.5.5,0,0,1-.054-.044L3.5,7.537" transform="translate(-3 -4.909)"/><path class="c" d="M6.5,6.413,5.053,8.222h0a.532.532,0,0,1-.713.1.5.5,0,0,1-.054-.044L3.5,7.537" transform="translate(-3 6.091)"/></g></svg>