<svg xmlns="http://www.w3.org/2000/svg" xmlns:xlink="http://www.w3.org/1999/xlink" width="16" height="16" viewBox="0 0 16 16"><defs><style>.a,.c{fill:none;}.b{clip-path:url(#a);}.c{stroke:#99a3b1;stroke-linecap:round;stroke-linejoin:round;}</style><clipPath id="a"><rect class="a" width="16" height="16"/></clipPath></defs><g class="b"><path class="c" d="M5.5,2.5h10" transform="translate(0 0.001)"/><path class="c" d="M5.5,8.5h10" transform="translate(0 -0.5)"/><path class="c" d="M5.5,14.5h10" transform="translate(0 -0.999)"/><path class="c" d="M.533,12.24h0A1,1,0,1,1,1.5,13.5h0a1,1,0,1,1-.963,1.267" transform="translate(0 0.001)"/><path class="c" d="M.5,7.5h0a1,1,0,0,1,1-1h0a1,1,0,0,1,1,1h0a1.426,1.426,0,0,1-.312.891L.5,9.5h2" transform="translate(0 0.001)"/><path class="c" d="M.5.5H1a.5.5,0,0,1,.5.5V4.5" transform="translate(0 0.001)"/><path class="c" d="M.5,4.5h2" transform="translate(0 0.001)"/></g></svg>