<svg xmlns="http://www.w3.org/2000/svg" preserveAspectRatio="xMinYMin meet" viewBox="0 0 15.995 16.001">
    <defs>
        <style>
            .cls-1,.cls-3{fill:none}.cls-2{clip-path:url(#clip-path)}.cls-3{stroke:#99a3b1;stroke-linecap:round;stroke-linejoin:round}
        </style>
        <clipPath id="clip-path">
            <path d="M0 0h15.995v16.001H0z" class="cls-1"/>
        </clipPath>
    </defs>
    <g id="icon_.icon-settings" class="cls-2" data-name="icon / .icon-settings">
        <path id="Path_216" d="M6.939 1.626a1.273 1.273 0 0 0 1.817.1 1.3 1.3 0 0 0 .095-.1l.622-.692A1.275 1.275 0 0 1 11.292.84a1.316 1.316 0 0 1 .423 1.036l-.047.934a1.3 1.3 0 0 0 1.221 1.37 1.268 1.268 0 0 0 .127 0l.92-.047a1.3 1.3 0 0 1 1.35 1.241 1.316 1.316 0 0 1-.423 1.034l-.685.627a1.321 1.321 0 0 0-.093 1.847 1.3 1.3 0 0 0 .092.094l.685.627a1.32 1.32 0 0 1 .092 1.846 1.279 1.279 0 0 1-1.021.429l-.92-.047a1.294 1.294 0 0 0-1.352 1.237 1.325 1.325 0 0 0 0 .134l.047.934A1.3 1.3 0 0 1 10.48 15.5a1.279 1.279 0 0 1-1.007-.423l-.619-.694a1.275 1.275 0 0 0-1.819-.094 1.3 1.3 0 0 0-.093.094l-.621.694a1.275 1.275 0 0 1-1.819.087 1.316 1.316 0 0 1-.42-1.026l.048-.938a1.3 1.3 0 0 0-1.219-1.371 1.268 1.268 0 0 0-.132 0l-.92.047a1.294 1.294 0 0 1-1.353-1.234 1.316 1.316 0 0 1 .421-1.036l.684-.627A1.321 1.321 0 0 0 1.7 7.132a1.3 1.3 0 0 0-.092-.094l-.684-.63a1.32 1.32 0 0 1-.085-1.845 1.278 1.278 0 0 1 1.015-.427l.92.047a1.294 1.294 0 0 0 1.353-1.236 1.326 1.326 0 0 0 0-.138l-.044-.935A1.3 1.3 0 0 1 5.309.508a1.279 1.279 0 0 1 1.013.426z" class="cls-3" data-name="Path 216" transform="translate(.101 -.003)"/>
        <path id="Path_217" d="M10.121 5.879a3 3 0 1 1-4.243 0 3 3 0 0 1 4.243 0" class="cls-3" data-name="Path 217" transform="translate(-.003 .002)"/>
    </g>
</svg>
