<svg xmlns="http://www.w3.org/2000/svg" xmlns:xlink="http://www.w3.org/1999/xlink" width="16" height="16" viewBox="0 0 16 16"><defs><style>.a{fill:none;}.b{clip-path:url(#a);}.c{fill:#99a3b1;}</style><clipPath id="a"><rect class="a" width="16" height="16"/></clipPath></defs><g class="b" transform="translate(0 0)"><path class="c" d="M8.5,7h0A1.5,1.5,0,1,0,10,8.5h0A1.5,1.5,0,0,0,8.5,7Z" transform="translate(-0.5 -0.5)"/><path class="c" d="M8.5,7h0A1.5,1.5,0,1,0,10,8.5h0A1.5,1.5,0,0,0,8.5,7Z" transform="translate(5 -0.5)"/><path class="c" d="M8.5,7h0A1.5,1.5,0,1,0,10,8.5h0A1.5,1.5,0,0,0,8.5,7Z" transform="translate(-6 -0.5)"/></g></svg>