<svg xmlns="http://www.w3.org/2000/svg" xmlns:xlink="http://www.w3.org/1999/xlink" width="15.998" height="16" viewBox="0 0 15.998 16"><defs><style>.a,.c{fill:none;}.b{clip-path:url(#a);}.c{stroke:#99a3b1;stroke-linecap:round;stroke-linejoin:round;}</style><clipPath id="a"><rect class="a" width="15.998" height="16"/></clipPath></defs><g class="b"><path class="c" d="M4.5.5v7" transform="translate(-2.5 4)"/><path class="c" d="M4.5.5v7" transform="translate(3.5 4)"/><path class="c" d="M7.5,6.5h-3" transform="translate(-4 -2)"/><path class="c" d="M7.5,6.5h-3" transform="translate(2 -2)"/><path class="c" d="M10,6.5H4.5" transform="translate(-2 1.5)"/><path class="c" d="M7.5,6.5h-3" transform="translate(-4 5)"/><path class="c" d="M7.5,6.5h-3" transform="translate(2 5)"/><path class="c" d="M.5,7.5a1.911,1.911,0,0,1,2-2,1.942,1.942,0,0,1,2,2c0,1.966-4,5-4,5h4" transform="translate(11 -0.999)"/></g></svg>