<svg xmlns="http://www.w3.org/2000/svg" xmlns:xlink="http://www.w3.org/1999/xlink" width="16" height="16" viewBox="0 0 16 16"><defs><style>.a,.c{fill:none;}.b{clip-path:url(#a);}.c{stroke:#99a3b1;stroke-linecap:round;stroke-linejoin:round;}</style><clipPath id="a"><rect class="a" width="16" height="16"/></clipPath></defs><g class="b"><path class="c" d="M8.484.5h0A6.993,6.993,0,0,0,2.551,11.183L.5,15.5l4.308-2.056h0A7,7,0,1,0,8.484.5Z"/><path class="c" d="M8.5,10h0" transform="translate(-0.016)"/><path class="c" d="M8.5,10h0a.25.25,0,1,0,.25.25h0A.25.25,0,0,0,8.5,10" transform="translate(-0.016)"/><path class="c" d="M6.5,6.5h0a2,2,0,1,1,2,2" transform="translate(-0.016)"/></g></svg>