<svg xmlns="http://www.w3.org/2000/svg" xmlns:xlink="http://www.w3.org/1999/xlink" width="16" height="16" viewBox="0 0 16 16"><defs><style>.a,.c{fill:none;}.b{clip-path:url(#a);}.c{stroke:#99a3b1;stroke-linecap:round;stroke-linejoin:round;}</style><clipPath id="a"><rect class="a" width="16" height="16"/></clipPath></defs><g class="b"><path class="c" d="M4.5,11.281l7-6.782" transform="translate(0 0.004)"/><path class="c" d="M5.157,8.014a2.983,2.983,0,0,0-2.278.867l-1.5,1.5a3,3,0,0,0,4.243,4.243h0l1.5-1.5a2.983,2.983,0,0,0,.867-2.278" transform="translate(0 -0.214)"/><path class="c" d="M10.843,7.984a2.983,2.983,0,0,0,2.278-.867l1.5-1.5a3,3,0,0,0-4.243-4.243l-1.5,1.5a2.985,2.985,0,0,0-.863,2.278" transform="translate(0 0.004)"/></g></svg>