<svg width="16" height="16" viewBox="0 0 16 16" fill="none" xmlns="http://www.w3.org/2000/svg">
<path fill-rule="evenodd" clip-rule="evenodd" d="M13.657 2.34329C14.7758 3.46213 15.5377 4.88759 15.8463 6.43943C16.155 7.99127 15.9965 9.59978 15.391 11.0616C14.7855 12.5233 13.7601 13.7728 12.4445 14.6518C11.1289 15.5308 9.58224 16 8 16C6.41777 16 4.87107 15.5308 3.55548 14.6518C2.2399 13.7728 1.21452 12.5233 0.609007 11.0616C0.00349361 9.59978 -0.154957 7.99127 0.153691 6.43943C0.46234 4.88759 1.22422 3.46213 2.343 2.34329C3.08588 1.60038 3.96781 1.01107 4.93844 0.609003C5.90907 0.20694 6.94939 0 8 0C9.05061 0 10.0909 0.20694 11.0616 0.609003C12.0322 1.01107 12.9141 1.60038 13.657 2.34329Z" fill="#808C9D"/>
</svg>
