<svg xmlns="http://www.w3.org/2000/svg" xmlns:xlink="http://www.w3.org/1999/xlink" width="16" height="16.5" viewBox="0 0 16 16.5"><defs><style>.a,.d{fill:none;}.b{clip-path:url(#a);}.c{fill:#99a3b1;}.c,.d{stroke:#99a3b1;stroke-linecap:round;stroke-linejoin:round;}</style><clipPath id="a"><rect class="a" width="16" height="16.5"/></clipPath></defs><g class="b"><path class="c" d="M14.621,4.044a3,3,0,1,1-4.243,0,3,3,0,0,1,4.243,0" transform="translate(0 -0.165)"/><path class="d" d="M15.5,6.165h0a7,7,0,0,1-7,7" transform="translate(0 -0.165)"/><path class="c" d="M6.621,4.044a3,3,0,1,1-4.243,0,3,3,0,0,1,4.243,0" transform="translate(0 -0.165)"/><path class="d" d="M7.5,6.165h0a7,7,0,0,1-7,7" transform="translate(0 -0.165)"/></g></svg>