<svg width="32" height="32" viewBox="0 0 32 32" fill="none" xmlns="http://www.w3.org/2000/svg">
<path d="M25.9002 21.75C25.6502 21.75 25.4002 21.65 25.2002 21.45C24.8002 21.05 24.8002 20.45 25.2002 20.05L29.4002 15.85L25.2002 12C24.8002 11.6 24.7502 11 25.1502 10.6C25.5502 10.2 26.1502 10.15 26.5502 10.55L31.4502 15.1C31.6502 15.3 31.7502 15.55 31.7502 15.8C31.7502 16.05 31.6502 16.35 31.4502 16.55L26.5502 21.45C26.4002 21.65 26.1502 21.75 25.9002 21.75Z" fill="#00193C"/>
<path d="M6.1002 21.75C5.8502 21.75 5.6002 21.65 5.4002 21.45L0.500195 16.55C0.300195 16.35 0.200195 16.1 0.200195 15.8C0.200195 15.5 0.300195 15.25 0.500195 15.1L5.4002 10.55C5.8002 10.15 6.4502 10.2 6.8002 10.6C7.2002 11 7.1502 11.65 6.7502 12L2.6002 15.85L6.8002 20.05C7.2002 20.45 7.2002 21.05 6.8002 21.45C6.6002 21.65 6.3502 21.75 6.1002 21.75Z" fill="#00193C"/>
<path d="M9.90039 17.5C10.7288 17.5 11.4004 16.8284 11.4004 16C11.4004 15.1716 10.7288 14.5 9.90039 14.5C9.07196 14.5 8.40039 15.1716 8.40039 16C8.40039 16.8284 9.07196 17.5 9.90039 17.5Z" fill="#00193C"/>
<path d="M16 17.5C16.8284 17.5 17.5 16.8284 17.5 16C17.5 15.1716 16.8284 14.5 16 14.5C15.1716 14.5 14.5 15.1716 14.5 16C14.5 16.8284 15.1716 17.5 16 17.5Z" fill="#00193C"/>
<path d="M21.9502 17.5C22.7786 17.5 23.4502 16.8284 23.4502 16C23.4502 15.1716 22.7786 14.5 21.9502 14.5C21.1218 14.5 20.4502 15.1716 20.4502 16C20.4502 16.8284 21.1218 17.5 21.9502 17.5Z" fill="#00193C"/>
</svg>
