<svg width="24" height="24" viewBox="0 0 24 24" fill="none" xmlns="http://www.w3.org/2000/svg">
<path fill-rule="evenodd" clip-rule="evenodd" d="M11.999 12C13.2417 12 14.249 10.9926 14.249 9.75C14.249 8.50736 13.2417 7.5 11.999 7.5C10.7564 7.5 9.74902 8.50736 9.74902 9.75C9.74902 10.9926 10.7564 12 11.999 12Z" stroke="#8793A0" stroke-width="1.5" stroke-linecap="round" stroke-linejoin="round"/>
<path d="M15.749 15.75C15.2915 14.0363 13.7714 12.8202 11.999 12.75C10.2267 12.8202 8.70652 14.0363 8.24902 15.75" stroke="#8793A0" stroke-width="1.5" stroke-linecap="round" stroke-linejoin="round"/>
<path fill-rule="evenodd" clip-rule="evenodd" d="M11.999 4.5C13.0346 4.5 13.874 3.66053 13.874 2.625C13.874 1.58947 13.0346 0.75 11.999 0.75C10.9635 0.75 10.124 1.58947 10.124 2.625C10.124 3.66053 10.9635 4.5 11.999 4.5Z" stroke="#8793A0" stroke-width="1.5" stroke-linecap="round" stroke-linejoin="round"/>
<path fill-rule="evenodd" clip-rule="evenodd" d="M21.374 13.875C22.4096 13.875 23.249 13.0355 23.249 12C23.249 10.9645 22.4096 10.125 21.374 10.125C20.3385 10.125 19.499 10.9645 19.499 12C19.499 13.0355 20.3385 13.875 21.374 13.875Z" stroke="#8793A0" stroke-width="1.5" stroke-linecap="round" stroke-linejoin="round"/>
<path fill-rule="evenodd" clip-rule="evenodd" d="M11.999 23.25C13.0346 23.25 13.874 22.4105 13.874 21.375C13.874 20.3395 13.0346 19.5 11.999 19.5C10.9635 19.5 10.124 20.3395 10.124 21.375C10.124 22.4105 10.9635 23.25 11.999 23.25Z" stroke="#8793A0" stroke-width="1.5" stroke-linecap="round" stroke-linejoin="round"/>
<path fill-rule="evenodd" clip-rule="evenodd" d="M2.62402 13.875C3.65956 13.875 4.49902 13.0355 4.49902 12C4.49902 10.9645 3.65956 10.125 2.62402 10.125C1.58849 10.125 0.749023 10.9645 0.749023 12C0.749023 13.0355 1.58849 13.875 2.62402 13.875Z" stroke="#8793A0" stroke-width="1.5" stroke-linecap="round" stroke-linejoin="round"/>
<path d="M16.5 4.19998C17.8698 4.99223 19.0078 6.13014 19.8 7.49998" stroke="#8793A0" stroke-width="1.5" stroke-linecap="round" stroke-linejoin="round"/>
<path d="M19.8 16.5C19.0078 17.8698 17.8698 19.0078 16.5 19.8" stroke="#8793A0" stroke-width="1.5" stroke-linecap="round" stroke-linejoin="round"/>
<path d="M7.50019 19.8C6.13035 19.0078 4.99244 17.8698 4.2002 16.5" stroke="#8793A0" stroke-width="1.5" stroke-linecap="round" stroke-linejoin="round"/>
<path d="M4.2002 7.49998C4.99244 6.13014 6.13035 4.99223 7.50019 4.19998" stroke="#8793A0" stroke-width="1.5" stroke-linecap="round" stroke-linejoin="round"/>
</svg>
