<svg id="Layer_1" data-name="Layer 1" xmlns="http://www.w3.org/2000/svg" width="16" height="16" viewBox="0 0 16 16"><title>forms-edit</title><path d="M.5,16a.47.47,0,0,1-.35-.15A.46.46,0,0,1,0,15.38L1.2,10.77a.49.49,0,0,1,.13-.23L11,.88A3,3,0,0,1,13.06,0a3.07,3.07,0,0,1,2.09.85h0a2.93,2.93,0,0,1,0,4.16L5.46,14.67a.49.49,0,0,1-.23.13L.62,16A.25.25,0,0,1,.5,16Zm1.63-4.85-.94,3.66,3.66-.94L14.42,4.3A1.92,1.92,0,0,0,15,2.93a2,2,0,0,0-.56-1.37h0A1.81,1.81,0,0,0,13.07,1a1.88,1.88,0,0,0-1.36.58Z" style="fill:#8793a0"/><path d="M14.49,5.43a.5.5,0,0,1-.35-.15L10.72,1.86a.5.5,0,0,1,0-.71.5.5,0,0,1,.7,0l3.43,3.43a.5.5,0,0,1,0,.7A.51.51,0,0,1,14.49,5.43Z" style="fill:#8793a0"/><path d="M13.1,6.83a.51.51,0,0,1-.36-.15L9.32,3.26a.51.51,0,0,1,0-.71.5.5,0,0,1,.71,0L13.45,6a.5.5,0,0,1,0,.71A.49.49,0,0,1,13.1,6.83Z" style="fill:#8793a0"/><path d="M5.11,14.82a.51.51,0,0,1-.36-.15L1.33,11.25a.5.5,0,0,1,0-.71.5.5,0,0,1,.7,0L5.46,14a.5.5,0,0,1,0,.71A.5.5,0,0,1,5.11,14.82Z" style="fill:#8793a0"/></svg>