<?xml version="1.0" encoding="utf-8"?>
<svg version="1.1" xmlns:xlink="http://www.w3.org/1999/xlink" width="18px" height="17px" xmlns="http://www.w3.org/2000/svg">
  <g transform="matrix(1 0 0 1 -808 -218 )">
    <path d="M 16 15.8000000000002  C 15.2 16.5999999999999  14.1 17  13 17  C 12.2 17  11.4 16.8000000000002  10.7 16.3000000000002  C 7.1 13.9000000000001  4.1 10.8000000000002  1.6 7.19999999999982  C 0.600000000000001 5.59999999999991  0.800000000000001 3.40000000000009  2.2 2  L 2.7 1.5  C 3.4 0.800000000000182  4.5 0.800000000000182  5.1 1.5  L 7.3 3.69999999999982  C 8 4.40000000000009  8 5.5  7.4 6.09999999999991  C 7.1 6.40000000000009  7.1 6.80000000000018  7.4 7.09999999999991  L 10.9 10.5999999999999  C 11 10.6999999999998  11.2 10.8000000000002  11.4 10.8000000000002  C 11.6 10.8000000000002  11.8 10.6999999999998  11.9 10.5999999999999  C 12.6 9.90000000000009  13.7 9.90000000000009  14.3 10.5999999999999  L 16.5 12.8000000000002  C 16.8852286135714 13.1852286135713  17.0584556775512 13.6916009697666  17.0196811919393 14.1691126671126  C 16.9879984504084 14.559288821516  16.8147713864286 14.9301959544896  16.5 15.1999999999998  L 16 15.8000000000002  Z M 11.3 15.5  C 12.6 16.3000000000002  14.2 16.0999999999999  15.3 15.0999999999999  L 15.8 14.5999999999999  C 15.9 14.5  16 14.3000000000002  16 14.0999999999999  C 16 13.9000000000001  15.9 13.6999999999998  15.8 13.5999999999999  L 13.6 11.4000000000001  C 13.3 11.0999999999999  12.9 11.0999999999999  12.6 11.4000000000001  C 12.3 11.6999999999998  11.8 11.9000000000001  11.4 11.9000000000001  C 10.9 11.9000000000001  10.5 11.6999999999998  10.2 11.4000000000001  L 6.7 7.90000000000009  C 6 7.19999999999982  6 6.09999999999991  6.7 5.40000000000009  C 7 5.09999999999991  7 4.69999999999982  6.7 4.40000000000009  L 4.5 2.19999999999982  C 4.2 1.90000000000009  3.8 1.90000000000009  3.5 2.19999999999982  L 2.9 2.69999999999982  C 1.8 3.80000000000018  1.7 5.40000000000009  2.5 6.69999999999982  C 4.9 10.1999999999998  7.8 13.1999999999998  11.3 15.5  Z " fill-rule="nonzero" fill="#127eff" stroke="none" transform="matrix(1 0 0 1 808 218 )" />
  </g>
</svg>