<svg xmlns="http://www.w3.org/2000/svg" preserveAspectRatio="xMinYMin meet" viewBox="0 0 16 16">
    <g fill="none" fill-rule="evenodd" stroke="#99A3B1" stroke-linecap="round" stroke-linejoin="round">
        <path d="M8.062.65l-.904 1.131a5 5 0 0 0-1.095 3.124v9.246h3.998l.001-9.246A4.996 4.996 0 0 0 8.967 1.78L8.062.651z"/>
        <path d="M6.063 14.15L3.786 15.29a.5.5 0 0 1-.723-.447v-.219a4 4 0 0 1 2.21-3.578l.79-.394v3.5zM10.061 14.152l2.277 1.138a.5.5 0 0 0 .723-.447v-.22a4 4 0 0 0-2.21-3.577l-.786-.393-.004 3.499z"/>
        <path d="M10.061 14.152l2.277 1.138a.5.5 0 0 0 .723-.447v-.22a4 4 0 0 0-2.21-3.577l-.786-.393-.004 3.499z"/>
    </g>
</svg>
