<svg xmlns="http://www.w3.org/2000/svg" preserveAspectRatio="xMinYMin meet" viewBox="0 0 16 16">
    <g fill="none" fill-rule="evenodd" stroke="#99A3B1" stroke-linecap="round" stroke-linejoin="round">
        <path d="M4.768.94c.976.586.976 1.536 0 2.121-.977.586-2.56.586-3.536 0-.976-.585-.976-1.535 0-2.121.977-.586 2.56-.586 3.536 0"/>
        <path d="M.5 2v3c0 .828 1.12 1.5 2.5 1.5S5.5 5.829 5.5 5V2M4.768 9.94c.976.586.976 1.536 0 2.121-.977.586-2.56.586-3.536 0-.976-.585-.976-1.535 0-2.121.977-.586 2.56-.586 3.536 0"/>
        <path d="M.5 11v3c0 .828 1.12 1.5 2.5 1.5s2.5-.671 2.5-1.5v-3M14.768.94c.976.586.976 1.536 0 2.121-.977.586-2.56.586-3.536 0-.976-.585-.976-1.535 0-2.121.977-.586 2.56-.586 3.536 0"/>
        <path d="M10.5 2v3c0 .828 1.12 1.5 2.5 1.5s2.5-.672 2.5-1.5V2M14.768 9.94c.976.586.976 1.536 0 2.121-.977.586-2.56.586-3.536 0-.976-.585-.976-1.535 0-2.121.977-.586 2.56-.586 3.536 0"/>
        <path d="M10.5 11v3c0 .828 1.12 1.5 2.5 1.5s2.5-.672 2.5-1.5v-3M5.36 5.493l5.193 5.194M5.5 11l5.293-5.293"/>
    </g>
</svg>
