<?xml version="1.0" encoding="utf-8"?>
<!-- Generator: Adobe Illustrator 23.0.3, SVG Export Plug-In . SVG Version: 6.00 Build 0)  -->
<svg version="1.1" id="Layer_1" xmlns="http://www.w3.org/2000/svg" xmlns:xlink="http://www.w3.org/1999/xlink" x="0px" y="0px"
	 viewBox="0 0 32 32" style="enable-background:new 0 0 32 32;" xml:space="preserve">
<style type="text/css">
	.st0{fill:none;stroke:#808C9D;stroke-width:1.5;stroke-linecap:round;stroke-linejoin:round;}
</style>
<g transform="scale(1.33333)">
	<path class="st0" d="M2.3,23.3L2.3,23.3c0-5.4,4.4-9.7,9.8-9.7c5.4,0,9.8,4.4,9.8,9.8l0,0"/>
	<path class="st0" d="M8.3,23.3l8.5-8.5"/>
	<path class="st0" d="M7.3,14.7l4.8,4.8"/>
	<path class="st0" d="M14.3,23.3l3.3-8"/>
	<path class="st0" d="M6.8,6.8L6.8,6.8c0.4,2.9,3.1,4.9,5.9,4.4c2.3-0.3,4.1-2.1,4.4-4.4"/>
	<path class="st0" d="M2.3,6.8c0-3.3,4.4-6,9.8-6s9.8,2.7,9.8,6H2.3z"/>
</g>
</svg>
