<?xml version="1.0" encoding="UTF-8"?>
<svg preserveAspectRatio="xMinYMin meet" viewBox="0 0 16 16" version="1.1" xmlns="http://www.w3.org/2000/svg" xmlns:xlink="http://www.w3.org/1999/xlink">
    <title>icon-robot</title>
    <g id="icon-robot" stroke="none" stroke-width="1" fill="none" fill-rule="evenodd" stroke-linecap="round" stroke-linejoin="round">
        <path d="M0.50000025,11.0000057 L0.50000025,11.0000057 C0.500000167,10.4477207 0.947715807,10.0000052 1.50000075,10.0000052 C2.05228569,10.0000051 2.50000125,10.4477207 2.50000125,11.0000057 C2.50000125,11.0000057 2.50000125,11.0000057 2.50000125,11.0000057" id="path" stroke="#000000"></path>
        <path d="M1.50000075,10.000005 L1.50000075,6.50000325 L1.50000075,6.50000355 C1.50000058,5.39543633 2.39543453,4.50000255 3.50000175,4.50000255 L4.50000225,4.50000255" id="path" stroke="#000000"></path>
        <path d="M15.5000078,11.0000055 L15.5000078,11.0000055 C15.5000078,10.4477206 15.0522922,10.000005 14.5000073,10.000005 C13.9477223,10.000005 13.5000068,10.4477206 13.5000068,11.0000055" id="path" stroke="#000000"></path>
        <path d="M14.5000073,10.000005 L14.5000073,6.50000325 L14.5000073,6.50000325 C14.5000073,5.39543603 13.6045735,4.50000225 12.5000063,4.50000225 L11.5000058,4.50000225" id="path" stroke="#000000"></path>
        <path d="M11.5000058,4.50000225 L11.5000058,4.50000233 C11.8766926,5.45346281 12.0471007,6.47590999 12.000006,7.50000383 L12.0000061,7.50000592 C12.0082041,8.25461297 11.92493,9.00743334 11.7520053,9.74200704 L11.7520053,9.74200693 C11.6408746,10.1875765 11.2405577,10.5001873 10.7813381,10.5000073 L5.21866869,10.5000073 L5.21866866,10.5000073 C4.7594491,10.5001866 4.3591349,10.1875765 4.24800151,9.74200693 L4.24800156,9.74200714 C4.0750768,9.00743344 3.99180276,8.25461307 4.00000143,7.50000602 L4.00000147,7.50000684 C3.95290685,6.47591299 4.12331487,5.45346582 4.50000105,4.50000534 L11.5000058,4.50000225 Z" id="path" stroke="#000000"></path>
        <path d="M7.0000035,10.5000052 L7.0000035,15.0000075 L7.0000035,15.0000075 C7.0000035,15.2761503 6.77614605,15.5000077 6.50000325,15.5000077 L5.0000025,15.5000077 L5.0000025,10.4760052" id="path" stroke="#000000"></path>
        <path d="M3.50000175,15.5000077 L5.0000025,15.5000077" id="path" stroke="#000000"></path>
        <path d="M9.0000045,10.5000052 L9.0000045,15.0000075 L9.0000045,15.0000076 C9.00000454,15.2761504 9.22386261,15.5000078 9.50000475,15.5000078 L11.0000055,15.5000078 L11.0000055,10.4760053" id="path" stroke="#000000"></path>
        <path d="M12.5000063,15.5000077 L11.0000055,15.5000077" id="path" stroke="#000000"></path>
        <path d="M8.000004,0.50000025 L8.00000391,0.50000025 C6.89543669,0.500000298 6.00000291,1.39543403 6.00000291,2.50000125 C6.00000291,2.50000125 6.00000291,2.50000125 6.00000291,2.50000125 L6.00000291,4.50000225 L10.0000049,4.50000225 L10.0000049,2.50000125 L10.0000049,2.50000116 C10.0000049,1.39543394 9.10457113,0.500000163 8.00000391,0.500000163 C8.00000389,0.500000163 8.00000385,0.500000163 8.00000383,0.500000163 L8.000004,0.50000025 Z" id="path" stroke="#000000"></path>
        <path d="M9.75000488,6.50000325 L9.75000486,6.50000325 C9.88807627,6.50000324 10.000005,6.61193197 10.000005,6.75000338" id="path" stroke="#000000"></path>
        <path d="M9.50000475,6.75000337 L9.50000475,6.75000341 C9.50000473,6.61193201 9.61193347,6.50000329 9.75000488,6.50000329" id="path" stroke="#000000"></path>
        <path d="M9.75000487,7.0000035 L9.75000486,7.0000035 C9.61193346,7.00000349 9.50000474,6.88807478 9.50000474,6.75000337 C9.50000474,6.75000337 9.50000474,6.75000337 9.50000474,6.75000337" id="path" stroke="#000000"></path>
        <path d="M10.000005,6.75000337 L10.000005,6.75000337 C10.000005,6.88807478 9.88807628,7.0000035 9.75000487,7.0000035" id="path" stroke="#000000"></path>
        <path d="M6.000003,7.0000035 L7.50000375,7.0000035" id="path" stroke="#000000"></path>
    </g>
</svg>