<?xml version="1.0" encoding="UTF-8"?>
<svg preserveAspectRatio="xMinYMin meet" viewBox="0 0 16 16" version="1.1" xmlns="http://www.w3.org/2000/svg" xmlns:xlink="http://www.w3.org/1999/xlink">
    <title>icon-settings</title>
    <g id="icon-settings" stroke="none" stroke-width="1" fill="none" fill-rule="evenodd" stroke-linecap="round" stroke-linejoin="round">
        <path d="M7.03067018,1.62533415 L7.03067023,1.62533419 C7.5129478,2.16068246 8.33789755,2.20370515 8.87324448,1.72142758 C8.90692323,1.69108749 8.93899785,1.65901288 8.96933786,1.62533419 L9.60000484,0.933333848 L9.60000475,0.933333957 C10.083571,0.398156356 10.9094254,0.356317668 11.4446057,0.839883243 C11.7358705,1.10305937 11.8933086,1.48329023 11.8733419,1.87533709 L11.8260085,2.80867089 L11.8260085,2.80867095 C11.7898048,3.52867797 12.3441361,4.14170495 13.0641425,4.17791163 C13.1071811,4.18007572 13.1503005,4.18010723 13.1933425,4.17800605 L14.1266763,4.13067269 L14.1266763,4.1306727 C14.8470833,4.09515581 15.4598836,4.65037095 15.4954037,5.37077998 C15.5146941,5.76205884 15.3573196,6.1413337 15.0666788,6.40400717 L14.3720118,7.03067415 L14.3720119,7.03067406 C13.8364796,7.5143963 13.7944789,8.34066805 14.2782011,8.87619498 C14.3078626,8.9090334 14.3391731,8.94034388 14.3720112,8.97000503 L15.0666782,9.59667201 L15.0666783,9.59667205 C15.6018559,10.0802383 15.6436945,10.9060927 15.1601283,11.441273 C14.8969522,11.7325378 14.5167213,11.8899752 14.1246745,11.8700092 L13.1913407,11.8226758 L13.1913406,11.8226758 C12.4713736,11.7856413 11.8577066,12.3392654 11.8206733,13.0592298 C11.8183752,13.1039049 11.8183752,13.1486685 11.8206733,13.1933439 L11.8680066,14.1266777 L11.8680067,14.1266782 C11.9001089,14.8472452 11.3419957,15.4574055 10.621426,15.4895122 C10.2351465,15.5067214 9.86109899,15.3518781 9.60000552,15.0666793 L8.97267188,14.3726789 L8.97267188,14.3726789 C8.48929497,13.8373307 7.66345789,13.7951993 7.12810429,14.2785762 C7.09515794,14.3083242 7.06374959,14.3397325 7.03400157,14.3726789 L6.40400192,15.0666793 L6.40400196,15.0666793 C5.91861638,15.6002069 5.0926213,15.6392329 4.55909437,15.1538473 C4.27159756,14.8922918 4.11553615,14.5162756 4.13333216,14.1280134 L4.18133218,13.1946796 L4.18133221,13.1946791 C4.21836643,12.474712 3.66474195,11.8610451 2.94477826,11.8240117 C2.90010317,11.8217137 2.85533955,11.8217137 2.81066419,11.8240118 L1.87733039,11.8713451 L1.87733042,11.8713451 C1.15739673,11.9089217 0.543309756,11.3557602 0.505729737,10.6358245 C0.485269527,10.2438237 0.642302472,9.86342413 0.933327951,9.60001066 L1.6273283,8.97334368 L1.62732829,8.97334369 C2.16286056,8.48962145 2.20486125,7.6633497 1.721139,7.12782277 C1.69147752,7.09498435 1.66016704,7.06367387 1.62732896,7.03401272 L0.933328611,6.4040124 L0.933328574,6.40401237 C0.39936764,5.91965146 0.359158287,5.09413838 0.843519196,4.56017812 C1.10556999,4.27129197 1.48307418,4.11472389 1.87265971,4.13334524 L2.80599351,4.18067859 L2.80599351,4.18067859 C3.52591387,4.21852901 4.14021418,3.665601 4.17806086,2.94567798 C4.18048357,2.89959769 4.18046114,2.85342126 4.17799368,2.80734324 L4.13332699,1.87334277 L4.13332692,1.87334139 C4.0995261,1.1528477 4.65619918,0.541374057 5.37669421,0.50757404 C5.7654644,0.489335431 6.14211459,0.645438109 6.40400139,0.933343586 L7.03067018,1.62533415 Z" id="path" stroke="#000000"></path>
        <path d="M10.4748759,5.52512711 C11.841712,6.89196325 11.841712,9.10803975 10.4748759,10.4748759 C9.10803975,11.841712 6.89196325,11.841712 5.52512711,10.4748759 C4.15829096,9.10803975 4.15829096,6.89196325 5.52512711,5.52512711 C6.89196325,4.15829096 9.10803975,4.15829096 10.4748759,5.52512711" id="path" stroke="#000000"></path>
    </g>
</svg>