<?xml version="1.0" encoding="UTF-8"?>
<svg preserveAspectRatio="xMinYMin meet" viewBox="0 0 16 16" version="1.1" xmlns="http://www.w3.org/2000/svg" xmlns:xlink="http://www.w3.org/1999/xlink">
    <title>icon-startup</title>
    <g id="icon-startup" stroke="none" stroke-width="1" fill="none" fill-rule="evenodd" stroke-linecap="round" stroke-linejoin="round">
        <path d="M3.19066851,14.6000073 C2.32400141,15.4666744 0.583333875,15.0860075 0.583333875,15.0860075 C0.583333875,15.0860075 0.200667017,13.34734 1.06933412,12.4786729 L1.06933401,12.478673 C1.54996758,11.9592741 2.36065465,11.9278481 2.88005491,12.4084823 C2.94638175,12.4698589 3.00602964,12.5380797 3.05800234,12.6120064 L3.05800235,12.6120064 C3.63660797,13.0194373 3.77536937,13.8187804 3.36794117,14.3973807 C3.31612974,14.4709594 3.25671111,14.5388761 3.19066908,14.6000048 L3.19066851,14.6000073 Z" id="path" stroke="#000000"></path>
        <path d="M12.4400065,3.22666828 L13.3133402,2.35333451" id="path" stroke="#000000"></path>
        <path d="M12.5560065,6.2706698 L12.4400065,3.22600161 L9.39533828,3.11000155 L9.39533821,3.11000156 C8.48137109,3.1294827 7.637064,3.60262514 7.14333709,4.37200219 L3.83333543,9.85000493 L5.81066975,11.8300059 L11.2886725,8.52267093 L11.2886724,8.52267099 C12.0605328,8.03059941 12.5359397,7.18581698 12.5560064,6.27066986 L12.5560065,6.2706698 Z" id="path" stroke="#000000"></path>
        <path d="M5.21800286,7.56133711 L4.48466916,7.30133698 L4.48466909,7.30133696 C4.02613619,7.12392553 3.50636193,7.22788092 3.15133509,7.56800376 L1.86866778,8.84733773 L1.86866778,8.84733773 C1.78520174,8.9350151 1.75929506,9.0627345 1.80200108,9.17600456 L1.80200107,9.17600453 C1.84422789,9.29685526 1.94446581,9.38832264 2.06866787,9.41933799 L3.83533542,9.85267154" id="path" stroke="#000000"></path>
        <path d="M8.07933762,10.4620052 L8.36200443,11.1806723 L8.36200447,11.1806724 C8.54062322,11.6383186 8.43851051,12.1579728 8.10000434,12.5140064 L6.81867036,13.800007 L6.81867036,13.800007 C6.73093832,13.8838877 6.60278492,13.9098297 6.48933687,13.8666737 L6.48933689,13.8666737 C6.36881149,13.8241572 6.27766478,13.7239963 6.2466701,13.6000069 L5.81333655,11.8333394" id="path" stroke="#000000"></path>
        <path d="M10.1291386,5.5368961 C10.5196628,5.9274203 10.5196628,6.56058328 10.1291386,6.95111014 C9.73861445,7.34163434 9.10545147,7.34163434 8.71492461,6.95111014 C8.32440041,6.56058595 8.32440041,5.92742296 8.71492461,5.5368961 C9.1054488,5.14637191 9.73861179,5.14637191 10.1291386,5.5368961" id="path" stroke="#000000"></path>
        <path d="M14.3333407,11.4360057 L13.1666735,11.4360057 L13.1666735,11.4360057 C12.8174733,11.4578178 12.5513079,11.7573279 12.5706732,12.1066727 L12.5706732,12.106673 C12.5634665,12.3696978 12.7096839,12.6129592 12.94534,12.7300066 L14.1253406,13.1420068 L14.1253407,13.1420068 C14.3608801,13.2591809 14.5070475,13.5023597 14.5000075,13.7653405 L14.5000075,13.7653409 C14.5193726,14.1146857 14.2532074,14.4141959 13.9040066,14.4360079 L12.5000059,14.4360079" id="path" stroke="#000000"></path>
        <path d="M13.500007,11.4333391 L13.500007,10.7666721" id="path" stroke="#000000"></path>
        <path d="M13.500007,15.1000075 L13.500007,14.4333405" id="path" stroke="#000000"></path>
        <path d="M2.33266808,1.43600072 L1.1666675,1.43600072 L1.16666753,1.43600072 C0.817201354,1.45746259 0.550644554,1.75707888 0.570000564,2.10666772 L0.570000557,2.10666797 C0.56279382,2.36969276 0.709011293,2.61295422 0.944667411,2.73000161 L2.124668,3.14200182 L2.12466803,3.14200183 C2.36020748,3.25917589 2.50637489,3.50235468 2.49933488,3.76533548 L2.49933491,3.7653359 C2.51869998,4.11468074 2.25253478,4.41419089 1.90333394,4.4360029 L0.499999908,4.4360029" id="path" stroke="#000000"></path>
        <path d="M1.500001,1.43333405 L1.500001,0.76666705" id="path" stroke="#000000"></path>
        <path d="M1.500001,5.10000255 L1.500001,4.43333555" id="path" stroke="#000000"></path>
    </g>
</svg>