<svg xmlns="http://www.w3.org/2000/svg" preserveAspectRatio="xMinYMin meet" viewBox="0 0 16 16">
    <path fill="#99A3B1" fill-rule="evenodd" d="M15.547 5.293a.333.333 0 0 0-.134-.58l-.526-.133a.333.333 0 0 1-.22-.467l.293-.593a.333.333 0 0 0-.387-.467l-1.333.374c-.1.029-.21.01-.293-.054A3.333 3.333 0 0 0 7.614 6.04v.24a.167.167 0 0 1-.147.167c-1.874.22-3.667-.734-5.6-2.96a.34.34 0 0 0-.34-.1.333.333 0 0 0-.194.28 5.053 5.053 0 0 0 .307 3.28.167.167 0 0 1-.173.24L.72 7.04a.333.333 0 0 0-.38.393 3.433 3.433 0 0 0 1.58 2.52.167.167 0 0 1 0 .3l-.353.14a.333.333 0 0 0-.174.46 2.907 2.907 0 0 0 2.134 1.654.167.167 0 0 1 0 .313 7.293 7.293 0 0 1-2.86.553.34.34 0 0 0-.134.667 13.373 13.373 0 0 0 5.427 1.287 8.387 8.387 0 0 0 4.667-1.334 8.333 8.333 0 0 0 3.706-6.953v-.58c.001-.098.045-.19.12-.253l1.094-.914z"/>
</svg>
