<svg xmlns="http://www.w3.org/2000/svg" preserveAspectRatio="xMinYMin meet" viewBox="0 0 64 64">
    <g fill="none" fill-rule="evenodd">
        <path fill="#EBEDF0" d="M0 0h64v64H0z"/>
        <path fill="#66758A" d="M37.657 18.343a8 8 0 1 1-11.314 11.314 8 8 0 0 1 11.314-11.314zm-1.414 1.414a6 6 0 1 0-8.486 8.486 6 6 0 0 0 8.486-8.486z"/>
        <path fill="#66758A" d="M25.248 21.14a1 1 0 1 1 1.44-1.389A10.615 10.615 0 0 0 34.334 23c1.445 0 2.876-.294 4.204-.866a1 1 0 0 1 .791 1.836A12.611 12.611 0 0 1 34.334 25a12.615 12.615 0 0 1-9.086-3.86zM20 47a1 1 0 1 1-2 0c0-7.732 6.268-14 14-14s14 6.268 14 14a1 1 0 0 1-2 0c0-6.627-5.373-12-12-12s-12 5.373-12 12z"/>
        <path fill="#66758A" d="M26 34.999a1 1 0 1 1 2 0V36a4 4 0 1 0 8 0v-1.001a1 1 0 1 1 2 0V36a6 6 0 1 1-12 0v-1.001z"/>
    </g>
</svg>
