<svg preserveAspectRatio="xMinYMin meet" viewBox="0 0 16 16" fill="none" xmlns="http://www.w3.org/2000/svg">
<path d="M8 7C7.70333 7 7.41332 7.08797 7.16665 7.2528C6.91997 7.41762 6.72771 7.65189 6.61418 7.92597C6.50065 8.20006 6.47094 8.50166 6.52882 8.79264C6.5867 9.08361 6.72956 9.35088 6.93934 9.56066C7.14912 9.77044 7.41639 9.9133 7.70737 9.97118C7.99834 10.0291 8.29994 9.99935 8.57403 9.88582C8.84811 9.77229 9.08238 9.58003 9.24721 9.33335C9.41203 9.08668 9.5 8.79667 9.5 8.5C9.5 8.10218 9.34197 7.72064 9.06066 7.43934C8.77936 7.15804 8.39783 7 8 7Z" fill="#808C9D"/>
<path d="M13.5 7C13.2033 7 12.9133 7.08797 12.6666 7.2528C12.42 7.41762 12.2277 7.65189 12.1142 7.92597C12.0007 8.20006 11.9709 8.50166 12.0288 8.79264C12.0867 9.08361 12.2296 9.35088 12.4393 9.56066C12.6491 9.77044 12.9164 9.9133 13.2074 9.97118C13.4983 10.0291 13.7999 9.99935 14.074 9.88582C14.3481 9.77229 14.5824 9.58003 14.7472 9.33335C14.912 9.08668 15 8.79667 15 8.5C15 8.10218 14.842 7.72064 14.5607 7.43934C14.2794 7.15804 13.8978 7 13.5 7Z" fill="#808C9D"/>
<path d="M2.5 7C2.20333 7 1.91332 7.08797 1.66665 7.2528C1.41997 7.41762 1.22771 7.65189 1.11418 7.92597C1.00065 8.20006 0.970945 8.50166 1.02882 8.79264C1.0867 9.08361 1.22956 9.35088 1.43934 9.56066C1.64912 9.77044 1.91639 9.9133 2.20736 9.97118C2.49834 10.0291 2.79994 9.99935 3.07403 9.88582C3.34811 9.77229 3.58238 9.58003 3.74721 9.33335C3.91203 9.08668 4 8.79667 4 8.5C4 8.10218 3.84197 7.72064 3.56066 7.43934C3.27936 7.15804 2.89783 7 2.5 7Z" fill="#808C9D"/>
</svg>
