<svg xmlns="http://www.w3.org/2000/svg" preserveAspectRatio="xMinYMin meet" viewBox="0 0 16 16">
    <path fill="#99A3B1" fill-rule="evenodd" d="M.377 8.91a1.289 1.289 0 0 1 0-1.82L7.09.378A1.286 1.286 0 0 1 8.908.375l.002.003 6.713 6.712a1.289 1.289 0 0 1 0 1.82L8.91 15.624a1.288 1.288 0 0 1-1.82 0L.377 8.911zm8.463 3.257a.835.835 0 0 0-1.67 0 .834.834 0 0 0 1.67 0zm-.173-2.5V3.556C8.667 3.249 8.368 3 8 3c-.368 0-.667.249-.667.556v6.11c0 .307.299.556.667.556.368 0 .667-.249.667-.555z"/>
</svg>
