<svg xmlns="http://www.w3.org/2000/svg" width="64" height="64" viewBox="0 0 64 64">
    <g fill="none" fill-rule="evenodd">
        <path fill="#EBEDF0" d="M0 0h64v64H0z"/>
        <path fill="#66758A" d="M28.536 29.464a5 5 0 1 1-7.072 7.072 5 5 0 0 1 7.072-7.072zm-5.657 1.415a3 3 0 1 0 4.242 4.242 3 3 0 0 0-4.242-4.242zM17 26a1 1 0 0 1 0-2h24a1 1 0 0 1 0 2H17zM18 42a1 1 0 0 1 0-2h15a1 1 0 0 1 0 2H18z"/>
        <path fill="#66758A" d="M17 34a1 1 0 0 1 0-2h4a1 1 0 0 1 0 2h-4zM29 34a1 1 0 1 1 0-2h12a1 1 0 1 1 0 2H29z"/>
        <path fill="#66758A" d="M44 40V22.945l-2-4.566-2 4.566v17.053h4zm1 2h-6a1 1 0 0 1-1-1V22.736l.084-.402 2.329-5.315c.443-.925 1.547-1.303 2.44-.793.32.182.574.46.748.824l2.315 5.284.084.402v18.262a1 1 0 0 1-1 1z"/>
        <path fill="#66758A" d="M41 41a1 1 0 0 1 2 0v6.003a1 1 0 0 1-2 0v-6.004z"/>
        <path fill="#66758A" d="M38.532 47.888a2.15 2.15 0 0 1-.65.114c-.943.02-1.837-.554-1.882-1.552v-2.162c.001-.909.318-1.793.906-2.568l1-1.32a1 1 0 0 1 1.595 1.207L38.5 42.928c-.333.439-.5.903-.5 1.362v1.668l3.686-1.222a1 1 0 0 1 .628 0L46 45.957v-1.666c0-.46-.167-.924-.5-1.364l-1-1.32a1 1 0 0 1 1.594-1.208l.999 1.32c.59.776.906 1.66.907 2.57l-.001 2.207a1.434 1.434 0 0 1-.28.783c-.487.664-1.452.884-2.24.612L42 46.74l-3.468 1.149zM32 46V20.436c0-.257-.166-.436-.333-.436H18.333c-.167 0-.333.18-.333.436V46h14zm-.333-28C32.973 18 34 19.106 34 20.436V47a1 1 0 0 1-1 1H17a1 1 0 0 1-1-1V20.436C16 19.106 17.027 18 18.333 18h13.334z"/>
    </g>
</svg>
