<svg width="16" height="16" viewBox="0 0 16 16" fill="none" xmlns="http://www.w3.org/2000/svg">
<path fill-rule="evenodd" clip-rule="evenodd" d="M13.657 2.34329C14.7758 3.46213 15.5377 4.88759 15.8463 6.43943C16.155 7.99127 15.9965 9.59978 15.391 11.0616C14.7855 12.5233 13.7601 13.7728 12.4445 14.6518C11.1289 15.5308 9.58224 16 8 16C6.41777 16 4.87107 15.5308 3.55548 14.6518C2.2399 13.7728 1.21452 12.5233 0.609007 11.0616C0.00349361 9.59978 -0.154957 7.99127 0.153691 6.43943C0.46234 4.88759 1.22422 3.46213 2.343 2.34329C3.08588 1.60038 3.96781 1.01107 4.93844 0.609003C5.90907 0.20694 6.94939 0 8 0C9.05061 0 10.0909 0.20694 11.0616 0.609003C12.0322 1.01107 12.9141 1.60038 13.657 2.34329Z" fill="#DC0014"/>
<path fill-rule="evenodd" clip-rule="evenodd" d="M8.67 12.1673C8.67039 12.002 8.62176 11.8404 8.53025 11.7028C8.43874 11.5653 8.30847 11.4579 8.15593 11.3944C8.00339 11.3309 7.83543 11.3141 7.67333 11.3461C7.51122 11.3781 7.36225 11.4574 7.24527 11.5741C7.1283 11.6908 7.04857 11.8396 7.01619 12.0016C6.98381 12.1637 7.00023 12.3317 7.06337 12.4844C7.12651 12.637 7.23353 12.7676 7.37089 12.8594C7.50825 12.9513 7.66977 13.0003 7.835 13.0003C8.05645 13.0003 8.26884 12.9123 8.42543 12.7557C8.58203 12.5991 8.67 12.3867 8.67 12.1653V12.1673ZM8.497 9.66727V3.55628C8.48102 3.39461 8.40213 3.24572 8.27734 3.1417C8.15256 3.03768 7.99189 2.98689 7.83 3.00028C7.6681 2.98689 7.50743 3.03768 7.38265 3.1417C7.25787 3.24572 7.17898 3.39461 7.163 3.55628V9.66628C7.17898 9.82794 7.25787 9.97683 7.38265 10.0809C7.50743 10.1849 7.6681 10.2357 7.83 10.2223C7.99174 10.2357 8.15227 10.185 8.27702 10.0812C8.40178 9.9774 8.48077 9.82875 8.497 9.66727Z" fill="white"/>
</svg>
