<svg xmlns="http://www.w3.org/2000/svg" preserveAspectRatio="xMinYMin meet" viewBox="0 0 16 16">
    <path fill="#99A3B1" fill-rule="nonzero" d="M11.348 6.989C12.436 7.664 13 8.67 13 10.005 13 13.653 11.131 16 7.714 16 4.164 16 2 14.327 2 11.5c0-.895.362-1.618.936-2.052-.506-1.343-.305-2.362.691-2.882.515-.269 1.1-.16 1.778.309-.155-.43-.426-1.173-.523-1.453-.163-.47-.299-.896-.412-1.302-.623-2.247-.514-3.726.894-4.08 1.289-.323 2.019.946 2.639 3.353.094.367.182.746.282 1.205l.105.493c.256-.626.553-1.351.716-1.716C9.743 1.951 10.323.974 10.927.48c.369-.302.765-.434 1.171-.33 1.24.316 1.128 1.704.308 4.063-.099.284-.208.58-.333.907-.014.037-.528 1.34-.725 1.87zm-.902-.441c.228-.606.689-1.775.693-1.786.122-.318.227-.605.322-.878.591-1.7.67-2.695.39-2.767-.054-.013-.145.017-.29.136-.443.362-.968 1.247-1.542 2.53-.18.405-.67 1.617-.993 2.38.523.095.997.224 1.42.385zm-2.88-.54a18.877 18.877 0 0 1-.042-.184L7.307 4.81a30.648 30.648 0 0 0-.273-1.167c-.467-1.814-1-2.74-1.427-2.633-.58.146-.651 1.118-.173 2.842.107.384.236.791.393 1.243.108.314.461 1.277.591 1.644.2-.426.592-.685 1.148-.73zm.248 3.418l.134.191.144.196a3.4 3.4 0 0 1 .45-.314 4.243 4.243 0 0 1-.728-.073zm-.413 1.141c-.086-.116-.17-.232-.251-.346-1.564-2.104-2.654-2.98-3.06-2.769-.458.24-.564.717-.239 1.591C4 9.015 4.153 9 4.311 9c.871 0 2.1 1.087 2.726 2.213a3.38 3.38 0 0 1 .364-.646zM5.372 13.46c-.626-.314-1.229-.91-1.513-1.509a.5.5 0 0 1 .904-.428c.186.391.626.827 1.058 1.044.365.183.536.163.61.009C6.697 12.01 5.013 10 4.31 10 3.556 10 3 10.562 3 11.5 3 13.71 4.668 15 7.714 15 10.522 15 12 13.144 12 10.005 12 8.225 10.636 7.227 7.714 7c-.35 0-.448.104-.448.5 0 .753.293 1 1.396 1 1.076 0 1.825.2 2.248.663a.5.5 0 0 1-.37.837c-1.083 0-1.864.415-2.403 1.267-.495.783-.387 1.386.366 1.997a.5.5 0 1 1-.63.777 3.187 3.187 0 0 1-.703-.771c-.408.516-1.099.54-1.798.19z"/>
</svg>
