<svg preserveAspectRatio="xMinYMin meet" viewBox="0 0 16 16" fill="none" xmlns="http://www.w3.org/2000/svg">
<path d="M15.5002 13.99L14.5068 12.5V9C14.5068 7.66667 11.9735 6.24 11.0068 5.5" stroke="#808C9D" stroke-linecap="round" stroke-linejoin="round"/>
<path d="M12.2935 9.86201L9.86155 7.91334C9.52226 7.57405 8.97217 7.57405 8.63288 7.91334C8.2936 8.25263 8.2936 8.80272 8.63288 9.14201L10.9882 11.8V13.4667C10.9882 14.254 12.1135 15.4967 12.1135 15.4967" stroke="#808C9D" stroke-linecap="round" stroke-linejoin="round"/>
<path d="M9.00684 14.5H1.42284C0.916835 14.4996 0.506836 14.0893 0.506836 13.5833V1.416C0.506836 0.910107 0.916943 0.5 1.42284 0.5H10.0895C10.3326 0.499823 10.5658 0.596231 10.7379 0.768014C10.9099 0.939798 11.0067 1.17289 11.0068 1.416V8.83133" stroke="#808C9D" stroke-linecap="round" stroke-linejoin="round"/>
<path d="M6.50684 2.5H8.50684V4.5" stroke="#808C9D" stroke-linecap="round" stroke-linejoin="round"/>
<path d="M8.50684 2.5L2.50684 8" stroke="#808C9D" stroke-linecap="round" stroke-linejoin="round"/>
<path d="M3.5 10.5V12.5" stroke="#808C9D" stroke-linecap="round" stroke-linejoin="round"/>
<path d="M5.5 9V12.5" stroke="#808C9D" stroke-linecap="round" stroke-linejoin="round"/>
</svg>
