<svg width="24" height="24" viewBox="0 0 24 24" fill="none" xmlns="http://www.w3.org/2000/svg">
<path d="M10.0503 2.93264C17.4599 4.31196 15 14.25 12 17.25C8.25 17.25 10.3598 17.25 9.75 17.25H5.87048L4.16056 14.3613C7.3904 13.179 9.4067 8.25287 8.91033 8.84401C8.41396 9.43515 7.58039 9.99346 6.63044 9.82924C4.10051 9.39187 3.59058 11.0115 2.45068 10.6174C1.30363 10.2209 0.133906 8.88229 1.12079 7.85878C2.83075 6.08537 4.92052 4.31196 6.63044 3.32673C8.34036 2.34151 7.01042 0.568098 7.77038 0.765143C8.53035 0.962187 9.10032 1.35628 10.0503 2.93264Z" stroke="#BFC5CE" stroke-width="1.25" stroke-linecap="round" stroke-linejoin="round"/>
<rect x="1.5" y="20.25" width="15" height="3" rx="1.5" stroke="#BFC5CE" stroke-width="1.25"/>
<path d="M15 23.25H21.7941C22.5982 23.25 23.25 22.5784 23.25 21.75C23.25 20.9216 22.5982 20.25 21.7941 20.25H15" stroke="#BFC5CE" stroke-width="1.25"/>
<rect x="3" y="17.25" width="12" height="3" rx="1.5" stroke="#BFC5CE" stroke-width="1.25"/>
<path d="M14.5977 5.59835C16.0621 4.13388 18.4365 4.13388 19.901 5.59835C21.3654 7.06282 21.3654 9.43718 19.901 10.9017C18.5302 12.2724 16.3623 12.3601 14.8896 11.1649" stroke="#BFC5CE" stroke-width="1.25" stroke-linecap="round"/>
<path d="M19.375 12C19.375 11.6548 19.0952 11.375 18.75 11.375C18.4048 11.375 18.125 11.6548 18.125 12H19.375ZM18.125 12C18.125 15.9093 19.6885 19.0246 20.4408 20.5295L21.5589 19.9705C20.8115 18.4754 19.375 15.5907 19.375 12H18.125Z" fill="#BFC5CE"/>
</svg>
