<?xml version="1.0" encoding="UTF-8"?>
<svg preserveAspectRatio="xMinYMin meet" viewBox="0 0 16 16" version="1.1" xmlns="http://www.w3.org/2000/svg" xmlns:xlink="http://www.w3.org/1999/xlink">
    <title>icon-dashboard</title>
    <g id="icon-dashboard" stroke="none" stroke-width="1" fill="none" fill-rule="evenodd" stroke-linecap="round" stroke-linejoin="round">
        <path d="M6.000003,10.1946721 L6.000003,10.0046717 L6.000003,10.004672 C6.00000283,8.90010475 6.89543678,8.00467097 8.000004,8.00467097 C9.10457122,8.0046708 10.000005,8.90010475 10.000005,10.004672 C10.000005,10.004672 10.000005,10.004672 10.000005,10.004672 L10.000005,10.1946721" id="path" stroke="#000000"></path>
        <path d="M9.50000475,3.50666842 L8.000004,8.00667067" id="path" stroke="#000000"></path>
        <path d="M4.25133546,5.00466917 L4.25133545,5.00466917 C4.11326405,5.00466918 4.00133532,5.11659789 4.00133532,5.25466929 C4.00133533,5.3927407 4.11326405,5.50466942 4.25133545,5.50466942 C4.38940685,5.50466941 4.50133557,5.3927407 4.50133557,5.25466929 L4.50133557,5.25466929 C4.50133557,5.11659789 4.38940685,5.00466917 4.25133545,5.00466917 L4.25133545,5.00466917" id="path" stroke="#000000"></path>
        <path d="M12.7513397,7.50467042 L12.7513397,7.50467042 C12.6132683,7.50467043 12.5013396,7.61659914 12.5013396,7.75467054 C12.5013396,7.89274195 12.6132683,8.00467067 12.7513397,8.00467067 C12.8894111,8.00467066 13.0013398,7.89274195 13.0013398,7.75467054 L13.0013398,7.75467054 C13.0013398,7.61659914 12.8894111,7.50467042 12.7513397,7.50467042 L12.7513397,7.50467042" id="path" stroke="#000000"></path>
        <path d="M11.7513392,5.00466917 L11.7513392,5.00466917 C11.6132698,5.00393279 11.5007458,5.11526322 11.5000091,5.25333263 C11.4992727,5.39140203 11.6106031,5.50392609 11.7486725,5.50466275 C11.8867419,5.50539913 11.999266,5.3940687 12.0000027,5.25599929 C12.000005,5.25555604 12.0000062,5.25511278 12.0000062,5.25466951 L12.0000062,5.25466951 C12.0000062,5.11659811 11.8880775,5.00466939 11.7500061,5.00466939 L11.7500061,5.00466939" id="path" stroke="#000000"></path>
        <path d="M6.25133646,3.00466817 L6.25133645,3.00466817 C6.11326505,3.00466818 6.00133632,3.11659689 6.00133632,3.25466829 C6.00133633,3.3927397 6.11326505,3.50466842 6.25133645,3.50466842 C6.38940785,3.50466841 6.50133657,3.3927397 6.50133657,3.25466829 L6.50133657,3.25466829 C6.50133657,3.11659689 6.38940785,3.00466817 6.25133645,3.00466817 L6.25133645,3.00466817" id="path" stroke="#000000"></path>
        <path d="M14.2873407,12.0946729 L14.2873407,12.0946729 C10.5589522,9.30797818 5.44106964,9.30797818 1.71266778,12.0946729" id="path" stroke="#000000"></path>
        <path d="M13.30334,2.70136802 C16.2322748,5.63030282 16.2322748,10.3790385 13.30334,13.3079733 C10.3744052,16.2369081 5.62566948,16.2369081 2.69673468,13.3079733 C-0.232200116,10.3790385 -0.232200116,5.63030282 2.69673468,2.70136802 C5.62566948,-0.22756678 10.3744052,-0.22756678 13.30334,2.70136802" id="path" stroke="#000000"></path>
        <path d="M3.25133496,7.50467042 L3.25133495,7.50467042 C3.11326355,7.50467043 3.00133482,7.61659914 3.00133482,7.75467054 C3.00133483,7.89274195 3.11326355,8.00467067 3.25133495,8.00467067 C3.38940635,8.00467066 3.50133507,7.89274195 3.50133507,7.75467054 L3.50133507,7.75467054 C3.50133507,7.61659914 3.38940635,7.50467042 3.25133495,7.50467042" id="path" stroke="#000000"></path>
    </g>
</svg>