<svg xmlns="http://www.w3.org/2000/svg" preserveAspectRatio="xMinYMin meet" viewBox="0 0 16 16">
    <path fill="#99A3B1" fill-rule="evenodd" d="M13.033 9.707A.333.333 0 0 1 12.7 10h-1.367a.333.333 0 0 0-.333.333v5.334c0 .184.15.333.333.333h4a.667.667 0 0 0 .667-.667V.667A.667.667 0 0 0 15.333 0H.667A.667.667 0 0 0 0 .667v14.666c0 .369.298.667.667.667H8c.184 0 .333-.15.333-.333v-5.334A.333.333 0 0 0 8 10H6.667a.333.333 0 0 1-.334-.333v-2c0-.184.15-.334.334-.334H8c.184 0 .333-.149.333-.333v-.873a3.793 3.793 0 0 1 3.794-3.794H13c.184 0 .333.15.333.334v2c0 .184-.149.333-.333.333h-.873C11.504 5 11 5.504 11 6.127V7c0 .184.15.333.333.333h1.62a.333.333 0 0 1 .334.374l-.254 2z"/>
</svg>
