<svg width="16" height="17" viewBox="0 0 16 17" fill="none" xmlns="http://www.w3.org/2000/svg">
<path fill-rule="evenodd" clip-rule="evenodd" d="M1.8389 11.4196C1.34403 11.4196 0.909023 11.0918 0.772583 10.6161C0.636143 10.1404 0.831276 9.63188 1.2509 9.36957L13.5729 1.66691C13.9464 1.43315 14.4229 1.44279 14.7867 1.69147C15.1505 1.94016 15.3325 2.38066 15.2502 2.81357L12.8502 15.5956C12.7689 16.0276 12.44 16.3709 12.0118 16.4706C11.5836 16.5704 11.1369 16.4079 10.8729 16.0562L7.39957 11.4196H1.8389Z" stroke="white" stroke-linecap="round" stroke-linejoin="round"/>
<path fill-rule="evenodd" clip-rule="evenodd" d="M7.40007 11.4194H5.7334V14.8668C5.73337 15.2777 5.9607 15.655 6.32406 15.847C6.68742 16.0391 7.1272 16.0143 7.46673 15.7828L9.5854 14.3388L7.40007 11.4194Z" stroke="white" stroke-linecap="round" stroke-linejoin="round"/>
<path d="M7.39941 11.4195L14.7861 1.69287" stroke="white" stroke-linecap="round" stroke-linejoin="round"/>
</svg>
