<svg xmlns="http://www.w3.org/2000/svg" xmlns:xlink="http://www.w3.org/1999/xlink" preserveAspectRatio="xMinYMin meet" viewBox="0 0 16 16"><defs><style>.a,.c{fill:none;}.b{clip-path:url(#a);}.c{stroke:#99a3b1;stroke-linecap:round;stroke-linejoin:round;}</style><clipPath id="a"><rect class="a" width="16" height="16"/></clipPath></defs><g class="b"><path class="c" d="M1.5,12.5a1,1,0,0,1-1-1v-9a1,1,0,0,1,1-1h13a1,1,0,0,1,1,1v9a1,1,0,0,1-1,1Z" transform="translate(0 1)"/><path class="c" d="M10.5,1.5v11" transform="translate(0 1)"/><path class="c" d="M12.5,7.5h1" transform="translate(0 1)"/><path class="c" d="M12.5,9.5h1" transform="translate(0 1)"/><path class="c" d="M13,5h0a.25.25,0,1,0,.25.25h0A.25.25,0,0,0,13,5" transform="translate(0 1)"/><path class="c" d="M7.008,4.308a2.132,2.132,0,1,1-3.015,0,2.132,2.132,0,0,1,3.015,0" transform="translate(0 1)"/><path class="c" d="M8.5,10.315h0a3.807,3.807,0,0,0-6,0" transform="translate(0 1)"/><path class="c" d="M7.632,5.886h0a4.285,4.285,0,0,1-1.185.167h0A4.25,4.25,0,0,1,3.562,4.928" transform="translate(0 1)"/></g></svg>