<?xml version="1.0" encoding="UTF-8"?>
<svg viewBox="0 0 128 128" preserveAspectRatio="xMinYMin meet" version="1.1" xmlns="http://www.w3.org/2000/svg" xmlns:xlink="http://www.w3.org/1999/xlink">
    <!-- Generator: Sketch 52.6 (67491) - http://www.bohemiancoding.com/sketch -->
    <title>Brand / Symbol</title>
    <desc>Created with Sketch.</desc>
    <g id="Brand-/-Symbol" stroke="none" stroke-width="1" fill="none" fill-rule="evenodd">
        <g id="Metabeta-symbol" fill-rule="nonzero">
            <path d="M64,128 C28.653776,128 0,99.346224 0,64 C0,28.653776 28.653776,0 64,0 C99.346224,0 128,28.653776 128,64 C128,99.346224 99.346224,128 64,128 Z" id="Outer-circle" fill="#032342"></path>
            <path d="M64,116 C92.718807,116 116,92.718807 116,64 C116,35.281193 92.718807,12 64,12 C35.281193,12 12,35.281193 12,64 C12,92.718807 35.281193,116 64,116 Z" id="Inner-circle" fill="#FFFFFF"></path>
            <path d="M64,51.5550769 L90.7825018,32 L96,92 L84.1096077,92 L83.043062,79.7349767 L64,65.8308035 L44.956938,79.7349767 L43.8903923,92 L32,92 L37.2174982,32 L64,51.5550769 Z M74,59.1507937 L82,65 L81.0447761,54 L74,59.1507937 Z M54,59.1507937 L46.9552239,54 L46,65 L54,59.1507937 Z" id="M" fill="#032342"></path>
        </g>
    </g>
</svg>