<svg preserveAspectRatio="xMinYMin meet" viewBox="0 0 16 16" fill="none" xmlns="http://www.w3.org/2000/svg">
<path d="M4 4C4 4.27614 4.22386 4.5 4.5 4.5C4.77614 4.5 5 4.27614 5 4H4ZM5 0.5C5 0.223858 4.77614 0 4.5 0C4.22386 0 4 0.223858 4 0.5H5ZM11 4C11 4.27614 11.2239 4.5 11.5 4.5C11.7761 4.5 12 4.27614 12 4H11ZM12 0.5C12 0.223858 11.7761 0 11.5 0C11.2239 0 11 0.223858 11 0.5H12ZM0.5 12C0.223858 12 0 12.2239 0 12.5C0 12.7761 0.223858 13 0.5 13V12ZM15.5 13C15.7761 13 16 12.7761 16 12.5C16 12.2239 15.7761 12 15.5 12V13ZM0.5 9C0.223858 9 0 9.22386 0 9.5C0 9.77614 0.223858 10 0.5 10V9ZM15.5 10C15.7761 10 16 9.77614 16 9.5C16 9.22386 15.7761 9 15.5 9V10ZM0.5 6C0.223858 6 0 6.22386 0 6.5C0 6.77614 0.223858 7 0.5 7V6ZM15.5 7C15.7761 7 16 6.77614 16 6.5C16 6.22386 15.7761 6 15.5 6V7ZM12 15.5C12 15.7761 12.2239 16 12.5 16C12.7761 16 13 15.7761 13 15.5H12ZM13 6.5C13 6.22386 12.7761 6 12.5 6C12.2239 6 12 6.22386 12 6.5H13ZM9 15.5C9 15.7761 9.22386 16 9.5 16C9.77614 16 10 15.7761 10 15.5H9ZM10 6.5C10 6.22386 9.77614 6 9.5 6C9.22386 6 9 6.22386 9 6.5H10ZM6 15.5C6 15.7761 6.22386 16 6.5 16C6.77614 16 7 15.7761 7 15.5H6ZM7 6.5C7 6.22386 6.77614 6 6.5 6C6.22386 6 6 6.22386 6 6.5H7ZM3 15.5C3 15.7761 3.22386 16 3.5 16C3.77614 16 4 15.7761 4 15.5H3ZM4 6.5C4 6.22386 3.77614 6 3.5 6C3.22386 6 3 6.22386 3 6.5H4ZM2 3H14V2H2V3ZM15 4V14H16V4H15ZM14 15H2V16H14V15ZM1 14V4H0V14H1ZM2 15C1.44772 15 1 14.5523 1 14H0C0 15.1046 0.895431 16 2 16V15ZM15 14C15 14.5523 14.5523 15 14 15V16C15.1046 16 16 15.1046 16 14H15ZM14 3C14.5523 3 15 3.44772 15 4H16C16 2.89543 15.1046 2 14 2V3ZM2 2C0.895431 2 0 2.89543 0 4H1C1 3.44772 1.44772 3 2 3V2ZM5 4V0.5H4V4H5ZM12 4V0.5H11V4H12ZM0.5 13H15.5V12H0.5V13ZM0.5 10H15.5V9H0.5V10ZM0.5 7H15.5V6H0.5V7ZM13 15.5V6.5H12V15.5H13ZM10 15.5V6.5H9V15.5H10ZM7 15.5V6.5H6V15.5H7ZM4 15.5V6.5H3V15.5H4Z" fill="#808C9D"/>
</svg>
