<svg preserveAspectRatio="xMinYMin meet" viewBox="0 0 17 16" fill="none" xmlns="http://www.w3.org/2000/svg">
<path fill-rule="evenodd" clip-rule="evenodd" d="M9.15998 8C10.0878 8 10.84 7.2165 10.84 6.25C10.84 5.2835 10.0878 4.5 9.15998 4.5C8.23214 4.5 7.47998 5.2835 7.47998 6.25C7.47998 7.2165 8.23214 8 9.15998 8Z" stroke="#808C9D" stroke-linecap="round" stroke-linejoin="round"/>
<path d="M6.27979 11.5C6.27979 9.84315 7.56921 8.5 9.15979 8.5C10.7504 8.5 12.0398 9.84315 12.0398 11.5" stroke="#808C9D" stroke-linecap="round" stroke-linejoin="round"/>
<path d="M4.35986 0.5V15.5" stroke="#808C9D" stroke-linecap="round" stroke-linejoin="round"/>
<path d="M15.8799 2V4" stroke="#808C9D" stroke-linecap="round" stroke-linejoin="round"/>
<path d="M15.8799 6V8" stroke="#808C9D" stroke-linecap="round" stroke-linejoin="round"/>
<path d="M15.8799 10V12" stroke="#808C9D" stroke-linecap="round" stroke-linejoin="round"/>
<path fill-rule="evenodd" clip-rule="evenodd" d="M1.47998 2C1.47998 1.17157 2.15155 0.5 2.97998 0.5H12.46C13.2884 0.5 13.96 1.17157 13.96 2V14C13.96 14.8284 13.2884 15.5 12.46 15.5H2.97998C2.15155 15.5 1.47998 14.8284 1.47998 14V2Z" stroke="#808C9D" stroke-linecap="round" stroke-linejoin="round"/>
</svg>
