<?xml version="1.0" encoding="UTF-8"?>
<svg preserveAspectRatio="xMinYMin meet" viewBox="0 0 16 16" version="1.1" xmlns="http://www.w3.org/2000/svg" xmlns:xlink="http://www.w3.org/1999/xlink">
    <title>icon-pitchdeck</title>
    <g id="icon-pitchdeck" stroke="none" stroke-width="1" fill="none" fill-rule="evenodd" stroke-linecap="round" stroke-linejoin="round">
        <polygon id="path" stroke="#000000" points="1.5000005 3.500001 13.5000065 3.500001 13.5000065 12.5000055 1.5000005 12.5000055"></polygon>
        <path d="M7.5000035,14.5000065 L7.5000035,12.5000055" id="path" stroke="#000000"></path>
        <path d="M0.5,12.5000055 L14.500007,12.5000055" id="path" stroke="#000000"></path>
        <path d="M8.500004,15.1666735 C8.500004,14.7986733 8.05200378,14.5000065 7.5000035,14.5000065 C6.94800322,14.5000065 6.500003,14.7986733 6.500003,15.1666735" id="path" stroke="#000000"></path>
        <path d="M3.9626684,9.34467059 L3.96266835,9.34467051 C4.18463846,9.68699935 4.56882465,9.88906945 4.97666886,9.87800411 L4.97666882,9.87800411 C5.5450931,9.92359893 6.04505602,9.50493393 6.10000271,8.93733697 L6.10000272,8.93733706 C6.04336896,8.37107811 5.54391645,7.95432324 4.97666883,8.00000326 L4.97666881,8.00000326 C4.40843919,8.04681482 3.90762827,7.62937174 3.85133491,7.06200279 L3.85133494,7.06200246 C3.90796757,6.49481485 4.40855589,6.07756197 4.97666884,6.124002 L4.97666889,6.12400199 C5.38424776,6.11330246 5.76806928,6.31531276 5.99000273,6.65733559" id="path" stroke="#000000"></path>
        <path d="M4.98000224,9.87333752 L4.98000224,10.5000045" id="path" stroke="#000000"></path>
        <path d="M4.98000224,5.500002 L4.98000224,6.12666898" id="path" stroke="#000000"></path>
        <path d="M8.500004,10.5000045 L8.500004,8.5000035" id="path" stroke="#000000"></path>
        <path d="M10.500005,10.5000045 L10.500005,6.5000025" id="path" stroke="#000000"></path>
        <path d="M1.00000025,3.500001 C0.723860112,3.500001 0.5,3.27614089 0.5,3.00000075 L0.5,2.00000025 C0.5,1.72386011 0.723860112,1.5 1.00000025,1.5 L14.0000068,1.5 C14.2761469,1.5 14.500007,1.72386011 14.500007,2.00000025 L14.500007,3.00000075 C14.500007,3.27614089 14.2761469,3.500001 14.0000068,3.500001 L1.00000025,3.500001 Z" id="path" stroke="#000000"></path>
    </g>
</svg>