<svg xmlns="http://www.w3.org/2000/svg" preserveAspectRatio="xMinYMin meet" viewBox="0 0 64 64">
    <g fill="none" fill-rule="evenodd">
        <path fill="#EBEDF0" d="M0 0h64v64H0z"/>
        <path fill="#66758A" d="M26.05 17.023c2.6 1.56 2.6 4.397 0 5.957-2.27 1.362-5.83 1.362-8.1 0-2.6-1.56-2.6-4.398 0-5.957 2.27-1.362 5.83-1.362 8.1 0zm-1.029 1.715c-1.636-.982-4.406-.982-6.042 0-1.305.783-1.305 1.744 0 2.527 1.636.982 4.406.982 6.042 0 1.305-.783 1.305-1.744 0-2.527z"/>
        <path fill="#66758A" d="M16 20a1 1 0 0 1 2 0v6c0 .968 1.72 2 4 2 2.281 0 4-1.031 4-2v-6a1 1 0 0 1 2 0v6c0 2.345-2.758 4-6 4-3.241 0-6-1.656-6-4v-6zM26.05 35.023c2.6 1.56 2.6 4.397 0 5.957-2.27 1.362-5.83 1.362-8.1 0-2.6-1.56-2.6-4.398 0-5.957 2.27-1.362 5.83-1.362 8.1 0zm-1.029 1.715c-1.636-.982-4.406-.982-6.042 0-1.305.783-1.305 1.744 0 2.527 1.636.982 4.406.982 6.042 0 1.305-.783 1.305-1.744 0-2.527z"/>
        <path fill="#66758A" d="M16 38a1 1 0 0 1 2 0v6c0 .968 1.72 2 4 2 2.281 0 4-1.031 4-2v-6a1 1 0 0 1 2 0v6c0 2.345-2.758 4-6 4-3.241 0-6-1.656-6-4v-6zM46.05 17.023c2.6 1.56 2.6 4.397 0 5.957-2.27 1.362-5.83 1.362-8.1 0-2.6-1.56-2.6-4.398 0-5.957 2.27-1.362 5.83-1.362 8.1 0zm-1.029 1.715c-1.636-.982-4.406-.982-6.042 0-1.305.783-1.305 1.744 0 2.527 1.636.982 4.406.982 6.042 0 1.305-.783 1.305-1.744 0-2.527z"/>
        <path fill="#66758A" d="M36 20a1 1 0 0 1 2 0v6c0 .968 1.72 2 4 2 2.28 0 4-1.032 4-2v-6a1 1 0 0 1 2 0v6c0 2.344-2.759 4-6 4s-6-1.656-6-4v-6zM46.05 35.023c2.6 1.56 2.6 4.397 0 5.957-2.27 1.362-5.83 1.362-8.1 0-2.6-1.56-2.6-4.398 0-5.957 2.27-1.362 5.83-1.362 8.1 0zm-1.029 1.715c-1.636-.982-4.406-.982-6.042 0-1.305.783-1.305 1.744 0 2.527 1.636.982 4.406.982 6.042 0 1.305-.783 1.305-1.744 0-2.527z"/>
        <path fill="#66758A" d="M36 38a1 1 0 0 1 2 0v6c0 .968 1.72 2 4 2 2.28 0 4-1.032 4-2v-6a1 1 0 0 1 2 0v6c0 2.344-2.759 4-6 4s-6-1.656-6-4v-6z"/>
        <path fill="#66758A" d="M26.013 27.694a1 1 0 1 1 1.414-1.414l10.387 10.386A1 1 0 0 1 36.4 38.08L26.013 27.694z"/>
        <path fill="#66758A" d="M27.707 38.707a1 1 0 0 1-1.414-1.414L36.88 26.706a1 1 0 1 1 1.414 1.414L27.707 38.707z"/>
    </g>
</svg>
