<?xml version="1.0" encoding="UTF-8"?>
<svg preserveAspectRatio="xMinYMin meet" viewBox="0 0 16 16" version="1.1" xmlns="http://www.w3.org/2000/svg" xmlns:xlink="http://www.w3.org/1999/xlink">
    <title>icon-rocket</title>
    <g id="icon-rocket" stroke="none" stroke-width="1" fill="none" fill-rule="evenodd" stroke-linecap="round" stroke-linejoin="round">
        <path d="M15.0000075,1.04466719 L13.5613401,1.20466727 L13.5613402,1.20466726 C12.4329263,1.33008733 11.3807991,1.83581491 10.5780053,2.63866798 L4.04000206,9.17667125 L6.86667014,12.0046727 L13.4060067,5.4666694 L13.4060068,5.46666931 C14.2091206,4.66406224 14.7149008,3.61183505 14.8400075,2.48333449 L15.0000075,1.04466719 Z" id="path" stroke="#000000"></path>
        <path d="M4.04000202,9.17667125 L1.62533415,8.37133752 L1.62533414,8.37133752 C1.36361535,8.28441881 1.22191194,8.00179267 1.30883065,7.74007387 C1.33337733,7.66616183 1.37487262,7.59901647 1.43000071,7.54400377 L1.58466746,7.38933703 L1.58466761,7.38933687 C2.65592148,6.317883 4.24059561,5.94364948 5.67800299,6.42266972 L6.51467008,6.70133653 L4.04000202,9.17667125 Z" id="path" stroke="#000000"></path>
        <path d="M4.04000202,9.17667125 L1.62533415,8.37133752 L1.62533414,8.37133752 C1.36361535,8.28441881 1.22191194,8.00179267 1.30883065,7.74007387 C1.33337733,7.66616183 1.37487262,7.59901647 1.43000071,7.54400377 L1.58466746,7.38933703 L1.58466761,7.38933687 C2.65592148,6.317883 4.24059561,5.94364948 5.67800299,6.42266972 L6.51467008,6.70133653 L4.04000202,9.17667125 Z" id="path" stroke="#000000"></path>
        <path d="M6.8666701,12.0046727 L7.67200384,14.4193405 L7.67200382,14.4193405 C7.75892253,14.6810593 8.04154867,14.8227627 8.30326746,14.735844 C8.3771795,14.7112973 8.44432487,14.669802 8.49933756,14.6146739 L8.65467097,14.4600072 L8.65467094,14.4600072 C9.72589148,13.3886133 10.0998583,11.8039525 9.62067143,10.3666718 L9.34333796,9.53333807 L6.8666701,12.0046727 Z" id="path" stroke="#000000"></path>
        <path d="M6.8666701,12.0046727 L7.67200384,14.4193405 L7.67200382,14.4193405 C7.75892253,14.6810593 8.04154867,14.8227627 8.30326746,14.735844 C8.3771795,14.7112973 8.44432487,14.669802 8.49933756,14.6146739 L8.65467097,14.4600072 L8.65467094,14.4600072 C9.72589148,13.3886133 10.0998583,11.8039525 9.62067143,10.3666718 L9.34333796,9.53333807 L6.8666701,12.0046727 Z" id="path" stroke="#000000"></path>
        <path d="M5.18600259,12.3586728 L5.18600261,12.3586875 C5.18651668,12.7566157 5.0284012,13.1383346 4.74665839,13.4193481 C4.16132477,14.0046817 1.21332329,14.8333488 1.21332329,14.8333488 C1.21332329,14.8333488 2.04199037,11.8833473 2.627324,11.3000137 L2.62732404,11.3000136 C2.88445417,11.0422628 3.22668567,10.8870261 3.58999119,10.8633468" id="path" stroke="#000000"></path>
    </g>
</svg>