<svg xmlns="http://www.w3.org/2000/svg" width="64" height="64" viewBox="0 0 64 64">
    <g fill="none" fill-rule="evenodd">
        <path fill="#EBEDF0" d="M0 0h64v64H0z"/>
        <path fill="#66758A" d="M33.443 42.754a1 1 0 0 1 1.84.785 16.439 16.439 0 0 1-2.516 4.103 1 1 0 0 1-1.532.002 16.104 16.104 0 0 1-2.582-4.265 1 1 0 0 1 1.851-.758c.396.966.897 1.884 1.495 2.737a14.439 14.439 0 0 0 1.444-2.604zM33 19.467a1 1 0 0 1-2 0V17a1 1 0 0 1 2 0v2.467z"/>
        <path fill="#66758A" d="M37.049 21.83a4.603 4.603 0 0 1 1.785 4.888l-3.067 11.626a1 1 0 0 1-.967.745h-5.6a1 1 0 0 1-.967-.745L25.164 26.71a4.6 4.6 0 0 1 1.787-4.879l4.47-3.178a1 1 0 0 1 1.159 0l4.469 3.178zM32 20.694l-3.888 2.765a2.597 2.597 0 0 0-1.012 2.749l2.87 10.881h4.06l2.868-10.873a2.6 2.6 0 0 0-1.009-2.756L32 20.694z"/>
        <path fill="#66758A" d="M28.681 37.234a1 1 0 1 1 1.038 1.71l-3.128 1.898c-.507.3-1.13.326-1.641.08a1.639 1.639 0 0 1-.955-1.47v-3.646a3.527 3.527 0 0 1 2.094-3.154l1.334-.615a1 1 0 0 1 .837 1.816l-1.35.622c-.546.24-.903.776-.915 1.352v3.038l2.686-1.63zM38.006 35.847a1.54 1.54 0 0 0-.933-1.379l-1.333-.615a1 1 0 0 1 .837-1.816l1.317.608a3.54 3.54 0 0 1 2.111 3.182v3.647a1.622 1.622 0 0 1-.935 1.44 1.768 1.768 0 0 1-1.671-.078l-3.118-1.892a1 1 0 1 1 1.038-1.71l2.686 1.631v-3.018zM34.121 28.121a3 3 0 1 1-4.242-4.242 3 3 0 0 1 4.242 4.242zm-2.828-2.828a1 1 0 1 0 1.414 1.414 1 1 0 0 0-1.414-1.414zM46.667 20.667a1 1 0 0 1 0 2l-2.271-.002c-.15.01-.264.138-.255.37a.553.553 0 0 0 .08.274l2.475.874c.819.408 1.327 1.253 1.302 2.085.07 1.248-.88 2.319-2.19 2.399H43a1 1 0 1 1 0-2l2.746.002c.15-.01.264-.139.254-.37.004-.138-.072-.264-.08-.276l-2.474-.874c-.82-.407-1.329-1.253-1.303-2.086-.07-1.247.881-2.317 2.19-2.396h2.334z"/>
        <path fill="#66758A" d="M46 21.667a1 1 0 0 1-2 0v-1.334a1 1 0 0 1 2 0v1.334zM46 29a1 1 0 0 1-2 0v-1.333a1 1 0 0 1 2 0V29zM20.667 17.333a1 1 0 0 1 0 2l-2.271-.002c-.15.01-.265.138-.255.37a.553.553 0 0 0 .08.275l2.475.874c.819.407 1.327 1.252 1.302 2.084.07 1.249-.88 2.32-2.19 2.4H17a1 1 0 0 1 0-2l2.746.001c.15-.01.264-.138.254-.37.004-.137-.072-.263-.08-.276l-2.474-.873c-.82-.407-1.33-1.253-1.303-2.086-.07-1.247.881-2.317 2.19-2.397h2.334z"/>
        <path fill="#66758A" d="M20 18.333a1 1 0 0 1-2 0V17a1 1 0 0 1 2 0v1.333zM20 25.667a1 1 0 0 1-2 0v-1.334a1 1 0 0 1 2 0v1.334z"/>
    </g>
</svg>
