<?xml version="1.0" encoding="UTF-8"?>
<svg preserveAspectRatio="xMinYMin meet" viewBox="0 0 16 16" version="1.1" xmlns="http://www.w3.org/2000/svg" xmlns:xlink="http://www.w3.org/1999/xlink">
    <title>icon-user</title>
    <g id="icon-user" stroke="none" stroke-width="1" fill="none" fill-rule="evenodd" stroke-linecap="round" stroke-linejoin="round">
        <path d="M10.4748719,1.52512743 C11.8417059,2.89196145 11.8417059,5.10804255 10.4748719,6.47487657 C9.10803789,7.84171059 6.89195678,7.84171059 5.52512276,6.47487657 C4.15828875,5.10804255 4.15828875,2.89196145 5.52512276,1.52512743 C6.89195678,0.158293412 9.10803789,0.158293412 10.4748719,1.52512743" id="path" stroke="#000000"></path>
        <path d="M4.98400237,2.22266765 L4.98400237,2.22266765 C6.07889625,3.35870155 7.588897,4.00034187 9.16667113,4.00000187 L9.16667086,4.00000187 C9.95761792,4.00031551 10.7402916,3.83901646 11.466672,3.52600163" id="path" stroke="#000000"></path>
        <path d="M1.50000075,15.5000087 L1.50000075,15.5000087 C1.50000021,11.9101536 4.41014887,9.00000548 8.000004,9.00000548 C11.5898591,9.00000494 14.5000073,11.9101536 14.5000073,15.5000087 C14.5000073,15.5000087 14.5000073,15.5000087 14.5000073,15.5000087" id="path" stroke="#000000"></path>
        <path d="M5.50000275,9.49933808 L5.50000275,10.000005 L5.50000275,10.0000054 C5.50000296,11.3807194 6.61928998,12.5000066 8.000004,12.5000066 C9.38071802,12.5000064 10.5000053,11.3807194 10.5000053,10.0000054 L10.5000053,9.49933808" id="path" stroke="#000000"></path>
    </g>
</svg>