<svg xmlns="http://www.w3.org/2000/svg" width="172" height="64" viewBox="0 0 172 64">
    <g fill="none" fill-rule="evenodd">
        <path fill="#FFF" d="M0 0h172v64H0z"/>
        <path fill="#66758A" fill-rule="nonzero" d="M61.074 40.5l-1.547-4.57h-6.445l-1.547 4.57h-2.73l6.105-16.91h2.836l6.106 16.91h-2.778zM56.27 26.402l-2.52 7.418h5.11l-2.52-7.418h-.07zm19.78 6.012h-2.413c-.258-1.312-1.242-2.355-2.895-2.355-1.957 0-3.246 1.628-3.246 4.277 0 2.707 1.3 4.277 3.27 4.277 1.558 0 2.578-.855 2.87-2.285h2.438c-.27 2.625-2.367 4.406-5.332 4.406-3.527 0-5.824-2.414-5.824-6.398 0-3.914 2.297-6.387 5.8-6.387 3.177 0 5.11 2.04 5.333 4.465zm12.774 0H86.41c-.258-1.312-1.242-2.355-2.894-2.355-1.957 0-3.246 1.628-3.246 4.277 0 2.707 1.3 4.277 3.27 4.277 1.558 0 2.577-.855 2.87-2.285h2.438c-.27 2.625-2.368 4.406-5.332 4.406-3.528 0-5.825-2.414-5.825-6.398 0-3.914 2.297-6.387 5.801-6.387 3.176 0 5.11 2.04 5.332 4.465zm7.348-2.426c-1.77 0-3.012 1.348-3.14 3.211h6.163c-.058-1.886-1.254-3.21-3.023-3.21zm3.012 6.89h2.402c-.352 2.25-2.484 3.856-5.309 3.856-3.62 0-5.812-2.449-5.812-6.34 0-3.867 2.226-6.445 5.707-6.445 3.422 0 5.555 2.414 5.555 6.153v.867H93.02v.152c0 2.145 1.289 3.563 3.316 3.563 1.441 0 2.508-.727 2.848-1.805zm4.968 3.622V23.59h2.532V40.5h-2.532zm10.664-10.512c-1.77 0-3.011 1.348-3.14 3.211h6.164c-.059-1.886-1.254-3.21-3.024-3.21zm3.012 6.89h2.402c-.351 2.25-2.484 3.856-5.308 3.856-3.621 0-5.813-2.449-5.813-6.34 0-3.867 2.227-6.445 5.707-6.445 3.422 0 5.555 2.414 5.555 6.153v.867h-8.707v.152c0 2.145 1.29 3.563 3.316 3.563 1.442 0 2.508-.727 2.848-1.805zm4.875 3.622V28.172h2.414v2.098h.059c.41-1.442 1.511-2.297 2.965-2.297.363 0 .68.058.867.093v2.356c-.2-.082-.645-.14-1.137-.14-1.629 0-2.637 1.09-2.637 2.835V40.5h-2.53zm12.305-1.793c1.77 0 3.152-1.219 3.152-2.824v-.973l-3.035.188c-1.512.105-2.367.773-2.367 1.828 0 1.078.89 1.781 2.25 1.781zm-.703 2.004c-2.414 0-4.102-1.5-4.102-3.715 0-2.156 1.652-3.48 4.582-3.644l3.375-.2v-.949c0-1.371-.926-2.191-2.472-2.191-1.465 0-2.38.703-2.602 1.804h-2.39c.14-2.226 2.038-3.867 5.085-3.867 2.989 0 4.899 1.582 4.899 4.055V40.5h-2.426v-2.027h-.059c-.715 1.37-2.273 2.238-3.89 2.238zm9.937-15.457h2.543v2.918h2.344v2.004h-2.344v6.797c0 1.066.469 1.547 1.5 1.547.258 0 .668-.024.832-.06v2.005c-.281.07-.844.117-1.406.117-2.496 0-3.469-.95-3.469-3.328v-7.078h-1.793v-2.004h1.793v-2.918zm12.34 15.48c-3.527 0-5.848-2.425-5.848-6.398 0-3.961 2.332-6.387 5.848-6.387s5.848 2.426 5.848 6.387c0 3.973-2.32 6.398-5.848 6.398zm0-2.086c1.992 0 3.27-1.57 3.27-4.312 0-2.73-1.29-4.3-3.27-4.3s-3.27 1.57-3.27 4.3c0 2.742 1.29 4.312 3.27 4.312zm8.18 1.852V28.172h2.414v2.098h.058c.41-1.442 1.512-2.297 2.965-2.297.363 0 .68.058.867.093v2.356c-.199-.082-.644-.14-1.136-.14-1.63 0-2.637 1.09-2.637 2.835V40.5h-2.531z"/>
        <path fill="#66758A" d="M12.536 29.464a5 5 0 1 1-7.072 7.072 5 5 0 0 1 7.072-7.072zM6.879 30.88a3 3 0 1 0 4.242 4.242A3 3 0 0 0 6.88 30.88zM1 26a1 1 0 0 1 0-2h24a1 1 0 0 1 0 2H1zM2 42a1 1 0 0 1 0-2h15a1 1 0 0 1 0 2H2z"/>
        <path fill="#66758A" d="M1 34a1 1 0 0 1 0-2h4a1 1 0 0 1 0 2H1zM13 34a1 1 0 1 1 0-2h12a1 1 0 1 1 0 2H13z"/>
        <path fill="#66758A" d="M28 40V22.945l-2-4.566-2 4.566v17.053h4zm1 2h-6a1 1 0 0 1-1-1V22.736l.084-.402 2.329-5.315c.443-.925 1.547-1.303 2.44-.793.32.182.574.46.748.824l2.315 5.284.084.402v18.262a1 1 0 0 1-1 1z"/>
        <path fill="#66758A" d="M25 41a1 1 0 0 1 2 0v6.003a1 1 0 0 1-2 0v-6.004z"/>
        <path fill="#66758A" d="M22.532 47.888a2.15 2.15 0 0 1-.65.114c-.943.02-1.837-.554-1.882-1.552v-2.162c.001-.909.318-1.793.906-2.568l1-1.32a1 1 0 0 1 1.595 1.207L22.5 42.928c-.333.439-.5.903-.5 1.362v1.668l3.686-1.222a1 1 0 0 1 .628 0L30 45.957v-1.666c0-.46-.167-.924-.5-1.364l-1-1.32a1 1 0 0 1 1.594-1.208l.999 1.32c.59.776.906 1.66.907 2.57l-.001 2.207a1.434 1.434 0 0 1-.28.783c-.487.664-1.452.884-2.24.612L26 46.74l-3.468 1.149zM16 46V20.436c0-.257-.166-.436-.333-.436H2.333c-.167 0-.333.18-.333.436V46h14zm-.333-28C16.973 18 18 19.106 18 20.436V47a1 1 0 0 1-1 1H1a1 1 0 0 1-1-1V20.436C0 19.106 1.027 18 2.333 18h13.334z"/>
    </g>
</svg>
