<svg width="160" height="144" viewBox="0 0 160 144" fill="none" xmlns="http://www.w3.org/2000/svg">
<path d="M125.255 26.7452C150.248 51.7388 150.248 92.2614 125.255 117.255C100.261 142.248 59.7386 142.248 34.7452 117.255C9.7516 92.2612 9.7516 51.7386 34.7452 26.7452C59.7388 1.7516 100.261 1.7516 125.255 26.7452Z" fill="#E8F4FA"/>
<path d="M55.295 108.647C54.3199 108.934 53.2974 108.375 53.0112 107.4L33.3527 40.434C33.0665 39.4589 33.6249 38.4364 34.6 38.1502L85.124 23.3185C86.099 23.0323 87.1215 23.5907 87.4078 24.5657L107.066 91.5319C107.352 92.5069 106.794 93.5294 105.819 93.8157L55.295 108.647Z" fill="#F7E5C6" stroke="#191816" stroke-linecap="round" stroke-linejoin="round"/>
<path d="M45.3756 100.944C44.3595 100.944 43.5356 100.12 43.5356 99.1041V29.3121C43.5356 28.2959 44.3595 27.4721 45.3756 27.4721H98.0316C99.0478 27.4721 99.8716 28.2959 99.8716 29.3121V99.1041C99.8716 100.12 99.0478 100.944 98.0316 100.944H45.3756Z" fill="#FFF5E3" stroke="#191816" stroke-linecap="round" stroke-linejoin="round"/>
<path d="M52.7194 42.1601C51.7032 42.1601 50.8794 41.3363 50.8794 40.3201V36.6561C50.8794 35.6399 51.7032 34.8161 52.7194 34.8161H90.6714C91.6876 34.8161 92.5114 35.6399 92.5114 36.6561V40.3201C92.5114 41.3363 91.6876 42.1601 90.6714 42.1601H52.7194Z" stroke="#191816" stroke-linecap="round" stroke-linejoin="round"/>
<path d="M51.5278 54.9279H69.7278" stroke="#191816" stroke-linecap="round" stroke-linejoin="round"/>
<path d="M51.5278 59.1279H92.1277" stroke="#191816" stroke-linecap="round" stroke-linejoin="round"/>
<path d="M51.5278 64.7279H80.9278" stroke="#191816" stroke-linecap="round" stroke-linejoin="round"/>
<path d="M51.5278 78.7278H73.9278" stroke="#191816" stroke-linecap="round" stroke-linejoin="round"/>
<path d="M51.5278 84.3278H96.3277" stroke="#191816" stroke-linecap="round" stroke-linejoin="round"/>
<path d="M51.5278 88.5278H86.5277" stroke="#191816" stroke-linecap="round" stroke-linejoin="round"/>
<path d="M125.36 112.064C126.909 114.05 126.554 116.915 124.568 118.464C122.92 119.749 120.609 119.749 118.96 118.464L106.848 106.352L113.248 99.9521L125.36 112.064Z" fill="#DEA47A"/>
<path d="M125.36 118.512C127.117 116.741 127.117 113.884 125.36 112.112L113.328 99.9521L110.128 103.152L125.36 118.512Z" fill="#F0C2A1"/>
<path d="M125.36 112.064V112.064C126.909 114.05 126.554 116.915 124.568 118.464C122.92 119.749 120.609 119.749 118.96 118.464L106.848 106.352L113.248 99.9521L125.36 112.064Z" stroke="#191816" stroke-linecap="round" stroke-linejoin="round"/>
<path d="M100.35 96.7232L103.574 93.4982L111.653 101.575L108.429 104.8L100.35 96.7232Z" fill="#F0F0F0" stroke="#191816" stroke-linecap="round" stroke-linejoin="round"/>
<path d="M104.384 68.5281H104.384C112.414 76.5561 112.416 89.574 104.388 97.6042C96.3602 105.635 83.3423 105.636 75.3121 97.6085C67.2817 89.5805 67.2798 76.5625 75.3079 68.5323C75.3093 68.5309 75.3107 68.5295 75.3121 68.5281C83.3444 60.5105 96.3518 60.5105 104.384 68.5281H104.384Z" fill="#F0F0F0" stroke="#191816" stroke-linecap="round" stroke-linejoin="round"/>
<path d="M100.336 72.5121C106.128 78.3044 106.128 87.6955 100.335 93.4878C94.5429 99.2799 85.1518 99.2797 79.3596 93.4874C73.5676 87.6952 73.5676 78.3043 79.3596 72.5122C85.1268 66.7198 94.4976 66.6994 100.29 72.4665C100.305 72.4817 100.32 72.4969 100.336 72.5122L100.336 72.5121Z" fill="#00B8F0"/>
<path d="M100.336 72.5121C94.5435 66.7197 85.1523 66.7197 79.3599 72.5121C73.5675 78.3045 73.5675 87.6957 79.3599 93.4881C79.3599 93.5681 79.5039 93.6161 79.5679 93.6961L100.528 72.7201L100.336 72.5121Z" fill="#4ACFFF"/>
<path d="M100.336 72.5121V72.5121C106.128 78.3044 106.128 87.6955 100.335 93.4878C94.5429 99.2799 85.1518 99.2797 79.3596 93.4874C73.5676 87.6952 73.5676 78.3043 79.3596 72.5122V72.5122C85.1268 66.7198 94.4976 66.6994 100.29 72.4665C100.305 72.4817 100.32 72.4969 100.336 72.5122L100.336 72.5121Z" stroke="#191816" stroke-linecap="round" stroke-linejoin="round"/>
<path opacity="0.15" d="M93.8477 122.966C101.752 124.041 101.752 125.783 93.8477 126.858C85.9435 127.933 73.1282 127.933 65.2241 126.858C57.3198 125.783 57.3198 124.041 65.2241 122.966C73.1283 121.891 85.9436 121.891 93.8477 122.966Z" fill="#191816"/>
</svg>
