<svg preserveAspectRatio="xMinYMin meet" viewBox="0 0 160 144" fill="none" xmlns="http://www.w3.org/2000/svg">
<path d="M138.389 98.1674C152.841 65.9203 138.415 28.0632 106.167 13.6113C73.9203 -0.840538 36.0632 13.5854 21.6113 45.8326C7.15946 78.0797 21.5854 115.937 53.8326 130.389C86.0797 144.841 123.937 130.415 138.389 98.1674Z" fill="#E8F4FA"/>
<path d="M91.0896 54.508L90.4177 36.5125H90.0178C89.4928 38.9912 88.1321 41.2142 86.1636 42.8095C84.195 44.4047 81.7382 45.2751 79.2045 45.2751C76.6708 45.2751 74.214 44.4047 72.2455 42.8095C70.277 41.2142 68.9163 38.9912 68.3912 36.5125H67.9913L67.3195 54.508C67.3109 54.7549 67.3521 55.001 67.4407 55.2316C67.5293 55.4622 67.6634 55.6727 67.8351 55.8503C68.0068 56.028 68.2125 56.1692 68.44 56.2656C68.6674 56.362 68.912 56.4117 69.159 56.4115H89.25C89.4971 56.4117 89.7416 56.362 89.9691 56.2656C90.1966 56.1692 90.4023 56.028 90.5739 55.8503C90.7456 55.6727 90.8798 55.4622 90.9684 55.2316C91.0569 55.001 91.0982 54.7549 91.0896 54.508Z" fill="#614B44" stroke="#191816" stroke-linecap="round" stroke-linejoin="round"/>
<path d="M92.082 34.337C92.0768 33.8134 91.8909 33.3076 91.5557 32.9054C91.2205 32.5031 90.7566 32.229 90.2425 32.1295V30.6579C90.2425 27.7306 89.0796 24.9232 87.0097 22.8533C84.9399 20.7835 82.1325 19.6206 79.2052 19.6206C76.278 19.6206 73.4706 20.7835 71.4007 22.8533C69.3308 24.9232 68.168 27.7306 68.168 30.6579V32.1295C67.6327 32.2309 67.1523 32.5227 66.8154 32.9508C66.4786 33.3789 66.3081 33.9145 66.3354 34.4585C66.3627 35.0026 66.5859 35.5184 66.964 35.9106C67.342 36.3029 67.8492 36.545 68.3919 36.5924C68.917 39.0711 70.2777 41.2942 72.2462 42.8894C74.2147 44.4846 76.6715 45.3551 79.2052 45.3551C81.7389 45.3551 84.1957 44.4846 86.1643 42.8894C88.1328 41.2942 89.4935 39.0711 90.0185 36.5924C90.5801 36.5372 91.1015 36.2763 91.4824 35.86C91.8633 35.4437 92.0768 34.9012 92.082 34.337Z" fill="#FFCEBF" stroke="#191816" stroke-linecap="round" stroke-linejoin="round"/>
<path d="M75.0627 30.6579C74.7906 30.6579 74.5246 30.7386 74.2984 30.8897C74.0722 31.0409 73.8958 31.2557 73.7917 31.5071C73.6876 31.7585 73.6604 32.0351 73.7134 32.3019C73.7665 32.5688 73.8975 32.8139 74.0899 33.0063C74.2823 33.1987 74.5274 33.3297 74.7943 33.3828C75.0611 33.4359 75.3377 33.4086 75.5891 33.3045C75.8405 33.2004 76.0553 33.0241 76.2065 32.7978C76.3577 32.5716 76.4383 32.3056 76.4383 32.0336C76.4383 31.6687 76.2934 31.3188 76.0354 31.0608C75.7774 30.8028 75.4275 30.6579 75.0627 30.6579Z" fill="#191816"/>
<path d="M83.3478 30.6579C83.0757 30.6579 82.8098 30.7386 82.5836 30.8898C82.3573 31.0409 82.181 31.2558 82.0769 31.5071C81.9728 31.7585 81.9455 32.0351 81.9986 32.302C82.0517 32.5688 82.1827 32.8139 82.3751 33.0063C82.5675 33.1987 82.8126 33.3297 83.0794 33.3828C83.3463 33.4359 83.6229 33.4087 83.8743 33.3045C84.1256 33.2004 84.3405 33.0241 84.4916 32.7979C84.6428 32.5716 84.7235 32.3057 84.7235 32.0336C84.7256 31.8523 84.6915 31.6725 84.6231 31.5046C84.5548 31.3368 84.4535 31.1842 84.3253 31.0561C84.1972 30.9279 84.0447 30.8267 83.8768 30.7583C83.7089 30.6899 83.5291 30.6558 83.3478 30.6579Z" fill="#191816"/>
<path d="M74.598 35.7127C74.598 35.9847 74.5173 36.2507 74.3662 36.4769C74.215 36.7032 74.0002 36.8795 73.7488 36.9836C73.4974 37.0877 73.2208 37.115 72.954 37.0619C72.6871 37.0088 72.442 36.8778 72.2496 36.6854C72.0572 36.493 71.9262 36.2479 71.8731 35.981C71.82 35.7142 71.8473 35.4376 71.9514 35.1862C72.0555 34.9349 72.2318 34.72 72.4581 34.5688C72.6843 34.4177 72.9503 34.337 73.2223 34.337C73.4036 34.3349 73.5834 34.369 73.7513 34.4374C73.9192 34.5057 74.0717 34.607 74.1999 34.7352C74.328 34.8633 74.4293 35.0158 74.4977 35.1837C74.566 35.3516 74.6001 35.5314 74.598 35.7127Z" fill="#FFB59E"/>
<path d="M86.5623 35.7126C86.5623 35.9847 86.4817 36.2507 86.3305 36.4769C86.1794 36.7031 85.9645 36.8795 85.7131 36.9836C85.4618 37.0877 85.1852 37.1149 84.9183 37.0619C84.6515 37.0088 84.4063 36.8778 84.214 36.6854C84.0216 36.493 83.8905 36.2479 83.8375 35.981C83.7844 35.7142 83.8116 35.4376 83.9158 35.1862C84.0199 34.9348 84.1962 34.72 84.4224 34.5688C84.6486 34.4177 84.9146 34.337 85.1867 34.337C85.5515 34.337 85.9014 34.4819 86.1594 34.7399C86.4174 34.9979 86.5623 35.3478 86.5623 35.7126Z" fill="#FFB59E"/>
<path d="M76.4375 39.0238C77.2594 39.5639 78.2213 39.8517 79.2048 39.8517C80.1883 39.8517 81.1503 39.5639 81.9721 39.0238" stroke="#191816" stroke-linecap="round" stroke-linejoin="round"/>
<path d="M84.5799 17.7811C84.2352 17.7821 83.8986 17.8862 83.6136 18.0801C83.3285 18.2739 83.108 18.5486 82.9803 18.8688C83.4321 19.526 83.6924 20.2958 83.7321 21.0923C83.8038 22.4635 83.4878 23.8273 82.8203 25.0273C82.8203 26.3709 86.8513 30.5139 89.2187 32.2415C89.3481 32.3388 89.5011 32.4 89.6619 32.4186C89.8227 32.4373 89.9856 32.4128 90.1338 32.3476C90.282 32.2825 90.4102 32.179 90.5052 32.0479C90.6002 31.9168 90.6586 31.7628 90.6744 31.6016L91.3142 25.0913C91.4121 24.1561 91.3097 23.2108 91.0139 22.3182C90.7181 21.4257 90.2356 20.6064 89.5985 19.9148C88.9614 19.2233 88.1843 18.6753 87.319 18.3074C86.4537 17.9395 85.5199 17.7601 84.5799 17.7811Z" fill="#614B44"/>
<path d="M84.5796 17.7811C84.2349 17.7821 83.8983 17.8862 83.6133 18.0801C83.3282 18.2739 83.1077 18.5486 82.98 18.8688C83.4318 19.526 83.6921 20.2958 83.7318 21.0923C83.7478 21.2946 83.7478 21.4978 83.7318 21.7001C84.0141 21.5389 84.3344 21.456 84.6596 21.4602C86.1531 21.4713 87.5988 21.9882 88.7608 22.9265C89.9228 23.8648 90.7325 25.1692 91.058 26.6269L91.2179 25.0273C91.3052 24.1053 91.1981 23.1753 90.9036 22.2973C90.6091 21.4192 90.1337 20.6127 89.5081 19.9299C88.8825 19.247 88.1206 18.7029 87.2717 18.3328C86.4228 17.9627 85.5057 17.7747 84.5796 17.7811Z" fill="#947063"/>
<path d="M84.5799 17.7811C84.2352 17.7821 83.8986 17.8862 83.6136 18.0801C83.3285 18.2739 83.108 18.5486 82.9803 18.8688C83.4321 19.526 83.6924 20.2958 83.7321 21.0923C83.8038 22.4635 83.4878 23.8273 82.8203 25.0273C82.8203 26.3709 86.8513 30.5139 89.2187 32.2415C89.3481 32.3388 89.5011 32.4 89.6619 32.4186C89.8227 32.4373 89.9856 32.4128 90.1338 32.3476C90.282 32.2825 90.4102 32.179 90.5052 32.0479C90.6002 31.9168 90.6586 31.7628 90.6744 31.6016L91.3142 25.0913C91.4121 24.1561 91.3097 23.2108 91.0139 22.3182C90.7181 21.4257 90.2356 20.6064 89.5985 19.9148C88.9614 19.2233 88.1843 18.6753 87.319 18.3074C86.4537 17.9395 85.5199 17.7601 84.5799 17.7811Z" stroke="#191816" stroke-linecap="round" stroke-linejoin="round"/>
<path d="M79.2043 16.8533C80.3643 16.8461 81.4838 17.2799 82.3361 18.0669C83.1885 18.8539 83.71 19.9353 83.7951 21.0922C84.227 30.5779 67.6072 33.4572 65.7356 29.7301C64.9198 28.1305 65.6076 25.6191 67.8311 25.8911C67.9101 25.8989 67.9898 25.8889 68.0643 25.8616C68.1389 25.8344 68.2063 25.7908 68.2616 25.7339C68.317 25.677 68.3588 25.6084 68.3839 25.5331C68.4091 25.4579 68.417 25.3779 68.407 25.2992C68.071 20.1965 73.0618 16.8533 79.2043 16.8533Z" fill="#614B44"/>
<path d="M78.7413 19.3967C79.9013 19.3895 81.0208 19.8233 81.8731 20.6103C82.7255 21.3973 83.247 22.4787 83.3321 23.6356C83.3401 23.7688 83.3401 23.9023 83.3321 24.0355C83.6809 23.0953 83.8333 22.0936 83.78 21.0922C83.6949 19.9353 83.1734 18.8539 82.321 18.0669C81.4687 17.2799 80.3492 16.8461 79.1892 16.8533C73.2066 16.8533 68.3279 20.0525 68.3758 24.8513C69.7515 21.4921 73.8945 19.3967 78.7413 19.3967Z" fill="#947063"/>
<path d="M79.2043 16.8533C80.3643 16.8461 81.4838 17.2799 82.3361 18.0669C83.1885 18.8539 83.71 19.9353 83.7951 21.0922C84.227 30.5779 67.6072 33.4572 65.7356 29.7301C64.9198 28.1305 65.6076 25.6191 67.8311 25.8911C67.9101 25.8989 67.9898 25.8889 68.0643 25.8616C68.1389 25.8344 68.2063 25.7908 68.2616 25.7339C68.317 25.677 68.3588 25.6084 68.3839 25.5331C68.4091 25.4579 68.417 25.3779 68.407 25.2992C68.071 20.1965 73.0618 16.8533 79.2043 16.8533Z" stroke="#191816" stroke-linecap="round" stroke-linejoin="round"/>
<path opacity="0.15" d="M79.2044 120.796C104.603 120.796 125.193 119.557 125.193 118.028C125.193 116.5 104.603 115.261 79.2044 115.261C53.8056 115.261 33.2158 116.5 33.2158 118.028C33.2158 119.557 53.8056 120.796 79.2044 120.796Z" fill="#191816"/>
<path d="M69.0786 83.0769L72.7737 117.116H85.6345L89.3296 83.0769H69.0786Z" fill="#FFCEBF"/>
<path d="M86.7382 106.991L89.3296 83.0769H69.0786L71.67 106.991H86.7382Z" fill="#656769"/>
<path d="M88.7217 88.5955L89.3296 83.0769H69.0786L69.6865 88.5955H88.7217Z" fill="#525252"/>
<path d="M79.2041 90.4351V117.116" stroke="#191816" stroke-linecap="round" stroke-linejoin="round"/>
<path d="M71.6704 106.991H86.7387" stroke="#191816" stroke-linecap="round" stroke-linejoin="round"/>
<path d="M69.0786 83.0769L72.7737 117.116H85.6345L89.3296 83.0769H69.0786Z" stroke="#191816" stroke-linecap="round" stroke-linejoin="round"/>
<path d="M88.8353 117.116C89.1581 117.114 89.4745 117.027 89.7533 116.864C90.0322 116.701 90.2638 116.469 90.4253 116.19C90.5869 115.91 90.6727 115.593 90.6744 115.271C90.6761 114.948 90.5935 114.63 90.4349 114.349C89.9491 113.508 89.2492 112.81 88.4064 112.327C87.5635 111.843 86.6077 111.592 85.6361 111.598H84.8043C84.079 111.596 83.3604 111.737 82.6899 112.014C82.0194 112.29 81.4102 112.697 80.8973 113.209C80.3845 113.722 79.978 114.332 79.7015 115.002C79.4249 115.673 79.2836 116.391 79.2857 117.116H88.8353Z" fill="#525252" stroke="#191816" stroke-linecap="round" stroke-linejoin="round"/>
<path d="M79.2055 117.116C79.2076 116.391 79.0663 115.673 78.7898 115.002C78.5132 114.332 78.1067 113.722 77.5939 113.209C77.081 112.697 76.4718 112.29 75.8013 112.014C75.1308 111.737 74.4122 111.596 73.6869 111.598H72.7751C71.8036 111.592 70.8478 111.843 70.0049 112.327C69.162 112.81 68.4621 113.508 67.9763 114.349C67.8177 114.63 67.7352 114.948 67.7368 115.271C67.7385 115.593 67.8244 115.91 67.9859 116.19C68.1474 116.469 68.379 116.701 68.6579 116.864C68.9367 117.027 69.2532 117.114 69.5759 117.116H79.2055Z" fill="#525252" stroke="#191816" stroke-linecap="round" stroke-linejoin="round"/>
<path d="M95.7607 65.6092C95.7607 61.2183 94.0164 57.0073 90.9116 53.9025C87.8068 50.7976 83.5957 49.0533 79.2048 49.0533C74.8139 49.0533 70.6029 50.7976 67.498 53.9025C64.3932 57.0073 62.6489 61.2183 62.6489 65.6092V69.2883H69.0473V83.1249H89.3303V69.2883H95.7287L95.7607 65.6092Z" fill="#F0F0F0"/>
<path d="M79.2048 49.0533C74.8139 49.0533 70.6029 50.7976 67.498 53.9025C64.3932 57.0073 62.6489 61.2183 62.6489 65.6092V69.2883C62.6489 67.1142 63.0772 64.9613 63.9092 62.9527C64.7412 60.944 65.9607 59.1189 67.498 57.5815C69.0354 56.0442 70.8605 54.8247 72.8692 53.9927C74.8778 53.1607 77.0307 52.7324 79.2048 52.7324C81.379 52.7324 83.5318 53.1607 85.5405 53.9927C87.5491 54.8247 89.3742 56.0442 90.9116 57.5815C92.449 59.1189 93.6685 60.944 94.5005 62.9527C95.3325 64.9613 95.7607 67.1142 95.7607 69.2883V65.6092C95.7607 61.2183 94.0164 57.0073 90.9116 53.9025C87.8068 50.7976 83.5957 49.0533 79.2048 49.0533Z" fill="white"/>
<path d="M95.7607 65.6092C95.7607 61.2183 94.0164 57.0073 90.9116 53.9025C87.8068 50.7976 83.5957 49.0533 79.2048 49.0533C74.8139 49.0533 70.6029 50.7976 67.498 53.9025C64.3932 57.0073 62.6489 61.2183 62.6489 65.6092V69.2883H69.0473V83.1249H89.3303V69.2883H95.7287L95.7607 65.6092Z" stroke="#191816" stroke-linecap="round" stroke-linejoin="round"/>
<path d="M79.2049 54.572C80.5055 54.5711 81.7638 54.1095 82.7565 53.2691C83.7491 52.4287 84.412 51.2638 84.6275 49.9811C81.1182 48.7445 77.2916 48.7445 73.7822 49.9811C73.9977 51.2638 74.6606 52.4287 75.6533 53.2691C76.646 54.1095 77.9042 54.5711 79.2049 54.572Z" fill="#FFCEBF" stroke="#191816" stroke-linecap="round" stroke-linejoin="round"/>
<path d="M75.5258 60.0906C74.55 60.0906 73.6142 60.4782 72.9243 61.1682C72.2343 61.8581 71.8467 62.7939 71.8467 63.7697C71.8467 64.7454 72.2343 65.6812 72.9243 66.3712C73.6142 67.0611 74.55 67.4488 75.5258 67.4488V64.6814" stroke="#00AED9" stroke-linecap="round" stroke-linejoin="round"/>
<path d="M82.8848 67.4488C83.8605 67.4488 84.7963 67.0611 85.4863 66.3712C86.1762 65.6812 86.5639 64.7454 86.5639 63.7697C86.5639 62.7939 86.1762 61.8581 85.4863 61.1682C84.7963 60.4782 83.8605 60.0906 82.8848 60.0906V62.8419" stroke="#48CF3E" stroke-linecap="round" stroke-linejoin="round"/>
<path d="M78.2764 60.0906V62.8419" stroke="#FF4064" stroke-linecap="round" stroke-linejoin="round"/>
<path d="M80.1323 64.6815V67.4488" stroke="#FFB700" stroke-linecap="round" stroke-linejoin="round"/>
<path d="M78.5485 79.9257L72.9819 78.646C71.8719 78.3952 70.8804 77.7736 70.171 76.8839C69.4615 75.9941 69.0763 74.8892 69.0788 73.7512V69.2723H62.6804V73.7512C62.664 76.352 63.537 78.8802 65.1546 80.9168C66.7722 82.9533 69.0372 84.3758 71.5742 84.9485L77.1248 86.2281C77.3648 86.2925 77.6122 86.3247 77.8606 86.3241C78.2808 86.3714 78.7061 86.3354 79.1123 86.2183C79.5186 86.1012 79.8977 85.9052 80.2282 85.6416C80.5587 85.3779 80.8341 85.0518 81.0385 84.6817C81.2429 84.3116 81.3725 83.9049 81.4198 83.4848C81.467 83.0647 81.4311 82.6394 81.314 82.2331C81.1969 81.8269 81.0009 81.4477 80.7372 81.1172C80.4736 80.7867 80.1474 80.5114 79.7773 80.307C79.4073 80.1025 79.0006 79.973 78.5805 79.9257H78.5485Z" fill="#FFCEBF" stroke="#191816" stroke-linecap="round" stroke-linejoin="round"/>
<path d="M79.8602 79.9257L85.4268 78.646C86.5368 78.3952 87.5283 77.7736 88.2377 76.8839C88.9472 75.9941 89.3324 74.8892 89.3299 73.7512V69.2723H95.7283V73.7512C95.7447 76.352 94.8717 78.8802 93.2541 80.9168C91.6365 82.9533 89.3715 84.3758 86.8345 84.9485L81.2839 86.2281C81.0439 86.2925 80.7965 86.3247 80.5481 86.3241C79.6996 86.4196 78.8479 86.174 78.1805 85.6416C77.513 85.1091 77.0844 84.3333 76.9889 83.4848C76.8935 82.6363 77.139 81.7847 77.6715 81.1172C78.2039 80.4498 78.9798 80.0212 79.8282 79.9257H79.8602Z" fill="#FFCEBF" stroke="#191816" stroke-linecap="round" stroke-linejoin="round"/>
<path d="M95.7612 69.2883V64.6815" stroke="#191816" stroke-linecap="round" stroke-linejoin="round"/>
<path d="M58.9697 82.1651V115.117H50.6838L49.964 92.2266C49.9091 91.4814 49.5743 90.7846 49.0269 90.276C48.4795 89.7674 47.7599 89.4848 47.0127 89.4848C46.2655 89.4848 45.5459 89.7674 44.9985 90.276C44.4511 90.7846 44.1163 91.4814 44.0614 92.2266L43.3256 115.117H35.0557V82.1651H58.9697Z" fill="#F0D5A8"/>
<path d="M58.9697 82.1651H35.0557V86.772H58.9697V82.1651Z" fill="#DEBB7E"/>
<path d="M58.9697 82.1651V115.117H50.6838L49.964 92.2266C49.9091 91.4814 49.5743 90.7846 49.0269 90.276C48.4795 89.7674 47.7599 89.4848 47.0127 89.4848C46.2655 89.4848 45.5459 89.7674 44.9985 90.276C44.4511 90.7846 44.1163 91.4814 44.0614 92.2266L43.3256 115.117H35.0557V82.1651H58.9697Z" stroke="#191816" stroke-linecap="round" stroke-linejoin="round"/>
<path d="M34.6238 117.116C34.3129 117.109 34.0088 117.024 33.74 116.868C33.4711 116.711 33.2463 116.489 33.0865 116.222C32.9267 115.956 32.8372 115.653 32.8263 115.342C32.8154 115.031 32.8835 114.722 33.0242 114.445C33.4989 113.587 34.1938 112.871 35.0373 112.37C35.8807 111.87 36.8423 111.603 37.823 111.598H38.7508C39.7315 111.603 40.6931 111.87 41.5366 112.37C42.38 112.871 43.0749 113.587 43.5496 114.445C43.6903 114.722 43.7584 115.031 43.7475 115.342C43.7366 115.653 43.6471 115.956 43.4873 116.222C43.3276 116.489 43.1027 116.711 42.8339 116.868C42.565 117.024 42.2609 117.109 41.95 117.116H34.6238Z" fill="#915E3A" stroke="#191816" stroke-linecap="round" stroke-linejoin="round"/>
<path d="M52.1075 117.116C51.7949 117.114 51.4881 117.031 51.2168 116.876C50.9454 116.72 50.7185 116.498 50.5579 116.23C50.3972 115.962 50.3083 115.656 50.2995 115.344C50.2908 115.031 50.3625 114.722 50.5079 114.445C50.9826 113.587 51.6775 112.871 52.521 112.37C53.3644 111.87 54.326 111.603 55.3067 111.598H56.2185C57.1996 111.601 58.1618 111.867 59.0056 112.368C59.8493 112.869 60.5439 113.586 61.0173 114.445C61.1627 114.722 61.2344 115.031 61.2257 115.344C61.2169 115.656 61.128 115.962 60.9674 116.23C60.8067 116.498 60.5798 116.72 60.3085 116.876C60.0371 117.031 59.7304 117.114 59.4177 117.116H52.1075Z" fill="#915E3A" stroke="#191816" stroke-linecap="round" stroke-linejoin="round"/>
<path d="M28.6245 67.4488V69.2883H35.0229V82.0852H59.017V69.2883H65.4154V67.4488C65.4154 62.57 63.4773 57.8911 60.0275 54.4412C56.5777 50.9914 51.8987 49.0533 47.02 49.0533C42.1412 49.0533 37.4622 50.9914 34.0124 54.4412C30.5626 57.8911 28.6245 62.57 28.6245 67.4488Z" fill="#F0F0F0"/>
<path d="M47.02 49.0533C42.1412 49.0533 37.4622 50.9914 34.0124 54.4412C30.5626 57.8911 28.6245 62.57 28.6245 67.4488V69.2883H28.7045C29.1507 64.7425 31.2721 60.5253 34.6561 57.4572C38.04 54.3892 42.4443 52.6898 47.012 52.6898C51.5796 52.6898 55.9839 54.3892 59.3679 57.4572C62.7518 60.5253 64.8732 64.7425 65.3194 69.2883H65.4154V67.4488C65.4112 62.5713 63.4717 57.8948 60.0228 54.4459C56.5739 50.997 51.8974 49.0576 47.02 49.0533Z" fill="white"/>
<path d="M28.6245 67.4488V69.2884H35.0229V82.0852H59.017V69.2884H65.4154V67.4488C65.4067 63.4898 64.1209 59.6392 61.7492 56.4692C59.3775 53.2992 56.0463 50.9789 52.2507 49.8532C50.5554 49.3367 48.7921 49.0779 47.02 49.0854C42.1467 49.0854 37.4726 51.019 34.0237 54.4619C30.5748 57.9048 28.633 62.5756 28.6245 67.4488V67.4488Z" stroke="#191816" stroke-linecap="round" stroke-linejoin="round"/>
<path d="M42.1572 49.7092C42.2852 50.7009 43.005 54.508 46.956 54.508C50.9071 54.508 51.9308 50.8609 52.1867 49.7092C50.4915 49.1927 48.7282 48.9339 46.956 48.9414C45.3291 48.9795 43.7148 49.2378 42.1572 49.7092Z" fill="#D18660" stroke="#191816" stroke-linecap="round" stroke-linejoin="round"/>
<path d="M35.0557 63.7697V69.2883" stroke="#191816" stroke-linecap="round" stroke-linejoin="round"/>
<path d="M58.9702 63.7697V69.2883" stroke="#191816" stroke-linecap="round" stroke-linejoin="round"/>
<path d="M59.8812 34.337C59.879 33.8126 59.6942 33.3053 59.3584 32.9024C59.0227 32.4996 58.5571 32.2263 58.0416 32.1296V30.6579C58.0981 29.1742 57.8547 27.6943 57.3259 26.3069C56.7971 24.9195 55.9938 23.653 54.964 22.5833C53.9343 21.5136 52.6993 20.6626 51.333 20.0814C49.9667 19.5001 48.4972 19.2006 47.0124 19.2006C45.5276 19.2006 44.058 19.5001 42.6917 20.0814C41.3254 20.6626 40.0904 21.5136 39.0607 22.5833C38.031 23.653 37.2276 24.9195 36.6988 26.3069C36.17 27.6943 35.9266 29.1742 35.9831 30.6579V32.1296C35.4677 32.2263 35.002 32.4996 34.6663 32.9024C34.3306 33.3053 34.1457 33.8126 34.1436 34.337C34.1487 34.9013 34.3623 35.4437 34.7432 35.8601C35.1241 36.2764 35.6455 36.5372 36.207 36.5925C36.7243 39.0756 38.081 41.3048 40.049 42.9051C42.0169 44.5053 44.4759 45.3789 47.0124 45.3789C49.5488 45.3789 52.0078 44.5053 53.9758 42.9051C55.9437 41.3048 57.3004 39.0756 57.8177 36.5925C58.3793 36.5372 58.9006 36.2764 59.2815 35.8601C59.6624 35.4437 59.876 34.9013 59.8812 34.337Z" fill="#D18660" stroke="#191816" stroke-linecap="round" stroke-linejoin="round"/>
<path d="M42.8781 30.6579C42.606 30.6579 42.3401 30.7386 42.1138 30.8897C41.8876 31.0409 41.7113 31.2557 41.6072 31.5071C41.503 31.7585 41.4758 32.0351 41.5289 32.3019C41.582 32.5688 41.713 32.8139 41.9054 33.0063C42.0978 33.1987 42.3429 33.3297 42.6097 33.3828C42.8766 33.4359 43.1532 33.4086 43.4045 33.3045C43.6559 33.2004 43.8708 33.0241 44.0219 32.7978C44.1731 32.5716 44.2538 32.3056 44.2538 32.0336C44.2538 31.6687 44.1088 31.3188 43.8508 31.0608C43.5929 30.8028 43.2429 30.6579 42.8781 30.6579Z" fill="#191816"/>
<path d="M51.2117 30.6579C50.9403 30.6611 50.676 30.7444 50.4518 30.8975C50.2277 31.0506 50.0539 31.2665 49.9522 31.5181C49.8506 31.7698 49.8256 32.0458 49.8805 32.3116C49.9353 32.5774 50.0676 32.821 50.2606 33.0118C50.4536 33.2026 50.6988 33.3321 50.9652 33.3839C51.2316 33.4357 51.5073 33.4075 51.7578 33.3029C52.0082 33.1984 52.2221 33.022 52.3726 32.7962C52.5231 32.5703 52.6033 32.305 52.6034 32.0336C52.6034 31.8516 52.5673 31.6714 52.4971 31.5034C52.427 31.3355 52.3242 31.1831 52.1948 31.0551C52.0654 30.9272 51.9118 30.8262 51.7431 30.758C51.5743 30.6898 51.3937 30.6558 51.2117 30.6579Z" fill="#191816"/>
<path d="M42.4146 35.7127C42.4177 35.9892 42.3384 36.2605 42.1867 36.4918C42.035 36.7231 41.8178 36.9039 41.5629 37.0112C41.308 37.1185 41.0268 37.1474 40.7554 37.0943C40.484 37.0411 40.2345 36.9082 40.039 36.7126C39.8434 36.517 39.7105 36.2676 39.6573 35.9962C39.6041 35.7247 39.633 35.4436 39.7403 35.1887C39.8477 34.9337 40.0285 34.7166 40.2598 34.5649C40.4911 34.4132 40.7623 34.3338 41.0389 34.337C41.4038 34.337 41.7537 34.4819 42.0116 34.7399C42.2696 34.9979 42.4146 35.3478 42.4146 35.7127Z" fill="#BD704A"/>
<path d="M54.4116 35.7127C54.4148 35.9886 54.3359 36.2592 54.1849 36.4901C54.0339 36.7211 53.8177 36.9019 53.5637 37.0097C53.3097 37.1175 53.0294 37.1474 52.7584 37.0955C52.4874 37.0436 52.238 36.9124 52.0417 36.7184C51.8455 36.5244 51.7114 36.2765 51.6564 36.0061C51.6013 35.7357 51.628 35.4551 51.7328 35.1999C51.8376 34.9446 52.016 34.7263 52.2452 34.5727C52.4744 34.4191 52.7441 34.337 53.02 34.337C53.202 34.3349 53.3826 34.3689 53.5513 34.4371C53.7201 34.5053 53.8736 34.6063 54.0031 34.7342C54.1325 34.8622 54.2353 35.0145 54.3054 35.1825C54.3755 35.3505 54.4117 35.5307 54.4116 35.7127Z" fill="#BD704A"/>
<path d="M44.2534 39.0238C45.0721 39.5645 46.0316 39.8528 47.0127 39.8528C47.9939 39.8528 48.9534 39.5645 49.7721 39.0238" stroke="#191816" stroke-linecap="round" stroke-linejoin="round"/>
<path d="M58.9701 27.8906C58.9701 24.7088 57.7062 21.6573 55.4563 19.4074C53.2064 17.1575 50.1549 15.8936 46.9731 15.8936C43.7913 15.8936 40.7398 17.1575 38.4899 19.4074C36.24 21.6573 34.9761 24.7088 34.9761 27.8906V31.5697C36.3975 31.2091 37.7156 30.5228 38.8261 29.565C39.9366 28.6072 40.8091 27.4042 41.3745 26.051C46.6532 29.5222 53.4515 28.8184 58.9701 27.8906Z" fill="#724F3D"/>
<path d="M47.0211 20.5324C49.4066 20.5335 51.7372 21.2486 53.7128 22.5856C55.6884 23.9226 57.2186 25.8204 58.1063 28.0345L58.9701 27.8906C58.9701 24.7088 57.7062 21.6573 55.4563 19.4074C53.2064 17.1575 50.1549 15.8936 46.9731 15.8936C43.7913 15.8936 40.7398 17.1575 38.4899 19.4074C36.24 21.6573 34.9761 24.7088 34.9761 27.8906V31.5697C35.2074 28.5446 36.5808 25.7207 38.8177 23.671C41.0545 21.6213 43.9873 20.4992 47.0211 20.5324Z" fill="#A86C4D"/>
<path d="M58.9701 27.8906C58.9701 24.7088 57.7062 21.6573 55.4563 19.4074C53.2064 17.1575 50.1549 15.8936 46.9731 15.8936C43.7913 15.8936 40.7398 17.1575 38.4899 19.4074C36.24 21.6573 34.9761 24.7088 34.9761 27.8906V31.5697C36.3975 31.2091 37.7156 30.5228 38.8261 29.565C39.9366 28.6072 40.8091 27.4042 41.3745 26.051C46.6532 29.5222 53.4515 28.8184 58.9701 27.8906Z" stroke="#191816" stroke-linecap="round" stroke-linejoin="round"/>
<path d="M39.647 24.2115C40.1149 24.9545 40.7435 25.5831 41.4865 26.051" stroke="#191816" stroke-linecap="round" stroke-linejoin="round"/>
<path d="M58.9695 71.1279C58.9695 71.6158 58.7757 72.0836 58.4307 72.4286C58.0857 72.7736 57.6178 72.9674 57.1299 72.9674H51.2114C50.3629 72.9674 49.5492 73.3045 48.9492 73.9044C48.3493 74.5044 48.0122 75.3181 48.0122 76.1666C48.0122 77.0151 48.3493 77.8288 48.9492 78.4288C49.5492 79.0288 50.3629 79.3658 51.2114 79.3658H57.1299C58.2173 79.3679 59.2944 79.1556 60.2996 78.7409C61.3048 78.3263 62.2184 77.7174 62.988 76.9493C63.7577 76.1811 64.3683 75.2688 64.7849 74.2644C65.2015 73.26 65.4159 72.1833 65.4159 71.0959V69.2883H59.0175L58.9695 71.1279Z" fill="#D18660" stroke="#191816" stroke-linecap="round" stroke-linejoin="round"/>
<path d="M43.3417 60.0906C42.3659 60.0906 41.4301 60.4782 40.7402 61.1682C40.0502 61.8581 39.6626 62.7939 39.6626 63.7697C39.6626 64.7454 40.0502 65.6812 40.7402 66.3712C41.4301 67.0611 42.3659 67.4488 43.3417 67.4488V64.6814" stroke="#00AED9" stroke-linecap="round" stroke-linejoin="round"/>
<path d="M50.6831 67.4488C51.6589 67.4488 52.5946 67.0611 53.2846 66.3712C53.9746 65.6812 54.3622 64.7454 54.3622 63.7697C54.3622 62.7939 53.9746 61.8581 53.2846 61.1682C52.5946 60.4782 51.6589 60.0906 50.6831 60.0906V62.8419" stroke="#48CF3E" stroke-linecap="round" stroke-linejoin="round"/>
<path d="M46.0938 60.0906V62.8419" stroke="#FF4064" stroke-linecap="round" stroke-linejoin="round"/>
<path d="M47.9321 64.6815V67.4488" stroke="#FFB700" stroke-linecap="round" stroke-linejoin="round"/>
<path d="M35.0557 69.2883V76.2626C35.0542 77.5491 35.372 78.8159 35.9806 79.9494C36.5892 81.0828 37.4696 82.0476 38.5428 82.757L39.1347 83.1569L35.2156 88.3076L34.9277 88.1157C32.9656 86.8217 31.3545 85.062 30.238 82.9937C29.1215 80.9255 28.5345 78.613 28.5293 76.2626V69.2883H35.0557Z" fill="#D18660" stroke="#191816" stroke-linecap="round" stroke-linejoin="round"/>
<path d="M99.4399 82.1651V115.117H107.726L108.446 92.2266C108.501 91.4814 108.835 90.7846 109.383 90.276C109.93 89.7674 110.65 89.4848 111.397 89.4848C112.144 89.4848 112.864 89.7674 113.411 90.276C113.959 90.7846 114.293 91.4814 114.348 92.2266L115.084 115.117H123.354V82.1651H99.4399Z" fill="#FFCEBF" stroke="#191816" stroke-linecap="round" stroke-linejoin="round"/>
<path d="M108.206 99.6328L108.446 92.2906C108.501 91.5454 108.835 90.8486 109.383 90.34C109.93 89.8314 110.65 89.5487 111.397 89.5487C112.144 89.5487 112.864 89.8314 113.411 90.34C113.959 90.8486 114.293 91.5454 114.348 92.2906L114.588 99.6328H123.354V82.1651H99.4399V99.6328H108.206Z" fill="#DEBB7E"/>
<path d="M123.354 82.1651H99.4399V86.772H123.354V82.1651Z" fill="#B89558"/>
<path d="M108.206 99.6328L108.446 92.2906C108.501 91.5454 108.835 90.8486 109.383 90.34C109.93 89.8314 110.65 89.5487 111.397 89.5487C112.144 89.5487 112.864 89.8314 113.411 90.34C113.959 90.8486 114.293 91.5454 114.348 92.2906L114.588 99.6328H123.354V82.1651H99.4399V99.6328H108.206Z" stroke="#191816" stroke-linecap="round" stroke-linejoin="round"/>
<path d="M108.765 99.6328H99.3271C98.8854 99.6328 98.5273 99.9909 98.5273 100.433V103.44C98.5273 103.882 98.8854 104.24 99.3271 104.24H108.765C109.207 104.24 109.565 103.882 109.565 103.44V100.433C109.565 99.9909 109.207 99.6328 108.765 99.6328Z" fill="#F0D5A8" stroke="#191816" stroke-linecap="round" stroke-linejoin="round"/>
<path d="M123.466 99.6328H114.028C113.587 99.6328 113.229 99.9909 113.229 100.433V103.44C113.229 103.882 113.587 104.24 114.028 104.24H123.466C123.908 104.24 124.266 103.882 124.266 103.44V100.433C124.266 99.9909 123.908 99.6328 123.466 99.6328Z" fill="#F0D5A8" stroke="#191816" stroke-linecap="round" stroke-linejoin="round"/>
<path d="M123.786 117.116C124.097 117.109 124.401 117.024 124.669 116.868C124.938 116.711 125.163 116.489 125.323 116.222C125.483 115.956 125.572 115.653 125.583 115.342C125.594 115.031 125.526 114.722 125.385 114.445C124.91 113.587 124.216 112.871 123.372 112.37C122.529 111.87 121.567 111.603 120.586 111.598H119.675C118.694 111.603 117.732 111.87 116.889 112.37C116.045 112.871 115.351 113.587 114.876 114.445C114.735 114.722 114.667 115.031 114.678 115.342C114.689 115.653 114.778 115.956 114.938 116.222C115.098 116.489 115.323 116.711 115.592 116.868C115.86 117.024 116.164 117.109 116.475 117.116H123.786Z" fill="#915E3A" stroke="#191816" stroke-linecap="round" stroke-linejoin="round"/>
<path d="M106.301 117.116C106.614 117.114 106.921 117.031 107.192 116.876C107.464 116.72 107.691 116.498 107.851 116.23C108.012 115.962 108.101 115.656 108.109 115.344C108.118 115.031 108.046 114.722 107.901 114.445C107.426 113.587 106.732 112.871 105.888 112.37C105.045 111.87 104.083 111.603 103.102 111.598H102.191C101.209 111.601 100.247 111.867 99.4034 112.368C98.5597 112.869 97.8651 113.586 97.3917 114.445C97.2463 114.722 97.1746 115.031 97.1833 115.344C97.1921 115.656 97.281 115.962 97.4417 116.23C97.6023 116.498 97.8292 116.72 98.1005 116.876C98.3719 117.031 98.6787 117.114 98.9913 117.116H106.301Z" fill="#915E3A" stroke="#191816" stroke-linecap="round" stroke-linejoin="round"/>
<path d="M129.784 67.4488V69.2883H123.386V82.0852H99.4399V69.2883H93.0415V67.4488C93.0415 62.57 94.9796 57.8911 98.4294 54.4412C101.879 50.9914 106.558 49.0533 111.437 49.0533C116.316 49.0533 120.995 50.9914 124.444 54.4412C127.894 57.8911 129.832 62.57 129.832 67.4488H129.784Z" fill="#F0F0F0"/>
<path d="M111.389 49.0533C106.511 49.0576 101.835 50.997 98.3857 54.4459C94.9368 57.8948 92.9974 62.5713 92.9932 67.4488V69.2883H93.0891C93.5353 64.7425 95.6568 60.5253 99.0407 57.4572C102.425 54.3892 106.829 52.6898 111.397 52.6898C115.964 52.6898 120.369 54.3892 123.753 57.4572C127.136 60.5253 129.258 64.7425 129.704 69.2883H129.784V67.4488C129.784 62.57 127.846 57.8911 124.396 54.4412C120.946 50.9914 116.267 49.0533 111.389 49.0533Z" fill="white"/>
<path d="M129.784 67.4488V69.2883H123.386V82.0852H99.4399V69.2883H93.0415V67.4488C93.0415 62.57 94.9796 57.8911 98.4294 54.4412C101.879 50.9914 106.558 49.0533 111.437 49.0533C116.316 49.0533 120.995 50.9914 124.444 54.4412C127.894 57.8911 129.832 62.57 129.832 67.4488H129.784Z" stroke="#191816" stroke-linecap="round" stroke-linejoin="round"/>
<path d="M116.252 49.7092C116.124 50.7009 115.404 54.508 111.453 54.508C107.502 54.508 106.479 50.8609 106.223 49.7092C107.918 49.1927 109.681 48.9339 111.453 48.9414C113.08 48.9795 114.695 49.2378 116.252 49.7092Z" fill="#FFCEBF" stroke="#191816" stroke-linecap="round" stroke-linejoin="round"/>
<path d="M123.354 63.7697V69.2883" stroke="#191816" stroke-linecap="round" stroke-linejoin="round"/>
<path d="M99.4399 63.7697V69.2883" stroke="#191816" stroke-linecap="round" stroke-linejoin="round"/>
<path d="M99.4396 71.1279C99.4396 71.6158 99.6334 72.0836 99.9784 72.4286C100.323 72.7736 100.791 72.9674 101.279 72.9674H107.198C108.046 72.9674 108.86 73.3045 109.46 73.9044C110.06 74.5044 110.397 75.3181 110.397 76.1666C110.397 77.0151 110.06 77.8288 109.46 78.4288C108.86 79.0288 108.046 79.3658 107.198 79.3658H101.279C100.192 79.3679 99.1146 79.1556 98.1094 78.7409C97.1042 78.3263 96.1907 77.7174 95.421 76.9493C94.6514 76.1811 94.0408 75.2688 93.6242 74.2644C93.2076 73.26 92.9932 72.1833 92.9932 71.0959V69.2883H99.3916L99.4396 71.1279Z" fill="#FFCEBF" stroke="#191816" stroke-linecap="round" stroke-linejoin="round"/>
<path d="M98.5273 34.337C98.5295 33.8126 98.7144 33.3053 99.0501 32.9024C99.3858 32.4996 99.8514 32.2263 100.367 32.1296V30.6579C100.31 29.1742 100.554 27.6943 101.083 26.3069C101.611 24.9195 102.415 23.653 103.444 22.5833C104.474 21.5136 105.709 20.6626 107.076 20.0814C108.442 19.5001 109.911 19.2006 111.396 19.2006C112.881 19.2006 114.35 19.5001 115.717 20.0814C117.083 20.6626 118.318 21.5136 119.348 22.5833C120.378 23.653 121.181 24.9195 121.71 26.3069C122.238 27.6943 122.482 29.1742 122.425 30.6579V32.1296C122.941 32.2263 123.406 32.4996 123.742 32.9024C124.078 33.3053 124.263 33.8126 124.265 34.337C124.26 34.9013 124.046 35.4437 123.665 35.8601C123.284 36.2764 122.763 36.5372 122.201 36.5925C121.684 39.0756 120.327 41.3048 118.36 42.9051C116.392 44.5053 113.933 45.3789 111.396 45.3789C108.86 45.3789 106.401 44.5053 104.433 42.9051C102.465 41.3048 101.108 39.0756 100.591 36.5925C100.029 36.5372 99.5079 36.2764 99.127 35.8601C98.7461 35.4437 98.5325 34.9013 98.5273 34.337Z" fill="#FFCEBF" stroke="#191816" stroke-linecap="round" stroke-linejoin="round"/>
<path d="M115.532 30.6579C115.261 30.6611 114.996 30.7444 114.772 30.8975C114.548 31.0506 114.374 31.2665 114.273 31.5181C114.171 31.7698 114.146 32.0458 114.201 32.3116C114.256 32.5774 114.388 32.821 114.581 33.0118C114.774 33.2026 115.019 33.3321 115.285 33.3839C115.552 33.4357 115.828 33.4075 116.078 33.3029C116.329 33.1984 116.542 33.022 116.693 32.7962C116.843 32.5703 116.924 32.305 116.924 32.0336C116.924 31.8516 116.888 31.6714 116.817 31.5034C116.747 31.3355 116.645 31.1831 116.515 31.0551C116.386 30.9272 116.232 30.8262 116.063 30.758C115.895 30.6898 115.714 30.6558 115.532 30.6579Z" fill="#191816"/>
<path d="M107.198 30.6579C106.926 30.6579 106.66 30.7386 106.434 30.8897C106.208 31.0409 106.032 31.2557 105.927 31.5071C105.823 31.7585 105.796 32.0351 105.849 32.3019C105.902 32.5688 106.033 32.8139 106.226 33.0063C106.418 33.1987 106.663 33.3297 106.93 33.3828C107.197 33.4359 107.473 33.4086 107.725 33.3045C107.976 33.2004 108.191 33.0241 108.342 32.7978C108.493 32.5716 108.574 32.3056 108.574 32.0336C108.574 31.6687 108.429 31.3188 108.171 31.0608C107.913 30.8028 107.563 30.6579 107.198 30.6579Z" fill="#191816"/>
<path d="M115.995 35.7127C115.992 35.9892 116.071 36.2605 116.223 36.4918C116.375 36.7231 116.592 36.9039 116.847 37.0112C117.102 37.1185 117.383 37.1474 117.654 37.0943C117.926 37.0411 118.175 36.9082 118.371 36.7126C118.566 36.517 118.699 36.2676 118.752 35.9962C118.806 35.7247 118.777 35.4436 118.669 35.1887C118.562 34.9337 118.381 34.7166 118.15 34.5649C117.919 34.4132 117.647 34.3338 117.371 34.337C117.006 34.337 116.656 34.4819 116.398 34.7399C116.14 34.9979 115.995 35.3478 115.995 35.7127Z" fill="#FFB59E"/>
<path d="M103.998 35.7127C103.995 35.9886 104.074 36.2592 104.225 36.4901C104.376 36.7211 104.592 36.9019 104.846 37.0097C105.1 37.1175 105.38 37.1474 105.651 37.0955C105.922 37.0436 106.172 36.9124 106.368 36.7184C106.564 36.5244 106.698 36.2765 106.753 36.0061C106.808 35.7357 106.782 35.4551 106.677 35.1999C106.572 34.9446 106.394 34.7263 106.165 34.5727C105.935 34.4191 105.666 34.337 105.39 34.337C105.208 34.3349 105.027 34.3689 104.858 34.4371C104.69 34.5053 104.536 34.6063 104.407 34.7342C104.277 34.8622 104.174 35.0145 104.104 35.1825C104.034 35.3505 103.998 35.5307 103.998 35.7127Z" fill="#FFB59E"/>
<path d="M108.638 39.0238C109.456 39.5645 110.416 39.8528 111.397 39.8528C112.378 39.8528 113.338 39.5645 114.156 39.0238" stroke="#191816" stroke-linecap="round" stroke-linejoin="round"/>
<path d="M111.389 19.6206C112.839 19.6185 114.275 19.9025 115.615 20.4565C116.955 21.0104 118.173 21.8233 119.198 22.8486C120.223 23.874 121.036 25.0915 121.59 26.4316C122.144 27.7716 122.428 29.2078 122.426 30.6579V31.6656C121.622 31.6531 120.856 31.3261 120.291 30.755C119.726 30.1838 119.407 29.4139 119.403 28.6104C119.359 28.3163 119.255 28.0343 119.098 27.7818C118.942 27.5292 118.735 27.3116 118.49 27.1422C118.246 26.9728 117.969 26.8553 117.678 26.7969C117.386 26.7386 117.086 26.7406 116.795 26.8028C113.2 27.528 109.497 27.528 105.902 26.8028C105.615 26.7478 105.319 26.7513 105.033 26.8131C104.747 26.8749 104.477 26.9938 104.238 27.1625C103.999 27.3313 103.797 27.5464 103.643 27.7952C103.489 28.044 103.387 28.3212 103.343 28.6104C103.339 29.4139 103.02 30.1838 102.454 30.755C101.889 31.3261 101.123 31.6531 100.319 31.6656V30.6579C100.317 29.2051 100.602 27.7663 101.158 26.4242C101.714 25.082 102.53 23.863 103.559 22.8373C104.587 21.8115 105.809 20.9993 107.152 20.4472C108.496 19.8952 109.936 19.6143 111.389 19.6206Z" fill="#A86C4D" stroke="#191816" stroke-linecap="round" stroke-linejoin="round"/>
<path d="M125.69 29.0423C125.873 29.7439 125.916 30.4748 125.816 31.193C125.717 31.9113 125.477 32.6028 125.11 33.2283C124.743 33.8537 124.256 34.4007 123.678 34.8379C123.099 35.2752 122.44 35.5942 121.739 35.7767L118.875 36.5285C118.796 36.5445 118.714 36.5362 118.64 36.5048C118.566 36.4734 118.503 36.4203 118.459 36.3525C118.412 36.2872 118.387 36.2089 118.387 36.1286C118.387 36.0482 118.412 35.9699 118.459 35.9046C119.022 35.3481 119.427 34.6519 119.632 33.8873C119.838 33.1227 119.836 32.3173 119.627 31.5537C119.469 31.0761 119.134 30.6773 118.69 30.4393C118.247 30.2012 117.729 30.1421 117.244 30.274C116.246 30.5236 115.204 30.5292 114.204 30.2904C113.204 30.0516 112.277 29.5754 111.5 28.9022C110.723 28.229 110.12 27.3785 109.741 26.4228C109.363 25.4671 109.22 24.4342 109.326 23.4117C109.425 22.0856 109.944 20.8254 110.806 19.8133C111.669 18.8012 112.831 18.0895 114.124 17.7811C116.248 17.2309 118.502 17.5449 120.394 18.6543C122.286 19.7638 123.661 21.5781 124.218 23.6997L125.69 29.0423Z" fill="#724F3D"/>
<path d="M125.69 29.0423C125.873 29.7439 125.916 30.4748 125.816 31.193C125.717 31.9113 125.477 32.6028 125.11 33.2283C124.743 33.8537 124.256 34.4007 123.678 34.8379C123.099 35.2752 122.44 35.5942 121.739 35.7767L118.875 36.5285C118.796 36.5445 118.714 36.5362 118.64 36.5048C118.566 36.4734 118.503 36.4203 118.459 36.3525C118.412 36.2872 118.387 36.2089 118.387 36.1286C118.387 36.0482 118.412 35.9699 118.459 35.9046C119.022 35.3481 119.427 34.6519 119.632 33.8873C119.838 33.1227 119.836 32.3173 119.627 31.5537C119.469 31.0761 119.134 30.6773 118.69 30.4393C118.247 30.2012 117.729 30.1421 117.244 30.274C116.246 30.5236 115.204 30.5292 114.204 30.2904C113.204 30.0516 112.277 29.5754 111.5 28.9022C110.723 28.229 110.12 27.3785 109.741 26.4228C109.363 25.4671 109.22 24.4342 109.326 23.4117C109.425 22.0856 109.944 20.8254 110.806 19.8133C111.669 18.8012 112.831 18.0895 114.124 17.7811C116.248 17.2309 118.502 17.5449 120.394 18.6543C122.286 19.7638 123.661 21.5781 124.218 23.6997L125.69 29.0423Z" fill="#724F3D"/>
<path d="M109.389 23.4117C109.488 22.0856 110.007 20.8254 110.87 19.8133C111.732 18.8012 112.894 18.0895 114.188 17.7811C116.311 17.2309 118.566 17.5449 120.458 18.6543C122.35 19.7638 123.725 21.5781 124.281 23.6997L125.673 29.0423C125.896 29.9079 125.896 30.8161 125.673 31.6817L124.585 27.5387C124.029 25.4136 122.651 23.5964 120.756 22.4866C118.86 21.3767 116.601 21.0651 114.476 21.6202C113.338 21.9518 112.309 22.5798 111.494 23.4399C110.679 24.3 110.107 25.3612 109.837 26.515C109.452 25.5285 109.299 24.4668 109.389 23.4117Z" fill="#A86C4D"/>
<path d="M125.69 29.0423C125.873 29.7439 125.916 30.4748 125.816 31.193C125.717 31.9113 125.477 32.6028 125.11 33.2283C124.743 33.8537 124.256 34.4006 123.678 34.8379C123.099 35.2752 122.44 35.5942 121.739 35.7767L118.875 36.5285C118.796 36.5445 118.714 36.5362 118.64 36.5048C118.566 36.4734 118.503 36.4203 118.459 36.3525C118.412 36.2872 118.387 36.2089 118.387 36.1286C118.387 36.0482 118.412 35.9699 118.459 35.9046C119.022 35.3481 119.427 34.6519 119.632 33.8873C119.838 33.1227 119.836 32.3173 119.627 31.5537C119.469 31.0761 119.134 30.6773 118.69 30.4393C118.247 30.2012 117.729 30.1421 117.244 30.274C116.246 30.5236 115.204 30.5292 114.204 30.2904C113.204 30.0516 112.277 29.5754 111.5 28.9022C110.723 28.229 110.12 27.3785 109.741 26.4228C109.363 25.4671 109.22 24.4342 109.326 23.4117C109.425 22.0856 109.944 20.8254 110.806 19.8133C111.669 18.8012 112.831 18.0895 114.124 17.7811C116.248 17.2309 118.502 17.5449 120.394 18.6543C122.286 19.7638 123.661 21.5781 124.218 23.6997L125.69 29.0423Z" stroke="#191816" stroke-linecap="round" stroke-linejoin="round"/>
<path d="M124.793 25.5392C124.882 25.8922 125.041 26.224 125.259 26.5153C125.478 26.8066 125.752 27.0516 126.066 27.2361C126.38 27.4206 126.728 27.5409 127.088 27.5901C127.449 27.6393 127.816 27.6164 128.168 27.5227" stroke="#191816" stroke-linecap="round" stroke-linejoin="round"/>
<path d="M107.725 60.0906C106.75 60.0906 105.814 60.4782 105.124 61.1682C104.434 61.8581 104.046 62.7939 104.046 63.7697C104.046 64.7454 104.434 65.6812 105.124 66.3712C105.814 67.0611 106.75 67.4488 107.725 67.4488V64.6814" stroke="#00AED9" stroke-linecap="round" stroke-linejoin="round"/>
<path d="M115.067 67.4488C116.043 67.4488 116.979 67.0611 117.669 66.3712C118.359 65.6812 118.746 64.7454 118.746 63.7697C118.746 62.7939 118.359 61.8581 117.669 61.1682C116.979 60.4782 116.043 60.0906 115.067 60.0906V62.8419" stroke="#48CF3E" stroke-linecap="round" stroke-linejoin="round"/>
<path d="M110.478 60.0906V62.8419" stroke="#FF4064" stroke-linecap="round" stroke-linejoin="round"/>
<path d="M112.316 64.6815V67.4488" stroke="#FFB700" stroke-linecap="round" stroke-linejoin="round"/>
<path d="M123.354 69.2883V76.2626C123.356 77.5491 123.038 78.8159 122.429 79.9494C121.821 81.0828 120.94 82.0476 119.867 82.757L119.275 83.1569L123.194 88.3076L123.482 88.1157C125.444 86.8217 127.056 85.062 128.172 82.9937C129.289 80.9255 129.876 78.613 129.881 76.2626V69.2883H123.354Z" fill="#FFCEBF" stroke="#191816" stroke-linecap="round" stroke-linejoin="round"/>
<path d="M89.3301 69.2883V63.7697" stroke="#191816" stroke-linecap="round" stroke-linejoin="round"/>
<path d="M69.0786 69.2883V63.7697" stroke="#191816" stroke-linecap="round" stroke-linejoin="round"/>
</svg>
