<svg preserveAspectRatio="xMinYMin meet" viewBox="0 0 160 144" fill="none" xmlns="http://www.w3.org/2000/svg">
<path d="M143.618 72.0028C143.617 62.451 141.479 53.0205 137.359 44.4027C133.24 35.7849 127.244 28.1984 119.811 22.1993C112.378 16.2002 103.696 11.9407 94.4032 9.73305C85.11 7.52542 75.4406 7.42564 66.1038 9.44104C56.767 11.4564 47.9997 15.5359 40.4446 21.3803C32.8895 27.2248 26.7381 34.686 22.4416 43.2169C18.1451 51.7479 15.8123 61.1323 15.6143 70.682C15.4163 80.2318 17.3581 89.7048 21.2974 98.4065H137.905C141.681 90.1166 143.629 81.1118 143.618 72.0028Z" fill="#E8F4FA"/>
<path d="M21.2974 98.4065C26.3748 109.613 34.5745 119.12 44.9148 125.787C55.2552 132.454 67.2979 136 79.6014 136C91.9049 136 103.948 132.454 114.288 125.787C124.628 119.12 132.828 109.613 137.905 98.4065H21.2974Z" fill="white"/>
<path d="M17.2012 98.4065H142.018" stroke="#191816" stroke-linecap="round" stroke-linejoin="round"/>
<path d="M10 98.4065H14.0006" stroke="#191816" stroke-linecap="round" stroke-linejoin="round"/>
<path d="M145.219 98.4065H149.219" stroke="#191816" stroke-linecap="round" stroke-linejoin="round"/>
<path opacity="0.15" d="M77.8494 104.808C77.8494 106.408 68.4561 107.576 56.8705 107.576C45.2849 107.576 35.8916 106.344 35.8916 104.808C35.8916 103.271 45.2849 102.055 56.8705 102.055C68.4561 102.055 77.8494 103.287 77.8494 104.808Z" fill="#191816"/>
<path d="M108.67 29.885H117.727C118.576 29.885 119.39 30.2222 119.99 30.8224C120.59 31.4226 120.927 32.2366 120.927 33.0855V98.3425H105.469V33.0855C105.469 32.2366 105.806 31.4226 106.407 30.8224C107.007 30.2222 107.821 29.885 108.67 29.885Z" fill="#FF6242"/>
<path d="M84.4104 47.5515H93.4677C94.3165 47.5515 95.1305 47.8887 95.7307 48.4889C96.3309 49.0891 96.6681 49.9031 96.6681 50.752V98.3425H81.21V50.752C81.21 49.9031 81.5471 49.0891 82.1473 48.4889C82.7475 47.8887 83.5616 47.5515 84.4104 47.5515Z" fill="#FFE500"/>
<path d="M60.0872 63.0095H69.1444C69.9932 63.0095 70.8073 63.3467 71.4075 63.9469C72.0077 64.5471 72.3449 65.3612 72.3449 66.21V98.3424H56.8867V66.21C56.8867 65.3612 57.2239 64.5471 57.8241 63.9469C58.4243 63.3467 59.2384 63.0095 60.0872 63.0095Z" fill="#00B8F0"/>
<path d="M68.6643 63.0095H60.5672C59.5911 63.0095 58.6549 63.3973 57.9647 64.0875C57.2745 64.7777 56.8867 65.7139 56.8867 66.69V72.2108C56.8867 71.2347 57.2745 70.2985 57.9647 69.6083C58.6549 68.918 59.5911 68.5303 60.5672 68.5303H68.6643C69.6405 68.5303 70.5766 68.918 71.2669 69.6083C71.9571 70.2985 72.3449 71.2347 72.3449 72.2108V66.69C72.3449 65.7139 71.9571 64.7777 71.2669 64.0875C70.5766 63.3973 69.6405 63.0095 68.6643 63.0095Z" fill="#4ACFFF"/>
<path d="M92.9556 47.5517H84.8585C83.8934 47.56 82.9702 47.9471 82.2878 48.6295C81.6054 49.3119 81.2183 50.2351 81.21 51.2002V56.7209C81.21 55.7448 81.5977 54.8086 82.288 54.1184C82.9782 53.4282 83.9143 53.0404 84.8905 53.0404H92.9876C93.9637 53.0404 94.8999 53.4282 95.5901 54.1184C96.2803 54.8086 96.6681 55.7448 96.6681 56.7209V51.2002C96.6639 50.7168 96.5646 50.239 96.3757 49.7941C96.1869 49.3492 95.9122 48.9458 95.5675 48.607C95.2228 48.2682 94.8147 48.0006 94.3665 47.8195C93.9183 47.6385 93.4389 47.5474 92.9556 47.5517Z" fill="#FFF48C"/>
<path d="M117.247 29.885H109.15C108.174 29.885 107.237 30.2728 106.547 30.963C105.857 31.6532 105.469 32.5894 105.469 33.5655V39.0863C105.469 38.1101 105.857 37.174 106.547 36.4838C107.237 35.7935 108.174 35.4058 109.15 35.4058H117.247C118.223 35.4058 119.159 35.7935 119.849 36.4838C120.54 37.174 120.927 38.1101 120.927 39.0863V33.5975C120.932 33.1115 120.84 32.6295 120.656 32.1792C120.473 31.729 120.203 31.3195 119.861 30.9743C119.519 30.6291 119.111 30.3552 118.663 30.1682C118.214 29.9812 117.733 29.885 117.247 29.885Z" fill="#FF866E"/>
<path d="M108.67 29.885H117.727C118.576 29.885 119.39 30.2222 119.99 30.8224C120.59 31.4226 120.927 32.2366 120.927 33.0855V98.3425H105.469V33.0855C105.469 32.2366 105.806 31.4226 106.407 30.8224C107.007 30.2222 107.821 29.885 108.67 29.885Z" stroke="#191816" stroke-linecap="round" stroke-linejoin="round"/>
<path d="M60.0872 63.0095H69.1444C69.9932 63.0095 70.8073 63.3467 71.4075 63.9469C72.0077 64.5471 72.3449 65.3612 72.3449 66.21V98.3424H56.8867V66.21C56.8867 65.3612 57.2239 64.5471 57.8241 63.9469C58.4243 63.3467 59.2384 63.0095 60.0872 63.0095Z" stroke="#191816" stroke-linecap="round" stroke-linejoin="round"/>
<path d="M84.4104 47.5515H93.4677C94.3165 47.5515 95.1305 47.8887 95.7307 48.4889C96.3309 49.0891 96.6681 49.9031 96.6681 50.752V98.3425H81.21V50.752C81.21 49.9031 81.5471 49.0891 82.1473 48.4889C82.7475 47.8887 83.5616 47.5515 84.4104 47.5515Z" stroke="#191816" stroke-linecap="round" stroke-linejoin="round"/>
<path d="M41.4282 58.5931L53.4459 47.8396C54.2349 47.1339 55.2518 46.7362 56.3103 46.7195L69.5761 46.4794C70.6492 46.4587 71.6784 46.0493 72.4725 45.3273L95.6117 24.3644" stroke="#191816" stroke-linecap="round" stroke-linejoin="round"/>
<path d="M85.5942 24.3644H95.5316V34.3017" stroke="#191816" stroke-linecap="round" stroke-linejoin="round"/>
<path d="M91.3393 90.4693C91.2831 90.0573 91.1249 89.6658 90.8789 89.3305C90.633 88.9951 90.3072 88.7265 89.9311 88.5491C89.555 88.3681 89.1393 88.2849 88.7225 88.3073C88.3058 88.3297 87.9014 88.4569 87.5468 88.6771C83.193 91.133 78.177 92.1575 73.2088 91.6055C72.8213 91.55 72.4262 91.5847 72.0543 91.7068C71.6824 91.8289 71.3437 92.0352 71.0645 92.3096C70.8007 92.5851 70.6031 92.917 70.4866 93.2802C70.3702 93.6434 70.338 94.0284 70.3924 94.4059L71.1125 99.5906C71.1896 100.152 71.4545 100.672 71.8641 101.064C72.2738 101.456 72.8041 101.698 73.3688 101.751C78.7602 102.12 84.167 101.306 89.211 99.3666C90.1236 98.9926 90.886 98.3259 91.3784 97.4714C91.8709 96.6169 92.0654 95.623 91.9314 94.6459L91.3393 90.4693Z" fill="#6DD627" stroke="#191816" stroke-linejoin="round"/>
<path d="M82.9701 96.5505C82.8807 96.9126 82.6862 97.2402 82.4109 97.4918C82.1356 97.7435 81.792 97.908 81.4233 97.9646C81.0547 98.0212 80.6775 97.9674 80.3394 97.8099C80.0014 97.6524 79.7175 97.3983 79.5236 97.0797C79.3298 96.761 79.2346 96.3921 79.2502 96.0195C79.2657 95.6468 79.3913 95.2871 79.611 94.9858C79.8308 94.6844 80.1348 94.4548 80.4849 94.3261C80.8349 94.1973 81.2152 94.1751 81.5779 94.2622C81.821 94.3184 82.0505 94.4226 82.2528 94.5688C82.455 94.7149 82.6261 94.9001 82.7558 95.1132C82.8855 95.3264 82.9712 95.5634 83.0081 95.8102C83.0449 96.0571 83.0319 96.3087 82.9701 96.5505Z" fill="#C8FFA1"/>
<path d="M44.5326 75.2034C44.7046 74.8255 44.7803 74.4108 44.7529 73.9965C44.7255 73.5822 44.5958 73.1811 44.3754 72.8292C44.1551 72.4773 43.8509 72.1854 43.4902 71.9798C43.1295 71.7742 42.7234 71.6612 42.3083 71.6509C37.338 71.3493 32.5846 69.5094 28.7064 66.3862C28.4103 66.1291 28.0585 65.9444 27.6788 65.8467C27.299 65.749 26.9018 65.741 26.5184 65.8232C26.135 65.9055 25.776 66.0758 25.4697 66.3207C25.1635 66.5656 24.9184 66.8784 24.7539 67.2343L22.5616 72.0349C22.3195 72.5498 22.2604 73.1318 22.3943 73.6848C22.5282 74.2377 22.8469 74.7283 23.2977 75.0754C27.6707 78.2652 32.691 80.4558 38.0037 81.4922C38.9676 81.6702 39.9634 81.5213 40.833 81.0691C41.7027 80.6169 42.3965 79.8872 42.8044 78.9959L44.5326 75.2034Z" fill="#6DD627" stroke="#191816" stroke-linejoin="round"/>
<path d="M34.1951 75.7474C33.931 76.0112 33.5945 76.1908 33.2283 76.2634C32.8621 76.336 32.4825 76.2985 32.1377 76.1555C31.7928 76.0125 31.4981 75.7705 31.2907 75.46C31.0833 75.1495 30.9727 74.7846 30.9727 74.4112C30.9727 74.0379 31.0833 73.6729 31.2907 73.3624C31.4981 73.052 31.7928 72.81 32.1377 72.667C32.4825 72.524 32.8621 72.4864 33.2283 72.559C33.5945 72.6317 33.931 72.8112 34.1951 73.075C34.3708 73.2504 34.5101 73.4587 34.6052 73.688C34.7002 73.9172 34.7492 74.163 34.7492 74.4112C34.7492 74.6594 34.7002 74.9052 34.6052 75.1345C34.5101 75.3637 34.3708 75.572 34.1951 75.7474Z" fill="#C8FFA1"/>
<path d="M59.0947 86.197C59.0947 85.3185 58.7457 84.4759 58.1245 83.8547C57.5033 83.2335 56.6607 82.8845 55.7822 82.8845H44.7407C43.8622 82.8845 43.0196 83.2335 42.3984 83.8547C41.7772 84.4759 41.4282 85.3185 41.4282 86.197C41.4282 87.0755 41.7772 87.918 42.3984 88.5392C43.0196 89.1604 43.8622 89.5094 44.7407 89.5094H55.7822C56.6607 89.5094 57.5033 89.1604 58.1245 88.5392C58.7457 87.918 59.0947 87.0755 59.0947 86.197Z" fill="#FFE500"/>
<path d="M59.0947 86.197C59.0947 85.3185 58.7457 84.4759 58.1245 83.8547C57.5033 83.2335 56.6607 82.8845 55.7822 82.8845H44.7407C43.8622 82.8845 43.0196 83.2335 42.3984 83.8547C41.7772 84.4759 41.4282 85.3185 41.4282 86.197H59.0947Z" fill="#FFFACF"/>
<path d="M56.8867 92.8057C56.8867 91.9272 56.5377 91.0847 55.9165 90.4635C55.2952 89.8423 54.4527 89.4933 53.5742 89.4933H42.5327C41.6542 89.4933 40.8116 89.8423 40.1904 90.4635C39.5692 91.0847 39.2202 91.9272 39.2202 92.8057C39.2202 93.6843 39.5692 94.5268 40.1904 95.148C40.8116 95.7692 41.6542 96.1182 42.5327 96.1182H53.5742C54.0092 96.1182 54.4399 96.0325 54.8418 95.8661C55.2437 95.6996 55.6089 95.4556 55.9165 95.148C56.224 94.8404 56.468 94.4752 56.6345 94.0734C56.801 93.6715 56.8867 93.2407 56.8867 92.8057Z" fill="#FFE500"/>
<path d="M53.5742 89.5093H42.5327C41.6569 89.5093 40.8168 89.8561 40.1961 90.4738C39.5753 91.0916 39.2244 91.93 39.2202 92.8057H56.8226C56.8186 91.941 56.4766 91.1121 55.8696 90.4961C55.2626 89.8801 54.4388 89.526 53.5742 89.5093Z" fill="#FFFACF"/>
<path d="M56.8867 99.4469C56.8867 98.5683 56.5377 97.7258 55.9165 97.1046C55.2952 96.4834 54.4527 96.1344 53.5742 96.1344H42.5327C41.6542 96.1344 40.8116 96.4834 40.1904 97.1046C39.5692 97.7258 39.2202 98.5683 39.2202 99.4469C39.2202 100.325 39.5692 101.168 40.1904 101.789C40.8116 102.41 41.6542 102.759 42.5327 102.759H53.5742C54.4527 102.759 55.2952 102.41 55.9165 101.789C56.5377 101.168 56.8867 100.325 56.8867 99.4469Z" fill="#FFE500"/>
<path d="M53.5742 96.1344H42.5327C41.6542 96.1344 40.8116 96.4834 40.1904 97.1046C39.5692 97.7258 39.2202 98.5683 39.2202 99.4469H56.8226C56.8228 98.5793 56.4826 97.7463 55.8752 97.1269C55.2678 96.5075 54.4416 96.1512 53.5742 96.1344Z" fill="#FFFACF"/>
<path d="M74.5532 99.4469C74.5532 98.5683 74.2042 97.7258 73.583 97.1046C72.9618 96.4834 72.1192 96.1344 71.2407 96.1344H60.1992C59.3207 96.1344 58.4781 96.4834 57.8569 97.1046C57.2357 97.7258 56.8867 98.5683 56.8867 99.4469C56.8867 100.325 57.2357 101.168 57.8569 101.789C58.4781 102.41 59.3207 102.759 60.1992 102.759H71.2407C72.1192 102.759 72.9618 102.41 73.583 101.789C74.2042 101.168 74.5532 100.325 74.5532 99.4469Z" fill="#FFE500"/>
<path d="M71.2407 96.1344H60.1992C59.3207 96.1344 58.4781 96.4834 57.8569 97.1046C57.2357 97.7258 56.8867 98.5683 56.8867 99.4469H74.4892C74.4893 98.5793 74.1491 97.7463 73.5417 97.1269C72.9343 96.5075 72.1081 96.1512 71.2407 96.1344Z" fill="#FFFACF"/>
<path d="M74.5532 92.8057C74.5532 91.9272 74.2042 91.0847 73.583 90.4635C72.9618 89.8423 72.1192 89.4933 71.2407 89.4933H60.1992C59.3207 89.4933 58.4781 89.8423 57.8569 90.4635C57.2357 91.0847 56.8867 91.9272 56.8867 92.8057C56.8867 93.6843 57.2357 94.5268 57.8569 95.148C58.4781 95.7692 59.3207 96.1182 60.1992 96.1182H71.2407C71.6757 96.1182 72.1064 96.0325 72.5083 95.8661C72.9102 95.6996 73.2754 95.4556 73.583 95.148C73.8906 94.8404 74.1345 94.4752 74.301 94.0734C74.4675 93.6715 74.5532 93.2407 74.5532 92.8057Z" fill="#FFE500"/>
<path d="M71.2407 89.5093H60.1992C59.3234 89.5093 58.4833 89.8561 57.8626 90.4738C57.2418 91.0916 56.8909 91.93 56.8867 92.8057H74.4892C74.4851 91.941 74.1431 91.1121 73.5361 90.4961C72.9291 89.8801 72.1053 89.526 71.2407 89.5093Z" fill="#FFFACF"/>
<path d="M59.0947 86.197C59.0947 85.3185 58.7457 84.4759 58.1245 83.8547C57.5033 83.2335 56.6607 82.8845 55.7822 82.8845H44.7407C43.8622 82.8845 43.0196 83.2335 42.3984 83.8547C41.7772 84.4759 41.4282 85.3185 41.4282 86.197C41.4282 87.0755 41.7772 87.918 42.3984 88.5392C43.0196 89.1604 43.8622 89.5094 44.7407 89.5094H55.7822C56.6607 89.5094 57.5033 89.1604 58.1245 88.5392C58.7457 87.918 59.0947 87.0755 59.0947 86.197V86.197Z" stroke="#191816" stroke-linecap="round" stroke-linejoin="round"/>
<path d="M65.7197 79.5719C65.7197 78.6933 65.3707 77.8508 64.7495 77.2296C64.1283 76.6084 63.2857 76.2594 62.4072 76.2594H51.3657C50.4872 76.2594 49.6446 76.6084 49.0234 77.2296C48.4022 77.8508 48.0532 78.6933 48.0532 79.5719C48.0532 80.4504 48.4022 81.2929 49.0234 81.9141C49.6446 82.5353 50.4872 82.8843 51.3657 82.8843H62.4072C63.2857 82.8843 64.1283 82.5353 64.7495 81.9141C65.3707 81.2929 65.7197 80.4504 65.7197 79.5719Z" fill="#FFE500"/>
<path d="M62.4072 76.2594H51.3657C50.4872 76.2594 49.6446 76.6084 49.0234 77.2296C48.4022 77.8508 48.0532 78.6933 48.0532 79.5719H65.6557C65.6558 78.7043 65.3156 77.8713 64.7082 77.2519C64.1008 76.6325 63.2746 76.2762 62.4072 76.2594Z" fill="#FFFACF"/>
<path d="M65.7197 79.5719C65.7197 78.6933 65.3707 77.8508 64.7495 77.2296C64.1283 76.6084 63.2857 76.2594 62.4072 76.2594H51.3657C50.4872 76.2594 49.6446 76.6084 49.0234 77.2296C48.4022 77.8508 48.0532 78.6933 48.0532 79.5719C48.0532 80.4504 48.4022 81.2929 49.0234 81.9141C49.6446 82.5353 50.4872 82.8843 51.3657 82.8843H62.4072C63.2857 82.8843 64.1283 82.5353 64.7495 81.9141C65.3707 81.2929 65.7197 80.4504 65.7197 79.5719Z" stroke="#191816" stroke-linecap="round" stroke-linejoin="round"/>
<path d="M56.8866 92.8057C56.8866 91.9272 56.5377 91.0847 55.9165 90.4635C55.2952 89.8423 54.4527 89.4933 53.5742 89.4933H42.5327C41.6542 89.4933 40.8116 89.8423 40.1904 90.4635C39.5692 91.0847 39.2202 91.9272 39.2202 92.8057C39.2202 93.6843 39.5692 94.5268 40.1904 95.148C40.8116 95.7692 41.6542 96.1182 42.5327 96.1182H53.5742C54.0092 96.1182 54.4399 96.0325 54.8418 95.8661C55.2437 95.6996 55.6089 95.4556 55.9165 95.148C56.224 94.8404 56.468 94.4752 56.6345 94.0734C56.801 93.6715 56.8866 93.2407 56.8866 92.8057Z" stroke="#191816" stroke-linecap="round" stroke-linejoin="round"/>
<path d="M56.8866 99.4469C56.8866 98.5683 56.5377 97.7258 55.9165 97.1046C55.2952 96.4834 54.4527 96.1344 53.5742 96.1344H42.5327C41.6542 96.1344 40.8116 96.4834 40.1904 97.1046C39.5692 97.7258 39.2202 98.5683 39.2202 99.4469C39.2202 100.325 39.5692 101.168 40.1904 101.789C40.8116 102.41 41.6542 102.759 42.5327 102.759H53.5742C54.4527 102.759 55.2952 102.41 55.9165 101.789C56.5377 101.168 56.8866 100.325 56.8866 99.4469Z" stroke="#191816" stroke-linecap="round" stroke-linejoin="round"/>
<path d="M74.5532 99.4469C74.5532 98.5683 74.2042 97.7258 73.583 97.1046C72.9618 96.4834 72.1192 96.1344 71.2407 96.1344H60.1992C59.3207 96.1344 58.4781 96.4834 57.8569 97.1046C57.2357 97.7258 56.8867 98.5683 56.8867 99.4469C56.8867 100.325 57.2357 101.168 57.8569 101.789C58.4781 102.41 59.3207 102.759 60.1992 102.759H71.2407C72.1192 102.759 72.9618 102.41 73.583 101.789C74.2042 101.168 74.5532 100.325 74.5532 99.4469Z" stroke="#191816" stroke-linecap="round" stroke-linejoin="round"/>
<path d="M74.5532 92.8057C74.5532 91.9272 74.2042 91.0847 73.583 90.4635C72.9618 89.8423 72.1192 89.4933 71.2407 89.4933H60.1992C59.3207 89.4933 58.4781 89.8423 57.8569 90.4635C57.2357 91.0847 56.8867 91.9272 56.8867 92.8057C56.8867 93.6843 57.2357 94.5268 57.8569 95.148C58.4781 95.7692 59.3207 96.1182 60.1992 96.1182H71.2407C71.6757 96.1182 72.1064 96.0325 72.5083 95.8661C72.9102 95.6996 73.2754 95.4556 73.583 95.148C73.8906 94.8404 74.1345 94.4752 74.301 94.0734C74.4675 93.6715 74.5532 93.2407 74.5532 92.8057Z" stroke="#191816" stroke-linecap="round" stroke-linejoin="round"/>
<path d="M76.7612 86.197C76.7612 85.3185 76.4122 84.4759 75.791 83.8547C75.1698 83.2335 74.3272 82.8845 73.4487 82.8845H62.4072C61.5287 82.8845 60.6861 83.2335 60.0649 83.8547C59.4437 84.4759 59.0947 85.3185 59.0947 86.197C59.0947 87.0755 59.4437 87.918 60.0649 88.5392C60.6861 89.1604 61.5287 89.5094 62.4072 89.5094H73.4487C74.3272 89.5094 75.1698 89.1604 75.791 88.5392C76.4122 87.918 76.7612 87.0755 76.7612 86.197Z" fill="#FFE500"/>
<path d="M73.4487 82.8845H62.4072C61.5287 82.8845 60.6861 83.2335 60.0649 83.8547C59.4437 84.4759 59.0947 85.3185 59.0947 86.197H76.6972C76.6973 85.3294 76.3571 84.4965 75.7497 83.8771C75.1423 83.2577 74.3161 82.9013 73.4487 82.8845Z" fill="#FFFACF"/>
<path d="M76.7612 86.197C76.7612 85.3185 76.4122 84.4759 75.791 83.8547C75.1698 83.2335 74.3272 82.8845 73.4487 82.8845H62.4072C61.5287 82.8845 60.6861 83.2335 60.0649 83.8547C59.4437 84.4759 59.0947 85.3185 59.0947 86.197C59.0947 87.0755 59.4437 87.918 60.0649 88.5392C60.6861 89.1604 61.5287 89.5094 62.4072 89.5094H73.4487C74.3272 89.5094 75.1698 89.1604 75.791 88.5392C76.4122 87.918 76.7612 87.0755 76.7612 86.197V86.197Z" stroke="#191816" stroke-linecap="round" stroke-linejoin="round"/>
</svg>
