<?xml version="1.0" encoding="UTF-8"?>
<svg preserveAspectRatio="xMinYMin meet" viewBox="0 0 16 16" version="1.1" xmlns="http://www.w3.org/2000/svg" xmlns:xlink="http://www.w3.org/1999/xlink">
    <title>icon-agreement</title>
    <g id="icon-agreement" stroke="none" stroke-width="1" fill="none" fill-rule="evenodd" stroke-linecap="round" stroke-linejoin="round">
        <path d="M0.50000025,1.47800074 L1.50000075,2.7393347 L1.50000075,5.71733619 C1.47333407,6.84267009 2.27866606,7.47188008 3.5,8.50654726" id="path" stroke="#000000"></path>
        <path d="M3.48733508,5.01155863 L4.666669,6.24868693 L4.66666894,6.24868687 C4.97963043,6.57767834 5.49375602,6.58455628 5.81500285,6.2640487 C6.13624834,5.94354098 6.14296435,5.41701863 5.83000299,5.0880258 L3.99600207,3.17156931 L3.99600207,2.17271793 L3.99600224,2.17271895 C3.89664219,1.57419464 3.67441608,1.00406966 3.34400258,0.50000132" id="path" stroke="#000000"></path>
        <path d="M3.5,5 L3.5,13.4531295 L3.5,13.4531296 C3.50000009,14.0313001 3.98841673,14.5 4.59090909,14.5 L9.5,14.5" id="path" stroke="#000000"></path>
        <path d="M15.5000077,14.5213406 L14.5000072,13.2600066 L14.5000072,10.2826718 C14.5233406,9.31000466 13.5526734,8.42533755 12.5000062,7.53600377" id="path" stroke="#000000"></path>
        <path d="M6.50000325,2.50000125 L11.5000057,2.50000125 L11.5000057,2.50000125 C12.0522906,2.50000123 12.5000062,2.94771681 12.5000062,3.50000175 L12.5000062,11.0800055 L11.333339,9.88667161 L11.333339,9.88667165 C11.0203775,9.56542616 10.5062519,9.55871016 10.1850051,9.87167158 C9.8637596,10.1846331 9.85704359,10.6987587 10.170005,11.0200055 L12.0066726,12.8920064 L12.0066726,13.8666736 L12.0066727,13.8666743 C12.1065314,14.4501406 12.3287322,15.0058682 12.6586731,15.4973418" id="path" stroke="#000000"></path>
        <path d="M7.5,8.5 L9.50000375,8.5" id="path" stroke="#000000"></path>
        <path d="M7.5,4.5 L10.5,4.5" id="path" stroke="#000000"></path>
        <path d="M7.5,6.5 L10.5,6.5" id="path" stroke="#000000"></path>
    </g>
</svg>