<svg preserveAspectRatio="xMinYMin meet" viewBox="0 0 16 16" fill="none" xmlns="http://www.w3.org/2000/svg">
<path d="M8.99995 7.5H7.64462C7.2162 7.5003 6.84813 7.80426 6.76683 8.22489C6.68554 8.64552 6.91384 9.06475 7.31128 9.22467L8.68728 9.77533C9.08473 9.93525 9.31303 10.3545 9.23174 10.7751C9.15044 11.1957 8.78237 11.4997 8.35395 11.5H6.99995" stroke="#808C9D" stroke-linecap="round" stroke-linejoin="round"/>
<path d="M8 7.5V6.5" stroke="#808C9D" stroke-linecap="round" stroke-linejoin="round"/>
<path d="M8 12.5V11.5" stroke="#808C9D" stroke-linecap="round" stroke-linejoin="round"/>
<path fill-rule="evenodd" clip-rule="evenodd" d="M4.5 14.5V4.5L6 1.5H10L11.5 4.5V14.5H4.5V14.5Z" stroke="#808C9D" stroke-linecap="round" stroke-linejoin="round"/>
<path d="M10 1.5H13.5L15.5 4.5H11.5" stroke="#808C9D" stroke-linecap="round" stroke-linejoin="round"/>
<path d="M4.5 4.5H0.5L2.5 1.5H6" stroke="#808C9D" stroke-linecap="round" stroke-linejoin="round"/>
<path d="M0.5 7H4.5" stroke="#808C9D" stroke-linecap="round" stroke-linejoin="round"/>
<path d="M11.5 7H15.5" stroke="#808C9D" stroke-linecap="round" stroke-linejoin="round"/>
<path d="M0.5 9.5H4.5" stroke="#808C9D" stroke-linecap="round" stroke-linejoin="round"/>
<path d="M11.5 9.5H15.5" stroke="#808C9D" stroke-linecap="round" stroke-linejoin="round"/>
<path d="M0.5 12H4.5" stroke="#808C9D" stroke-linecap="round" stroke-linejoin="round"/>
<path d="M11.5 12H15.5" stroke="#808C9D" stroke-linecap="round" stroke-linejoin="round"/>
<path d="M4.5 14.5H0.5V4.5" stroke="#808C9D" stroke-linecap="round" stroke-linejoin="round"/>
<path d="M11.5 14.5H15.5V4.5" stroke="#808C9D" stroke-linecap="round" stroke-linejoin="round"/>
<path d="M11.5 4.5H4.5" stroke="#808C9D" stroke-linecap="round" stroke-linejoin="round"/>
</svg>
