<svg xmlns="http://www.w3.org/2000/svg" xmlns:xlink="http://www.w3.org/1999/xlink" width="16" height="16" viewBox="0 0 16 16"><defs><style>.a,.c{fill:none;}.b{clip-path:url(#a);}.c{stroke:#99a3b1;stroke-linecap:round;stroke-linejoin:round;}</style><clipPath id="a"><rect class="a" width="16" height="16"/></clipPath></defs><g class="b"><path class="c" d="M1.5,15.5a1,1,0,0,1-1-1V1.5a1,1,0,0,1,1-1h13a1,1,0,0,1,1,1v13a1,1,0,0,1-1,1Z"/><path class="c" d="M.5,11.5h15" transform="translate(0 1)"/><path class="c" d="M.5,11.5h15" transform="translate(0 -2)"/><path class="c" d="M.5,11.5h15" transform="translate(0 -5)"/><path class="c" d="M.5,11.5h15" transform="translate(0 -8)"/><path class="c" d="M15.5,26.5v-15" transform="translate(-10 -11)"/><path class="c" d="M15.5,26.5v-15" transform="translate(-5 -11)"/></g></svg>