<svg preserveAspectRatio="xMinYMin meet" viewBox="0 0 160 144" fill="none" xmlns="http://www.w3.org/2000/svg">
<path d="M80 136.376C115.346 136.376 144 107.722 144 72.376C144 37.0298 115.346 8.37598 80 8.37598C44.6538 8.37598 16 37.0298 16 72.376C16 107.722 44.6538 136.376 80 136.376Z" fill="#E8F4FA"/>
<path d="M79.2792 95.912C91.5532 95.912 101.503 85.962 101.503 73.688C101.503 61.414 91.5532 51.464 79.2792 51.464C67.0052 51.464 57.0552 61.414 57.0552 73.688C57.0552 85.962 67.0052 95.912 79.2792 95.912Z" fill="white" stroke="#191816" stroke-miterlimit="10"/>
<path d="M62.7353 111.816L50.3833 99.464" stroke="#191816" stroke-miterlimit="10" stroke-linecap="round"/>
<path d="M117.567 91.912L105.055 104.424" stroke="#191816" stroke-miterlimit="10" stroke-linecap="round"/>
<path d="M98.3516 34.376L110.944 46.968" stroke="#191816" stroke-miterlimit="10" stroke-linecap="round"/>
<path d="M42.064 54.376L54.912 41.512" stroke="#191816" stroke-miterlimit="10" stroke-linecap="round"/>
<path d="M136.511 71.432C136.392 74.889 134.934 78.1644 132.446 80.5676C129.958 82.9708 126.634 84.314 123.175 84.314C119.716 84.314 116.392 82.9708 113.905 80.5676C111.417 78.1644 109.959 74.889 109.839 71.432C109.839 64.056 113.599 58.264 117.423 57.176C117.743 57.0807 118.083 57.0734 118.407 57.1551C118.731 57.2368 119.027 57.4043 119.263 57.64C123.407 61.816 136.511 56.616 136.511 71.432Z" fill="#FFC44D"/>
<path d="M118.736 61.432C121.936 66.488 134.832 61.08 136.336 73.336C136.437 72.7063 136.491 72.0698 136.496 71.432C136.496 56.616 123.392 61.832 119.248 57.64C119.011 57.4043 118.715 57.2367 118.392 57.1551C118.068 57.0734 117.728 57.0806 117.408 57.176C113.584 58.264 109.824 64.056 109.824 71.432C109.828 72.0804 109.881 72.7276 109.984 73.368C110.816 66.44 114.944 61.432 118.736 61.432Z" fill="#FFDB94"/>
<path d="M136.511 71.432C136.392 74.889 134.934 78.1644 132.446 80.5676C129.958 82.9708 126.634 84.314 123.175 84.314C119.716 84.314 116.392 82.9708 113.905 80.5676C111.417 78.1644 109.959 74.889 109.839 71.432C109.839 64.056 113.599 58.264 117.423 57.176C117.743 57.0807 118.083 57.0734 118.407 57.1551C118.731 57.2368 119.027 57.4043 119.263 57.64C123.407 61.816 136.511 56.616 136.511 71.432Z" stroke="#191816" stroke-linecap="round" stroke-linejoin="round"/>
<path d="M134.303 74.76L132.063 75.88L130.463 70.216C130.323 69.6653 129.974 69.1907 129.49 68.8922C129.007 68.5937 128.426 68.4947 127.871 68.616C126.339 68.9715 124.772 69.1593 123.199 69.176C121.626 69.1667 120.06 68.9842 118.527 68.632C117.97 68.506 117.385 68.6028 116.898 68.9017C116.411 69.2006 116.059 69.6779 115.919 70.232L114.319 75.896L112.127 74.776C108.927 74.776 109.167 80.328 112.671 80.328C113.36 82.5871 114.757 84.565 116.655 85.9704C118.554 87.3758 120.853 88.1344 123.215 88.1344C125.577 88.1344 127.876 87.3758 129.775 85.9704C131.673 84.565 133.07 82.5871 133.759 80.328C137.263 80.376 137.471 74.76 134.303 74.76Z" fill="#FFCEBF" stroke="#191816" stroke-linecap="round" stroke-linejoin="round"/>
<path d="M119.583 73.6559C119.307 73.656 119.038 73.738 118.808 73.8917C118.579 74.0454 118.401 74.2637 118.296 74.519C118.191 74.7743 118.164 75.055 118.219 75.3255C118.274 75.5959 118.409 75.8439 118.605 76.0379C118.801 76.2319 119.051 76.3632 119.322 76.4151C119.593 76.467 119.873 76.4372 120.127 76.3293C120.381 76.2215 120.598 76.0406 120.749 75.8096C120.9 75.5786 120.978 75.3079 120.975 75.0319C120.971 74.6655 120.823 74.3156 120.562 74.058C120.301 73.8004 119.95 73.6559 119.583 73.6559Z" fill="#191816"/>
<path d="M126.816 73.656C126.539 73.6528 126.268 73.7322 126.036 73.8839C125.805 74.0356 125.624 74.2529 125.517 74.5078C125.409 74.7628 125.38 75.044 125.434 75.3156C125.487 75.5871 125.62 75.8365 125.815 76.0322C126.011 76.2278 126.261 76.3607 126.532 76.4139C126.804 76.4671 127.085 76.4382 127.34 76.3309C127.595 76.2235 127.812 76.0426 127.964 75.8113C128.115 75.5799 128.195 75.3086 128.192 75.032C128.187 74.6683 128.041 74.3207 127.784 74.0636C127.527 73.8064 127.179 73.6601 126.816 73.656Z" fill="#191816"/>
<path d="M116.527 79.208C117.137 79.208 117.631 78.7138 117.631 78.104C117.631 77.4943 117.137 77 116.527 77C115.918 77 115.423 77.4943 115.423 78.104C115.423 78.7138 115.918 79.208 116.527 79.208Z" fill="#FFB59E"/>
<path d="M129.871 79.208C130.481 79.208 130.975 78.7138 130.975 78.104C130.975 77.4943 130.481 77 129.871 77C129.261 77 128.767 77.4943 128.767 78.104C128.767 78.7138 129.261 79.208 129.871 79.208Z" fill="#FFB59E"/>
<path d="M120.416 81.704C121.241 82.251 122.209 82.5427 123.2 82.5427C124.19 82.5427 125.158 82.251 125.984 81.704" stroke="#191816" stroke-linecap="round" stroke-linejoin="round"/>
<path d="M47.7918 77.3841C47.7865 76.8561 47.5988 76.3463 47.2606 75.9409C46.9223 75.5356 46.4542 75.2597 45.9358 75.1601V73.6881C45.9925 72.1933 45.7471 70.7025 45.2142 69.3049C44.6814 67.9072 43.872 66.6314 42.8345 65.5539C41.7971 64.4763 40.5529 63.6191 39.1765 63.0336C37.8 62.4481 36.3196 62.1463 34.8238 62.1463C33.328 62.1463 31.8476 62.4481 30.4711 63.0336C29.0947 63.6191 27.8505 64.4763 26.813 65.5539C25.7756 66.6314 24.9662 67.9072 24.4334 69.3049C23.9005 70.7025 23.6551 72.1933 23.7118 73.6881V75.1601C23.1709 75.2667 22.6873 75.5664 22.3511 76.0032C22.0148 76.44 21.8488 76.9842 21.884 77.5344C21.9193 78.0845 22.1533 78.6031 22.5426 78.9934C22.9319 79.3838 23.4498 79.6193 23.9998 79.6561C24.5268 82.1512 25.8953 84.3894 27.8761 85.9955C29.8569 87.6017 32.3296 88.4782 34.8798 88.4782C37.43 88.4782 39.9026 87.6017 41.8835 85.9955C43.8643 84.3894 45.2328 82.1512 45.7598 79.6561C46.3171 79.5898 46.8311 79.3224 47.2052 78.9041C47.5793 78.4858 47.7879 77.9453 47.7918 77.3841Z" fill="#D18660" stroke="#191816" stroke-linecap="round" stroke-linejoin="round"/>
<path d="M34.8157 67.192C36.9876 67.1455 39.137 67.6404 41.0699 68.632C43.0028 69.6236 44.6585 71.0808 45.8877 72.872C45.6753 70.081 44.4167 67.4731 42.3637 65.5703C40.3107 63.6676 37.6148 62.6104 34.8157 62.6104C32.0165 62.6104 29.3206 63.6676 27.2676 65.5703C25.2146 67.4731 23.956 70.081 23.7437 72.872C24.9738 71.0818 26.6297 69.6254 28.5624 68.6339C30.4951 67.6424 32.6439 67.147 34.8157 67.192Z" fill="#FFE8E0"/>
<path d="M47.7918 77.3841C47.7865 76.8561 47.5988 76.3463 47.2606 75.9409C46.9223 75.5356 46.4542 75.2597 45.9358 75.1601V73.6881C45.9925 72.1933 45.7471 70.7025 45.2142 69.3049C44.6813 67.9072 43.872 66.6314 42.8345 65.5539C41.7971 64.4763 40.5529 63.6191 39.1765 63.0336C37.8 62.4481 36.3196 62.1463 34.8238 62.1463C33.328 62.1463 31.8476 62.4481 30.4711 63.0336C29.0947 63.6191 27.8505 64.4763 26.813 65.5539C25.7756 66.6314 24.9662 67.9072 24.4334 69.3049C23.9005 70.7025 23.6551 72.1933 23.7118 73.6881V75.1601C23.1709 75.2667 22.6873 75.5664 22.3511 76.0032C22.0148 76.44 21.8488 76.9842 21.884 77.5344C21.9193 78.0845 22.1533 78.6031 22.5426 78.9934C22.9319 79.3838 23.4498 79.6193 23.9998 79.6561C24.5268 82.1512 25.8953 84.3894 27.8761 85.9955C29.8569 87.6017 32.3296 88.4782 34.8798 88.4782C37.43 88.4782 39.9026 87.6017 41.8835 85.9955C43.8643 84.3894 45.2328 82.1512 45.7598 79.6561C46.3171 79.5898 46.8311 79.3224 47.2052 78.9041C47.5793 78.4858 47.7879 77.9453 47.7918 77.3841V77.3841Z" stroke="#191816" stroke-linecap="round" stroke-linejoin="round"/>
<path d="M30.6561 73.688C30.3801 73.688 30.1103 73.7701 29.8811 73.9237C29.6518 74.0774 29.4734 74.2958 29.3686 74.5511C29.2637 74.8063 29.2371 75.087 29.2921 75.3575C29.3471 75.6279 29.4813 75.8759 29.6776 76.07C29.8739 76.264 30.1234 76.3953 30.3944 76.4472C30.6655 76.4991 30.9459 76.4692 31.1999 76.3614C31.454 76.2536 31.6703 76.0727 31.8213 75.8417C31.9723 75.6106 32.0512 75.34 32.0481 75.064C32.0481 74.8819 32.012 74.7017 31.9418 74.5337C31.8717 74.3657 31.7689 74.2133 31.6394 74.0853C31.5099 73.9573 31.3564 73.8563 31.1876 73.7881C31.0188 73.7199 30.8381 73.6859 30.6561 73.688Z" fill="#191816"/>
<path d="M38.992 73.688C38.716 73.688 38.4463 73.7701 38.217 73.9237C37.9878 74.0774 37.8094 74.2958 37.7045 74.5511C37.5996 74.8063 37.573 75.087 37.628 75.3575C37.6831 75.6279 37.8172 75.8759 38.0135 76.07C38.2098 76.264 38.4593 76.3953 38.7304 76.4472C39.0014 76.4991 39.2818 76.4692 39.5359 76.3614C39.7899 76.2536 40.0062 76.0727 40.1572 75.8417C40.3082 75.6106 40.3872 75.34 40.384 75.064C40.384 74.8819 40.3479 74.7017 40.2778 74.5337C40.2076 74.3657 40.1048 74.2133 39.9753 74.0853C39.8459 73.9573 39.6923 73.8563 39.5235 73.7881C39.3547 73.7199 39.174 73.6859 38.992 73.688Z" fill="#191816"/>
<path d="M28.7997 80.1679C29.5685 80.1679 30.1917 79.5447 30.1917 78.7759C30.1917 78.0072 29.5685 77.3839 28.7997 77.3839C28.0309 77.3839 27.4077 78.0072 27.4077 78.7759C27.4077 79.5447 28.0309 80.1679 28.7997 80.1679Z" fill="#BD704A"/>
<path d="M40.8476 80.1679C41.6163 80.1679 42.2396 79.5447 42.2396 78.7759C42.2396 78.0072 41.6163 77.3839 40.8476 77.3839C40.0788 77.3839 39.4556 78.0072 39.4556 78.7759C39.4556 79.5447 40.0788 80.1679 40.8476 80.1679Z" fill="#BD704A"/>
<path d="M32 82.104C32.8222 82.6516 33.7881 82.9438 34.776 82.9438C35.7639 82.9438 36.7298 82.6516 37.552 82.104" stroke="#191816" stroke-linecap="round" stroke-linejoin="round"/>
<path d="M22.7837 65.352V73.688C22.7879 73.9313 22.8875 74.1632 23.0611 74.3338C23.2347 74.5044 23.4683 74.6 23.7117 74.6H24.6397L28.3357 65.352H22.7837Z" fill="#614B44" stroke="#191816" stroke-linecap="round" stroke-linejoin="round"/>
<path d="M46.8637 66.264C46.8595 64.3006 46.0777 62.4188 44.6893 61.0305C43.3009 59.6421 41.4191 58.8603 39.4557 58.856H31.1197C30.7659 58.8596 30.4187 58.7601 30.1204 58.5697C29.8221 58.3794 29.5856 58.1064 29.4397 57.784C29.3381 57.5713 29.1828 57.3887 28.9893 57.254C28.7958 57.1194 28.5705 57.0374 28.3357 57.016H26.7357C25.3164 56.9819 23.9352 57.4775 22.8615 58.4063C21.7877 59.3352 21.0983 60.6306 20.9277 62.04C20.7885 63.4911 21.2256 64.9388 22.1447 66.0703C23.0637 67.2019 24.3909 67.9266 25.8397 68.088C26.1019 69.073 26.6539 69.9565 27.4242 70.6241C28.1945 71.2917 29.1475 71.7125 30.1597 71.832H31.9997C32.0731 71.8281 32.1434 71.8013 32.2008 71.7554C32.2582 71.7095 32.2998 71.6468 32.3197 71.576C32.339 71.5056 32.3337 71.4308 32.3046 71.3638C32.2755 71.2969 32.2244 71.2419 32.1597 71.208C31.3252 70.7023 30.7177 69.8942 30.4637 68.952C30.4336 68.8564 30.4265 68.755 30.4427 68.656C30.459 68.5571 30.4984 68.4634 30.5575 68.3824C30.6167 68.3014 30.694 68.2355 30.7834 68.1899C30.8727 68.1444 30.9715 68.1204 31.0717 68.12H38.6397C39.1315 68.122 39.6028 68.3174 39.9517 68.664L44.9597 73.688H45.8877C46.1338 73.688 46.3699 73.5903 46.5439 73.4162C46.718 73.2422 46.8157 73.0061 46.8157 72.76L46.8637 66.264Z" fill="#614B44"/>
<path d="M39.4556 58.856H31.1196C30.7658 58.8596 30.4186 58.7601 30.1203 58.5697C29.822 58.3794 29.5855 58.1064 29.4396 57.784C29.338 57.5713 29.1828 57.3887 28.9892 57.254C28.7957 57.1194 28.5704 57.0374 28.3356 57.016H26.7356C25.3163 56.9819 23.9351 57.4775 22.8614 58.4063C21.7876 59.3352 21.0982 60.6306 20.9276 62.04C20.8674 62.7109 20.9215 63.3872 21.0876 64.04C24.6706 63.2483 28.3303 62.8565 31.9996 62.872C36.9938 62.8202 41.9638 63.5711 46.7196 65.096C46.4402 63.3658 45.5577 61.7903 44.2282 60.6483C42.8988 59.5063 41.2082 58.8714 39.4556 58.856Z" fill="#947063"/>
<path d="M46.8637 66.264C46.8595 64.3006 46.0777 62.4188 44.6893 61.0305C43.3009 59.6421 41.4192 58.8603 39.4557 58.856H31.1197C30.7659 58.8596 30.4187 58.7601 30.1204 58.5697C29.8221 58.3794 29.5856 58.1064 29.4397 57.784C29.3381 57.5713 29.1828 57.3887 28.9893 57.254C28.7958 57.1194 28.5705 57.0374 28.3357 57.016H26.7357C25.3164 56.9819 23.9352 57.4775 22.8615 58.4063C21.7877 59.3352 21.0983 60.6306 20.9277 62.04C20.7885 63.4911 21.2256 64.9388 22.1447 66.0703C23.0637 67.2019 24.3909 67.9266 25.8397 68.088C26.1019 69.073 26.6539 69.9565 27.4242 70.6241C28.1945 71.2917 29.1475 71.7125 30.1597 71.832H31.9997C32.0731 71.8281 32.1434 71.8013 32.2008 71.7554C32.2582 71.7095 32.2998 71.6468 32.3197 71.576C32.339 71.5056 32.3337 71.4308 32.3046 71.3638C32.2755 71.2969 32.2244 71.2419 32.1597 71.208C31.3252 70.7023 30.7177 69.8942 30.4637 68.952C30.4336 68.8564 30.4265 68.755 30.4427 68.656C30.459 68.5571 30.4984 68.4634 30.5575 68.3824C30.6167 68.3014 30.694 68.2355 30.7834 68.1899C30.8727 68.1444 30.9715 68.1204 31.0717 68.12H38.6397C39.1315 68.122 39.6028 68.3174 39.9517 68.664L44.9597 73.688H45.8877C46.1338 73.688 46.3699 73.5903 46.5439 73.4162C46.718 73.2422 46.8157 73.0061 46.8157 72.76L46.8637 66.264Z" stroke="#191816" stroke-linecap="round" stroke-linejoin="round"/>
<path d="M92.2397 121.832C92.2344 121.304 92.0467 120.794 91.7085 120.389C91.3702 119.984 90.9021 119.708 90.3837 119.608V118.136C90.4404 116.641 90.195 115.15 89.6621 113.753C89.1292 112.355 88.3199 111.079 87.2824 110.002C86.245 108.924 85.0008 108.067 83.6244 107.482C82.2479 106.896 80.7675 106.594 79.2717 106.594C77.7759 106.594 76.2955 106.896 74.919 107.482C73.5426 108.067 72.2984 108.924 71.2609 110.002C70.2235 111.079 69.4141 112.355 68.8812 113.753C68.3484 115.15 68.1029 116.641 68.1597 118.136V119.608C67.62 119.711 67.136 120.006 66.7972 120.439C66.4584 120.871 66.2879 121.412 66.3172 121.961C66.3465 122.509 66.5736 123.029 66.9565 123.423C67.3394 123.817 67.8521 124.059 68.3997 124.104C68.9266 126.599 70.2952 128.837 72.276 130.443C74.2568 132.05 76.7295 132.926 79.2797 132.926C81.8298 132.926 84.3025 132.05 86.2833 130.443C88.2642 128.837 89.6327 126.599 90.1597 124.104C90.727 124.052 91.2546 123.791 91.6393 123.37C92.024 122.95 92.2381 122.402 92.2397 121.832Z" fill="#FFDA8F" stroke="#191816" stroke-linecap="round" stroke-linejoin="round"/>
<path d="M74.6395 123.224C74.6395 123.499 74.5578 123.768 74.4049 123.997C74.2519 124.226 74.0345 124.405 73.7802 124.51C73.5258 124.615 73.2459 124.643 72.9759 124.589C72.7059 124.536 72.4579 124.403 72.2632 124.208C72.0685 124.014 71.9359 123.766 71.8822 123.496C71.8285 123.226 71.8561 122.946 71.9614 122.691C72.0668 122.437 72.2452 122.22 72.4741 122.067C72.703 121.914 72.9722 121.832 73.2475 121.832C73.6167 121.832 73.9707 121.979 74.2318 122.24C74.4928 122.501 74.6395 122.855 74.6395 123.224Z" fill="#FFBE3D"/>
<path d="M86.6878 123.224C86.6878 123.499 86.6062 123.768 86.4532 123.997C86.3003 124.226 86.0829 124.405 85.8285 124.51C85.5741 124.615 85.2943 124.643 85.0242 124.589C84.7542 124.536 84.5062 124.403 84.3115 124.208C84.1168 124.014 83.9843 123.766 83.9306 123.496C83.8768 123.226 83.9044 122.946 84.0098 122.691C84.1151 122.437 84.2935 122.22 84.5225 122.067C84.7514 121.914 85.0205 121.832 85.2958 121.832C85.665 121.832 86.019 121.979 86.2801 122.24C86.5411 122.501 86.6878 122.855 86.6878 123.224Z" fill="#FFBE3D"/>
<path d="M76.4961 126.552C77.3183 127.1 78.2842 127.392 79.2721 127.392C80.26 127.392 81.2258 127.1 82.0481 126.552" stroke="#191816" stroke-linecap="round" stroke-linejoin="round"/>
<path d="M91.312 115.352C91.0437 112.355 89.6633 109.566 87.4425 107.535C85.2217 105.505 82.3213 104.378 79.312 104.378C76.3027 104.378 73.4023 105.505 71.1815 107.535C68.9607 109.566 67.5804 112.355 67.312 115.352V119.064C68.734 118.688 70.0507 117.991 71.1604 117.025C72.2701 116.06 73.1431 114.852 73.712 113.496C78.912 117 85.76 116.28 91.312 115.352Z" fill="#525252"/>
<path d="M79.2794 107.944C81.6886 107.933 84.0454 108.648 86.0429 109.994C88.0405 111.341 89.5864 113.258 90.4794 115.496L91.3594 115.352C91.091 112.355 89.7107 109.566 87.4899 107.535C85.2691 105.505 82.3687 104.378 79.3594 104.378C76.35 104.378 73.4497 105.505 71.2289 107.535C69.0081 109.566 67.6277 112.355 67.3594 115.352V119.064C67.5918 116.054 68.9457 113.241 71.1531 111.182C73.3606 109.123 76.2606 107.967 79.2794 107.944Z" fill="#656769"/>
<path d="M91.312 115.352C91.0437 112.355 89.6633 109.566 87.4425 107.535C85.2217 105.505 82.3213 104.378 79.312 104.378C76.3027 104.378 73.4023 105.505 71.1815 107.535C68.9607 109.566 67.5804 112.355 67.312 115.352V119.064C68.734 118.688 70.0507 117.991 71.1604 117.025C72.2701 116.06 73.1431 114.852 73.712 113.496C78.912 117 85.76 116.28 91.312 115.352Z" stroke="#191816" stroke-linecap="round" stroke-linejoin="round"/>
<path d="M71.8716 111.656C72.3343 112.404 72.9641 113.033 73.7116 113.496" stroke="#191816" stroke-linecap="round" stroke-linejoin="round"/>
<path d="M73.6001 119.528C73.8984 119.24 74.2972 119.078 74.7121 119.078C75.127 119.078 75.5258 119.24 75.8241 119.528" stroke="#191816" stroke-linecap="round" stroke-linejoin="round"/>
<path d="M82.5273 119.528C82.8257 119.24 83.2244 119.078 83.6393 119.078C84.0543 119.078 84.453 119.24 84.7513 119.528" stroke="#191816" stroke-linecap="round" stroke-linejoin="round"/>
<path d="M57.9674 43.128C60.0175 43.128 61.6794 41.4661 61.6794 39.416C61.6794 37.3659 60.0175 35.704 57.9674 35.704C55.9173 35.704 54.2554 37.3659 54.2554 39.416C54.2554 41.4661 55.9173 43.128 57.9674 43.128Z" fill="white" stroke="#191816" stroke-linecap="round" stroke-linejoin="round"/>
<path d="M113.536 53.32C115.586 53.32 117.248 51.6581 117.248 49.608C117.248 47.5579 115.586 45.896 113.536 45.896C111.486 45.896 109.824 47.5579 109.824 49.608C109.824 51.6581 111.486 53.32 113.536 53.32Z" fill="white" stroke="#191816" stroke-linecap="round" stroke-linejoin="round"/>
<path d="M105.859 108.434C106.644 106.54 105.744 104.369 103.85 103.584C101.956 102.8 99.7846 103.699 99.0001 105.593C98.2156 107.487 99.115 109.659 101.009 110.443C102.903 111.228 105.074 110.328 105.859 108.434Z" fill="white" stroke="#191816" stroke-linecap="round" stroke-linejoin="round"/>
<path d="M47.7916 100.552C49.8417 100.552 51.5036 98.8901 51.5036 96.84C51.5036 94.7899 49.8417 93.128 47.7916 93.128C45.7415 93.128 44.0796 94.7899 44.0796 96.84C44.0796 98.8901 45.7415 100.552 47.7916 100.552Z" fill="white" stroke="#191816" stroke-linecap="round" stroke-linejoin="round"/>
<path d="M92.2402 31.08C92.238 30.5512 92.0514 30.0398 91.7126 29.6338C91.3738 29.2279 90.904 28.9528 90.3842 28.856V27.368C90.2751 24.4939 89.0567 21.7738 86.9847 19.779C84.9127 17.7841 82.1484 16.6697 79.2722 16.6697C76.396 16.6697 73.6317 17.7841 71.5597 19.779C69.4877 21.7738 68.2693 24.4939 68.1602 27.368V28.856C67.6404 28.9528 67.1706 29.2279 66.8318 29.6338C66.493 30.0398 66.3064 30.5512 66.3042 31.08C66.3098 31.6511 66.5274 32.1998 66.9146 32.6196C67.3019 33.0395 67.8314 33.3004 68.4002 33.352C68.9272 35.8471 70.2957 38.0853 72.2765 39.6915C74.2573 41.2976 76.73 42.1742 79.2802 42.1742C81.8304 42.1742 84.3031 41.2976 86.2839 39.6915C88.2647 38.0853 89.6332 35.8471 90.1602 33.352C90.7262 33.2967 91.2517 33.0341 91.6357 32.6147C92.0197 32.1952 92.235 31.6486 92.2402 31.08Z" fill="#FFCEBF" stroke="#191816" stroke-linecap="round" stroke-linejoin="round"/>
<path d="M73.2475 33.864C74.0162 33.864 74.6395 33.2408 74.6395 32.472C74.6395 31.7032 74.0162 31.08 73.2475 31.08C72.4787 31.08 71.8555 31.7032 71.8555 32.472C71.8555 33.2408 72.4787 33.864 73.2475 33.864Z" fill="#FFB59E"/>
<path d="M85.2958 33.864C86.0646 33.864 86.6878 33.2408 86.6878 32.472C86.6878 31.7032 86.0646 31.08 85.2958 31.08C84.527 31.08 83.9038 31.7032 83.9038 32.472C83.9038 33.2408 84.527 33.864 85.2958 33.864Z" fill="#FFB59E"/>
<path d="M76.4961 35.8C77.3183 36.3476 78.2842 36.6398 79.2721 36.6398C80.26 36.6398 81.2258 36.3476 82.0481 35.8" stroke="#191816" stroke-linecap="round" stroke-linejoin="round"/>
<path d="M91.3122 24.6C91.4613 22.9339 91.2619 21.2551 90.7267 19.6703C90.1914 18.0855 89.332 16.6295 88.2031 15.3951C87.0743 14.1607 85.7008 13.1749 84.17 12.5004C82.6393 11.826 80.9849 11.4776 79.3122 11.4776C77.6394 11.4776 75.985 11.826 74.4543 12.5004C72.9235 13.1749 71.55 14.1607 70.4212 15.3951C69.2924 16.6295 68.4329 18.0855 67.8977 19.6703C67.3624 21.2551 67.163 22.9339 67.3122 24.6V27.368C67.3122 27.6141 67.4099 27.8502 67.584 28.0242C67.758 28.1982 67.994 28.296 68.2402 28.296H70.0962C70.3423 28.296 70.5783 28.1982 70.7524 28.0242C70.9264 27.8502 71.0242 27.6141 71.0242 27.368C71.0238 26.2669 71.2445 25.177 71.6733 24.1628C72.102 23.1487 72.7301 22.2309 73.5202 21.464C73.7292 21.261 73.9825 21.1091 74.2601 21.0203C74.5377 20.9314 74.832 20.9081 75.1202 20.952C76.2851 21.1018 77.3664 21.6368 78.1922 22.472C79.2848 23.605 80.7293 24.3342 82.2898 24.5406C83.8502 24.7469 85.4346 24.4181 86.7842 23.608C87.2491 24.5126 87.5472 25.4937 87.6642 26.504C87.6951 26.7416 87.8109 26.96 87.9903 27.1188C88.1697 27.2776 88.4006 27.3662 88.6402 27.368H90.4962C90.6173 27.3701 90.7376 27.3481 90.8501 27.3032C90.9626 27.2584 91.065 27.1915 91.1514 27.1066C91.2378 27.0217 91.3064 26.9205 91.3532 26.8088C91.4001 26.6971 91.4242 26.5771 91.4242 26.456L91.3122 24.6Z" fill="#FF6196" stroke="#191816" stroke-linecap="round" stroke-linejoin="round"/>
<path d="M79.28 16.264C81.6841 16.2663 84.0465 16.8927 86.1359 18.0819C88.2253 19.271 89.9703 20.9822 91.2 23.048C90.8169 20.1515 89.3944 17.4929 87.1971 15.5671C84.9999 13.6413 82.1777 12.5796 79.256 12.5796C76.3343 12.5796 73.5121 13.6413 71.3149 15.5671C69.1176 17.4929 67.6951 20.1515 67.312 23.048C68.5471 20.9763 70.2999 19.2615 72.3982 18.0721C74.4965 16.8827 76.8681 16.2596 79.28 16.264Z" fill="#FF87AF"/>
<path d="M91.3122 24.6C91.4613 22.9339 91.2619 21.2551 90.7267 19.6703C90.1914 18.0855 89.332 16.6295 88.2031 15.3951C87.0743 14.1607 85.7008 13.1749 84.17 12.5004C82.6393 11.826 80.9849 11.4776 79.3122 11.4776C77.6394 11.4776 75.985 11.826 74.4543 12.5004C72.9235 13.1749 71.55 14.1607 70.4212 15.3951C69.2924 16.6295 68.4329 18.0855 67.8977 19.6703C67.3624 21.2551 67.163 22.9339 67.3122 24.6V27.368C67.3122 27.6141 67.4099 27.8502 67.584 28.0242C67.758 28.1982 67.994 28.296 68.2402 28.296H70.0962C70.3423 28.296 70.5783 28.1982 70.7524 28.0242C70.9264 27.8502 71.0242 27.6141 71.0242 27.368C71.0238 26.2669 71.2445 25.177 71.6733 24.1628C72.102 23.1487 72.7301 22.2309 73.5202 21.464C73.7292 21.261 73.9825 21.1091 74.2601 21.0203C74.5377 20.9314 74.832 20.9081 75.1202 20.952C76.2851 21.1018 77.3664 21.6368 78.1922 22.472C79.2848 23.605 80.7293 24.3342 82.2898 24.5405C83.8502 24.7469 85.4346 24.4181 86.7842 23.608C87.2491 24.5126 87.5472 25.4937 87.6642 26.504C87.6951 26.7416 87.8109 26.96 87.9903 27.1188C88.1697 27.2776 88.4006 27.3662 88.6402 27.368H90.4962C90.6173 27.3701 90.7376 27.3481 90.8501 27.3032C90.9626 27.2584 91.065 27.1915 91.1514 27.1066C91.2378 27.0217 91.3064 26.9205 91.3532 26.8088C91.4001 26.6971 91.4242 26.5771 91.4242 26.456L91.3122 24.6Z" stroke="#191816" stroke-linecap="round" stroke-linejoin="round"/>
<path d="M86.6721 23.608C86.769 23.5494 86.8466 23.4635 86.8949 23.361C86.9433 23.2586 86.9604 23.1441 86.9441 23.032C86.9275 22.9207 86.8796 22.8165 86.8059 22.7315C86.7322 22.6465 86.6359 22.5842 86.5281 22.552C85.0681 22.1489 83.8053 21.2274 82.9761 19.96" fill="#FFDF3D"/>
<path d="M86.6721 23.608C86.769 23.5494 86.8466 23.4635 86.8949 23.361C86.9433 23.2586 86.9604 23.1441 86.9441 23.032C86.9275 22.9207 86.8796 22.8165 86.8059 22.7315C86.7322 22.6465 86.6359 22.5842 86.5281 22.552C85.0681 22.1489 83.8053 21.2274 82.9761 19.96" stroke="#191816" stroke-linecap="round" stroke-linejoin="round"/>
<path d="M75.1034 27.368C74.8281 27.368 74.559 27.4496 74.3301 27.6026C74.1012 27.7556 73.9227 27.973 73.8174 28.2273C73.712 28.4817 73.6845 28.7616 73.7382 29.0316C73.7919 29.3016 73.9245 29.5496 74.1191 29.7443C74.3138 29.939 74.5618 30.0716 74.8319 30.1253C75.1019 30.179 75.3818 30.1514 75.6361 30.0461C75.8905 29.9407 76.1079 29.7623 76.2608 29.5334C76.4138 29.3045 76.4954 29.0353 76.4954 28.76C76.4954 28.3908 76.3488 28.0368 76.0877 27.7757C75.8267 27.5147 75.4726 27.368 75.1034 27.368Z" fill="#191816"/>
<path d="M83.4394 27.368C83.1641 27.368 82.8949 27.4496 82.666 27.6026C82.4371 27.7556 82.2587 27.973 82.1533 28.2273C82.048 28.4817 82.0204 28.7616 82.0741 29.0316C82.1278 29.3016 82.2604 29.5496 82.4551 29.7443C82.6497 29.939 82.8978 30.0716 83.1678 30.1253C83.4378 30.179 83.7177 30.1514 83.9721 30.0461C84.2264 29.9407 84.4438 29.7623 84.5968 29.5334C84.7497 29.3045 84.8314 29.0353 84.8314 28.76C84.8314 28.3908 84.6847 28.0368 84.4237 27.7757C84.1626 27.5147 83.8085 27.368 83.4394 27.368Z" fill="#191816"/>
<path d="M79.2796 12.552C82.4663 12.5523 85.5224 13.8185 87.7756 16.072C88.2603 15.2938 88.5205 14.3968 88.5276 13.48C88.5276 9.896 84.3836 7 79.2796 7C74.1756 7 70.0156 9.976 70.0156 13.48C70.018 14.3997 70.2846 15.2994 70.7836 16.072C71.8972 14.9533 73.2213 14.0663 74.6795 13.4622C76.1377 12.858 77.7012 12.5487 79.2796 12.552Z" fill="#FF6196" stroke="#191816" stroke-linecap="round" stroke-linejoin="round"/>
<path d="M92.2402 76.92C92.238 76.3913 92.0514 75.8798 91.7126 75.4739C91.3738 75.0679 90.904 74.7928 90.3842 74.696V73.224C90.4409 71.7293 90.1955 70.2385 89.6626 68.8408C89.1298 67.4432 88.3204 66.1674 87.2829 65.0898C86.2455 64.0122 85.0013 63.1551 83.6249 62.5696C82.2484 61.9841 80.768 61.6823 79.2722 61.6823C77.7764 61.6823 76.296 61.9841 74.9195 62.5696C73.5431 63.1551 72.2989 64.0122 71.2615 65.0898C70.224 66.1674 69.4146 67.4432 68.8818 68.8408C68.3489 70.2385 68.1035 71.7293 68.1602 73.224V74.696C67.6404 74.7928 67.1706 75.0679 66.8318 75.4739C66.493 75.8798 66.3064 76.3913 66.3042 76.92C66.3098 77.4912 66.5274 78.0399 66.9146 78.4597C67.3019 78.8795 67.8314 79.1405 68.4002 79.192C68.9272 81.6871 70.2957 83.9253 72.2765 85.5315C74.2573 87.1377 76.73 88.0142 79.2802 88.0142C81.8304 88.0142 84.3031 87.1377 86.2839 85.5315C88.2647 83.9253 89.6332 81.6871 90.1602 79.192C90.7262 79.1367 91.2517 78.8741 91.6357 78.4547C92.0197 78.0353 92.235 77.4886 92.2402 76.92Z" fill="#FFCEBF" stroke="#191816" stroke-linecap="round" stroke-linejoin="round"/>
<path d="M75.1033 73.2241C74.8273 73.2241 74.5576 73.3061 74.3283 73.4598C74.0991 73.6135 73.9207 73.8318 73.8158 74.0871C73.711 74.3424 73.6843 74.6231 73.7394 74.8936C73.7944 75.164 73.9286 75.412 74.1248 75.606C74.3211 75.8001 74.5706 75.9314 74.8417 75.9832C75.1128 76.0351 75.3932 76.0053 75.6472 75.8975C75.9013 75.7896 76.1175 75.6087 76.2686 75.3777C76.4196 75.1467 76.4985 74.876 76.4953 74.6001C76.4954 74.418 76.4592 74.2378 76.3891 74.0698C76.3189 73.9018 76.2161 73.7494 76.0867 73.6214C75.9572 73.4934 75.8036 73.3924 75.6348 73.3242C75.466 73.256 75.2854 73.2219 75.1033 73.2241Z" fill="#191816"/>
<path d="M83.4393 73.2241C83.1633 73.2241 82.8935 73.3061 82.6643 73.4598C82.435 73.6135 82.2566 73.8318 82.1518 74.0871C82.0469 74.3424 82.0203 74.6231 82.0753 74.8936C82.1303 75.164 82.2645 75.412 82.4608 75.606C82.6571 75.8001 82.9066 75.9314 83.1776 75.9832C83.4487 76.0351 83.7291 76.0053 83.9831 75.8975C84.2372 75.7896 84.4535 75.6087 84.6045 75.3777C84.7555 75.1467 84.8344 74.876 84.8313 74.6001C84.8313 74.418 84.7952 74.2378 84.725 74.0698C84.6549 73.9018 84.5521 73.7494 84.4226 73.6214C84.2931 73.4934 84.1396 73.3924 83.9708 73.3242C83.802 73.256 83.6213 73.2219 83.4393 73.2241Z" fill="#191816"/>
<path d="M73.2475 79.704C74.0162 79.704 74.6395 79.0808 74.6395 78.312C74.6395 77.5432 74.0162 76.92 73.2475 76.92C72.4787 76.92 71.8555 77.5432 71.8555 78.312C71.8555 79.0808 72.4787 79.704 73.2475 79.704Z" fill="#FFB59E"/>
<path d="M85.2958 79.704C86.0646 79.704 86.6878 79.0808 86.6878 78.312C86.6878 77.5432 86.0646 76.92 85.2958 76.92C84.527 76.92 83.9038 77.5432 83.9038 78.312C83.9038 79.0808 84.527 79.704 85.2958 79.704Z" fill="#FFB59E"/>
<path d="M79.2798 79.704V80.632" stroke="#191816" stroke-linecap="round" stroke-linejoin="round"/>
<path d="M77.4233 79.704V80.632" stroke="#191816" stroke-linecap="round" stroke-linejoin="round"/>
<path d="M81.1196 79.704V80.632" stroke="#191816" stroke-linecap="round" stroke-linejoin="round"/>
<path d="M82.9761 80.632V81.56" stroke="#191816" stroke-linecap="round" stroke-linejoin="round"/>
<path d="M75.5679 80.632V81.56" stroke="#191816" stroke-linecap="round" stroke-linejoin="round"/>
<path d="M77.4233 83.4C77.9955 83.6921 78.6289 83.8445 79.2713 83.8445C79.9138 83.8445 80.5471 83.6921 81.1193 83.4V83.4" stroke="#191816" stroke-linecap="round" stroke-linejoin="round"/>
<path d="M89.1197 64.456C89.0714 64.3901 89.039 64.3139 89.0251 64.2334C89.0112 64.1529 89.0162 64.0702 89.0397 63.992C89.4144 62.2022 89.27 60.3426 88.6237 58.632C88.6164 58.6052 88.6022 58.5808 88.5825 58.5612C88.5629 58.5415 88.5385 58.5273 88.5117 58.52C88.488 58.5042 88.4602 58.4957 88.4317 58.4957C88.4032 58.4957 88.3754 58.5042 88.3517 58.52C87.413 59.1346 86.4097 59.6444 85.3597 60.04C85.5125 58.6733 85.3818 57.2898 84.9757 55.976C84.9651 55.9439 84.9462 55.9151 84.9209 55.8926C84.8956 55.8701 84.8649 55.8547 84.8317 55.848C84.7698 55.8246 84.7016 55.8246 84.6397 55.848C84.2612 56.5164 83.7081 57.0694 83.0397 57.448C81.4397 58.2 78.8637 57.192 76.6397 57.448C74.0317 57.768 71.9677 58.968 71.9677 60.648C71.963 60.8614 72.0011 61.0735 72.0797 61.272C72.1133 61.3808 72.113 61.4973 72.0787 61.606C72.0444 61.7146 71.9778 61.8102 71.8877 61.88C70.4348 62.9995 69.2571 64.4364 68.4445 66.0809C67.632 67.7253 67.2062 69.5338 67.1997 71.368V73.096C67.1995 73.4848 67.3214 73.8638 67.5482 74.1796C67.775 74.4954 68.0952 74.732 68.4637 74.856C68.65 74.9126 68.8461 74.929 69.0392 74.9042C69.2322 74.8793 69.4178 74.8138 69.5837 74.712C69.7442 74.6061 69.88 74.4671 69.9821 74.3042C70.0843 74.1414 70.1503 73.9585 70.1757 73.768C70.2612 72.4363 70.6158 71.1358 71.2181 69.9451C71.8203 68.7543 72.6577 67.698 73.6797 66.84C73.7856 66.7529 73.9185 66.7052 74.0557 66.7052C74.1929 66.7052 74.3258 66.7529 74.4317 66.84C74.9913 67.3357 75.7162 67.604 76.4637 67.592C77.0243 67.5958 77.576 67.4524 78.0637 67.176C78.1255 67.1386 78.1942 67.1138 78.2656 67.1033C78.3371 67.0927 78.41 67.0964 78.48 67.1143C78.55 67.1322 78.6157 67.1638 78.6734 67.2074C78.731 67.2509 78.7794 67.3055 78.8157 67.368C79.2745 68.0365 79.8953 68.5778 80.6199 68.9415C81.3445 69.3053 82.1495 69.4795 82.9597 69.448C84.0106 69.4629 85.0418 69.1619 85.9197 68.584C86.0399 68.508 86.1845 68.4806 86.3242 68.5074C86.4638 68.5341 86.5881 68.613 86.6717 68.728C87.6886 70.1903 88.2457 71.923 88.2717 73.704C88.2969 73.8965 88.3645 74.0811 88.4696 74.2443C88.5748 74.4076 88.7148 74.5454 88.8797 74.648C89.0428 74.7495 89.2257 74.8148 89.4161 74.8397C89.6065 74.8645 89.8001 74.8482 89.9837 74.792C90.3522 74.668 90.6724 74.4314 90.8992 74.1156C91.126 73.7998 91.2479 73.4208 91.2477 73.032V71.368C91.2681 68.8997 90.5249 66.4854 89.1197 64.456Z" fill="#724F3D"/>
<path d="M89.1197 64.456C89.0714 64.3901 89.039 64.3139 89.0251 64.2334C89.0112 64.1529 89.0162 64.0702 89.0397 63.992C89.4144 62.2022 89.27 60.3426 88.6237 58.632C88.6164 58.6052 88.6022 58.5808 88.5825 58.5612C88.5629 58.5415 88.5385 58.5273 88.5117 58.52C88.488 58.5042 88.4602 58.4957 88.4317 58.4957C88.4032 58.4957 88.3754 58.5042 88.3517 58.52C87.413 59.1346 86.4097 59.6444 85.3597 60.04C85.5125 58.6733 85.3818 57.2898 84.9757 55.976C84.9651 55.9439 84.9462 55.9151 84.9209 55.8926C84.8956 55.8701 84.8649 55.8547 84.8317 55.848C84.7698 55.8246 84.7016 55.8246 84.6397 55.848C84.2612 56.5164 83.7081 57.0694 83.0397 57.448C81.4397 58.2 78.8637 57.192 76.6397 57.448C74.0317 57.768 71.9677 58.968 71.9677 60.648C71.963 60.8614 72.0011 61.0735 72.0797 61.272C72.1133 61.3808 72.113 61.4973 72.0787 61.606C72.0444 61.7146 71.9778 61.8102 71.8877 61.88C70.4348 62.9995 69.2571 64.4364 68.4445 66.0809C67.632 67.7253 67.2062 69.5338 67.1997 71.368V71.464C67.9187 69.1264 69.3302 67.062 71.2477 65.544C71.3349 65.4722 71.3984 65.3757 71.4298 65.2672C71.4613 65.1587 71.4591 65.0433 71.4237 64.936C71.3557 64.7347 71.3179 64.5244 71.3117 64.312C71.3117 62.616 73.3757 61.24 75.9837 61.112C77.5837 60.92 80.8957 61.848 82.3837 61.112C83.0526 60.7341 83.6058 60.1809 83.9837 59.512C84.0098 59.4948 84.0404 59.4856 84.0717 59.4856C84.103 59.4856 84.1336 59.4948 84.1597 59.512C84.1964 59.5139 84.2316 59.5273 84.2603 59.5503C84.2889 59.5733 84.3097 59.6046 84.3197 59.64C84.6413 60.6748 84.7821 61.7573 84.7357 62.84C84.7363 62.933 84.7583 63.0247 84.7999 63.1079C84.8415 63.1911 84.9016 63.2637 84.9757 63.32C85.0611 63.3589 85.1539 63.379 85.2477 63.379C85.3416 63.379 85.4343 63.3589 85.5197 63.32C86.2718 62.987 86.9944 62.5909 87.6797 62.136C87.7048 62.1245 87.7321 62.1185 87.7597 62.1185C87.7873 62.1185 87.8146 62.1245 87.8397 62.136C87.8954 62.155 87.9414 62.1953 87.9677 62.248C88.6349 63.9403 88.8231 65.7837 88.5117 67.576C88.4566 67.7257 88.4566 67.8902 88.5117 68.04C89.8443 69.9173 90.6055 72.1399 90.7037 74.44C90.8727 74.2694 91.0063 74.067 91.0969 73.8446C91.1875 73.6222 91.2333 73.3841 91.2317 73.144V71.368C91.2568 68.9014 90.5192 66.4873 89.1197 64.456Z" fill="#A86C4D"/>
<path d="M89.1197 64.456C89.0714 64.3901 89.039 64.3139 89.0251 64.2334C89.0112 64.1529 89.0162 64.0702 89.0397 63.992C89.4144 62.2022 89.27 60.3426 88.6237 58.632C88.6164 58.6052 88.6022 58.5808 88.5825 58.5612C88.5629 58.5415 88.5385 58.5273 88.5117 58.52C88.488 58.5042 88.4602 58.4957 88.4317 58.4957C88.4032 58.4957 88.3754 58.5042 88.3517 58.52C87.413 59.1346 86.4097 59.6444 85.3597 60.04C85.5125 58.6733 85.3818 57.2898 84.9757 55.976C84.9651 55.9439 84.9462 55.9151 84.9209 55.8926C84.8956 55.8701 84.8649 55.8547 84.8317 55.848C84.7698 55.8246 84.7016 55.8246 84.6397 55.848C84.2612 56.5164 83.7081 57.0694 83.0397 57.448C81.4397 58.2 78.8637 57.192 76.6397 57.448C74.0317 57.768 71.9677 58.968 71.9677 60.648C71.963 60.8614 72.0011 61.0735 72.0797 61.272C72.1133 61.3808 72.113 61.4973 72.0787 61.606C72.0444 61.7146 71.9778 61.8102 71.8877 61.88C70.4348 62.9995 69.2571 64.4364 68.4445 66.0809C67.632 67.7253 67.2062 69.5338 67.1997 71.368V73.096C67.1995 73.4848 67.3214 73.8638 67.5482 74.1796C67.775 74.4954 68.0952 74.732 68.4637 74.856C68.65 74.9126 68.8461 74.929 69.0392 74.9042C69.2322 74.8793 69.4178 74.8138 69.5837 74.712C69.7442 74.6061 69.88 74.4671 69.9821 74.3042C70.0843 74.1414 70.1503 73.9585 70.1757 73.768C70.2612 72.4363 70.6158 71.1358 71.2181 69.9451C71.8203 68.7543 72.6577 67.698 73.6797 66.84C73.7856 66.7529 73.9185 66.7052 74.0557 66.7052C74.1929 66.7052 74.3258 66.7529 74.4317 66.84C74.9913 67.3357 75.7162 67.604 76.4637 67.592C77.0243 67.5958 77.576 67.4524 78.0637 67.176C78.1255 67.1386 78.1942 67.1138 78.2656 67.1033C78.3371 67.0927 78.41 67.0964 78.48 67.1143C78.55 67.1322 78.6157 67.1638 78.6734 67.2074C78.731 67.2509 78.7794 67.3055 78.8157 67.368C79.2745 68.0365 79.8953 68.5778 80.6199 68.9415C81.3445 69.3053 82.1495 69.4795 82.9597 69.448C84.0106 69.4629 85.0418 69.1619 85.9197 68.584C86.0399 68.508 86.1845 68.4806 86.3242 68.5074C86.4638 68.5341 86.5881 68.613 86.6717 68.728C87.6886 70.1903 88.2457 71.923 88.2717 73.704C88.2969 73.8965 88.3645 74.0811 88.4696 74.2443C88.5748 74.4076 88.7148 74.5454 88.8797 74.648C89.0428 74.7495 89.2257 74.8148 89.4161 74.8397C89.6065 74.8645 89.8001 74.8482 89.9837 74.792C90.3522 74.668 90.6724 74.4314 90.8992 74.1156C91.126 73.7998 91.2479 73.4208 91.2477 73.032V71.368C91.2681 68.8997 90.5249 66.4854 89.1197 64.456V64.456Z" stroke="#191816" stroke-linecap="round" stroke-linejoin="round"/>
<path d="M85.3599 60.056C85.3599 60.056 83.5519 61.176 78.3999 61.176" stroke="#191816" stroke-linecap="round" stroke-linejoin="round"/>
</svg>
