<svg preserveAspectRatio="xMinYMin meet" viewBox="0 0 160 144" fill="none" xmlns="http://www.w3.org/2000/svg">
<path d="M125.255 26.8278C150.248 51.8214 150.248 92.344 125.255 117.337C100.261 142.331 59.7386 142.331 34.7452 117.337C9.7516 92.3438 9.7516 51.8212 34.7452 26.8278C59.7388 1.83418 100.261 1.83418 125.255 26.8278Z" fill="#E8F4FA"/>
<path opacity="0.15" d="M133.382 63.8684C139.006 69.492 139.006 78.6095 133.382 84.2331C127.759 89.8566 118.641 89.8566 113.017 84.2331C107.394 78.6095 107.394 69.4919 113.017 63.8684C118.641 58.2449 127.759 58.2449 133.382 63.8684Z" fill="#191816"/>
<path opacity="0.15" d="M103.6 107.443C103.655 108.383 102.94 109.191 102 109.251L41.92 112.451C40.989 112.488 40.1963 111.78 40.128 110.851L39.936 107.219C39.8688 106.315 39.1145 105.616 38.208 105.619H35.312C34.3638 105.619 33.5928 104.855 33.584 103.907V60.8828C33.584 59.9284 34.3576 59.1548 35.312 59.1548H95.456C96.4015 59.1547 97.168 59.9212 97.1681 60.8667C97.1681 60.8721 97.168 60.8774 97.168 60.8828V63.1228L99.584 63.0108C100.519 62.9564 101.321 63.6703 101.376 64.6054C101.376 64.6072 101.376 64.609 101.376 64.6108L103.6 107.443Z" fill="#191816"/>
<path d="M41.9192 106.193C40.975 106.241 40.1699 105.516 40.1211 104.571L37.9019 61.6527C37.8531 60.7084 38.5789 59.9034 39.5232 59.8546L99.6029 56.748C100.547 56.6991 101.352 57.425 101.401 58.3693L103.62 101.288C103.669 102.232 102.943 103.037 101.999 103.086L41.9192 106.193Z" fill="#E8F4FA" stroke="#191816"/>
<path opacity="0.15" d="M68.0321 43.6987L54.2721 46.5947C53.5377 46.7235 52.8323 46.2509 52.6721 45.5227C52.5156 44.7791 51.7859 44.303 51.0422 44.4595C50.9365 44.4818 50.8337 44.5164 50.7361 44.5627C49.966 44.8909 49.0731 44.57 48.6881 43.8267L44.2401 34.4027C43.8028 33.5844 44.1117 32.5665 44.9301 32.1292C44.9609 32.1127 44.9923 32.0972 45.0241 32.0827L58.1761 25.8587L60.7041 31.2507L66.0481 30.1467L68.8161 39.1867L69.1041 42.1787C69.2032 42.8887 68.7342 43.5538 68.0321 43.6987L68.0321 43.6987Z" fill="#191816"/>
<path d="M139.12 84.5947C137.833 85.8784 135.751 85.8784 134.464 84.5947L127.792 77.8747L132.448 73.2187L139.168 79.9387C140.441 81.1644 140.48 83.1901 139.254 84.4634C139.211 84.5084 139.166 84.5522 139.12 84.5947V84.5947Z" fill="#DAEDF7" stroke="#191816" stroke-linecap="round" stroke-linejoin="round"/>
<path d="M133.382 58.6044C139.006 64.2279 139.006 73.3455 133.382 78.969C127.759 84.5926 118.641 84.5926 113.017 78.969C107.394 73.3455 107.394 64.2279 113.017 58.6044C118.641 52.9808 127.759 52.9808 133.382 58.6044Z" fill="#DAEDF7" stroke="#191816"/>
<path d="M131.12 60.8674C135.493 65.2413 135.493 72.3327 131.12 76.7066C126.746 81.0804 119.654 81.0804 115.28 76.7066C110.907 72.3327 110.907 65.2413 115.28 60.8674C119.654 56.4935 126.746 56.4935 131.12 60.8674Z" fill="#BF8256"/>
<path d="M115.28 63.7307C119.664 59.367 126.755 59.3834 131.119 63.7674C132.857 65.5134 133.971 67.7837 134.288 70.2267C135.129 64.0985 130.843 58.4489 124.714 57.6079C118.586 56.7669 112.937 61.053 112.096 67.1812C111.957 68.1916 111.957 69.2162 112.096 70.2267C112.409 67.7687 113.529 65.4842 115.28 63.7307Z" fill="#915E3A"/>
<path d="M131.12 60.8674C135.493 65.2413 135.493 72.3327 131.12 76.7066C126.746 81.0804 119.654 81.0804 115.28 76.7066C110.907 72.3327 110.907 65.2413 115.28 60.8674C119.654 56.4935 126.746 56.4935 131.12 60.8674Z" stroke="#191816"/>
<path d="M35.3121 99.3146C34.3666 99.3146 33.6001 98.5481 33.6001 97.6026V54.6266C33.6001 53.6811 34.3666 52.9146 35.3121 52.9146H95.4721C96.4176 52.9146 97.1841 53.6811 97.1841 54.6266V97.6026C97.1841 98.5481 96.4176 99.3146 95.4721 99.3146H35.3121Z" fill="white" stroke="#191816"/>
<path d="M91.1199 75.0107C91.1199 75.2507 91.1199 75.4907 91.1199 75.7467V75.7467C90.9167 81.7786 85.8621 86.5037 79.8301 86.3005C73.7982 86.0972 69.0731 81.0426 69.2763 75.0107C69.4796 68.9787 74.5342 64.2536 80.5661 64.4569C86.3127 64.6505 90.9263 69.2641 91.1199 75.0107V75.0107Z" fill="#FF6242" stroke="#191816"/>
<path d="M91.1202 75.0107C91.1202 75.2507 91.1202 75.4907 91.1202 75.7467H80.0962V63.9707C86.1872 63.9795 91.1202 68.9197 91.1202 75.0107Z" fill="#FF8A14" stroke="#191816" stroke-linejoin="round"/>
<path d="M40.4639 58.0668V94.1628V58.0668Z" fill="#FFE500"/>
<path d="M40.4639 58.0668V94.1628" stroke="#191816" stroke-linecap="round" stroke-linejoin="round"/>
<path d="M40.4639 59.955H56.7839V65.107H40.4639V59.955Z" fill="#FF6242" stroke="#191816" stroke-linecap="round" stroke-linejoin="round"/>
<path d="M40.4639 68.5466H55.0719V73.6986H40.4639V68.5466Z" fill="#6DD627" stroke="#191816" stroke-linecap="round" stroke-linejoin="round"/>
<path d="M40.4639 77.8268H43.9039V82.9788H40.4639V77.8268Z" fill="#FFE500" stroke="#191816" stroke-linecap="round" stroke-linejoin="round"/>
<path d="M40.4639 86.4188H43.9039V91.5708H40.4639V86.4188Z" fill="#00B8F0" stroke="#191816" stroke-linecap="round" stroke-linejoin="round"/>
<path d="M51.6318 80.4029H60.2238H51.6318Z" fill="#6DD627"/>
<path d="M51.6318 80.4029H60.2238" stroke="#191816" stroke-linecap="round" stroke-linejoin="round"/>
<path d="M51.6318 85.5708H60.2238H51.6318Z" fill="#6DD627"/>
<path d="M51.6318 85.5708H60.2238" stroke="#191816" stroke-linecap="round" stroke-linejoin="round"/>
<path d="M51.6318 90.7227H55.0718H51.6318Z" fill="#6DD627"/>
<path d="M51.6318 90.7227H55.0718" stroke="#191816" stroke-linecap="round" stroke-linejoin="round"/>
<path d="M54.6003 42.1942C53.6745 42.3861 52.7684 41.7911 52.5765 40.8653L50.4949 30.8227C50.303 29.8969 50.898 28.9908 51.8238 28.7989L64.3731 26.1978C65.2989 26.0059 66.205 26.6009 66.3969 27.5267L68.4785 37.5692C68.6704 38.4951 68.0754 39.4012 67.1496 39.5931L54.6003 42.1942Z" fill="#6DD627" stroke="#191816" stroke-linecap="round" stroke-linejoin="round"/>
<path d="M50.8662 40.1688C50.011 40.572 48.9908 40.2055 48.5877 39.3503L44.2144 30.0734C43.8112 29.2182 44.1777 28.198 45.0329 27.7948L56.6254 22.33C57.4806 21.9268 58.5008 22.2933 58.904 23.1485L63.2772 32.4254C63.6804 33.2806 63.3139 34.3008 62.4587 34.7039L50.8662 40.1688Z" fill="#FFE500" stroke="#191816" stroke-linecap="round" stroke-linejoin="round"/>
<path d="M48.3999 30.9149L56.8959 26.9149L48.3999 30.9149Z" fill="#FFF48C"/>
<path d="M48.3999 30.9149L56.8959 26.9149" stroke="#191816" stroke-linecap="round" stroke-linejoin="round"/>
<path d="M50.208 34.7867L55.632 32.2267L50.208 34.7867Z" fill="#FFF48C"/>
<path d="M50.208 34.7867L55.632 32.2267" stroke="#191816" stroke-linecap="round" stroke-linejoin="round"/>
<path opacity="0.15" d="M85.0521 45.2676C82.8797 44.9792 81.3523 42.9844 81.6406 40.812L85.6865 10.3273C85.9748 8.1549 87.9696 6.62751 90.142 6.91583L113.743 10.0481C115.915 10.3364 117.443 12.3313 117.155 14.5037L113.109 44.9884C112.82 47.1608 110.826 48.6881 108.653 48.3998L85.0521 45.2676Z" fill="#191816"/>
<path d="M85.055 40.8738C82.8826 40.5855 81.3552 38.5906 81.6435 36.4182L85.6894 5.93351C85.9777 3.76112 87.9725 2.23373 90.1449 2.52205L113.746 5.65432C115.918 5.94264 117.446 7.93749 117.157 10.1099L113.112 40.5946C112.823 42.767 110.828 44.2944 108.656 44.0061L85.055 40.8738Z" fill="#E8F4FA" stroke="#191816" stroke-linecap="round" stroke-linejoin="round"/>
<path d="M90.1474 2.52251L113.733 5.65268C115.905 5.94099 117.432 7.93581 117.144 10.1082L115.969 18.9586L84.5172 14.7844L85.6918 5.93397C85.9801 3.76155 87.975 2.23418 90.1474 2.5225L90.1474 2.52251Z" fill="#656769"/>
<path d="M113.744 5.65064L90.1439 2.45064C87.9754 2.16675 85.986 3.69098 85.6959 5.85864L85.2959 8.81864C85.5855 6.64638 87.5812 5.12019 89.7534 5.40978C89.7556 5.41007 89.7577 5.41035 89.7599 5.41065L113.344 8.61065C115.52 8.90086 117.052 10.8973 116.768 13.0746L117.152 10.1146C117.445 7.94287 115.922 5.94466 113.75 5.65151C113.748 5.65122 113.746 5.65093 113.744 5.65064V5.65064Z" fill="#87898C"/>
<path d="M90.1474 2.52251L113.733 5.65268V5.65268C115.905 5.94099 117.432 7.93581 117.144 10.1082V10.1082L115.969 18.9586L84.5172 14.7844L85.6918 5.93397V5.93397C85.9801 3.76155 87.975 2.23418 90.1474 2.5225V2.5225L90.1474 2.52251Z" stroke="#191816" stroke-linecap="round" stroke-linejoin="round"/>
<path d="M93.5504 21.9762C93.4063 23.0624 92.4089 23.8261 91.3227 23.6819L89.3559 23.4209C88.2697 23.2767 87.506 22.2793 87.6502 21.1931C87.7943 20.1069 88.7918 19.3432 89.878 19.4874L91.8447 19.7484C92.9309 19.8926 93.6946 20.89 93.5504 21.9762Z" fill="white" stroke="#191816" stroke-linecap="round" stroke-linejoin="round"/>
<path d="M102.416 23.1689C102.272 24.2551 101.275 25.0188 100.188 24.8746L98.2216 24.6136C97.1354 24.4694 96.3717 23.472 96.5159 22.3858C96.6601 21.2996 97.6575 20.5359 98.7437 20.6801L100.71 20.9411C101.797 21.0852 102.56 22.0827 102.416 23.1689Z" fill="white" stroke="#191816" stroke-linecap="round" stroke-linejoin="round"/>
<path d="M111.25 24.3436C111.106 25.4298 110.108 26.1935 109.022 26.0493L107.055 25.7883C105.969 25.6441 105.205 24.6467 105.349 23.5605C105.494 22.4743 106.491 21.7106 107.577 21.8548L109.544 22.1158C110.63 22.26 111.394 23.2574 111.25 24.3436Z" fill="#FF6242" stroke="#191816" stroke-linecap="round" stroke-linejoin="round"/>
<path d="M92.6344 28.8576C92.4903 29.9438 91.4929 30.7075 90.4067 30.5633L88.4399 30.3023C87.3537 30.1582 86.59 29.1607 86.7342 28.0745C86.8783 26.9883 87.8757 26.2246 88.9619 26.3688L90.9287 26.6298C92.0149 26.774 92.7786 27.7714 92.6344 28.8576Z" fill="white" stroke="#191816" stroke-linecap="round" stroke-linejoin="round"/>
<path d="M101.5 30.034C101.356 31.1202 100.359 31.8839 99.2724 31.7397L97.3056 31.4787C96.2194 31.3345 95.4557 30.3371 95.5999 29.2509C95.744 28.1647 96.7415 27.401 97.8277 27.5452L99.7944 27.8062C100.881 27.9504 101.644 28.9478 101.5 30.034Z" fill="white" stroke="#191816" stroke-linecap="round" stroke-linejoin="round"/>
<path d="M110.334 31.2087C110.19 32.2949 109.193 33.0586 108.106 32.9144L106.14 32.6534C105.053 32.5092 104.29 31.5118 104.434 30.4256C104.578 29.3394 105.575 28.5757 106.662 28.7199L108.628 28.9809C109.715 29.1251 110.478 30.1225 110.334 31.2087Z" fill="#FFE500" stroke="#191816" stroke-linecap="round" stroke-linejoin="round"/>
<path d="M91.7345 35.7407C91.5904 36.8269 90.5929 37.5906 89.5067 37.4464L87.54 37.1854C86.4538 37.0412 85.6901 36.0438 85.8343 34.9576C85.9784 33.8714 86.9758 33.1077 88.062 33.2519L90.0288 33.5129C91.115 33.6571 91.8787 34.6545 91.7345 35.7407Z" fill="white" stroke="#191816" stroke-linecap="round" stroke-linejoin="round"/>
<path d="M100.585 36.9154C100.44 38.0016 99.4431 38.7653 98.3569 38.6211L96.3901 38.3601C95.3039 38.216 94.5402 37.2185 94.6844 36.1323C94.8285 35.0461 95.8259 34.2824 96.9121 34.4266L98.8789 34.6876C99.9651 34.8318 100.729 35.8292 100.585 36.9154Z" fill="white" stroke="#191816" stroke-linecap="round" stroke-linejoin="round"/>
<path d="M109.419 38.0899C109.274 39.1761 108.277 39.9398 107.191 39.7957L105.224 39.5346C104.138 39.3905 103.374 38.3931 103.518 37.3069C103.663 36.2207 104.66 35.457 105.746 35.6011L107.713 35.8621C108.799 36.0063 109.563 37.0037 109.419 38.0899Z" fill="#6DD627" stroke="#191816"/>
<path d="M90.5303 6.41156L112.136 9.24868L111.491 14.1591L89.8855 11.322L90.5303 6.41156Z" fill="#00B8F0" stroke="#191816" stroke-linecap="round" stroke-linejoin="round"/>
<path d="M68.2721 108.531L56.9441 83.1386C56.2239 81.5216 56.951 79.6268 58.5681 78.9066C60.1851 78.1865 62.0799 78.9136 62.8001 80.5306L69.2001 94.9306C68.422 93.3438 69.0776 91.4267 70.6644 90.6486C72.2512 89.8705 74.1683 90.5262 74.9464 92.113C74.9801 92.1817 75.0114 92.2517 75.04 92.3226L75.696 93.7787C74.8798 92.2111 75.4889 90.2787 77.0564 89.4625C78.624 88.6463 80.5564 89.2553 81.3726 90.8229C81.4496 90.9708 81.515 91.1245 81.5681 91.2826L82.2241 92.7546C81.5618 91.1161 82.3532 89.251 83.9917 88.5887C85.5477 87.9598 87.3252 88.6398 88.0641 90.1466L92.8641 100.739C96.2241 108.259 93.8881 110.883 95.8081 115.139L97.6001 119.155L80.7201 126.627C76.9761 118.211 69.1361 124.611 63.2001 111.299C60.9601 106.275 61.7281 103.571 65.3441 101.955" fill="#FFCEBF"/>
<path d="M68.2721 108.531L56.9441 83.1386V83.1386C56.2239 81.5216 56.951 79.6268 58.5681 78.9066C60.1851 78.1865 62.0799 78.9136 62.8001 80.5306L69.2001 94.9306V94.9306C68.422 93.3438 69.0776 91.4267 70.6644 90.6486C72.2512 89.8705 74.1683 90.5262 74.9464 92.113C74.9801 92.1817 75.0114 92.2517 75.04 92.3226L75.696 93.7787V93.7787C74.8798 92.2111 75.4889 90.2787 77.0564 89.4625C78.624 88.6463 80.5564 89.2553 81.3726 90.8229C81.4496 90.9708 81.515 91.1245 81.5681 91.2826L82.2241 92.7546V92.7546C81.5618 91.1161 82.3532 89.251 83.9917 88.5887C85.5477 87.9598 87.3252 88.6398 88.0641 90.1466L92.8641 100.739C96.2241 108.259 93.8881 110.883 95.8081 115.139L97.6001 119.155L80.7201 126.627C76.9761 118.211 69.1361 124.611 63.2001 111.299C60.9601 106.275 61.7281 103.571 65.3441 101.955" stroke="#191816" stroke-linecap="round" stroke-linejoin="round"/>
<path d="M77.136 96.9784L75.728 93.8105L77.136 96.9784Z" fill="#FFCEBF"/>
<path d="M77.136 96.9784L75.728 93.8105" stroke="#191816" stroke-linecap="round" stroke-linejoin="round"/>
<path d="M71.1841 99.3468L68.9121 94.2267L71.1841 99.3468Z" fill="#FFCEBF"/>
<path d="M71.1841 99.3468L68.9121 94.2267" stroke="#191816" stroke-linecap="round" stroke-linejoin="round"/>
<path d="M82.9759 94.3706L81.5679 91.2025L82.9759 94.3706Z" fill="#FFCEBF"/>
<path d="M82.9759 94.3706L81.5679 91.2025" stroke="#191816" stroke-linecap="round" stroke-linejoin="round"/>
<path d="M85.2001 116.035C80.1095 118.311 74.5404 119.31 68.9761 118.947C73.5201 122.147 78.1121 120.771 80.7201 126.627L97.5361 119.123L95.7921 115.107C95.0793 113.358 94.7624 111.473 94.8641 109.587C92.0349 112.273 88.7663 114.454 85.2001 116.035Z" fill="#FFB59E"/>
<path d="M68.2721 108.531L56.9441 83.1386V83.1386C56.2239 81.5216 56.951 79.6268 58.5681 78.9066C60.1851 78.1865 62.0799 78.9136 62.8001 80.5306L69.2001 94.9306V94.9306C68.422 93.3438 69.0776 91.4267 70.6644 90.6486C72.2512 89.8705 74.1683 90.5262 74.9464 92.113C74.9801 92.1817 75.0114 92.2517 75.04 92.3226L75.696 93.7787V93.7787C74.8798 92.2111 75.4889 90.2787 77.0564 89.4625C78.624 88.6463 80.5564 89.2553 81.3726 90.8229C81.4496 90.9708 81.515 91.1245 81.5681 91.2826L82.2241 92.7546V92.7546C81.5618 91.1161 82.3532 89.251 83.9917 88.5887C85.5477 87.9598 87.3252 88.6398 88.0641 90.1466L92.8641 100.739C96.2241 108.259 93.8881 110.883 95.8081 115.139L97.6001 119.155L80.7201 126.627C76.9761 118.211 69.1361 124.611 63.2001 111.299C60.9601 106.275 61.7281 103.571 65.3441 101.955" stroke="#191816" stroke-linecap="round" stroke-linejoin="round"/>
<path d="M106.33 130.997C106.69 131.804 106.328 132.75 105.521 133.11L85.7942 141.909C84.9872 142.269 84.0412 141.907 83.6812 141.1L80.4222 133.794C80.0622 132.987 80.4246 132.041 81.2316 131.681L100.958 122.882C101.765 122.522 102.711 122.884 103.071 123.691L106.33 130.997Z" fill="#009FD9" stroke="#191816" stroke-linejoin="round"/>
<path d="M81.2159 131.666C80.4077 132.024 80.042 132.968 80.3991 133.777C80.3994 133.777 80.3997 133.778 80.3999 133.778L83.5999 141.09C83.9571 141.899 84.9018 142.264 85.7101 141.907C85.7107 141.907 85.7113 141.907 85.7119 141.906L87.9679 140.882L83.4079 130.658L81.2159 131.666Z" fill="#00B8F0"/>
<path d="M106.33 130.997C106.69 131.804 106.328 132.75 105.521 133.11L85.7942 141.909C84.9872 142.269 84.0412 141.907 83.6812 141.1L80.4222 133.794C80.0622 132.987 80.4246 132.041 81.2316 131.681L100.958 122.882C101.765 122.522 102.711 122.884 103.071 123.691L106.33 130.997Z" stroke="#191816" stroke-linejoin="round"/>
<path d="M99.6371 119.944L100.941 122.866L81.2143 131.666L79.9107 128.743C79.5507 127.936 79.9131 126.99 80.7201 126.63L97.5241 119.134C98.3311 118.774 99.2772 119.137 99.6371 119.944Z" fill="white" stroke="#191816" stroke-linecap="round" stroke-linejoin="round"/>
</svg>
