<svg xmlns="http://www.w3.org/2000/svg" width="127" height="64" viewBox="0 0 127 64">
    <g fill="none" fill-rule="evenodd">
        <path fill="#FFF" d="M0 0h127v64H0z"/>
        <path fill="#66758A" fill-rule="nonzero" d="M49.297 35.86h2.555c.234 1.675 1.828 2.683 4.078 2.683 2.144 0 3.68-1.102 3.68-2.613 0-1.313-.891-2.133-3.153-2.625l-1.84-.387c-3.387-.715-4.922-2.285-4.922-4.723 0-2.894 2.543-4.886 6.14-4.886 3.587 0 6.036 2.027 6.118 4.98H59.41c-.164-1.7-1.558-2.742-3.61-2.742-1.98 0-3.433.96-3.433 2.508 0 1.23.867 2.05 3.059 2.52l1.851.386c3.54.75 4.993 2.168 4.993 4.629 0 3.187-2.508 5.191-6.446 5.191-3.82 0-6.363-1.91-6.527-4.922zm16.137-10.606h2.543v2.918h2.343v2.004h-2.343v6.797c0 1.066.468 1.547 1.5 1.547.257 0 .668-.024.832-.06v2.005c-.282.07-.844.117-1.407.117-2.496 0-3.468-.95-3.468-3.328v-7.078H63.64v-2.004h1.793v-2.918zm11.46 13.453c1.77 0 3.153-1.219 3.153-2.824v-.973l-3.035.188c-1.512.105-2.367.773-2.367 1.828 0 1.078.89 1.781 2.25 1.781zm-.703 2.004c-2.414 0-4.101-1.5-4.101-3.715 0-2.156 1.652-3.48 4.582-3.644l3.375-.2v-.949c0-1.371-.926-2.191-2.473-2.191-1.465 0-2.379.703-2.601 1.804h-2.391c.14-2.226 2.04-3.867 5.086-3.867 2.988 0 4.898 1.582 4.898 4.055V40.5h-2.425v-2.027h-.059c-.715 1.37-2.273 2.238-3.89 2.238zm9.2-.211V28.172h2.414v2.098h.058c.41-1.442 1.512-2.297 2.965-2.297.363 0 .68.058.867.093v2.356c-.199-.082-.644-.14-1.136-.14-1.63 0-2.637 1.09-2.637 2.835V40.5H85.39zm8.988-15.246h2.543v2.918h2.344v2.004h-2.344v6.797c0 1.066.469 1.547 1.5 1.547.258 0 .668-.024.832-.06v2.005c-.281.07-.844.117-1.406.117-2.496 0-3.47-.95-3.47-3.328v-7.078h-1.792v-2.004h1.793v-2.918zm17.906 2.918V40.5h-2.426v-2.086h-.058c-.68 1.477-1.934 2.309-3.82 2.309-2.684 0-4.325-1.746-4.325-4.57v-7.981h2.531v7.488c0 1.875.891 2.883 2.637 2.883 1.828 0 2.93-1.266 2.93-3.188v-7.183h2.531zm9.293-.2c3.129 0 5.192 2.462 5.192 6.364 0 3.902-2.051 6.375-5.145 6.375-1.77 0-3.176-.867-3.879-2.238h-.058v6.105h-2.532V28.172h2.45v2.121h.046c.727-1.418 2.145-2.32 3.926-2.32zm-.668 10.594c2.004 0 3.258-1.64 3.258-4.23 0-2.578-1.254-4.23-3.258-4.23-1.933 0-3.234 1.687-3.234 4.23 0 2.566 1.289 4.23 3.234 4.23z"/>
        <path fill="#66758A" d="M17.443 42.754a1 1 0 0 1 1.84.785 16.439 16.439 0 0 1-2.516 4.103 1 1 0 0 1-1.532.002 16.104 16.104 0 0 1-2.582-4.265 1 1 0 0 1 1.851-.758c.396.966.897 1.884 1.495 2.737a14.439 14.439 0 0 0 1.444-2.604zM17 19.467a1 1 0 0 1-2 0V17a1 1 0 0 1 2 0v2.467z"/>
        <path fill="#66758A" d="M21.049 21.83a4.603 4.603 0 0 1 1.785 4.888l-3.067 11.626a1 1 0 0 1-.967.745h-5.6a1 1 0 0 1-.967-.745L9.164 26.71a4.6 4.6 0 0 1 1.787-4.879l4.47-3.178a1 1 0 0 1 1.159 0l4.469 3.178zM16 20.694l-3.888 2.765a2.597 2.597 0 0 0-1.012 2.749l2.87 10.881h4.06l2.868-10.873a2.6 2.6 0 0 0-1.009-2.756L16 20.694z"/>
        <path fill="#66758A" d="M12.681 37.234a1 1 0 1 1 1.038 1.71l-3.128 1.898c-.507.3-1.13.326-1.641.08a1.639 1.639 0 0 1-.955-1.47v-3.646a3.527 3.527 0 0 1 2.094-3.154l1.334-.615a1 1 0 0 1 .837 1.816l-1.35.622c-.546.24-.903.776-.915 1.352v3.038l2.686-1.63zM22.006 35.847a1.54 1.54 0 0 0-.933-1.379l-1.333-.615a1 1 0 0 1 .837-1.816l1.317.608a3.54 3.54 0 0 1 2.111 3.182v3.647a1.622 1.622 0 0 1-.935 1.44 1.768 1.768 0 0 1-1.671-.078l-3.118-1.892a1 1 0 1 1 1.038-1.71l2.686 1.631v-3.018zM18.121 28.121a3 3 0 1 1-4.242-4.242 3 3 0 0 1 4.242 4.242zm-2.828-2.828a1 1 0 1 0 1.414 1.414 1 1 0 0 0-1.414-1.414zM30.667 20.667a1 1 0 0 1 0 2l-2.271-.002c-.15.01-.264.138-.255.37a.553.553 0 0 0 .08.274l2.475.874c.819.408 1.327 1.253 1.302 2.085.07 1.248-.88 2.319-2.19 2.399H27a1 1 0 1 1 0-2l2.746.002c.15-.01.264-.139.254-.37.004-.138-.072-.264-.08-.276l-2.474-.874c-.82-.407-1.329-1.253-1.303-2.086-.07-1.247.881-2.317 2.19-2.396h2.334z"/>
        <path fill="#66758A" d="M30 21.667a1 1 0 0 1-2 0v-1.334a1 1 0 0 1 2 0v1.334zM30 29a1 1 0 0 1-2 0v-1.333a1 1 0 0 1 2 0V29zM4.667 17.333a1 1 0 0 1 0 2l-2.271-.002c-.15.01-.265.138-.255.37a.553.553 0 0 0 .08.275l2.475.874c.819.407 1.327 1.252 1.302 2.084.07 1.249-.88 2.32-2.19 2.4H1a1 1 0 0 1 0-2l2.746.001c.15-.01.264-.138.254-.37.004-.137-.072-.263-.08-.276l-2.474-.873c-.82-.407-1.33-1.253-1.303-2.086-.07-1.247.881-2.317 2.19-2.397h2.334z"/>
        <path fill="#66758A" d="M4 18.333a1 1 0 0 1-2 0V17a1 1 0 0 1 2 0v1.333zM4 25.667a1 1 0 0 1-2 0v-1.334a1 1 0 0 1 2 0v1.334z"/>
    </g>
</svg>
