<svg xmlns="http://www.w3.org/2000/svg" width="139" height="64" viewBox="0 0 139 64">
    <g fill="none" fill-rule="evenodd">
        <path fill="#FFF" d="M0 0h139v64H0z"/>
        <path fill="#66758A" d="M10.05 17.023c2.6 1.56 2.6 4.397 0 5.957-2.27 1.362-5.83 1.362-8.1 0-2.6-1.56-2.6-4.398 0-5.957 2.27-1.362 5.83-1.362 8.1 0zm-1.029 1.715c-1.636-.982-4.406-.982-6.042 0-1.305.783-1.305 1.744 0 2.527 1.636.982 4.406.982 6.042 0 1.305-.783 1.305-1.744 0-2.527z"/>
        <path fill="#66758A" d="M0 20a1 1 0 0 1 2 0v6c0 .968 1.72 2 4 2 2.281 0 4-1.031 4-2v-6a1 1 0 0 1 2 0v6c0 2.345-2.758 4-6 4-3.241 0-6-1.656-6-4v-6zM10.05 35.023c2.6 1.56 2.6 4.397 0 5.957-2.27 1.362-5.83 1.362-8.1 0-2.6-1.56-2.6-4.398 0-5.957 2.27-1.362 5.83-1.362 8.1 0zm-1.029 1.715c-1.636-.982-4.406-.982-6.042 0-1.305.783-1.305 1.744 0 2.527 1.636.982 4.406.982 6.042 0 1.305-.783 1.305-1.744 0-2.527z"/>
        <path fill="#66758A" d="M0 38a1 1 0 0 1 2 0v6c0 .968 1.72 2 4 2 2.281 0 4-1.031 4-2v-6a1 1 0 0 1 2 0v6c0 2.345-2.758 4-6 4-3.241 0-6-1.656-6-4v-6zM30.05 17.023c2.6 1.56 2.6 4.397 0 5.957-2.27 1.362-5.83 1.362-8.1 0-2.6-1.56-2.6-4.398 0-5.957 2.27-1.362 5.83-1.362 8.1 0zm-1.029 1.715c-1.636-.982-4.406-.982-6.042 0-1.305.783-1.305 1.744 0 2.527 1.636.982 4.406.982 6.042 0 1.305-.783 1.305-1.744 0-2.527z"/>
        <path fill="#66758A" d="M20 20a1 1 0 0 1 2 0v6c0 .968 1.72 2 4 2 2.28 0 4-1.032 4-2v-6a1 1 0 0 1 2 0v6c0 2.344-2.759 4-6 4s-6-1.656-6-4v-6zM30.05 35.023c2.6 1.56 2.6 4.397 0 5.957-2.27 1.362-5.83 1.362-8.1 0-2.6-1.56-2.6-4.398 0-5.957 2.27-1.362 5.83-1.362 8.1 0zm-1.029 1.715c-1.636-.982-4.406-.982-6.042 0-1.305.783-1.305 1.744 0 2.527 1.636.982 4.406.982 6.042 0 1.305-.783 1.305-1.744 0-2.527z"/>
        <path fill="#66758A" d="M20 38a1 1 0 0 1 2 0v6c0 .968 1.72 2 4 2 2.28 0 4-1.032 4-2v-6a1 1 0 0 1 2 0v6c0 2.344-2.759 4-6 4s-6-1.656-6-4v-6z"/>
        <path fill="#66758A" fill-rule="nonzero" d="M49.559 23.59h6.34c3.28 0 5.566 2.262 5.566 5.555 0 3.304-2.332 5.578-5.649 5.578h-3.632V40.5h-2.625V23.59zm2.625 2.215v6.715h3.011c2.285 0 3.586-1.23 3.586-3.364 0-2.133-1.3-3.351-3.574-3.351h-3.023zM63.832 40.5V28.172h2.414v2.098h.059c.41-1.442 1.511-2.297 2.965-2.297.363 0 .68.058.867.093v2.356c-.2-.082-.645-.14-1.137-.14-1.629 0-2.637 1.09-2.637 2.835V40.5h-2.531zm13.02.234c-3.528 0-5.848-2.425-5.848-6.398 0-3.961 2.332-6.387 5.848-6.387 3.515 0 5.847 2.426 5.847 6.387 0 3.973-2.32 6.398-5.847 6.398zm0-2.086c1.992 0 3.27-1.57 3.27-4.312 0-2.73-1.29-4.3-3.27-4.3s-3.27 1.57-3.27 4.3c0 2.742 1.29 4.312 3.27 4.312zm13.43-.199c1.98 0 3.28-1.605 3.28-4.148 0-2.531-1.3-4.196-3.28-4.196-1.946 0-3.212 1.63-3.212 4.196 0 2.578 1.266 4.148 3.211 4.148zm.023 6.692c-2.907 0-5.063-1.547-5.38-3.68h2.544c.363 1.031 1.488 1.71 2.93 1.71 1.98 0 3.152-1.124 3.152-2.812v-2.027h-.047c-.692 1.336-2.145 2.215-3.902 2.215-3.094 0-5.122-2.414-5.122-6.258 0-3.879 2.016-6.316 5.18-6.316 1.746 0 3.176.879 3.926 2.308h.047v-2.11h2.46v12.106c0 2.942-2.273 4.864-5.788 4.864zm8.66-4.641V28.172h2.414v2.098h.058c.41-1.442 1.512-2.297 2.965-2.297.364 0 .68.058.868.093v2.356c-.2-.082-.645-.14-1.137-.14-1.63 0-2.637 1.09-2.637 2.835V40.5h-2.531zm12.305-1.793c1.77 0 3.152-1.219 3.152-2.824v-.973l-3.035.188c-1.512.105-2.367.773-2.367 1.828 0 1.078.89 1.781 2.25 1.781zm-.704 2.004c-2.414 0-4.101-1.5-4.101-3.715 0-2.156 1.652-3.48 4.582-3.644l3.375-.2v-.949c0-1.371-.926-2.191-2.473-2.191-1.465 0-2.379.703-2.601 1.804h-2.391c.14-2.226 2.04-3.867 5.086-3.867 2.988 0 4.898 1.582 4.898 4.055V40.5h-2.425v-2.027h-.059c-.715 1.37-2.273 2.238-3.89 2.238zm9.2-.211V28.172h2.414v2.074h.058c.551-1.371 1.84-2.285 3.504-2.285 1.711 0 2.953.879 3.445 2.414h.06c.632-1.5 2.085-2.414 3.843-2.414 2.437 0 4.031 1.617 4.031 4.066V40.5h-2.543v-7.863c0-1.594-.855-2.508-2.355-2.508s-2.543 1.113-2.543 2.672V40.5h-2.485v-8.05c0-1.419-.902-2.321-2.332-2.321-1.5 0-2.566 1.172-2.566 2.754V40.5h-2.531z"/>
        <path fill="#66758A" d="M10.013 27.694a1 1 0 1 1 1.414-1.414l10.387 10.386A1 1 0 0 1 20.4 38.08L10.013 27.694z"/>
        <path fill="#66758A" d="M11.707 38.707a1 1 0 0 1-1.414-1.414L20.88 26.706a1 1 0 1 1 1.414 1.414L11.707 38.707z"/>
    </g>
</svg>
